22700 0 2 4           
16 Autodesk Neutron 20 ASM 227.1.1.65535 NT 24 Tue Aug 24 22:26:26 2021 
10 9.999999999999999547e-07 1.000000000000000036e-10 
asmheader $-1 -1 @13 227.1.1.65535 #
body $2 106 $-1 $3 $-1 $4 #
ATTRIB_CUSTOM-attrib $-1 -1 $5 $-1 $1 @20 Timestamp_attrib_def 1 1461897536001 #
lump $-1 -1 $-1 $-1 $6 $1 #
transform $-1 -1 1 0 0 0 1 0 0 0 1 0 0 0 1 no_rotate no_reflect no_shear #
ATTRIB_CUSTOM-attrib $7 -1 $8 $2 $1 @22 generic_tag_attrib_def 3 3 -1 @23 generic_tag_attrib_def  1 3 @3 485 1 0 0 #
shell $-1 -1 $-1 $-1 $-1 $9 $-1 $3 #
ATTRIB_CUSTOM-attrib $-1 -1 $-1 $-1 $5 @22 generic_tag_attrib_def 3 3 -1 @23 generic_tag_attrib_def  1 0 @0  0 1 511 0 #
DXID-attrib $-1 -1 $-1 $5 $1 @10 ASM ENTITY @1 0 #
face $10 0 $-1 $11 $12 $6 $-1 $13 reversed single #
ATTRIB_CUSTOM-attrib $14 -1 $-1 $-1 $9 @22 generic_tag_attrib_def 3 3 -1 @23 generic_tag_attrib_def  1 1 @1 0 0 1 -485 0 #
face $15 1 $-1 $16 $17 $6 $-1 $13 reversed single #
loop $-1 -1 $-1 $-1 $18 $9 #
plane-surface $-1 -1 $-1 4.49562256970551033 -17.34179841845522674 -50.50191757919569824 1.620381468493801689e-16 -1 6.123233995736766036e-17 1 1.620381468493801689e-16 -1.620381468493801689e-16 forward_v I I I I #
ATTRIB_CUSTOM-attrib $-1 -1 $-1 $-1 $10 @22 generic_tag_attrib_def 3 3 -1 @23 generic_tag_attrib_def  1 0 @0  0 1 511 0 #
ATTRIB_CUSTOM-attrib $19 -1 $-1 $-1 $11 @22 generic_tag_attrib_def 3 3 -1 @23 generic_tag_attrib_def  1 1 @1 1 0 1 -485 0 #
face $20 2 $-1 $21 $22 $6 $-1 $23 forward single #
loop $-1 -1 $-1 $-1 $24 $11 #
coedge $-1 -1 $-1 $25 $26 $27 $28 reversed $12 0 $-1 #
ATTRIB_CUSTOM-attrib $-1 -1 $-1 $-1 $15 @22 generic_tag_attrib_def 3 3 -1 @23 generic_tag_attrib_def  1 0 @0  0 1 511 0 #
ATTRIB_CUSTOM-attrib $29 -1 $-1 $-1 $16 @22 generic_tag_attrib_def 3 3 -1 @23 generic_tag_attrib_def  1 1 @1 2 0 1 -485 0 #
face $30 3 $-1 $31 $32 $6 $-1 $33 forward single #
loop $-1 -1 $-1 $-1 $34 $16 #
sphere-surface $-1 -1 $-1 4.49562256970551033 -17.34179841845522674 -48.777237279514992 2.800000000000000711 1.731951532139742779e-48 -1 -5.336987708760452382e-81 1 1.731951532139742779e-48 -3.081487911019577365e-33 forward_v I I I I #
coedge $-1 -1 $-1 $35 $36 $37 $38 reversed $17 0 $-1 #
coedge $-1 -1 $-1 $39 $18 $40 $41 forward $12 0 $-1 #
coedge $-1 -1 $-1 $18 $39 $42 $43 forward $12 0 $-1 #
coedge $-1 -1 $-1 $44 $45 $18 $28 forward $46 0 $-1 #
edge $-1 35 $-1 $47 -0.3467001677157663941 $48 -0.2450045372088975881 $27 $49 forward @7 unknown #
ATTRIB_CUSTOM-attrib $-1 -1 $-1 $-1 $20 @22 generic_tag_attrib_def 3 3 -1 @23 generic_tag_attrib_def  1 0 @0  0 1 511 0 #
ATTRIB_CUSTOM-attrib $50 -1 $-1 $-1 $21 @22 generic_tag_attrib_def 3 3 -1 @23 generic_tag_attrib_def  1 1 @1 3 0 1 -485 0 #
face $51 4 $-1 $52 $53 $6 $-1 $54 forward single #
loop $-1 -1 $-1 $55 $56 $21 #
sphere-surface $-1 -1 $-1 4.49562256970551033 -17.34179841845522674 -48.777237279514992 -2.700000000000000178 1.731951532139742779e-48 -1 -5.336987708760452382e-81 1 1.731951532139742779e-48 -3.081487911019577365e-33 forward_v I I I I #
coedge $-1 -1 $-1 $42 $57 $44 $58 reversed $22 0 $-1 #
coedge $-1 -1 $-1 $59 $24 $57 $60 forward $17 0 $-1 #
coedge $-1 -1 $-1 $24 $59 $61 $62 forward $17 0 $-1 #
coedge $-1 -1 $-1 $45 $44 $24 $38 forward $46 0 $-1 #
edge $-1 39 $-1 $63 0.245004537208817208 $64 0.3467001677156797967 $37 $65 forward @7 unknown #
coedge $-1 -1 $-1 $26 $25 $66 $67 reversed $12 0 $-1 #
coedge $-1 -1 $-1 $68 $69 $25 $41 reversed $55 0 $-1 #
edge $-1 36 $-1 $47 -1.384536023218166712 $70 -0 $40 $71 forward @7 unknown #
coedge $-1 -1 $-1 $72 $34 $26 $43 reversed $22 0 $-1 #
edge $-1 38 $-1 $73 -3.141592653589793116 $48 -1.750330678171255983 $42 $74 forward @7 unknown #
coedge $-1 -1 $-1 $37 $27 $34 $58 forward $46 0 $-1 #
coedge $-1 -1 $-1 $27 $37 $68 $75 forward $46 0 $-1 #
loop $-1 -1 $-1 $76 $44 $77 #
vertex $-1 108 $-1 $75 2 $78 #
vertex $-1 107 $-1 $58 2 $79 #
straight-curve $-1 -1 $-1 4.99562256970551033 -17.34179841845522674 -51.777237279514992 -3.081487911019577365e-33 5.62050406216485893e-16 -1 I I #
ATTRIB_CUSTOM-attrib $-1 -1 $-1 $-1 $30 @22 generic_tag_attrib_def 3 3 -1 @23 generic_tag_attrib_def  1 0 @0  0 1 511 0 #
ATTRIB_CUSTOM-attrib $80 -1 $-1 $-1 $31 @22 generic_tag_attrib_def 3 3 -1 @23 generic_tag_attrib_def  1 1 @1 4 0 1 -485 0 #
face $81 5 $-1 $82 $83 $6 $-1 $84 forward single #
loop $-1 -1 $-1 $-1 $85 $31 #
plane-surface $-1 -1 $-1 4.49562256970551033 -19.06647871813593298 -48.777237279514992 3.081487911019577365e-33 0 1 1 1.731951532139742779e-48 -3.081487911019577365e-33 forward_v I I I I #
loop $-1 -1 $-1 $-1 $68 $21 #
coedge $-1 -1 $-1 $86 $87 $88 $89 reversed $32 0 $-1 #
coedge $-1 -1 $-1 $34 $72 $35 $60 reversed $22 0 $-1 #
edge $-1 43 $-1 $48 -1.570796326794895892 $63 1.570796326794895448 $44 $90 forward @7 unknown #
coedge $-1 -1 $-1 $36 $35 $91 $92 reversed $17 0 $-1 #
edge $-1 40 $-1 $63 -1.391261975418697894 $93 -0 $57 $74 forward @7 unknown #
coedge $-1 -1 $-1 $69 $68 $36 $62 reversed $55 0 $-1 #
edge $-1 42 $-1 $94 -3.141592653589793116 $64 -1.757056630371452766 $61 $71 forward @7 unknown #
vertex $-1 112 $-1 $58 2 $95 #
vertex $-1 111 $-1 $75 2 $96 #
straight-curve $-1 -1 $-1 3.995622569705509886 -17.34179841845522674 -51.777237279514992 3.081487911019577365e-33 -5.62050406216485893e-16 1 I I #
coedge $-1 -1 $-1 $97 $85 $39 $67 forward $53 0 $-1 #
edge $-1 37 $-1 $73 0 $70 0.1000000000000000888 $66 $98 forward @7 unknown #
coedge $-1 -1 $-1 $61 $40 $45 $75 reversed $55 0 $-1 #
coedge $-1 -1 $-1 $40 $61 $97 $99 reversed $55 0 $-1 #
vertex $-1 109 $-1 $67 2 $100 #
ellipse-curve $-1 -1 $-1 4.49562256970551033 -17.34179841845522674 -48.777237279514992 1.620381468493801689e-16 -1 6.123233995736766036e-17 2.700000000000000178 4.375029964933264757e-16 -4.375029964933264757e-16 1 I I #
coedge $-1 -1 $-1 $57 $42 $85 $101 reversed $22 0 $-1 #
vertex $-1 110 $-1 $101 2 $102 #
ellipse-curve $-1 -1 $-1 4.49562256970551033 -17.34179841845522674 -48.777237279514992 -1.620381468493801689e-16 1 -6.123233995736766036e-17 -2.800000000000000711 -4.537068111782645518e-16 4.537068111782645518e-16 1 I I #
edge $-1 53 $-1 $64 -1.57079632679489567 $47 1.570796326794895892 $45 $103 forward @7 unknown #
loop $-1 -1 $-1 $104 $105 $77 #
face $106 11 $-1 $107 $46 $6 $-1 $108 forward single #
point $-1 -1 $-1 4.995622569705970406 -17.34179841845522674 -51.43053711179922516 #
point $-1 -1 $-1 4.995622569705952642 -17.34179841845522674 -51.53223274230609263 #
ATTRIB_CUSTOM-attrib $-1 -1 $-1 $-1 $51 @22 generic_tag_attrib_def 3 3 -1 @23 generic_tag_attrib_def  1 0 @0  0 1 511 0 #
ATTRIB_CUSTOM-attrib $109 -1 $-1 $-1 $52 @22 generic_tag_attrib_def 3 3 -1 @23 generic_tag_attrib_def  1 1 @1 5 0 1 -485 0 #
face $110 6 $-1 $111 $112 $6 $-1 $113 forward single #
loop $-1 -1 $-1 $-1 $114 $52 #
plane-surface $-1 -1 $-1 4.49562256970551033 -18.59179841845522674 -48.277237279514992 1.275799688284008156e-48 -1 -1.480297366166875305e-16 -3.081487911019577365e-33 1.480297366166875305e-16 -1 forward_v I I I I #
coedge $-1 -1 $-1 $66 $91 $72 $101 forward $53 0 $-1 #
coedge $-1 -1 $-1 $115 $56 $116 $117 reversed $32 0 $-1 #
coedge $-1 -1 $-1 $56 $118 $119 $120 reversed $32 0 $-1 #
coedge $-1 -1 $-1 $121 $122 $56 $89 forward $123 0 $-1 #
edge $-1 45 $-1 $124 -0.04904869810586429818 $125 0.04904869810586429818 $88 $126 forward @7 unknown #
ellipse-curve $-1 -1 $-1 4.49562256970551033 -17.34179841845522674 -51.53223274230617079 -3.081487911019577365e-33 5.620504062164857944e-16 -1 -5.024797654973329334e-49 -0.4999999999999999445 -4.440892098500626162e-16 1 I I #
coedge $-1 -1 $-1 $85 $97 $59 $92 forward $53 0 $-1 #
edge $-1 41 $-1 $94 -0 $93 0.1000000000000000888 $91 $127 forward @7 unknown #
vertex $-1 113 $-1 $101 2 $128 #
vertex $-1 114 $-1 $99 2 $129 #
point $-1 -1 $-1 3.995622569705509886 -17.34179841845522674 -51.53223274230617079 #
point $-1 -1 $-1 3.995622569705509886 -17.34179841845522674 -51.43053711179931042 #
coedge $-1 -1 $-1 $91 $66 $69 $99 forward $53 0 $-1 #
straight-curve $-1 -1 $-1 7.295622569705516369 -17.34179841845522674 -48.777237279514992 -1 -1.224646799147349509e-16 3.081487911019577365e-33 F 0 F 0.1000000000000000888 #
edge $-1 54 $-1 $70 0 $94 3.141592653589793116 $97 $130 forward @7 unknown #
point $-1 -1 $-1 7.195622569705516725 -17.34179841845522674 -48.777237279514992 #
edge $-1 44 $-1 $93 0 $73 3.141592653589793116 $85 $131 forward @7 unknown #
point $-1 -1 $-1 7.295622569705516369 -17.34179841845522674 -48.777237279514992 #
ellipse-curve $-1 -1 $-1 4.49562256970551033 -17.34179841845522674 -51.43053711179931042 3.081487911019577365e-33 -5.620504062164857944e-16 1 -5.024797654973329334e-49 -0.4999999999999999445 -4.440892098500626162e-16 1 I I #
loop $-1 -1 $-1 $-1 $132 $77 #
coedge $-1 -1 $-1 $133 $134 $135 $136 reversed $76 0 $-1 #
ATTRIB_CUSTOM-attrib $137 -1 $-1 $-1 $77 @22 generic_tag_attrib_def 3 3 -1 @23 generic_tag_attrib_def  1 2 @2 11 0 1 -485 0 #
face $138 12 $-1 $139 $140 $6 $-1 $108 forward single #
cone-surface $-1 -1 $-1 4.49562256970551033 -17.34179841845522674 -51.777237279514992 3.081487911019577365e-33 -5.620504062164857944e-16 1 7.831743407925288229e-50 -0.4999999999999999445 -2.556097426746043755e-16 1 I I 0 1 0.4999999999999999445 forward I I I I #
ATTRIB_CUSTOM-attrib $-1 -1 $-1 $-1 $81 @22 generic_tag_attrib_def 3 3 -1 @23 generic_tag_attrib_def  1 0 @0  0 1 511 0 #
ATTRIB_CUSTOM-attrib $141 -1 $-1 $-1 $82 @22 generic_tag_attrib_def 3 3 -1 @23 generic_tag_attrib_def  1 1 @1 6 0 1 -485 0 #
face $142 7 $-1 $143 $144 $6 $-1 $145 forward single #
loop $-1 -1 $-1 $-1 $146 $82 #
cone-surface $-1 -1 $-1 4.54562256970551104 -18.54179841845522603 -49.02333511452098236 -3.081487911019577365e-33 1.480297366166875305e-16 -1 0.03535533905932728566 -0.03535533905932746607 -1.089470499013153069e-34 1 I I 0 1 0.04999999999999999584 forward I I I I #
coedge $-1 -1 $-1 $147 $148 $149 $150 forward $83 0 $-1 #
coedge $-1 -1 $-1 $151 $86 $152 $153 reversed $32 0 $-1 #
coedge $-1 -1 $-1 $154 $155 $86 $117 forward $156 0 $-1 #
edge $-1 46 $-1 $157 -0.08474018760605563083 $124 0.05094581871616330609 $116 $158 forward @7 unknown #
coedge $-1 -1 $-1 $87 $159 $160 $161 reversed $32 0 $-1 #
coedge $-1 -1 $-1 $162 $163 $87 $120 forward $164 0 $-1 #
edge $-1 52 $-1 $125 -0.05094581251736643446 $165 0.08474018760605543654 $119 $166 forward @7 unknown #
coedge $-1 -1 $-1 $135 $88 $163 $167 reversed $123 0 $-1 #
coedge $-1 -1 $-1 $88 $135 $154 $168 reversed $123 0 $-1 #
loop $-1 -1 $-1 $-1 $88 $169 #
vertex $-1 116 $-1 $168 2 $170 #
vertex $-1 115 $-1 $89 2 $171 #
ellipse-curve $-1 -1 $-1 4.49562256970551033 -17.34179841845522674 -51.277237279514992 -3.081487911019577365e-33 0 -1 1.766250931795500053e-48 -1.019803902718560584 -5.442680894154897475e-81 1 I I #
straight-curve $-1 -1 $-1 1.795622569705510596 -17.34179841845522674 -48.777237279514992 -1 -1.731951532139742779e-48 3.081487911019577365e-33 F -0 F 0.1000000000000000888 #
point $-1 -1 $-1 1.695622569705509175 -17.34179841845522674 -48.777237279514992 #
point $-1 -1 $-1 1.795622569705510596 -17.34179841845522674 -48.777237279514992 #
ellipse-curve $-1 -1 $-1 4.49562256970551033 -17.34179841845522674 -48.777237279514992 -3.081487911019577365e-33 0 -1 2.700000000000000178 4.676269136777305867e-48 -8.320017359752859433e-33 1 F 0 F 3.141592653589793116 #
ellipse-curve $-1 -1 $-1 4.49562256970551033 -17.34179841845522674 -48.777237279514992 3.081487911019577365e-33 0 1 -2.800000000000000711 -4.849464289991281239e-48 8.628166150854818811e-33 1 F 0 F 3.141592653589793116 #
coedge $-1 -1 $-1 $132 $132 $172 $173 forward $104 0 $-1 #
coedge $-1 -1 $-1 $174 $105 $175 $176 reversed $76 0 $-1 #
coedge $-1 -1 $-1 $105 $174 $177 $178 reversed $76 0 $-1 #
coedge $-1 -1 $-1 $122 $121 $105 $136 forward $123 0 $-1 #
edge $-1 72 $-1 $179 -0.1001674211615598276 $180 0.1001674211615598276 $135 $181 forward @7 unknown #
ATTRIB_CUSTOM-attrib $-1 -1 $-1 $-1 $106 @22 generic_tag_attrib_def 3 3 -1 @23 generic_tag_attrib_def  1 0 @0  0 1 511 0 #
ATTRIB_CUSTOM-attrib $182 -1 $-1 $-1 $107 @22 generic_tag_attrib_def 3 3 -1 @23 generic_tag_attrib_def  1 2 @2 12 0 1 -485 0 #
face $183 13 $-1 $184 $185 $6 $-1 $186 forward single #
loop $-1 -1 $-1 $187 $188 $107 #
ATTRIB_CUSTOM-attrib $-1 -1 $-1 $-1 $110 @22 generic_tag_attrib_def 3 3 -1 @23 generic_tag_attrib_def  1 0 @0  0 1 511 0 #
ATTRIB_CUSTOM-attrib $189 -1 $-1 $-1 $111 @22 generic_tag_attrib_def 3 3 -1 @23 generic_tag_attrib_def  1 1 @1 7 0 1 -485 0 #
face $190 8 $-1 $191 $156 $6 $-1 $192 forward single #
loop $-1 -1 $-1 $-1 $152 $111 #
plane-surface $-1 -1 $-1 4.595622569705511751 -17.3761132166236294 -49.76943294952696561 1 1.731951532139742779e-48 -3.081487911019577365e-33 -3.081487911019577365e-33 0 -1 forward_v I I I I #
coedge $-1 -1 $-1 $193 $194 $151 $195 forward $112 0 $-1 #
coedge $-1 -1 $-1 $196 $114 $194 $197 reversed $83 0 $-1 #
coedge $-1 -1 $-1 $114 $196 $198 $199 reversed $83 0 $-1 #
coedge $-1 -1 $-1 $159 $151 $114 $150 reversed $32 0 $-1 #
edge $-1 49 $-1 $200 3.120698775580687645 $201 3.162486531598898587 $114 $202 forward @7 unknown #
coedge $-1 -1 $-1 $149 $115 $146 $195 reversed $32 0 $-1 #
coedge $-1 -1 $-1 $203 $204 $115 $153 forward $144 0 $-1 #
edge $-1 47 $-1 $205 2.68069799528426822 $157 2.709354404496921553 $152 $206 forward @7 unknown #
coedge $-1 -1 $-1 $207 $116 $122 $168 forward $156 0 $-1 #
coedge $-1 -1 $-1 $116 $208 $203 $209 forward $156 0 $-1 #
loop $-1 -1 $-1 $-1 $116 $143 #
vertex $-1 117 $-1 $117 2 $210 #
intcurve-curve $-1 -1 $-1 forward { int_int_cur 20900 full nubs 3 open 7 
	-0.08474018760605563083 3 -0.08327872819912218727 2 0 3 0.03370105109094576751 2 0.04217548193091760766 2 
	0.05064991277088945476 2 0.05094581871616330609 3 
	4.595622569705511751 -18.47206387400095906 -51.22723727951498773 
	4.595622569705511751 -18.47159455264571903 -51.22745379286820366 
	4.595621164803713299 -18.47112514928338456 -51.22767023783821827 
	4.595458143813559104 -18.44390397011504135 -51.24021594437512306 
	4.591316645822235643 -18.41692913500758166 -51.2522538815169213 
	4.580977908764838347 -18.39333220521786316 -51.26259261857431682 
	4.576794051574390565 -18.38378305198714457 -51.2667764757647646 
	4.570527458095522633 -18.37283390076287048 -51.27152701560567749 
	4.559829357449837417 -18.3644986335573428 -51.27523042161742239 
	4.557264678842409822 -18.3629116194520563 -51.27594437161638297 
	4.551725658367249849 -18.36078425645355594 -51.2769431334882313 
	4.548741727756109299 -18.36026506653201906 -51.27721968372433992 
	4.545820106349934164 -18.36036686594800216 -51.27723698647815809 
	4.545721398128224067 -18.36037100653192766 -51.277237279514992 
	4.54562256970551104 -18.36037585782839798 -51.277237279514992 
	0.0002675955780053768801 
	
	cone 4.54562256970551104 -17.98395581753942807 -51.22723727951498773 -1.731951532139742779e-48 1 5.336987708760452382e-81 0.03535533905932744525 6.123373365312225805e-50 -0.03535533905932730647 1 I I -0 -1 0.04999999999999999584 forward I I I I 
	sphere 4.49562256970551033 -17.34179841845522674 -48.777237279514992 -2.700000000000000178 1.731951532139742779e-48 -1 -5.336987708760452382e-81 1 1.731951532139742779e-48 -3.081487911019577365e-33 forward_v I I I I 
	nullbs 
	nullbs 
	I I 
	0 
	0 
	0 
	
	0 } I I #
coedge $-1 -1 $-1 $118 $149 $211 $212 reversed $32 0 $-1 #
coedge $-1 -1 $-1 $213 $214 $118 $161 forward $215 0 $-1 #
edge $-1 51 $-1 $165 0.4322382490928715071 $216 0.4608946583055251733 $160 $217 forward @7 unknown #
coedge $-1 -1 $-1 $218 $119 $214 $219 forward $164 0 $-1 #
coedge $-1 -1 $-1 $119 $220 $121 $167 forward $164 0 $-1 #
loop $-1 -1 $-1 $-1 $119 $221 #
vertex $-1 122 $-1 $219 2 $222 #
intcurve-curve $-1 -1 $-1 forward { int_int_cur 20900 full nubs 3 open 7 
	-0.05094581251736643446 3 -0.05064991277088959354 2 -0.04217548193091769093 2 -0.03370105109094584384 2 0 3 
	0.08327872819912218727 2 0.08474018760605543654 3 
	4.445622569705511395 -18.36037585782839798 -51.277237279514992 
	4.445523739281430409 -18.36037100643368447 -51.277237279514992 
	4.445425030996110749 -18.36036686587604905 -51.27723698646592965 
	4.442503411654911361 -18.36026506653201906 -51.27721968372433992 
	4.439519481043772586 -18.36078425645355594 -51.2769431334882313 
	4.433980460568612614 -18.3629116194520563 -51.27594437161638297 
	4.431415781961183242 -18.3644986335573428 -51.27523042161742239 
	4.420717681315499803 -18.37283390076287048 -51.27152701560567749 
	4.414451087836630094 -18.38378305198714457 -51.2667764757647646 
	4.410267230646184089 -18.39333220521786316 -51.26259261857431682 
	4.399928493588786793 -18.41692913500758166 -51.2522538815169213 
	4.395786995597463331 -18.44390397011504135 -51.24021594437512306 
	4.395623974607309137 -18.47112514928338456 -51.22767023783821827 
	4.395622569705510685 -18.47159455264571903 -51.22745379286820366 
	4.395622569705510685 -18.47206387400095906 -51.22723727951498773 
	0.0002675955780052945892 
	
	cone 4.445622569705511395 -17.98395581753942807 -51.22723727951498773 1.731951532139742779e-48 -1 -5.336987708760452382e-81 -0.03535533905932744525 -6.123373365312225805e-50 -0.03535533905932730647 1 I I -0 -1 0.04999999999999999584 forward I I I I 
	sphere 4.49562256970551033 -17.34179841845522674 -48.777237279514992 -2.700000000000000178 1.731951532139742779e-48 -1 -5.336987708760452382e-81 1 1.731951532139742779e-48 -3.081487911019577365e-33 forward_v I I I I 
	nullbs 
	nullbs 
	I I 
	0 
	0 
	0 
	
	0 } I I #
edge $-1 81 $-1 $179 -0.144663680530890959 $125 0.3764200402889702479 $121 $223 forward @7 tangent #
edge $-1 65 $-1 $124 -0.3764200402889702479 $180 0.144663680530890959 $122 $224 forward @7 tangent #
face $225 18 $-1 $226 $123 $6 $-1 $227 forward single #
point $-1 -1 $-1 4.54562256970551104 -18.36037585782839798 -51.277237279514992 #
point $-1 -1 $-1 4.445622569705511395 -18.36037585782839798 -51.277237279514992 #
coedge $-1 -1 $-1 $172 $172 $132 $173 reversed $228 0 $-1 #
edge $-1 74 $-1 $229 -1.570796326794896558 $229 4.712388980384689674 $172 $230 forward @7 unknown #
coedge $-1 -1 $-1 $134 $133 $231 $232 reversed $76 0 $-1 #
coedge $-1 -1 $-1 $233 $233 $133 $176 forward $234 0 $-1 #
edge $-1 71 $-1 $235 1.670963747956456524 $179 4.61222155922312993 $175 $236 forward @7 unknown #
coedge $-1 -1 $-1 $237 $237 $134 $178 forward $238 0 $-1 #
edge $-1 69 $-1 $180 -1.470628905633336814 $239 1.470628905633336814 $177 $236 forward @7 unknown #
vertex $-1 133 $-1 $167 2 $240 #
vertex $-1 130 $-1 $241 2 $242 #
ellipse-curve $-1 -1 $-1 4.49562256970551033 -17.34179841845522674 -51.277237279514992 3.081487911019577365e-33 0 1 7.831743407925288229e-50 -0.4999999999999999445 -2.556097426746043755e-16 1 I I #
ATTRIB_CUSTOM-attrib $-1 -1 $-1 $-1 $138 @22 generic_tag_attrib_def 3 3 -1 @23 generic_tag_attrib_def  1 0 @0  0 1 511 0 #
ATTRIB_CUSTOM-attrib $243 -1 $-1 $-1 $139 @22 generic_tag_attrib_def 3 3 -1 @23 generic_tag_attrib_def  1 2 @2 13 0 1 -485 0 #
face $244 14 $-1 $245 $246 $6 $-1 $247 forward single #
loop $-1 -1 $-1 $-1 $248 $139 #
plane-surface $-1 -1 $-1 4.49562256970551033 -17.84179841845522674 -52.277237279514992 -3.081487911019577365e-33 5.620504062164857944e-16 -1 -1 -1.731951532139742779e-48 3.081487911019577365e-33 forward_v I I I I #
loop $-1 -1 $-1 $-1 $249 $107 #
coedge $-1 -1 $-1 $188 $188 $248 $250 forward $140 0 $-1 #
ATTRIB_CUSTOM-attrib $-1 -1 $-1 $-1 $142 @22 generic_tag_attrib_def 3 3 -1 @23 generic_tag_attrib_def  1 0 @0  0 1 511 0 #
ATTRIB_CUSTOM-attrib $251 -1 $-1 $-1 $143 @22 generic_tag_attrib_def 3 3 -1 @23 generic_tag_attrib_def  1 1 @1 8 0 1 -485 0 #
face $252 9 $-1 $253 $238 $6 $-1 $254 forward single #
cone-surface $-1 -1 $-1 4.54562256970551104 -17.98395581753942807 -51.22723727951498773 -1.731951532139742779e-48 1 5.336987708760452382e-81 0.03535533905932744525 6.123373365312225805e-50 -0.03535533905932730647 1 I I 0 1 0.04999999999999999584 forward I I I I #
coedge $-1 -1 $-1 $255 $146 $204 $256 forward $112 0 $-1 #
coedge $-1 -1 $-1 $146 $255 $147 $197 forward $112 0 $-1 #
edge $-1 48 $-1 $201 -0.03853198923120369074 $205 0.0410919301156034214 $146 $257 forward @7 unknown #
coedge $-1 -1 $-1 $148 $147 $258 $259 forward $83 0 $-1 #
edge $-1 55 $-1 $260 -0.7460978350059885855 $201 2.146599387795092628 $147 $261 forward @7 tangent #
coedge $-1 -1 $-1 $262 $211 $148 $199 forward $263 0 $-1 #
edge $-1 57 $-1 $200 -2.146599387795092628 $264 0.7460978350059885855 $148 $265 forward @7 tangent #
vertex $-1 120 $-1 $199 2 $266 #
vertex $-1 119 $-1 $195 2 $267 #
ellipse-curve $-1 -1 $-1 4.49562256970551033 -18.59179841845522674 -48.777237279514992 1.275799688284008156e-48 -1 -1.480297366166875305e-16 7.374677231163357078e-33 -3.542676653892797453e-16 2.393219588754863736 1 I I #
coedge $-1 -1 $-1 $268 $152 $155 $209 reversed $144 0 $-1 #
coedge $-1 -1 $-1 $152 $269 $193 $256 reversed $144 0 $-1 #
vertex $-1 118 $-1 $256 2 $270 #
ellipse-curve $-1 -1 $-1 4.595622569705511751 -17.34179841845522674 -48.777237279514992 1 1.731951532139742779e-48 -3.081487911019577365e-33 8.314308942367450053e-33 0 2.698147512646408508 1 I I #
coedge $-1 -1 $-1 $271 $154 $237 $241 forward $156 0 $-1 #
coedge $-1 -1 $-1 $155 $271 $272 $273 forward $156 0 $-1 #
edge $-1 60 $-1 $274 -1.84215739908420062 $157 0.4881080564615333239 $203 $275 forward @7 tangent #
point $-1 -1 $-1 4.595622569705511751 -18.47206387400095906 -51.22723727951498773 #
coedge $-1 -1 $-1 $198 $276 $159 $212 forward $263 0 $-1 #
edge $-1 50 $-1 $216 -0.04109193011559710701 $200 0.03853198923121164965 $211 $277 forward @7 unknown #
coedge $-1 -1 $-1 $278 $160 $276 $279 reversed $215 0 $-1 #
coedge $-1 -1 $-1 $160 $280 $162 $219 reversed $215 0 $-1 #
loop $-1 -1 $-1 $-1 $160 $281 #
vertex $-1 121 $-1 $161 2 $282 #
ellipse-curve $-1 -1 $-1 4.395622569705510685 -17.34179841845522674 -48.777237279514992 -1 -1.731951532139742779e-48 3.081487911019577365e-33 -8.314308942367450053e-33 0 -2.698147512646408508 1 I I #
coedge $-1 -1 $-1 $283 $162 $284 $285 forward $164 0 $-1 #
edge $-1 86 $-1 $165 -0.4881080564615333239 $286 1.84215739908420062 $214 $287 forward @7 tangent #
coedge $-1 -1 $-1 $163 $283 $233 $288 forward $164 0 $-1 #
face $289 21 $-1 $290 $164 $6 $-1 $291 forward single #
point $-1 -1 $-1 4.395622569705510685 -18.47206387400095906 -51.22723727951498773 #
straight-curve $-1 -1 $-1 4.445622569705511395 -17.98395581753942807 -51.277237279514992 1.731951532139742779e-48 -1 -5.336987708760452382e-81 F -1.897158399084200475 F 0.6128436009157992581 #
straight-curve $-1 -1 $-1 4.54562256970551104 -17.98395581753942807 -51.277237279514992 -1.731951532139742779e-48 1 5.336987708760452382e-81 F -0.6128436009157992581 F 1.897158399084200475 #
ATTRIB_CUSTOM-attrib $292 -1 $-1 $-1 $169 @22 generic_tag_attrib_def 3 3 -1 @23 generic_tag_attrib_def  1 2 @2 18 0 1 -485 0 #
face $293 19 $-1 $294 $295 $6 $-1 $296 forward single #
plane-surface $-1 -1 $-1 4.49562256970551033 -18.59179841845522674 -51.277237279514992 -3.081487911019577365e-33 0 -1 -1.731951532139742779e-48 1 5.336987708760452382e-81 forward_v I I I I #
loop $-1 -1 $-1 $-1 $172 $297 #
vertex $-1 135 $-1 $173 2 $298 #
ellipse-curve $-1 -1 $-1 4.49562256970551033 -17.34179841845522674 -51.70568467795692413 3.081487911019577365e-33 -5.620504062164857944e-16 1 0.4999999999999999445 8.659757660698712374e-49 -1.540743955509788511e-33 1 I I #
coedge $-1 -1 $-1 $299 $300 $174 $232 forward $301 0 $-1 #
edge $-1 73 $-1 $239 3.041425232428233372 $235 3.24176007475135286 $231 $181 forward @7 unknown #
coedge $-1 -1 $-1 $175 $175 $220 $288 reversed $234 0 $-1 #
loop $-1 -1 $-1 $-1 $233 $253 #
vertex $-1 134 $-1 $288 2 $302 #
ellipse-curve $-1 -1 $-1 4.49562256970551033 -17.34179841845522674 -51.277237279514992 3.081487911019577365e-33 -5.620504062164857944e-16 1 0.4999999999999998335 8.659757660698710855e-49 -1.540743955509788169e-33 1 I I #
coedge $-1 -1 $-1 $177 $177 $207 $241 reversed $238 0 $-1 #
loop $-1 -1 $-1 $-1 $237 $191 #
vertex $-1 131 $-1 $303 2 $304 #
point $-1 -1 $-1 4.445622569705511395 -17.83929213700853822 -51.277237279514992 #
edge $-1 66 $-1 $180 0.144663680530890959 $239 1.139651117637510591 $207 $224 forward @5 knife #
point $-1 -1 $-1 4.54562256970551104 -17.83929213700853822 -51.277237279514992 #
ATTRIB_CUSTOM-attrib $-1 -1 $-1 $-1 $183 @22 generic_tag_attrib_def 3 3 -1 @23 generic_tag_attrib_def  1 0 @0  0 1 511 0 #
ATTRIB_CUSTOM-attrib $305 -1 $-1 $-1 $184 @22 generic_tag_attrib_def 3 3 -1 @23 generic_tag_attrib_def  1 2 @2 14 0 1 -485 0 #
face $306 15 $-1 $297 $307 $6 $-1 $308 forward single #
loop $-1 -1 $-1 $309 $310 $184 #
plane-surface $-1 -1 $-1 4.49562256970551033 -17.88381228723572391 -51.777237279514992 -3.081487911019577365e-33 5.620504062164857944e-16 -1 -1 -1.731951532139742779e-48 3.081487911019577365e-33 forward_v I I I I #
coedge $-1 -1 $-1 $248 $248 $188 $250 reversed $185 0 $-1 #
coedge $-1 -1 $-1 $249 $249 $310 $311 reversed $187 0 $-1 #
edge $-1 75 $-1 $312 -1.570796326794896558 $312 4.712388980384689674 $188 $313 forward @7 unknown #
ATTRIB_CUSTOM-attrib $-1 -1 $-1 $-1 $190 @22 generic_tag_attrib_def 3 3 -1 @23 generic_tag_attrib_def  1 0 @0  0 1 511 0 #
ATTRIB_CUSTOM-attrib $314 -1 $-1 $-1 $191 @22 generic_tag_attrib_def 3 3 -1 @23 generic_tag_attrib_def  1 1 @1 9 0 1 -485 0 #
face $315 10 $-1 $77 $234 $6 $-1 $254 forward single #
plane-surface $-1 -1 $-1 4.49562256970551033 -17.34179841845522674 -51.277237279514992 3.081487911019577365e-33 -5.620504062164857944e-16 1 1 1.731951532139742779e-48 -3.081487911019577365e-33 forward_v I I I I #
coedge $-1 -1 $-1 $194 $193 $316 $317 forward $112 0 $-1 #
edge $-1 58 $-1 $205 -2.170511359712927302 $318 0.7460978350059885855 $204 $319 forward @7 tangent #
intcurve-curve $-1 -1 $-1 forward { int_int_cur 20900 full nubs 3 open 7 
	-0.03853198923120369074 3 -0.03844057398453276653 2 -0.01922028699226641102 2 0 3 0.0205045876562219842 2 
	0.04100917531244396841 2 0.0410919301156034214 3 
	4.54562256970551104 -18.59179841845522674 -51.16993450231607454 
	4.545653050381165627 -18.59179841845522674 -51.16993386536385913 
	4.545683523579929997 -18.5917983905830404 -51.1699332425462714 
	4.552119462424188967 -18.5917866231581641 -51.16980465282346557 
	4.558890527123155678 -18.59046430676024642 -51.17032658774999021 
	4.571173156074884503 -18.5852906587024691 -51.17266311422270775 
	4.576687369247197879 -18.58144429703219558 -51.17447478143380835 
	4.580977908764838347 -18.57715375751455511 -51.17653126991126555 
	4.585555142375728366 -18.57257652390366331 -51.17872517306511071 
	4.58938689666647015 -18.56687377469285494 -51.18149429173788434 
	4.594414611804886306 -18.55458225590112775 -51.18751706707949012 
	4.595613437152412217 -18.54799429017077728 -51.19076997264961904 
	4.595622551371155495 -18.54184785388710921 -51.19382192668699361 
	4.595622569705511751 -18.54182313979390884 -51.19383419851862271 
	4.595622569705511751 -18.54179841845522603 -51.19384647423390788 
	0.0001126419444031383416 
	
	cone 4.54562256970551104 -18.54179841845522603 -49.02333511452098236 -3.081487911019577365e-33 1.480297366166875305e-16 -1 0.03535533905932728566 -0.03535533905932746607 -1.089470499013153069e-34 1 I I -0 -1 0.04999999999999999584 forward I I I I 
	sphere 4.49562256970551033 -17.34179841845522674 -48.777237279514992 -2.700000000000000178 1.731951532139742779e-48 -1 -5.336987708760452382e-81 1 1.731951532139742779e-48 -3.081487911019577365e-33 forward_v I I I I 
	nullbs 
	nullbs 
	I I 
	0 
	0 
	0 
	
	0 } I I #
coedge $-1 -1 $-1 $316 $320 $196 $259 reversed $321 0 $-1 #
edge $-1 56 $-1 $260 -0.05000000000000000278 $264 0.05000000000000000278 $196 $322 forward @7 unknown #
vertex $-1 123 $-1 $259 2 $323 #
straight-curve $-1 -1 $-1 4.54562256970551104 -18.59179841845522674 -49.02333511452098236 -3.081487911019577365e-33 1.480297366166875305e-16 -1 F -0.9010988350059886409 F 2.408903164994011803 #
coedge $-1 -1 $-1 $276 $198 $320 $324 forward $263 0 $-1 #
loop $-1 -1 $-1 $-1 $211 $325 #
vertex $-1 124 $-1 $199 2 $326 #
straight-curve $-1 -1 $-1 4.445622569705511395 -18.59179841845522674 -49.02333511452098236 3.081487911019577365e-33 -1.480297366166875305e-16 1 F -2.408903164994011803 F 0.9010988350059886409 #
point $-1 -1 $-1 4.445622569705511395 -18.59179841845522674 -51.16993450231607454 #
point $-1 -1 $-1 4.54562256970551104 -18.59179841845522674 -51.16993450231607454 #
coedge $-1 -1 $-1 $327 $203 $328 $329 reversed $144 0 $-1 #
coedge $-1 -1 $-1 $204 $330 $331 $332 forward $144 0 $-1 #
point $-1 -1 $-1 4.595622569705511751 -18.54179841845522603 -51.19384647423390788 #
coedge $-1 -1 $-1 $208 $207 $300 $303 forward $156 0 $-1 #
coedge $-1 -1 $-1 $333 $334 $208 $273 reversed $335 0 $-1 #
edge $-1 68 $-1 $336 0 $274 1.570796326794896558 $208 $337 forward @7 tangent #
vertex $-1 126 $-1 $209 2 $338 #
straight-curve $-1 -1 $-1 4.595622569705511751 -17.98395581753942807 -51.22723727951498773 1.731951532139742779e-48 -1 -5.336987708760452382e-81 F -1.897158399084200475 F 0.6128436009157992581 #
coedge $-1 -1 $-1 $211 $262 $213 $279 forward $263 0 $-1 #
intcurve-curve $-1 -1 $-1 forward { int_int_cur 20900 full nubs 3 open 7 
	-0.04109193011559710701 3 -0.04100917531244396841 2 -0.0205045876562219842 2 0 3 0.01922028699226636592 2 
	0.03844057398453273183 2 0.03853198923121164965 3 
	4.395622569705510685 -18.54179841845522603 -51.19384647423390788 
	4.395622569705510685 -18.54182313979390884 -51.19383419851862271 
	4.395622588039865164 -18.54184785388711276 -51.19382192668699361 
	4.395631702258608442 -18.54799429017077728 -51.19076997264961904 
	4.396830527606134353 -18.55458225590112775 -51.18751706707949012 
	4.401858242744550509 -18.56687377469285494 -51.18149429173788434 
	4.40568999703529407 -18.57257652390366331 -51.17872517306511071 
	4.410267230646184089 -18.57715375751455511 -51.17653126991126555 
	4.414557770163824557 -18.58144429703219558 -51.17447478143380835 
	4.420071983336137933 -18.5852906587024691 -51.17266311422270775 
	4.432354612287866757 -18.59046430676024642 -51.17032658774999021 
	4.439125676986831692 -18.5917866231581641 -51.16980465282346557 
	4.445561615831094215 -18.5917983905830404 -51.1699332425462714 
	4.445592089029858585 -18.59179841845522674 -51.16993386536385913 
	4.445622569705511395 -18.59179841845522674 -51.16993450231607454 
	0.0001126419444031408489 
	
	cone 4.445622569705511395 -18.54179841845522603 -49.02333511452098236 3.081487911019577365e-33 -1.480297366166875305e-16 1 -0.03535533905932728566 -0.03535533905932746607 1.089470499013153069e-34 1 I I -0 -1 0.04999999999999999584 forward I I I I 
	sphere 4.49562256970551033 -17.34179841845522674 -48.777237279514992 -2.700000000000000178 1.731951532139742779e-48 -1 -5.336987708760452382e-81 1 1.731951532139742779e-48 -3.081487911019577365e-33 forward_v I I I I 
	nullbs 
	nullbs 
	I I 
	0 
	0 
	0 
	
	0 } I I #
coedge $-1 -1 $-1 $339 $213 $340 $341 forward $215 0 $-1 #
edge $-1 92 $-1 $342 -0.7460978350059885855 $216 2.170511359712927302 $213 $343 forward @7 tangent #
coedge $-1 -1 $-1 $214 $344 $345 $346 reversed $215 0 $-1 #
face $347 24 $-1 $325 $215 $6 $-1 $348 reversed single #
point $-1 -1 $-1 4.395622569705510685 -18.54179841845522603 -51.19384647423390788 #
coedge $-1 -1 $-1 $220 $218 $299 $349 forward $164 0 $-1 #
coedge $-1 -1 $-1 $350 $351 $218 $285 reversed $352 0 $-1 #
edge $-1 87 $-1 $286 0 $353 1.570796326794896558 $218 $354 forward @7 tangent #
vertex $-1 143 $-1 $346 2 $355 #
straight-curve $-1 -1 $-1 4.395622569705510685 -17.98395581753942807 -51.22723727951498773 -1.731951532139742779e-48 1 5.336987708760452382e-81 F -0.6128436009157992581 F 1.897158399084200475 #
edge $-1 70 $-1 $235 -1.139651117637510591 $179 -0.144663680530890959 $220 $223 forward @5 knife #
ATTRIB_CUSTOM-attrib $356 -1 $-1 $-1 $221 @22 generic_tag_attrib_def 3 3 -1 @23 generic_tag_attrib_def  1 2 @2 21 0 1 -485 0 #
face $357 22 $-1 $358 $352 $6 $-1 $359 forward single #
cone-surface $-1 -1 $-1 4.445622569705511395 -17.98395581753942807 -51.22723727951498773 1.731951532139742779e-48 -1 -5.336987708760452382e-81 -0.03535533905932744525 -6.123373365312225805e-50 -0.03535533905932730647 1 I I 0 1 0.04999999999999999584 forward I I I I #
ATTRIB_CUSTOM-attrib $-1 -1 $-1 $-1 $225 @22 generic_tag_attrib_def 3 3 -1 @23 generic_tag_attrib_def  1 0 @0  0 1 511 0 #
ATTRIB_CUSTOM-attrib $360 -1 $-1 $-1 $226 @22 generic_tag_attrib_def 3 3 -1 @23 generic_tag_attrib_def  1 2 @2 19 0 1 -485 0 #
face $361 20 $-1 $221 $335 $6 $-1 $362 forward single #
loop $-1 -1 $-1 $-1 $363 $226 #
cone-surface $-1 -1 $-1 4.49562256970551033 -16.14179841845522745 -51.22723727951498773 -1 -1.731951532139742779e-48 3.081487911019577365e-33 -1.089470499013156704e-34 0.0353553390593273828 -0.0353553390593273828 1 I I 0 1 0.05000000000000001665 forward I I I I #
face $364 16 $-1 $365 $366 $6 $-1 $367 forward single #
point $-1 -1 $-1 4.49562256970551033 -17.84179841845522674 -51.70568467795692413 #
coedge $-1 -1 $-1 $368 $231 $283 $349 reversed $301 0 $-1 #
coedge $-1 -1 $-1 $231 $368 $271 $303 reversed $301 0 $-1 #
loop $-1 -1 $-1 $-1 $231 $365 #
point $-1 -1 $-1 4.445622569705511395 -16.84430469990191526 -51.277237279514992 #
edge $-1 67 $-1 $239 1.139651117637510591 $336 1.84215739908420062 $300 $224 forward @7 tangent #
point $-1 -1 $-1 4.54562256970551104 -16.84430469990191526 -51.277237279514992 #
ATTRIB_CUSTOM-attrib $-1 -1 $-1 $-1 $244 @22 generic_tag_attrib_def 3 3 -1 @23 generic_tag_attrib_def  1 0 @0  0 1 511 0 #
ATTRIB_CUSTOM-attrib $369 -1 $-1 $-1 $245 @22 generic_tag_attrib_def 3 3 -1 @23 generic_tag_attrib_def  1 2 @2 15 0 1 -485 0 #
loop $-1 -1 $-1 $370 $371 $245 #
cone-surface $-1 -1 $-1 4.49562256970551033 -17.34179841845522674 -51.74146097873595807 3.081487911019577365e-33 -5.620504062164857944e-16 1 -1.738410649028469689e-49 -0.5420138687804968436 -3.610537660717597204e-16 1 I I 0 1 0.5420138687804968436 forward I I I I #
loop $-1 -1 $-1 $-1 $372 $184 #
coedge $-1 -1 $-1 $310 $310 $249 $311 forward $246 0 $-1 #
edge $-1 76 $-1 $373 -1.570796326794896558 $373 4.712388980384689674 $310 $374 forward @7 unknown #
vertex $-1 136 $-1 $250 2 $375 #
ellipse-curve $-1 -1 $-1 4.49562256970551033 -17.34179841845522674 -52.277237279514992 3.081487911019577365e-33 -5.620504062164857944e-16 1 0.5 8.659757660698713893e-49 -1.540743955509788682e-33 1 I I #
ATTRIB_CUSTOM-attrib $-1 -1 $-1 $-1 $252 @22 generic_tag_attrib_def 3 3 -1 @23 generic_tag_attrib_def  1 0 @0  0 1 511 0 #
ATTRIB_CUSTOM-attrib $376 -1 $-1 $-1 $253 @22 generic_tag_attrib_def 3 3 -1 @23 generic_tag_attrib_def  1 2 @2 10 0 1 -485 0 #
coedge $-1 -1 $-1 $331 $258 $255 $317 reversed $321 0 $-1 #
edge $-1 59 $-1 $318 -0.7853981633974508325 $260 0.7853981633974457255 $316 $377 forward @7 unknown #
vertex $-1 125 $-1 $256 2 $378 #
straight-curve $-1 -1 $-1 4.595622569705511751 -18.54179841845522603 -49.02333511452098236 3.081487911019577365e-33 -1.480297366166875305e-16 1 F -2.408903164994011803 F 0.9010988350059886409 #
coedge $-1 -1 $-1 $258 $340 $262 $324 reversed $321 0 $-1 #
loop $-1 -1 $-1 $-1 $320 $379 #
straight-curve $-1 -1 $-1 4.49562256970551033 -18.59179841845522674 -48.277237279514992 -1 -1.731951532139742779e-48 3.081487911019577365e-33 I I #
point $-1 -1 $-1 4.54562256970551104 -18.59179841845522674 -48.277237279514992 #
edge $-1 96 $-1 $264 -0.7853981633974457255 $342 0.7853981633974508325 $320 $380 forward @7 unknown #
face $381 25 $-1 $382 $263 $6 $-1 $383 forward single #
point $-1 -1 $-1 4.445622569705511395 -18.59179841845522674 -48.277237279514992 #
coedge $-1 -1 $-1 $330 $268 $384 $385 forward $144 0 $-1 #
coedge $-1 -1 $-1 $386 $387 $268 $329 forward $388 0 $-1 #
edge $-1 61 $-1 $389 -1.996097835005987475 $274 0.7039021649940115921 $268 $390 forward @7 tangent #
coedge $-1 -1 $-1 $269 $327 $391 $392 reversed $144 0 $-1 #
coedge $-1 -1 $-1 $393 $316 $269 $332 reversed $321 0 $-1 #
edge $-1 64 $-1 $394 -1.250000000000000444 $318 -0.05000000000000026645 $331 $395 forward @7 unknown #
coedge $-1 -1 $-1 $334 $272 $363 $396 reversed $335 0 $-1 #
coedge $-1 -1 $-1 $272 $333 $386 $397 forward $335 0 $-1 #
loop $-1 -1 $-1 $-1 $333 $294 #
vertex $-1 132 $-1 $303 2 $398 #
ellipse-curve $-1 -1 $-1 4.54562256970551104 -16.14179841845522745 -51.22723727951498773 4.440892098500625373e-15 -1 -1.368455531567203928e-47 -1.540743955509783209e-34 0 -0.04999999999999982236 1 F 0 F 1.570796326794896558 #
point $-1 -1 $-1 4.595622569705511751 -16.14179841845522745 -51.22723727951498773 #
coedge $-1 -1 $-1 $344 $278 $399 $400 reversed $215 0 $-1 #
coedge $-1 -1 $-1 $320 $393 $278 $341 reversed $321 0 $-1 #
edge $-1 93 $-1 $342 0.05000000000000026645 $401 1.250000000000000444 $340 $402 forward @7 unknown #
vertex $-1 146 $-1 $341 2 $403 #
straight-curve $-1 -1 $-1 4.395622569705510685 -18.54179841845522603 -49.02333511452098236 -3.081487911019577365e-33 1.480297366166875305e-16 -1 F -0.9010988350059886409 F 2.408903164994011803 #
coedge $-1 -1 $-1 $280 $339 $404 $405 forward $215 0 $-1 #
coedge $-1 -1 $-1 $406 $407 $280 $346 forward $408 0 $-1 #
edge $-1 89 $-1 $286 -0.7039021649940115921 $409 1.996097835005987475 $280 $410 forward @7 tangent #
ATTRIB_CUSTOM-attrib $411 -1 $-1 $-1 $281 @22 generic_tag_attrib_def 3 3 -1 @23 generic_tag_attrib_def  1 2 @2 24 0 1 -485 0 #
plane-surface $-1 -1 $-1 4.395622569705510685 -17.3761132166236294 -49.76943294952696561 1 1.731951532139742779e-48 -3.081487911019577365e-33 -3.081487911019577365e-33 0 -1 forward_v I I I I #
edge $-1 79 $-1 $353 -1.842157399084201064 $235 -1.139651117637510591 $299 $223 forward @7 tangent #
coedge $-1 -1 $-1 $351 $284 $407 $412 forward $352 0 $-1 #
coedge $-1 -1 $-1 $284 $350 $413 $414 reversed $352 0 $-1 #
loop $-1 -1 $-1 $-1 $284 $290 #
vertex $-1 140 $-1 $415 2 $416 #
ellipse-curve $-1 -1 $-1 4.445622569705511395 -16.14179841845522745 -51.22723727951498773 -4.440892098500625373e-15 -1 1.368455531567203928e-47 -0.05000000000000000278 2.220446049250313081e-16 1.540743955509788768e-34 1 F 0 F 1.570796326794896558 #
point $-1 -1 $-1 4.395622569705510685 -16.14179841845522745 -51.22723727951498773 #
ATTRIB_CUSTOM-attrib $-1 -1 $-1 $-1 $289 @22 generic_tag_attrib_def 3 3 -1 @23 generic_tag_attrib_def  1 0 @0  0 1 511 0 #
ATTRIB_CUSTOM-attrib $417 -1 $-1 $-1 $290 @22 generic_tag_attrib_def 3 3 -1 @23 generic_tag_attrib_def  1 2 @2 22 0 1 -485 0 #
face $418 23 $-1 $281 $408 $6 $-1 $419 forward single #
sphere-surface $-1 -1 $-1 4.445622569705511395 -16.14179841845522745 -51.22723727951498773 0.05000000000000000278 -0.577350269189625509 0.5773502691896286176 -0.5773502691896233996 -0.8164965809277262565 -0.4082482904638645715 0.4082482904638609078 forward_v I I I I #
ATTRIB_CUSTOM-attrib $-1 -1 $-1 $-1 $293 @22 generic_tag_attrib_def 3 3 -1 @23 generic_tag_attrib_def  1 0 @0  0 1 511 0 #
ATTRIB_CUSTOM-attrib $420 -1 $-1 $-1 $294 @22 generic_tag_attrib_def 3 3 -1 @23 generic_tag_attrib_def  1 2 @2 20 0 1 -485 0 #
sphere-surface $-1 -1 $-1 4.54562256970551104 -16.14179841845522745 -51.22723727951498773 0.05000000000000000278 0.5773502691896271743 0.5773502691896250649 -0.5773502691896250649 -0.4082482904638632948 -0.4082482904638618515 -0.8164965809277265896 forward_v I I I I #
coedge $-1 -1 $-1 $421 $422 $333 $396 forward $295 0 $-1 #
ATTRIB_CUSTOM-attrib $423 -1 $-1 $-1 $297 @22 generic_tag_attrib_def 3 3 -1 @23 generic_tag_attrib_def  1 2 @2 16 0 1 -485 0 #
face $424 17 $-1 $169 $301 $6 $-1 $227 forward single #
loop $-1 -1 $-1 $228 $425 $297 #
plane-surface $-1 -1 $-1 4.49562256970551033 -17.84179841845522674 -51.70568467795692413 3.081487911019577365e-33 -5.620504062164857944e-16 1 1 1.731951532139742779e-48 -3.081487911019577365e-33 forward_v I I I I #
coedge $-1 -1 $-1 $300 $299 $421 $415 reversed $301 0 $-1 #
ATTRIB_CUSTOM-attrib $-1 -1 $-1 $-1 $306 @22 generic_tag_attrib_def 3 3 -1 @23 generic_tag_attrib_def  1 0 @0  0 1 511 0 #
loop $-1 -1 $-1 $-1 $426 $245 #
coedge $-1 -1 $-1 $371 $371 $372 $427 forward $307 0 $-1 #
coedge $-1 -1 $-1 $372 $372 $371 $427 reversed $309 0 $-1 #
vertex $-1 137 $-1 $311 2 $428 #
ellipse-curve $-1 -1 $-1 4.49562256970551033 -17.34179841845522674 -51.777237279514992 3.081487911019577365e-33 -5.620504062164857944e-16 1 0.4999999999999999445 8.659757660698712374e-49 -1.540743955509788511e-33 1 I I #
point $-1 -1 $-1 4.49562256970551033 -17.84179841845522674 -52.277237279514992 #
ATTRIB_CUSTOM-attrib $-1 -1 $-1 $-1 $315 @22 generic_tag_attrib_def 3 3 -1 @23 generic_tag_attrib_def  1 0 @0  0 1 511 0 #
ellipse-curve $-1 -1 $-1 4.54562256970551104 -18.54179841845522603 -48.277237279514992 -3.081487911019577365e-33 0 -1 0.03535533905932728566 -0.03535533905932746607 -1.089470499013153069e-34 1 I I #
point $-1 -1 $-1 4.595622569705511751 -18.54179841845522603 -48.277237279514992 #
face $429 29 $-1 $430 $321 $6 $-1 $431 forward single #
ellipse-curve $-1 -1 $-1 4.445622569705511395 -18.54179841845522603 -48.277237279514992 -3.081487911019577365e-33 0 -1 -0.03535533905932728566 -0.03535533905932746607 1.089470499013153069e-34 1 I I #
ATTRIB_CUSTOM-attrib $432 -1 $-1 $-1 $325 @22 generic_tag_attrib_def 3 3 -1 @23 generic_tag_attrib_def  1 2 @2 25 0 1 -485 0 #
face $433 26 $-1 $434 $435 $6 $-1 $436 forward single #
cone-surface $-1 -1 $-1 4.445622569705511395 -18.54179841845522603 -49.02333511452098236 3.081487911019577365e-33 -1.480297366166875305e-16 1 -0.03535533905932728566 -0.03535533905932746607 1.089470499013153069e-34 1 I I 0 1 0.04999999999999999584 forward I I I I #
coedge $-1 -1 $-1 $437 $438 $327 $385 reversed $439 0 $-1 #
edge $-1 62 $-1 $389 -0.9499999999999997335 $440 -0 $384 $441 forward @7 unknown #
coedge $-1 -1 $-1 $442 $328 $334 $397 reversed $388 0 $-1 #
coedge $-1 -1 $-1 $328 $442 $437 $443 forward $388 0 $-1 #
loop $-1 -1 $-1 $-1 $386 $444 #
vertex $-1 127 $-1 $385 2 $445 #
straight-curve $-1 -1 $-1 4.595622569705511751 -16.14179841845522745 -50.52333511452098236 -3.081487911019577365e-33 0 -1 F -2.301098835005988441 F 0.9089031649940118029 #
coedge $-1 -1 $-1 $446 $447 $330 $392 forward $448 0 $-1 #
edge $-1 63 $-1 $394 -3.141592653589793116 $440 1.570796326794896558 $391 $449 forward @7 unknown #
coedge $-1 -1 $-1 $340 $331 $447 $450 reversed $321 0 $-1 #
vertex $-1 129 $-1 $450 2 $451 #
straight-curve $-1 -1 $-1 4.595622569705511751 -18.59179841845522674 -48.277237279514992 1.731951532139742779e-48 -1 -5.336987708760452382e-81 I I #
edge $-1 82 $-1 $452 0 $336 1.570796326794896558 $363 $453 forward @7 tangent #
edge $-1 85 $-1 $452 -0.7853981633974449483 $274 0.7853981633974516097 $386 $454 forward @7 tangent #
point $-1 -1 $-1 4.54562256970551104 -16.14179841845522745 -51.277237279514992 #
coedge $-1 -1 $-1 $447 $446 $339 $400 forward $448 0 $-1 #
edge $-1 94 $-1 $455 -1.570796326794896558 $401 3.141592653589793116 $399 $456 forward @7 unknown #
vertex $-1 147 $-1 $400 2 $457 #
straight-curve $-1 -1 $-1 4.395622569705510685 -18.59179841845522674 -48.277237279514992 -1.731951532139742779e-48 1 5.336987708760452382e-81 I I #
point $-1 -1 $-1 4.395622569705510685 -18.54179841845522603 -48.277237279514992 #
coedge $-1 -1 $-1 $438 $458 $344 $405 reversed $439 0 $-1 #
edge $-1 95 $-1 $455 0 $409 0.9499999999999997335 $404 $459 forward @7 unknown #
coedge $-1 -1 $-1 $460 $345 $458 $461 forward $408 0 $-1 #
coedge $-1 -1 $-1 $345 $460 $350 $412 reversed $408 0 $-1 #
loop $-1 -1 $-1 $-1 $407 $358 #
vertex $-1 144 $-1 $461 2 $462 #
straight-curve $-1 -1 $-1 4.395622569705510685 -16.14179841845522745 -50.52333511452098236 3.081487911019577365e-33 0 1 F -0.9089031649940118029 F 2.301098835005988441 #
ATTRIB_CUSTOM-attrib $-1 -1 $-1 $-1 $347 @22 generic_tag_attrib_def 3 3 -1 @23 generic_tag_attrib_def  1 0 @0  0 1 511 0 #
edge $-1 88 $-1 $286 -0.7853981633974516097 $463 0.7853981633974449483 $407 $464 forward @7 tangent #
coedge $-1 -1 $-1 $422 $421 $351 $414 forward $295 0 $-1 #
edge $-1 83 $-1 $353 0 $463 1.570796326794896558 $413 $465 forward @7 tangent #
edge $-1 80 $-1 $336 -0.05000000000000000278 $353 0.05000000000000000278 $368 $466 forward @7 tangent #
point $-1 -1 $-1 4.445622569705511395 -16.14179841845522745 -51.277237279514992 #
ATTRIB_CUSTOM-attrib $-1 -1 $-1 $-1 $357 @22 generic_tag_attrib_def 3 3 -1 @23 generic_tag_attrib_def  1 0 @0  0 1 511 0 #
ATTRIB_CUSTOM-attrib $467 -1 $-1 $-1 $358 @22 generic_tag_attrib_def 3 3 -1 @23 generic_tag_attrib_def  1 2 @2 23 0 1 -485 0 #
cone-surface $-1 -1 $-1 4.445622569705511395 -16.14179841845522745 -50.52333511452098236 -3.081487911019577365e-33 0 -1 -0.03535533905932728566 0.03535533905932746607 1.089470499013153069e-34 1 I I 0 1 0.04999999999999999584 forward I I I I #
ATTRIB_CUSTOM-attrib $-1 -1 $-1 $-1 $361 @22 generic_tag_attrib_def 3 3 -1 @23 generic_tag_attrib_def  1 0 @0  0 1 511 0 #
coedge $-1 -1 $-1 $413 $363 $368 $415 forward $295 0 $-1 #
coedge $-1 -1 $-1 $363 $413 $468 $469 forward $295 0 $-1 #
ATTRIB_CUSTOM-attrib $-1 -1 $-1 $-1 $364 @22 generic_tag_attrib_def 3 3 -1 @23 generic_tag_attrib_def  1 0 @0  0 1 511 0 #
ATTRIB_CUSTOM-attrib $470 -1 $-1 $-1 $365 @22 generic_tag_attrib_def 3 3 -1 @23 generic_tag_attrib_def  1 2 @2 17 0 1 -485 0 #
coedge $-1 -1 $-1 $425 $425 $426 $471 forward $366 0 $-1 #
coedge $-1 -1 $-1 $426 $426 $425 $471 reversed $370 0 $-1 #
edge $-1 77 $-1 $472 -1.570796326794896558 $472 4.712388980384689674 $371 $473 forward @7 unknown #
point $-1 -1 $-1 4.49562256970551033 -17.84179841845522674 -51.777237279514992 #
ATTRIB_CUSTOM-attrib $474 -1 $-1 $-1 $379 @22 generic_tag_attrib_def 3 3 -1 @23 generic_tag_attrib_def  1 2 @2 29 0 1 -485 0 #
face $475 30 $-1 $476 $477 $6 $-1 $478 forward single #
plane-surface $-1 -1 $-1 4.49562256970551033 -17.34179841845522674 -48.277237279514992 3.081487911019577365e-33 0 1 1.731951532139742779e-48 -1 -5.336987708760452382e-81 forward_v I I I I #
ATTRIB_CUSTOM-attrib $-1 -1 $-1 $-1 $381 @22 generic_tag_attrib_def 3 3 -1 @23 generic_tag_attrib_def  1 0 @0  0 1 511 0 #
ATTRIB_CUSTOM-attrib $479 -1 $-1 $-1 $382 @22 generic_tag_attrib_def 3 3 -1 @23 generic_tag_attrib_def  1 2 @2 26 0 1 -485 0 #
face $480 27 $-1 $444 $439 $6 $-1 $481 forward single #
loop $-1 -1 $-1 $-1 $468 $382 #
plane-surface $-1 -1 $-1 4.49562256970551033 -16.09179841845522674 -51.277237279514992 -1.731951532139742779e-48 1 5.336987708760452382e-81 3.081487911019577365e-33 0 1 forward_v I I I I #
coedge $-1 -1 $-1 $482 $384 $387 $443 reversed $439 0 $-1 #
coedge $-1 -1 $-1 $384 $404 $446 $483 reversed $439 0 $-1 #
loop $-1 -1 $-1 $-1 $458 $434 #
vertex $-1 128 $-1 $483 2 $484 #
straight-curve $-1 -1 $-1 4.595622569705511751 -17.09179841845522674 -48.527237279514992 1.731951532139742779e-48 -1 -5.336987708760452382e-81 I I #
coedge $-1 -1 $-1 $387 $386 $485 $486 forward $388 0 $-1 #
edge $-1 100 $-1 $487 -0.7853981633974457255 $389 0.7853981633974508325 $437 $488 forward @7 unknown #
face $489 28 $-1 $379 $388 $6 $-1 $490 forward single #
point $-1 -1 $-1 4.595622569705511751 -16.14179841845522745 -48.527237279514992 #
coedge $-1 -1 $-1 $399 $391 $438 $483 forward $448 0 $-1 #
coedge $-1 -1 $-1 $391 $399 $393 $450 forward $448 0 $-1 #
loop $-1 -1 $-1 $491 $399 $492 #
ellipse-curve $-1 -1 $-1 4.595622569705511751 -17.34179841845522674 -48.527237279514992 1 1.731951532139742779e-48 -3.081487911019577365e-33 -7.703719777548948544e-34 0 -0.2500000000000001665 1 I I #
edge $-1 101 $-1 $401 -0.2000000000000000111 $394 1.387778780781445676e-17 $447 $493 forward @7 tangent #
point $-1 -1 $-1 4.595622569705511751 -17.34179841845522674 -48.277237279514992 #
vertex $-1 141 $-1 $486 2 $494 #
ellipse-curve $-1 -1 $-1 4.54562256970551104 -16.14179841845522745 -51.22723727951498773 -1 -1.731951532139742779e-48 3.081487911019577365e-33 -8.659757660698683128e-50 0.04999999999999982236 2.668493854380216711e-82 1 F 0 F 1.570796326794896558 #
ellipse-curve $-1 -1 $-1 4.54562256970551104 -16.14179841845522745 -51.22723727951498773 -3.081487911019577365e-33 0 -1 0.03535533905932729953 0.03535533905932752852 -1.089470499013153497e-34 1 I I #
vertex $-1 148 $-1 $400 2 $495 #
ellipse-curve $-1 -1 $-1 4.395622569705510685 -17.34179841845522674 -48.527237279514992 -1 -1.731951532139742779e-48 3.081487911019577365e-33 -7.703719777548948544e-34 0 -0.2500000000000001665 1 I I #
point $-1 -1 $-1 4.395622569705510685 -17.34179841845522674 -48.277237279514992 #
coedge $-1 -1 $-1 $404 $482 $406 $461 reversed $439 0 $-1 #
straight-curve $-1 -1 $-1 4.395622569705510685 -17.09179841845522674 -48.527237279514992 -1.731951532139742779e-48 1 5.336987708760452382e-81 I I #
coedge $-1 -1 $-1 $407 $406 $496 $497 forward $408 0 $-1 #
edge $-1 90 $-1 $409 -0.7853981633974508325 $498 0.7853981633974457255 $458 $499 forward @7 unknown #
point $-1 -1 $-1 4.395622569705510685 -16.14179841845522745 -48.527237279514992 #
vertex $-1 142 $-1 $412 2 $500 #
ellipse-curve $-1 -1 $-1 4.445622569705511395 -16.14179841845522745 -51.22723727951498773 -3.081487911019577365e-33 0 -1 -0.03535533905932729953 0.03535533905932752852 1.089470499013153497e-34 1 I I #
ellipse-curve $-1 -1 $-1 4.445622569705511395 -16.14179841845522745 -51.22723727951498773 1 1.731951532139742779e-48 -3.081487911019577365e-33 -1.540743955509783209e-34 0 -0.04999999999999982236 1 F 0 F 1.570796326794896558 #
straight-curve $-1 -1 $-1 4.49562256970551033 -16.14179841845522745 -51.277237279514992 -1 -1.731951532139742779e-48 3.081487911019577365e-33 F -0.105001000000000011 F 0.105001000000000011 #
ATTRIB_CUSTOM-attrib $-1 -1 $-1 $-1 $418 @22 generic_tag_attrib_def 3 3 -1 @23 generic_tag_attrib_def  1 0 @0  0 1 511 0 #
coedge $-1 -1 $-1 $496 $485 $422 $469 reversed $435 0 $-1 #
edge $-1 84 $-1 $463 -0.05000000000000000278 $452 0.05000000000000000278 $468 $501 forward @7 tangent #
ATTRIB_CUSTOM-attrib $-1 -1 $-1 $-1 $424 @22 generic_tag_attrib_def 3 3 -1 @23 generic_tag_attrib_def  1 0 @0  0 1 511 0 #
edge $-1 78 $-1 $502 -1.570796326794896558 $502 4.712388980384689674 $425 $503 forward @7 unknown #
vertex $-1 138 $-1 $427 2 $504 #
ellipse-curve $-1 -1 $-1 4.49562256970551033 -17.34179841845522674 -51.777237279514992 3.081487911019577365e-33 -5.620504062164857944e-16 1 0.5420138687804968436 9.387417504753710492e-49 -1.670209184252052539e-33 1 I I #
ATTRIB_CUSTOM-attrib $-1 -1 $-1 $-1 $429 @22 generic_tag_attrib_def 3 3 -1 @23 generic_tag_attrib_def  1 0 @0  0 1 511 0 #
ATTRIB_CUSTOM-attrib $505 -1 $-1 $-1 $430 @22 generic_tag_attrib_def 3 3 -1 @23 generic_tag_attrib_def  1 2 @2 30 0 1 -485 0 #
face $506 31 $-1 $507 $508 $6 $-1 $509 forward single #
loop $-1 -1 $-1 $510 $511 $430 #
plane-surface $-1 -1 $-1 4.695622569705511395 -17.34179841845522674 -50.82723727951498915 -1 -1.731951532139742779e-48 3.081487911019577365e-33 3.081487911019577365e-33 0 1 forward_v I I I I #
ATTRIB_CUSTOM-attrib $-1 -1 $-1 $-1 $433 @22 generic_tag_attrib_def 3 3 -1 @23 generic_tag_attrib_def  1 0 @0  0 1 511 0 #
ATTRIB_CUSTOM-attrib $512 -1 $-1 $-1 $434 @22 generic_tag_attrib_def 3 3 -1 @23 generic_tag_attrib_def  1 2 @2 27 0 1 -485 0 #
plane-surface $-1 -1 $-1 4.49562256970551033 -16.09179841845522674 -48.527237279514992 3.081487911019577365e-33 0 1 1.731951532139742779e-48 -1 -5.336987708760452382e-81 forward_v I I I I #
coedge $-1 -1 $-1 $458 $437 $513 $514 forward $439 0 $-1 #
edge $-1 99 $-1 $440 -1.387778780781445676e-17 $455 0.2000000000000000111 $446 $515 forward @7 unknown #
point $-1 -1 $-1 4.595622569705511751 -17.09179841845522674 -48.527237279514992 #
coedge $-1 -1 $-1 $468 $513 $442 $486 reversed $435 0 $-1 #
edge $-1 98 $-1 $452 -0.7039021649940115921 $487 1.996097835005987475 $485 $516 forward @7 tangent #
vertex $-1 149 $-1 $514 2 $517 #
ellipse-curve $-1 -1 $-1 4.54562256970551104 -16.14179841845522745 -48.527237279514992 -3.081487911019577365e-33 0 -1 0.03535533905932728566 0.03535533905932746607 -1.089470499013153069e-34 1 I I #
ATTRIB_CUSTOM-attrib $518 -1 $-1 $-1 $444 @22 generic_tag_attrib_def 3 3 -1 @23 generic_tag_attrib_def  1 2 @2 28 0 1 -485 0 #
cone-surface $-1 -1 $-1 4.54562256970551104 -16.14179841845522745 -50.52333511452098236 3.081487911019577365e-33 0 1 0.03535533905932728566 0.03535533905932746607 -1.089470499013153069e-34 1 I I 0 1 0.04999999999999999584 forward I I I I #
loop $-1 -1 $-1 $519 $520 $492 #
face $521 34 $-1 $-1 $448 $6 $-1 $522 forward single #
straight-curve $-1 -1 $-1 4.595622569705511751 -17.34179841845522674 -48.277237279514992 1 1.731951532139742779e-48 -3.081487911019577365e-33 I I #
point $-1 -1 $-1 4.54562256970551104 -16.09179841845522674 -51.22723727951498773 #
point $-1 -1 $-1 4.395622569705510685 -17.09179841845522674 -48.527237279514992 #
coedge $-1 -1 $-1 $513 $468 $460 $497 reversed $435 0 $-1 #
edge $-1 91 $-1 $498 -1.996097835005987475 $463 0.7039021649940115921 $496 $523 forward @7 tangent #
vertex $-1 145 $-1 $461 2 $524 #
ellipse-curve $-1 -1 $-1 4.445622569705511395 -16.14179841845522745 -48.527237279514992 -3.081487911019577365e-33 0 -1 -0.03535533905932728566 0.03535533905932746607 1.089470499013153069e-34 1 I I #
point $-1 -1 $-1 4.445622569705511395 -16.09179841845522674 -51.22723727951498773 #
straight-curve $-1 -1 $-1 4.49562256970551033 -16.09179841845522674 -51.22723727951498773 1 1.731951532139742779e-48 -3.081487911019577365e-33 F -0.105001000000000011 F 0.105001000000000011 #
vertex $-1 139 $-1 $471 2 $525 #
ellipse-curve $-1 -1 $-1 4.49562256970551033 -17.34179841845522674 -51.70568467795692413 3.081487911019577365e-33 -5.620504062164857944e-16 1 0.5420138687804968436 9.387417504753710492e-49 -1.670209184252052539e-33 1 I I #
point $-1 -1 $-1 4.49562256970551033 -17.88381228723572391 -51.777237279514992 #
ATTRIB_CUSTOM-attrib $-1 -1 $-1 $-1 $475 @22 generic_tag_attrib_def 3 3 -1 @23 generic_tag_attrib_def  1 0 @0  0 1 511 0 #
ATTRIB_CUSTOM-attrib $526 -1 $-1 $-1 $476 @22 generic_tag_attrib_def 3 3 -1 @23 generic_tag_attrib_def  1 2 @2 31 0 1 -485 0 #
face $527 32 $-1 $528 $529 $6 $-1 $530 forward single #
loop $-1 -1 $-1 $-1 $531 $476 #
sphere-surface $-1 -1 $-1 4.695622577955944621 -17.34179841845522674 -48.527237279514992 2.300000000000000266 1.731951532139742779e-48 -1 -5.336987708760452382e-81 1 1.731951532139742779e-48 -3.081487911019577365e-33 forward_v I I I I #
loop $-1 -1 $-1 $-1 $532 $430 #
coedge $-1 -1 $-1 $511 $511 $531 $533 reversed $477 0 $-1 #
ATTRIB_CUSTOM-attrib $-1 -1 $-1 $-1 $480 @22 generic_tag_attrib_def 3 3 -1 @23 generic_tag_attrib_def  1 0 @0  0 1 511 0 #
coedge $-1 -1 $-1 $485 $496 $482 $514 reversed $435 0 $-1 #
edge $-1 97 $-1 $487 -0.05000000000000000278 $498 0.05000000000000000278 $482 $534 forward @7 unknown #
straight-curve $-1 -1 $-1 4.595622569705511751 -17.09179841845522674 -48.527237279514992 -1 -1.731951532139742779e-48 3.081487911019577365e-33 I I #
straight-curve $-1 -1 $-1 4.54562256970551104 -16.09179841845522674 -50.52333511452098236 3.081487911019577365e-33 0 1 F -0.9089031649940118029 F 2.301098835005988441 #
point $-1 -1 $-1 4.54562256970551104 -16.09179841845522674 -48.527237279514992 #
ATTRIB_CUSTOM-attrib $-1 -1 $-1 $-1 $489 @22 generic_tag_attrib_def 3 3 -1 @23 generic_tag_attrib_def  1 0 @0  0 1 511 0 #
loop $-1 -1 $-1 $-1 $535 $492 #
coedge $-1 -1 $-1 $520 $520 $536 $537 forward $491 0 $-1 #
ATTRIB_CUSTOM-attrib $538 -1 $-1 $-1 $492 @22 generic_tag_attrib_def 3 3 -1 @23 generic_tag_attrib_def  1 2 @2 34 0 1 -485 0 #
cone-surface $-1 -1 $-1 4.595622569705511751 -17.34179841845522674 -48.527237279514992 1 1.731951532139742779e-48 -3.081487911019577365e-33 -7.703719777548948544e-34 0 -0.2500000000000001665 1 I I 0 1 0.2500000000000001665 forward I I I I #
straight-curve $-1 -1 $-1 4.445622569705511395 -16.09179841845522674 -50.52333511452098236 -3.081487911019577365e-33 0 -1 F -2.301098835005988441 F 0.9089031649940118029 #
point $-1 -1 $-1 4.445622569705511395 -16.09179841845522674 -48.527237279514992 #
point $-1 -1 $-1 4.49562256970551033 -17.88381228723572391 -51.70568467795692413 #
ATTRIB_CUSTOM-attrib $-1 -1 $-1 $-1 $506 @22 generic_tag_attrib_def 3 3 -1 @23 generic_tag_attrib_def  1 0 @0  0 1 511 0 #
ATTRIB_CUSTOM-attrib $539 -1 $-1 $-1 $507 @22 generic_tag_attrib_def 3 3 -1 @23 generic_tag_attrib_def  1 2 @2 32 0 1 -485 0 #
face $540 33 $-1 $492 $541 $6 $-1 $542 forward single #
loop $-1 -1 $-1 $-1 $543 $507 #
sphere-surface $-1 -1 $-1 4.295622577955946042 -17.34179841845522674 -48.527237279514992 2.300000000000000266 1.731951532139742779e-48 -1 -5.336987708760452382e-81 1 1.731951532139742779e-48 -3.081487911019577365e-33 forward_v I I I I #
coedge $-1 -1 $-1 $531 $531 $511 $533 forward $508 0 $-1 #
coedge $-1 -1 $-1 $532 $532 $535 $544 forward $510 0 $-1 #
edge $-1 102 $-1 $545 0 $545 6.283185307179586232 $531 $546 forward @7 unknown #
straight-curve $-1 -1 $-1 4.49562256970551033 -16.09179841845522674 -48.527237279514992 -1 -1.731951532139742779e-48 3.081487911019577365e-33 I I #
coedge $-1 -1 $-1 $535 $535 $532 $544 reversed $519 0 $-1 #
coedge $-1 -1 $-1 $536 $536 $520 $537 reversed $541 0 $-1 #
edge $-1 105 $-1 $547 0 $547 6.283185307179586232 $520 $548 forward @7 unknown #
ATTRIB_CUSTOM-attrib $-1 -1 $-1 $-1 $521 @22 generic_tag_attrib_def 3 3 -1 @23 generic_tag_attrib_def  1 0 @0  0 1 511 0 #
ATTRIB_CUSTOM-attrib $-1 -1 $-1 $-1 $527 @22 generic_tag_attrib_def 3 3 -1 @23 generic_tag_attrib_def  1 0 @0  0 1 511 0 #
ATTRIB_CUSTOM-attrib $549 -1 $-1 $-1 $528 @22 generic_tag_attrib_def 3 3 -1 @23 generic_tag_attrib_def  1 2 @2 33 0 1 -485 0 #
loop $-1 -1 $-1 $550 $536 $528 #
plane-surface $-1 -1 $-1 4.29562256970551104 -17.34179841845522674 -48.777237279514992 1 1.731951532139742779e-48 -3.081487911019577365e-33 -3.081487911019577365e-33 0 -1 forward_v I I I I #
coedge $-1 -1 $-1 $543 $543 $551 $552 reversed $529 0 $-1 #
edge $-1 103 $-1 $553 0 $553 6.283185307179586232 $535 $554 forward @7 unknown #
vertex $-1 150 $-1 $533 2 $555 #
ellipse-curve $-1 -1 $-1 4.695622569705511395 -17.34179841845522674 -48.527237279514992 1 1.731951532139742779e-48 -3.081487911019577365e-33 -7.08742219534502876e-33 0 -2.300000000000000266 1 I I #
vertex $-1 153 $-1 $537 2 $556 #
ellipse-curve $-1 -1 $-1 4.29562256970551104 -17.34179841845522674 -48.527237279514992 1 1.731951532139742779e-48 -3.081487911019577365e-33 -7.703719777548948544e-34 0 -0.2500000000000001665 1 I I #
ATTRIB_CUSTOM-attrib $-1 -1 $-1 $-1 $540 @22 generic_tag_attrib_def 3 3 -1 @23 generic_tag_attrib_def  1 0 @0  0 1 511 0 #
loop $-1 -1 $-1 $-1 $551 $528 #
coedge $-1 -1 $-1 $551 $551 $543 $552 forward $550 0 $-1 #
edge $-1 104 $-1 $557 0 $557 6.283185307179586232 $551 $558 forward @7 unknown #
vertex $-1 151 $-1 $544 2 $559 #
ellipse-curve $-1 -1 $-1 4.695622569705511395 -17.34179841845522674 -48.527237279514992 1 1.731951532139742779e-48 -3.081487911019577365e-33 -7.703719777548948544e-34 0 -0.2500000000000001665 1 I I #
point $-1 -1 $-1 4.695622569705511395 -17.34179841845522674 -50.82723727951498915 #
point $-1 -1 $-1 4.29562256970551104 -17.34179841845522674 -48.777237279514992 #
vertex $-1 152 $-1 $552 2 $560 #
ellipse-curve $-1 -1 $-1 4.295622502051944736 -17.34179841845522674 -48.527237279514992 1 1.731951532139742779e-48 -3.081487911019577365e-33 -7.087422195345026023e-33 0 -2.299999999999999378 1 I I #
point $-1 -1 $-1 4.695622569705511395 -17.34179841845522674 -48.777237279514992 #
point $-1 -1 $-1 4.295622502051944736 -17.34179841845522674 -50.82723727951498915 #
End-of-ASM-data 