22700 0 2 4           
16 Autodesk Neutron 20 ASM 227.1.1.65535 NT 24 Wed Aug 25 07:50:28 2021 
10 9.999999999999999547e-07 1.000000000000000036e-10 
asmheader $-1 -1 @13 227.1.1.65535 #
body $2 73 $-1 $3 $-1 $4 #
ATTRIB_CUSTOM-attrib $-1 -1 $5 $-1 $1 @20 Timestamp_attrib_def 1 1455555654000 #
lump $-1 -1 $-1 $-1 $6 $1 #
transform $-1 -1 1 0 0 0 1 0 0 0 1 0 0 0 1 no_rotate no_reflect no_shear #
ATTRIB_CUSTOM-attrib $-1 -1 $-1 $2 $1 @22 generic_tag_attrib_def 3 3 -1 @23 generic_tag_attrib_def  1 3 @3 450 1 0 0 #
shell $-1 -1 $-1 $-1 $-1 $7 $-1 $3 #
face $8 80 $-1 $9 $10 $6 $-1 $11 forward single #
ATTRIB_CUSTOM-attrib $-1 -1 $-1 $-1 $7 @22 generic_tag_attrib_def 3 3 -1 @23 generic_tag_attrib_def  1 1 @1 1 0 1 508 0 #
face $12 82 $-1 $13 $14 $6 $-1 $15 forward single #
loop $-1 -1 $-1 $16 $17 $7 #
torus-surface $-1 -1 $-1 0 0.25 0 0 1 0 5.75 0.25 0 0 1 forward_v I I I I #
ATTRIB_CUSTOM-attrib $-1 -1 $-1 $-1 $9 @22 generic_tag_attrib_def 3 3 -1 @23 generic_tag_attrib_def  2 1 @1 3 0 2 311 450 0 1 @1 3 0 2 313 450 0 #
face $18 81 $-1 $19 $20 $6 $-1 $21 reversed single #
loop $-1 -1 $-1 $22 $23 $9 #
cone-surface $-1 -1 $-1 0 0 0 0 1 0 6 0 0 1 I I 0 1 6 forward I I I I #
loop $-1 -1 $-1 $-1 $24 $7 #
coedge $-1 -1 $-1 $17 $17 $25 $26 forward $10 0 $-1 #
ATTRIB_CUSTOM-attrib $-1 -1 $-1 $-1 $13 @22 generic_tag_attrib_def 3 3 -1 @23 generic_tag_attrib_def  2 1 @1 1 0 2 311 450 0 1 @1 1 0 2 313 450 0 #
face $27 79 $-1 $28 $29 $6 $-1 $30 reversed single #
loop $-1 -1 $-1 $31 $32 $13 #
plane-surface $-1 -1 $-1 0 0 0 0 1 0 1 0 0 forward_v I I I I #
loop $-1 -1 $-1 $-1 $33 $9 #
coedge $-1 -1 $-1 $23 $23 $34 $35 forward $14 0 $-1 #
coedge $-1 -1 $-1 $24 $24 $33 $36 forward $16 0 $-1 #
coedge $-1 -1 $-1 $25 $25 $17 $26 reversed $31 0 $-1 #
edge $-1 86 $-1 $37 -3.141592653589793116 $37 3.141592653589793116 $25 $38 forward @7 tangent #
ATTRIB_CUSTOM-attrib $-1 -1 $-1 $-1 $19 @22 generic_tag_attrib_def 3 3 -1 @23 generic_tag_attrib_def  1 1 @1 3 0 1 489 0 #
face $39 55 $-1 $40 $41 $6 $-1 $42 forward single #
loop $-1 -1 $-1 $43 $44 $19 #
cone-surface $-1 -1 $-1 0 0.2000000000000000111 0 0 -1 0 -0.6000000000000000888 0 0 1 I I 0 1 0.6000000000000000888 forward I I I I #
loop $-1 -1 $-1 $-1 $25 $13 #
coedge $-1 -1 $-1 $32 $32 $44 $45 forward $20 0 $-1 #
coedge $-1 -1 $-1 $33 $33 $24 $36 reversed $22 0 $-1 #
coedge $-1 -1 $-1 $34 $34 $23 $35 reversed $46 0 $-1 #
edge $-1 64 $-1 $47 -1.224646799147353207e-16 $47 6.283185307179586232 $23 $48 forward @7 unknown #
edge $-1 85 $-1 $49 -3.141592653589793116 $49 3.141592653589793116 $33 $50 forward @7 tangent #
vertex $-1 87 $-1 $26 0 $51 #
ellipse-curve $-1 -1 $-1 0 0 0 0 1 0 5.75 0 0 1 I I #
ATTRIB_CUSTOM-attrib $-1 -1 $-1 $-1 $28 @22 generic_tag_attrib_def 3 3 -1 @23 generic_tag_attrib_def  1 1 @1 3 0 2 319 450 0 #
face $52 56 $-1 $53 $46 $6 $-1 $54 reversed single #
loop $-1 -1 $-1 $55 $56 $28 #
cone-surface $-1 -1 $-1 0 1 0 0 -1 0 -6.250000000000000888 0 0 1 I I 0 1 6.250000000000000888 forward I I I I #
loop $-1 -1 $-1 $-1 $57 $19 #
coedge $-1 -1 $-1 $44 $44 $32 $45 reversed $29 0 $-1 #
edge $-1 84 $-1 $58 -3.141592653589793116 $58 3.141592653589793116 $32 $59 forward @7 unknown #
loop $-1 -1 $-1 $60 $34 $40 #
vertex $-1 89 $-1 $35 0 $61 #
ellipse-curve $-1 -1 $-1 0 0.9499999999999999556 0 -0 -1 -0 6 0 0 1 I I #
vertex $-1 88 $-1 $36 0 $62 #
ellipse-curve $-1 -1 $-1 0 0.25 0 -0 -1 -0 6 0 0 1 I I #
point $-1 -1 $-1 -5.75 0 7.04171909509728088e-16 #
ATTRIB_CUSTOM-attrib $-1 -1 $-1 $-1 $40 @22 generic_tag_attrib_def 3 3 -1 @23 generic_tag_attrib_def  1 1 @1 2 0 2 319 450 0 #
face $63 57 $-1 $64 $65 $6 $-1 $66 reversed single #
plane-surface $-1 -1 $-1 0 0.9499999999999999556 0 0 1 0 -1 0 0 forward_v I I I I #
loop $-1 -1 $-1 $-1 $67 $28 #
coedge $-1 -1 $-1 $56 $56 $68 $69 reversed $41 0 $-1 #
coedge $70 -1 $-1 $57 $57 $71 $72 reversed $43 0 $-1 #
vertex $-1 90 $-1 $45 0 $73 #
ellipse-curve $-1 -1 $-1 0 0 0 0 1 0 -0.6000000000000000888 0 0 1 I I #
loop $-1 -1 $-1 $-1 $68 $40 #
point $-1 -1 $-1 6 0.9499999999999999556 -7.34788079488411875e-16 #
point $-1 -1 $-1 -6 0.25 -7.34788079488411875e-16 #
ATTRIB_CUSTOM-attrib $-1 -1 $-1 $-1 $53 @22 generic_tag_attrib_def 3 3 -1 @23 generic_tag_attrib_def  1 1 @1 3 0 2 316 450 0 #
face $74 58 $-1 $75 $76 $6 $-1 $77 forward single #
loop $-1 -1 $-1 $78 $79 $53 #
cone-surface $-1 -1 $-1 0 1 0 0 -1 0 -5.950000000000000178 0 0 1 I I 0 1 5.950000000000000178 forward I I I I #
coedge $80 -1 $-1 $67 $67 $81 $82 reversed $55 0 $-1 #
coedge $-1 -1 $-1 $68 $68 $56 $69 forward $60 0 $-1 #
edge $-1 67 $-1 $83 -3.141592653589793116 $83 3.141592653589793116 $56 $84 forward @7 unknown #
ATTRIB_CUSTOM-attrib $-1 -1 $-1 $-1 $57 @17 sketch_attrib_def 1 1 3 @13 442 0 0 0 1 1 #
coedge $-1 -1 $-1 $71 $71 $57 $72 forward $85 0 $-1 #
edge $-1 83 $-1 $86 -3.141592653589793116 $86 3.141592653589793116 $71 $87 forward @7 unknown #
point $-1 -1 $-1 0.6000000000000000888 0 -7.347880794884120229e-17 #
ATTRIB_CUSTOM-attrib $-1 -1 $-1 $-1 $64 @22 generic_tag_attrib_def 3 3 -1 @23 generic_tag_attrib_def  1 1 @1 2 0 2 316 450 0 #
face $88 59 $-1 $89 $90 $6 $-1 $91 forward single #
loop $-1 -1 $-1 $92 $93 $64 #
plane-surface $-1 -1 $-1 0 0.9000000000000000222 0 0 1 0 -1 0 0 forward_v I I I I #
loop $-1 -1 $-1 $-1 $94 $53 #
coedge $-1 -1 $-1 $79 $79 $95 $96 forward $65 0 $-1 #
ATTRIB_CUSTOM-attrib $-1 -1 $-1 $-1 $67 @17 sketch_attrib_def 1 1 3 @13 155 0 0 0 1 1 #
coedge $97 -1 $-1 $81 $81 $67 $82 forward $98 0 $-1 #
edge $-1 68 $-1 $99 -3.141592653589793116 $99 3.141592653589793116 $81 $100 forward @7 unknown #
vertex $-1 92 $-1 $69 0 $101 #
ellipse-curve $-1 -1 $-1 0 0.9499999999999999556 0 -0 -1 -0 -6.250000000000000888 0 0 1 I I #
loop $-1 -1 $-1 $102 $71 $103 #
vertex $-1 91 $-1 $72 0 $104 #
ellipse-curve $-1 -1 $-1 0 0.2000000000000000111 0 -0 -1 -0 -0.6000000000000000888 0 0 1 I I #
ATTRIB_CUSTOM-attrib $-1 -1 $-1 $-1 $75 @22 generic_tag_attrib_def 3 3 -1 @23 generic_tag_attrib_def  1 1 @1 4 0 2 313 450 0 #
face $105 60 $-1 $103 $98 $6 $-1 $106 forward single #
loop $-1 -1 $-1 $107 $108 $75 #
cone-surface $-1 -1 $-1 0 0 0 0 1 0 5.900000000000000355 0 0 1 I I 0 -1 5.900000000000000355 forward I I I I #
loop $-1 -1 $-1 $-1 $95 $64 #
coedge $-1 -1 $-1 $93 $93 $108 $109 reversed $76 0 $-1 #
coedge $110 -1 $-1 $94 $94 $111 $112 reversed $78 0 $-1 #
coedge $-1 -1 $-1 $95 $95 $79 $96 reversed $92 0 $-1 #
edge $-1 69 $-1 $113 -3.141592653589793116 $113 3.141592653589793116 $79 $114 forward @7 unknown #
ATTRIB_CUSTOM-attrib $-1 -1 $-1 $-1 $81 @17 sketch_attrib_def 1 1 3 @13 155 0 0 0 1 1 #
loop $-1 -1 $-1 $115 $81 $89 #
vertex $-1 93 $-1 $82 0 $116 #
ellipse-curve $-1 -1 $-1 0 1 0 0 1 0 -6.250000000000000888 0 0 1 I I #
point $-1 -1 $-1 6.250000000000000888 0.9499999999999999556 -7.654042494670958593e-16 #
loop $-1 -1 $-1 $-1 $117 $103 #
face $118 61 $-1 $-1 $85 $6 $-1 $119 forward single #
point $-1 -1 $-1 0.6000000000000000888 0.2000000000000000111 -7.347880794884120229e-17 #
ATTRIB_CUSTOM-attrib $-1 -1 $-1 $-1 $89 @22 generic_tag_attrib_def 3 3 -1 @23 generic_tag_attrib_def  2 1 @1 2 0 2 313 450 0 1 @1 1 0 2 319 450 0 #
plane-surface $-1 -1 $-1 0 1 0 0 1 0 1 0 0 forward_v I I I I #
loop $-1 -1 $-1 $-1 $120 $75 #
coedge $-1 -1 $-1 $108 $108 $93 $109 forward $90 0 $-1 #
edge $-1 71 $-1 $121 1.224646799147353207e-16 $121 6.283185307179586232 $108 $122 forward @7 unknown #
ATTRIB_CUSTOM-attrib $-1 -1 $-1 $-1 $94 @17 sketch_attrib_def 1 1 3 @13 140 0 0 0 1 1 #
coedge $-1 -1 $-1 $111 $111 $94 $112 forward $115 0 $-1 #
edge $-1 70 $-1 $123 -3.141592653589793116 $123 3.141592653589793116 $111 $124 forward @7 unknown #
vertex $-1 94 $-1 $96 0 $125 #
ellipse-curve $-1 -1 $-1 0 0.9000000000000000222 0 -0 -1 -0 -5.950000000000000178 0 0 1 I I #
loop $-1 -1 $-1 $-1 $111 $89 #
point $-1 -1 $-1 6.250000000000000888 1 -7.654042494670958593e-16 #
coedge $-1 -1 $-1 $117 $117 $120 $126 forward $102 0 $-1 #
ATTRIB_CUSTOM-attrib $-1 -1 $-1 $-1 $103 @22 generic_tag_attrib_def 3 3 -1 @23 generic_tag_attrib_def  1 1 @1 2 0 2 311 450 0 #
plane-surface $-1 -1 $-1 0 0.2000000000000000111 0 0 1 0 1 0 0 forward_v I I I I #
coedge $-1 -1 $-1 $120 $120 $117 $126 reversed $107 0 $-1 #
vertex $-1 96 $-1 $109 0 $127 #
ellipse-curve $-1 -1 $-1 0 0.9000000000000000222 0 0 1 0 5.900000000000000355 0 0 1 I I #
vertex $-1 95 $-1 $112 0 $128 #
ellipse-curve $-1 -1 $-1 0 1 0 -0 -1 -0 -5.950000000000000178 0 0 1 I I #
point $-1 -1 $-1 5.950000000000000178 0.9000000000000000222 -7.286648454926751965e-16 #
edge $-1 72 $-1 $129 -3.141592653589793116 $129 3.141592653589793116 $117 $130 forward @7 unknown #
point $-1 -1 $-1 5.900000000000000355 0.9000000000000000222 -7.225416114969384193e-16 #
point $-1 -1 $-1 5.950000000000000178 1 -7.286648454926751965e-16 #
vertex $-1 97 $-1 $126 0 $131 #
ellipse-curve $-1 -1 $-1 0 0.2000000000000000111 0 0 1 0 5.900000000000000355 0 0 1 I I #
point $-1 -1 $-1 -5.900000000000000355 0.2000000000000000111 7.225416114969384193e-16 #
End-of-ASM-data 