22700 0 2 4           
16 Autodesk Neutron 20 ASM 227.1.1.65535 NT 24 Wed Aug 25 07:50:28 2021 
10 9.999999999999999547e-07 1.000000000000000036e-10 
asmheader $-1 -1 @13 227.1.1.65535 #
body $2 35 $-1 $3 $-1 $4 #
ATTRIB_CUSTOM-attrib $-1 -1 $5 $-1 $1 @20 Timestamp_attrib_def 1 1455555826001 #
lump $-1 -1 $-1 $-1 $6 $1 #
transform $-1 -1 1 0 0 0 1 0 0 0 1 0 0 0 1 no_rotate no_reflect no_shear #
ATTRIB_CUSTOM-attrib $-1 -1 $-1 $2 $1 @22 generic_tag_attrib_def 3 3 -1 @23 generic_tag_attrib_def  1 3 @3 460 1 0 0 #
shell $-1 -1 $-1 $-1 $-1 $7 $-1 $3 #
face $8 80 $-1 $9 $10 $6 $-1 $11 reversed single #
ATTRIB_CUSTOM-attrib $-1 -1 $-1 $-1 $7 @22 generic_tag_attrib_def 3 3 -1 @23 generic_tag_attrib_def  1 1 @1 3 0 1 616 0 #
face $12 18 $-1 $13 $14 $6 $-1 $15 reversed single #
loop $-1 -1 $-1 $16 $17 $7 #
cone-surface $-1 -1 $-1 4.500000000010319745 -5.544886047804062024 6.123233997010491668e-18 -5.544770991556496274e-14 1 0 -1.75 -9.703349235223868163e-14 -2.143131898507868051e-16 1 I I 0 1 1.75 forward I I I I #
ATTRIB_CUSTOM-attrib $-1 -1 $-1 $-1 $9 @22 generic_tag_attrib_def 3 3 -1 @23 generic_tag_attrib_def  1 1 @1 3 0 3 417 460 -609 0 #
face $18 19 $-1 $19 $20 $6 $-1 $21 reversed single #
loop $-1 -1 $-1 $22 $23 $9 #
cone-surface $-1 -1 $-1 4.44999999999996021 -5.994886047804037332 5.44967825620572277e-16 0 1 0 13.3500000000000032 0 0 1 I I 0 1 13.3500000000000032 forward I I I I #
loop $-1 -1 $-1 $-1 $24 $7 #
coedge $-1 -1 $-1 $17 $17 $25 $26 reversed $10 0 $-1 #
ATTRIB_CUSTOM-attrib $-1 -1 $-1 $-1 $13 @22 generic_tag_attrib_def 3 3 -1 @23 generic_tag_attrib_def  1 1 @1 2 0 3 417 460 -609 0 #
face $27 20 $-1 $28 $29 $6 $-1 $30 forward single #
loop $-1 -1 $-1 $31 $32 $13 #
plane-surface $-1 -1 $-1 4.44999999999996021 -5.244886047804037332 5.44967825620572277e-16 0 1 0 0.75 0 0 forward_v I I I I #
loop $-1 -1 $-1 $-1 $33 $9 #
coedge $-1 -1 $-1 $23 $23 $34 $35 forward $14 0 $-1 #
coedge $-1 -1 $-1 $24 $24 $36 $37 reversed $16 0 $-1 #
coedge $-1 -1 $-1 $25 $25 $17 $26 forward $38 0 $-1 #
edge $-1 81 $-1 $39 0 $39 10.54735795709231461 $25 $40 forward @7 unknown #
ATTRIB_CUSTOM-attrib $-1 -1 $-1 $-1 $19 @22 generic_tag_attrib_def 3 3 -1 @23 generic_tag_attrib_def  1 1 @1 1 0 3 415 460 -609 0 #
face $41 21 $-1 $42 $38 $6 $-1 $43 forward single #
loop $-1 -1 $-1 $44 $45 $19 #
torus-surface $-1 -1 $-1 4.44999999999996021 -2.832658415704632837 5.44967825620572277e-16 0 1 0 12.75 0.75 0 0 1 forward_v I I I I #
loop $-1 -1 $-1 $-1 $34 $13 #
coedge $-1 -1 $-1 $32 $32 $46 $47 reversed $20 0 $-1 #
coedge $48 -1 $-1 $33 $33 $49 $50 reversed $22 0 $-1 #
coedge $-1 -1 $-1 $34 $34 $23 $35 reversed $31 0 $-1 #
edge $-1 27 $-1 $51 -3.141592653589793116 $51 3.141592653589793116 $23 $52 forward @7 unknown #
coedge $-1 -1 $-1 $36 $36 $24 $37 forward $53 0 $-1 #
edge $-1 82 $-1 $54 -3.141592653589793116 $54 3.141592653589793116 $36 $55 forward @7 unknown #
loop $-1 -1 $-1 $56 $25 $28 #
vertex $-1 83 $-1 $26 0 $57 #
intcurve-curve $-1 -1 $-1 forward { int_int_cur 22140 full nubs 3 periodic 33 
	0 3 0.3296004532786366847 2 0.6592009065572733695 2 0.9888013598359099987 2 1.318401813114546739 2 
	1.648011430888267626 2 1.97762104866198829 2 2.307230666435708955 2 2.636840284209429619 2 2.966449540613740332 2 
	3.296058797018050601 2 3.62566805342236087 2 3.955277309826671583 2 4.284877727006542791 2 4.614478144186413999 2 
	4.944078561366285207 2 5.273678978546156415 2 5.603279395726027623 2 5.932879812905898831 2 6.262480230085770039 2 
	6.592080647265641247 2 6.92168990366995196 2 7.251299160074262673 2 7.580908416478573386 2 7.910517672882883211 2 
	8.240127290656603876 2 8.569736908430325428 2 8.899346526204045205 2 9.228956143977766757 2 9.55855659725640372 2 
	9.888157050535040682 2 10.21775750381367764 2 10.54735795709231461 3 
	2.75000000000997602 0.6597293368138124059 -2.081899558537770037e-16 
	2.75000000000997602 0.6597293368138124059 -0.109866817759545779 
	2.760512965682369924 0.6596532010990031614 -0.2234863116667633043 
	2.804798635579752286 0.6593327618547960567 -0.4495037353906772282 
	2.838561872131041497 0.6590885312599830126 -0.5619035202960895869 
	2.927858027029666577 0.6584435280713132332 -0.7774842993167037086 
	2.983462059219788021 0.6580422586833726273 -0.8808369814412786436 
	3.111964428080381762 0.6571166799986248863 -1.071969386124810075 
	3.184870768927246854 0.6565923380350524585 -1.159743727026364191 
	3.340245296238890216 0.6554772990283600498 -1.315119806385492307 
	3.428021095907193949 0.6548484942481950233 -1.388028394798384912 
	3.619156252772822935 0.6534828670064112277 -1.51653416992864587 
	3.722510226055932847 0.6527461049724470055 -1.572139364959477481 
	3.938093239478342333 0.6512137013535816976 -1.661437126080707705 
	4.050493953608719444 0.6504168538753821727 -1.695200803246094123 
	4.276512827570329911 0.6488191243105018158 -1.739486974033546351 
	4.390132842327939322 0.648018233102176433 -1.750000000000001776 
	4.609867037238519316 0.646473480135836942 -1.750000000000001776 
	4.723486961903553549 0.6456768527911732614 -1.739486996684446174 
	4.949505712446750749 0.6440965698075761248 -1.695200887286626434 
	5.061906393082355571 0.6433128938980323674 -1.661437248399948663 
	5.277489376076504257 0.6418136153561713186 -1.572139559658397356 
	5.380843353242320326 0.6410968030840566989 -1.516534398159760322 
	5.57197853057171244 0.6397740088311074658 -1.388028682610725539 
	5.659754346640074374 0.6391680435454464293 -1.31512012044338511 
	5.815128978614582778 0.6380971485284077094 -1.159744022592325008 
	5.888035389157333377 0.6375956541552106893 -1.071969630151386355 
	6.016537860166333296 0.6367129399301866277 -0.8808371292155685595 
	6.072141924843564631 0.6363316434442264358 -0.77748440259865359 
	6.161438119120345114 0.6357198121326393947 -0.5619035544202977128 
	6.19520136253359599 0.6354887763802458123 -0.4495037455913664104 
	6.239487036772444206 0.6351858156363928698 -0.2234862987700447501 
	6.25000000000997602 0.6351139521934969778 -0.1098668057266237452 
	6.25000000000997602 0.6351139521934969778 0.1098668057266237452 
	6.239487036772444206 0.6351858156363928698 0.2234862987700447778 
	6.19520136253359599 0.6354887763802458123 0.449503745591367021 
	6.161438119120345114 0.6357198121326393947 0.5619035544202989341 
	6.072141924843564631 0.6363316434442264358 0.7774844025986549223 
	6.016537860166331519 0.6367129399301866277 0.8808371292155702248 
	5.888035389157331601 0.6375956541552106893 1.071969630151387687 
	5.815128978614582778 0.6380971485284077094 1.159744022592325008 
	5.659754346640074374 0.6391680435454464293 1.31512012044338511 
	5.571978530571715105 0.6397740088311072437 1.388028682610724429 
	5.380843353242323879 0.6410968030840565879 1.516534398159759434 
	5.277489376076504257 0.6418136153561708745 1.572139559658397356 
	5.061906393082354683 0.6433128938980320344 1.661437248399948663 
	4.949505712446750749 0.6440965698075761248 1.695200887286626434 
	4.723486961903552661 0.6456768527911732614 1.739486996684446396 
	4.609867037238519316 0.646473480135836942 1.750000000000001776 
	4.39013284232794021 0.648018233102176433 1.750000000000001776 
	4.276512827570329911 0.6488191243105013717 1.739486974033546574 
	4.050493953608717668 0.6504168538753817286 1.695200803246093901 
	3.938093239478342333 0.6512137013535816976 1.661437126080707705 
	3.722510226055932847 0.6527461049724470055 1.572139364959477703 
	3.619156252772822935 0.6534828670064112277 1.51653416992864587 
	3.428021095907193949 0.6548484942481949123 1.38802839479838469 
	3.34024529623889066 0.6554772990283600498 1.315119806385492307 
	3.184870768927246854 0.6565923380350524585 1.159743727026364191 
	3.111964428080381762 0.6571166799986248863 1.071969386124810519 
	2.983462059219788021 0.6580422586833726273 0.8808369814412787546 
	2.927858027029665244 0.6584435280713135663 0.7774842993167034866 
	2.838561872131040609 0.6590885312599833457 0.5619035202960893649 
	2.804798635579752286 0.6593327618547960567 0.4495037353906768396 
	2.760512965682369924 0.6596532010990031614 0.2234863116667629712 
	2.75000000000997602 0.6597293368138124059 0.1098668177595454043 
	2.75000000000997602 0.6597293368138124059 -2.081899558537770037e-16 
	0.000123295738168989141 
	
	cone 4.500000000010319745 -5.544886047804062024 6.123233997010491668e-18 -5.544770991556496274e-14 1 0 -1.75 -9.703349235223868163e-14 -2.143131898507868051e-16 1 I I 0 1 1.75 forward I I I I 
	cone 4.44999999999996021 -2.244886047804037332 5.44967825620572277e-16 0 1 0 -13.5 0 0 1 I I -0.9710148789347659015 0.2390190471224039326 13.5 forward I I I I 
	nullbs 
	nullbs 
	I I 
	0 
	0 
	0 
	
	0 } I I #
ATTRIB_CUSTOM-attrib $-1 -1 $-1 $-1 $28 @22 generic_tag_attrib_def 3 3 -1 @23 generic_tag_attrib_def  1 1 @1 3 0 3 414 460 -609 0 #
face $58 22 $-1 $59 $60 $6 $-1 $61 forward single #
cone-surface $-1 -1 $-1 4.44999999999996021 -2.244886047804037332 5.44967825620572277e-16 0 1 0 -13.5 0 0 1 I I -0.9710148789347659015 0.2390190471224039326 13.5 forward I I I I #
loop $-1 -1 $-1 $-1 $62 $19 #
coedge $-1 -1 $-1 $45 $45 $63 $64 forward $29 0 $-1 #
coedge $-1 -1 $-1 $46 $46 $32 $47 forward $65 0 $-1 #
edge $-1 29 $-1 $66 -3.141592653589793116 $66 3.141592653589793116 $46 $67 forward @7 unknown #
ATTRIB_CUSTOM-attrib $-1 -1 $-1 $-1 $33 @17 sketch_attrib_def 1 1 3 @13 435 0 0 0 1 1 #
coedge $-1 -1 $-1 $49 $49 $33 $50 forward $68 0 $-1 #
edge $-1 28 $-1 $69 -3.141592653589793116 $69 3.141592653589793116 $49 $70 forward @7 unknown #
vertex $-1 85 $-1 $35 0 $71 #
ellipse-curve $-1 -1 $-1 4.44999999999996021 -5.244886047804037332 5.44967825620572277e-16 0 1 0 13.3500000000000032 0 0 1 I I #
loop $-1 -1 $-1 $72 $36 $59 #
vertex $-1 84 $-1 $37 0 $73 #
ellipse-curve $-1 -1 $-1 4.50000000001013678 -2.244886047804034668 6.123233997010491668e-18 0 1 0 -1.75 -9.703349235223868163e-14 -2.143131898507868051e-16 1 I I #
loop $-1 -1 $-1 $-1 $74 $28 #
point $-1 -1 $-1 2.75000000000997602 0.659729336813812961 -1.942890293094023946e-16 #
ATTRIB_CUSTOM-attrib $-1 -1 $-1 $-1 $42 @22 generic_tag_attrib_def 3 3 -1 @23 generic_tag_attrib_def  1 1 @1 3 0 3 411 460 -609 0 #
face $75 23 $-1 $76 $53 $6 $-1 $77 reversed single #
loop $-1 -1 $-1 $78 $79 $42 #
cone-surface $-1 -1 $-1 4.44999999999996021 -5.994886047804037332 5.44967825620572277e-16 0 1 0 13.5 0 0 1 I I 0 1 13.5 forward I I I I #
coedge $-1 -1 $-1 $62 $62 $74 $80 forward $44 0 $-1 #
coedge $-1 -1 $-1 $63 $63 $45 $64 reversed $78 0 $-1 #
edge $-1 30 $-1 $81 -3.141592653589793116 $81 3.141592653589793116 $63 $82 forward @7 tangent #
loop $-1 -1 $-1 $83 $46 $76 #
vertex $-1 87 $-1 $47 0 $84 #
ellipse-curve $-1 -1 $-1 4.44999999999996021 -5.244886047804037332 5.44967825620572277e-16 -0 -1 -0 13.20000000000000107 0 0 1 I I #
loop $-1 -1 $-1 $85 $49 $86 #
vertex $-1 86 $-1 $50 0 $87 #
ellipse-curve $-1 -1 $-1 4.44999999999996021 -5.994886047804037332 5.44967825620572277e-16 0 1 0 13.3500000000000032 0 0 1 I I #
point $-1 -1 $-1 -8.900000000000042988 -5.244886047804037332 2.179871302482289108e-15 #
loop $-1 -1 $-1 $-1 $88 $59 #
point $-1 -1 $-1 6.25000000001013678 -2.244886047803937856 6.123233997010491668e-18 #
coedge $-1 -1 $-1 $74 $74 $62 $80 reversed $56 0 $-1 #
ATTRIB_CUSTOM-attrib $-1 -1 $-1 $-1 $59 @22 generic_tag_attrib_def 3 3 -1 @23 generic_tag_attrib_def  1 1 @1 1 0 3 414 460 -609 0 #
face $89 25 $-1 $86 $65 $6 $-1 $90 forward single #
plane-surface $-1 -1 $-1 4.44999999999996021 -2.244886047804037332 5.44967825620572277e-16 0 1 0 0 0 0.75 forward_v I I I I #
loop $-1 -1 $-1 $-1 $63 $42 #
coedge $91 -1 $-1 $79 $79 $92 $93 forward $60 0 $-1 #
edge $-1 31 $-1 $94 -3.141592653589793116 $94 3.141592653589793116 $74 $95 forward @7 tangent #
vertex $-1 88 $-1 $64 0 $96 #
ellipse-curve $-1 -1 $-1 4.44999999999996021 -2.832658415704632837 5.44967825620572277e-16 0 1 0 13.5 0 0 1 I I #
loop $-1 -1 $-1 $-1 $97 $76 #
point $-1 -1 $-1 -8.750000000000040856 -5.244886047804037332 2.161501600495078678e-15 #
loop $-1 -1 $-1 $-1 $92 $86 #
face $98 26 $-1 $-1 $68 $6 $-1 $99 reversed single #
point $-1 -1 $-1 -8.900000000000042988 -5.994886047804037332 2.179871302482289108e-15 #
coedge $-1 -1 $-1 $88 $88 $97 $100 forward $72 0 $-1 #
ATTRIB_CUSTOM-attrib $-1 -1 $-1 $-1 $76 @22 generic_tag_attrib_def 3 3 -1 @23 generic_tag_attrib_def  1 1 @1 4 0 3 411 460 -609 0 #
cone-surface $-1 -1 $-1 4.44999999999996021 -5.994886047804037332 5.44967825620572277e-16 0 1 0 13.20000000000000107 0 0 1 I I 0 -1 13.20000000000000107 forward I I I I #
ATTRIB_CUSTOM-attrib $-1 -1 $-1 $-1 $79 @17 sketch_attrib_def 1 1 3 @13 418 0 0 0 1 1 #
coedge $101 -1 $-1 $92 $92 $79 $93 reversed $85 0 $-1 #
edge $-1 33 $-1 $102 -3.141592653589793116 $102 3.141592653589793116 $79 $103 forward @7 unknown #
vertex $-1 89 $-1 $80 0 $104 #
ellipse-curve $-1 -1 $-1 4.44999999999996021 -2.104397256503558022 -2.467212804981291373e-16 -0 -1 -0 12.92926428534180339 0 -7.916891061187014144e-16 1 I I #
point $-1 -1 $-1 -9.05000000000003979 -2.832658415704632837 2.198241004469499144e-15 #
coedge $-1 -1 $-1 $97 $97 $88 $100 reversed $83 0 $-1 #
ATTRIB_CUSTOM-attrib $-1 -1 $-1 $-1 $86 @22 generic_tag_attrib_def 3 3 -1 @23 generic_tag_attrib_def  1 1 @1 1 0 3 411 460 -609 0 #
plane-surface $-1 -1 $-1 4.44999999999996021 -5.994886047804037332 5.44967825620572277e-16 0 1 0 0.75 0 0 forward_v I I I I #
edge $-1 34 $-1 $105 -3.141592653589793116 $105 3.141592653589793116 $97 $106 forward @7 unknown #
ATTRIB_CUSTOM-attrib $-1 -1 $-1 $-1 $92 @17 sketch_attrib_def 1 1 3 @13 418 0 0 0 1 1 #
vertex $-1 90 $-1 $93 0 $107 #
ellipse-curve $-1 -1 $-1 4.44999999999996021 -5.994886047804037332 5.44967825620572277e-16 0 1 0 13.5 0 0 1 I I #
point $-1 -1 $-1 -8.479264285341843177 -2.104397256503558022 -1.038410386616830552e-15 #
vertex $-1 91 $-1 $100 0 $108 #
ellipse-curve $-1 -1 $-1 4.44999999999996021 -2.244886047804037332 5.44967825620572277e-16 0 -1 0 13.20000000000000107 0 0 1 I I #
point $-1 -1 $-1 -9.05000000000003979 -5.994886047804037332 2.198241004469499144e-15 #
point $-1 -1 $-1 -8.750000000000040856 -2.244886047804037332 2.161501600495078678e-15 #
End-of-ASM-data 