22700 0 2 4           
16 Autodesk Neutron 20 ASM 227.1.1.65535 NT 24 Wed Aug 25 07:50:29 2021 
10 9.999999999999999547e-07 1.000000000000000036e-10 
asmheader $-1 -1 @13 227.1.1.65535 #
body $2 17 $-1 $3 $-1 $4 #
ATTRIB_CUSTOM-attrib $-1 -1 $5 $-1 $1 @20 Timestamp_attrib_def 1 1455555285001 #
lump $-1 -1 $-1 $-1 $6 $1 #
transform $-1 -1 1 0 0 0 1 0 0 0 1 0 0 0 1 no_rotate no_reflect no_shear #
ATTRIB_CUSTOM-attrib $-1 -1 $-1 $2 $1 @22 generic_tag_attrib_def 3 3 -1 @23 generic_tag_attrib_def  1 3 @3 455 1 0 0 #
shell $-1 -1 $-1 $-1 $-1 $7 $-1 $3 #
face $8 9 $-1 $9 $10 $6 $-1 $11 forward single #
ATTRIB_CUSTOM-attrib $-1 -1 $-1 $-1 $7 @22 generic_tag_attrib_def 3 3 -1 @23 generic_tag_attrib_def  1 1 @1 4 0 2 394 455 0 #
face $12 10 $-1 $13 $14 $6 $-1 $15 forward single #
loop $-1 -1 $-1 $16 $17 $7 #
cone-surface $-1 -1 $-1 0 0 0 0 1 0 0.4599999999999999645 0 0 1 I I 0 -1 0.4599999999999999645 forward I I I I #
ATTRIB_CUSTOM-attrib $-1 -1 $-1 $-1 $9 @22 generic_tag_attrib_def 3 3 -1 @23 generic_tag_attrib_def  1 1 @1 3 0 2 394 455 0 #
face $18 11 $-1 $19 $20 $6 $-1 $21 forward single #
loop $-1 -1 $-1 $22 $23 $9 #
cone-surface $-1 -1 $-1 0 0 0 0 1 0 0.5 0 0 1 I I 0 1 0.5 forward I I I I #
loop $-1 -1 $-1 $-1 $24 $7 #
coedge $-1 -1 $-1 $17 $17 $25 $26 reversed $10 0 $-1 #
ATTRIB_CUSTOM-attrib $-1 -1 $-1 $-1 $13 @22 generic_tag_attrib_def 3 3 -1 @23 generic_tag_attrib_def  1 1 @1 2 0 2 394 455 0 #
face $27 12 $-1 $-1 $28 $6 $-1 $29 reversed single #
loop $-1 -1 $-1 $30 $25 $13 #
plane-surface $-1 -1 $-1 0 38 0 0 1 0 1 0 0 forward_v I I I I #
loop $-1 -1 $-1 $-1 $31 $9 #
coedge $-1 -1 $-1 $23 $23 $32 $33 reversed $14 0 $-1 #
coedge $34 -1 $-1 $24 $24 $35 $36 forward $16 0 $-1 #
coedge $-1 -1 $-1 $25 $25 $17 $26 forward $20 0 $-1 #
edge $-1 13 $-1 $37 -3.141592653589793116 $37 3.141592653589793116 $17 $38 forward @7 unknown #
ATTRIB_CUSTOM-attrib $-1 -1 $-1 $-1 $19 @22 generic_tag_attrib_def 3 3 -1 @23 generic_tag_attrib_def  1 1 @1 1 0 2 394 455 0 #
loop $-1 -1 $-1 $39 $35 $19 #
plane-surface $-1 -1 $-1 0 0 0 0 1 0 1 0 0 forward_v I I I I #
loop $-1 -1 $-1 $-1 $32 $13 #
coedge $40 -1 $-1 $31 $31 $41 $42 forward $22 0 $-1 #
coedge $-1 -1 $-1 $32 $32 $23 $33 forward $30 0 $-1 #
edge $-1 15 $-1 $43 -3.141592653589793116 $43 3.141592653589793116 $23 $44 forward @7 unknown #
ATTRIB_CUSTOM-attrib $-1 -1 $-1 $-1 $24 @17 sketch_attrib_def 1 1 3 @15 388 387 0 0 1 1 #
coedge $45 -1 $-1 $35 $35 $24 $36 reversed $28 0 $-1 #
edge $-1 14 $-1 $46 -3.141592653589793116 $46 3.141592653589793116 $24 $47 forward @7 unknown #
vertex $-1 18 $-1 $26 2 $48 #
ellipse-curve $-1 -1 $-1 0 38 0 0 -1 0 0.4599999999999999645 0 0 1 I I #
loop $-1 -1 $-1 $-1 $41 $19 #
ATTRIB_CUSTOM-attrib $-1 -1 $-1 $-1 $31 @17 sketch_attrib_def 1 1 3 @13 385 0 0 0 1 1 #
coedge $49 -1 $-1 $41 $41 $31 $42 reversed $39 0 $-1 #
edge $-1 16 $-1 $50 -3.141592653589793116 $50 3.141592653589793116 $31 $51 forward @7 unknown #
vertex $-1 20 $-1 $33 2 $52 #
ellipse-curve $-1 -1 $-1 0 38 0 0 1 0 0.5 0 0 1 I I #
ATTRIB_CUSTOM-attrib $-1 -1 $-1 $-1 $35 @17 sketch_attrib_def 1 1 3 @15 388 387 0 0 1 1 #
vertex $-1 19 $-1 $36 0 $53 #
ellipse-curve $-1 -1 $-1 0 0 0 0 -1 0 0.4599999999999999645 0 0 1 I I #
point $-1 -1 $-1 -0.4599999999999999645 38 5.633375276077824605e-17 #
ATTRIB_CUSTOM-attrib $-1 -1 $-1 $-1 $41 @17 sketch_attrib_def 1 1 3 @13 385 0 0 0 1 1 #
vertex $-1 21 $-1 $42 0 $54 #
ellipse-curve $-1 -1 $-1 0 0 0 0 1 0 0.5 0 0 1 I I #
point $-1 -1 $-1 -0.5 38 6.123233995736766036e-17 #
point $-1 -1 $-1 -0.4599999999999999645 0 5.633375276077824605e-17 #
point $-1 -1 $-1 -0.5 0 6.123233995736766036e-17 #
End-of-ASM-data 