22700 0 2 4           
16 Autodesk Neutron 20 ASM 227.1.1.65535 NT 24 Wed Aug 25 07:50:33 2021 
10 9.999999999999999547e-07 1.000000000000000036e-10 
asmheader $-1 -1 @13 227.1.1.65535 #
body $2 45 $-1 $3 $-1 $4 #
ATTRIB_CUSTOM-attrib $-1 -1 $5 $-1 $1 @20 Timestamp_attrib_def 1 1455555285001 #
lump $-1 -1 $-1 $-1 $6 $1 #
transform $-1 -1 1 0 0 0 1 0 0 0 1 0 0 0 1 no_rotate no_reflect no_shear #
ATTRIB_CUSTOM-attrib $-1 -1 $-1 $2 $1 @22 generic_tag_attrib_def 3 3 -1 @23 generic_tag_attrib_def  1 3 @3 470 1 0 0 #
shell $-1 -1 $-1 $-1 $-1 $7 $-1 $3 #
face $8 23 $-1 $9 $10 $6 $-1 $11 reversed single #
ATTRIB_CUSTOM-attrib $-1 -1 $-1 $-1 $7 @22 generic_tag_attrib_def 3 3 -1 @23 generic_tag_attrib_def  1 1 @1 3 0 2 383 470 0 #
face $12 24 $-1 $13 $14 $6 $-1 $15 reversed single #
loop $-1 -1 $-1 $16 $17 $7 #
cone-surface $-1 -1 $-1 1.249999995529651686 -5.551115115120809271e-17 0 0 0 1 0.5 0 0 1 I I 0 1 0.5 forward I I I I #
ATTRIB_CUSTOM-attrib $-1 -1 $-1 $-1 $9 @22 generic_tag_attrib_def 3 3 -1 @23 generic_tag_attrib_def  1 1 @1 3 0 2 381 470 0 #
face $18 25 $-1 $19 $20 $6 $-1 $21 forward single #
loop $-1 -1 $-1 $22 $23 $9 #
cone-surface $-1 -1 $-1 1.249999995529651686 -5.551115115120809271e-17 0 0 0 -1 0.6000000000000003109 0 0 1 I I 0 1 0.6000000000000003109 forward I I I I #
loop $-1 -1 $-1 $-1 $24 $7 #
coedge $-1 -1 $-1 $17 $17 $25 $26 reversed $10 0 $-1 #
ATTRIB_CUSTOM-attrib $-1 -1 $-1 $-1 $13 @22 generic_tag_attrib_def 3 3 -1 @23 generic_tag_attrib_def  1 1 @1 3 0 2 376 470 0 #
face $27 26 $-1 $28 $29 $6 $-1 $30 reversed single #
loop $-1 -1 $-1 $31 $32 $13 #
cone-surface $-1 -1 $-1 0 0 0 -1 0 0 0 0 -0.75 1 I I 0 1 0.75 forward I I I I #
loop $-1 -1 $-1 $-1 $33 $9 #
coedge $-1 -1 $-1 $23 $23 $34 $35 reversed $14 0 $-1 #
coedge $-1 -1 $-1 $24 $24 $36 $37 reversed $16 0 $-1 #
coedge $-1 -1 $-1 $25 $25 $17 $26 forward $38 0 $-1 #
edge $-1 33 $-1 $39 0 $39 3.165469851619139963 $25 $40 forward @7 unknown #
ATTRIB_CUSTOM-attrib $-1 -1 $-1 $-1 $19 @22 generic_tag_attrib_def 3 3 -1 @23 generic_tag_attrib_def  1 1 @1 2 0 2 376 470 0 #
face $41 27 $-1 $42 $43 $6 $-1 $44 forward single #
loop $-1 -1 $-1 $45 $46 $19 #
plane-surface $-1 -1 $-1 -0.3000000000000000444 0 0 1 0 0 0 0 -1 forward_v I I I I #
loop $-1 -1 $-1 $-1 $47 $13 #
coedge $-1 -1 $-1 $32 $32 $48 $49 reversed $20 0 $-1 #
coedge $-1 -1 $-1 $33 $33 $50 $51 reversed $22 0 $-1 #
coedge $-1 -1 $-1 $34 $34 $23 $35 forward $52 0 $-1 #
edge $-1 35 $-1 $53 0 $53 3.952356001383786399 $34 $54 forward @7 unknown #
coedge $-1 -1 $-1 $36 $36 $24 $37 forward $55 0 $-1 #
edge $-1 34 $-1 $56 0 $56 3.092464536502625094 $36 $57 forward @7 unknown #
loop $-1 -1 $-1 $52 $25 $42 #
vertex $-1 46 $-1 $26 0 $58 #
intcurve-curve $-1 -1 $-1 forward { int_int_cur 22140 full nubs 3 periodic 17 
	0 3 0.1994319875193570901 2 0.3988639750387141802 2 0.5951157189717495299 2 0.7913674629047849907 2 
	0.9876192068378200073 2 1.183870950770855135 2 1.383302938290212447 2 1.582734925809569759 2 1.782166913328926849 2 
	1.981598900848284162 2 2.177850644781319289 2 2.374102388714354639 2 2.570354132647389989 2 2.766605876580425338 2 
	2.966037864099782873 2 3.165469851619139963 3 
	1.249999995529651686 -0.5 0.489897948556635543 
	1.31647732470277079 -0.5 0.489897948556635543 
	1.383991170317645514 -0.4862177658326329865 0.5047371040559652799 
	1.505635237035556573 -0.4347552281943413144 0.5496863138722810627 
	1.560118674988246523 -0.3969881017279524027 0.5787340565830518813 
	1.646295465332164198 -0.3108113113840348385 0.629165208600714676 
	1.684497682886838099 -0.2562131936855988612 0.6545460942327241405 
	1.736405550855665059 -0.1335780550817268764 0.6900961564735434983 
	1.749999995529651908 -0.06541724797767843602 0.6999999999999999556 
	1.749999995529651908 0.06541724797767838051 0.6999999999999999556 
	1.736405550855664615 0.1335780550817267376 0.6900961564735436093 
	1.684497682886837877 0.2562131936855984726 0.6545460942327242515 
	1.646295465332164643 0.3108113113840345054 0.629165208600714787 
	1.560118674988246967 0.3969881017279521807 0.5787340565830521033 
	1.505635237035557461 0.4347552281943409813 0.5496863138722812847 
	1.383991170317645958 0.48621776583263282 0.504737104055965391 
	1.31647732470277079 0.4999999999999999445 0.4898979485566355985 
	1.183522666356532582 0.499999999999999889 0.4898979485566355985 
	1.116008820741657415 0.486217765832632709 0.504737104055965391 
	0.9943647540237461335 0.4347552281943409813 0.5496863138722811737 
	0.9398813160710565162 0.3969881017279524027 0.5787340565830518813 
	0.853704525727138952 0.3108113113840347275 0.629165208600714676 
	0.8155023081724653844 0.2562131936855986947 0.6545460942327242515 
	0.7635944402036385359 0.1335780550817268209 0.6900961564735436093 
	0.7499999955296516863 0.06541724797767831112 0.6999999999999999556 
	0.7499999955296516863 -0.06541724797767853317 0.6999999999999999556 
	0.7635944402036386469 -0.1335780550817269874 0.6900961564735436093 
	0.8155023081724656064 -0.2562131936855988612 0.6545460942327242515 
	0.853704525727138952 -0.310811311384034894 0.629165208600714565 
	0.9398813160710566272 -0.3969881017279526247 0.5787340565830518813 
	0.9943647540237465776 -0.4347552281943412589 0.5496863138722811737 
	1.116008820741657859 -0.486217765832632931 0.5047371040559652799 
	1.183522666356532582 -0.5 0.489897948556635543 
	1.249999995529651686 -0.5 0.489897948556635543 
	0.0003423525788010682493 
	
	cone 1.249999995529651686 -5.551115115120809271e-17 0 0 0 1 0.5 0 0 1 I I 0 1 0.5 forward I I I I 
	cone 0 0 0 1 0 0 0 0 -0.6999999999999999556 1 I I 0 -1 0.6999999999999999556 forward I I I I 
	nullbs 
	nullbs 
	I I 
	0 
	0 
	0 
	
	0 } I I #
ATTRIB_CUSTOM-attrib $-1 -1 $-1 $-1 $28 @22 generic_tag_attrib_def 3 3 -1 @23 generic_tag_attrib_def  1 1 @1 3 0 2 378 470 0 #
face $59 28 $-1 $60 $38 $6 $-1 $61 forward single #
loop $-1 -1 $-1 $62 $63 $28 #
cone-surface $-1 -1 $-1 0 0 0 1 0 0 0 0 -0.75 1 I I 0 1 0.75 forward I I I I #
loop $-1 -1 $-1 $-1 $48 $19 #
coedge $-1 -1 $-1 $46 $46 $64 $65 forward $29 0 $-1 #
coedge $66 -1 $-1 $47 $47 $67 $68 reversed $31 0 $-1 #
coedge $-1 -1 $-1 $48 $48 $32 $49 forward $45 0 $-1 #
edge $-1 37 $-1 $69 -3.141592653589793116 $69 3.141592653589793116 $32 $70 forward @7 unknown #
coedge $-1 -1 $-1 $50 $50 $33 $51 forward $71 0 $-1 #
edge $-1 36 $-1 $72 0 $72 3.766628913198422079 $50 $73 forward @7 unknown #
loop $-1 -1 $-1 $74 $34 $42 #
vertex $-1 48 $-1 $35 0 $75 #
intcurve-curve $-1 -1 $-1 forward { int_int_cur 22140 full nubs 3 periodic 21 
	0 3 0.1266446101957727222 2 0.2532892203915454443 2 0.5065784407830908886 2 0.7473337205645187442 2 
	0.9880890003459465998 2 1.228844280127374677 2 1.469599559908802533 2 1.722888780300347866 2 1.849533390496120422 2 
	1.9761780006918932 2 2.102822610887665533 2 2.229467221083438311 2 2.482756441474983866 2 2.723511721256411722 2 
	2.964267001037839577 2 3.205022280819267433 2 3.445777560600695288 2 3.699066780992240844 2 3.825711391188013621 2 
	3.952356001383786399 3 
	1.249999995529651686 0.6000000000000003109 -0.3605551275463983463 
	1.292214865594909279 0.6000000000000003109 -0.3605551275463983463 
	1.333080706993978293 0.5955718121302759904 -0.3681307004598818877 
	1.411600176571878418 0.5792180673129365687 -0.3933604282854251122 
	1.449296712082950744 0.5672774658663296554 -0.4108710715181043138 
	1.55700108208061927 0.5213847935684040591 -0.4697158029186104256 
	1.621706974856120809 0.4768211580973882313 -0.5167278941227195777 
	1.724220381924321366 0.3743077510291875076 -0.5948431884240219514 
	1.769996118959343834 0.3098283432835007845 -0.6325338404964712113 
	1.832973363837741454 0.1628854181998669604 -0.6852452379928989368 
	1.849999995529651997 0.08025175992714242423 -0.6999999999999999556 
	1.849999995529651997 -0.08025175992714286832 -0.6999999999999999556 
	1.832973363837741454 -0.1628854181998672934 -0.6852452379928987147 
	1.769996118959343834 -0.309828343283501062 -0.6325338404964709893 
	1.724220381924321366 -0.3743077510291878407 -0.5948431884240217293 
	1.621706974856120809 -0.4768211580973885644 -0.5167278941227193556 
	1.55700108208061927 -0.5213847935684043922 -0.4697158029186102035 
	1.449296712082950522 -0.5672774658663297664 -0.4108710715181041473 
	1.411600176571878418 -0.5792180673129365687 -0.3933604282854251122 
	1.333080706993978071 -0.5955718121302761014 -0.3681307004598818322 
	1.292214865594909057 -0.6000000000000003109 -0.3605551275463983463 
	1.207785125464394316 -0.6000000000000003109 -0.3605551275463983463 
	1.166919284065325746 -0.5955718121302759904 -0.3681307004598817767 
	1.088399814487425177 -0.5792180673129365687 -0.3933604282854250012 
	1.050703278976352628 -0.5672774658663297664 -0.4108710715181039808 
	0.9429989089786839918 -0.5213847935684041701 -0.469715802918610259 
	0.8782930162031825638 -0.4768211580973883978 -0.5167278941227195777 
	0.7757796091349817846 -0.3743077510291876742 -0.5948431884240219514 
	0.7300038720999596498 -0.3098283432835007845 -0.6325338404964709893 
	0.6670266272215620296 -0.1628854181998669881 -0.6852452379928987147 
	0.6499999955296513754 -0.0802517599271426324 -0.6999999999999999556 
	0.6499999955296513754 0.08025175992714268791 -0.6999999999999999556 
	0.6670266272215620296 0.1628854181998670714 -0.6852452379928987147 
	0.7300038720999597608 0.3098283432835008955 -0.6325338404964709893 
	0.7757796091349820067 0.3743077510291876742 -0.5948431884240219514 
	0.8782930162031827859 0.4768211580973883423 -0.5167278941227195777 
	0.9429989089786841028 0.5213847935684041701 -0.4697158029186104256 
	1.050703278976352628 0.5672774658663297664 -0.4108710715181043138 
	1.088399814487424955 0.5792180673129365687 -0.3933604282854250567 
	1.16691928406532508 0.5955718121302759904 -0.3681307004598818322 
	1.207785125464394094 0.6000000000000003109 -0.3605551275463983463 
	1.249999995529651686 0.6000000000000003109 -0.3605551275463983463 
	0.0003554343517427625333 
	
	cone 1.249999995529651686 -5.551115115120809271e-17 0 0 0 -1 0.6000000000000003109 0 0 1 I I 0 1 0.6000000000000003109 forward I I I I 
	cone 0 0 0 1 0 0 0 0 -0.6999999999999999556 1 I I 0 -1 0.6999999999999999556 forward I I I I 
	nullbs 
	nullbs 
	I I 
	0 
	0 
	0 
	
	0 } I I #
loop $-1 -1 $-1 $71 $36 $76 #
vertex $-1 47 $-1 $37 0 $77 #
intcurve-curve $-1 -1 $-1 forward { int_int_cur 22140 full nubs 3 periodic 17 
	0 3 0.1937101024449250364 2 0.3874202048898500728 2 0.5802681695077531732 2 0.7731161341256562736 2 
	0.965964098743559374 2 1.158812063361462474 2 1.352522165806387511 2 1.546232268251312547 2 1.739942370696237584 2 
	1.93365247314116262 2 2.126500437759065498 2 2.319348402376968821 2 2.512196366994872143 2 2.705044331612775022 2 
	2.89875443405770028 2 3.092464536502625094 3 
	1.249999995529651686 -0.5 0.7483314773547883325 
	1.185429961381343489 -0.5 0.7483314773547883325 
	1.117933178002365135 -0.486798663961524436 0.7575764922640415566 
	0.9953842634915026633 -0.4354142213651531756 0.7882318380733880359 
	0.940154078695472295 -0.3972608643523682925 0.8089763604095741023 
	0.8529336582875149952 -0.3100404439444109372 0.8462350774519808994 
	0.8146412407954599644 -0.2547507473822764323 0.8654805738275808125 
	0.7631393102681067742 -0.1319161693483393016 0.892498008381554131 
	0.7499999955296516863 -0.06428265487263437605 0.9000000000000000222 
	0.7499999955296516863 0.06428265487263438993 0.9000000000000000222 
	0.7631393102681067742 0.1319161693483393016 0.892498008381554131 
	0.8146412407954601864 0.2547507473822764323 0.8654805738275808125 
	0.8529336582875151063 0.3100404439444108817 0.8462350774519808994 
	0.940154078695472406 0.3972608643523681815 0.8089763604095741023 
	0.9953842634915028853 0.4354142213651532312 0.7882318380733879248 
	1.117933178002365358 0.4867986639615244915 0.7575764922640414456 
	1.185429961381343489 0.4999999999999999445 0.7483314773547883325 
	1.314570029677959884 0.4999999999999999445 0.7483314773547883325 
	1.382066813056938015 0.4867986639615244915 0.7575764922640414456 
	1.504615727567800487 0.4354142213651532312 0.7882318380733879248 
	1.559845912363830855 0.3972608643523681815 0.8089763604095741023 
	1.647066332771788266 0.3100404439444108817 0.8462350774519807883 
	1.685358750263843186 0.2547507473822764879 0.8654805738275808125 
	1.736860680791196598 0.1319161693483393571 0.892498008381554242 
	1.749999995529651686 0.06428265487263438993 0.9000000000000000222 
	1.749999995529651686 -0.06428265487263451483 0.9000000000000000222 
	1.736860680791196598 -0.1319161693483394682 0.892498008381554242 
	1.685358750263843186 -0.2547507473822765989 0.8654805738275808125 
	1.647066332771788266 -0.3100404439444109927 0.8462350774519807883 
	1.559845912363830855 -0.3972608643523682925 0.8089763604095741023 
	1.504615727567800709 -0.4354142213651532312 0.7882318380733879248 
	1.382066813056938237 -0.486798663961524436 0.7575764922640414456 
	1.314570029677959884 -0.5 0.7483314773547883325 
	1.249999995529651686 -0.5 0.7483314773547883325 
	0.0003089275746395656053 
	
	cone 1.249999995529651686 -5.551115115120809271e-17 0 0 0 1 0.5 0 0 1 I I 0 1 0.5 forward I I I I 
	cone 0 0 0 1 0 0 0 0 -0.9000000000000000222 1 I I 0 1 0.9000000000000000222 forward I I I I 
	nullbs 
	nullbs 
	I I 
	0 
	0 
	0 
	
	0 } I I #
point $-1 -1 $-1 1.249999995529651686 -0.5 0.4898979485566354874 #
ATTRIB_CUSTOM-attrib $-1 -1 $-1 $-1 $42 @22 generic_tag_attrib_def 3 3 -1 @23 generic_tag_attrib_def  2 1 @1 4 0 2 378 470 0 1 @1 4 0 2 376 470 0 #
face $78 29 $-1 $76 $79 $6 $-1 $80 forward single #
cone-surface $-1 -1 $-1 0 0 0 1 0 0 0 0 -0.6999999999999999556 1 I I 0 -1 0.6999999999999999556 forward I I I I #
loop $-1 -1 $-1 $-1 $81 $28 #
coedge $-1 -1 $-1 $63 $63 $82 $83 reversed $43 0 $-1 #
coedge $-1 -1 $-1 $64 $64 $46 $65 reversed $74 0 $-1 #
edge $-1 39 $-1 $84 -3.141592653589793116 $84 3.141592653589793116 $64 $85 forward @7 unknown #
ATTRIB_CUSTOM-attrib $-1 -1 $-1 $-1 $47 @17 sketch_attrib_def 1 1 3 @15 357 356 0 0 1 1 #
coedge $-1 -1 $-1 $67 $67 $47 $68 forward $86 0 $-1 #
edge $-1 38 $-1 $87 -3.141592653589793116 $87 3.141592653589793116 $67 $88 forward @7 unknown #
vertex $-1 50 $-1 $49 2 $89 #
ellipse-curve $-1 -1 $-1 -0.3000000000000000444 0 0 -1 -0 -0 0 0 -0.75 1 I I #
loop $-1 -1 $-1 $90 $50 $76 #
vertex $-1 49 $-1 $51 0 $91 #
intcurve-curve $-1 -1 $-1 forward { int_int_cur 22140 full nubs 3 periodic 17 
	0 3 0.2367164111797787629 2 0.4734328223595575258 2 0.7075450253295814118 2 0.9416572282996054088 2 
	1.175769431269629406 2 1.409881634239653403 2 1.646598045419432221 2 1.883314456599210818 2 2.120030867778989858 2 
	2.356747278958768455 2 2.590859481928792452 2 2.824971684898816449 2 3.059083887868840446 2 3.293196090838864443 2 
	3.529912502018643039 2 3.766628913198422079 3 
	1.249999995529651686 0.6000000000000003109 -0.6708203932499366973 
	1.171094525136392228 0.6000000000000003109 -0.6708203932499366973 
	1.090004607467580211 0.5837066328482246602 -0.6861617067624513622 
	0.9435999428306863779 0.521949413505851334 -0.7342342616794297339 
	0.8779269897535065814 0.4764551316477123599 -0.7658280967254829097 
	0.7741190378223763435 0.3726471797165819555 -0.8213157810324813735 
	0.728245296896531169 0.306849043310091385 -0.8495018865709543787 
	0.6661266361087319066 0.1596127420954014942 -0.8890070730712810176 
	0.6499999955296513754 0.07803740099000784636 -0.9000000000000000222 
	0.6499999955296513754 -0.07803740099000813779 -0.9000000000000000222 
	0.6661266361087319066 -0.1596127420954018272 -0.8890070730712810176 
	0.728245296896531169 -0.3068490433100916071 -0.8495018865709543787 
	0.7741190378223763435 -0.372647179716582122 -0.8213157810324813735 
	0.8779269897535066924 -0.4764551316477125265 -0.7658280967254829097 
	0.9435999428306865999 -0.521949413505851556 -0.7342342616794296228 
	1.090004607467580433 -0.5837066328482247712 -0.6861617067624513622 
	1.171094525136392228 -0.6000000000000003109 -0.6708203932499366973 
	1.328905465922911366 -0.6000000000000003109 -0.6708203932499366973 
	1.409995383591723384 -0.5837066328482247712 -0.6861617067624515842 
	1.556400048228616884 -0.521949413505851556 -0.7342342616794298449 
	1.622073001305796902 -0.4764551316477124154 -0.7658280967254829097 
	1.725880953236927251 -0.372647179716582011 -0.8213157810324813735 
	1.771754694162772426 -0.306849043310091385 -0.8495018865709543787 
	1.833873354950571688 -0.1596127420954015774 -0.8890070730712810176 
	1.849999995529652219 -0.07803740099000801289 -0.9000000000000000222 
	1.849999995529652219 0.07803740099000792962 -0.9000000000000000222 
	1.833873354950571688 0.1596127420954014942 -0.8890070730712810176 
	1.771754694162772426 0.306849043310091274 -0.8495018865709543787 
	1.725880953236927251 0.3726471797165819 -0.8213157810324813735 
	1.622073001305796902 0.4764551316477123044 -0.7658280967254829097 
	1.556400048228617106 0.521949413505851223 -0.7342342616794300669 
	1.409995383591723606 0.5837066328482246602 -0.6861617067624515842 
	1.328905465922911366 0.6000000000000003109 -0.6708203932499366973 
	1.249999995529651686 0.6000000000000003109 -0.6708203932499366973 
	0.0003852747810172477399 
	
	cone 1.249999995529651686 -5.551115115120809271e-17 0 0 0 -1 0.6000000000000003109 0 0 1 I I 0 1 0.6000000000000003109 forward I I I I 
	cone 0 0 0 1 0 0 0 0 -0.9000000000000000222 1 I I 0 1 0.9000000000000000222 forward I I I I 
	nullbs 
	nullbs 
	I I 
	0 
	0 
	0 
	
	0 } I I #
loop $-1 -1 $-1 $92 $64 $42 #
point $-1 -1 $-1 1.249999995529651686 0.6000000000000003109 -0.3605551275463982908 #
face $93 30 $-1 $94 $55 $6 $-1 $95 forward single #
point $-1 -1 $-1 1.249999995529651686 -0.5 0.7483314773547882215 #
ATTRIB_CUSTOM-attrib $-1 -1 $-1 $-1 $60 @22 generic_tag_attrib_def 3 3 -1 @23 generic_tag_attrib_def  1 1 @1 2 0 2 378 470 0 #
loop $-1 -1 $-1 $96 $97 $60 #
plane-surface $-1 -1 $-1 2.800000000000000266 0 0 1 0 0 0 0 -1 forward_v I I I I #
coedge $-1 -1 $-1 $81 $81 $98 $99 reversed $62 0 $-1 #
coedge $-1 -1 $-1 $82 $82 $63 $83 forward $96 0 $-1 #
edge $-1 40 $-1 $100 -3.141592653589793116 $100 3.141592653589793116 $63 $101 forward @7 unknown #
vertex $-1 52 $-1 $65 2 $102 #
ellipse-curve $-1 -1 $-1 -0.3000000000000000444 0 0 1 0 0 0 0 -0.6999999999999999556 1 I I #
loop $-1 -1 $-1 $103 $67 $104 #
vertex $-1 51 $-1 $68 0 $105 #
ellipse-curve $-1 -1 $-1 0 0 0 1 0 0 0 0 -0.75 1 I I #
point $-1 -1 $-1 -0.3000000000000000444 -9.184850993605148438e-17 0.75 #
loop $-1 -1 $-1 $106 $107 $76 #
point $-1 -1 $-1 1.249999995529651686 0.6000000000000001998 -0.6708203932499365862 #
loop $-1 -1 $-1 $-1 $108 $42 #
ATTRIB_CUSTOM-attrib $-1 -1 $-1 $-1 $76 @22 generic_tag_attrib_def 3 3 -1 @23 generic_tag_attrib_def  1 1 @1 3 0 2 374 470 0 #
face $109 31 $-1 $104 $110 $6 $-1 $111 forward single #
cone-surface $-1 -1 $-1 0 0 0 1 0 0 0 0 -0.9000000000000000222 1 I I 0 1 0.9000000000000000222 forward I I I I #
loop $-1 -1 $-1 $-1 $82 $60 #
coedge $-1 -1 $-1 $97 $97 $108 $112 forward $79 0 $-1 #
coedge $-1 -1 $-1 $98 $98 $81 $99 forward $110 0 $-1 #
edge $-1 41 $-1 $113 -3.141592653589793116 $113 3.141592653589793116 $98 $114 forward @7 unknown #
vertex $-1 53 $-1 $83 2 $115 #
ellipse-curve $-1 -1 $-1 2.800000000000000266 0 0 1 0 0 0 0 -0.75 1 I I #
point $-1 -1 $-1 -0.3000000000000000444 -8.572527594031471957e-17 0.6999999999999999556 #
loop $-1 -1 $-1 $-1 $116 $104 #
face $117 32 $-1 $-1 $86 $6 $-1 $118 reversed single #
point $-1 -1 $-1 0 -9.184850993605148438e-17 0.75 #
loop $-1 -1 $-1 $-1 $119 $76 #
coedge $-1 -1 $-1 $107 $107 $120 $121 reversed $90 0 $-1 #
coedge $-1 -1 $-1 $108 $108 $97 $112 reversed $92 0 $-1 #
ATTRIB_CUSTOM-attrib $-1 -1 $-1 $-1 $94 @22 generic_tag_attrib_def 3 3 -1 @23 generic_tag_attrib_def  1 1 @1 2 0 2 374 470 0 #
loop $-1 -1 $-1 $122 $98 $94 #
plane-surface $-1 -1 $-1 2.5 0 0 1 0 0 0 0 -1 forward_v I I I I #
edge $-1 42 $-1 $123 -3.141592653589793116 $123 3.141592653589793116 $108 $124 forward @7 unknown #
vertex $-1 54 $-1 $99 0 $125 #
ellipse-curve $-1 -1 $-1 2.5 0 0 -1 0 0 0 0 -0.75 1 I I #
point $-1 -1 $-1 2.800000000000000266 -9.184850993605148438e-17 0.75 #
coedge $126 -1 $-1 $116 $116 $119 $127 reversed $103 0 $-1 #
ATTRIB_CUSTOM-attrib $-1 -1 $-1 $-1 $104 @22 generic_tag_attrib_def 3 3 -1 @23 generic_tag_attrib_def  2 1 @1 1 0 2 374 470 0 1 @1 1 0 2 378 470 0 #
plane-surface $-1 -1 $-1 0 0 0 1 0 0 0 0 -1 forward_v I I I I #
coedge $128 -1 $-1 $119 $119 $116 $127 forward $106 0 $-1 #
coedge $-1 -1 $-1 $120 $120 $107 $121 forward $122 0 $-1 #
edge $-1 43 $-1 $129 -3.141592653589793116 $129 3.141592653589793116 $107 $130 forward @7 unknown #
loop $-1 -1 $-1 $-1 $120 $94 #
vertex $-1 55 $-1 $112 2 $131 #
ellipse-curve $-1 -1 $-1 2.800000000000000266 0 0 -1 0 0 0 0 -0.6999999999999999556 1 I I #
point $-1 -1 $-1 2.5 -9.184850993605148438e-17 0.75 #
ATTRIB_CUSTOM-attrib $-1 -1 $-1 $-1 $116 @17 sketch_attrib_def 1 1 3 @13 351 0 0 0 1 1 #
edge $-1 44 $-1 $132 -3.141592653589793116 $132 3.141592653589793116 $119 $133 forward @7 unknown #
ATTRIB_CUSTOM-attrib $-1 -1 $-1 $-1 $119 @17 sketch_attrib_def 1 1 3 @13 351 0 0 0 1 1 #
vertex $-1 56 $-1 $121 0 $134 #
ellipse-curve $-1 -1 $-1 2.5 0 0 1 0 0 0 0 -0.9000000000000000222 1 I I #
point $-1 -1 $-1 2.800000000000000266 -8.572527594031471957e-17 0.6999999999999999556 #
vertex $-1 57 $-1 $127 0 $135 #
ellipse-curve $-1 -1 $-1 0 0 0 1 0 0 0 0 -0.9000000000000000222 1 I I #
point $-1 -1 $-1 2.5 -1.102182119232617911e-16 0.9000000000000000222 #
point $-1 -1 $-1 0 -1.102182119232617911e-16 0.9000000000000000222 #
End-of-ASM-data 