22700 0 2 4           
16 Autodesk Neutron 20 ASM 227.1.1.65535 NT 24 Tue Aug 24 22:26:12 2021 
10 9.999999999999999547e-07 1.000000000000000036e-10 
asmheader $-1 -1 @13 227.1.1.65535 #
body $2 1156 $-1 $3 $-1 $4 #
ATTRIB_CUSTOM-attrib $-1 -1 $5 $-1 $1 @20 Timestamp_attrib_def 1 1461897536001 #
lump $-1 -1 $-1 $-1 $6 $1 #
transform $-1 -1 1 0 0 0 1 0 0 0 1 0 0 0 1 no_rotate no_reflect no_shear #
ATTRIB_CUSTOM-attrib $7 -1 $-1 $2 $1 @22 generic_tag_attrib_def 3 3 -1 @23 generic_tag_attrib_def  1 3 @3 419 1 0 0 #
shell $-1 -1 $-1 $-1 $-1 $8 $-1 $3 #
ATTRIB_CUSTOM-attrib $-1 -1 $-1 $-1 $5 @22 generic_tag_attrib_def 3 3 -1 @23 generic_tag_attrib_def  1 0 @0  0 1 509 0 #
face $9 1143 $-1 $10 $11 $6 $-1 $12 forward single #
ATTRIB_CUSTOM-attrib $13 -1 $-1 $-1 $8 @22 generic_tag_attrib_def 3 3 -1 @23 generic_tag_attrib_def  1 1 @1 9 0 2 383 419 0 #
face $14 1144 $-1 $15 $16 $6 $-1 $17 forward single #
loop $-1 -1 $-1 $-1 $18 $8 #
plane-surface $-1 -1 $-1 4.49562256970551033 57.07723727951496784 -17.34179841845526227 3.081487911019577365e-33 -1 -1.972152263052529951e-31 -5.220243575006535957e-54 1.972152263052529951e-31 -1 forward_v I I I I #
ATTRIB_CUSTOM-attrib $-1 -1 $-1 $-1 $9 @22 generic_tag_attrib_def 3 3 -1 @23 generic_tag_attrib_def  1 0 @0  0 2 384 509 0 #
ATTRIB_CUSTOM-attrib $19 -1 $-1 $-1 $10 @22 generic_tag_attrib_def 3 3 -1 @23 generic_tag_attrib_def  1 1 @1 8 0 2 383 419 0 #
face $20 1145 $-1 $21 $22 $6 $-1 $23 forward single #
loop $-1 -1 $-1 $-1 $24 $10 #
plane-surface $-1 -1 $-1 6.495622569705506777 82.07723727951497494 -17.34179841845526227 -3.081487911019577365e-33 1 1.972152263052529951e-31 5.220243575006535957e-54 -1.972152263052529951e-31 1 forward_v I I I I #
coedge $-1 -1 $-1 $18 $18 $25 $26 forward $11 0 $-1 #
ATTRIB_CUSTOM-attrib $-1 -1 $-1 $-1 $14 @22 generic_tag_attrib_def 3 3 -1 @23 generic_tag_attrib_def  1 0 @0  0 2 384 509 0 #
ATTRIB_CUSTOM-attrib $27 -1 $-1 $-1 $15 @22 generic_tag_attrib_def 3 3 -1 @23 generic_tag_attrib_def  1 1 @1 7 0 2 383 419 0 #
face $28 1146 $-1 $29 $30 $6 $-1 $31 forward single #
loop $-1 -1 $-1 $32 $33 $15 #
cone-surface $-1 -1 $-1 4.495622569705508553 77.07723727951497494 -17.34179841845526227 3.081487911019577365e-33 -1 -1.972152263052529951e-31 1.999999999999998446 6.16297582203914994e-33 -1.044048714879763113e-53 1 I I 0 1 1.999999999999998446 forward I I I I #
coedge $-1 -1 $-1 $24 $24 $33 $34 reversed $16 0 $-1 #
coedge $-1 -1 $-1 $25 $25 $18 $26 reversed $35 0 $-1 #
edge $-1 1150 $-1 $36 0 $36 6.283185307179586232 $25 $37 forward @7 unknown #
ATTRIB_CUSTOM-attrib $-1 -1 $-1 $-1 $20 @22 generic_tag_attrib_def 3 3 -1 @23 generic_tag_attrib_def  1 0 @0  0 2 384 509 0 #
ATTRIB_CUSTOM-attrib $38 -1 $-1 $-1 $21 @22 generic_tag_attrib_def 3 3 -1 @23 generic_tag_attrib_def  1 1 @1 6 0 2 383 419 0 #
face $39 1147 $-1 $40 $41 $6 $-1 $42 forward single #
loop $-1 -1 $-1 $43 $44 $21 #
plane-surface $-1 -1 $-1 7.99562256970551033 72.07723727951497494 -17.34179841845526227 -3.081487911019577365e-33 1 1.972152263052529951e-31 5.220243575006535957e-54 -1.972152263052529951e-31 1 forward_v I I I I #
loop $-1 -1 $-1 $-1 $45 $15 #
coedge $-1 -1 $-1 $33 $33 $24 $34 forward $22 0 $-1 #
edge $-1 1151 $-1 $46 0 $46 6.283185307179586232 $33 $47 forward @7 unknown #
loop $-1 -1 $-1 $-1 $25 $48 #
vertex $-1 1157 $-1 $26 2 $49 #
ellipse-curve $-1 -1 $-1 4.495622569705508553 57.07723727951496784 -17.34179841845526227 3.081487911019577365e-33 -1 -1.972152263052529951e-31 2.659152504687544827 8.194146296752099415e-33 -1.388142377594168296e-53 1 I I #
ATTRIB_CUSTOM-attrib $-1 -1 $-1 $-1 $28 @22 generic_tag_attrib_def 3 3 -1 @23 generic_tag_attrib_def  1 0 @0  0 2 384 509 0 #
ATTRIB_CUSTOM-attrib $50 -1 $-1 $-1 $29 @22 generic_tag_attrib_def 3 3 -1 @23 generic_tag_attrib_def  1 1 @1 5 0 2 383 419 0 #
face $51 1148 $-1 $48 $52 $6 $-1 $53 forward single #
loop $-1 -1 $-1 $54 $55 $29 #
cone-surface $-1 -1 $-1 4.495622569705508553 67.07723727951497494 -17.34179841845526227 3.081487911019577365e-33 -1 -1.972152263052529951e-31 3.500000000000001332 1.078520768856852488e-32 -1.827085251039587563e-53 1 I I 0 1 3.500000000000001332 forward I I I I #
loop $-1 -1 $-1 $-1 $56 $21 #
coedge $-1 -1 $-1 $44 $44 $45 $57 forward $30 0 $-1 #
coedge $-1 -1 $-1 $45 $45 $44 $57 reversed $32 0 $-1 #
vertex $-1 1158 $-1 $34 2 $58 #
ellipse-curve $-1 -1 $-1 4.495622569705508553 82.07723727951497494 -17.34179841845526227 3.081487911019577365e-33 -1 -1.972152263052529951e-31 1.999999999999998446 6.16297582203914994e-33 -1.044048714879763113e-53 1 I I #
face $59 1149 $-1 $-1 $60 $6 $-1 $61 forward single #
point $-1 -1 $-1 7.154775074393054268 57.07723727951496784 -17.34179841845526227 #
ATTRIB_CUSTOM-attrib $-1 -1 $-1 $-1 $39 @22 generic_tag_attrib_def 3 3 -1 @23 generic_tag_attrib_def  1 0 @0  0 2 384 509 0 #
ATTRIB_CUSTOM-attrib $62 -1 $-1 $-1 $40 @22 generic_tag_attrib_def 3 3 -1 @23 generic_tag_attrib_def  1 1 @1 4 0 2 383 419 0 #
loop $-1 -1 $-1 $63 $64 $40 #
plane-surface $-1 -1 $-1 7.154775074393054268 62.07723727951496784 -17.34179841845526227 3.081487911019577365e-33 -1 -1.972152263052529951e-31 -5.220243575006535957e-54 1.972152263052529951e-31 -1 forward_v I I I I #
loop $-1 -1 $-1 $-1 $65 $29 #
coedge $-1 -1 $-1 $55 $55 $56 $66 forward $41 0 $-1 #
coedge $-1 -1 $-1 $56 $56 $55 $66 reversed $43 0 $-1 #
edge $-1 1152 $-1 $67 0 $67 6.283185307179586232 $44 $68 forward @7 unknown #
point $-1 -1 $-1 6.495622569705506777 82.07723727951497494 -17.34179841845526227 #
ATTRIB_CUSTOM-attrib $69 -1 $-1 $-1 $48 @22 generic_tag_attrib_def 3 3 -1 @23 generic_tag_attrib_def  1 1 @1 3 0 2 383 419 0 #
loop $-1 -1 $-1 $35 $70 $48 #
cone-surface $-1 -1 $-1 4.495622569705508553 59.57723727951496784 -17.34179841845526227 3.081487911019577365e-33 -1 -1.972152263052529951e-31 2.659152504687545271 8.194146296752100783e-33 -1.388142377594168527e-53 1 I I 0 1 2.659152504687545271 forward I I I I #
ATTRIB_CUSTOM-attrib $-1 -1 $-1 $-1 $51 @22 generic_tag_attrib_def 3 3 -1 @23 generic_tag_attrib_def  1 0 @0  0 2 384 509 0 #
loop $-1 -1 $-1 $-1 $71 $40 #
coedge $-1 -1 $-1 $64 $64 $65 $72 forward $52 0 $-1 #
coedge $-1 -1 $-1 $65 $65 $64 $72 reversed $54 0 $-1 #
edge $-1 1153 $-1 $73 0 $73 6.283185307179586232 $55 $74 forward @7 unknown #
vertex $-1 1159 $-1 $57 2 $75 #
ellipse-curve $-1 -1 $-1 4.495622569705508553 72.07723727951497494 -17.34179841845526227 3.081487911019577365e-33 -1 -1.972152263052529951e-31 1.999999999999998446 6.16297582203914994e-33 -1.044048714879763113e-53 1 I I #
ATTRIB_CUSTOM-attrib $-1 -1 $-1 $-1 $59 @22 generic_tag_attrib_def 3 3 -1 @23 generic_tag_attrib_def  1 0 @0  0 2 384 509 0 #
coedge $-1 -1 $-1 $70 $70 $71 $76 forward $60 0 $-1 #
coedge $-1 -1 $-1 $71 $71 $70 $76 reversed $63 0 $-1 #
edge $-1 1154 $-1 $77 0 $77 6.283185307179586232 $64 $78 forward @7 unknown #
vertex $-1 1160 $-1 $66 2 $79 #
ellipse-curve $-1 -1 $-1 4.495622569705508553 72.07723727951497494 -17.34179841845526227 3.081487911019577365e-33 -1 -1.972152263052529951e-31 3.500000000000001332 1.078520768856852488e-32 -1.827085251039587563e-53 1 I I #
point $-1 -1 $-1 6.495622569705506777 72.07723727951497494 -17.34179841845526227 #
edge $-1 1155 $-1 $80 0 $80 6.283185307179586232 $70 $81 forward @7 unknown #
vertex $-1 1161 $-1 $72 2 $82 #
ellipse-curve $-1 -1 $-1 4.495622569705508553 62.07723727951496784 -17.34179841845526227 3.081487911019577365e-33 -1 -1.972152263052529951e-31 3.500000000000001332 1.078520768856852488e-32 -1.827085251039587563e-53 1 I I #
point $-1 -1 $-1 7.99562256970551033 72.07723727951497494 -17.34179841845526227 #
vertex $-1 1162 $-1 $76 2 $83 #
ellipse-curve $-1 -1 $-1 4.495622569705508553 62.07723727951496784 -17.34179841845526227 3.081487911019577365e-33 -1 -1.972152263052529951e-31 2.659152504687545271 8.194146296752100783e-33 -1.388142377594168527e-53 1 I I #
point $-1 -1 $-1 7.99562256970551033 62.07723727951496784 -17.34179841845526227 #
point $-1 -1 $-1 7.154775074393054268 62.07723727951496784 -17.34179841845526227 #
End-of-ASM-data 