# WaveFront *.obj file
# Vertices: 8
# Triangles : 12

v 1.0000000000000000e+02 8.0000000000000000e+01 0.0000000000000000e+00
v 1.0000000000000000e+02 7.4920000000000002e+01 0.0000000000000000e+00
v 5.0800000000000001e+00 7.4920000000000002e+01 0.0000000000000000e+00
v 5.0800000000000001e+00 8.0000000000000000e+01 0.0000000000000000e+00
v 1.0000000000000000e+02 7.4920000000000002e+01 5.0799999999999983e+00
v 5.0800000000000001e+00 7.4920000000000002e+01 5.0799999999999983e+00
v 1.0000000000000000e+02 8.0000000000000000e+01 5.0799999999999983e+00
v 5.0800000000000001e+00 8.0000000000000000e+01 5.0799999999999983e+00

vn 0.0000000000000000e+00 0.0000000000000000e+00 -1.0000000000000000e+00
vn 0.0000000000000000e+00 -1.0000000000000000e+00 0.0000000000000000e+00
vn 0.0000000000000000e+00 0.0000000000000000e+00 1.0000000000000000e+00
vn 0.0000000000000000e+00 1.0000000000000000e+00 0.0000000000000000e+00
vn -1.0000000000000000e+00 -0.0000000000000000e+00 -0.0000000000000000e+00
vn 1.0000000000000000e+00 -0.0000000000000000e+00 -0.0000000000000000e+00

g face 0
f 1//1 2//1 4//1
f 4//1 2//1 3//1

g face 1
f 2//2 5//2 3//2
f 3//2 5//2 6//2

g face 2
f 5//3 7//3 6//3
f 6//3 7//3 8//3

g face 3
f 7//4 1//4 8//4
f 8//4 1//4 4//4

g face 4
f 3//5 6//5 4//5
f 4//5 6//5 8//5

g face 5
f 5//6 2//6 7//6
f 7//6 2//6 1//6

g halfedge 0 edge 0
l 1 2

g halfedge 1 edge 0
l 2 1

g halfedge 2 edge 1
l 2 3

g halfedge 3 edge 1
l 3 2

g halfedge 4 edge 2
l 3 4

g halfedge 5 edge 2
l 4 3

g halfedge 6 edge 3
l 4 1

g halfedge 7 edge 3
l 1 4

g halfedge 8 edge 4
l 5 2

g halfedge 9 edge 4
l 2 5

g halfedge 10 edge 5
l 5 6

g halfedge 11 edge 5
l 6 5

g halfedge 12 edge 6
l 6 3

g halfedge 13 edge 6
l 3 6

g halfedge 14 edge 7
l 7 5

g halfedge 15 edge 7
l 5 7

g halfedge 16 edge 8
l 8 7

g halfedge 17 edge 8
l 7 8

g halfedge 18 edge 9
l 6 8

g halfedge 19 edge 9
l 8 6

g halfedge 20 edge 10
l 1 7

g halfedge 21 edge 10
l 7 1

g halfedge 22 edge 11
l 8 4

g halfedge 23 edge 11
l 4 8

g vertex 0
p 1

g vertex 1
p 2

g vertex 2
p 3

g vertex 3
p 4

g vertex 4
p 5

g vertex 5
p 6

g vertex 6
p 7

g vertex 7
p 8

# End of file
