22700 0 2 4           
16 Autodesk Neutron 20 ASM 227.1.1.65535 NT 24 Wed Aug 25 17:45:34 2021 
10 9.999999999999999547e-07 1.000000000000000036e-10 
asmheader $-1 -1 @13 227.1.1.65535 #
body $2 0 $-1 $3 $-1 $4 #
ATTRIB_CUSTOM-attrib $-1 -1 $5 $-1 $1 @20 Timestamp_attrib_def 1 1479664325002 #
lump $-1 -1 $-1 $-1 $6 $1 #
transform $-1 -1 1 0 0 0 1 0 0 0 1 0 0 0 1 no_rotate no_reflect no_shear #
ATTRIB_CUSTOM-attrib $-1 -1 $-1 $2 $1 @22 generic_tag_attrib_def 3 3 -1 @23 generic_tag_attrib_def  1 3 @3 372 2 0 0 #
shell $-1 -1 $-1 $-1 $-1 $7 $-1 $3 #
face $8 19 $-1 $9 $10 $6 $-1 $11 forward single #
ATTRIB_CUSTOM-attrib $-1 -1 $-1 $-1 $7 @22 generic_tag_attrib_def 3 3 -1 @23 generic_tag_attrib_def  1 1 @1 6 0 5 323 325 328 341 372 0 #
face $12 20 $-1 $13 $14 $6 $-1 $15 forward single #
loop $-1 -1 $-1 $-1 $16 $7 #
plane-surface $-1 -1 $-1 100 0 70 -1 0 0 0 0 1 forward_v I I I I #
ATTRIB_CUSTOM-attrib $-1 -1 $-1 $-1 $9 @22 generic_tag_attrib_def 3 3 -1 @23 generic_tag_attrib_def  1 1 @1 5 0 5 323 325 328 341 372 0 #
face $17 21 $-1 $18 $19 $6 $-1 $20 forward single #
loop $-1 -1 $-1 $-1 $21 $9 #
plane-surface $-1 -1 $-1 105.0799999999999983 0 70 0 0 -1 -1 -0 -0 forward_v I I I I #
coedge $22 -1 $-1 $23 $24 $25 $26 reversed $10 0 $-1 #
ATTRIB_CUSTOM-attrib $-1 -1 $-1 $-1 $13 @22 generic_tag_attrib_def 3 3 -1 @23 generic_tag_attrib_def  1 1 @1 4 0 5 323 325 328 341 372 0 #
face $27 22 $-1 $28 $29 $6 $-1 $30 forward single #
loop $-1 -1 $-1 $-1 $31 $13 #
plane-surface $-1 -1 $-1 105.0799999999999983 0 75.07999999999999829 1 0 0 -0 -0 -1 forward_v I I I I #
coedge $32 -1 $-1 $33 $34 $35 $36 reversed $14 0 $-1 #
ATTRIB_CUSTOM-attrib $-1 -1 $-1 $-1 $16 @17 sketch_attrib_def 1 1 3 @13 129 0 1 0 1 1 #
coedge $-1 -1 $-1 $37 $16 $38 $39 forward $10 0 $-1 #
coedge $-1 -1 $-1 $16 $37 $33 $40 reversed $10 0 $-1 #
coedge $41 -1 $-1 $35 $42 $16 $26 forward $43 0 $-1 #
edge $-1 25 $-1 $44 0 $45 5.080000000000000071 $25 $46 forward @7 unknown #
ATTRIB_CUSTOM-attrib $-1 -1 $-1 $-1 $18 @22 generic_tag_attrib_def 3 3 -1 @23 generic_tag_attrib_def  1 1 @1 3 0 5 323 325 328 341 372 0 #
face $47 23 $-1 $48 $49 $6 $-1 $50 forward single #
loop $-1 -1 $-1 $-1 $51 $18 #
plane-surface $-1 -1 $-1 100 0 75.07999999999999829 0 0 1 1 0 0 forward_v I I I I #
coedge $52 -1 $-1 $53 $54 $55 $56 reversed $19 0 $-1 #
ATTRIB_CUSTOM-attrib $-1 -1 $-1 $-1 $21 @17 sketch_attrib_def 1 1 3 @13 126 0 1 0 1 1 #
coedge $-1 -1 $-1 $57 $21 $24 $40 forward $14 0 $-1 #
coedge $-1 -1 $-1 $21 $57 $53 $58 reversed $14 0 $-1 #
coedge $59 -1 $-1 $55 $25 $21 $36 forward $43 0 $-1 #
edge $-1 29 $-1 $45 0 $60 5.080000000000000071 $35 $61 forward @7 unknown #
coedge $-1 -1 $-1 $24 $23 $62 $63 reversed $10 0 $-1 #
coedge $-1 -1 $-1 $51 $64 $23 $39 reversed $29 0 $-1 #
edge $-1 26 $-1 $44 0 $65 80 $38 $66 forward @7 unknown #
edge $-1 28 $-1 $45 0 $67 80 $24 $68 forward @7 unknown #
ATTRIB_CUSTOM-attrib $-1 -1 $-1 $-1 $25 @17 sketch_attrib_def 1 1 3 @13 129 0 1 0 1 1 #
coedge $69 -1 $-1 $25 $55 $51 $70 forward $43 0 $-1 #
loop $-1 -1 $-1 $-1 $42 $48 #
vertex $-1 85 $-1 $70 1 $71 #
vertex $-1 84 $-1 $26 1 $72 #
straight-curve $-1 -1 $-1 100 0 75.07999999999999829 0 0 -1 F 0 F 5.080000000000000071 #
ATTRIB_CUSTOM-attrib $-1 -1 $-1 $-1 $28 @22 generic_tag_attrib_def 3 3 -1 @23 generic_tag_attrib_def  1 1 @1 2 0 5 323 325 328 341 372 0 #
face $73 24 $-1 $-1 $43 $6 $-1 $74 reversed single #
loop $-1 -1 $-1 $-1 $75 $28 #
plane-surface $-1 -1 $-1 102.5400000000000063 80 72.54000000000000625 0 1 0 0 0 1 forward_v I I I I #
coedge $76 -1 $-1 $77 $38 $42 $70 reversed $29 0 $-1 #
ATTRIB_CUSTOM-attrib $-1 -1 $-1 $-1 $31 @17 sketch_attrib_def 1 1 3 @13 127 0 1 0 1 1 #
coedge $-1 -1 $-1 $78 $31 $34 $58 forward $19 0 $-1 #
coedge $-1 -1 $-1 $31 $78 $77 $79 reversed $19 0 $-1 #
coedge $80 -1 $-1 $42 $35 $31 $56 forward $43 0 $-1 #
edge $-1 32 $-1 $60 0 $81 5.080000000000000071 $55 $82 forward @7 unknown #
coedge $-1 -1 $-1 $34 $33 $83 $84 reversed $14 0 $-1 #
edge $-1 31 $-1 $60 0 $85 80 $34 $86 forward @7 unknown #
ATTRIB_CUSTOM-attrib $-1 -1 $-1 $-1 $35 @17 sketch_attrib_def 1 1 3 @13 126 0 1 0 1 1 #
vertex $-1 88 $-1 $36 1 $87 #
straight-curve $-1 -1 $-1 100 0 70 1 0 0 F 0 F 5.080000000000000071 #
coedge $-1 -1 $-1 $75 $83 $37 $63 forward $49 0 $-1 #
edge $-1 27 $-1 $67 -5.080000000000000071 $65 -0 $37 $88 forward @7 unknown #
coedge $-1 -1 $-1 $38 $77 $75 $89 reversed $29 0 $-1 #
vertex $-1 86 $-1 $89 0 $90 #
straight-curve $-1 -1 $-1 100 0 75.07999999999999829 0 1 0 I I #
vertex $-1 87 $-1 $63 0 $91 #
straight-curve $-1 -1 $-1 100 0 70 0 1 0 I I #
ATTRIB_CUSTOM-attrib $-1 -1 $-1 $-1 $42 @17 sketch_attrib_def 1 1 3 @13 128 0 1 0 1 1 #
edge $-1 35 $-1 $81 0 $44 5.080000000000000071 $42 $92 forward @7 unknown #
point $-1 -1 $-1 100 0 75.07999999999999829 #
point $-1 -1 $-1 100 0 70 #
ATTRIB_CUSTOM-attrib $-1 -1 $-1 $-1 $48 @22 generic_tag_attrib_def 3 3 -1 @23 generic_tag_attrib_def  1 1 @1 1 0 5 323 325 328 341 372 0 #
plane-surface $-1 -1 $-1 102.5400000000000063 0 72.54000000000000625 0 1 0 1 0 0 forward_v I I I I #
coedge $-1 -1 $-1 $93 $62 $64 $89 forward $49 0 $-1 #
ATTRIB_CUSTOM-attrib $-1 -1 $-1 $-1 $51 @17 sketch_attrib_def 1 1 3 @13 128 0 1 0 1 1 #
coedge $-1 -1 $-1 $64 $51 $54 $79 forward $29 0 $-1 #
coedge $-1 -1 $-1 $54 $53 $93 $94 reversed $19 0 $-1 #
edge $-1 34 $-1 $81 0 $95 80 $77 $96 forward @7 unknown #
ATTRIB_CUSTOM-attrib $-1 -1 $-1 $-1 $55 @17 sketch_attrib_def 1 1 3 @13 127 0 1 0 1 1 #
vertex $-1 90 $-1 $70 0 $97 #
straight-curve $-1 -1 $-1 105.0799999999999983 0 70 0 0 1 F 0 F 5.080000000000000071 #
coedge $-1 -1 $-1 $62 $93 $57 $84 forward $49 0 $-1 #
edge $-1 30 $-1 $85 -5.080000000000000071 $67 -0 $57 $98 forward @7 unknown #
vertex $-1 89 $-1 $84 0 $99 #
straight-curve $-1 -1 $-1 105.0799999999999983 0 70 0 1 0 I I #
point $-1 -1 $-1 105.0799999999999983 0 70 #
straight-curve $-1 -1 $-1 100 80 75.07999999999999829 0 0 1 I I #
edge $-1 36 $-1 $65 -5.080000000000000071 $95 -0 $64 $100 forward @7 unknown #
point $-1 -1 $-1 100 80 75.07999999999999829 #
point $-1 -1 $-1 100 80 70 #
straight-curve $-1 -1 $-1 105.0799999999999983 0 75.07999999999999829 -1 0 0 F 0 F 5.080000000000000071 #
coedge $-1 -1 $-1 $83 $75 $78 $94 forward $49 0 $-1 #
edge $-1 33 $-1 $95 -5.080000000000000071 $85 -0 $78 $101 forward @7 unknown #
vertex $-1 91 $-1 $79 1 $102 #
straight-curve $-1 -1 $-1 105.0799999999999983 0 75.07999999999999829 0 1 0 I I #
point $-1 -1 $-1 105.0799999999999983 0 75.07999999999999829 #
straight-curve $-1 -1 $-1 100 80 70 -1 -0 -0 I I #
point $-1 -1 $-1 105.0799999999999983 80 70 #
straight-curve $-1 -1 $-1 105.0799999999999983 80 75.07999999999999829 1 0 0 I I #
straight-curve $-1 -1 $-1 105.0799999999999983 80 70 -0 -0 -1 I I #
point $-1 -1 $-1 105.0799999999999983 80 75.07999999999999829 #
End-of-ASM-data 