22700 0 2 4           
16 Autodesk Neutron 20 ASM 227.1.1.65535 NT 24 Wed Aug 25 15:39:39 2021 
10 9.999999999999999547e-07 1.000000000000000036e-10 
asmheader $-1 -1 @13 227.1.1.65535 #
body $2 -1 $-1 $3 $-1 $4 #
ATTRIB_CUSTOM-attrib $-1 -1 $5 $-1 $1 @20 Timestamp_attrib_def 1 1629905923913953 #
lump $-1 -1 $-1 $-1 $6 $1 #
transform $-1 -1 1 0 0 0 1 0 0 0 1 0 0 0 1 no_rotate no_reflect no_shear #
ATTRIB_CUSTOM-attrib $-1 -1 $-1 $2 $1 @22 generic_tag_attrib_def 3 3 -1 @23 generic_tag_attrib_def  1 3 @3 300 3 0 0 #
shell $-1 -1 $-1 $-1 $-1 $7 $-1 $3 #
face $8 1276 $-1 $9 $10 $6 $-1 $11 forward single #
ATTRIB_CUSTOM-attrib $-1 -1 $-1 $-1 $7 @22 generic_tag_attrib_def 3 3 -1 @23 generic_tag_attrib_def  1 4 @4 4528 0 1 -300 0 #
face $12 1277 $-1 $13 $14 $6 $-1 $15 forward single #
loop $-1 -1 $-1 $16 $17 $7 #
cone-surface $-1 -1 $-1 1.949999999999997069 10.5 1.500000000000003109 -1 -2.719262146893782111e-32 -4.440892098500626162e-16 1.554312234475217579e-16 -4.286263797015731665e-17 -0.3499999999999996447 1 I I 0 -1 0.3499999999999996447 forward I I I I #
ATTRIB_CUSTOM-attrib $-1 -1 $-1 $-1 $9 @22 generic_tag_attrib_def 3 3 -1 @23 generic_tag_attrib_def  1 4 @4 4527 0 1 -300 0 #
face $18 1278 $-1 $19 $20 $6 $-1 $21 forward single #
loop $-1 -1 $-1 $22 $23 $9 #
cone-surface $-1 -1 $-1 1.949999999999997069 10.5 -1.499999999999996891 -1 -2.719262146893782111e-32 -4.440892098500626162e-16 1.554312234475217579e-16 -4.286263797015731665e-17 -0.3499999999999996447 1 I I 0 -1 0.3499999999999996447 forward I I I I #
loop $-1 -1 $-1 $-1 $24 $7 #
coedge $-1 -1 $-1 $17 $17 $25 $26 reversed $10 0 $-1 #
ATTRIB_CUSTOM-attrib $-1 -1 $-1 $-1 $13 @22 generic_tag_attrib_def 3 3 -1 @23 generic_tag_attrib_def  1 4 @4 4526 0 1 -300 0 #
face $27 1279 $-1 $28 $29 $6 $-1 $30 forward single #
loop $-1 -1 $-1 $-1 $31 $13 #
plane-surface $-1 -1 $-1 1.950000000000000622 7.599999999999997868 -2.499999999999996891 -2.719262146893782111e-32 -1 1.224646799147353207e-16 -2.220446049250313081e-16 1.224646799147353207e-16 1 forward_v I I I I #
loop $-1 -1 $-1 $-1 $32 $9 #
coedge $-1 -1 $-1 $23 $23 $33 $34 reversed $14 0 $-1 #
coedge $35 -1 $-1 $24 $24 $36 $37 reversed $16 0 $-1 #
coedge $-1 -1 $-1 $25 $25 $17 $26 forward $38 0 $-1 #
edge $-1 1200 $-1 $39 -3.141592653589793116 $39 3.141592653589793116 $17 $40 forward @7 unknown #
ATTRIB_CUSTOM-attrib $-1 -1 $-1 $-1 $19 @22 generic_tag_attrib_def 3 3 -1 @23 generic_tag_attrib_def  1 4 @4 4525 0 1 -300 0 #
face $41 1280 $-1 $42 $43 $6 $-1 $44 forward single #
loop $-1 -1 $-1 $-1 $45 $19 #
plane-surface $-1 -1 $-1 1.950000000000000622 11.29999999999999716 -2.499999999999996891 4.440892098500626162e-16 -1.224646799147353207e-16 -1 -2.719262146893782111e-32 -1 1.224646799147353207e-16 forward_v I I I I #
coedge $46 -1 $-1 $47 $48 $49 $50 reversed $20 0 $-1 #
coedge $51 -1 $-1 $32 $32 $52 $53 reversed $22 0 $-1 #
coedge $-1 -1 $-1 $33 $33 $23 $34 forward $54 0 $-1 #
edge $-1 1202 $-1 $55 -3.141592653589793116 $55 3.141592653589793116 $23 $56 forward @7 unknown #
ATTRIB_CUSTOM-attrib $-1 -1 $-1 $-1 $24 @17 sketch_attrib_def 1 1 3 @13 482 0 0 0 1 1 #
coedge $57 -1 $-1 $36 $36 $24 $37 forward $58 0 $-1 #
edge $-1 1201 $-1 $59 -3.141592653589793116 $59 3.141592653589793116 $36 $60 forward @7 unknown #
loop $-1 -1 $-1 $-1 $25 $61 #
vertex $-1 1148 $-1 $26 2 $62 #
ellipse-curve $-1 -1 $-1 1.149999999999996358 10.5 1.500000000000003109 1 1.241576170546861775e-48 2.220446049250313081e-16 7.771561172376087894e-17 -4.286263797015731665e-17 -0.3499999999999996447 1 I I #
ATTRIB_CUSTOM-attrib $-1 -1 $-1 $-1 $28 @22 generic_tag_attrib_def 3 3 -1 @23 generic_tag_attrib_def  1 4 @4 4524 0 1 -300 0 #
face $63 1281 $-1 $64 $65 $6 $-1 $66 forward single #
loop $-1 -1 $-1 $-1 $67 $28 #
plane-surface $-1 -1 $-1 1.949999999999997069 11.30000000000000071 2.500000000000003109 2.638508930352413594e-31 1 -6.553717317348104651e-16 2.220446049250313081e-16 -6.553717317348104651e-16 -1 forward_v I I I I #
coedge $68 -1 $-1 $69 $70 $71 $72 reversed $29 0 $-1 #
ATTRIB_CUSTOM-attrib $-1 -1 $-1 $-1 $31 @17 sketch_attrib_def 1 1 3 @13 457 0 0 0 1 1 #
coedge $-1 -1 $-1 $73 $31 $74 $75 forward $20 0 $-1 #
coedge $-1 -1 $-1 $31 $73 $69 $76 reversed $20 0 $-1 #
coedge $77 -1 $-1 $71 $78 $31 $50 forward $79 0 $-1 #
edge $-1 1204 $-1 $80 0 $81 0.25 $49 $82 forward @7 unknown #
ATTRIB_CUSTOM-attrib $-1 -1 $-1 $-1 $32 @17 sketch_attrib_def 1 1 3 @13 481 0 0 0 1 1 #
coedge $83 -1 $-1 $52 $52 $32 $53 forward $84 0 $-1 #
edge $-1 1203 $-1 $85 -3.141592653589793116 $85 3.141592653589793116 $52 $86 forward @7 unknown #
loop $-1 -1 $-1 $38 $33 $61 #
vertex $-1 1150 $-1 $34 2 $87 #
ellipse-curve $-1 -1 $-1 1.149999999999998135 10.5 -1.499999999999996891 1 1.241576170546861775e-48 2.220446049250313081e-16 7.771561172376087894e-17 -4.286263797015731665e-17 -0.3499999999999996447 1 I I #
ATTRIB_CUSTOM-attrib $-1 -1 $-1 $-1 $36 @17 sketch_attrib_def 1 1 3 @13 482 0 0 0 1 1 #
loop $-1 -1 $-1 $-1 $36 $88 #
vertex $-1 1149 $-1 $37 0 $89 #
ellipse-curve $-1 -1 $-1 1.949999999999997069 10.5 1.500000000000003109 -1 -1.241576170546861775e-48 -2.220446049250313081e-16 7.771561172376087894e-17 -4.286263797015731665e-17 -0.3499999999999996447 1 I I #
face $90 1303 $-1 $-1 $91 $6 $-1 $92 reversed single #
point $-1 -1 $-1 1.149999999999996358 10.5 1.850000000000000977 #
ATTRIB_CUSTOM-attrib $-1 -1 $-1 $-1 $42 @22 generic_tag_attrib_def 3 3 -1 @23 generic_tag_attrib_def  1 4 @4 4523 0 1 -300 0 #
face $93 1282 $-1 $94 $95 $6 $-1 $96 forward single #
loop $-1 -1 $-1 $-1 $97 $42 #
plane-surface $-1 -1 $-1 1.949999999999997069 7.599999999999999645 2.500000000000003109 -4.440892098500626162e-16 1.224646799147353207e-16 1 2.719262146893782111e-32 1 -1.224646799147353207e-16 forward_v I I I I #
coedge $98 -1 $-1 $99 $100 $101 $102 reversed $43 0 $-1 #
ATTRIB_CUSTOM-attrib $-1 -1 $-1 $-1 $45 @17 sketch_attrib_def 1 1 3 @13 458 0 0 0 1 1 #
coedge $-1 -1 $-1 $103 $45 $48 $76 forward $29 0 $-1 #
coedge $-1 -1 $-1 $45 $103 $99 $104 reversed $29 0 $-1 #
coedge $105 -1 $-1 $101 $49 $45 $72 forward $79 0 $-1 #
edge $-1 1208 $-1 $81 0 $106 3.699999999999997513 $71 $107 forward @7 unknown #
coedge $-1 -1 $-1 $48 $47 $108 $109 reversed $20 0 $-1 #
coedge $-1 -1 $-1 $110 $111 $47 $75 reversed $112 0 $-1 #
edge $-1 1205 $-1 $80 0 $113 0.8000000000000007105 $74 $114 forward @7 unknown #
edge $-1 1207 $-1 $81 0 $115 0.8000000000000007105 $69 $116 forward @7 unknown #
ATTRIB_CUSTOM-attrib $-1 -1 $-1 $-1 $49 @17 sketch_attrib_def 1 1 3 @13 457 0 0 0 1 1 #
coedge $117 -1 $-1 $49 $118 $110 $119 forward $79 0 $-1 #
loop $-1 -1 $-1 $84 $78 $88 #
vertex $-1 1153 $-1 $119 1 $120 #
vertex $-1 1152 $-1 $50 1 $121 #
straight-curve $-1 -1 $-1 1.950000000000000622 7.599999999999997868 -2.249999999999996891 2.220446049250313081e-16 -1.224646799147353207e-16 -1 F 0 F 0.25 #
ATTRIB_CUSTOM-attrib $-1 -1 $-1 $-1 $52 @17 sketch_attrib_def 1 1 3 @13 481 0 0 0 1 1 #
loop $-1 -1 $-1 $58 $52 $88 #
vertex $-1 1151 $-1 $53 0 $122 #
ellipse-curve $-1 -1 $-1 1.949999999999997069 10.5 -1.499999999999996891 -1 -1.241576170546861775e-48 -2.220446049250313081e-16 7.771561172376087894e-17 -4.286263797015731665e-17 -0.3499999999999996447 1 I I #
point $-1 -1 $-1 1.149999999999998135 10.5 -1.149999999999999023 #
face $123 1302 $-1 $61 $79 $6 $-1 $124 forward single #
point $-1 -1 $-1 1.949999999999997069 10.5 1.850000000000000977 #
ATTRIB_CUSTOM-attrib $-1 -1 $-1 $-1 $61 @22 generic_tag_attrib_def 3 3 -1 @23 generic_tag_attrib_def  1 4 @4 4502 0 1 -300 0 #
loop $-1 -1 $-1 $54 $125 $61 #
plane-surface $-1 -1 $-1 1.149999999999998135 9.449999999999999289 3.108624468950438313e-15 1 1.241576170546861775e-48 2.220446049250313081e-16 -2.220446049250313081e-16 1.224646799147353207e-16 1 forward_v I I I I #
ATTRIB_CUSTOM-attrib $-1 -1 $-1 $-1 $64 @22 generic_tag_attrib_def 3 3 -1 @23 generic_tag_attrib_def  1 4 @4 4522 0 1 -300 0 #
face $126 1283 $-1 $127 $128 $6 $-1 $129 forward single #
loop $-1 -1 $-1 $-1 $130 $64 #
plane-surface $-1 -1 $-1 1.949999999999997069 7.599999999999999645 2.250000000000003109 -2.719262146893782111e-32 -1 1.224646799147353207e-16 -2.220446049250313081e-16 1.224646799147353207e-16 1 forward_v I I I I #
coedge $131 -1 $-1 $132 $133 $134 $135 reversed $65 0 $-1 #
ATTRIB_CUSTOM-attrib $-1 -1 $-1 $-1 $67 @17 sketch_attrib_def 1 1 3 @13 459 0 0 0 1 1 #
coedge $-1 -1 $-1 $136 $67 $70 $104 forward $43 0 $-1 #
coedge $-1 -1 $-1 $67 $136 $132 $137 reversed $43 0 $-1 #
coedge $138 -1 $-1 $134 $71 $67 $102 forward $79 0 $-1 #
edge $-1 1211 $-1 $106 0 $139 5 $101 $140 forward @7 unknown #
coedge $-1 -1 $-1 $70 $69 $141 $142 reversed $29 0 $-1 #
edge $-1 1210 $-1 $106 0 $143 0.8000000000000007105 $99 $144 forward @7 unknown #
ATTRIB_CUSTOM-attrib $-1 -1 $-1 $-1 $71 @17 sketch_attrib_def 1 1 3 @13 458 0 0 0 1 1 #
vertex $-1 1156 $-1 $72 1 $145 #
straight-curve $-1 -1 $-1 1.950000000000000622 7.599999999999997868 -2.499999999999996891 2.719262146893782111e-32 1 -1.224646799147353207e-16 F 0 F 3.699999999999997513 #
coedge $-1 -1 $-1 $125 $141 $73 $109 forward $91 0 $-1 #
edge $-1 1206 $-1 $115 -0.25 $113 -0 $73 $146 forward @7 unknown #
coedge $147 -1 $-1 $148 $74 $78 $119 reversed $112 0 $-1 #
coedge $-1 -1 $-1 $74 $148 $125 $149 reversed $112 0 $-1 #
loop $-1 -1 $-1 $-1 $110 $150 #
vertex $-1 1154 $-1 $75 1 $151 #
straight-curve $-1 -1 $-1 1.950000000000000622 7.599999999999997868 -2.249999999999996891 -1 -2.719262146893782111e-32 -4.440892098500626162e-16 I I #
vertex $-1 1155 $-1 $76 1 $152 #
straight-curve $-1 -1 $-1 1.950000000000000622 7.599999999999997868 -2.499999999999996891 -1 -2.719262146893782111e-32 -4.440892098500626162e-16 I I #
ATTRIB_CUSTOM-attrib $-1 -1 $-1 $-1 $78 @17 sketch_attrib_def 1 1 3 @13 480 0 0 0 1 1 #
coedge $153 -1 $-1 $78 $154 $155 $156 forward $79 0 $-1 #
edge $-1 1274 $-1 $157 0 $80 0.2999999999999998224 $78 $158 forward @7 unknown #
point $-1 -1 $-1 1.950000000000000622 7.599999999999997868 -2.249999999999996891 #
point $-1 -1 $-1 1.950000000000000622 7.599999999999997868 -2.499999999999996891 #
point $-1 -1 $-1 1.949999999999997069 10.5 -1.149999999999999023 #
ATTRIB_CUSTOM-attrib $-1 -1 $-1 $-1 $88 @22 generic_tag_attrib_def 3 3 -1 @23 generic_tag_attrib_def  1 4 @4 4501 0 1 -300 0 #
plane-surface $-1 -1 $-1 1.949999999999997069 9.449999999999999289 3.108624468950438313e-15 1 1.241576170546861775e-48 2.220446049250313081e-16 -2.220446049250313081e-16 1.224646799147353207e-16 1 forward_v I I I I #
coedge $-1 -1 $-1 $159 $108 $111 $149 forward $91 0 $-1 #
ATTRIB_CUSTOM-attrib $-1 -1 $-1 $-1 $94 @22 generic_tag_attrib_def 3 3 -1 @23 generic_tag_attrib_def  1 4 @4 4521 0 1 -300 0 #
face $160 1284 $-1 $161 $162 $6 $-1 $163 forward single #
loop $-1 -1 $-1 $-1 $164 $94 #
plane-surface $-1 -1 $-1 1.949999999999997069 7.899999999999998579 2.250000000000003109 4.440892098500626162e-16 -1.224646799147353207e-16 -1 -2.719262146893782111e-32 -1 1.224646799147353207e-16 forward_v I I I I #
coedge $165 -1 $-1 $166 $167 $168 $169 reversed $95 0 $-1 #
ATTRIB_CUSTOM-attrib $-1 -1 $-1 $-1 $97 @17 sketch_attrib_def 1 1 3 @13 460 0 0 0 1 1 #
coedge $-1 -1 $-1 $170 $97 $100 $137 forward $65 0 $-1 #
coedge $-1 -1 $-1 $97 $170 $166 $171 reversed $65 0 $-1 #
coedge $172 -1 $-1 $168 $101 $97 $135 forward $79 0 $-1 #
edge $-1 1214 $-1 $139 0 $173 3.700000000000000178 $134 $174 forward @7 unknown #
coedge $-1 -1 $-1 $100 $99 $175 $176 reversed $43 0 $-1 #
edge $-1 1213 $-1 $139 0 $177 0.8000000000000007105 $132 $178 forward @7 unknown #
ATTRIB_CUSTOM-attrib $-1 -1 $-1 $-1 $101 @17 sketch_attrib_def 1 1 3 @13 459 0 0 0 1 1 #
vertex $-1 1158 $-1 $102 1 $179 #
straight-curve $-1 -1 $-1 1.950000000000000622 11.29999999999999716 -2.499999999999996891 -2.220446049250313081e-16 6.553717317348104651e-16 1 F 0 F 5 #
coedge $-1 -1 $-1 $108 $175 $103 $142 forward $91 0 $-1 #
edge $-1 1209 $-1 $143 -3.699999999999997513 $115 -0 $103 $180 forward @7 unknown #
vertex $-1 1157 $-1 $104 1 $181 #
straight-curve $-1 -1 $-1 1.950000000000000622 11.29999999999999716 -2.499999999999996891 -1 -2.719262146893782111e-32 -4.440892098500626162e-16 I I #
point $-1 -1 $-1 1.950000000000000622 11.29999999999999716 -2.499999999999996891 #
straight-curve $-1 -1 $-1 1.149999999999998135 7.599999999999997868 -2.249999999999996891 -2.220446049250313081e-16 1.224646799147353207e-16 1 I I #
ATTRIB_CUSTOM-attrib $-1 -1 $-1 $-1 $110 @17 sketch_attrib_def 1 1 3 @13 480 0 0 0 1 1 #
coedge $-1 -1 $-1 $111 $110 $182 $183 forward $112 0 $-1 #
edge $-1 1275 $-1 $113 -0.2999999999999998224 $184 -0 $111 $185 forward @7 unknown #
face $186 1301 $-1 $88 $112 $6 $-1 $187 forward single #
point $-1 -1 $-1 1.149999999999998135 7.599999999999997868 -2.249999999999996891 #
point $-1 -1 $-1 1.149999999999998135 7.599999999999997868 -2.499999999999996891 #
ATTRIB_CUSTOM-attrib $-1 -1 $-1 $-1 $118 @17 sketch_attrib_def 1 1 3 @13 479 0 0 0 1 1 #
coedge $188 -1 $-1 $118 $189 $190 $191 forward $79 0 $-1 #
coedge $192 -1 $-1 $193 $182 $118 $156 reversed $194 0 $-1 #
edge $-1 1271 $-1 $195 0 $157 0.4499999999999992895 $118 $196 forward @7 unknown #
vertex $-1 1198 $-1 $119 0 $197 #
straight-curve $-1 -1 $-1 1.950000000000000622 7.899999999999998579 -2.249999999999996891 -2.719262146893782111e-32 -1 1.224646799147353207e-16 F 0 F 0.2999999999999998224 #
coedge $-1 -1 $-1 $198 $125 $199 $200 forward $91 0 $-1 #
ATTRIB_CUSTOM-attrib $-1 -1 $-1 $-1 $127 @22 generic_tag_attrib_def 3 3 -1 @23 generic_tag_attrib_def  1 4 @4 4520 0 1 -300 0 #
face $201 1285 $-1 $202 $203 $6 $-1 $204 forward single #
loop $-1 -1 $-1 $-1 $205 $127 #
plane-surface $-1 -1 $-1 1.949999999999997069 7.899999999999998579 1.800000000000003819 -2.719262146893782111e-32 -1 1.224646799147353207e-16 -2.220446049250313081e-16 1.224646799147353207e-16 1 forward_v I I I I #
coedge $206 -1 $-1 $207 $208 $209 $210 reversed $128 0 $-1 #
ATTRIB_CUSTOM-attrib $-1 -1 $-1 $-1 $130 @17 sketch_attrib_def 1 1 3 @13 461 0 0 0 1 1 #
coedge $-1 -1 $-1 $211 $130 $133 $171 forward $95 0 $-1 #
coedge $-1 -1 $-1 $130 $211 $207 $212 reversed $95 0 $-1 #
coedge $213 -1 $-1 $209 $134 $130 $169 forward $79 0 $-1 #
edge $-1 1217 $-1 $173 0 $214 0.25 $168 $215 forward @7 unknown #
coedge $-1 -1 $-1 $133 $132 $216 $217 reversed $65 0 $-1 #
edge $-1 1216 $-1 $173 0 $218 0.8000000000000007105 $166 $219 forward @7 unknown #
ATTRIB_CUSTOM-attrib $-1 -1 $-1 $-1 $134 @17 sketch_attrib_def 1 1 3 @13 460 0 0 0 1 1 #
vertex $-1 1160 $-1 $135 1 $220 #
straight-curve $-1 -1 $-1 1.949999999999997069 11.30000000000000071 2.500000000000003109 -2.719262146893782111e-32 -1 1.224646799147353207e-16 F 0 F 3.700000000000000178 #
coedge $-1 -1 $-1 $141 $216 $136 $176 forward $91 0 $-1 #
edge $-1 1212 $-1 $177 -5 $143 -0 $136 $221 forward @7 unknown #
vertex $-1 1159 $-1 $137 1 $222 #
straight-curve $-1 -1 $-1 1.949999999999997069 11.30000000000000071 2.500000000000003109 -1 -2.719262146893782111e-32 -4.440892098500626162e-16 I I #
point $-1 -1 $-1 1.949999999999997069 11.30000000000000071 2.500000000000003109 #
straight-curve $-1 -1 $-1 1.149999999999998135 7.599999999999997868 -2.499999999999996891 -2.719262146893782111e-32 -1 1.224646799147353207e-16 I I #
point $-1 -1 $-1 1.149999999999998135 11.29999999999999716 -2.499999999999996891 #
coedge $-1 -1 $-1 $155 $199 $148 $183 reversed $194 0 $-1 #
edge $-1 1273 $-1 $157 0 $184 0.8000000000000007105 $148 $223 forward @7 unknown #
vertex $-1 1199 $-1 $183 1 $224 #
straight-curve $-1 -1 $-1 1.149999999999998135 7.899999999999998579 -2.249999999999996891 2.719262146893782111e-32 1 -1.224646799147353207e-16 I I #
ATTRIB_CUSTOM-attrib $-1 -1 $-1 $-1 $150 @22 generic_tag_attrib_def 3 3 -1 @23 generic_tag_attrib_def  1 4 @4 4503 0 1 -300 0 #
plane-surface $-1 -1 $-1 1.950000000000000622 7.599999999999997868 -2.249999999999996891 -4.440892098500626162e-16 1.224646799147353207e-16 1 2.719262146893782111e-32 1 -1.224646799147353207e-16 forward_v I I I I #
ATTRIB_CUSTOM-attrib $-1 -1 $-1 $-1 $154 @17 sketch_attrib_def 1 1 3 @13 478 0 0 0 1 1 #
coedge $225 -1 $-1 $154 $226 $227 $228 forward $79 0 $-1 #
coedge $229 -1 $-1 $230 $231 $154 $191 reversed $232 0 $-1 #
edge $-1 1268 $-1 $233 0 $195 0.3000000000000002665 $154 $234 forward @7 unknown #
ATTRIB_CUSTOM-attrib $-1 -1 $-1 $-1 $155 @17 sketch_attrib_def 1 1 3 @13 479 0 0 0 1 1 #
coedge $-1 -1 $-1 $199 $155 $231 $235 forward $194 0 $-1 #
loop $-1 -1 $-1 $-1 $155 $236 #
vertex $-1 1196 $-1 $191 1 $237 #
straight-curve $-1 -1 $-1 1.950000000000000622 7.899999999999998579 -1.799999999999997602 2.220446049250313081e-16 -1.224646799147353207e-16 -1 F 0 F 0.4499999999999992895 #
point $-1 -1 $-1 1.950000000000000622 7.899999999999998579 -2.249999999999996891 #
coedge $-1 -1 $-1 $238 $159 $239 $240 forward $91 0 $-1 #
coedge $-1 -1 $-1 $182 $193 $159 $200 reversed $194 0 $-1 #
edge $-1 1272 $-1 $184 -0.4499999999999992895 $241 -0 $199 $242 forward @7 unknown #
ATTRIB_CUSTOM-attrib $-1 -1 $-1 $-1 $161 @22 generic_tag_attrib_def 3 3 -1 @23 generic_tag_attrib_def  1 4 @4 4519 0 1 -300 0 #
face $243 1286 $-1 $244 $245 $6 $-1 $246 forward single #
loop $-1 -1 $-1 $-1 $247 $161 #
plane-surface $-1 -1 $-1 1.949999999999997069 8.199999999999999289 1.800000000000003819 4.440892098500626162e-16 -1.224646799147353207e-16 -1 -2.719262146893782111e-32 -1 1.224646799147353207e-16 forward_v I I I I #
coedge $248 -1 $-1 $249 $250 $251 $252 reversed $162 0 $-1 #
ATTRIB_CUSTOM-attrib $-1 -1 $-1 $-1 $164 @17 sketch_attrib_def 1 1 3 @13 462 0 0 0 1 1 #
coedge $-1 -1 $-1 $253 $164 $167 $212 forward $128 0 $-1 #
coedge $-1 -1 $-1 $164 $253 $249 $254 reversed $128 0 $-1 #
coedge $255 -1 $-1 $251 $168 $164 $210 forward $79 0 $-1 #
edge $-1 1220 $-1 $214 0 $256 0.2999999999999998224 $209 $257 forward @7 unknown #
coedge $-1 -1 $-1 $167 $166 $258 $259 reversed $95 0 $-1 #
edge $-1 1219 $-1 $214 0 $260 0.8000000000000007105 $207 $261 forward @7 unknown #
ATTRIB_CUSTOM-attrib $-1 -1 $-1 $-1 $168 @17 sketch_attrib_def 1 1 3 @13 461 0 0 0 1 1 #
vertex $-1 1162 $-1 $169 1 $262 #
straight-curve $-1 -1 $-1 1.949999999999997069 7.599999999999999645 2.500000000000003109 2.220446049250313081e-16 -1.224646799147353207e-16 -1 F 0 F 0.25 #
coedge $-1 -1 $-1 $175 $258 $170 $217 forward $91 0 $-1 #
edge $-1 1215 $-1 $218 -3.700000000000000178 $177 -0 $170 $263 forward @7 unknown #
vertex $-1 1161 $-1 $171 1 $264 #
straight-curve $-1 -1 $-1 1.949999999999997069 7.599999999999999645 2.500000000000003109 -1 -2.719262146893782111e-32 -4.440892098500626162e-16 I I #
point $-1 -1 $-1 1.949999999999997069 7.599999999999999645 2.500000000000003109 #
straight-curve $-1 -1 $-1 1.149999999999998135 11.29999999999999716 -2.499999999999996891 2.220446049250313081e-16 -6.553717317348104651e-16 -1 I I #
point $-1 -1 $-1 1.149999999999996358 11.30000000000000071 2.500000000000003109 #
straight-curve $-1 -1 $-1 1.950000000000000622 7.899999999999998579 -2.249999999999996891 -1 -2.719262146893782111e-32 -4.440892098500626162e-16 I I #
point $-1 -1 $-1 1.149999999999998135 7.899999999999998579 -2.249999999999996891 #
ATTRIB_CUSTOM-attrib $-1 -1 $-1 $-1 $189 @17 sketch_attrib_def 1 1 3 @13 477 0 0 0 1 1 #
coedge $265 -1 $-1 $189 $266 $267 $268 forward $79 0 $-1 #
coedge $269 -1 $-1 $270 $271 $189 $228 reversed $272 0 $-1 #
edge $-1 1265 $-1 $273 0 $233 0.4499999999999992895 $189 $274 forward @7 unknown #
ATTRIB_CUSTOM-attrib $-1 -1 $-1 $-1 $190 @17 sketch_attrib_def 1 1 3 @13 478 0 0 0 1 1 #
coedge $-1 -1 $-1 $239 $190 $271 $275 forward $232 0 $-1 #
coedge $-1 -1 $-1 $190 $239 $193 $235 reversed $232 0 $-1 #
loop $-1 -1 $-1 $-1 $190 $276 #
vertex $-1 1194 $-1 $228 1 $277 #
straight-curve $-1 -1 $-1 1.950000000000000622 8.199999999999999289 -1.799999999999997602 -2.719262146893782111e-32 -1 1.224646799147353207e-16 F 0 F 0.3000000000000002665 #
edge $-1 1270 $-1 $195 0 $241 0.8000000000000007105 $193 $278 forward @7 unknown #
face $279 1300 $-1 $150 $194 $6 $-1 $280 forward single #
point $-1 -1 $-1 1.950000000000000622 7.899999999999998579 -1.799999999999997602 #
coedge $-1 -1 $-1 $281 $198 $282 $283 forward $91 0 $-1 #
coedge $-1 -1 $-1 $231 $230 $198 $240 reversed $232 0 $-1 #
edge $-1 1269 $-1 $241 -0.3000000000000002665 $284 -0 $239 $285 forward @7 unknown #
vertex $-1 1197 $-1 $235 1 $286 #
straight-curve $-1 -1 $-1 1.149999999999998135 7.899999999999998579 -1.799999999999997602 -2.220446049250313081e-16 1.224646799147353207e-16 1 I I #
ATTRIB_CUSTOM-attrib $-1 -1 $-1 $-1 $202 @22 generic_tag_attrib_def 3 3 -1 @23 generic_tag_attrib_def  1 4 @4 4518 0 1 -300 0 #
face $287 1287 $-1 $288 $289 $6 $-1 $290 forward single #
loop $-1 -1 $-1 $-1 $291 $202 #
plane-surface $-1 -1 $-1 1.949999999999997069 8.199999999999999289 1.35000000000000453 -2.719262146893782111e-32 -1 1.224646799147353207e-16 -2.220446049250313081e-16 1.224646799147353207e-16 1 forward_v I I I I #
coedge $292 -1 $-1 $293 $294 $295 $296 reversed $203 0 $-1 #
ATTRIB_CUSTOM-attrib $-1 -1 $-1 $-1 $205 @17 sketch_attrib_def 1 1 3 @13 463 0 0 0 1 1 #
coedge $-1 -1 $-1 $297 $205 $208 $254 forward $162 0 $-1 #
coedge $-1 -1 $-1 $205 $297 $293 $298 reversed $162 0 $-1 #
coedge $299 -1 $-1 $295 $209 $205 $252 forward $79 0 $-1 #
edge $-1 1223 $-1 $256 0 $300 0.4499999999999992895 $251 $301 forward @7 unknown #
coedge $-1 -1 $-1 $208 $207 $302 $303 reversed $128 0 $-1 #
edge $-1 1222 $-1 $256 0 $304 0.8000000000000007105 $249 $305 forward @7 unknown #
ATTRIB_CUSTOM-attrib $-1 -1 $-1 $-1 $209 @17 sketch_attrib_def 1 1 3 @13 462 0 0 0 1 1 #
vertex $-1 1164 $-1 $210 1 $306 #
straight-curve $-1 -1 $-1 1.949999999999997069 7.599999999999999645 2.250000000000003109 2.719262146893782111e-32 1 -1.224646799147353207e-16 F 0 F 0.2999999999999998224 #
coedge $-1 -1 $-1 $216 $302 $211 $259 forward $91 0 $-1 #
edge $-1 1218 $-1 $260 -0.25 $218 -0 $211 $307 forward @7 unknown #
vertex $-1 1163 $-1 $212 1 $308 #
straight-curve $-1 -1 $-1 1.949999999999997069 7.599999999999999645 2.250000000000003109 -1 -2.719262146893782111e-32 -4.440892098500626162e-16 I I #
point $-1 -1 $-1 1.949999999999997069 7.599999999999999645 2.250000000000003109 #
straight-curve $-1 -1 $-1 1.149999999999996358 11.30000000000000071 2.500000000000003109 2.719262146893782111e-32 1 -1.224646799147353207e-16 I I #
point $-1 -1 $-1 1.149999999999996358 7.599999999999999645 2.500000000000003109 #
ATTRIB_CUSTOM-attrib $-1 -1 $-1 $-1 $226 @17 sketch_attrib_def 1 1 3 @13 476 0 0 0 1 1 #
coedge $309 -1 $-1 $226 $310 $311 $312 forward $79 0 $-1 #
coedge $313 -1 $-1 $314 $315 $226 $268 reversed $316 0 $-1 #
edge $-1 1262 $-1 $317 0 $273 0.2999999999999998224 $226 $318 forward @7 unknown #
ATTRIB_CUSTOM-attrib $-1 -1 $-1 $-1 $227 @17 sketch_attrib_def 1 1 3 @13 477 0 0 0 1 1 #
coedge $-1 -1 $-1 $282 $227 $315 $319 forward $272 0 $-1 #
coedge $-1 -1 $-1 $227 $282 $230 $275 reversed $272 0 $-1 #
loop $-1 -1 $-1 $-1 $227 $320 #
vertex $-1 1192 $-1 $268 1 $321 #
straight-curve $-1 -1 $-1 1.949999999999997069 8.199999999999999289 -1.349999999999998312 2.220446049250313081e-16 -1.224646799147353207e-16 -1 F 0 F 0.4499999999999992895 #
edge $-1 1267 $-1 $233 0 $284 0.8000000000000007105 $230 $322 forward @7 unknown #
face $323 1299 $-1 $236 $232 $6 $-1 $324 forward single #
point $-1 -1 $-1 1.950000000000000622 8.199999999999999289 -1.799999999999997602 #
straight-curve $-1 -1 $-1 1.950000000000000622 7.899999999999998579 -1.799999999999997602 -1 -2.719262146893782111e-32 -4.440892098500626162e-16 I I #
ATTRIB_CUSTOM-attrib $-1 -1 $-1 $-1 $236 @22 generic_tag_attrib_def 3 3 -1 @23 generic_tag_attrib_def  1 4 @4 4504 0 1 -300 0 #
plane-surface $-1 -1 $-1 1.950000000000000622 7.899999999999998579 -2.249999999999996891 -2.719262146893782111e-32 -1 1.224646799147353207e-16 -2.220446049250313081e-16 1.224646799147353207e-16 1 forward_v I I I I #
coedge $-1 -1 $-1 $325 $238 $326 $327 forward $91 0 $-1 #
coedge $-1 -1 $-1 $271 $270 $238 $283 reversed $272 0 $-1 #
edge $-1 1266 $-1 $284 -0.4499999999999992895 $328 -0 $282 $329 forward @7 unknown #
vertex $-1 1195 $-1 $275 1 $330 #
straight-curve $-1 -1 $-1 1.149999999999998135 8.199999999999999289 -1.799999999999997602 2.719262146893782111e-32 1 -1.224646799147353207e-16 I I #
point $-1 -1 $-1 1.149999999999998135 7.899999999999998579 -1.799999999999997602 #
ATTRIB_CUSTOM-attrib $-1 -1 $-1 $-1 $244 @22 generic_tag_attrib_def 3 3 -1 @23 generic_tag_attrib_def  1 4 @4 4517 0 1 -300 0 #
face $331 1288 $-1 $332 $333 $6 $-1 $334 forward single #
loop $-1 -1 $-1 $-1 $335 $244 #
plane-surface $-1 -1 $-1 1.949999999999997069 8.5 1.35000000000000453 4.440892098500626162e-16 -1.224646799147353207e-16 -1 -2.719262146893782111e-32 -1 1.224646799147353207e-16 forward_v I I I I #
coedge $336 -1 $-1 $337 $338 $339 $340 reversed $245 0 $-1 #
ATTRIB_CUSTOM-attrib $-1 -1 $-1 $-1 $247 @17 sketch_attrib_def 1 1 3 @13 464 0 0 0 1 1 #
coedge $-1 -1 $-1 $341 $247 $250 $298 forward $203 0 $-1 #
coedge $-1 -1 $-1 $247 $341 $337 $342 reversed $203 0 $-1 #
coedge $343 -1 $-1 $339 $251 $247 $296 forward $79 0 $-1 #
edge $-1 1226 $-1 $300 0 $344 0.3000000000000002665 $295 $345 forward @7 unknown #
coedge $-1 -1 $-1 $250 $249 $346 $347 reversed $162 0 $-1 #
edge $-1 1225 $-1 $300 0 $348 0.8000000000000007105 $293 $349 forward @7 unknown #
ATTRIB_CUSTOM-attrib $-1 -1 $-1 $-1 $251 @17 sketch_attrib_def 1 1 3 @13 463 0 0 0 1 1 #
vertex $-1 1166 $-1 $252 1 $350 #
straight-curve $-1 -1 $-1 1.949999999999997069 7.899999999999998579 2.250000000000003109 2.220446049250313081e-16 -1.224646799147353207e-16 -1 F 0 F 0.4499999999999992895 #
coedge $-1 -1 $-1 $258 $346 $253 $303 forward $91 0 $-1 #
edge $-1 1221 $-1 $304 -0.2999999999999998224 $260 -0 $253 $351 forward @7 unknown #
vertex $-1 1165 $-1 $254 1 $352 #
straight-curve $-1 -1 $-1 1.949999999999997069 7.899999999999998579 2.250000000000003109 -1 -2.719262146893782111e-32 -4.440892098500626162e-16 I I #
point $-1 -1 $-1 1.949999999999997069 7.899999999999998579 2.250000000000003109 #
straight-curve $-1 -1 $-1 1.149999999999996358 7.599999999999999645 2.500000000000003109 -2.220446049250313081e-16 1.224646799147353207e-16 1 I I #
point $-1 -1 $-1 1.149999999999996358 7.599999999999999645 2.250000000000003109 #
ATTRIB_CUSTOM-attrib $-1 -1 $-1 $-1 $266 @17 sketch_attrib_def 1 1 3 @13 475 0 0 0 1 1 #
coedge $353 -1 $-1 $266 $354 $355 $356 forward $79 0 $-1 #
coedge $357 -1 $-1 $358 $359 $266 $312 reversed $360 0 $-1 #
edge $-1 1259 $-1 $361 0 $317 0.4500000000000028422 $266 $362 forward @7 unknown #
ATTRIB_CUSTOM-attrib $-1 -1 $-1 $-1 $267 @17 sketch_attrib_def 1 1 3 @13 476 0 0 0 1 1 #
coedge $-1 -1 $-1 $326 $267 $359 $363 forward $316 0 $-1 #
coedge $-1 -1 $-1 $267 $326 $270 $319 reversed $316 0 $-1 #
loop $-1 -1 $-1 $-1 $267 $364 #
vertex $-1 1190 $-1 $312 1 $365 #
straight-curve $-1 -1 $-1 1.949999999999997069 8.499999999999998224 -1.349999999999998312 -2.719262146893782111e-32 -1 1.224646799147353207e-16 F 0 F 0.2999999999999998224 #
edge $-1 1264 $-1 $273 0 $328 0.8000000000000007105 $270 $366 forward @7 unknown #
face $367 1298 $-1 $276 $272 $6 $-1 $368 forward single #
point $-1 -1 $-1 1.949999999999997069 8.199999999999999289 -1.349999999999998312 #
straight-curve $-1 -1 $-1 1.950000000000000622 8.199999999999999289 -1.799999999999997602 -1 -2.719262146893782111e-32 -4.440892098500626162e-16 I I #
ATTRIB_CUSTOM-attrib $-1 -1 $-1 $-1 $276 @22 generic_tag_attrib_def 3 3 -1 @23 generic_tag_attrib_def  1 4 @4 4505 0 1 -300 0 #
plane-surface $-1 -1 $-1 1.950000000000000622 7.899999999999998579 -1.799999999999997602 -4.440892098500626162e-16 1.224646799147353207e-16 1 2.719262146893782111e-32 1 -1.224646799147353207e-16 forward_v I I I I #
coedge $-1 -1 $-1 $369 $281 $370 $371 forward $91 0 $-1 #
coedge $-1 -1 $-1 $315 $314 $281 $327 reversed $316 0 $-1 #
edge $-1 1263 $-1 $328 -0.2999999999999998224 $372 -0 $326 $373 forward @7 unknown #
vertex $-1 1193 $-1 $319 1 $374 #
straight-curve $-1 -1 $-1 1.149999999999998135 8.199999999999999289 -1.349999999999998312 -2.220446049250313081e-16 1.224646799147353207e-16 1 I I #
point $-1 -1 $-1 1.149999999999998135 8.199999999999999289 -1.799999999999997602 #
ATTRIB_CUSTOM-attrib $-1 -1 $-1 $-1 $288 @22 generic_tag_attrib_def 3 3 -1 @23 generic_tag_attrib_def  1 4 @4 4516 0 1 -300 0 #
face $375 1289 $-1 $376 $377 $6 $-1 $378 forward single #
loop $-1 -1 $-1 $-1 $379 $288 #
plane-surface $-1 -1 $-1 1.949999999999997069 8.5 0.9000000000000016875 -2.719262146893782111e-32 -1 1.224646799147353207e-16 -2.220446049250313081e-16 1.224646799147353207e-16 1 forward_v I I I I #
coedge $380 -1 $-1 $381 $382 $383 $384 reversed $289 0 $-1 #
ATTRIB_CUSTOM-attrib $-1 -1 $-1 $-1 $291 @17 sketch_attrib_def 1 1 3 @13 465 0 0 0 1 1 #
coedge $-1 -1 $-1 $385 $291 $294 $342 forward $245 0 $-1 #
coedge $-1 -1 $-1 $291 $385 $381 $386 reversed $245 0 $-1 #
coedge $387 -1 $-1 $383 $295 $291 $340 forward $79 0 $-1 #
edge $-1 1229 $-1 $344 0 $388 0.4499999999999992895 $339 $389 forward @7 unknown #
coedge $-1 -1 $-1 $294 $293 $390 $391 reversed $203 0 $-1 #
edge $-1 1228 $-1 $344 0 $392 0.8000000000000007105 $337 $393 forward @7 unknown #
ATTRIB_CUSTOM-attrib $-1 -1 $-1 $-1 $295 @17 sketch_attrib_def 1 1 3 @13 464 0 0 0 1 1 #
vertex $-1 1168 $-1 $296 1 $394 #
straight-curve $-1 -1 $-1 1.949999999999997069 7.899999999999998579 1.800000000000003819 2.719262146893782111e-32 1 -1.224646799147353207e-16 F 0 F 0.3000000000000002665 #
coedge $-1 -1 $-1 $302 $390 $297 $347 forward $91 0 $-1 #
edge $-1 1224 $-1 $348 -0.4499999999999992895 $304 -0 $297 $395 forward @7 unknown #
vertex $-1 1167 $-1 $298 1 $396 #
straight-curve $-1 -1 $-1 1.949999999999997069 7.899999999999998579 1.800000000000003819 -1 -2.719262146893782111e-32 -4.440892098500626162e-16 I I #
point $-1 -1 $-1 1.949999999999997069 7.899999999999998579 1.800000000000003819 #
straight-curve $-1 -1 $-1 1.149999999999996358 7.599999999999999645 2.250000000000003109 -2.719262146893782111e-32 -1 1.224646799147353207e-16 I I #
point $-1 -1 $-1 1.149999999999996358 7.899999999999998579 2.250000000000003109 #
ATTRIB_CUSTOM-attrib $-1 -1 $-1 $-1 $310 @17 sketch_attrib_def 1 1 3 @13 474 0 0 0 1 1 #
coedge $397 -1 $-1 $310 $398 $399 $400 forward $79 0 $-1 #
coedge $401 -1 $-1 $402 $403 $310 $356 reversed $404 0 $-1 #
edge $-1 1256 $-1 $405 0 $361 0.3000000000000002665 $310 $406 forward @7 unknown #
ATTRIB_CUSTOM-attrib $-1 -1 $-1 $-1 $311 @17 sketch_attrib_def 1 1 3 @13 475 0 0 0 1 1 #
coedge $-1 -1 $-1 $370 $311 $403 $407 forward $360 0 $-1 #
coedge $-1 -1 $-1 $311 $370 $314 $363 reversed $360 0 $-1 #
loop $-1 -1 $-1 $-1 $311 $408 #
vertex $-1 1188 $-1 $356 1 $409 #
straight-curve $-1 -1 $-1 1.949999999999997069 8.499999999999998224 -0.8999999999999954703 2.220446049250313081e-16 -1.224646799147353207e-16 -1 F 0 F 0.4500000000000028422 #
edge $-1 1261 $-1 $317 0 $372 0.8000000000000007105 $314 $410 forward @7 unknown #
face $411 1297 $-1 $320 $316 $6 $-1 $412 forward single #
point $-1 -1 $-1 1.949999999999997069 8.499999999999998224 -1.349999999999998312 #
straight-curve $-1 -1 $-1 1.949999999999997069 8.199999999999999289 -1.349999999999998312 -1 -2.719262146893782111e-32 -4.440892098500626162e-16 I I #
ATTRIB_CUSTOM-attrib $-1 -1 $-1 $-1 $320 @22 generic_tag_attrib_def 3 3 -1 @23 generic_tag_attrib_def  1 4 @4 4506 0 1 -300 0 #
plane-surface $-1 -1 $-1 1.950000000000000622 8.199999999999999289 -1.799999999999997602 -2.719262146893782111e-32 -1 1.224646799147353207e-16 -2.220446049250313081e-16 1.224646799147353207e-16 1 forward_v I I I I #
coedge $-1 -1 $-1 $413 $325 $414 $415 forward $91 0 $-1 #
coedge $-1 -1 $-1 $359 $358 $325 $371 reversed $360 0 $-1 #
edge $-1 1260 $-1 $372 -0.4500000000000028422 $416 -0 $370 $417 forward @7 unknown #
vertex $-1 1191 $-1 $363 1 $418 #
straight-curve $-1 -1 $-1 1.149999999999998135 8.499999999999998224 -1.349999999999998312 2.719262146893782111e-32 1 -1.224646799147353207e-16 I I #
point $-1 -1 $-1 1.149999999999998135 8.199999999999999289 -1.349999999999998312 #
ATTRIB_CUSTOM-attrib $-1 -1 $-1 $-1 $332 @22 generic_tag_attrib_def 3 3 -1 @23 generic_tag_attrib_def  1 4 @4 4515 0 1 -300 0 #
face $419 1290 $-1 $420 $421 $6 $-1 $422 forward single #
loop $-1 -1 $-1 $-1 $423 $332 #
plane-surface $-1 -1 $-1 1.949999999999997069 8.799999999999998934 0.9000000000000016875 4.440892098500626162e-16 -1.224646799147353207e-16 -1 -2.719262146893782111e-32 -1 1.224646799147353207e-16 forward_v I I I I #
coedge $424 -1 $-1 $425 $426 $427 $428 reversed $333 0 $-1 #
ATTRIB_CUSTOM-attrib $-1 -1 $-1 $-1 $335 @17 sketch_attrib_def 1 1 3 @13 466 0 0 0 1 1 #
coedge $-1 -1 $-1 $429 $335 $338 $386 forward $289 0 $-1 #
coedge $-1 -1 $-1 $335 $429 $425 $430 reversed $289 0 $-1 #
coedge $431 -1 $-1 $427 $339 $335 $384 forward $79 0 $-1 #
edge $-1 1232 $-1 $388 0 $432 0.2999999999999998224 $383 $433 forward @7 unknown #
coedge $-1 -1 $-1 $338 $337 $434 $435 reversed $245 0 $-1 #
edge $-1 1231 $-1 $388 0 $436 0.8000000000000007105 $381 $437 forward @7 unknown #
ATTRIB_CUSTOM-attrib $-1 -1 $-1 $-1 $339 @17 sketch_attrib_def 1 1 3 @13 465 0 0 0 1 1 #
vertex $-1 1170 $-1 $340 1 $438 #
straight-curve $-1 -1 $-1 1.949999999999997069 8.199999999999999289 1.800000000000003819 2.220446049250313081e-16 -1.224646799147353207e-16 -1 F 0 F 0.4499999999999992895 #
coedge $-1 -1 $-1 $346 $434 $341 $391 forward $91 0 $-1 #
edge $-1 1227 $-1 $392 -0.3000000000000002665 $348 -0 $341 $439 forward @7 unknown #
vertex $-1 1169 $-1 $342 1 $440 #
straight-curve $-1 -1 $-1 1.949999999999997069 8.199999999999999289 1.800000000000003819 -1 -2.719262146893782111e-32 -4.440892098500626162e-16 I I #
point $-1 -1 $-1 1.949999999999997069 8.199999999999999289 1.800000000000003819 #
straight-curve $-1 -1 $-1 1.149999999999996358 7.899999999999998579 2.250000000000003109 -2.220446049250313081e-16 1.224646799147353207e-16 1 I I #
point $-1 -1 $-1 1.149999999999996358 7.899999999999998579 1.800000000000003819 #
ATTRIB_CUSTOM-attrib $-1 -1 $-1 $-1 $354 @17 sketch_attrib_def 1 1 3 @13 473 0 0 0 1 1 #
coedge $441 -1 $-1 $354 $442 $443 $444 forward $79 0 $-1 #
coedge $445 -1 $-1 $446 $447 $354 $400 reversed $448 0 $-1 #
edge $-1 1253 $-1 $449 0 $405 0.4499999999999992895 $354 $450 forward @7 unknown #
ATTRIB_CUSTOM-attrib $-1 -1 $-1 $-1 $355 @17 sketch_attrib_def 1 1 3 @13 474 0 0 0 1 1 #
coedge $-1 -1 $-1 $414 $355 $447 $451 forward $404 0 $-1 #
coedge $-1 -1 $-1 $355 $414 $358 $407 reversed $404 0 $-1 #
loop $-1 -1 $-1 $-1 $355 $452 #
vertex $-1 1186 $-1 $400 1 $453 #
straight-curve $-1 -1 $-1 1.949999999999997069 8.799999999999998934 -0.8999999999999954703 -2.719262146893782111e-32 -1 1.224646799147353207e-16 F 0 F 0.3000000000000002665 #
edge $-1 1258 $-1 $361 0 $416 0.8000000000000007105 $358 $454 forward @7 unknown #
face $455 1296 $-1 $364 $360 $6 $-1 $456 forward single #
point $-1 -1 $-1 1.949999999999997069 8.499999999999998224 -0.8999999999999954703 #
straight-curve $-1 -1 $-1 1.949999999999997069 8.499999999999998224 -1.349999999999998312 -1 -2.719262146893782111e-32 -4.440892098500626162e-16 I I #
ATTRIB_CUSTOM-attrib $-1 -1 $-1 $-1 $364 @22 generic_tag_attrib_def 3 3 -1 @23 generic_tag_attrib_def  1 4 @4 4507 0 1 -300 0 #
plane-surface $-1 -1 $-1 1.949999999999997069 8.199999999999999289 -1.349999999999998312 -4.440892098500626162e-16 1.224646799147353207e-16 1 2.719262146893782111e-32 1 -1.224646799147353207e-16 forward_v I I I I #
coedge $-1 -1 $-1 $457 $369 $458 $459 forward $91 0 $-1 #
coedge $-1 -1 $-1 $403 $402 $369 $415 reversed $404 0 $-1 #
edge $-1 1257 $-1 $416 -0.3000000000000002665 $460 -0 $414 $461 forward @7 unknown #
vertex $-1 1189 $-1 $407 1 $462 #
straight-curve $-1 -1 $-1 1.149999999999998135 8.499999999999998224 -0.8999999999999954703 -2.220446049250313081e-16 1.224646799147353207e-16 1 I I #
point $-1 -1 $-1 1.149999999999998135 8.499999999999998224 -1.349999999999998312 #
ATTRIB_CUSTOM-attrib $-1 -1 $-1 $-1 $376 @22 generic_tag_attrib_def 3 3 -1 @23 generic_tag_attrib_def  1 4 @4 4514 0 1 -300 0 #
face $463 1291 $-1 $464 $465 $6 $-1 $466 forward single #
loop $-1 -1 $-1 $-1 $467 $376 #
plane-surface $-1 -1 $-1 1.949999999999997069 8.799999999999998934 0.4500000000000023981 -2.719262146893782111e-32 -1 1.224646799147353207e-16 -2.220446049250313081e-16 1.224646799147353207e-16 1 forward_v I I I I #
coedge $468 -1 $-1 $469 $470 $471 $472 reversed $377 0 $-1 #
ATTRIB_CUSTOM-attrib $-1 -1 $-1 $-1 $379 @17 sketch_attrib_def 1 1 3 @13 467 0 0 0 1 1 #
coedge $-1 -1 $-1 $473 $379 $382 $430 forward $333 0 $-1 #
coedge $-1 -1 $-1 $379 $473 $469 $474 reversed $333 0 $-1 #
coedge $475 -1 $-1 $471 $383 $379 $428 forward $79 0 $-1 #
edge $-1 1235 $-1 $432 0 $476 0.4500000000000028422 $427 $477 forward @7 unknown #
coedge $-1 -1 $-1 $382 $381 $478 $479 reversed $289 0 $-1 #
edge $-1 1234 $-1 $432 0 $480 0.8000000000000007105 $425 $481 forward @7 unknown #
ATTRIB_CUSTOM-attrib $-1 -1 $-1 $-1 $383 @17 sketch_attrib_def 1 1 3 @13 466 0 0 0 1 1 #
vertex $-1 1172 $-1 $384 1 $482 #
straight-curve $-1 -1 $-1 1.949999999999997069 8.199999999999999289 1.35000000000000453 2.719262146893782111e-32 1 -1.224646799147353207e-16 F 0 F 0.2999999999999998224 #
coedge $-1 -1 $-1 $390 $478 $385 $435 forward $91 0 $-1 #
edge $-1 1230 $-1 $436 -0.4499999999999992895 $392 -0 $385 $483 forward @7 unknown #
vertex $-1 1171 $-1 $386 1 $484 #
straight-curve $-1 -1 $-1 1.949999999999997069 8.199999999999999289 1.35000000000000453 -1 -2.719262146893782111e-32 -4.440892098500626162e-16 I I #
point $-1 -1 $-1 1.949999999999997069 8.199999999999999289 1.35000000000000453 #
straight-curve $-1 -1 $-1 1.149999999999996358 7.899999999999998579 1.800000000000003819 -2.719262146893782111e-32 -1 1.224646799147353207e-16 I I #
point $-1 -1 $-1 1.149999999999996358 8.199999999999999289 1.800000000000003819 #
ATTRIB_CUSTOM-attrib $-1 -1 $-1 $-1 $398 @17 sketch_attrib_def 1 1 3 @13 472 0 0 0 1 1 #
coedge $485 -1 $-1 $398 $486 $487 $488 forward $79 0 $-1 #
coedge $489 -1 $-1 $490 $491 $398 $444 reversed $492 0 $-1 #
edge $-1 1250 $-1 $493 0 $449 0.2999999999999998224 $398 $494 forward @7 unknown #
ATTRIB_CUSTOM-attrib $-1 -1 $-1 $-1 $399 @17 sketch_attrib_def 1 1 3 @13 473 0 0 0 1 1 #
coedge $-1 -1 $-1 $458 $399 $491 $495 forward $448 0 $-1 #
coedge $-1 -1 $-1 $399 $458 $402 $451 reversed $448 0 $-1 #
loop $-1 -1 $-1 $-1 $399 $496 #
vertex $-1 1184 $-1 $444 1 $497 #
straight-curve $-1 -1 $-1 1.949999999999997069 8.799999999999998934 -0.4499999999999961808 2.220446049250313081e-16 -1.224646799147353207e-16 -1 F 0 F 0.4499999999999992895 #
edge $-1 1255 $-1 $405 0 $460 0.8000000000000007105 $402 $498 forward @7 unknown #
face $499 1295 $-1 $408 $404 $6 $-1 $500 forward single #
point $-1 -1 $-1 1.949999999999997069 8.799999999999998934 -0.8999999999999954703 #
straight-curve $-1 -1 $-1 1.949999999999997069 8.499999999999998224 -0.8999999999999954703 -1 -2.719262146893782111e-32 -4.440892098500626162e-16 I I #
ATTRIB_CUSTOM-attrib $-1 -1 $-1 $-1 $408 @22 generic_tag_attrib_def 3 3 -1 @23 generic_tag_attrib_def  1 4 @4 4508 0 1 -300 0 #
plane-surface $-1 -1 $-1 1.949999999999997069 8.499999999999998224 -1.349999999999998312 -2.719262146893782111e-32 -1 1.224646799147353207e-16 -2.220446049250313081e-16 1.224646799147353207e-16 1 forward_v I I I I #
coedge $-1 -1 $-1 $501 $413 $502 $503 forward $91 0 $-1 #
coedge $-1 -1 $-1 $447 $446 $413 $459 reversed $448 0 $-1 #
edge $-1 1254 $-1 $460 -0.4499999999999992895 $504 -0 $458 $505 forward @7 unknown #
vertex $-1 1187 $-1 $451 1 $506 #
straight-curve $-1 -1 $-1 1.149999999999998135 8.799999999999998934 -0.8999999999999954703 2.719262146893782111e-32 1 -1.224646799147353207e-16 I I #
point $-1 -1 $-1 1.149999999999998135 8.499999999999998224 -0.8999999999999954703 #
ATTRIB_CUSTOM-attrib $-1 -1 $-1 $-1 $420 @22 generic_tag_attrib_def 3 3 -1 @23 generic_tag_attrib_def  1 4 @4 4513 0 1 -300 0 #
face $507 1292 $-1 $508 $509 $6 $-1 $510 forward single #
loop $-1 -1 $-1 $-1 $511 $420 #
plane-surface $-1 -1 $-1 1.949999999999997069 9.099999999999999645 0.4500000000000023981 4.440892098500626162e-16 -1.224646799147353207e-16 -1 -2.719262146893782111e-32 -1 1.224646799147353207e-16 forward_v I I I I #
coedge $512 -1 $-1 $513 $514 $515 $516 reversed $421 0 $-1 #
ATTRIB_CUSTOM-attrib $-1 -1 $-1 $-1 $423 @17 sketch_attrib_def 1 1 3 @13 468 0 0 0 1 1 #
coedge $-1 -1 $-1 $517 $423 $426 $474 forward $377 0 $-1 #
coedge $-1 -1 $-1 $423 $517 $513 $518 reversed $377 0 $-1 #
coedge $519 -1 $-1 $515 $427 $423 $472 forward $79 0 $-1 #
edge $-1 1238 $-1 $476 0 $520 0.3000000000000002665 $471 $521 forward @7 unknown #
coedge $-1 -1 $-1 $426 $425 $522 $523 reversed $333 0 $-1 #
edge $-1 1237 $-1 $476 0 $524 0.8000000000000007105 $469 $525 forward @7 unknown #
ATTRIB_CUSTOM-attrib $-1 -1 $-1 $-1 $427 @17 sketch_attrib_def 1 1 3 @13 467 0 0 0 1 1 #
vertex $-1 1174 $-1 $428 1 $526 #
straight-curve $-1 -1 $-1 1.949999999999997069 8.5 1.35000000000000453 2.220446049250313081e-16 -1.224646799147353207e-16 -1 F 0 F 0.4500000000000028422 #
coedge $-1 -1 $-1 $434 $522 $429 $479 forward $91 0 $-1 #
edge $-1 1233 $-1 $480 -0.2999999999999998224 $436 -0 $429 $527 forward @7 unknown #
vertex $-1 1173 $-1 $430 1 $528 #
straight-curve $-1 -1 $-1 1.949999999999997069 8.5 1.35000000000000453 -1 -2.719262146893782111e-32 -4.440892098500626162e-16 I I #
point $-1 -1 $-1 1.949999999999997069 8.5 1.35000000000000453 #
straight-curve $-1 -1 $-1 1.149999999999996358 8.199999999999999289 1.800000000000003819 -2.220446049250313081e-16 1.224646799147353207e-16 1 I I #
point $-1 -1 $-1 1.149999999999996358 8.199999999999999289 1.35000000000000453 #
ATTRIB_CUSTOM-attrib $-1 -1 $-1 $-1 $442 @17 sketch_attrib_def 1 1 3 @13 471 0 0 0 1 1 #
coedge $529 -1 $-1 $442 $515 $511 $530 forward $79 0 $-1 #
coedge $531 -1 $-1 $532 $533 $442 $488 reversed $509 0 $-1 #
edge $-1 1247 $-1 $534 0 $493 0.8999999999999985789 $442 $535 forward @7 unknown #
ATTRIB_CUSTOM-attrib $-1 -1 $-1 $-1 $443 @17 sketch_attrib_def 1 1 3 @13 472 0 0 0 1 1 #
coedge $-1 -1 $-1 $502 $443 $533 $536 forward $492 0 $-1 #
coedge $-1 -1 $-1 $443 $502 $446 $495 reversed $492 0 $-1 #
loop $-1 -1 $-1 $-1 $443 $508 #
vertex $-1 1182 $-1 $488 1 $537 #
straight-curve $-1 -1 $-1 1.949999999999997069 9.099999999999999645 -0.4499999999999961808 -2.719262146893782111e-32 -1 1.224646799147353207e-16 F 0 F 0.2999999999999998224 #
edge $-1 1252 $-1 $449 0 $504 0.8000000000000007105 $446 $538 forward @7 unknown #
face $539 1294 $-1 $452 $448 $6 $-1 $540 forward single #
point $-1 -1 $-1 1.949999999999997069 8.799999999999998934 -0.4499999999999961808 #
straight-curve $-1 -1 $-1 1.949999999999997069 8.799999999999998934 -0.8999999999999954703 -1 -2.719262146893782111e-32 -4.440892098500626162e-16 I I #
ATTRIB_CUSTOM-attrib $-1 -1 $-1 $-1 $452 @22 generic_tag_attrib_def 3 3 -1 @23 generic_tag_attrib_def  1 4 @4 4509 0 1 -300 0 #
plane-surface $-1 -1 $-1 1.949999999999997069 8.499999999999998224 -0.8999999999999954703 -4.440892098500626162e-16 1.224646799147353207e-16 1 2.719262146893782111e-32 1 -1.224646799147353207e-16 forward_v I I I I #
coedge $-1 -1 $-1 $541 $457 $542 $543 forward $91 0 $-1 #
coedge $-1 -1 $-1 $491 $490 $457 $503 reversed $492 0 $-1 #
edge $-1 1251 $-1 $504 -0.2999999999999998224 $544 -0 $502 $545 forward @7 unknown #
vertex $-1 1185 $-1 $495 1 $546 #
straight-curve $-1 -1 $-1 1.149999999999998135 8.799999999999998934 -0.4499999999999961808 -2.220446049250313081e-16 1.224646799147353207e-16 1 I I #
point $-1 -1 $-1 1.149999999999998135 8.799999999999998934 -0.8999999999999954703 #
ATTRIB_CUSTOM-attrib $-1 -1 $-1 $-1 $464 @22 generic_tag_attrib_def 3 3 -1 @23 generic_tag_attrib_def  1 4 @4 4512 0 1 -300 0 #
face $547 1293 $-1 $496 $492 $6 $-1 $548 forward single #
loop $-1 -1 $-1 $-1 $487 $464 #
plane-surface $-1 -1 $-1 1.949999999999997069 9.099999999999999645 -0.4499999999999961808 -2.719262146893782111e-32 -1 1.224646799147353207e-16 -2.220446049250313081e-16 1.224646799147353207e-16 1 forward_v I I I I #
coedge $549 -1 $-1 $550 $551 $486 $530 reversed $465 0 $-1 #
ATTRIB_CUSTOM-attrib $-1 -1 $-1 $-1 $467 @17 sketch_attrib_def 1 1 3 @13 469 0 0 0 1 1 #
coedge $-1 -1 $-1 $552 $467 $470 $518 forward $421 0 $-1 #
coedge $-1 -1 $-1 $467 $552 $550 $553 reversed $421 0 $-1 #
coedge $554 -1 $-1 $486 $471 $467 $516 forward $79 0 $-1 #
edge $-1 1241 $-1 $520 0 $555 0.4499999999999992895 $515 $556 forward @7 unknown #
coedge $-1 -1 $-1 $470 $469 $557 $558 reversed $377 0 $-1 #
edge $-1 1240 $-1 $520 0 $559 0.8000000000000007105 $513 $560 forward @7 unknown #
ATTRIB_CUSTOM-attrib $-1 -1 $-1 $-1 $471 @17 sketch_attrib_def 1 1 3 @13 468 0 0 0 1 1 #
vertex $-1 1176 $-1 $472 1 $561 #
straight-curve $-1 -1 $-1 1.949999999999997069 8.5 0.9000000000000016875 2.719262146893782111e-32 1 -1.224646799147353207e-16 F 0 F 0.3000000000000002665 #
coedge $-1 -1 $-1 $478 $557 $473 $523 forward $91 0 $-1 #
edge $-1 1236 $-1 $524 -0.4500000000000028422 $480 -0 $473 $562 forward @7 unknown #
vertex $-1 1175 $-1 $474 1 $563 #
straight-curve $-1 -1 $-1 1.949999999999997069 8.5 0.9000000000000016875 -1 -2.719262146893782111e-32 -4.440892098500626162e-16 I I #
point $-1 -1 $-1 1.949999999999997069 8.5 0.9000000000000016875 #
straight-curve $-1 -1 $-1 1.149999999999996358 8.199999999999999289 1.35000000000000453 -2.719262146893782111e-32 -1 1.224646799147353207e-16 I I #
point $-1 -1 $-1 1.149999999999996358 8.5 1.35000000000000453 #
ATTRIB_CUSTOM-attrib $-1 -1 $-1 $-1 $486 @17 sketch_attrib_def 1 1 3 @13 470 0 0 0 1 1 #
edge $-1 1244 $-1 $555 0 $534 0.2999999999999998224 $486 $564 forward @7 unknown #
ATTRIB_CUSTOM-attrib $-1 -1 $-1 $-1 $487 @17 sketch_attrib_def 1 1 3 @13 471 0 0 0 1 1 #
coedge $-1 -1 $-1 $542 $487 $551 $565 forward $509 0 $-1 #
coedge $-1 -1 $-1 $487 $542 $490 $536 reversed $509 0 $-1 #
vertex $-1 1180 $-1 $530 1 $566 #
straight-curve $-1 -1 $-1 1.949999999999997069 9.099999999999999645 0.4500000000000023981 2.220446049250313081e-16 -1.224646799147353207e-16 -1 F 0 F 0.8999999999999985789 #
edge $-1 1249 $-1 $493 0 $544 0.8000000000000007105 $490 $567 forward @7 unknown #
point $-1 -1 $-1 1.949999999999997069 9.099999999999999645 -0.4499999999999961808 #
straight-curve $-1 -1 $-1 1.949999999999997069 8.799999999999998934 -0.4499999999999961808 -1 -2.719262146893782111e-32 -4.440892098500626162e-16 I I #
ATTRIB_CUSTOM-attrib $-1 -1 $-1 $-1 $496 @22 generic_tag_attrib_def 3 3 -1 @23 generic_tag_attrib_def  1 4 @4 4510 0 1 -300 0 #
plane-surface $-1 -1 $-1 1.949999999999997069 8.799999999999998934 -0.8999999999999954703 -2.719262146893782111e-32 -1 1.224646799147353207e-16 -2.220446049250313081e-16 1.224646799147353207e-16 1 forward_v I I I I #
coedge $-1 -1 $-1 $568 $501 $569 $570 forward $91 0 $-1 #
coedge $-1 -1 $-1 $533 $532 $501 $543 reversed $509 0 $-1 #
edge $-1 1248 $-1 $544 -0.8999999999999985789 $571 -0 $542 $572 forward @7 unknown #
vertex $-1 1183 $-1 $536 1 $573 #
straight-curve $-1 -1 $-1 1.149999999999998135 9.099999999999999645 -0.4499999999999961808 2.719262146893782111e-32 1 -1.224646799147353207e-16 I I #
point $-1 -1 $-1 1.149999999999998135 8.799999999999998934 -0.4499999999999961808 #
ATTRIB_CUSTOM-attrib $-1 -1 $-1 $-1 $508 @22 generic_tag_attrib_def 3 3 -1 @23 generic_tag_attrib_def  1 4 @4 4511 0 1 -300 0 #
plane-surface $-1 -1 $-1 1.949999999999997069 8.799999999999998934 -0.4499999999999961808 -4.440892098500626162e-16 1.224646799147353207e-16 1 2.719262146893782111e-32 1 -1.224646799147353207e-16 forward_v I I I I #
ATTRIB_CUSTOM-attrib $-1 -1 $-1 $-1 $511 @17 sketch_attrib_def 1 1 3 @13 470 0 0 0 1 1 #
coedge $-1 -1 $-1 $569 $511 $514 $553 forward $465 0 $-1 #
coedge $-1 -1 $-1 $511 $569 $532 $565 reversed $465 0 $-1 #
coedge $-1 -1 $-1 $514 $513 $568 $574 reversed $421 0 $-1 #
edge $-1 1243 $-1 $555 0 $575 0.8000000000000007105 $550 $576 forward @7 unknown #
ATTRIB_CUSTOM-attrib $-1 -1 $-1 $-1 $515 @17 sketch_attrib_def 1 1 3 @13 469 0 0 0 1 1 #
vertex $-1 1178 $-1 $516 1 $577 #
straight-curve $-1 -1 $-1 1.949999999999997069 8.799999999999998934 0.9000000000000016875 2.220446049250313081e-16 -1.224646799147353207e-16 -1 F 0 F 0.4499999999999992895 #
coedge $-1 -1 $-1 $522 $568 $517 $558 forward $91 0 $-1 #
edge $-1 1239 $-1 $559 -0.3000000000000002665 $524 -0 $517 $578 forward @7 unknown #
vertex $-1 1177 $-1 $518 1 $579 #
straight-curve $-1 -1 $-1 1.949999999999997069 8.799999999999998934 0.9000000000000016875 -1 -2.719262146893782111e-32 -4.440892098500626162e-16 I I #
point $-1 -1 $-1 1.949999999999997069 8.799999999999998934 0.9000000000000016875 #
straight-curve $-1 -1 $-1 1.149999999999996358 8.5 1.35000000000000453 -2.220446049250313081e-16 1.224646799147353207e-16 1 I I #
point $-1 -1 $-1 1.149999999999996358 8.5 0.9000000000000016875 #
straight-curve $-1 -1 $-1 1.949999999999997069 8.799999999999998934 0.4500000000000023981 2.719262146893782111e-32 1 -1.224646799147353207e-16 F 0 F 0.2999999999999998224 #
edge $-1 1246 $-1 $534 0 $571 0.8000000000000007105 $532 $580 forward @7 unknown #
point $-1 -1 $-1 1.949999999999997069 9.099999999999999645 0.4500000000000023981 #
straight-curve $-1 -1 $-1 1.949999999999997069 9.099999999999999645 -0.4499999999999961808 -1 -2.719262146893782111e-32 -4.440892098500626162e-16 I I #
coedge $-1 -1 $-1 $557 $541 $552 $574 forward $91 0 $-1 #
coedge $-1 -1 $-1 $551 $550 $541 $570 reversed $465 0 $-1 #
edge $-1 1245 $-1 $571 -0.2999999999999998224 $575 -0 $569 $581 forward @7 unknown #
vertex $-1 1181 $-1 $565 1 $582 #
straight-curve $-1 -1 $-1 1.149999999999998135 9.099999999999999645 0.4500000000000023981 -2.220446049250313081e-16 1.224646799147353207e-16 1 I I #
point $-1 -1 $-1 1.149999999999998135 9.099999999999999645 -0.4499999999999961808 #
edge $-1 1242 $-1 $575 -0.4499999999999992895 $559 -0 $552 $583 forward @7 unknown #
vertex $-1 1179 $-1 $553 1 $584 #
straight-curve $-1 -1 $-1 1.949999999999997069 8.799999999999998934 0.4500000000000023981 -1 -2.719262146893782111e-32 -4.440892098500626162e-16 I I #
point $-1 -1 $-1 1.949999999999997069 8.799999999999998934 0.4500000000000023981 #
straight-curve $-1 -1 $-1 1.149999999999996358 8.5 0.9000000000000016875 -2.719262146893782111e-32 -1 1.224646799147353207e-16 I I #
point $-1 -1 $-1 1.149999999999996358 8.799999999999998934 0.9000000000000016875 #
straight-curve $-1 -1 $-1 1.949999999999997069 9.099999999999999645 0.4500000000000023981 -1 -2.719262146893782111e-32 -4.440892098500626162e-16 I I #
straight-curve $-1 -1 $-1 1.149999999999998135 8.799999999999998934 0.4500000000000023981 -2.719262146893782111e-32 -1 1.224646799147353207e-16 I I #
point $-1 -1 $-1 1.149999999999998135 9.099999999999999645 0.4500000000000023981 #
straight-curve $-1 -1 $-1 1.149999999999996358 8.799999999999998934 0.9000000000000016875 -2.220446049250313081e-16 1.224646799147353207e-16 1 I I #
point $-1 -1 $-1 1.149999999999998135 8.799999999999998934 0.4500000000000023981 #
End-of-ASM-data 