22700 0 2 4           
16 Autodesk Neutron 20 ASM 227.1.1.65535 NT 24 Wed Aug 25 15:39:39 2021 
10 9.999999999999999547e-07 1.000000000000000036e-10 
asmheader $-1 -1 @13 227.1.1.65535 #
body $2 -1 $-1 $3 $-1 $4 #
ATTRIB_CUSTOM-attrib $-1 -1 $5 $-1 $1 @20 Timestamp_attrib_def 1 1629905923913953 #
lump $-1 -1 $-1 $-1 $6 $1 #
transform $-1 -1 1 0 0 0 1 0 0 0 1 0 0 0 1 no_rotate no_reflect no_shear #
ATTRIB_CUSTOM-attrib $-1 -1 $-1 $2 $1 @22 generic_tag_attrib_def 3 3 -1 @23 generic_tag_attrib_def  1 3 @3 300 4 0 0 #
shell $-1 -1 $-1 $-1 $-1 $7 $-1 $3 #
face $8 1472 $-1 $9 $10 $6 $-1 $11 forward single #
ATTRIB_CUSTOM-attrib $-1 -1 $-1 $-1 $7 @22 generic_tag_attrib_def 3 3 -1 @23 generic_tag_attrib_def  1 4 @4 5198 0 1 -300 0 #
face $12 1473 $-1 $13 $14 $6 $-1 $15 forward single #
loop $-1 -1 $-1 $16 $17 $7 #
cone-surface $-1 -1 $-1 0.6000000000000178524 2.600000000000000089 2.400000000000001688 -1 0 0 0 0 -0.3100000000000000533 1 I I 0 -1 0.3100000000000000533 forward I I I I #
ATTRIB_CUSTOM-attrib $-1 -1 $-1 $-1 $9 @22 generic_tag_attrib_def 3 3 -1 @23 generic_tag_attrib_def  1 4 @4 5197 0 1 -300 0 #
face $18 1474 $-1 $19 $20 $6 $-1 $21 forward single #
loop $-1 -1 $-1 $22 $23 $9 #
cone-surface $-1 -1 $-1 0.6000000000000178524 2.600000000000000089 -2.39999999999999547 -1 0 0 0 0 -0.3100000000000000533 1 I I 0 -1 0.3100000000000000533 forward I I I I #
loop $-1 -1 $-1 $-1 $24 $7 #
coedge $-1 -1 $-1 $17 $17 $25 $26 reversed $10 0 $-1 #
ATTRIB_CUSTOM-attrib $-1 -1 $-1 $-1 $13 @22 generic_tag_attrib_def 3 3 -1 @23 generic_tag_attrib_def  1 4 @4 5196 0 1 -300 0 #
face $27 1475 $-1 $28 $29 $6 $-1 $30 forward single #
loop $-1 -1 $-1 $-1 $31 $13 #
plane-surface $-1 -1 $-1 0.6000000000000178524 3.299999999999999822 0.4500000000000023981 -0 -2.891205793294679805e-16 -1 -6.419766481290789096e-32 -1 2.891205793294679805e-16 forward_v I I I I #
loop $-1 -1 $-1 $-1 $32 $9 #
coedge $-1 -1 $-1 $23 $23 $33 $34 reversed $14 0 $-1 #
coedge $-1 -1 $-1 $24 $24 $35 $36 forward $16 0 $-1 #
coedge $-1 -1 $-1 $25 $25 $17 $26 forward $37 0 $-1 #
edge $-1 1372 $-1 $38 0 $38 6.283185307179586232 $17 $39 forward @7 unknown #
ATTRIB_CUSTOM-attrib $-1 -1 $-1 $-1 $19 @22 generic_tag_attrib_def 3 3 -1 @23 generic_tag_attrib_def  1 4 @4 5195 0 1 -300 0 #
face $40 1476 $-1 $41 $42 $6 $-1 $43 forward single #
loop $-1 -1 $-1 $-1 $44 $19 #
plane-surface $-1 -1 $-1 0.6000000000000178524 3.299999999999999822 0.9000000000000016875 0 1 -7.709882115452480139e-16 2.220446049250313081e-16 -7.709882115452480139e-16 -1 forward_v I I I I #
coedge $-1 -1 $-1 $45 $46 $47 $48 reversed $20 0 $-1 #
coedge $-1 -1 $-1 $32 $32 $49 $50 forward $22 0 $-1 #
coedge $-1 -1 $-1 $33 $33 $23 $34 forward $51 0 $-1 #
edge $-1 1374 $-1 $52 0 $52 6.283185307179586232 $23 $53 forward @7 unknown #
coedge $-1 -1 $-1 $35 $35 $24 $36 reversed $54 0 $-1 #
edge $55 1373 $-1 $56 0 $56 6.283185307179586232 $35 $57 forward @7 unknown #
loop $-1 -1 $-1 $-1 $25 $58 #
vertex $-1 1304 $-1 $26 2 $59 #
ellipse-curve $-1 -1 $-1 -0.1999999999999828582 2.600000000000000089 2.400000000000001688 1 0 2.220446049250313081e-16 6.883382752675971734e-17 0 -0.3100000000000000533 1 I I #
ATTRIB_CUSTOM-attrib $-1 -1 $-1 $-1 $28 @22 generic_tag_attrib_def 3 3 -1 @23 generic_tag_attrib_def  1 4 @4 5194 0 1 -300 0 #
face $60 1477 $-1 $61 $62 $6 $-1 $63 forward single #
loop $-1 -1 $-1 $-1 $64 $28 #
plane-surface $-1 -1 $-1 0.6000000000000178524 3.600000000000000089 0.9000000000000016875 -0 -5.78241158658934975e-16 -1 -1.28395329625815563e-31 -1 5.78241158658934975e-16 forward_v I I I I #
coedge $-1 -1 $-1 $65 $66 $67 $68 reversed $29 0 $-1 #
coedge $-1 -1 $-1 $69 $31 $70 $71 forward $20 0 $-1 #
coedge $-1 -1 $-1 $31 $69 $65 $72 reversed $20 0 $-1 #
coedge $-1 -1 $-1 $67 $73 $31 $48 forward $74 0 $-1 #
edge $75 1376 $-1 $76 -3.000000000000000444 $77 0 $47 $78 forward @7 unknown #
coedge $-1 -1 $-1 $49 $49 $32 $50 reversed $79 0 $-1 #
edge $80 1375 $-1 $81 0 $81 6.283185307179586232 $49 $82 forward @7 unknown #
loop $-1 -1 $-1 $37 $33 $58 #
vertex $-1 1306 $-1 $34 2 $83 #
ellipse-curve $-1 -1 $-1 -0.1999999999999828582 2.600000000000000089 -2.39999999999999547 1 0 2.220446049250313081e-16 6.883382752675971734e-17 0 -0.3100000000000000533 1 I I #
loop $-1 -1 $-1 $-1 $35 $84 #
DXID-attrib $-1 -1 $-1 $-1 $36 @18 ASM_EDGE_FROM_STEP @3 567 #
vertex $-1 1305 $-1 $36 0 $85 #
ellipse-curve $-1 -1 $-1 0.6000000000000178524 2.600000000000000089 2.400000000000001688 1 0 2.220446049250313081e-16 6.883382752675971734e-17 0 -0.3100000000000000533 1 I I #
face $86 1507 $-1 $-1 $87 $6 $-1 $88 reversed single #
point $-1 -1 $-1 -0.1999999999999828582 2.600000000000000089 2.090000000000002967 #
ATTRIB_CUSTOM-attrib $-1 -1 $-1 $-1 $41 @22 generic_tag_attrib_def 3 3 -1 @23 generic_tag_attrib_def  1 4 @4 5193 0 1 -300 0 #
face $89 1478 $-1 $90 $91 $6 $-1 $92 forward single #
loop $-1 -1 $-1 $-1 $93 $41 #
plane-surface $-1 -1 $-1 0.6000000000000178524 3.600000000000000089 1.35000000000000453 0 1 7.709882115452480139e-16 2.220446049250313081e-16 7.709882115452480139e-16 -1 forward_v I I I I #
coedge $-1 -1 $-1 $94 $95 $96 $97 reversed $42 0 $-1 #
coedge $-1 -1 $-1 $98 $44 $46 $72 forward $29 0 $-1 #
coedge $-1 -1 $-1 $44 $98 $94 $99 reversed $29 0 $-1 #
coedge $-1 -1 $-1 $96 $47 $44 $68 forward $74 0 $-1 #
edge $100 1380 $-1 $77 -4.5 $101 0 $67 $102 forward @7 unknown #
coedge $-1 -1 $-1 $46 $45 $103 $104 reversed $20 0 $-1 #
coedge $-1 -1 $-1 $105 $106 $45 $71 reversed $107 0 $-1 #
edge $-1 1377 $-1 $76 0 $108 0.8000000000000007105 $70 $109 forward @7 unknown #
edge $-1 1379 $-1 $77 0 $110 0.8000000000000007105 $65 $111 forward @7 unknown #
coedge $-1 -1 $-1 $47 $112 $105 $113 forward $74 0 $-1 #
loop $-1 -1 $-1 $79 $73 $84 #
DXID-attrib $-1 -1 $-1 $-1 $48 @18 ASM_EDGE_FROM_STEP @3 476 #
vertex $-1 1309 $-1 $113 1 $114 #
vertex $-1 1308 $-1 $48 1 $115 #
straight-curve $-1 -1 $-1 0.6000000000000178524 3.299999999999999822 0.4500000000000023981 6.41976648129078937e-33 0.1000000000000000056 -2.891205793294679929e-17 F -3.000000000000000444 F 0 #
loop $-1 -1 $-1 $54 $49 $84 #
DXID-attrib $-1 -1 $-1 $-1 $50 @18 ASM_EDGE_FROM_STEP @3 566 #
vertex $-1 1307 $-1 $50 0 $116 #
ellipse-curve $-1 -1 $-1 0.6000000000000178524 2.600000000000000089 -2.39999999999999547 1 0 2.220446049250313081e-16 6.883382752675971734e-17 0 -0.3100000000000000533 1 I I #
point $-1 -1 $-1 -0.1999999999999828582 2.600000000000000089 -2.709999999999997744 #
face $117 1506 $-1 $58 $74 $6 $-1 $118 forward single #
point $-1 -1 $-1 0.6000000000000178524 2.600000000000000089 2.090000000000002967 #
ATTRIB_CUSTOM-attrib $-1 -1 $119 $-1 $58 @22 generic_tag_attrib_def 3 3 -1 @23 generic_tag_attrib_def  1 4 @4 5164 0 1 -300 0 #
loop $-1 -1 $-1 $51 $120 $58 #
plane-surface $-1 -1 $-1 -0.1999999999999828582 1.399999999999999911 3.108624468950438313e-15 1 0 2.220446049250313081e-16 2.220446049250313204e-17 0 -0.1000000000000000056 forward_v I I I I #
ATTRIB_CUSTOM-attrib $-1 -1 $-1 $-1 $61 @22 generic_tag_attrib_def 3 3 -1 @23 generic_tag_attrib_def  1 4 @4 5192 0 1 -300 0 #
face $121 1479 $-1 $122 $123 $6 $-1 $124 forward single #
loop $-1 -1 $-1 $-1 $125 $61 #
plane-surface $-1 -1 $-1 0.6000000000000178524 3.899999999999999911 1.35000000000000453 0 1.15648231731786995e-15 -1 2.567906592516311259e-31 -1 -1.15648231731786995e-15 forward_v I I I I #
coedge $-1 -1 $-1 $126 $127 $128 $129 reversed $62 0 $-1 #
coedge $-1 -1 $-1 $130 $64 $66 $99 forward $42 0 $-1 #
coedge $-1 -1 $-1 $64 $130 $126 $131 reversed $42 0 $-1 #
coedge $-1 -1 $-1 $128 $67 $64 $97 forward $74 0 $-1 #
edge $132 1383 $-1 $101 -3.000000000000000444 $133 0 $96 $134 forward @7 unknown #
coedge $-1 -1 $-1 $66 $65 $135 $136 reversed $29 0 $-1 #
edge $-1 1382 $-1 $101 0 $137 0.8000000000000007105 $94 $138 forward @7 unknown #
DXID-attrib $-1 -1 $-1 $-1 $68 @18 ASM_EDGE_FROM_STEP @3 479 #
vertex $-1 1312 $-1 $68 1 $139 #
straight-curve $-1 -1 $-1 0.6000000000000178524 3.299999999999999822 0.9000000000000016875 -2.220446049250313204e-17 7.709882115452480632e-17 0.1000000000000000056 F -4.5 F 0 #
coedge $-1 -1 $-1 $120 $135 $69 $104 forward $87 0 $-1 #
edge $-1 1378 $-1 $110 -0 $108 3.000000000000000444 $69 $140 forward @7 unknown #
coedge $-1 -1 $-1 $141 $70 $73 $113 reversed $107 0 $-1 #
coedge $-1 -1 $-1 $70 $141 $120 $142 reversed $107 0 $-1 #
loop $-1 -1 $-1 $-1 $105 $143 #
vertex $-1 1310 $-1 $71 1 $144 #
straight-curve $-1 -1 $-1 0.6000000000000178524 3 0.4500000000000023981 -1 0 0 I I #
vertex $-1 1311 $-1 $72 1 $145 #
straight-curve $-1 -1 $-1 0.6000000000000178524 3.299999999999999822 0.4500000000000023981 -1 0 0 I I #
coedge $-1 -1 $-1 $73 $146 $147 $148 forward $74 0 $-1 #
edge $149 1470 $-1 $150 0 $76 9 $73 $151 forward @7 unknown #
point $-1 -1 $-1 0.6000000000000178524 3 0.4500000000000023981 #
point $-1 -1 $-1 0.6000000000000178524 3.299999999999999822 0.4500000000000023981 #
point $-1 -1 $-1 0.6000000000000178524 2.600000000000000089 -2.709999999999997744 #
ATTRIB_CUSTOM-attrib $-1 -1 $152 $-1 $84 @22 generic_tag_attrib_def 3 3 -1 @23 generic_tag_attrib_def  1 4 @4 5163 0 1 -300 0 #
plane-surface $-1 -1 $-1 0.6000000000000178524 1.399999999999999911 3.108624468950438313e-15 1 0 2.220446049250313081e-16 2.220446049250313204e-17 0 -0.1000000000000000056 forward_v I I I I #
DXID-attrib $-1 -1 $-1 $86 $58 @18 ASM_FACE_FROM_STEP @33 Pieza5_Mordaza inferior_sldprt-90 #
coedge $-1 -1 $-1 $153 $103 $106 $142 forward $87 0 $-1 #
ATTRIB_CUSTOM-attrib $-1 -1 $-1 $-1 $90 @22 generic_tag_attrib_def 3 3 -1 @23 generic_tag_attrib_def  1 4 @4 5191 0 1 -300 0 #
face $154 1480 $-1 $155 $156 $6 $-1 $157 forward single #
loop $-1 -1 $-1 $-1 $158 $90 #
plane-surface $-1 -1 $-1 0.6000000000000178524 3.899999999999999911 1.800000000000003819 0 1 0 2.220446049250313081e-16 0 -1 forward_v I I I I #
coedge $-1 -1 $-1 $159 $160 $161 $162 reversed $91 0 $-1 #
coedge $-1 -1 $-1 $163 $93 $95 $131 forward $62 0 $-1 #
coedge $-1 -1 $-1 $93 $163 $159 $164 reversed $62 0 $-1 #
coedge $-1 -1 $-1 $161 $96 $93 $129 forward $74 0 $-1 #
edge $165 1386 $-1 $133 -4.5 $166 0 $128 $167 forward @7 unknown #
coedge $-1 -1 $-1 $95 $94 $168 $169 reversed $42 0 $-1 #
edge $-1 1385 $-1 $133 0 $170 0.8000000000000007105 $126 $171 forward @7 unknown #
DXID-attrib $-1 -1 $-1 $-1 $97 @18 ASM_EDGE_FROM_STEP @3 482 #
vertex $-1 1314 $-1 $97 1 $172 #
straight-curve $-1 -1 $-1 0.6000000000000178524 3.600000000000000089 0.9000000000000016875 1.283953296258155684e-32 0.1000000000000000056 -5.782411586589349997e-17 F -3.000000000000000444 F 0 #
coedge $-1 -1 $-1 $103 $168 $98 $136 forward $87 0 $-1 #
edge $-1 1381 $-1 $137 -0 $110 4.5 $98 $173 forward @7 unknown #
vertex $-1 1313 $-1 $99 1 $174 #
straight-curve $-1 -1 $-1 0.6000000000000178524 3.299999999999999822 0.9000000000000016875 -1 0 0 I I #
point $-1 -1 $-1 0.6000000000000178524 3.299999999999999822 0.9000000000000016875 #
straight-curve $-1 -1 $-1 -0.1999999999999828582 3.299999999999999822 0.4500000000000023981 -6.41976648129078937e-33 -0.1000000000000000056 2.891205793294679929e-17 I I #
coedge $-1 -1 $-1 $106 $105 $175 $176 forward $107 0 $-1 #
edge $-1 1471 $-1 $108 -9 $177 -0 $106 $178 forward @7 unknown #
face $179 1505 $-1 $84 $107 $6 $-1 $180 forward single #
point $-1 -1 $-1 -0.1999999999999828582 3 0.4500000000000023981 #
point $-1 -1 $-1 -0.1999999999999828582 3.299999999999999822 0.4500000000000023981 #
coedge $-1 -1 $-1 $112 $181 $182 $183 forward $74 0 $-1 #
coedge $-1 -1 $-1 $184 $175 $112 $148 reversed $185 0 $-1 #
edge $186 1467 $-1 $187 0 $150 3.000000000000000444 $112 $188 forward @7 unknown #
DXID-attrib $-1 -1 $-1 $-1 $113 @18 ASM_EDGE_FROM_STEP @3 472 #
vertex $-1 1370 $-1 $113 0 $189 #
straight-curve $-1 -1 $-1 0.6000000000000178524 3 -0.4499999999999961808 -2.220446049250313204e-17 0 0.1000000000000000056 F 0 F 9 #
DXID-attrib $-1 -1 $-1 $117 $84 @18 ASM_FACE_FROM_STEP @33 Pieza5_Mordaza inferior_sldprt-90 #
coedge $-1 -1 $-1 $190 $120 $191 $192 forward $87 0 $-1 #
ATTRIB_CUSTOM-attrib $-1 -1 $-1 $-1 $122 @22 generic_tag_attrib_def 3 3 -1 @23 generic_tag_attrib_def  1 4 @4 5190 0 1 -300 0 #
face $193 1481 $-1 $194 $195 $6 $-1 $196 forward single #
loop $-1 -1 $-1 $-1 $197 $122 #
plane-surface $-1 -1 $-1 0.6000000000000178524 4.200000000000000178 1.800000000000003819 0 0 -1 -0 -1 -0 forward_v I I I I #
coedge $-1 -1 $-1 $198 $199 $200 $201 reversed $123 0 $-1 #
coedge $-1 -1 $-1 $202 $125 $127 $164 forward $91 0 $-1 #
coedge $-1 -1 $-1 $125 $202 $198 $203 reversed $91 0 $-1 #
coedge $-1 -1 $-1 $200 $128 $125 $162 forward $74 0 $-1 #
edge $204 1389 $-1 $166 -2.999999999999998224 $205 0 $161 $206 forward @7 unknown #
coedge $-1 -1 $-1 $127 $126 $207 $208 reversed $62 0 $-1 #
edge $-1 1388 $-1 $166 0 $209 0.8000000000000007105 $159 $210 forward @7 unknown #
DXID-attrib $-1 -1 $-1 $-1 $129 @18 ASM_EDGE_FROM_STEP @3 485 #
vertex $-1 1316 $-1 $129 1 $211 #
straight-curve $-1 -1 $-1 0.6000000000000178524 3.600000000000000089 1.35000000000000453 -2.220446049250313204e-17 -7.709882115452480632e-17 0.1000000000000000056 F -4.5 F 0 #
coedge $-1 -1 $-1 $135 $207 $130 $169 forward $87 0 $-1 #
edge $-1 1384 $-1 $170 -0 $137 3.000000000000000444 $130 $212 forward @7 unknown #
vertex $-1 1315 $-1 $131 1 $213 #
straight-curve $-1 -1 $-1 0.6000000000000178524 3.600000000000000089 0.9000000000000016875 -1 0 0 I I #
point $-1 -1 $-1 0.6000000000000178524 3.600000000000000089 0.9000000000000016875 #
straight-curve $-1 -1 $-1 -0.1999999999999828582 3.299999999999999822 0.9000000000000016875 2.220446049250313204e-17 -7.709882115452480632e-17 -0.1000000000000000056 I I #
point $-1 -1 $-1 -0.1999999999999828582 3.299999999999999822 0.9000000000000016875 #
coedge $-1 -1 $-1 $147 $191 $141 $176 reversed $185 0 $-1 #
edge $-1 1469 $-1 $150 0 $177 0.8000000000000007105 $141 $214 forward @7 unknown #
vertex $-1 1371 $-1 $176 1 $215 #
straight-curve $-1 -1 $-1 -0.1999999999999828582 3 -0.4499999999999961808 2.220446049250313204e-17 0 -0.1000000000000000056 I I #
ATTRIB_CUSTOM-attrib $-1 -1 $-1 $-1 $143 @22 generic_tag_attrib_def 3 3 -1 @23 generic_tag_attrib_def  1 4 @4 5165 0 1 -300 0 #
plane-surface $-1 -1 $-1 0.6000000000000178524 3 0.4500000000000041744 0 1 0 2.220446049250313081e-16 0 -1 forward_v I I I I #
coedge $-1 -1 $-1 $146 $216 $217 $218 forward $74 0 $-1 #
coedge $-1 -1 $-1 $219 $220 $146 $183 reversed $221 0 $-1 #
edge $222 1464 $-1 $223 0 $187 4.5 $146 $224 forward @7 unknown #
coedge $-1 -1 $-1 $191 $147 $220 $225 forward $185 0 $-1 #
loop $-1 -1 $-1 $-1 $147 $226 #
DXID-attrib $-1 -1 $-1 $-1 $148 @18 ASM_EDGE_FROM_STEP @3 565 #
vertex $-1 1368 $-1 $183 1 $227 #
straight-curve $-1 -1 $-1 0.6000000000000178524 3.299999999999999822 -0.4499999999999961808 6.41976648129078937e-33 -0.1000000000000000056 -2.891205793294679929e-17 F 0 F 3.000000000000000444 #
point $-1 -1 $-1 0.6000000000000178524 3 -0.4499999999999961808 #
coedge $-1 -1 $-1 $228 $153 $229 $230 forward $87 0 $-1 #
coedge $-1 -1 $-1 $175 $184 $153 $192 reversed $185 0 $-1 #
edge $-1 1468 $-1 $177 -3.000000000000000444 $231 -0 $191 $232 forward @7 unknown #
ATTRIB_CUSTOM-attrib $-1 -1 $-1 $-1 $155 @22 generic_tag_attrib_def 3 3 -1 @23 generic_tag_attrib_def  1 4 @4 5189 0 1 -300 0 #
face $233 1482 $-1 $234 $235 $6 $-1 $236 forward single #
loop $-1 -1 $-1 $-1 $237 $155 #
plane-surface $-1 -1 $-1 0.6000000000000178524 4.200000000000000178 2.250000000000003109 0 1 0 2.220446049250313081e-16 0 -1 forward_v I I I I #
coedge $-1 -1 $-1 $238 $239 $240 $241 reversed $156 0 $-1 #
coedge $-1 -1 $-1 $242 $158 $160 $203 forward $123 0 $-1 #
coedge $-1 -1 $-1 $158 $242 $238 $243 reversed $123 0 $-1 #
coedge $-1 -1 $-1 $240 $161 $158 $201 forward $74 0 $-1 #
edge $244 1392 $-1 $205 -4.499999999999999112 $245 0 $200 $246 forward @7 unknown #
coedge $-1 -1 $-1 $160 $159 $247 $248 reversed $91 0 $-1 #
edge $-1 1391 $-1 $205 0 $249 0.8000000000000007105 $198 $250 forward @7 unknown #
DXID-attrib $-1 -1 $-1 $-1 $162 @18 ASM_EDGE_FROM_STEP @3 488 #
vertex $-1 1318 $-1 $162 1 $251 #
straight-curve $-1 -1 $-1 0.6000000000000178524 3.899999999999999911 1.35000000000000453 -2.567906592516311369e-32 0.1000000000000000056 1.156482317317869999e-16 F -2.999999999999998224 F 0 #
coedge $-1 -1 $-1 $168 $247 $163 $208 forward $87 0 $-1 #
edge $-1 1387 $-1 $209 -0 $170 4.5 $163 $252 forward @7 unknown #
vertex $-1 1317 $-1 $164 1 $253 #
straight-curve $-1 -1 $-1 0.6000000000000178524 3.600000000000000089 1.35000000000000453 -1 0 0 I I #
point $-1 -1 $-1 0.6000000000000178524 3.600000000000000089 1.35000000000000453 #
straight-curve $-1 -1 $-1 -0.1999999999999828582 3.600000000000000089 0.9000000000000016875 -1.283953296258155684e-32 -0.1000000000000000056 5.782411586589349997e-17 I I #
point $-1 -1 $-1 -0.1999999999999828582 3.600000000000000089 0.9000000000000016875 #
straight-curve $-1 -1 $-1 0.6000000000000178524 3 -0.4499999999999961808 -1 0 0 I I #
point $-1 -1 $-1 -0.1999999999999828582 3 -0.4499999999999961808 #
coedge $-1 -1 $-1 $181 $254 $255 $256 forward $74 0 $-1 #
coedge $-1 -1 $-1 $257 $258 $181 $218 reversed $259 0 $-1 #
edge $260 1461 $-1 $261 0 $223 3.000000000000000444 $181 $262 forward @7 unknown #
coedge $-1 -1 $-1 $229 $182 $258 $263 forward $221 0 $-1 #
coedge $-1 -1 $-1 $182 $229 $184 $225 reversed $221 0 $-1 #
loop $-1 -1 $-1 $-1 $182 $264 #
DXID-attrib $-1 -1 $-1 $-1 $183 @18 ASM_EDGE_FROM_STEP @3 563 #
vertex $-1 1366 $-1 $218 1 $265 #
straight-curve $-1 -1 $-1 0.6000000000000178524 3.299999999999999822 -0.8999999999999954703 -2.220446049250313204e-17 -7.709882115452480632e-17 0.1000000000000000056 F 0 F 4.5 #
edge $-1 1466 $-1 $187 0 $231 0.8000000000000007105 $184 $266 forward @7 unknown #
face $267 1504 $-1 $143 $185 $6 $-1 $268 forward single #
point $-1 -1 $-1 0.6000000000000178524 3.299999999999999822 -0.4499999999999961808 #
coedge $-1 -1 $-1 $269 $190 $270 $271 forward $87 0 $-1 #
coedge $-1 -1 $-1 $220 $219 $190 $230 reversed $221 0 $-1 #
edge $-1 1465 $-1 $231 -4.5 $272 -0 $229 $273 forward @7 unknown #
vertex $-1 1369 $-1 $225 1 $274 #
straight-curve $-1 -1 $-1 -0.1999999999999828582 3.299999999999999822 -0.4499999999999961808 -6.41976648129078937e-33 0.1000000000000000056 2.891205793294679929e-17 I I #
ATTRIB_CUSTOM-attrib $-1 -1 $-1 $-1 $194 @22 generic_tag_attrib_def 3 3 -1 @23 generic_tag_attrib_def  1 4 @4 5188 0 1 -300 0 #
face $275 1483 $-1 $276 $277 $6 $-1 $278 forward single #
loop $-1 -1 $-1 $-1 $279 $194 #
plane-surface $-1 -1 $-1 0.6000000000000178524 4.5 2.250000000000003109 0 1.15648231731786995e-15 -1 2.567906592516311259e-31 -1 -1.15648231731786995e-15 forward_v I I I I #
coedge $-1 -1 $-1 $280 $281 $282 $283 reversed $195 0 $-1 #
coedge $-1 -1 $-1 $284 $197 $199 $243 forward $156 0 $-1 #
coedge $-1 -1 $-1 $197 $284 $280 $285 reversed $156 0 $-1 #
coedge $-1 -1 $-1 $282 $200 $197 $241 forward $74 0 $-1 #
edge $286 1395 $-1 $245 -3.000000000000002665 $287 0 $240 $288 forward @7 unknown #
coedge $-1 -1 $-1 $199 $198 $289 $290 reversed $123 0 $-1 #
edge $-1 1394 $-1 $245 0 $291 0.8000000000000007105 $238 $292 forward @7 unknown #
DXID-attrib $-1 -1 $-1 $-1 $201 @18 ASM_EDGE_FROM_STEP @3 491 #
vertex $-1 1320 $-1 $201 1 $293 #
straight-curve $-1 -1 $-1 0.6000000000000178524 3.899999999999999911 1.800000000000003819 -2.220446049250313204e-17 0 0.1000000000000000056 F -4.499999999999999112 F 0 #
coedge $-1 -1 $-1 $207 $289 $202 $248 forward $87 0 $-1 #
edge $-1 1390 $-1 $249 -0 $209 2.999999999999998224 $202 $294 forward @7 unknown #
vertex $-1 1319 $-1 $203 1 $295 #
straight-curve $-1 -1 $-1 0.6000000000000178524 3.899999999999999911 1.35000000000000453 -1 0 0 I I #
point $-1 -1 $-1 0.6000000000000178524 3.899999999999999911 1.35000000000000453 #
straight-curve $-1 -1 $-1 -0.1999999999999828582 3.600000000000000089 1.35000000000000453 2.220446049250313204e-17 7.709882115452480632e-17 -0.1000000000000000056 I I #
point $-1 -1 $-1 -0.1999999999999828582 3.600000000000000089 1.35000000000000453 #
coedge $-1 -1 $-1 $216 $296 $297 $298 forward $74 0 $-1 #
coedge $-1 -1 $-1 $299 $300 $216 $256 reversed $301 0 $-1 #
edge $302 1458 $-1 $303 0 $261 4.5 $216 $304 forward @7 unknown #
coedge $-1 -1 $-1 $270 $217 $300 $305 forward $259 0 $-1 #
coedge $-1 -1 $-1 $217 $270 $219 $263 reversed $259 0 $-1 #
loop $-1 -1 $-1 $-1 $217 $306 #
DXID-attrib $-1 -1 $-1 $-1 $218 @18 ASM_EDGE_FROM_STEP @3 560 #
vertex $-1 1364 $-1 $256 1 $307 #
straight-curve $-1 -1 $-1 0.6000000000000178524 3.600000000000000089 -0.8999999999999954703 1.283953296258155684e-32 -0.1000000000000000056 -5.782411586589349997e-17 F 0 F 3.000000000000000444 #
edge $-1 1463 $-1 $223 0 $272 0.8000000000000007105 $219 $308 forward @7 unknown #
face $309 1503 $-1 $226 $221 $6 $-1 $310 forward single #
point $-1 -1 $-1 0.6000000000000178524 3.299999999999999822 -0.8999999999999954703 #
straight-curve $-1 -1 $-1 0.6000000000000178524 3.299999999999999822 -0.4499999999999961808 -1 0 0 I I #
ATTRIB_CUSTOM-attrib $-1 -1 $-1 $-1 $226 @22 generic_tag_attrib_def 3 3 -1 @23 generic_tag_attrib_def  1 4 @4 5166 0 1 -300 0 #
plane-surface $-1 -1 $-1 0.6000000000000178524 3 -0.4499999999999961808 0 -2.891205793294679805e-16 1 -6.419766481290789096e-32 1 2.891205793294679805e-16 forward_v I I I I #
coedge $-1 -1 $-1 $311 $228 $312 $313 forward $87 0 $-1 #
coedge $-1 -1 $-1 $258 $257 $228 $271 reversed $259 0 $-1 #
edge $-1 1462 $-1 $272 -3.000000000000000444 $314 -0 $270 $315 forward @7 unknown #
vertex $-1 1367 $-1 $263 1 $316 #
straight-curve $-1 -1 $-1 -0.1999999999999828582 3.299999999999999822 -0.8999999999999954703 2.220446049250313204e-17 7.709882115452480632e-17 -0.1000000000000000056 I I #
point $-1 -1 $-1 -0.1999999999999828582 3.299999999999999822 -0.4499999999999961808 #
ATTRIB_CUSTOM-attrib $-1 -1 $-1 $-1 $234 @22 generic_tag_attrib_def 3 3 -1 @23 generic_tag_attrib_def  1 4 @4 5187 0 1 -300 0 #
face $317 1484 $-1 $318 $319 $6 $-1 $320 forward single #
loop $-1 -1 $-1 $-1 $321 $234 #
plane-surface $-1 -1 $-1 0.6000000000000178524 4.5 2.700000000000002398 0 1 0 2.220446049250313081e-16 0 -1 forward_v I I I I #
coedge $-1 -1 $-1 $322 $323 $324 $325 reversed $235 0 $-1 #
coedge $-1 -1 $-1 $326 $237 $239 $285 forward $195 0 $-1 #
coedge $-1 -1 $-1 $237 $326 $322 $327 reversed $195 0 $-1 #
coedge $-1 -1 $-1 $324 $240 $237 $283 forward $74 0 $-1 #
edge $328 1398 $-1 $287 -4.499999999999999112 $329 0 $282 $330 forward @7 unknown #
coedge $-1 -1 $-1 $239 $238 $331 $332 reversed $156 0 $-1 #
edge $-1 1397 $-1 $287 0 $333 0.8000000000000007105 $280 $334 forward @7 unknown #
DXID-attrib $-1 -1 $-1 $-1 $241 @18 ASM_EDGE_FROM_STEP @3 494 #
vertex $-1 1322 $-1 $241 1 $335 #
straight-curve $-1 -1 $-1 0.6000000000000178524 4.200000000000000178 1.800000000000003819 0 0.1000000000000000056 0 F -3.000000000000002665 F 0 #
coedge $-1 -1 $-1 $247 $331 $242 $290 forward $87 0 $-1 #
edge $-1 1393 $-1 $291 -0 $249 4.499999999999999112 $242 $336 forward @7 unknown #
vertex $-1 1321 $-1 $243 1 $337 #
straight-curve $-1 -1 $-1 0.6000000000000178524 3.899999999999999911 1.800000000000003819 -1 0 0 I I #
point $-1 -1 $-1 0.6000000000000178524 3.899999999999999911 1.800000000000003819 #
straight-curve $-1 -1 $-1 -0.1999999999999828582 3.899999999999999911 1.35000000000000453 2.567906592516311369e-32 -0.1000000000000000056 -1.156482317317869999e-16 I I #
point $-1 -1 $-1 -0.1999999999999828582 3.899999999999999911 1.35000000000000453 #
coedge $-1 -1 $-1 $254 $338 $339 $340 forward $74 0 $-1 #
coedge $-1 -1 $-1 $341 $342 $254 $298 reversed $343 0 $-1 #
edge $344 1455 $-1 $345 0 $303 2.999999999999998224 $254 $346 forward @7 unknown #
coedge $-1 -1 $-1 $312 $255 $342 $347 forward $301 0 $-1 #
coedge $-1 -1 $-1 $255 $312 $257 $305 reversed $301 0 $-1 #
loop $-1 -1 $-1 $-1 $255 $348 #
DXID-attrib $-1 -1 $-1 $-1 $256 @18 ASM_EDGE_FROM_STEP @3 557 #
vertex $-1 1362 $-1 $298 1 $349 #
straight-curve $-1 -1 $-1 0.6000000000000178524 3.600000000000000089 -1.349999999999998312 -2.220446049250313204e-17 7.709882115452480632e-17 0.1000000000000000056 F 0 F 4.5 #
edge $-1 1460 $-1 $261 0 $314 0.8000000000000007105 $257 $350 forward @7 unknown #
face $351 1502 $-1 $264 $259 $6 $-1 $352 forward single #
point $-1 -1 $-1 0.6000000000000178524 3.600000000000000089 -0.8999999999999954703 #
straight-curve $-1 -1 $-1 0.6000000000000178524 3.299999999999999822 -0.8999999999999954703 -1 0 0 I I #
ATTRIB_CUSTOM-attrib $-1 -1 $-1 $-1 $264 @22 generic_tag_attrib_def 3 3 -1 @23 generic_tag_attrib_def  1 4 @4 5167 0 1 -300 0 #
plane-surface $-1 -1 $-1 0.6000000000000178524 3.299999999999999822 -0.4499999999999961808 0 1 7.709882115452480139e-16 2.220446049250313081e-16 7.709882115452480139e-16 -1 forward_v I I I I #
coedge $-1 -1 $-1 $353 $269 $354 $355 forward $87 0 $-1 #
coedge $-1 -1 $-1 $300 $299 $269 $313 reversed $301 0 $-1 #
edge $-1 1459 $-1 $314 -4.5 $356 -0 $312 $357 forward @7 unknown #
vertex $-1 1365 $-1 $305 1 $358 #
straight-curve $-1 -1 $-1 -0.1999999999999828582 3.600000000000000089 -0.8999999999999954703 -1.283953296258155684e-32 0.1000000000000000056 5.782411586589349997e-17 I I #
point $-1 -1 $-1 -0.1999999999999828582 3.299999999999999822 -0.8999999999999954703 #
ATTRIB_CUSTOM-attrib $-1 -1 $-1 $-1 $276 @22 generic_tag_attrib_def 3 3 -1 @23 generic_tag_attrib_def  1 4 @4 5186 0 1 -300 0 #
face $359 1485 $-1 $360 $361 $6 $-1 $362 forward single #
loop $-1 -1 $-1 $-1 $363 $276 #
plane-surface $-1 -1 $-1 0.6000000000000178524 4.800000000000000711 2.700000000000002398 0 0 -1 -0 -1 -0 forward_v I I I I #
coedge $-1 -1 $-1 $364 $365 $366 $367 reversed $277 0 $-1 #
coedge $-1 -1 $-1 $368 $279 $281 $327 forward $235 0 $-1 #
coedge $-1 -1 $-1 $279 $368 $364 $369 reversed $235 0 $-1 #
coedge $-1 -1 $-1 $366 $282 $279 $325 forward $74 0 $-1 #
edge $370 1401 $-1 $329 -2.999999999999998224 $371 0 $324 $372 forward @7 unknown #
coedge $-1 -1 $-1 $281 $280 $373 $374 reversed $195 0 $-1 #
edge $-1 1400 $-1 $329 0 $375 0.8000000000000007105 $322 $376 forward @7 unknown #
DXID-attrib $-1 -1 $-1 $-1 $283 @18 ASM_EDGE_FROM_STEP @3 497 #
vertex $-1 1324 $-1 $283 1 $377 #
straight-curve $-1 -1 $-1 0.6000000000000178524 4.200000000000000178 2.250000000000003109 -2.220446049250313204e-17 0 0.1000000000000000056 F -4.499999999999999112 F 0 #
coedge $-1 -1 $-1 $289 $373 $284 $332 forward $87 0 $-1 #
edge $-1 1396 $-1 $333 -0 $291 3.000000000000002665 $284 $378 forward @7 unknown #
vertex $-1 1323 $-1 $285 1 $379 #
straight-curve $-1 -1 $-1 0.6000000000000178524 4.200000000000000178 1.800000000000003819 -1 0 0 I I #
point $-1 -1 $-1 0.6000000000000178524 4.200000000000000178 1.800000000000003819 #
straight-curve $-1 -1 $-1 -0.1999999999999828582 3.899999999999999911 1.800000000000003819 2.220446049250313204e-17 0 -0.1000000000000000056 I I #
point $-1 -1 $-1 -0.1999999999999828582 3.899999999999999911 1.800000000000003819 #
coedge $-1 -1 $-1 $296 $380 $381 $382 forward $74 0 $-1 #
coedge $-1 -1 $-1 $383 $384 $296 $340 reversed $385 0 $-1 #
edge $386 1452 $-1 $387 0 $345 4.499999999999999112 $296 $388 forward @7 unknown #
coedge $-1 -1 $-1 $354 $297 $384 $389 forward $343 0 $-1 #
coedge $-1 -1 $-1 $297 $354 $299 $347 reversed $343 0 $-1 #
loop $-1 -1 $-1 $-1 $297 $390 #
DXID-attrib $-1 -1 $-1 $-1 $298 @18 ASM_EDGE_FROM_STEP @3 554 #
vertex $-1 1360 $-1 $340 1 $391 #
straight-curve $-1 -1 $-1 0.6000000000000178524 3.899999999999999911 -1.349999999999998312 -2.567906592516311369e-32 -0.1000000000000000056 1.156482317317869999e-16 F 0 F 2.999999999999998224 #
edge $-1 1457 $-1 $303 0 $356 0.8000000000000007105 $299 $392 forward @7 unknown #
face $393 1501 $-1 $306 $301 $6 $-1 $394 forward single #
point $-1 -1 $-1 0.6000000000000178524 3.600000000000000089 -1.349999999999998312 #
straight-curve $-1 -1 $-1 0.6000000000000178524 3.600000000000000089 -0.8999999999999954703 -1 0 0 I I #
ATTRIB_CUSTOM-attrib $-1 -1 $-1 $-1 $306 @22 generic_tag_attrib_def 3 3 -1 @23 generic_tag_attrib_def  1 4 @4 5168 0 1 -300 0 #
plane-surface $-1 -1 $-1 0.6000000000000178524 3.299999999999999822 -0.8999999999999954703 0 -5.78241158658934975e-16 1 -1.28395329625815563e-31 1 5.78241158658934975e-16 forward_v I I I I #
coedge $-1 -1 $-1 $395 $311 $396 $397 forward $87 0 $-1 #
coedge $-1 -1 $-1 $342 $341 $311 $355 reversed $343 0 $-1 #
edge $-1 1456 $-1 $356 -2.999999999999998224 $398 -0 $354 $399 forward @7 unknown #
vertex $-1 1363 $-1 $347 1 $400 #
straight-curve $-1 -1 $-1 -0.1999999999999828582 3.600000000000000089 -1.349999999999998312 2.220446049250313204e-17 -7.709882115452480632e-17 -0.1000000000000000056 I I #
point $-1 -1 $-1 -0.1999999999999828582 3.600000000000000089 -0.8999999999999954703 #
ATTRIB_CUSTOM-attrib $-1 -1 $-1 $-1 $318 @22 generic_tag_attrib_def 3 3 -1 @23 generic_tag_attrib_def  1 4 @4 5185 0 1 -300 0 #
face $401 1486 $-1 $402 $403 $6 $-1 $404 forward single #
loop $-1 -1 $-1 $-1 $405 $318 #
plane-surface $-1 -1 $-1 0.6000000000000178524 4.800000000000000711 3.150000000000001688 0 1 0 2.220446049250313081e-16 0 -1 forward_v I I I I #
coedge $-1 -1 $-1 $406 $407 $408 $409 reversed $319 0 $-1 #
coedge $-1 -1 $-1 $410 $321 $323 $369 forward $277 0 $-1 #
coedge $-1 -1 $-1 $321 $410 $406 $411 reversed $277 0 $-1 #
coedge $-1 -1 $-1 $408 $324 $321 $367 forward $74 0 $-1 #
edge $412 1404 $-1 $371 -4.500000000000001776 $413 0 $366 $414 forward @7 unknown #
coedge $-1 -1 $-1 $323 $322 $415 $416 reversed $235 0 $-1 #
edge $-1 1403 $-1 $371 0 $417 0.8000000000000007105 $364 $418 forward @7 unknown #
DXID-attrib $-1 -1 $-1 $-1 $325 @18 ASM_EDGE_FROM_STEP @3 500 #
vertex $-1 1326 $-1 $325 1 $419 #
straight-curve $-1 -1 $-1 0.6000000000000178524 4.5 2.250000000000003109 -2.567906592516311369e-32 0.1000000000000000056 1.156482317317869999e-16 F -2.999999999999998224 F 0 #
coedge $-1 -1 $-1 $331 $415 $326 $374 forward $87 0 $-1 #
edge $-1 1399 $-1 $375 -0 $333 4.499999999999999112 $326 $420 forward @7 unknown #
vertex $-1 1325 $-1 $327 1 $421 #
straight-curve $-1 -1 $-1 0.6000000000000178524 4.200000000000000178 2.250000000000003109 -1 0 0 I I #
point $-1 -1 $-1 0.6000000000000178524 4.200000000000000178 2.250000000000003109 #
straight-curve $-1 -1 $-1 -0.1999999999999828582 4.200000000000000178 1.800000000000003819 -0 -0.1000000000000000056 -0 I I #
point $-1 -1 $-1 -0.1999999999999828582 4.200000000000000178 1.800000000000003819 #
coedge $-1 -1 $-1 $338 $422 $423 $424 forward $74 0 $-1 #
coedge $-1 -1 $-1 $425 $426 $338 $382 reversed $427 0 $-1 #
edge $428 1449 $-1 $429 0 $387 3.000000000000002665 $338 $430 forward @7 unknown #
coedge $-1 -1 $-1 $396 $339 $426 $431 forward $385 0 $-1 #
coedge $-1 -1 $-1 $339 $396 $341 $389 reversed $385 0 $-1 #
loop $-1 -1 $-1 $-1 $339 $432 #
DXID-attrib $-1 -1 $-1 $-1 $340 @18 ASM_EDGE_FROM_STEP @3 551 #
vertex $-1 1358 $-1 $382 1 $433 #
straight-curve $-1 -1 $-1 0.6000000000000178524 3.899999999999999911 -1.799999999999997602 -2.220446049250313204e-17 0 0.1000000000000000056 F 0 F 4.499999999999999112 #
edge $-1 1454 $-1 $345 0 $398 0.8000000000000007105 $341 $434 forward @7 unknown #
face $435 1500 $-1 $348 $343 $6 $-1 $436 forward single #
point $-1 -1 $-1 0.6000000000000178524 3.899999999999999911 -1.349999999999998312 #
straight-curve $-1 -1 $-1 0.6000000000000178524 3.600000000000000089 -1.349999999999998312 -1 0 0 I I #
ATTRIB_CUSTOM-attrib $-1 -1 $-1 $-1 $348 @22 generic_tag_attrib_def 3 3 -1 @23 generic_tag_attrib_def  1 4 @4 5169 0 1 -300 0 #
plane-surface $-1 -1 $-1 0.6000000000000178524 3.600000000000000533 -0.899999999999999023 0 1 -7.709882115452480139e-16 2.220446049250313081e-16 -7.709882115452480139e-16 -1 forward_v I I I I #
coedge $-1 -1 $-1 $437 $353 $438 $439 forward $87 0 $-1 #
coedge $-1 -1 $-1 $384 $383 $353 $397 reversed $385 0 $-1 #
edge $-1 1453 $-1 $398 -4.499999999999999112 $440 -0 $396 $441 forward @7 unknown #
vertex $-1 1361 $-1 $389 1 $442 #
straight-curve $-1 -1 $-1 -0.1999999999999828582 3.899999999999999911 -1.349999999999998312 2.567906592516311369e-32 0.1000000000000000056 -1.156482317317869999e-16 I I #
point $-1 -1 $-1 -0.1999999999999828582 3.600000000000000089 -1.349999999999998312 #
ATTRIB_CUSTOM-attrib $-1 -1 $-1 $-1 $360 @22 generic_tag_attrib_def 3 3 -1 @23 generic_tag_attrib_def  1 4 @4 5184 0 1 -300 0 #
face $443 1487 $-1 $444 $445 $6 $-1 $446 forward single #
loop $-1 -1 $-1 $-1 $447 $360 #
plane-surface $-1 -1 $-1 0.6000000000000178524 5.099999999999999645 3.150000000000001688 0 0 -1 -0 -1 -0 forward_v I I I I #
coedge $-1 -1 $-1 $448 $449 $450 $451 reversed $361 0 $-1 #
coedge $-1 -1 $-1 $452 $363 $365 $411 forward $319 0 $-1 #
coedge $-1 -1 $-1 $363 $452 $448 $453 reversed $319 0 $-1 #
coedge $-1 -1 $-1 $450 $366 $363 $409 forward $74 0 $-1 #
edge $454 1407 $-1 $413 -3.000000000000002665 $455 0 $408 $456 forward @7 unknown #
coedge $-1 -1 $-1 $365 $364 $457 $458 reversed $277 0 $-1 #
edge $-1 1406 $-1 $413 0 $459 0.8000000000000007105 $406 $460 forward @7 unknown #
DXID-attrib $-1 -1 $-1 $-1 $367 @18 ASM_EDGE_FROM_STEP @3 503 #
vertex $-1 1328 $-1 $367 1 $461 #
straight-curve $-1 -1 $-1 0.6000000000000178524 4.5 2.700000000000002398 -2.220446049250313204e-17 0 0.1000000000000000056 F -4.500000000000001776 F 0 #
coedge $-1 -1 $-1 $373 $457 $368 $416 forward $87 0 $-1 #
edge $-1 1402 $-1 $417 -0 $375 2.999999999999998224 $368 $462 forward @7 unknown #
vertex $-1 1327 $-1 $369 1 $463 #
straight-curve $-1 -1 $-1 0.6000000000000178524 4.5 2.250000000000003109 -1 0 0 I I #
point $-1 -1 $-1 0.6000000000000178524 4.5 2.250000000000003109 #
straight-curve $-1 -1 $-1 -0.1999999999999828582 4.200000000000000178 2.250000000000003109 2.220446049250313204e-17 0 -0.1000000000000000056 I I #
point $-1 -1 $-1 -0.1999999999999828582 4.200000000000000178 2.250000000000003109 #
coedge $-1 -1 $-1 $380 $464 $465 $466 forward $74 0 $-1 #
coedge $-1 -1 $-1 $467 $468 $380 $424 reversed $469 0 $-1 #
edge $470 1446 $-1 $471 0 $429 4.499999999999999112 $380 $472 forward @7 unknown #
coedge $-1 -1 $-1 $438 $381 $468 $473 forward $427 0 $-1 #
coedge $-1 -1 $-1 $381 $438 $383 $431 reversed $427 0 $-1 #
loop $-1 -1 $-1 $-1 $381 $474 #
DXID-attrib $-1 -1 $-1 $-1 $382 @18 ASM_EDGE_FROM_STEP @3 548 #
vertex $-1 1356 $-1 $424 1 $475 #
straight-curve $-1 -1 $-1 0.6000000000000178524 4.200000000000000178 -1.799999999999997602 0 -0.1000000000000000056 0 F 0 F 3.000000000000002665 #
edge $-1 1451 $-1 $387 0 $440 0.8000000000000007105 $383 $476 forward @7 unknown #
face $477 1499 $-1 $390 $385 $6 $-1 $478 forward single #
point $-1 -1 $-1 0.6000000000000178524 3.899999999999999911 -1.799999999999997602 #
straight-curve $-1 -1 $-1 0.6000000000000178524 3.899999999999999911 -1.349999999999998312 -1 0 0 I I #
ATTRIB_CUSTOM-attrib $-1 -1 $-1 $-1 $390 @22 generic_tag_attrib_def 3 3 -1 @23 generic_tag_attrib_def  1 4 @4 5170 0 1 -300 0 #
plane-surface $-1 -1 $-1 0.6000000000000178524 3.600000000000000089 -1.349999999999998312 0 1.15648231731786995e-15 1 2.567906592516311259e-31 1 -1.15648231731786995e-15 forward_v I I I I #
coedge $-1 -1 $-1 $479 $395 $480 $481 forward $87 0 $-1 #
coedge $-1 -1 $-1 $426 $425 $395 $439 reversed $427 0 $-1 #
edge $-1 1450 $-1 $440 -3.000000000000002665 $482 -0 $438 $483 forward @7 unknown #
vertex $-1 1359 $-1 $431 1 $484 #
straight-curve $-1 -1 $-1 -0.1999999999999828582 3.899999999999999911 -1.799999999999997602 2.220446049250313204e-17 0 -0.1000000000000000056 I I #
point $-1 -1 $-1 -0.1999999999999828582 3.899999999999999911 -1.349999999999998312 #
ATTRIB_CUSTOM-attrib $-1 -1 $-1 $-1 $402 @22 generic_tag_attrib_def 3 3 -1 @23 generic_tag_attrib_def  1 4 @4 5183 0 1 -300 0 #
face $485 1488 $-1 $486 $487 $6 $-1 $488 forward single #
loop $-1 -1 $-1 $-1 $489 $402 #
plane-surface $-1 -1 $-1 0.6000000000000178524 5.099999999999999645 3.500000000000003109 0 1 1.98254111540207004e-15 2.220446049250313081e-16 1.98254111540207004e-15 -1 forward_v I I I I #
coedge $-1 -1 $-1 $490 $491 $492 $493 reversed $403 0 $-1 #
coedge $-1 -1 $-1 $494 $405 $407 $453 forward $361 0 $-1 #
coedge $-1 -1 $-1 $405 $494 $490 $495 reversed $361 0 $-1 #
coedge $-1 -1 $-1 $492 $408 $405 $451 forward $74 0 $-1 #
edge $496 1410 $-1 $455 -4.500000000000001776 $497 0 $450 $498 forward @7 unknown #
coedge $-1 -1 $-1 $407 $406 $499 $500 reversed $319 0 $-1 #
edge $-1 1409 $-1 $455 0 $501 0.8000000000000007105 $448 $502 forward @7 unknown #
DXID-attrib $-1 -1 $-1 $-1 $409 @18 ASM_EDGE_FROM_STEP @3 506 #
vertex $-1 1330 $-1 $409 1 $503 #
straight-curve $-1 -1 $-1 0.6000000000000178524 4.800000000000000711 2.700000000000002398 0 0.1000000000000000056 0 F -3.000000000000002665 F 0 #
coedge $-1 -1 $-1 $415 $499 $410 $458 forward $87 0 $-1 #
edge $-1 1405 $-1 $459 -0 $417 4.500000000000001776 $410 $504 forward @7 unknown #
vertex $-1 1329 $-1 $411 1 $505 #
straight-curve $-1 -1 $-1 0.6000000000000178524 4.5 2.700000000000002398 -1 0 0 I I #
point $-1 -1 $-1 0.6000000000000178524 4.5 2.700000000000002398 #
straight-curve $-1 -1 $-1 -0.1999999999999828582 4.5 2.250000000000003109 2.567906592516311369e-32 -0.1000000000000000056 -1.156482317317869999e-16 I I #
point $-1 -1 $-1 -0.1999999999999828582 4.5 2.250000000000003109 #
coedge $-1 -1 $-1 $422 $506 $507 $508 forward $74 0 $-1 #
coedge $-1 -1 $-1 $509 $510 $422 $466 reversed $511 0 $-1 #
edge $512 1443 $-1 $513 0 $471 2.999999999999998224 $422 $514 forward @7 unknown #
coedge $-1 -1 $-1 $480 $423 $510 $515 forward $469 0 $-1 #
coedge $-1 -1 $-1 $423 $480 $425 $473 reversed $469 0 $-1 #
loop $-1 -1 $-1 $-1 $423 $516 #
DXID-attrib $-1 -1 $-1 $-1 $424 @18 ASM_EDGE_FROM_STEP @3 545 #
vertex $-1 1354 $-1 $466 1 $517 #
straight-curve $-1 -1 $-1 0.6000000000000178524 4.200000000000000178 -2.249999999999996891 -2.220446049250313204e-17 0 0.1000000000000000056 F 0 F 4.499999999999999112 #
edge $-1 1448 $-1 $429 0 $482 0.8000000000000007105 $425 $518 forward @7 unknown #
face $519 1498 $-1 $432 $427 $6 $-1 $520 forward single #
point $-1 -1 $-1 0.6000000000000178524 4.200000000000000178 -1.799999999999997602 #
straight-curve $-1 -1 $-1 0.6000000000000178524 3.899999999999999911 -1.799999999999997602 -1 0 0 I I #
ATTRIB_CUSTOM-attrib $-1 -1 $-1 $-1 $432 @22 generic_tag_attrib_def 3 3 -1 @23 generic_tag_attrib_def  1 4 @4 5171 0 1 -300 0 #
plane-surface $-1 -1 $-1 0.6000000000000178524 3.899999999999999911 -1.349999999999998312 0 1 0 2.220446049250313081e-16 0 -1 forward_v I I I I #
coedge $-1 -1 $-1 $521 $437 $522 $523 forward $87 0 $-1 #
coedge $-1 -1 $-1 $468 $467 $437 $481 reversed $469 0 $-1 #
edge $-1 1447 $-1 $482 -4.499999999999999112 $524 -0 $480 $525 forward @7 unknown #
vertex $-1 1357 $-1 $473 1 $526 #
straight-curve $-1 -1 $-1 -0.1999999999999828582 4.200000000000000178 -1.799999999999997602 0 0.1000000000000000056 0 I I #
point $-1 -1 $-1 -0.1999999999999828582 3.899999999999999911 -1.799999999999997602 #
ATTRIB_CUSTOM-attrib $-1 -1 $-1 $-1 $444 @22 generic_tag_attrib_def 3 3 -1 @23 generic_tag_attrib_def  1 4 @4 5182 0 1 -300 0 #
face $527 1489 $-1 $528 $529 $6 $-1 $530 forward single #
loop $-1 -1 $-1 $-1 $531 $444 #
plane-surface $-1 -1 $-1 0.6000000000000178524 1.399999999999999023 3.500000000000003109 0 0 1 0 1 0 forward_v I I I I #
coedge $-1 -1 $-1 $532 $533 $534 $535 reversed $445 0 $-1 #
coedge $-1 -1 $-1 $536 $447 $449 $495 forward $403 0 $-1 #
coedge $-1 -1 $-1 $447 $536 $532 $537 reversed $403 0 $-1 #
coedge $-1 -1 $-1 $534 $450 $447 $493 forward $74 0 $-1 #
edge $538 1413 $-1 $497 -2.999999999999998224 $539 0 $492 $540 forward @7 unknown #
coedge $-1 -1 $-1 $449 $448 $541 $542 reversed $361 0 $-1 #
edge $-1 1412 $-1 $497 0 $543 0.8000000000000007105 $490 $544 forward @7 unknown #
DXID-attrib $-1 -1 $-1 $-1 $451 @18 ASM_EDGE_FROM_STEP @3 509 #
vertex $-1 1332 $-1 $451 1 $545 #
straight-curve $-1 -1 $-1 0.6000000000000178524 4.800000000000000711 3.150000000000001688 -2.220446049250313204e-17 0 0.1000000000000000056 F -4.500000000000001776 F 0 #
coedge $-1 -1 $-1 $457 $541 $452 $500 forward $87 0 $-1 #
edge $-1 1408 $-1 $501 -0 $459 3.000000000000002665 $452 $546 forward @7 unknown #
vertex $-1 1331 $-1 $453 1 $547 #
straight-curve $-1 -1 $-1 0.6000000000000178524 4.800000000000000711 2.700000000000002398 -1 0 0 I I #
point $-1 -1 $-1 0.6000000000000178524 4.800000000000000711 2.700000000000002398 #
straight-curve $-1 -1 $-1 -0.1999999999999828582 4.5 2.700000000000002398 2.220446049250313204e-17 0 -0.1000000000000000056 I I #
point $-1 -1 $-1 -0.1999999999999828582 4.5 2.700000000000002398 #
coedge $-1 -1 $-1 $464 $548 $549 $550 forward $74 0 $-1 #
coedge $-1 -1 $-1 $551 $552 $464 $508 reversed $553 0 $-1 #
edge $554 1440 $-1 $555 0 $513 4.500000000000001776 $464 $556 forward @7 unknown #
coedge $-1 -1 $-1 $522 $465 $552 $557 forward $511 0 $-1 #
coedge $-1 -1 $-1 $465 $522 $467 $515 reversed $511 0 $-1 #
loop $-1 -1 $-1 $-1 $465 $558 #
DXID-attrib $-1 -1 $-1 $-1 $466 @18 ASM_EDGE_FROM_STEP @3 542 #
vertex $-1 1352 $-1 $508 1 $559 #
straight-curve $-1 -1 $-1 0.6000000000000178524 4.5 -2.249999999999996891 -2.567906592516311369e-32 -0.1000000000000000056 1.156482317317869999e-16 F 0 F 2.999999999999998224 #
edge $-1 1445 $-1 $471 0 $524 0.8000000000000007105 $467 $560 forward @7 unknown #
face $561 1497 $-1 $474 $469 $6 $-1 $562 forward single #
point $-1 -1 $-1 0.6000000000000178524 4.200000000000000178 -2.249999999999996891 #
straight-curve $-1 -1 $-1 0.6000000000000178524 4.200000000000000178 -1.799999999999997602 -1 0 0 I I #
ATTRIB_CUSTOM-attrib $-1 -1 $-1 $-1 $474 @22 generic_tag_attrib_def 3 3 -1 @23 generic_tag_attrib_def  1 4 @4 5172 0 1 -300 0 #
plane-surface $-1 -1 $-1 0.6000000000000178524 3.899999999999999911 -1.799999999999997602 0 0 1 0 1 0 forward_v I I I I #
coedge $-1 -1 $-1 $563 $479 $564 $565 forward $87 0 $-1 #
coedge $-1 -1 $-1 $510 $509 $479 $523 reversed $511 0 $-1 #
edge $-1 1444 $-1 $524 -2.999999999999998224 $566 -0 $522 $567 forward @7 unknown #
vertex $-1 1355 $-1 $515 1 $568 #
straight-curve $-1 -1 $-1 -0.1999999999999828582 4.200000000000000178 -2.249999999999996891 2.220446049250313204e-17 0 -0.1000000000000000056 I I #
point $-1 -1 $-1 -0.1999999999999828582 4.200000000000000178 -1.799999999999997602 #
ATTRIB_CUSTOM-attrib $-1 -1 $-1 $-1 $486 @22 generic_tag_attrib_def 3 3 -1 @23 generic_tag_attrib_def  1 4 @4 5181 0 1 -300 0 #
face $569 1490 $-1 $570 $571 $6 $-1 $572 forward single #
loop $-1 -1 $-1 $-1 $573 $486 #
plane-surface $-1 -1 $-1 0.6000000000000178524 1.399999999999999467 -3.499999999999996891 -0 -1 -0 -2.220446049250313081e-16 0 1 forward_v I I I I #
coedge $-1 -1 $-1 $574 $575 $576 $577 reversed $487 0 $-1 #
coedge $-1 -1 $-1 $578 $489 $491 $537 forward $445 0 $-1 #
coedge $-1 -1 $-1 $489 $578 $574 $579 reversed $445 0 $-1 #
coedge $-1 -1 $-1 $576 $492 $489 $535 forward $74 0 $-1 #
edge $580 1416 $-1 $539 -3.499999999999996447 $581 0 $534 $582 forward @7 unknown #
coedge $-1 -1 $-1 $491 $490 $583 $584 reversed $403 0 $-1 #
edge $-1 1415 $-1 $539 0 $585 0.8000000000000007105 $532 $586 forward @7 unknown #
DXID-attrib $-1 -1 $-1 $-1 $493 @18 ASM_EDGE_FROM_STEP @3 512 #
vertex $-1 1334 $-1 $493 1 $587 #
straight-curve $-1 -1 $-1 0.6000000000000178524 5.099999999999999645 3.150000000000001688 0 0.1000000000000000056 0 F -2.999999999999998224 F 0 #
coedge $-1 -1 $-1 $499 $583 $494 $542 forward $87 0 $-1 #
edge $-1 1411 $-1 $543 -0 $501 4.500000000000001776 $494 $588 forward @7 unknown #
vertex $-1 1333 $-1 $495 1 $589 #
straight-curve $-1 -1 $-1 0.6000000000000178524 4.800000000000000711 3.150000000000001688 -1 0 0 I I #
point $-1 -1 $-1 0.6000000000000178524 4.800000000000000711 3.150000000000001688 #
straight-curve $-1 -1 $-1 -0.1999999999999828582 4.800000000000000711 2.700000000000002398 -0 -0.1000000000000000056 -0 I I #
point $-1 -1 $-1 -0.1999999999999828582 4.800000000000000711 2.700000000000002398 #
coedge $-1 -1 $-1 $506 $590 $591 $592 forward $74 0 $-1 #
coedge $-1 -1 $-1 $593 $594 $506 $550 reversed $595 0 $-1 #
edge $596 1437 $-1 $597 0 $555 3.000000000000002665 $506 $598 forward @7 unknown #
coedge $-1 -1 $-1 $564 $507 $594 $599 forward $553 0 $-1 #
coedge $-1 -1 $-1 $507 $564 $509 $557 reversed $553 0 $-1 #
loop $-1 -1 $-1 $-1 $507 $600 #
DXID-attrib $-1 -1 $-1 $-1 $508 @18 ASM_EDGE_FROM_STEP @3 539 #
vertex $-1 1350 $-1 $550 1 $601 #
straight-curve $-1 -1 $-1 0.6000000000000178524 4.5 -2.699999999999996181 -2.220446049250313204e-17 0 0.1000000000000000056 F 0 F 4.500000000000001776 #
edge $-1 1442 $-1 $513 0 $566 0.8000000000000007105 $509 $602 forward @7 unknown #
face $603 1496 $-1 $516 $511 $6 $-1 $604 forward single #
point $-1 -1 $-1 0.6000000000000178524 4.5 -2.249999999999996891 #
straight-curve $-1 -1 $-1 0.6000000000000178524 4.200000000000000178 -2.249999999999996891 -1 0 0 I I #
ATTRIB_CUSTOM-attrib $-1 -1 $-1 $-1 $516 @22 generic_tag_attrib_def 3 3 -1 @23 generic_tag_attrib_def  1 4 @4 5173 0 1 -300 0 #
plane-surface $-1 -1 $-1 0.6000000000000178524 4.200000000000000178 -1.799999999999997602 0 1 0 2.220446049250313081e-16 0 -1 forward_v I I I I #
coedge $-1 -1 $-1 $605 $521 $606 $607 forward $87 0 $-1 #
coedge $-1 -1 $-1 $552 $551 $521 $565 reversed $553 0 $-1 #
edge $-1 1441 $-1 $566 -4.500000000000001776 $608 -0 $564 $609 forward @7 unknown #
vertex $-1 1353 $-1 $557 1 $610 #
straight-curve $-1 -1 $-1 -0.1999999999999828582 4.5 -2.249999999999996891 2.567906592516311369e-32 0.1000000000000000056 -1.156482317317869999e-16 I I #
point $-1 -1 $-1 -0.1999999999999828582 4.200000000000000178 -2.249999999999996891 #
ATTRIB_CUSTOM-attrib $-1 -1 $-1 $-1 $528 @22 generic_tag_attrib_def 3 3 -1 @23 generic_tag_attrib_def  1 4 @4 5180 0 1 -300 0 #
face $611 1491 $-1 $612 $613 $6 $-1 $614 forward single #
loop $-1 -1 $-1 $-1 $615 $528 #
plane-surface $-1 -1 $-1 0.6000000000000178524 5.100000000000000533 -3.499999999999996891 -0 -3.750753461571470015e-16 -1 -8.32834570545830658e-32 -1 3.750753461571470015e-16 forward_v I I I I #
coedge $-1 -1 $-1 $616 $617 $618 $619 reversed $529 0 $-1 #
coedge $-1 -1 $-1 $620 $531 $533 $579 forward $487 0 $-1 #
coedge $-1 -1 $-1 $531 $620 $616 $621 reversed $487 0 $-1 #
coedge $-1 -1 $-1 $618 $534 $531 $577 forward $74 0 $-1 #
edge $622 1419 $-1 $581 0 $623 37.00000000000000711 $576 $624 forward @7 unknown #
coedge $-1 -1 $-1 $533 $532 $625 $626 reversed $445 0 $-1 #
edge $-1 1418 $-1 $581 0 $627 0.8000000000000007105 $574 $628 forward @7 unknown #
DXID-attrib $-1 -1 $-1 $-1 $535 @18 ASM_EDGE_FROM_STEP @3 515 #
vertex $-1 1336 $-1 $535 1 $629 #
straight-curve $-1 -1 $-1 0.6000000000000178524 5.099999999999999645 3.500000000000003109 -2.220446049250313204e-17 -1.98254111540207004e-16 0.1000000000000000056 F -3.499999999999996447 F 0 #
coedge $-1 -1 $-1 $541 $625 $536 $584 forward $87 0 $-1 #
edge $-1 1414 $-1 $585 -0 $543 2.999999999999998224 $536 $630 forward @7 unknown #
vertex $-1 1335 $-1 $537 1 $631 #
straight-curve $-1 -1 $-1 0.6000000000000178524 5.099999999999999645 3.150000000000001688 -1 0 0 I I #
point $-1 -1 $-1 0.6000000000000178524 5.099999999999999645 3.150000000000001688 #
straight-curve $-1 -1 $-1 -0.1999999999999828582 4.800000000000000711 3.150000000000001688 2.220446049250313204e-17 0 -0.1000000000000000056 I I #
point $-1 -1 $-1 -0.1999999999999828582 4.800000000000000711 3.150000000000001688 #
coedge $-1 -1 $-1 $548 $632 $633 $634 forward $74 0 $-1 #
coedge $-1 -1 $-1 $635 $636 $548 $592 reversed $637 0 $-1 #
edge $638 1434 $-1 $639 0 $597 4.500000000000001776 $548 $640 forward @7 unknown #
coedge $-1 -1 $-1 $606 $549 $636 $641 forward $595 0 $-1 #
coedge $-1 -1 $-1 $549 $606 $551 $599 reversed $595 0 $-1 #
loop $-1 -1 $-1 $-1 $549 $642 #
DXID-attrib $-1 -1 $-1 $-1 $550 @18 ASM_EDGE_FROM_STEP @3 536 #
vertex $-1 1348 $-1 $592 1 $643 #
straight-curve $-1 -1 $-1 0.6000000000000178524 4.800000000000000711 -2.699999999999996181 0 -0.1000000000000000056 0 F 0 F 3.000000000000002665 #
edge $-1 1439 $-1 $555 0 $608 0.8000000000000007105 $551 $644 forward @7 unknown #
face $645 1495 $-1 $558 $553 $6 $-1 $646 forward single #
point $-1 -1 $-1 0.6000000000000178524 4.5 -2.699999999999996181 #
straight-curve $-1 -1 $-1 0.6000000000000178524 4.5 -2.249999999999996891 -1 0 0 I I #
ATTRIB_CUSTOM-attrib $-1 -1 $-1 $-1 $558 @22 generic_tag_attrib_def 3 3 -1 @23 generic_tag_attrib_def  1 4 @4 5174 0 1 -300 0 #
plane-surface $-1 -1 $-1 0.6000000000000178524 4.200000000000000178 -2.249999999999996891 0 1.15648231731786995e-15 1 2.567906592516311259e-31 1 -1.15648231731786995e-15 forward_v I I I I #
coedge $-1 -1 $-1 $647 $563 $648 $649 forward $87 0 $-1 #
coedge $-1 -1 $-1 $594 $593 $563 $607 reversed $595 0 $-1 #
edge $-1 1438 $-1 $608 -3.000000000000002665 $650 -0 $606 $651 forward @7 unknown #
vertex $-1 1351 $-1 $599 1 $652 #
straight-curve $-1 -1 $-1 -0.1999999999999828582 4.5 -2.699999999999996181 2.220446049250313204e-17 0 -0.1000000000000000056 I I #
point $-1 -1 $-1 -0.1999999999999828582 4.5 -2.249999999999996891 #
ATTRIB_CUSTOM-attrib $-1 -1 $-1 $-1 $570 @22 generic_tag_attrib_def 3 3 -1 @23 generic_tag_attrib_def  1 4 @4 5179 0 1 -300 0 #
face $653 1492 $-1 $654 $655 $6 $-1 $656 forward single #
loop $-1 -1 $-1 $-1 $657 $570 #
plane-surface $-1 -1 $-1 0.6000000000000178524 5.099999999999999645 -3.14999999999999547 0 1 0 2.220446049250313081e-16 0 -1 forward_v I I I I #
coedge $-1 -1 $-1 $658 $659 $660 $661 reversed $571 0 $-1 #
coedge $-1 -1 $-1 $662 $573 $575 $621 forward $529 0 $-1 #
coedge $-1 -1 $-1 $573 $662 $658 $663 reversed $529 0 $-1 #
coedge $-1 -1 $-1 $660 $576 $573 $619 forward $74 0 $-1 #
edge $664 1422 $-1 $623 -70 $665 0 $618 $666 forward @7 unknown #
coedge $-1 -1 $-1 $575 $574 $667 $668 reversed $487 0 $-1 #
edge $-1 1421 $-1 $623 0 $669 0.8000000000000007105 $616 $670 forward @7 unknown #
DXID-attrib $-1 -1 $-1 $-1 $577 @18 ASM_EDGE_FROM_STEP @3 518 #
vertex $-1 1338 $-1 $577 1 $671 #
straight-curve $-1 -1 $-1 0.6000000000000178524 5.099999999999999645 3.500000000000003109 0 -0.1000000000000000056 0 F 0 F 37.00000000000000711 #
coedge $-1 -1 $-1 $583 $667 $578 $626 forward $87 0 $-1 #
edge $-1 1417 $-1 $627 -0 $585 3.499999999999996447 $578 $672 forward @7 unknown #
vertex $-1 1337 $-1 $579 1 $673 #
straight-curve $-1 -1 $-1 0.6000000000000178524 5.099999999999999645 3.500000000000003109 -1 0 0 I I #
point $-1 -1 $-1 0.6000000000000178524 5.099999999999999645 3.500000000000003109 #
straight-curve $-1 -1 $-1 -0.1999999999999828582 5.099999999999999645 3.150000000000001688 -0 -0.1000000000000000056 -0 I I #
point $-1 -1 $-1 -0.1999999999999828582 5.099999999999999645 3.150000000000001688 #
coedge $-1 -1 $-1 $590 $660 $657 $674 forward $74 0 $-1 #
coedge $-1 -1 $-1 $675 $676 $590 $634 reversed $655 0 $-1 #
edge $677 1431 $-1 $678 0 $639 2.999999999999998224 $590 $679 forward @7 unknown #
coedge $-1 -1 $-1 $648 $591 $676 $680 forward $637 0 $-1 #
coedge $-1 -1 $-1 $591 $648 $593 $641 reversed $637 0 $-1 #
loop $-1 -1 $-1 $-1 $591 $654 #
DXID-attrib $-1 -1 $-1 $-1 $592 @18 ASM_EDGE_FROM_STEP @3 533 #
vertex $-1 1346 $-1 $634 1 $681 #
straight-curve $-1 -1 $-1 0.6000000000000178524 4.800000000000000711 -3.14999999999999547 -2.220446049250313204e-17 0 0.1000000000000000056 F 0 F 4.500000000000001776 #
edge $-1 1436 $-1 $597 0 $650 0.8000000000000007105 $593 $682 forward @7 unknown #
face $683 1494 $-1 $600 $595 $6 $-1 $684 forward single #
point $-1 -1 $-1 0.6000000000000178524 4.800000000000000711 -2.699999999999996181 #
straight-curve $-1 -1 $-1 0.6000000000000178524 4.5 -2.699999999999996181 -1 0 0 I I #
ATTRIB_CUSTOM-attrib $-1 -1 $-1 $-1 $600 @22 generic_tag_attrib_def 3 3 -1 @23 generic_tag_attrib_def  1 4 @4 5175 0 1 -300 0 #
plane-surface $-1 -1 $-1 0.6000000000000178524 4.5 -2.249999999999996891 0 1 0 2.220446049250313081e-16 0 -1 forward_v I I I I #
coedge $-1 -1 $-1 $685 $605 $686 $687 forward $87 0 $-1 #
coedge $-1 -1 $-1 $636 $635 $605 $649 reversed $637 0 $-1 #
edge $-1 1435 $-1 $650 -4.500000000000001776 $688 -0 $648 $689 forward @7 unknown #
vertex $-1 1349 $-1 $641 1 $690 #
straight-curve $-1 -1 $-1 -0.1999999999999828582 4.800000000000000711 -2.699999999999996181 0 0.1000000000000000056 0 I I #
point $-1 -1 $-1 -0.1999999999999828582 4.5 -2.699999999999996181 #
ATTRIB_CUSTOM-attrib $-1 -1 $-1 $-1 $612 @22 generic_tag_attrib_def 3 3 -1 @23 generic_tag_attrib_def  1 4 @4 5178 0 1 -300 0 #
face $691 1493 $-1 $642 $637 $6 $-1 $692 forward single #
loop $-1 -1 $-1 $-1 $633 $612 #
plane-surface $-1 -1 $-1 0.6000000000000178524 4.800000000000000711 -3.14999999999999547 0 0 1 0 1 0 forward_v I I I I #
coedge $-1 -1 $-1 $693 $694 $632 $674 reversed $613 0 $-1 #
coedge $-1 -1 $-1 $695 $615 $617 $663 forward $571 0 $-1 #
coedge $-1 -1 $-1 $615 $695 $693 $696 reversed $571 0 $-1 #
coedge $-1 -1 $-1 $632 $618 $615 $661 forward $74 0 $-1 #
edge $697 1425 $-1 $665 0 $698 37.00000000000000711 $660 $699 forward @7 unknown #
coedge $-1 -1 $-1 $617 $616 $700 $701 reversed $529 0 $-1 #
edge $-1 1424 $-1 $665 0 $702 0.8000000000000007105 $658 $703 forward @7 unknown #
DXID-attrib $-1 -1 $-1 $-1 $619 @18 ASM_EDGE_FROM_STEP @3 521 #
vertex $-1 1340 $-1 $619 1 $704 #
straight-curve $-1 -1 $-1 0.6000000000000178524 1.399999999999999467 -3.499999999999996891 2.220446049250313204e-17 0 -0.1000000000000000056 F -70 F 0 #
coedge $-1 -1 $-1 $625 $700 $620 $668 forward $87 0 $-1 #
edge $-1 1420 $-1 $669 -37.00000000000000711 $627 -0 $620 $705 forward @7 unknown #
vertex $-1 1339 $-1 $621 1 $706 #
straight-curve $-1 -1 $-1 0.6000000000000178524 1.399999999999999467 3.500000000000003109 -1 0 0 I I #
point $-1 -1 $-1 0.6000000000000178524 1.399999999999999467 3.500000000000003109 #
straight-curve $-1 -1 $-1 -0.1999999999999828582 5.099999999999999645 3.500000000000003109 2.220446049250313204e-17 1.98254111540207004e-16 -0.1000000000000000056 I I #
point $-1 -1 $-1 -0.1999999999999828582 5.099999999999999645 3.500000000000003109 #
edge $707 1428 $-1 $698 0 $678 3.499999999999996447 $632 $708 forward @7 unknown #
coedge $-1 -1 $-1 $686 $633 $694 $709 forward $655 0 $-1 #
coedge $-1 -1 $-1 $633 $686 $635 $680 reversed $655 0 $-1 #
DXID-attrib $-1 -1 $-1 $-1 $634 @18 ASM_EDGE_FROM_STEP @3 530 #
vertex $-1 1344 $-1 $674 1 $710 #
straight-curve $-1 -1 $-1 0.6000000000000178524 5.099999999999999645 -3.14999999999999547 0 -0.1000000000000000056 0 F 0 F 2.999999999999998224 #
edge $-1 1433 $-1 $639 0 $688 0.8000000000000007105 $635 $711 forward @7 unknown #
point $-1 -1 $-1 0.6000000000000178524 4.800000000000000711 -3.14999999999999547 #
straight-curve $-1 -1 $-1 0.6000000000000178524 4.800000000000000711 -2.699999999999996181 -1 0 0 I I #
ATTRIB_CUSTOM-attrib $-1 -1 $-1 $-1 $642 @22 generic_tag_attrib_def 3 3 -1 @23 generic_tag_attrib_def  1 4 @4 5176 0 1 -300 0 #
plane-surface $-1 -1 $-1 0.6000000000000178524 4.5 -2.699999999999996181 0 0 1 0 1 0 forward_v I I I I #
coedge $-1 -1 $-1 $712 $647 $713 $714 forward $87 0 $-1 #
coedge $-1 -1 $-1 $676 $675 $647 $687 reversed $655 0 $-1 #
edge $-1 1432 $-1 $688 -2.999999999999998224 $715 -0 $686 $716 forward @7 unknown #
vertex $-1 1347 $-1 $680 1 $717 #
straight-curve $-1 -1 $-1 -0.1999999999999828582 4.800000000000000711 -3.14999999999999547 2.220446049250313204e-17 0 -0.1000000000000000056 I I #
point $-1 -1 $-1 -0.1999999999999828582 4.800000000000000711 -2.699999999999996181 #
ATTRIB_CUSTOM-attrib $-1 -1 $-1 $-1 $654 @22 generic_tag_attrib_def 3 3 -1 @23 generic_tag_attrib_def  1 4 @4 5177 0 1 -300 0 #
plane-surface $-1 -1 $-1 0.6000000000000178524 4.800000000000000711 -2.699999999999996181 0 1 0 2.220446049250313081e-16 0 -1 forward_v I I I I #
coedge $-1 -1 $-1 $713 $657 $659 $696 forward $613 0 $-1 #
coedge $-1 -1 $-1 $657 $713 $675 $709 reversed $613 0 $-1 #
coedge $-1 -1 $-1 $659 $658 $712 $718 reversed $571 0 $-1 #
edge $-1 1427 $-1 $698 0 $719 0.8000000000000007105 $693 $720 forward @7 unknown #
DXID-attrib $-1 -1 $-1 $-1 $661 @18 ASM_EDGE_FROM_STEP @3 524 #
vertex $-1 1342 $-1 $661 1 $721 #
straight-curve $-1 -1 $-1 0.6000000000000178524 1.399999999999999467 -3.499999999999996891 8.328345705458307401e-33 0.1000000000000000056 -3.750753461571470385e-17 F 0 F 37.00000000000000711 #
coedge $-1 -1 $-1 $667 $712 $662 $701 forward $87 0 $-1 #
edge $-1 1423 $-1 $702 -0 $669 70 $662 $722 forward @7 unknown #
vertex $-1 1341 $-1 $663 1 $723 #
straight-curve $-1 -1 $-1 0.6000000000000178524 1.399999999999999467 -3.499999999999996891 -1 0 0 I I #
point $-1 -1 $-1 0.6000000000000178524 1.399999999999999467 -3.499999999999996891 #
straight-curve $-1 -1 $-1 -0.1999999999999828582 5.099999999999999645 3.500000000000003109 0 0.1000000000000000056 0 I I #
point $-1 -1 $-1 -0.1999999999999828582 1.399999999999999467 3.500000000000003109 #
DXID-attrib $-1 -1 $-1 $-1 $674 @18 ASM_EDGE_FROM_STEP @3 527 #
straight-curve $-1 -1 $-1 0.6000000000000178524 5.099999999999999645 -3.499999999999996891 -2.220446049250313204e-17 0 0.1000000000000000056 F 0 F 3.499999999999996447 #
edge $-1 1430 $-1 $678 0 $715 0.8000000000000007105 $675 $724 forward @7 unknown #
point $-1 -1 $-1 0.6000000000000178524 5.099999999999999645 -3.14999999999999547 #
straight-curve $-1 -1 $-1 0.6000000000000178524 4.800000000000000711 -3.14999999999999547 -1 0 0 I I #
coedge $-1 -1 $-1 $700 $685 $695 $718 forward $87 0 $-1 #
coedge $-1 -1 $-1 $694 $693 $685 $714 reversed $613 0 $-1 #
edge $-1 1429 $-1 $715 -3.499999999999996447 $719 -0 $713 $725 forward @7 unknown #
vertex $-1 1345 $-1 $709 1 $726 #
straight-curve $-1 -1 $-1 -0.1999999999999828582 5.099999999999999645 -3.14999999999999547 0 0.1000000000000000056 0 I I #
point $-1 -1 $-1 -0.1999999999999828582 4.800000000000000711 -3.14999999999999547 #
edge $-1 1426 $-1 $719 -37.00000000000000711 $702 -0 $695 $727 forward @7 unknown #
vertex $-1 1343 $-1 $696 1 $728 #
straight-curve $-1 -1 $-1 0.6000000000000178524 5.099999999999999645 -3.499999999999996891 -1 0 0 I I #
point $-1 -1 $-1 0.6000000000000178524 5.099999999999999645 -3.499999999999996891 #
straight-curve $-1 -1 $-1 -0.1999999999999828582 1.399999999999999467 -3.499999999999996891 -2.220446049250313204e-17 0 0.1000000000000000056 I I #
point $-1 -1 $-1 -0.1999999999999828582 1.399999999999999467 -3.499999999999996891 #
straight-curve $-1 -1 $-1 0.6000000000000178524 5.099999999999999645 -3.14999999999999547 -1 0 0 I I #
straight-curve $-1 -1 $-1 -0.1999999999999828582 5.099999999999999645 -3.499999999999996891 2.220446049250313204e-17 0 -0.1000000000000000056 I I #
point $-1 -1 $-1 -0.1999999999999828582 5.099999999999999645 -3.14999999999999547 #
straight-curve $-1 -1 $-1 -0.1999999999999828582 1.399999999999999467 -3.499999999999996891 -8.328345705458307401e-33 -0.1000000000000000056 3.750753461571470385e-17 I I #
point $-1 -1 $-1 -0.1999999999999828582 5.099999999999999645 -3.499999999999996891 #
End-of-ASM-data 