# WaveFront *.obj file
# Vertices: 84
# Triangles : 164

v -9.5000000000000000e+00 2.0000000000000001e-01 1.1634144591899855e-15
v -9.3938928491387212e+00 2.0000000000000001e-01 -1.4159015286736556e+00
v -9.0779416549683383e+00 2.0000000000000001e-01 -2.8001741569035858e+00
v -8.5592042450729799e+00 2.0000000000000001e-01 -4.1218955216168034e+00
v -7.8492683560019527e+00 2.0000000000000001e-01 -5.3515405516044074e+00
v -6.9639927823833538e+00 2.0000000000000001e-01 -6.4616410088237304e+00
v -5.9231531176579679e+00 2.0000000000000001e-01 -7.4273990834462840e+00
v -4.7500000000000018e+00 2.0000000000000001e-01 -8.2272413359521668e+00
v -3.4707397314807569e+00 2.0000000000000001e-01 -8.8433006121199380e+00
v -2.1139488725849862e+00 2.0000000000000001e-01 -9.2618151657273238e+00
v -7.0993588907103267e-01 2.0000000000000001e-01 -9.4734360732212117e+00
v 7.0993588907102545e-01 2.0000000000000001e-01 -9.4734360732212117e+00
v 2.1139488725849871e+00 2.0000000000000001e-01 -9.2618151657273238e+00
v 3.4707397314807502e+00 2.0000000000000001e-01 -8.8433006121199416e+00
v 4.7499999999999956e+00 2.0000000000000001e-01 -8.2272413359521703e+00
v 5.9231531176579688e+00 2.0000000000000001e-01 -7.4273990834462831e+00
v 6.9639927823833485e+00 2.0000000000000001e-01 -6.4616410088237357e+00
v 7.8492683560019509e+00 2.0000000000000001e-01 -5.3515405516044110e+00
v 8.5592042450729817e+00 2.0000000000000001e-01 -4.1218955216168025e+00
v 9.0779416549683365e+00 2.0000000000000001e-01 -2.8001741569035925e+00
v 9.3938928491387212e+00 2.0000000000000001e-01 -1.4159015286736585e+00
v 9.5000000000000000e+00 2.0000000000000001e-01 0.0000000000000000e+00
v 9.3938928491387212e+00 2.0000000000000001e-01 1.4159015286736543e+00
v 9.0779416549683383e+00 2.0000000000000001e-01 2.8001741569035885e+00
v 8.5592042450729817e+00 2.0000000000000001e-01 4.1218955216168025e+00
v 7.8492683560019527e+00 2.0000000000000001e-01 5.3515405516044066e+00
v 6.9639927823833512e+00 2.0000000000000001e-01 6.4616410088237330e+00
v 5.9231531176579688e+00 2.0000000000000001e-01 7.4273990834462831e+00
v 4.7500000000000036e+00 2.0000000000000001e-01 8.2272413359521650e+00
v 3.4707397314807547e+00 2.0000000000000001e-01 8.8433006121199398e+00
v 2.1139488725849871e+00 2.0000000000000001e-01 9.2618151657273238e+00
v 7.0993588907103178e-01 2.0000000000000001e-01 9.4734360732212117e+00
v -7.0993588907102845e-01 2.0000000000000001e-01 9.4734360732212117e+00
v -2.1139488725849862e+00 2.0000000000000001e-01 9.2618151657273238e+00
v -3.4707397314807511e+00 2.0000000000000001e-01 8.8433006121199416e+00
v -4.7499999999999982e+00 2.0000000000000001e-01 8.2272413359521686e+00
v -5.9231531176579679e+00 2.0000000000000001e-01 7.4273990834462840e+00
v -6.9639927823833467e+00 2.0000000000000001e-01 6.4616410088237366e+00
v -7.8492683560019492e+00 2.0000000000000001e-01 5.3515405516044110e+00
v -8.5592042450729799e+00 2.0000000000000001e-01 4.1218955216168034e+00
v -9.0779416549683383e+00 2.0000000000000001e-01 2.8001741569035898e+00
v -9.3938928491387212e+00 2.0000000000000001e-01 1.4159015286736598e+00
v -9.5000000000000000e+00 0.0000000000000000e+00 1.1634144591899855e-15
v -9.3938928491387212e+00 0.0000000000000000e+00 1.4159015286736598e+00
v -9.0779416549683383e+00 0.0000000000000000e+00 2.8001741569035898e+00
v -8.5592042450729799e+00 0.0000000000000000e+00 4.1218955216168034e+00
v -7.8492683560019492e+00 0.0000000000000000e+00 5.3515405516044110e+00
v -6.9639927823833467e+00 0.0000000000000000e+00 6.4616410088237366e+00
v -5.9231531176579679e+00 0.0000000000000000e+00 7.4273990834462840e+00
v -4.7499999999999982e+00 0.0000000000000000e+00 8.2272413359521686e+00
v -3.4707397314807511e+00 0.0000000000000000e+00 8.8433006121199416e+00
v -2.1139488725849862e+00 0.0000000000000000e+00 9.2618151657273238e+00
v -7.0993588907102845e-01 0.0000000000000000e+00 9.4734360732212117e+00
v 7.0993588907103178e-01 0.0000000000000000e+00 9.4734360732212117e+00
v 2.1139488725849871e+00 0.0000000000000000e+00 9.2618151657273238e+00
v 3.4707397314807547e+00 0.0000000000000000e+00 8.8433006121199398e+00
v 4.7500000000000036e+00 0.0000000000000000e+00 8.2272413359521650e+00
v 5.9231531176579688e+00 0.0000000000000000e+00 7.4273990834462831e+00
v 6.9639927823833512e+00 0.0000000000000000e+00 6.4616410088237330e+00
v 7.8492683560019527e+00 0.0000000000000000e+00 5.3515405516044066e+00
v 8.5592042450729817e+00 0.0000000000000000e+00 4.1218955216168025e+00
v 9.0779416549683383e+00 0.0000000000000000e+00 2.8001741569035885e+00
v 9.3938928491387212e+00 0.0000000000000000e+00 1.4159015286736543e+00
v 9.5000000000000000e+00 0.0000000000000000e+00 0.0000000000000000e+00
v 9.3938928491387212e+00 0.0000000000000000e+00 -1.4159015286736585e+00
v 9.0779416549683365e+00 0.0000000000000000e+00 -2.8001741569035925e+00
v 8.5592042450729817e+00 0.0000000000000000e+00 -4.1218955216168025e+00
v 7.8492683560019509e+00 0.0000000000000000e+00 -5.3515405516044110e+00
v 6.9639927823833485e+00 0.0000000000000000e+00 -6.4616410088237357e+00
v 5.9231531176579688e+00 0.0000000000000000e+00 -7.4273990834462831e+00
v 4.7499999999999956e+00 0.0000000000000000e+00 -8.2272413359521703e+00
v 3.4707397314807502e+00 0.0000000000000000e+00 -8.8433006121199416e+00
v 2.1139488725849871e+00 0.0000000000000000e+00 -9.2618151657273238e+00
v 7.0993588907102545e-01 0.0000000000000000e+00 -9.4734360732212117e+00
v -7.0993588907103267e-01 0.0000000000000000e+00 -9.4734360732212117e+00
v -2.1139488725849862e+00 0.0000000000000000e+00 -9.2618151657273238e+00
v -3.4707397314807569e+00 0.0000000000000000e+00 -8.8433006121199380e+00
v -4.7500000000000018e+00 0.0000000000000000e+00 -8.2272413359521668e+00
v -5.9231531176579679e+00 0.0000000000000000e+00 -7.4273990834462840e+00
v -6.9639927823833538e+00 0.0000000000000000e+00 -6.4616410088237304e+00
v -7.8492683560019527e+00 0.0000000000000000e+00 -5.3515405516044074e+00
v -8.5592042450729799e+00 0.0000000000000000e+00 -4.1218955216168034e+00
v -9.0779416549683383e+00 0.0000000000000000e+00 -2.8001741569035858e+00
v -9.3938928491387212e+00 0.0000000000000000e+00 -1.4159015286736556e+00

vn -9.8883082622512863e-01 0.0000000000000000e+00 -1.4904226617617428e-01
vn -1.0000000000000000e+00 0.0000000000000000e+00 -1.2246467991473532e-16
vn -1.0000000000000000e+00 -0.0000000000000000e+00 1.2246467991473532e-16
vn -9.8883082622512863e-01 -0.0000000000000000e+00 1.4904226617617472e-01
vn -9.5557280578614068e-01 -0.0000000000000000e+00 2.9475517441090415e-01
vn -9.0096886790241903e-01 -0.0000000000000000e+00 4.3388373911755829e-01
vn -8.2623877431599480e-01 -0.0000000000000000e+00 5.6332005806362229e-01
vn -7.3305187182982601e-01 -0.0000000000000000e+00 6.8017273777091980e-01
vn -6.2348980185873348e-01 -0.0000000000000000e+00 7.8183148246802980e-01
vn -4.9999999999999983e-01 -0.0000000000000000e+00 8.6602540378443882e-01
vn -3.6534102436639482e-01 -0.0000000000000000e+00 9.3087374864420436e-01
vn -2.2252093395631439e-01 -0.0000000000000000e+00 9.7492791218182373e-01
vn -7.4730093586424046e-02 -0.0000000000000000e+00 9.9720379718118024e-01
vn 7.4730093586424393e-02 -0.0000000000000000e+00 9.9720379718118024e-01
vn 2.2252093395631442e-01 -0.0000000000000000e+00 9.7492791218182351e-01
vn 3.6534102436639526e-01 -0.0000000000000000e+00 9.3087374864420414e-01
vn 5.0000000000000044e-01 -0.0000000000000000e+00 8.6602540378443849e-01
vn 6.2348980185873359e-01 -0.0000000000000000e+00 7.8183148246802980e-01
vn 7.3305187182982634e-01 -0.0000000000000000e+00 6.8017273777091924e-01
vn 8.2623877431599513e-01 -0.0000000000000000e+00 5.6332005806362173e-01
vn 9.0096886790241915e-01 -0.0000000000000000e+00 4.3388373911755818e-01
vn 9.5557280578614090e-01 -0.0000000000000000e+00 2.9475517441090399e-01
vn 9.8883082622512863e-01 -0.0000000000000000e+00 1.4904226617617414e-01
vn 1.0000000000000000e+00 -0.0000000000000000e+00 -0.0000000000000000e+00
vn 9.8883082622512863e-01 -0.0000000000000000e+00 -1.4904226617617455e-01
vn 9.5557280578614068e-01 -0.0000000000000000e+00 -2.9475517441090449e-01
vn 9.0096886790241915e-01 -0.0000000000000000e+00 -4.3388373911755818e-01
vn 8.2623877431599480e-01 -0.0000000000000000e+00 -5.6332005806362218e-01
vn 7.3305187182982623e-01 -0.0000000000000000e+00 -6.8017273777091958e-01
vn 6.2348980185873359e-01 -0.0000000000000000e+00 -7.8183148246802980e-01
vn 4.9999999999999950e-01 -0.0000000000000000e+00 -8.6602540378443893e-01
vn 3.6534102436639476e-01 -0.0000000000000000e+00 -9.3087374864420436e-01
vn 2.2252093395631442e-01 -0.0000000000000000e+00 -9.7492791218182351e-01
vn 7.4730093586423726e-02 -0.0000000000000000e+00 -9.9720379718118024e-01
vn -7.4730093586424476e-02 0.0000000000000000e+00 -9.9720379718118002e-01
vn -2.2252093395631439e-01 0.0000000000000000e+00 -9.7492791218182373e-01
vn -3.6534102436639548e-01 0.0000000000000000e+00 -9.3087374864420402e-01
vn -5.0000000000000011e-01 0.0000000000000000e+00 -8.6602540378443849e-01
vn -6.2348980185873348e-01 0.0000000000000000e+00 -7.8183148246802980e-01
vn -7.3305187182982667e-01 0.0000000000000000e+00 -6.8017273777091891e-01
vn -8.2623877431599513e-01 0.0000000000000000e+00 -5.6332005806362184e-01
vn -9.0096886790241903e-01 0.0000000000000000e+00 -4.3388373911755829e-01
vn -9.5557280578614090e-01 0.0000000000000000e+00 -2.9475517441090376e-01
vn 0.0000000000000000e+00 1.0000000000000000e+00 0.0000000000000000e+00
vn -0.0000000000000000e+00 -1.0000000000000000e+00 -0.0000000000000000e+00

g face 0
f 2//1 84//1 1//2
f 1//2 84//1 43//2
f 1//3 43//3 42//4
f 42//4 43//3 44//4
f 42//4 44//4 41//5
f 41//5 44//4 45//5
f 41//5 45//5 40//6
f 40//6 45//5 46//6
f 40//6 46//6 39//7
f 39//7 46//6 47//7
f 39//7 47//7 38//8
f 38//8 47//7 48//8
f 38//8 48//8 37//9
f 37//9 48//8 49//9
f 37//9 49//9 36//10
f 36//10 49//9 50//10
f 36//10 50//10 35//11
f 35//11 50//10 51//11
f 35//11 51//11 34//12
f 34//12 51//11 52//12
f 34//12 52//12 33//13
f 33//13 52//12 53//13
f 33//13 53//13 32//14
f 32//14 53//13 54//14
f 32//14 54//14 31//15
f 31//15 54//14 55//15
f 31//15 55//15 30//16
f 30//16 55//15 56//16
f 30//16 56//16 29//17
f 29//17 56//16 57//17
f 29//17 57//17 28//18
f 28//18 57//17 58//18
f 28//18 58//18 27//19
f 27//19 58//18 59//19
f 27//19 59//19 26//20
f 26//20 59//19 60//20
f 26//20 60//20 25//21
f 25//21 60//20 61//21
f 25//21 61//21 24//22
f 24//22 61//21 62//22
f 24//22 62//22 23//23
f 23//23 62//22 63//23
f 23//23 63//23 22//24
f 22//24 63//23 64//24
f 22//24 64//24 21//25
f 21//25 64//24 65//25
f 21//25 65//25 20//26
f 20//26 65//25 66//26
f 20//26 66//26 19//27
f 19//27 66//26 67//27
f 19//27 67//27 18//28
f 18//28 67//27 68//28
f 18//28 68//28 17//29
f 17//29 68//28 69//29
f 17//29 69//29 16//30
f 16//30 69//29 70//30
f 16//30 70//30 15//31
f 15//31 70//30 71//31
f 15//31 71//31 14//32
f 14//32 71//31 72//32
f 14//32 72//32 13//33
f 13//33 72//32 73//33
f 13//33 73//33 12//34
f 12//34 73//33 74//34
f 12//34 74//34 11//35
f 11//35 74//34 75//35
f 11//35 75//35 10//36
f 10//36 75//35 76//36
f 10//36 76//36 9//37
f 9//37 76//36 77//37
f 9//37 77//37 8//38
f 8//38 77//37 78//38
f 8//38 78//38 7//39
f 7//39 78//38 79//39
f 7//39 79//39 6//40
f 6//40 79//39 80//40
f 6//40 80//40 5//41
f 5//41 80//40 81//41
f 5//41 81//41 4//42
f 4//42 81//41 82//42
f 4//42 82//42 3//43
f 3//43 82//42 83//43
f 3//43 83//43 2//1
f 2//1 83//43 84//1

g face 1
f 42//44 23//44 1//44
f 1//44 23//44 22//44
f 1//44 22//44 2//44
f 2//44 22//44 21//44
f 2//44 21//44 3//44
f 3//44 21//44 20//44
f 3//44 20//44 4//44
f 4//44 20//44 19//44
f 4//44 19//44 5//44
f 5//44 19//44 18//44
f 5//44 18//44 6//44
f 6//44 18//44 17//44
f 6//44 17//44 7//44
f 7//44 17//44 16//44
f 7//44 16//44 8//44
f 8//44 16//44 15//44
f 8//44 15//44 9//44
f 9//44 15//44 14//44
f 9//44 14//44 10//44
f 10//44 14//44 13//44
f 10//44 13//44 11//44
f 11//44 13//44 12//44
f 23//44 42//44 24//44
f 24//44 42//44 41//44
f 24//44 41//44 25//44
f 25//44 41//44 40//44
f 25//44 40//44 26//44
f 26//44 40//44 39//44
f 26//44 39//44 27//44
f 27//44 39//44 38//44
f 27//44 38//44 28//44
f 28//44 38//44 37//44
f 28//44 37//44 29//44
f 29//44 37//44 36//44
f 29//44 36//44 30//44
f 30//44 36//44 35//44
f 30//44 35//44 31//44
f 31//44 35//44 34//44
f 31//44 34//44 32//44
f 32//44 34//44 33//44

g face 2
f 84//45 65//45 43//45
f 43//45 65//45 64//45
f 43//45 64//45 44//45
f 44//45 64//45 63//45
f 44//45 63//45 45//45
f 45//45 63//45 62//45
f 45//45 62//45 46//45
f 46//45 62//45 61//45
f 46//45 61//45 47//45
f 47//45 61//45 60//45
f 47//45 60//45 48//45
f 48//45 60//45 59//45
f 48//45 59//45 49//45
f 49//45 59//45 58//45
f 49//45 58//45 50//45
f 50//45 58//45 57//45
f 50//45 57//45 51//45
f 51//45 57//45 56//45
f 51//45 56//45 52//45
f 52//45 56//45 55//45
f 52//45 55//45 53//45
f 53//45 55//45 54//45
f 65//45 84//45 66//45
f 66//45 84//45 83//45
f 66//45 83//45 67//45
f 67//45 83//45 82//45
f 67//45 82//45 68//45
f 68//45 82//45 81//45
f 68//45 81//45 69//45
f 69//45 81//45 80//45
f 69//45 80//45 70//45
f 70//45 80//45 79//45
f 70//45 79//45 71//45
f 71//45 79//45 78//45
f 71//45 78//45 72//45
f 72//45 78//45 77//45
f 72//45 77//45 73//45
f 73//45 77//45 76//45
f 73//45 76//45 74//45
f 74//45 76//45 75//45

g halfedge 0 edge 0
l 1 2 3 4 5 6 7 8 9 10 11 12 13 14 15 16 17 18 19 20 21 22 23 24 25 26 27 28 29 30 31 32 33 34 35 36 37 38 39 40 41 42 1

g halfedge 1 edge 0
l 1 42 41 40 39 38 37 36 35 34 33 32 31 30 29 28 27 26 25 24 23 22 21 20 19 18 17 16 15 14 13 12 11 10 9 8 7 6 5 4 3 2 1

g halfedge 2 edge 1
l 43 44 45 46 47 48 49 50 51 52 53 54 55 56 57 58 59 60 61 62 63 64 65 66 67 68 69 70 71 72 73 74 75 76 77 78 79 80 81 82 83 84 43

g halfedge 3 edge 1
l 43 84 83 82 81 80 79 78 77 76 75 74 73 72 71 70 69 68 67 66 65 64 63 62 61 60 59 58 57 56 55 54 53 52 51 50 49 48 47 46 45 44 43

g vertex 0
p 1

g vertex 1
p 43

# End of file
