22700 0 2 4           
16 Autodesk Neutron 20 ASM 227.1.1.65535 NT 24 Wed Aug 25 11:00:34 2021 
10 9.999999999999999547e-07 1.000000000000000036e-10 
asmheader $-1 -1 @13 227.1.1.65535 #
body $2 108 $-1 $3 $-1 $4 #
ATTRIB_CUSTOM-attrib $-1 -1 $5 $-1 $1 @20 Timestamp_attrib_def 1 1469574211001 #
lump $-1 -1 $-1 $-1 $6 $1 #
transform $-1 -1 1 0 0 0 1 0 0 0 1 0 0 0 1 no_rotate no_reflect no_shear #
ATTRIB_CUSTOM-attrib $-1 -1 $-1 $2 $1 @22 generic_tag_attrib_def 3 3 -1 @23 generic_tag_attrib_def  3 3 @3 454 1 0 0 3 @3 463 9 0 0 3 @3 471 7 0 0 #
shell $-1 -1 $-1 $-1 $-1 $7 $-1 $3 #
face $8 72 $-1 $9 $10 $6 $-1 $11 reversed single #
ATTRIB_CUSTOM-attrib $-1 -1 $-1 $-1 $7 @22 generic_tag_attrib_def 3 3 -1 @23 generic_tag_attrib_def  1 1 @1 1 0 1 471 0 #
face $12 73 $-1 $13 $14 $6 $-1 $15 forward single #
loop $-1 -1 $-1 $16 $17 $7 #
plane-surface $-1 -1 $-1 -2 7 -8.500000126659871924 0 1 0 -1 0 0 forward_v I I I I #
ATTRIB_CUSTOM-attrib $-1 -1 $-1 $-1 $9 @22 generic_tag_attrib_def 3 3 -1 @23 generic_tag_attrib_def  1 1 @1 5 0 1 471 0 #
face $18 74 $-1 $19 $20 $6 $-1 $21 forward single #
loop $-1 -1 $-1 $22 $23 $9 #
cone-surface $-1 -1 $-1 -4 7 -8.500000126659868371 0 1 0 -0.25 0 0 1 I I 0 -1 0.25 forward I I I I #
loop $-1 -1 $-1 $24 $25 $7 #
coedge $26 -1 $-1 $17 $17 $27 $28 reversed $10 0 $-1 #
ATTRIB_CUSTOM-attrib $-1 -1 $-1 $-1 $13 @22 generic_tag_attrib_def 3 3 -1 @23 generic_tag_attrib_def  1 1 @1 4 0 1 471 0 #
face $29 75 $-1 $30 $31 $6 $-1 $32 forward single #
loop $-1 -1 $-1 $33 $34 $13 #
cone-surface $-1 -1 $-1 0 7 -8.500000126659868371 0 1 0 -0.2499999999999996392 0 0 1 I I 0 -1 0.2499999999999996392 forward I I I I #
loop $-1 -1 $-1 $-1 $35 $9 #
coedge $-1 -1 $-1 $23 $23 $36 $37 reversed $14 0 $-1 #
loop $-1 -1 $-1 $38 $39 $7 #
coedge $40 -1 $-1 $25 $25 $35 $41 reversed $16 0 $-1 #
ATTRIB_CUSTOM-attrib $-1 -1 $-1 $-1 $17 @17 sketch_attrib_def 1 1 3 @13 105 0 0 0 1 1 #
coedge $42 -1 $-1 $27 $27 $17 $28 forward $43 0 $-1 #
edge $-1 88 $-1 $44 -3.141592653589793116 $44 3.141592653589793116 $27 $45 forward @7 unknown #
ATTRIB_CUSTOM-attrib $-1 -1 $-1 $-1 $19 @22 generic_tag_attrib_def 3 3 -1 @23 generic_tag_attrib_def  1 1 @1 3 0 1 471 0 #
face $46 76 $-1 $47 $48 $6 $-1 $49 forward single #
loop $-1 -1 $-1 $43 $50 $19 #
cone-surface $-1 -1 $-1 -2 7 -8.500000126659871924 0 1 0 -2.5 0 0 1 I I 0 1 2.5 forward I I I I #
loop $-1 -1 $-1 $-1 $51 $13 #
coedge $-1 -1 $-1 $34 $34 $52 $53 reversed $20 0 $-1 #
coedge $54 -1 $-1 $35 $35 $25 $41 forward $22 0 $-1 #
coedge $-1 -1 $-1 $36 $36 $23 $37 forward $55 0 $-1 #
edge $-1 92 $-1 $56 -3.141592653589793116 $56 3.141592653589793116 $23 $57 forward @7 unknown #
loop $-1 -1 $-1 $-1 $58 $7 #
coedge $59 -1 $-1 $39 $39 $51 $60 reversed $24 0 $-1 #
ATTRIB_CUSTOM-attrib $-1 -1 $-1 $-1 $25 @17 sketch_attrib_def 1 1 3 @22 112 0 4294967295 0 1 1 #
edge $-1 89 $-1 $61 -3.141592653589793116 $61 3.141592653589793116 $35 $62 forward @7 unknown #
ATTRIB_CUSTOM-attrib $-1 -1 $-1 $-1 $27 @17 sketch_attrib_def 1 1 3 @13 105 0 0 0 1 1 #
loop $-1 -1 $-1 $-1 $27 $19 #
vertex $-1 109 $-1 $28 0 $63 #
ellipse-curve $-1 -1 $-1 -2 7 -8.500000126659871924 0 1 0 -2.5 0 0 1 I I #
ATTRIB_CUSTOM-attrib $-1 -1 $-1 $-1 $30 @22 generic_tag_attrib_def 3 3 -1 @23 generic_tag_attrib_def  1 1 @1 2 0 1 471 0 #
face $64 77 $-1 $65 $66 $6 $-1 $67 forward single #
loop $-1 -1 $-1 $68 $69 $30 #
plane-surface $-1 -1 $-1 -2 7.200000000000000178 -8.500000126659871924 0 1 0 -1 0 0 forward_v I I I I #
coedge $-1 -1 $-1 $50 $50 $70 $71 reversed $31 0 $-1 #
coedge $72 -1 $-1 $51 $51 $39 $60 forward $33 0 $-1 #
coedge $-1 -1 $-1 $52 $52 $34 $53 forward $68 0 $-1 #
edge $-1 93 $-1 $73 -3.141592653589793116 $73 3.141592653589793116 $34 $74 forward @7 unknown #
ATTRIB_CUSTOM-attrib $-1 -1 $-1 $-1 $35 @17 sketch_attrib_def 1 1 3 @22 112 0 4294967295 0 1 1 #
loop $-1 -1 $-1 $75 $36 $30 #
vertex $-1 113 $-1 $37 2 $76 #
ellipse-curve $-1 -1 $-1 -4 7.200000000000000178 -8.500000126659868371 0 -1 0 -0.25 0 0 1 I I #
coedge $-1 -1 $-1 $58 $58 $77 $78 forward $38 0 $-1 #
ATTRIB_CUSTOM-attrib $-1 -1 $-1 $-1 $39 @17 sketch_attrib_def 1 1 3 @22 107 0 4294967295 0 1 1 #
edge $-1 90 $-1 $79 -3.141592653589793116 $79 3.141592653589793116 $51 $80 forward @7 unknown #
vertex $-1 110 $-1 $41 0 $81 #
ellipse-curve $-1 -1 $-1 -4 7 -8.500000126659868371 0 -1 0 -0.25 0 0 1 I I #
point $-1 -1 $-1 0.5 7 -8.500000126659871924 #
ATTRIB_CUSTOM-attrib $-1 -1 $-1 $-1 $47 @22 generic_tag_attrib_def 3 3 -1 @23 generic_tag_attrib_def  3 1 @1 4 0 3 410 422 454 0 1 @1 8 0 1 463 0 1 @1 6 0 1 471 0 #
face $82 78 $-1 $83 $84 $6 $-1 $85 forward single #
loop $-1 -1 $-1 $86 $87 $47 #
cone-surface $-1 -1 $-1 -2 7 -8.500000126659871924 -0 -1 -0 0.25 0 0 1 I I 0 -1 0.25 forward I I I I #
loop $-1 -1 $-1 $55 $52 $30 #
coedge $-1 -1 $-1 $69 $69 $87 $88 forward $48 0 $-1 #
coedge $-1 -1 $-1 $70 $70 $50 $71 forward $75 0 $-1 #
edge $-1 94 $-1 $89 -3.141592653589793116 $89 3.141592653589793116 $50 $90 forward @7 unknown #
ATTRIB_CUSTOM-attrib $-1 -1 $-1 $-1 $51 @17 sketch_attrib_def 1 1 3 @22 107 0 4294967295 0 1 1 #
vertex $-1 114 $-1 $53 2 $91 #
ellipse-curve $-1 -1 $-1 0 7.200000000000000178 -8.500000126659868371 0 -1 0 -0.2499999999999996392 0 0 1 I I #
loop $-1 -1 $-1 $-1 $70 $30 #
point $-1 -1 $-1 -3.75 7.200000000000000178 -8.500000126659868371 #
coedge $92 -1 $-1 $77 $77 $58 $78 reversed $93 0 $-1 #
edge $-1 91 $-1 $94 -3.141592653589793116 $94 3.141592653589793116 $77 $95 forward @7 unknown #
vertex $-1 111 $-1 $60 0 $96 #
ellipse-curve $-1 -1 $-1 0 7 -8.500000126659868371 0 -1 0 -0.2499999999999996392 0 0 1 I I #
point $-1 -1 $-1 -3.75 7 -8.500000126659868371 #
ATTRIB_CUSTOM-attrib $-1 -1 $-1 $-1 $65 @22 generic_tag_attrib_def 3 3 -1 @23 generic_tag_attrib_def  1 1 @1 3 0 3 410 422 454 0 #
face $97 79 $-1 $98 $99 $6 $-1 $100 forward single #
loop $-1 -1 $-1 $93 $101 $65 #
cone-surface $-1 -1 $-1 -2 7 -8.500000126659871924 -0 -1 -0 0.8000000000000000444 0 0 1 I I 0 1 0.8000000000000000444 forward I I I I #
loop $-1 -1 $-1 $-1 $102 $47 #
coedge $-1 -1 $-1 $87 $87 $69 $88 reversed $66 0 $-1 #
edge $-1 95 $-1 $103 -3.141592653589793116 $103 3.141592653589793116 $87 $104 forward @7 unknown #
vertex $-1 115 $-1 $71 2 $105 #
ellipse-curve $-1 -1 $-1 -2 7.200000000000000178 -8.500000126659871924 0 1 0 -2.5 0 0 1 I I #
point $-1 -1 $-1 0.2499999999999995559 7.200000000000000178 -8.500000126659868371 #
ATTRIB_CUSTOM-attrib $-1 -1 $-1 $-1 $77 @17 sketch_attrib_def 1 1 3 @13 123 0 0 0 1 1 #
loop $-1 -1 $-1 $-1 $77 $65 #
vertex $-1 112 $-1 $78 0 $106 #
ellipse-curve $-1 -1 $-1 -2 7 -8.500000126659871924 -0 1 -0 0.8000000000000000444 0 0 1 I I #
point $-1 -1 $-1 0.2499999999999996392 7 -8.500000126659868371 #
ATTRIB_CUSTOM-attrib $-1 -1 $-1 $-1 $83 @22 generic_tag_attrib_def 3 3 -1 @23 generic_tag_attrib_def  1 1 @1 7 0 3 371 422 454 0 #
face $107 80 $-1 $108 $109 $6 $-1 $110 forward single #
loop $-1 -1 $-1 $111 $112 $83 #
cone-surface $-1 -1 $-1 -1 4.600000001490116119 -8.500000126659871924 -1 -0 -0 0 0 -0.8000000119209325078 1 I I 0 1 0.8000000119209325078 forward I I I I #
coedge $-1 -1 $-1 $113 $113 $114 $115 reversed $84 0 $-1 #
coedge $-1 -1 $-1 $102 $102 $116 $117 reversed $86 0 $-1 #
vertex $-1 116 $-1 $88 2 $118 #
ellipse-curve $-1 -1 $-1 -2 7.200000000000000178 -8.500000126659871924 0 -1 0 -0.25 0 0 1 I I #
point $-1 -1 $-1 0.5 7.200000000000000178 -8.500000126659871924 #
point $-1 -1 $-1 -2.799999999999999822 7 -8.500000126659871924 #
ATTRIB_CUSTOM-attrib $-1 -1 $-1 $-1 $98 @22 generic_tag_attrib_def 3 3 -1 @23 generic_tag_attrib_def  1 1 @1 1 0 3 379 422 454 0 #
face $119 71 $-1 $120 $121 $6 $-1 $122 reversed single #
loop $-1 -1 $-1 $123 $124 $98 #
cone-surface $-1 -1 $-1 -2.51499999999999968 4.600000001490116119 -8.500000126659871924 1 -0 -0 0 0.2267000000000001236 0 1 I I -0.7071067811865527908 -0.7071067811865423547 0.2267000000000001236 forward I I I I #
loop $-1 -1 $-1 $125 $126 $83 #
coedge $-1 -1 $-1 $112 $112 $127 $128 forward $99 0 $-1 #
coedge $-1 -1 $-1 $101 $101 $129 $130 reversed $84 0 $-1 #
coedge $-1 -1 $-1 $129 $129 $101 $115 forward $125 0 $-1 #
edge $-1 97 $-1 $131 -1.570796326794896558 $132 1.570796326794896558 $114 $133 forward @7 unknown #
coedge $-1 -1 $-1 $116 $116 $102 $117 forward $134 0 $-1 #
edge $-1 96 $-1 $135 0 $135 1.517789385852659212 $116 $136 forward @7 unknown #
point $-1 -1 $-1 -1.75 7.200000000000000178 -8.500000126659871924 #
ATTRIB_CUSTOM-attrib $-1 -1 $137 $-1 $108 @22 generic_tag_attrib_def 3 3 -1 @23 generic_tag_attrib_def  1 1 @1 3 0 4 376 -377 422 454 0 #
face $138 81 $-1 $139 $140 $6 $-1 $141 reversed single #
loop $-1 -1 $-1 $142 $143 $108 #
cone-surface $-1 -1 $-1 -2.75 4.600000001490116119 -8.500000126659871924 -1 -0 -0 0 0.2116999999999999993 0 1 I I 0 1 0.25 forward I I I I #
loop $-1 -1 $-1 $-1 $144 $98 #
coedge $-1 -1 $-1 $124 $124 $145 $146 forward $109 0 $-1 #
loop $-1 -1 $-1 $-1 $114 $83 #
coedge $-1 -1 $-1 $126 $126 $147 $148 reversed $111 0 $-1 #
coedge $-1 -1 $-1 $127 $127 $112 $128 reversed $149 0 $-1 #
edge $-1 99 $-1 $150 -3.141592653589793116 $150 3.141592653589793116 $112 $151 forward @7 unknown #
coedge $-1 -1 $-1 $114 $114 $113 $130 forward $125 0 $-1 #
edge $-1 98 $-1 $132 1.570796326794896558 $131 4.712388980384689674 $129 $152 forward @7 unknown #
vertex $-1 118 $-1 $115 0 $153 #
vertex $-1 119 $-1 $115 1 $154 #
ellipse-curve $-1 -1 $-1 -2 4.600000001490116119 -8.500000126659871924 0.7071067864549051007 -0.7071067759181899337 -0 0.8000000000000000444 0.8000000119209323968 0 0.7071067759181899337 I I #
loop $-1 -1 $-1 $-1 $116 $139 #
vertex $-1 117 $-1 $117 0 $155 #
intcurve-curve $-1 -1 $-1 forward { int_int_cur 22210 full nubs 3 periodic 17 
	0 3 0.09487860375254597578 2 0.1897572075050919516 2 0.2846022769841283773 2 0.379447346463164803 2 
	0.4742924159422012287 2 0.5691374854212376544 2 0.6640160891737836302 2 0.758894692926329606 2 0.8537732966788755817 2 
	0.9486519004314215575 2 1.043496969910457928 2 1.13834203938949452 2 1.23318710886853089 2 1.32803217834756726 2 
	1.422910782100113236 2 1.517789385852659212 3 
	-2 5.359934221718085645 -8.250000126659871924 
	-1.968373798749151415 5.359934221718085645 -8.250000126659871924 
	-1.934797405823651228 5.362115444691950117 -8.256364208720437858 
	-1.873273079533430696 5.369823530599221684 -8.281940190807059565 
	-1.845304814623873968 5.375221296873890608 -8.301141921442724225 
	-1.801149599360110543 5.385225615689488876 -8.345297136706488317 
	-1.781941837676991991 5.390505923384481868 -8.373268550396836929 
	-1.7563613869585466 5.397941116382280136 -8.434804405182177334 
	-1.75 5.400000013411048627 -8.468385103500192912 
	-1.75 5.400000013411048627 -8.531615149819550936 
	-1.7563613869585466 5.397941116382280136 -8.565195848137566514 
	-1.781941837676991991 5.390505923384481868 -8.626731702922906919 
	-1.801149599360110543 5.385225615689488876 -8.654703116613255531 
	-1.845304814623873968 5.375221296873890608 -8.698858331877019623 
	-1.873273079533430696 5.369823530599221684 -8.718060062512684283 
	-1.934797405823651228 5.362115444691950117 -8.74363604459930599 
	-1.968373798749151415 5.359934221718085645 -8.750000126659871924 
	-2.031626201250848585 5.359934221718085645 -8.750000126659871924 
	-2.065202594176348327 5.362115444691950117 -8.74363604459930599 
	-2.12672692046656886 5.369823530599221684 -8.718060062512684283 
	-2.154695185376126254 5.375221296873890608 -8.698858331877019623 
	-2.198850400639889457 5.385225615689488876 -8.654703116613257308 
	-2.218058162323007565 5.39050592338448098 -8.626731702922906919 
	-2.243638613041452956 5.397941116382280136 -8.565195848137566514 
	-2.25 5.400000013411048627 -8.531615149819550936 
	-2.25 5.400000013411048627 -8.468385103500192912 
	-2.243638613041452956 5.397941116382280136 -8.434804405182177334 
	-2.218058162323007565 5.390505923384481868 -8.373268550396836929 
	-2.198850400639889457 5.385225615689488876 -8.345297136706488317 
	-2.154695185376126254 5.375221296873890608 -8.301141921442724225 
	-2.12672692046656886 5.369823530599221684 -8.281940190807059565 
	-2.065202594176348327 5.362115444691950117 -8.256364208720437858 
	-2.031626201250848585 5.359934221718085645 -8.250000126659871924 
	-2 5.359934221718085645 -8.250000126659871924 
	0.0001767033798408191496 
	
	cone -2 7 -8.500000126659871924 -0 -1 -0 0.25 0 0 1 I I 0 -1 0.25 forward I I I I 
	cone -1 4.600000001490116119 -8.500000126659871924 -1 -0 -0 0 0 -0.8000000119209325078 1 I I 0 1 0.8000000119209325078 forward I I I I 
	nullbs 
	nullbs 
	I I 
	0 
	0 
	0 
	
	0 } I I #
ATTRIB_CUSTOM-attrib $-1 -1 $-1 $119 $108 @22 FDM_feature_attrib_def 2 2 @16 thread_face_data 3 377 2097152 6 1901 -2.5 4.600000001490116119 -8.500000126659871924 -3 4.600000001490116119 -8.500000126659871924 0 0 0 0 #
ATTRIB_CUSTOM-attrib $-1 -1 $-1 $-1 $120 @22 generic_tag_attrib_def 3 3 -1 @23 generic_tag_attrib_def  1 1 @1 2 0 3 374 422 454 0 #
face $156 82 $-1 $157 $134 $6 $-1 $100 forward single #
loop $-1 -1 $-1 $158 $159 $120 #
plane-surface $-1 -1 $-1 -2.5 4.600000001490116119 -8.500000126659871924 -1 0 0 0 0 1 forward_v I I I I #
loop $-1 -1 $-1 $-1 $145 $108 #
coedge $-1 -1 $-1 $143 $143 $160 $161 reversed $121 0 $-1 #
coedge $-1 -1 $-1 $144 $144 $162 $163 forward $123 0 $-1 #
coedge $-1 -1 $-1 $145 $145 $124 $146 reversed $142 0 $-1 #
edge $-1 101 $-1 $164 -3.141592653589793116 $164 3.141592653589793116 $145 $165 forward @7 unknown #
coedge $-1 -1 $-1 $147 $147 $126 $148 forward $166 0 $-1 #
edge $-1 100 $-1 $167 -3.141592653589793116 $167 3.141592653589793116 $126 $168 forward @7 unknown #
loop $-1 -1 $-1 $-1 $127 $157 #
vertex $-1 120 $-1 $128 0 $169 #
ellipse-curve $-1 -1 $-1 -1 4.600000001490116119 -8.500000126659871924 -1 -0 -0 0 0 -0.8000000119209325078 1 I I #
ellipse-curve $-1 -1 $-1 -2 4.600000001490116119 -8.500000126659871924 -0.7071067864549051007 -0.7071067759181899337 -0 0.8000000000000000444 -0.8000000119209323968 0 0.7071067759181899337 I I #
point $-1 -1 $-1 -2 4.600000001490116119 -9.300000126659872635 #
point $-1 -1 $-1 -2 4.600000001490116119 -7.700000126659872102 #
point $-1 -1 $-1 -1.999999999999999556 5.359934221718085645 -8.250000126659871924 #
ATTRIB_CUSTOM-attrib $-1 -1 $-1 $-1 $139 @22 generic_tag_attrib_def 3 3 -1 @23 generic_tag_attrib_def  1 1 @1 7 0 3 371 422 454 0 #
face $170 83 $-1 $171 $172 $6 $-1 $173 forward single #
loop $-1 -1 $-1 $-1 $162 $120 #
coedge $-1 -1 $-1 $159 $159 $174 $175 reversed $140 0 $-1 #
coedge $-1 -1 $-1 $160 $160 $143 $161 forward $176 0 $-1 #
edge $-1 103 $-1 $177 -3.141592653589793116 $177 3.141592653589793116 $160 $178 forward @7 unknown #
coedge $-1 -1 $-1 $162 $162 $144 $163 reversed $158 0 $-1 #
edge $-1 102 $-1 $179 -3.141592653589793116 $179 3.141592653589793116 $162 $180 forward @7 unknown #
vertex $-1 122 $-1 $146 0 $181 #
ellipse-curve $-1 -1 $-1 -2.529999999999999805 4.600000001490116119 -8.500000126659871924 -1 -0 -0 0 0.2116999999999999993 0 1 I I #
loop $-1 -1 $-1 $-1 $147 $182 #
vertex $-1 121 $-1 $148 0 $183 #
ellipse-curve $-1 -1 $-1 -3 4.600000001490116119 -8.500000126659871924 -1 -0 -0 0 0 -0.8000000119209325078 1 I I #
point $-1 -1 $-1 -1 4.600000001490116119 -7.700000114738939416 #
ATTRIB_CUSTOM-attrib $-1 -1 $-1 $-1 $157 @22 generic_tag_attrib_def 3 3 -1 @23 generic_tag_attrib_def  1 1 @1 1 0 3 371 422 454 0 #
face $184 84 $-1 $185 $186 $6 $-1 $187 forward single #
loop $-1 -1 $-1 $149 $188 $157 #
plane-surface $-1 -1 $-1 -1 4.600000001490116119 -8.500000126659871924 1 0 0 0 0 -1 forward_v I I I I #
coedge $-1 -1 $-1 $174 $174 $159 $175 forward $186 0 $-1 #
edge $-1 104 $-1 $189 0 $189 6.283185307179586232 $174 $190 forward @7 unknown #
loop $-1 -1 $-1 $166 $160 $182 #
vertex $-1 124 $-1 $161 0 $191 #
ellipse-curve $-1 -1 $-1 -3 4.600000001490116119 -8.500000126659871924 1 -0 -0 0 0.2116999999999999993 0 1 I I #
vertex $-1 123 $-1 $163 0 $192 #
ellipse-curve $-1 -1 $-1 -2.5 4.600000001490116119 -8.500000126659871924 1 -0 -0 0 0.241700000000000248 0 1 I I #
point $-1 -1 $-1 -2.529999999999999805 4.388300001490115676 -8.500000126659871924 #
face $193 86 $-1 $194 $176 $6 $-1 $195 forward single #
point $-1 -1 $-1 -3 4.600000001490116119 -7.700000114738939416 #
ATTRIB_CUSTOM-attrib $-1 -1 $-1 $-1 $171 @22 generic_tag_attrib_def 3 3 -1 @23 generic_tag_attrib_def  1 1 @1 8 0 3 369 422 454 0 #
face $196 85 $-1 $182 $197 $6 $-1 $198 forward single #
loop $-1 -1 $-1 $199 $174 $171 #
cone-surface $-1 -1 $-1 -0.5 4.600000001490116119 -8.500000126659871924 -1 -0 -0 0 0 -0.5000000000000017764 1 I I 0 -1 0.5000000000000017764 forward I I I I #
coedge $-1 -1 $-1 $188 $188 $200 $201 reversed $172 0 $-1 #
vertex $-1 125 $-1 $175 0 $202 #
ellipse-curve $-1 -1 $-1 -2.5 4.600000001490116119 -8.500000126659871924 -1 -0 -0 0 0 -0.5000000000000017764 1 I I #
point $-1 -1 $-1 -3 4.388300001490115676 -8.500000126659871924 #
point $-1 -1 $-1 -2.5 4.358300001490116315 -8.500000126659871924 #
ATTRIB_CUSTOM-attrib $-1 -1 $-1 $-1 $182 @22 generic_tag_attrib_def 3 3 -1 @23 generic_tag_attrib_def  3 1 @1 2 0 3 369 422 454 0 1 @1 2 0 3 371 422 454 0 1 @1 1 0 3 374 422 454 0 #
face $203 87 $-1 $-1 $204 $6 $-1 $205 reversed single #
plane-surface $-1 -1 $-1 -3 4.600000001490116119 -8.500000126659871924 -1 0 0 0 0 1 forward_v I I I I #
ATTRIB_CUSTOM-attrib $-1 -1 $-1 $-1 $185 @22 generic_tag_attrib_def 3 3 -1 @23 generic_tag_attrib_def  1 1 @1 7 0 3 369 422 454 0 #
loop $-1 -1 $-1 $206 $200 $185 #
cone-surface $-1 -1 $-1 -0.5 4.600000001490116119 -8.500000126659871924 -1 -0 -0 0 0 0.6500000000000003553 1 I I 0 1 0.6500000000000003553 forward I I I I #
loop $-1 -1 $-1 $-1 $207 $171 #
coedge $-1 -1 $-1 $200 $200 $188 $201 forward $197 0 $-1 #
edge $-1 105 $-1 $208 -3.141592653589793116 $208 3.141592653589793116 $200 $209 forward @7 unknown #
point $-1 -1 $-1 -2.5 4.600000001490116119 -9.0000001266598737 #
ATTRIB_CUSTOM-attrib $-1 -1 $-1 $-1 $194 @22 generic_tag_attrib_def 3 3 -1 @23 generic_tag_attrib_def  1 1 @1 1 0 3 369 422 454 0 #
loop $-1 -1 $-1 $210 $211 $194 #
plane-surface $-1 -1 $-1 -0.5 4.600000001490116119 -8.500000126659871924 -1 0 0 0 0 1 forward_v I I I I #
loop $-1 -1 $-1 $-1 $212 $185 #
coedge $-1 -1 $-1 $207 $207 $211 $213 reversed $199 0 $-1 #
vertex $-1 126 $-1 $201 0 $214 #
ellipse-curve $-1 -1 $-1 -1 4.600000001490116119 -8.500000126659871924 1 -0 -0 0 0 0.6500000000000003553 1 I I #
loop $-1 -1 $-1 $-1 $215 $194 #
coedge $-1 -1 $-1 $211 $211 $207 $213 forward $204 0 $-1 #
coedge $-1 -1 $-1 $212 $212 $215 $216 reversed $206 0 $-1 #
edge $-1 106 $-1 $217 0 $217 6.283185307179586232 $207 $218 forward @7 unknown #
point $-1 -1 $-1 -1 4.600000001490116119 -9.150000126659872279 #
coedge $-1 -1 $-1 $215 $215 $212 $216 forward $210 0 $-1 #
edge $-1 107 $-1 $219 -3.141592653589793116 $219 3.141592653589793116 $212 $220 forward @7 unknown #
vertex $-1 127 $-1 $213 0 $221 #
ellipse-curve $-1 -1 $-1 -0.5 4.600000001490116119 -8.500000126659871924 -1 -0 -0 0 0 -0.5000000000000017764 1 I I #
vertex $-1 128 $-1 $216 0 $222 #
ellipse-curve $-1 -1 $-1 -0.5 4.600000001490116119 -8.500000126659871924 1 -0 -0 0 0 0.6500000000000003553 1 I I #
point $-1 -1 $-1 -0.5 4.600000001490116119 -9.0000001266598737 #
point $-1 -1 $-1 -0.5 4.600000001490116119 -9.150000126659872279 #
End-of-ASM-data 