22700 0 2 4           
16 Autodesk Neutron 20 ASM 227.1.1.65535 NT 24 Wed Aug 25 11:00:41 2021 
10 9.999999999999999547e-07 1.000000000000000036e-10 
asmheader $-1 -1 @13 227.1.1.65535 #
body $2 2329 $-1 $3 $-1 $4 #
ATTRIB_CUSTOM-attrib $-1 -1 $5 $-1 $1 @20 Timestamp_attrib_def 1 1469386958000 #
lump $-1 -1 $-1 $-1 $6 $1 #
transform $-1 -1 1 0 0 0 1 0 0 0 1 0 0 0 1 no_rotate no_reflect no_shear #
ATTRIB_CUSTOM-attrib $-1 -1 $-1 $2 $1 @22 generic_tag_attrib_def 3 3 -1 @23 generic_tag_attrib_def  2 3 @3 323 5 0 0 3 @3 325 5 0 0 #
shell $-1 -1 $-1 $-1 $-1 $7 $-1 $3 #
face $8 2355 $-1 $9 $10 $6 $-1 $11 forward single #
ATTRIB_CUSTOM-attrib $-1 -1 $-1 $-1 $7 @22 generic_tag_attrib_def 3 3 -1 @23 generic_tag_attrib_def  1 1 @1 1 0 1 336 0 #
face $12 2354 $-1 $13 $14 $6 $-1 $15 reversed single #
loop $-1 -1 $-1 $-1 $16 $7 #
spline-surface $-1 -1 $-1 forward { srf_srf_v_bl_spl_sur 22210 @21 blend_support_surface cone 0 0.2500000014901162526 -8.500000126659871924 0 1 0 -1 0 0 1 I I 0 1 1 forward I I I I null_curve nullbs 0 0 0 nullbs 0 nullbs 
	@21 blend_support_surface cone -9.714451465470119729e-17 1.850000027567148209 -9.074999999999999289 0 0 1 -0.2116999999999999993 0 0 1 I I -0 -1 0.25 forward I I I I null_curve nullbs 0 0 0 nullbs 0 nullbs 
	intcurve forward { int_int_cur 22210 full nubs 3 periodic 17 
	0 3 0.08000845873450804224 2 0.1600169174690160845 2 0.2400197220300673284 2 0.3200225265911185724 2 
	0.4000253311521699273 2 0.4800281357132212823 2 0.5600365944477292413 2 0.6400450531822372557 2 0.7200535119167451592 2 
	0.8000619706512530627 2 0.8800647752123043066 2 0.9600675797733556616 2 1.040070384334406794 2 1.120073188895457816 2 
	1.200081647629966053 2 1.280090106364474289 3 
	0.2116999999999998883 1.850000027567148209 -9.477334823680294562 
	0.2116999999999998883 1.876669513811984213 -9.477334823680294562 
	0.2063535278613097268 1.905059445711391408 -9.478539767921953185 
	0.1847241865121569127 1.957192824570888057 -9.482852394558333842 
	0.1684455330801583883 1.980943505641374003 -9.485893509764499854 
	0.1309448032036392984 2.018444235517893315 -9.491571136797679387 
	0.1071935617223780668 2.034723925975351566 -9.494582232614853012 
	0.05505822669918248452 2.056354020574458819 -9.498825745470199422 
	0.02666760152035035913 2.061700027567148208 -9.500000126659871924 
	-0.02666760152035050832 2.061700027567148208 -9.500000126659871924 
	-0.05505822669918265799 2.056354020574458819 -9.498825745470199422 
	-0.1071935617223783999 2.034723925975351566 -9.494582232614853012 
	-0.1309448032036394927 2.018444235517892871 -9.491571136797679387 
	-0.1684455330801585826 1.980943505641374003 -9.485893509764499854 
	-0.1847241865121571069 1.957192824570888057 -9.482852394558333842 
	-0.2063535278613098378 1.90505944571139163 -9.478539767921953185 
	-0.2117000000000001103 1.876669513811984213 -9.477334823680294562 
	-0.2117000000000001103 1.823330541322312204 -9.477334823680294562 
	-0.2063535278613099211 1.794940609422904787 -9.478539767921953185 
	-0.1847241865121571625 1.742807230563408138 -9.482852394558333842 
	-0.1684455330801586104 1.719056549492922636 -9.485893509764499854 
	-0.1309448032036396037 1.681555819616403546 -9.491571136797679387 
	-0.1071935617223785941 1.665276129158944407 -9.494582232614853012 
	-0.05505822669918294249 1.643646034559837155 -9.498825745470199422 
	-0.02666760152035061587 1.638300027567148209 -9.500000126659871924 
	0.02666760152035022383 1.638300027567148209 -9.500000126659871924 
	0.05505822669918251921 1.643646034559837155 -9.498825745470199422 
	0.1071935617223780529 1.665276129158944407 -9.494582232614853012 
	0.1309448032036390486 1.681555819616403102 -9.491571136797679387 
	0.168445533080158194 1.719056549492922192 -9.485893509764499854 
	0.1847241865121569404 1.742807230563408138 -9.482852394558333842 
	0.2063535278613098101 1.794940609422904787 -9.478539767921953185 
	0.2116999999999998883 1.823330541322312204 -9.477334823680294562 
	0.2116999999999998883 1.850000027567148209 -9.477334823680294562 
	0.0001592325977212599481 
	
	cone -9.714451465470119729e-17 1.850000027567148209 -9.074999999999999289 0 0 1 -0.2116999999999999993 0 0 1 I I 0 1 0.25 forward I I I I 
	cone 0 0.2500000014901162526 -8.500000126659871924 0 1 0 -1 0 0 1 I I 0 1 1 forward I I I I 
	nullbs 
	nullbs 
	I I 
	0 
	0 
	0 
	
	0 } I I 0 0 
	two_radii edge_offset none calibrated -0.3200225265911186279 0.9600675797733556616 0.02999999999999999889 edge_offset none calibrated -0.3200225265911186279 0.9600675797733556616 0.02999999999999999889 rounded_chamfer radius two_ends none calibrated -0.3200225265911186279 0.9600675797733556616 0 0 
	F 0 F 1 
	I I 
	1 0.001000000000000000021 0.0008521392414391394275 
	1 
	full nurbs 1 3 both open periodic none none 2 19 
	0 1 1 1 
	-0.3200225265911186279 3 -0.2800185469910054237 2 -0.2160121796308243081 2 -0.1328039020625888522 2 -0.08000845873450823653 2 
	0 2 0.08000845873450804224 2 0.1831087018668490218 2 0.2607388128499179003 2 0.3200225265911185724 2 
	0.3829359928363647025 2 0.4366289760954980004 2 0.4903219593546312427 2 0.5600365944477292413 2 0.6614473382924709322 2 
	0.7347638303181907027 2 0.8521085958734563315 2 0.9372171785126962584 2 0.9600675797733556616 3 
	-2.832769448823989808e-16 1.608300027567148183 -9.500000126659871924 1 
	-1.571142438863050602e-16 1.638300027567148209 -9.470000126659872564 1 
	0.01522431407549512325 1.608300027567148183 -9.500000126659871924 1 
	0.01293462007070319587 1.638300027567148209 -9.470000126659872564 1 
	0.03094964425237885924 1.609761102307304403 -9.499643454280546351 1 
	0.0262946465041898475 1.63950162259351595 -9.469735107392800444 1 
	0.07157394493265986646 1.61774252989404288 -9.497749347417592247 1 
	0.06094863712587969551 1.646104363620044531 -9.468321515616809236 1 
	0.09622024867487687094 1.62682060028444142 -9.495612816959505764 1 
	0.08213231629988182458 1.653632516538788622 -9.466722842970817453 1 
	0.1474387167132686083 1.655724595608742966 -9.489500928195564455 1 
	0.1267624369923131544 1.678027268660036153 -9.462093000552817657 1 
	0.1713838178502791743 1.676734066672865175 -9.485410630131934084 1 
	0.1480919702878901456 1.695998075686025564 -9.458956900404954737 1 
	0.2037215145685032647 1.719015602749687011 -9.479112533336174096 1 
	0.1773366498336862995 1.73293966079702888 -9.454068911839897282 1 
	0.2144534095596256629 1.737536109826417929 -9.476769721563252702 1 
	0.1871744694225682126 1.749281165291378004 -9.452236394669194297 1 
	0.234839890677558033 1.78696494148280749 -9.472115826127973648 1 
	0.2059827599593377634 1.793267167706807053 -9.448581155111600793 1 
	0.2409214772204482657 1.81946399813433346 -9.470544737594329021 1 
	0.211699999999999916 1.8225119020273155 -9.447334823680295202 1 
	0.240921477220448238 1.880536056999964289 -9.470544737594329021 1 
	0.2116999999999998605 1.877488153106981361 -9.447334823680295202 1 
	0.2348398906775596706 1.913035113651485153 -9.472115826127973648 1 
	0.2059827599593380409 1.906732887427488699 -9.448581155111600793 1 
	0.2067312128814946248 1.981187096076900911 -9.478532570956572201 1 
	0.1800500756704435656 1.967380350924497812 -9.453620963129349519 1 
	0.1820662834298923394 2.013641272506173863 -9.483796312088884406 1 
	0.1575440803718429761 1.995690929782267364 -9.457718743167179198 1 
	0.1271825092701817372 2.057692500112036083 -9.492166086942029679 1 
	0.109007811378579636 2.033387626742142462 -9.464122314116433898 1 
	0.09888154738259517795 2.072722472582302355 -9.495549280038375173 1 
	0.08440741432082897455 2.045964097252022995 -9.466672683012660627 1 
	0.04622458589850683697 2.088430520529529044 -9.499192619642817803 1 
	0.03927469472277533846 2.059017353551418683 -9.469400993503001018 1 
	0.02256160228507069973 2.091700027567148013 -9.500000126659871924 1 
	0.01916840077632144673 2.061700027567148208 -9.470000126659872564 1 
	-0.02394297715552794192 2.091700027567148013 -9.500000126659871924 1 
	-0.02034202075262974904 2.061700027567148208 -9.470000126659872564 1 
	-0.04912406977829411603 2.088002560586572187 -9.499084582136411825 1 
	-0.04173946012035897185 2.058667671957899348 -9.46932101875813359 1 
	-0.0937531514985548986 2.073802678894732132 -9.49580880627269508 1 
	-0.08003279510547703368 2.046855648803235006 -9.466866077470847074 1 
	-0.1134967432581262536 2.064420469454569584 -9.493701754889336542 1 
	-0.09713070890997373141 2.039008742213446634 -9.465279626181285266 1 
	-0.149208869407258915 2.041203458248245894 -9.488969868343762215 1 
	-0.1284219873561301961 2.019311757784229666 -9.461681622901792821 1 
	-0.1648036350365225666 2.027776711535130172 -9.486426118348704861 1 
	-0.1422751416463171326 2.007808103545299261 -9.459731875973181658 1 
	-0.1965021747501458915 1.992694893910635923 -9.480672405454502183 1 
	-0.1707309076071817644 1.977365655695930702 -9.455286957464732467 1 
	-0.2118561757578242277 1.968761169022893887 -9.477362626953086178 1 
	-0.1847782967994644199 1.956322698151897299 -9.452702071490895364 1 
	-0.2381253158382985458 1.90506930894735893 -9.471365818067727815 1 
	-0.2090138485813757274 1.899644233028532581 -9.44799208748675845 1 
	-0.2437091009058536539 1.864786729248202546 -9.469857498220603631 1 
	-0.2143016498709097439 1.863287923683130121 -9.446791542252457319 1 
	-0.2367220590296276739 1.796507019456252463 -9.471582231257977824 1 
	-0.2077794179149636544 1.801873305210522247 -9.448155143153968538 1 
	-0.2283823579188405395 1.767356579020987306 -9.473665268577164511 1 
	-0.1999826078790737371 1.775744841346503566 -9.449802735945580068 1 
	-0.1940921801892212806 1.698928360787270275 -9.48122142922382416 1 
	-0.1685006249861906169 1.715122491069343447 -9.45572068611968497 1 
	-0.1628716497644084327 1.665545102514959241 -9.487482134665386369 1 
	-0.1402733450691219796 1.686349552290156373 -9.460559106745465741 1 
	-0.09336319575658053038 1.62449450099689674 -9.496067479285276391 1 
	-0.07960221477207918284 1.651647525857147913 -9.467070233073622276 1 
	-0.05965713477699575995 1.613410428768115024 -9.49877110619525844 1 
	-0.05073157552371317103 1.64251605647247878 -9.469084812081606017 1 
	-0.01755429305254085914 1.608771644854466221 -9.499885777970067835 1 
	-0.01491408233868078692 1.638688435278418787 -9.469915076691423295 1 
	-0.008696176955915185455 1.608300027567148183 -9.500000126659871924 1 
	-0.007388296407613251238 1.638300027567148209 -9.470000126659872564 1 
	-2.832769448823989808e-16 1.608300027567148183 -9.500000126659871924 1 
	-1.571142438863050602e-16 1.638300027567148209 -9.470000126659872564 1 
	0.0008521392414391394275 
	
	0 
	0 
	0 
	0 
	0 
	1 0.08000845873450804224 
	F 
	0 0 0 null_curve 
	convex 
	rb_snapshot 
	I I nullbs nullbs 
	} I I I I #
ATTRIB_CUSTOM-attrib $-1 -1 $17 $-1 $9 @22 generic_tag_attrib_def 3 3 -1 @23 generic_tag_attrib_def  1 1 @1 3 0 2 333 -334 0 #
face $18 2356 $-1 $19 $20 $6 $-1 $21 forward single #
loop $-1 -1 $-1 $22 $23 $9 #
cone-surface $-1 -1 $-1 -9.714451465470119729e-17 1.850000027567148209 -9.074999999999999289 0 0 1 -0.2116999999999999993 0 0 1 I I 0 1 0.25 forward I I I I #
coedge $-1 -1 $-1 $24 $25 $26 $27 forward $10 0 $28 #
ATTRIB_CUSTOM-attrib $-1 -1 $-1 $12 $9 @22 FDM_feature_attrib_def 2 2 @16 thread_face_data 3 334 2097152 6 1901 -9.714451465470119729e-17 1.850000027567148209 -9.500000126659871924 -9.714451465470119729e-17 1.850000027567148209 -9.271481241140323348 0 0 0 0 #
ATTRIB_CUSTOM-attrib $-1 -1 $-1 $-1 $13 @22 generic_tag_attrib_def 3 3 -1 @23 generic_tag_attrib_def  1 1 @1 3 0 1 323 0 #
face $29 2205 $-1 $30 $31 $6 $-1 $32 reversed single #
loop $-1 -1 $-1 $33 $34 $13 #
cone-surface $-1 -1 $-1 0 0.2500000014901162526 -8.500000126659871924 0 1 0 -1 0 0 1 I I 0 1 1 forward I I I I #
loop $-1 -1 $-1 $-1 $35 $9 #
coedge $-1 -1 $-1 $23 $23 $36 $37 reversed $14 0 $-1 #
coedge $-1 -1 $-1 $26 $16 $35 $38 forward $10 0 $39 #
coedge $-1 -1 $-1 $16 $26 $40 $41 forward $10 0 $42 #
coedge $-1 -1 $-1 $25 $24 $16 $27 reversed $10 0 $43 #
edge $-1 2357 $-1 $44 5.122307673329024402e-31 $45 0.0424264068711924236 $16 $46 forward @7 tangent #
pcurve $-1 -1 $-1 0 forward { exp_par_cur nubs 1 open 2 
	5.122307673329024402e-31 1 0.0424264068711924236 1 
	0 -0.3200225265911186279 
	1 -0.3200225265911186279 
	0 
	spline forward { ref 0 } I I I I 
	} 0 0 #
ATTRIB_CUSTOM-attrib $-1 -1 $-1 $-1 $19 @22 generic_tag_attrib_def 3 3 -1 @23 generic_tag_attrib_def  1 1 @1 4 0 1 329 0 #
face $47 2204 $-1 $48 $49 $6 $-1 $50 reversed single #
loop $-1 -1 $-1 $-1 $51 $19 #
plane-surface $-1 -1 $-1 0.2500000037252902985 0.2500000014901162526 -9.5 1 0 0 0 1 0 forward_v I I I I #
loop $-1 -1 $-1 $52 $53 $13 #
coedge $-1 -1 $-1 $34 $34 $54 $55 reversed $20 0 $-1 #
coedge $-1 -1 $-1 $35 $35 $24 $38 reversed $22 0 $-1 #
coedge $-1 -1 $-1 $36 $36 $23 $37 forward $56 0 $-1 #
edge $-1 2326 $-1 $57 0 $57 1.282523241040487427 $36 $58 forward @7 unknown #
edge $-1 2358 $-1 $45 -0.3200225265911186279 $45 0.9600675797733556616 $35 $59 forward @7 unknown #
pcurve $-1 -1 $-1 0 forward { exp_par_cur nubs 1 periodic 2 
	-0.3200225265911186279 1 0.9600675797733556616 1 
	1 -0.3200225265911186279 
	1 0.9600675797733556616 
	0 
	spline forward { ref 0 } I I I I 
	} 0 0 #
coedge $-1 -1 $-1 $40 $40 $25 $41 reversed $52 0 $-1 #
edge $-1 2359 $-1 $44 -0.9600675797733556616 $44 0.3200225265911186279 $40 $60 forward @7 unknown #
pcurve $-1 -1 $-1 0 reversed { exp_par_cur nubs 1 periodic 2 
	-0.3200225265911186279 1 0.9600675797733556616 1 
	0 -0.3200225265911186279 
	0 0.9600675797733556616 
	0 
	spline forward { ref 0 } I I I I 
	} 0 0 #
pcurve $-1 -1 $-1 0 reversed { ref 2 } 0 1.280090106364474289 #
vertex $-1 2360 $-1 $27 0 $61 #
vertex $-1 2361 $-1 $27 1 $62 #
straight-curve $-1 -1 $-1 -2.832769448823989808e-16 1.608300027567148183 -9.500000126659871924 2.973683380238323969e-15 0.7071067811865553443 0.7071067811865396902 F 5.122307673329024402e-31 F 0.0424264068711924236 #
ATTRIB_CUSTOM-attrib $-1 -1 $-1 $-1 $30 @22 generic_tag_attrib_def 3 3 -1 @23 generic_tag_attrib_def  1 1 @1 5 0 1 329 0 #
face $63 2203 $-1 $64 $65 $6 $-1 $66 reversed single #
loop $-1 -1 $-1 $-1 $67 $30 #
cone-surface $-1 -1 $-1 0 0.5000000014901162526 -9.5 0 0 1 0.2500000037252902985 0 0 1 I I 0 1 0.2500000037252902985 forward I I I I #
coedge $-1 -1 $-1 $68 $69 $70 $71 reversed $31 0 $-1 #
loop $-1 -1 $-1 $-1 $40 $13 #
coedge $-1 -1 $-1 $72 $73 $74 $75 forward $33 0 $-1 #
coedge $-1 -1 $-1 $54 $54 $34 $55 forward $76 0 $-1 #
edge $-1 2168 $-1 $77 -3.141592653589793116 $77 3.141592653589793116 $34 $78 forward @7 unknown #
loop $-1 -1 $-1 $79 $36 $80 #
vertex $-1 2362 $-1 $37 0 $81 #
intcurve-curve $-1 -1 $-1 forward { int_int_cur 22210 full nubs 3 periodic 17 
	0 3 0.08016478988409270201 2 0.160329579768185404 2 0.2404801950141536304 2 0.3206308102601218568 2 
	0.4007814255060900832 2 0.4809320407520583096 2 0.5610968306361510116 2 0.6412616205202437136 2 0.7214264104043363046 2 
	0.8015912002884288956 2 0.881741815534397233 2 0.9618924307803655704 2 1.042043046026333908 2 1.122193661272302245 2 
	1.202358451156394725 2 1.282523241040487427 3 
	0.2116999999999998883 1.850000027567148209 -9.271481241140323348 
	0.2116999999999998883 1.823278430939117456 -9.271481241140323348 
	0.2063335200803980418 1.794868077642551407 -9.273014372106477055 
	0.184690532429209131 1.742750481135262319 -9.27846910392597124 
	0.1684204302525394714 1.719031446665303609 -9.282303100030773635 
	0.1309718919964809603 1.68158290840924507 -9.289436392918020147 
	0.1072514876011623902 1.665310229191319102 -9.293210927850733327 
	0.05512900079415312266 1.64366535485644949 -9.298528178732478722 
	0.02671687174865597023 1.638300027567148209 -9.300000126659872635 
	-0.02671687174865619227 1.638300027567148209 -9.300000126659872635 
	-0.0551290007941533447 1.64366535485644949 -9.298528178732478722 
	-0.1072514876011626123 1.665310229191319102 -9.293210927850733327 
	-0.1309718919964811823 1.68158290840924507 -9.289436392918020147 
	-0.1684204302525396935 1.719031446665303609 -9.282303100030773635 
	-0.1846905324292093253 1.742750481135262319 -9.27846910392597124 
	-0.2063335200803982361 1.794868077642551407 -9.273014372106477055 
	-0.2117000000000001103 1.823278430939117456 -9.271481241140323348 
	-0.2117000000000001103 1.876721624195178961 -9.271481241140323348 
	-0.2063335200803983194 1.905131977491744788 -9.273014372106477055 
	-0.1846905324292095196 1.957249573999033876 -9.27846910392597124 
	-0.1684204302525396657 1.980968608468992587 -9.282303100030773635 
	-0.1309718919964811823 2.018417146725051126 -9.289436392918020147 
	-0.1072514876011627372 2.034689825942977315 -9.293210927850733327 
	-0.05512900079415349736 2.056334700277846927 -9.298528178732478722 
	-0.02671687174865621309 2.061700027567148208 -9.300000126659872635 
	0.02671687174865599104 2.061700027567148208 -9.300000126659872635 
	0.05512900079415326837 2.056334700277846927 -9.298528178732478722 
	0.1072514876011625151 2.034689825942977315 -9.293210927850733327 
	0.1309718919964809603 2.018417146725051126 -9.289436392918020147 
	0.1684204302525394159 1.980968608468992587 -9.282303100030773635 
	0.1846905324292091866 1.957249573999033876 -9.27846910392597124 
	0.2063335200803980696 1.90513197749174501 -9.273014372106477055 
	0.2116999999999998883 1.876721624195178961 -9.271481241140323348 
	0.2116999999999998883 1.850000027567148209 -9.271481241140323348 
	0.0001615851659818544057 
	
	cone -9.714451465470119729e-17 1.850000027567148209 -9.074999999999999289 0 0 1 -0.2116999999999999993 0 0 1 I I 0 1 0.25 forward I I I I 
	cone 0 0.2500000014901162526 -8.500000126659871924 0 1 0 -0.8000000000000000444 0 0 1 I I 0 -1 0.8000000000000000444 forward I I I I 
	nullbs 
	nullbs 
	I I 
	0 
	0 
	0 
	
	0 } I I #
intcurve-curve $-1 -1 $-1 forward { spring_int_cur 22210 full nurbs 3 periodic 19 
	-0.3200225265911186279 3 -0.2800185469910054237 2 -0.2160121796308243081 2 -0.1328039020625888522 2 -0.08000845873450823653 2 
	0 2 0.08000845873450804224 2 0.1831087018668490218 2 0.2607388128499179003 2 0.3200225265911185724 2 
	0.3829359928363647025 2 0.4366289760954980004 2 0.4903219593546312427 2 0.5600365944477292413 2 0.6614473382924709322 2 
	0.7347638303181907027 2 0.8521085958734563315 2 0.9372171785126962584 2 0.9600675797733556616 3 
	-1.571142438863050602e-16 1.638300027567148209 -9.470000126659872564 1 
	0.01293462007070319587 1.638300027567148209 -9.470000126659872564 1 
	0.0262946465041898475 1.63950162259351595 -9.469735107392800444 1 
	0.06094863712587969551 1.646104363620044531 -9.468321515616809236 1 
	0.08213231629988182458 1.653632516538788622 -9.466722842970817453 1 
	0.1267624369923131544 1.678027268660036153 -9.462093000552817657 1 
	0.1480919702878901456 1.695998075686025564 -9.458956900404954737 1 
	0.1773366498336862995 1.73293966079702888 -9.454068911839897282 1 
	0.1871744694225682126 1.749281165291378004 -9.452236394669194297 1 
	0.2059827599593377634 1.793267167706807053 -9.448581155111600793 1 
	0.211699999999999916 1.8225119020273155 -9.447334823680295202 1 
	0.2116999999999998605 1.877488153106981361 -9.447334823680295202 1 
	0.2059827599593380409 1.906732887427488699 -9.448581155111600793 1 
	0.1800500756704435656 1.967380350924497812 -9.453620963129349519 1 
	0.1575440803718429761 1.995690929782267364 -9.457718743167179198 1 
	0.109007811378579636 2.033387626742142462 -9.464122314116433898 1 
	0.08440741432082897455 2.045964097252022995 -9.466672683012660627 1 
	0.03927469472277533846 2.059017353551418683 -9.469400993503001018 1 
	0.01916840077632144673 2.061700027567148208 -9.470000126659872564 1 
	-0.02034202075262974904 2.061700027567148208 -9.470000126659872564 1 
	-0.04173946012035897185 2.058667671957899348 -9.46932101875813359 1 
	-0.08003279510547703368 2.046855648803235006 -9.466866077470847074 1 
	-0.09713070890997373141 2.039008742213446634 -9.465279626181285266 1 
	-0.1284219873561301961 2.019311757784229666 -9.461681622901792821 1 
	-0.1422751416463171326 2.007808103545299261 -9.459731875973181658 1 
	-0.1707309076071817644 1.977365655695930702 -9.455286957464732467 1 
	-0.1847782967994644199 1.956322698151897299 -9.452702071490895364 1 
	-0.2090138485813757274 1.899644233028532581 -9.44799208748675845 1 
	-0.2143016498709097439 1.863287923683130121 -9.446791542252457319 1 
	-0.2077794179149636544 1.801873305210522247 -9.448155143153968538 1 
	-0.1999826078790737371 1.775744841346503566 -9.449802735945580068 1 
	-0.1685006249861906169 1.715122491069343447 -9.45572068611968497 1 
	-0.1402733450691219796 1.686349552290156373 -9.460559106745465741 1 
	-0.07960221477207918284 1.651647525857147913 -9.467070233073622276 1 
	-0.05073157552371317103 1.64251605647247878 -9.469084812081606017 1 
	-0.01491408233868078692 1.638688435278418787 -9.469915076691423295 1 
	-0.007388296407613251238 1.638300027567148209 -9.470000126659872564 1 
	-1.571142438863050602e-16 1.638300027567148209 -9.470000126659872564 1 
	0.0008521392414391394275 
	
	spline forward { ref 0 } I I I I 
	cone -9.714451465470119729e-17 1.850000027567148209 -9.074999999999999289 0 0 1 -0.2116999999999999993 0 0 1 I I -0 -1 0.25 forward I I I I 
	nubs 1 periodic 2 
	-0.3200225265911186279 1 0.9600675797733556616 1 
	1 -0.3200225265911186279 
	1 0.9600675797733556616 
	
	nullbs 
	I I 
	0 
	0 
	0 
	
	0 right } I I #
intcurve-curve $-1 -1 $-1 reversed { spring_int_cur 22210 full nurbs 3 periodic 19 
	-0.3200225265911186279 3 -0.2800185469910054237 2 -0.2160121796308243081 2 -0.1328039020625888522 2 -0.08000845873450823653 2 
	0 2 0.08000845873450804224 2 0.1831087018668490218 2 0.2607388128499179003 2 0.3200225265911185724 2 
	0.3829359928363647025 2 0.4366289760954980004 2 0.4903219593546312427 2 0.5600365944477292413 2 0.6614473382924709322 2 
	0.7347638303181907027 2 0.8521085958734563315 2 0.9372171785126962584 2 0.9600675797733556616 3 
	-2.832769448823989808e-16 1.608300027567148183 -9.500000126659871924 1 
	0.01522431407549512325 1.608300027567148183 -9.500000126659871924 1 
	0.03094964425237885924 1.609761102307304403 -9.499643454280546351 1 
	0.07157394493265986646 1.61774252989404288 -9.497749347417592247 1 
	0.09622024867487687094 1.62682060028444142 -9.495612816959505764 1 
	0.1474387167132686083 1.655724595608742966 -9.489500928195564455 1 
	0.1713838178502791743 1.676734066672865175 -9.485410630131934084 1 
	0.2037215145685032647 1.719015602749687011 -9.479112533336174096 1 
	0.2144534095596256629 1.737536109826417929 -9.476769721563252702 1 
	0.234839890677558033 1.78696494148280749 -9.472115826127973648 1 
	0.2409214772204482657 1.81946399813433346 -9.470544737594329021 1 
	0.240921477220448238 1.880536056999964289 -9.470544737594329021 1 
	0.2348398906775596706 1.913035113651485153 -9.472115826127973648 1 
	0.2067312128814946248 1.981187096076900911 -9.478532570956572201 1 
	0.1820662834298923394 2.013641272506173863 -9.483796312088884406 1 
	0.1271825092701817372 2.057692500112036083 -9.492166086942029679 1 
	0.09888154738259517795 2.072722472582302355 -9.495549280038375173 1 
	0.04622458589850683697 2.088430520529529044 -9.499192619642817803 1 
	0.02256160228507069973 2.091700027567148013 -9.500000126659871924 1 
	-0.02394297715552794192 2.091700027567148013 -9.500000126659871924 1 
	-0.04912406977829411603 2.088002560586572187 -9.499084582136411825 1 
	-0.0937531514985548986 2.073802678894732132 -9.49580880627269508 1 
	-0.1134967432581262536 2.064420469454569584 -9.493701754889336542 1 
	-0.149208869407258915 2.041203458248245894 -9.488969868343762215 1 
	-0.1648036350365225666 2.027776711535130172 -9.486426118348704861 1 
	-0.1965021747501458915 1.992694893910635923 -9.480672405454502183 1 
	-0.2118561757578242277 1.968761169022893887 -9.477362626953086178 1 
	-0.2381253158382985458 1.90506930894735893 -9.471365818067727815 1 
	-0.2437091009058536539 1.864786729248202546 -9.469857498220603631 1 
	-0.2367220590296276739 1.796507019456252463 -9.471582231257977824 1 
	-0.2283823579188405395 1.767356579020987306 -9.473665268577164511 1 
	-0.1940921801892212806 1.698928360787270275 -9.48122142922382416 1 
	-0.1628716497644084327 1.665545102514959241 -9.487482134665386369 1 
	-0.09336319575658053038 1.62449450099689674 -9.496067479285276391 1 
	-0.05965713477699575995 1.613410428768115024 -9.49877110619525844 1 
	-0.01755429305254085914 1.608771644854466221 -9.499885777970067835 1 
	-0.008696176955915185455 1.608300027567148183 -9.500000126659871924 1 
	-2.832769448823989808e-16 1.608300027567148183 -9.500000126659871924 1 
	0.0008521392414391394275 
	
	spline forward { ref 0 } I I I I 
	cone 0 0.2500000014901162526 -8.500000126659871924 0 1 0 -1 0 0 1 I I 0 1 1 forward I I I I 
	nubs 1 periodic 2 
	-0.3200225265911186279 1 0.9600675797733556616 1 
	0 -0.3200225265911186279 
	0 0.9600675797733556616 
	
	nullbs 
	I I 
	0 
	0 
	1 0.08000845873450804224 
	
	0 left } I I #
point $-1 -1 $-1 -1.11022302462515654e-16 1.608300027567148183 -9.500000126659871924 #
point $-1 -1 $-1 -1.571142438863050602e-16 1.638300027567148209 -9.470000126659872564 #
ATTRIB_CUSTOM-attrib $-1 -1 $-1 $-1 $48 @22 generic_tag_attrib_def 3 3 -1 @23 generic_tag_attrib_def  1 1 @1 6 0 1 329 0 #
face $82 2206 $-1 $83 $84 $6 $-1 $85 forward single #
loop $-1 -1 $-1 $-1 $86 $48 #
plane-surface $-1 -1 $-1 -0.2500000037252902985 0.5000000014901162526 -9.5 -1 0 0 0 -1 0 forward_v I I I I #
coedge $-1 -1 $-1 $87 $88 $89 $90 reversed $49 0 $-1 #
coedge $-1 -1 $-1 $91 $51 $88 $92 reversed $31 0 $-1 #
coedge $-1 -1 $-1 $51 $91 $93 $94 reversed $31 0 $-1 #
coedge $-1 -1 $-1 $95 $89 $51 $71 forward $84 0 $-1 #
edge $-1 2216 $-1 $96 -0.25 $97 5.551115123125782702e-17 $70 $98 forward @7 unknown #
coedge $99 -1 $-1 $100 $53 $101 $102 forward $33 0 $-1 #
coedge $-1 -1 $-1 $53 $103 $104 $105 forward $33 0 $-1 #
coedge $-1 -1 $-1 $106 $107 $53 $75 reversed $65 0 $-1 #
edge $-1 2211 $-1 $108 -0.25 $109 -0 $53 $110 forward @7 unknown #
loop $-1 -1 $-1 $-1 $54 $111 #
vertex $-1 2363 $-1 $55 0 $112 #
ellipse-curve $-1 -1 $-1 0 2.250000001490116475 -8.500000126659871924 0 1 0 -1 0 0 1 I I #
loop $-1 -1 $-1 $113 $114 $80 #
face $115 2158 $-1 $111 $56 $6 $-1 $116 forward single #
point $-1 -1 $-1 0.2116999999999998883 1.850000027567148209 -9.271481241140323348 #
ATTRIB_CUSTOM-attrib $-1 -1 $-1 $-1 $64 @22 generic_tag_attrib_def 3 3 -1 @23 generic_tag_attrib_def  1 1 @1 4 0 1 325 0 #
face $117 2202 $-1 $80 $118 $6 $-1 $119 forward single #
loop $-1 -1 $-1 $120 $121 $64 #
cone-surface $-1 -1 $-1 0 0.2500000014901162526 -8.500000126659871924 0 1 0 -0.5 0 0 1 I I 0 -1 0.5 forward I I I I #
coedge $-1 -1 $-1 $107 $106 $121 $122 reversed $65 0 $-1 #
coedge $-1 -1 $-1 $104 $67 $106 $123 reversed $49 0 $-1 #
coedge $-1 -1 $-1 $67 $124 $68 $92 forward $49 0 $-1 #
coedge $-1 -1 $-1 $70 $121 $67 $90 forward $84 0 $-1 #
edge $-1 2213 $-1 $125 -0.7687811161928370662 $96 0 $89 $126 forward @7 unknown #
coedge $-1 -1 $-1 $69 $68 $100 $127 reversed $31 0 $-1 #
edge $-1 2219 $-1 $128 0.03175403775014018493 $96 0.5669871735987062067 $68 $129 forward @7 tangent #
coedge $-1 -1 $-1 $101 $130 $69 $94 forward $131 0 $-1 #
edge $-1 2218 $-1 $97 -0.06698723692864128054 $132 0.4682458989199247412 $93 $133 forward @7 unknown #
coedge $134 -1 $-1 $121 $70 $130 $135 forward $84 0 $-1 #
vertex $-1 2370 $-1 $90 1 $136 #
vertex $-1 2369 $-1 $135 0 $137 #
straight-curve $-1 -1 $-1 0.2500000037252902985 0.2500000014901162526 -8.933012826401293793 0 -1 -0 I I #
ATTRIB_CUSTOM-attrib $-1 -1 $138 $-1 $72 @17 sketch_attrib_def 1 1 3 @13 104 0 0 0 1 1 #
coedge $-1 -1 $-1 $103 $72 $91 $127 forward $33 0 $-1 #
coedge $139 -1 $-1 $140 $93 $72 $102 reversed $131 0 $-1 #
edge $-1 2169 $-1 $109 -1.318116067805354508 $132 4.45970872139514718 $72 $141 forward @7 unknown #
coedge $-1 -1 $-1 $73 $100 $124 $142 forward $33 0 $-1 #
coedge $-1 -1 $-1 $124 $87 $73 $105 reversed $49 0 $-1 #
edge $-1 2215 $-1 $143 0.3784217808247147818 $108 0.7568435616494295637 $73 $144 forward @7 unknown #
coedge $-1 -1 $-1 $86 $74 $87 $123 forward $65 0 $-1 #
coedge $-1 -1 $-1 $74 $86 $140 $145 reversed $65 0 $-1 #
vertex $-1 2364 $-1 $75 0 $146 #
vertex $-1 2365 $-1 $102 0 $147 #
straight-curve $-1 -1 $-1 -0.2500000037252902985 0.2500000014901162526 -9.468245962249859815 -0 -1 -0 I I #
face $148 2160 $-1 $149 $150 $6 $-1 $151 forward single #
point $-1 -1 $-1 1 2.250000001490116475 -8.500000126659871924 #
loop $-1 -1 $-1 $-1 $152 $80 #
coedge $-1 -1 $-1 $114 $114 $153 $154 forward $79 0 $-1 #
ATTRIB_CUSTOM-attrib $-1 -1 $-1 $-1 $80 @22 generic_tag_attrib_def 3 3 -1 @23 generic_tag_attrib_def  1 1 @1 4 0 1 323 0 #
cone-surface $-1 -1 $-1 0 0.2500000014901162526 -8.500000126659871924 0 1 0 -0.8000000000000000444 0 0 1 I I 0 -1 0.8000000000000000444 forward I I I I #
ATTRIB_CUSTOM-attrib $-1 -1 $-1 $-1 $83 @22 generic_tag_attrib_def 3 3 -1 @23 generic_tag_attrib_def  1 1 @1 2 0 1 325 0 #
loop $-1 -1 $-1 $155 $156 $83 #
plane-surface $-1 -1 $-1 0 0.8500000014901163414 -8.500000126659871924 0 1 0 -1 0 0 forward_v I I I I #
loop $-1 -1 $-1 $-1 $157 $64 #
coedge $-1 -1 $-1 $89 $95 $86 $122 forward $84 0 $-1 #
edge $-1 2210 $-1 $158 0 $125 0.25 $121 $159 forward @7 unknown #
edge $-1 2220 $-1 $108 0.03175403775014018493 $125 0.5669871735987062067 $87 $160 forward @7 tangent #
coedge $-1 -1 $-1 $88 $104 $103 $142 reversed $49 0 $-1 #
vertex $-1 2371 $-1 $122 1 $161 #
intcurve-curve $-1 -1 $-1 forward { int_int_cur 22210 full nubs 3 open 9 
	-0.7687811161928370662 3 -0.6725523144633167583 2 -0.5763235127337965613 2 -0.4803570354151076582 2 -0.3843905580964186441 2 
	-0.28842408077772963 2 -0.1924576034590406159 2 -0.09622880172952030797 2 0 3 
	-0.2500000037252902985 0.5000000014901162526 -8.933012826401293793 
	-0.2500000037252902985 0.5320762687332896146 -8.933012826401293793 
	-0.2434713997383709805 0.565784652816901934 -8.936956483640631888 
	-0.217807180666975464 0.6271455932823635226 -8.950299128220152056 
	-0.198688959985708069 0.6548644373660380547 -8.959425242289928093 
	-0.154924169771909509 0.698629227579836698 -8.975966778441147653 
	-0.1271851914473826894 0.7177912747027306306 -8.984566336447313617 
	-0.0657362698794298761 0.7434909815781352016 -8.996648118644662517 
	-0.03198882577289638429 0.7500000052154065511 -9.000000126659870148 
	0.03198882577289630103 0.7500000052154065511 -9.000000126659871924 
	0.06573626987942884914 0.7434909815781356457 -8.996648118644664294 
	0.1271851914473819956 0.7177912747027311857 -8.984566336447315393 
	0.1549241697719094257 0.698629227579836698 -8.975966778441147653 
	0.1986889599857080135 0.6548644373660380547 -8.959425242289928093 
	0.2178071806669750754 0.6271455932823641888 -8.950299128220152056 
	0.2434713997383707862 0.5657846528169027112 -8.936956483640631888 
	0.2500000037252902985 0.5320762687332896146 -8.933012826401293793 
	0.2500000037252902985 0.5000000014901162526 -8.933012826401293793 
	0.0001949297484661093927 
	
	cone 0 0.5000000014901162526 -9.5 0 0 1 0.2500000037252902985 0 0 1 I I 0 1 0.2500000037252902985 forward I I I I 
	cone 0 0.2500000014901162526 -8.500000126659871924 0 1 0 -0.5 0 0 1 I I 0 -1 0.5 forward I I I I 
	nullbs 
	nullbs 
	I I 
	0 
	0 
	0 
	
	0 } I I #
edge $-1 2217 $-1 $132 -5.551115123125782702e-17 $128 0.25 $100 $162 forward @7 unknown #
vertex $-1 2367 $-1 $142 0 $163 #
straight-curve $-1 -1 $-1 0.2500000037252902985 0.5000000014901162526 -9.5 0 0 1 I I #
coedge $164 -1 $-1 $93 $140 $95 $135 reversed $131 0 $-1 #
loop $-1 -1 $-1 $-1 $140 $149 #
vertex $-1 2366 $-1 $127 0 $165 #
straight-curve $-1 -1 $-1 0.2500000037252902985 0.2500000014901162526 -9.000000063329935074 0 0 -1 I I #
ATTRIB_CUSTOM-attrib $-1 -1 $-1 $-1 $95 @17 sketch_attrib_def 1 1 3 @22 106 0 4294967295 0 1 1 #
edge $-1 2208 $-1 $97 -4.188790196183201253 $158 1.047197542593408137 $95 $166 forward @7 unknown #
point $-1 -1 $-1 0.2500000037252902985 0.5000000014901162526 -8.933012826401293793 #
point $-1 -1 $-1 0.2500000037252902985 0.2500000014901161971 -8.933012826401293793 #
ATTRIB_CUSTOM-attrib $-1 -1 $-1 $99 $72 @17 sketch_attrib_def 1 1 3 @13 102 0 0 0 1 1 #
ATTRIB_CUSTOM-attrib $-1 -1 $167 $-1 $101 @17 sketch_attrib_def 1 1 3 @13 102 0 0 0 1 1 #
coedge $-1 -1 $-1 $130 $101 $107 $145 forward $131 0 $-1 #
ellipse-curve $-1 -1 $-1 0 0.2500000014901162526 -8.500000126659871924 0 1 0 -1 0 0 1 I I #
edge $-1 2214 $-1 $128 0 $143 0.3784217808247147818 $103 $168 forward @7 unknown #
vertex $-1 2368 $-1 $142 1 $169 #
intcurve-curve $-1 -1 $-1 forward { int_int_cur 22210 full nubs 3 open 5 
	0.3784217808247147818 3 0.4730206118047047825 2 0.5676194427846947832 2 0.6622315022170621734 2 0.7568435616494295637 3 
	1.387778780781445676e-17 0.7500000052154065511 -9.500000126659870148 
	-0.03153294365999664145 0.7500000052154065511 -9.500000126659871924 
	-0.06507766493004940589 0.7436708478769178399 -9.49835927685553294 
	-0.1266344780425858185 0.7181153195641187814 -9.492431385883756789 
	-0.154657209074831492 0.6988961882769146872 -9.488223887976001691 
	-0.1988992799180972493 0.6546541174336488744 -9.480277777357681401 
	-0.2181159995262713369 0.6266326746396594372 -9.476011320384303716 
	-0.2436697671516948327 0.5650804294688752671 -9.469947284415161093 
	-0.2500000037252902985 0.53153735463423879 -9.468245962249859815 
	-0.2500000037252902985 0.5000000014901162526 -9.468245962249859815 
	0.0001727525305368048114 
	
	cone 0 0.5000000014901162526 -9.5 0 0 1 0.2500000037252902985 0 0 1 I I 0 1 0.2500000037252902985 forward I I I I 
	cone 0 0.2500000014901162526 -8.500000126659871924 0 1 0 -1 0 0 1 I I 0 1 1 forward I I I I 
	nullbs 
	nullbs 
	I I 
	0 
	0 
	0 
	
	0 } I I #
edge $-1 2212 $-1 $109 -0.4682458989199247412 $158 0.06698723692864128054 $140 $170 forward @7 unknown #
point $-1 -1 $-1 -0.2500000037252902985 0.5000000014901162526 -9.468245962249859815 #
point $-1 -1 $-1 -0.2500000037252902985 0.2500000014901162526 -9.468245962249859815 #
ATTRIB_CUSTOM-attrib $-1 -1 $-1 $-1 $111 @22 generic_tag_attrib_def 3 3 -1 @23 generic_tag_attrib_def  1 1 @1 2 0 1 323 0 #
face $171 2161 $-1 $-1 $131 $6 $-1 $172 reversed single #
loop $-1 -1 $-1 $76 $173 $111 #
plane-surface $-1 -1 $-1 0 2.250000001490116475 -8.500000126659871924 0 1 0 -1 0 0 forward_v I I I I #
coedge $-1 -1 $-1 $152 $152 $173 $174 reversed $113 0 $-1 #
coedge $-1 -1 $-1 $153 $153 $114 $154 reversed $155 0 $-1 #
edge $-1 2209 $-1 $175 -3.141592653589793116 $175 3.141592653589793116 $114 $176 forward @7 unknown #
loop $-1 -1 $-1 $-1 $153 $83 #
coedge $-1 -1 $-1 $156 $156 $157 $177 forward $118 0 $-1 #
coedge $-1 -1 $-1 $157 $157 $156 $177 reversed $120 0 $-1 #
vertex $-1 2372 $-1 $145 1 $178 #
straight-curve $-1 -1 $-1 -0.2500000037252902985 0.2500000014901162526 -8.933012826401293793 0 1 0 I I #
straight-curve $-1 -1 $-1 -0.2500000037252902985 0.5000000014901162526 -9.5 0 0 1 I I #
point $-1 -1 $-1 -0.2500000037252902985 0.5000000014901162526 -8.933012826401293793 #
straight-curve $-1 -1 $-1 0.2500000037252902985 0.2500000014901162526 -9.468245962249859815 0 1 0 I I #
point $-1 -1 $-1 0.2500000037252902985 0.5000000014901162526 -9.468245962249859815 #
ATTRIB_CUSTOM-attrib $-1 -1 $-1 $-1 $130 @17 sketch_attrib_def 1 1 3 @22 106 0 4294967295 0 1 1 #
point $-1 -1 $-1 0.2500000037252902985 0.2500000014901161971 -9.468245962249859815 #
ellipse-curve $-1 -1 $-1 0 0.2500000014901162526 -8.500000126659871924 0 -1 0 -0.5 0 0 1 I I #
ATTRIB_CUSTOM-attrib $-1 -1 $-1 $139 $101 @17 sketch_attrib_def 1 1 3 @13 104 0 0 0 1 1 #
intcurve-curve $-1 -1 $-1 forward { int_int_cur 22210 full nubs 3 open 5 
	0 3 0.09461205943236740412 2 0.1892241188647348082 2 0.2838229498447247812 2 0.3784217808247147818 3 
	0.2500000037252902985 0.5000000014901162526 -9.468245962249859815 
	0.2500000037252902985 0.53153735463423879 -9.468245962249859815 
	0.2436697671516948049 0.5650804294688752671 -9.469947284415161093 
	0.2181159995262713092 0.6266326746396594372 -9.476011320384303716 
	0.1988992799180973048 0.6546541174336488744 -9.480277777357681401 
	0.1546572090748315476 0.6988961882769145761 -9.488223887976001691 
	0.1266344780425860683 0.7181153195641185594 -9.492431385883756789 
	0.065077664930049961 0.7436708478769176178 -9.49835927685553294 
	0.03153294365999666921 0.7500000052154065511 -9.500000126659870148 
	1.387778780781445676e-17 0.7500000052154065511 -9.500000126659870148 
	0.0001727525305368048114 
	
	cone 0 0.5000000014901162526 -9.5 0 0 1 0.2500000037252902985 0 0 1 I I 0 1 0.2500000037252902985 forward I I I I 
	cone 0 0.2500000014901162526 -8.500000126659871924 0 1 0 -1 0 0 1 I I 0 1 1 forward I I I I 
	nullbs 
	nullbs 
	I I 
	0 
	0 
	0 
	
	0 } I I #
point $-1 -1 $-1 -0 0.7500000052154065511 -9.5 #
straight-curve $-1 -1 $-1 -0.2500000037252902985 0.2500000014901162526 -9.000000063329935074 0 -0 1 I I #
ATTRIB_CUSTOM-attrib $-1 -1 $-1 $-1 $149 @22 generic_tag_attrib_def 3 3 -1 @23 generic_tag_attrib_def  2 1 @1 1 0 1 323 0 1 @1 1 0 1 325 0 #
plane-surface $-1 -1 $-1 0 0.2500000014901162526 -8.500000126659871924 0 1 0 -1 0 0 forward_v I I I I #
coedge $-1 -1 $-1 $173 $173 $152 $174 forward $150 0 $-1 #
edge $-1 2167 $-1 $179 -3.141592653589793116 $179 3.141592653589793116 $152 $180 forward @7 unknown #
vertex $-1 2374 $-1 $154 0 $181 #
ellipse-curve $-1 -1 $-1 0 0.8500000014901163414 -8.500000126659871924 -0 -1 -0 -0.8000000000000000444 0 0 1 I I #
edge $-1 2207 $-1 $182 -3.141592653589793116 $182 3.141592653589793116 $157 $183 forward @7 unknown #
point $-1 -1 $-1 -0.2500000037252902985 0.2500000014901162526 -8.933012826401293793 #
vertex $-1 2375 $-1 $174 0 $184 #
ellipse-curve $-1 -1 $-1 0 2.250000001490116475 -8.500000126659871924 0 -1 0 -0.8000000000000000444 0 0 1 I I #
point $-1 -1 $-1 0.8000000000000000444 0.8500000014901163414 -8.500000126659871924 #
vertex $-1 2373 $-1 $177 0 $185 #
ellipse-curve $-1 -1 $-1 0 0.8500000014901163414 -8.500000126659871924 0 -1 0 -0.5 0 0 1 I I #
point $-1 -1 $-1 0.8000000000000000444 2.250000001490116475 -8.500000126659871924 #
point $-1 -1 $-1 0.5 0.8500000014901163414 -8.500000126659871924 #
End-of-ASM-data 