# WaveFront *.obj file
# Vertices: 48
# Triangles : 96

v -1.6999999999999993e+00 4.0500000000000000e+01 -8.5000001266598719e+00
v -1.7401923788646678e+00 4.0500000000000000e+01 -8.6500001266598723e+00
v -1.8499999999999999e+00 4.0500000000000000e+01 -8.7598077477952039e+00
v -2.0000000000000000e+00 4.0500000000000000e+01 -8.8000001266598726e+00
v -2.1500000000000004e+00 4.0500000000000000e+01 -8.7598077477952039e+00
v -2.2598076211353324e+00 4.0500000000000000e+01 -8.6500001266598723e+00
v -2.3000000000000007e+00 4.0500000000000000e+01 -8.5000001266598719e+00
v -2.2598076211353320e+00 4.0500000000000000e+01 -8.3500001266598716e+00
v -2.1500000000000004e+00 4.0500000000000000e+01 -8.2401925055245400e+00
v -2.0000000000000000e+00 4.0500000000000000e+01 -8.2000001266598712e+00
v -1.8499999999999996e+00 4.0500000000000000e+01 -8.2401925055245400e+00
v -1.7401923788646678e+00 4.0500000000000000e+01 -8.3500001266598716e+00
v -1.6999999999999993e+00 5.5000000000000000e+00 -8.5000001266598719e+00
v -1.7401923788646678e+00 5.5000000000000000e+00 -8.3500001266598716e+00
v -1.8499999999999996e+00 5.5000000000000000e+00 -8.2401925055245400e+00
v -2.0000000000000000e+00 5.5000000000000000e+00 -8.2000001266598712e+00
v -2.1500000000000004e+00 5.5000000000000000e+00 -8.2401925055245400e+00
v -2.2598076211353320e+00 5.5000000000000000e+00 -8.3500001266598716e+00
v -2.3000000000000007e+00 5.5000000000000000e+00 -8.5000001266598719e+00
v -2.2598076211353324e+00 5.5000000000000000e+00 -8.6500001266598723e+00
v -2.1500000000000004e+00 5.5000000000000000e+00 -8.7598077477952039e+00
v -2.0000000000000000e+00 5.5000000000000000e+00 -8.8000001266598726e+00
v -1.8499999999999999e+00 5.5000000000000000e+00 -8.7598077477952039e+00
v -1.7401923788646678e+00 5.5000000000000000e+00 -8.6500001266598723e+00
v -1.3999999999999999e+00 4.0500000000000000e+01 -8.5000001266598719e+00
v -1.4803847577293370e+00 4.0500000000000000e+01 -8.2000001266598712e+00
v -1.7000000000000004e+00 4.0500000000000000e+01 -7.9803848843892080e+00
v -2.0000000000000000e+00 4.0500000000000000e+01 -7.9000001266598723e+00
v -2.3000000000000003e+00 4.0500000000000000e+01 -7.9803848843892089e+00
v -2.5196152422706630e+00 4.0500000000000000e+01 -8.2000001266598712e+00
v -2.6000000000000001e+00 4.0500000000000000e+01 -8.5000001266598719e+00
v -2.5196152422706630e+00 4.0500000000000000e+01 -8.8000001266598726e+00
v -2.2999999999999998e+00 4.0500000000000000e+01 -9.0196153689305358e+00
v -2.0000000000000000e+00 4.0500000000000000e+01 -9.1000001266598716e+00
v -1.6999999999999997e+00 4.0500000000000000e+01 -9.0196153689305358e+00
v -1.4803847577293368e+00 4.0500000000000000e+01 -8.8000001266598726e+00
v -1.3999999999999999e+00 5.5000000000000000e+00 -8.5000001266598719e+00
v -1.4803847577293368e+00 5.5000000000000000e+00 -8.8000001266598726e+00
v -1.6999999999999997e+00 5.5000000000000000e+00 -9.0196153689305358e+00
v -2.0000000000000000e+00 5.5000000000000000e+00 -9.1000001266598716e+00
v -2.2999999999999998e+00 5.5000000000000000e+00 -9.0196153689305358e+00
v -2.5196152422706630e+00 5.5000000000000000e+00 -8.8000001266598726e+00
v -2.6000000000000001e+00 5.5000000000000000e+00 -8.5000001266598719e+00
v -2.5196152422706630e+00 5.5000000000000000e+00 -8.2000001266598712e+00
v -2.3000000000000003e+00 5.5000000000000000e+00 -7.9803848843892089e+00
v -2.0000000000000000e+00 5.5000000000000000e+00 -7.9000001266598723e+00
v -1.7000000000000004e+00 5.5000000000000000e+00 -7.9803848843892080e+00
v -1.4803847577293370e+00 5.5000000000000000e+00 -8.2000001266598712e+00

vn -8.6602540378443871e-01 0.0000000000000000e+00 4.9999999999999994e-01
vn -1.0000000000000000e+00 0.0000000000000000e+00 1.2246467991473530e-16
vn -1.0000000000000000e+00 0.0000000000000000e+00 -1.2246467991473530e-16
vn -8.6602540378443871e-01 0.0000000000000000e+00 -4.9999999999999994e-01
vn -5.0000000000000011e-01 0.0000000000000000e+00 -8.6602540378443860e-01
vn 6.1232339957367648e-17 0.0000000000000000e+00 -1.0000000000000000e+00
vn 5.0000000000000033e-01 0.0000000000000000e+00 -8.6602540378443837e-01
vn 8.6602540378443837e-01 0.0000000000000000e+00 -5.0000000000000033e-01
vn 1.0000000000000000e+00 0.0000000000000000e+00 -0.0000000000000000e+00
vn 8.6602540378443871e-01 -0.0000000000000000e+00 4.9999999999999983e-01
vn 5.0000000000000033e-01 -0.0000000000000000e+00 8.6602540378443837e-01
vn 6.1232339957367648e-17 -0.0000000000000000e+00 1.0000000000000000e+00
vn -4.9999999999999983e-01 0.0000000000000000e+00 8.6602540378443871e-01
vn 8.6602540378443793e-01 -0.0000000000000000e+00 5.0000000000000111e-01
vn 1.0000000000000000e+00 -0.0000000000000000e+00 1.2246467991473532e-16
vn 1.0000000000000000e+00 -0.0000000000000000e+00 -1.2246467991473532e-16
vn 8.6602540378443826e-01 -0.0000000000000000e+00 -5.0000000000000078e-01
vn 4.9999999999999994e-01 -0.0000000000000000e+00 -8.6602540378443871e-01
vn -6.1232339957367660e-17 0.0000000000000000e+00 -1.0000000000000000e+00
vn -4.9999999999999939e-01 0.0000000000000000e+00 -8.6602540378443904e-01
vn -8.6602540378443815e-01 0.0000000000000000e+00 -5.0000000000000100e-01
vn -1.0000000000000000e+00 -0.0000000000000000e+00 0.0000000000000000e+00
vn -8.6602540378443815e-01 -0.0000000000000000e+00 5.0000000000000100e-01
vn -5.0000000000000044e-01 -0.0000000000000000e+00 8.6602540378443837e-01
vn -6.1232339957367660e-17 -0.0000000000000000e+00 1.0000000000000000e+00
vn 4.9999999999999906e-01 -0.0000000000000000e+00 8.6602540378443937e-01
vn 0.0000000000000000e+00 1.0000000000000000e+00 0.0000000000000000e+00
vn -0.0000000000000000e+00 -1.0000000000000000e+00 -0.0000000000000000e+00

g face 0
f 2//1 24//1 1//2
f 1//2 24//1 13//2
f 1//3 13//3 12//4
f 12//4 13//3 14//4
f 12//4 14//4 11//5
f 11//5 14//4 15//5
f 11//5 15//5 10//6
f 10//6 15//5 16//6
f 10//6 16//6 9//7
f 9//7 16//6 17//7
f 9//7 17//7 8//8
f 8//8 17//7 18//8
f 8//8 18//8 7//9
f 7//9 18//8 19//9
f 7//9 19//9 6//10
f 6//10 19//9 20//10
f 6//10 20//10 5//11
f 5//11 20//10 21//11
f 5//11 21//11 4//12
f 4//12 21//11 22//12
f 4//12 22//12 3//13
f 3//13 22//12 23//13
f 3//13 23//13 2//1
f 2//1 23//13 24//1

g face 1
f 26//14 48//14 25//15
f 25//15 48//14 37//15
f 25//16 37//16 36//17
f 36//17 37//16 38//17
f 36//17 38//17 35//18
f 35//18 38//17 39//18
f 35//18 39//18 34//19
f 34//19 39//18 40//19
f 34//19 40//19 33//20
f 33//20 40//19 41//20
f 33//20 41//20 32//21
f 32//21 41//20 42//21
f 32//21 42//21 31//22
f 31//22 42//21 43//22
f 31//22 43//22 30//23
f 30//23 43//22 44//23
f 30//23 44//23 29//24
f 29//24 44//23 45//24
f 29//24 45//24 28//25
f 28//25 45//24 46//25
f 28//25 46//25 27//26
f 27//26 46//25 47//26
f 27//26 47//26 26//14
f 26//14 47//26 48//14

g face 2
f 2//27 1//27 25//27
f 25//27 1//27 12//27
f 25//27 12//27 26//27
f 26//27 12//27 11//27
f 26//27 11//27 27//27
f 27//27 11//27 10//27
f 27//27 10//27 28//27
f 28//27 10//27 29//27
f 29//27 10//27 9//27
f 29//27 9//27 30//27
f 30//27 9//27 8//27
f 30//27 8//27 31//27
f 31//27 8//27 7//27
f 31//27 7//27 32//27
f 32//27 7//27 6//27
f 32//27 6//27 5//27
f 32//27 5//27 33//27
f 33//27 5//27 4//27
f 33//27 4//27 34//27
f 34//27 4//27 35//27
f 35//27 4//27 3//27
f 35//27 3//27 36//27
f 36//27 3//27 2//27
f 36//27 2//27 25//27

g face 3
f 24//28 38//28 13//28
f 13//28 38//28 37//28
f 13//28 37//28 14//28
f 14//28 37//28 48//28
f 14//28 48//28 15//28
f 15//28 48//28 47//28
f 15//28 47//28 16//28
f 16//28 47//28 46//28
f 16//28 46//28 45//28
f 24//28 23//28 38//28
f 38//28 23//28 39//28
f 39//28 23//28 22//28
f 39//28 22//28 40//28
f 40//28 22//28 41//28
f 41//28 22//28 21//28
f 41//28 21//28 42//28
f 42//28 21//28 20//28
f 42//28 20//28 43//28
f 43//28 20//28 19//28
f 43//28 19//28 18//28
f 43//28 18//28 44//28
f 44//28 18//28 17//28
f 44//28 17//28 45//28
f 45//28 17//28 16//28

g halfedge 0 edge 0
l 1 2 3 4 5 6 7 8 9 10 11 12 1

g halfedge 1 edge 0
l 1 12 11 10 9 8 7 6 5 4 3 2 1

g halfedge 2 edge 1
l 13 14 15 16 17 18 19 20 21 22 23 24 13

g halfedge 3 edge 1
l 13 24 23 22 21 20 19 18 17 16 15 14 13

g halfedge 4 edge 2
l 25 26 27 28 29 30 31 32 33 34 35 36 25

g halfedge 5 edge 2
l 25 36 35 34 33 32 31 30 29 28 27 26 25

g halfedge 6 edge 3
l 37 38 39 40 41 42 43 44 45 46 47 48 37

g halfedge 7 edge 3
l 37 48 47 46 45 44 43 42 41 40 39 38 37

g vertex 0
p 1

g vertex 1
p 13

g vertex 2
p 25

g vertex 3
p 37

# End of file
