22700 0 2 4           
16 Autodesk Neutron 20 ASM 227.1.1.65535 NT 24 Wed Aug 25 11:00:25 2021 
10 9.999999999999999547e-07 1.000000000000000036e-10 
asmheader $-1 -1 @13 227.1.1.65535 #
body $2 32 $-1 $3 $-1 $4 #
ATTRIB_CUSTOM-attrib $-1 -1 $5 $-1 $1 @20 Timestamp_attrib_def 1 1469569470001 #
lump $-1 -1 $-1 $-1 $6 $1 #
transform $-1 -1 1 0 0 0 1 0 0 0 1 0 0 0 1 no_rotate no_reflect no_shear #
ATTRIB_CUSTOM-attrib $-1 -1 $-1 $2 $1 @22 generic_tag_attrib_def 3 3 -1 @23 generic_tag_attrib_def  2 3 @3 424 1 0 0 3 @3 433 9 0 0 #
shell $-1 -1 $-1 $-1 $-1 $7 $-1 $3 #
face $8 146 $-1 $9 $10 $6 $-1 $11 reversed single #
ATTRIB_CUSTOM-attrib $-1 -1 $-1 $-1 $7 @22 generic_tag_attrib_def 3 3 -1 @23 generic_tag_attrib_def  1 1 @1 3 0 1 436 0 #
face $12 147 $-1 $13 $14 $6 $-1 $15 forward single #
loop $-1 -1 $-1 $16 $17 $7 #
cone-surface $-1 -1 $-1 0 1.95000000149011754 8.500000126659871924 0 1 0 0.5999999999999998668 0 0 1 I I 0 1 0.5999999999999998668 forward I I I I #
ATTRIB_CUSTOM-attrib $-1 -1 $-1 $-1 $9 @22 generic_tag_attrib_def 3 3 -1 @23 generic_tag_attrib_def  1 1 @1 2 0 1 436 0 #
face $18 39 $-1 $19 $20 $6 $-1 $21 forward single #
loop $-1 -1 $-1 $22 $23 $9 #
plane-surface $-1 -1 $-1 0 3.45000000149011754 8.500000126659871924 0 -1 0 1 0 0 forward_v I I I I #
loop $-1 -1 $-1 $-1 $24 $7 #
coedge $-1 -1 $-1 $17 $17 $25 $26 forward $10 0 $-1 #
ATTRIB_CUSTOM-attrib $-1 -1 $-1 $-1 $13 @22 generic_tag_attrib_def 3 3 -1 @23 generic_tag_attrib_def  2 1 @1 2 0 1 431 0 1 @1 2 0 1 433 0 #
face $27 0 $-1 $28 $29 $6 $-1 $30 reversed single #
loop $-1 -1 $-1 $31 $32 $13 #
plane-surface $-1 -1 $-1 0 1.95000000149011643 8.800000138580799103 0 -1 0 0 0 1 reverse_v I I I I #
loop $-1 -1 $-1 $-1 $25 $9 #
coedge $-1 -1 $-1 $23 $23 $33 $34 reversed $14 0 $-1 #
coedge $35 -1 $-1 $24 $24 $32 $36 reversed $16 0 $-1 #
coedge $-1 -1 $-1 $25 $25 $17 $26 reversed $22 0 $-1 #
edge $-1 148 $-1 $37 -3.141592653589793116 $37 3.141592653589793116 $17 $38 forward @7 unknown #
ATTRIB_CUSTOM-attrib $-1 -1 $-1 $-1 $19 @22 generic_tag_attrib_def 3 3 -1 @23 generic_tag_attrib_def  1 1 @1 3 0 2 365 424 0 #
face $39 1 $-1 $40 $41 $6 $-1 $42 forward single #
loop $-1 -1 $-1 $43 $44 $19 #
cone-surface $-1 -1 $-1 -1 4.600000001490116119 8.500000126659871924 -1 -0 0 0 0 -0.6500000000000003553 1 I I -0 1 0.6500000000000003553 reversed I I I I #
loop $-1 -1 $-1 $-1 $45 $13 #
coedge $-1 -1 $-1 $32 $32 $24 $36 forward $20 0 $-1 #
coedge $-1 -1 $-1 $33 $33 $23 $34 forward $46 0 $-1 #
edge $-1 150 $-1 $47 1.570796326794896558 $47 7.85398163397448279 $33 $48 forward @7 unknown #
ATTRIB_CUSTOM-attrib $-1 -1 $-1 $-1 $24 @17 sketch_attrib_def 1 1 3 @13 105 0 0 0 1 1 #
edge $-1 149 $-1 $49 -3.141592653589793116 $49 3.141592653589793116 $32 $50 forward @7 unknown #
vertex $-1 151 $-1 $26 0 $51 #
ellipse-curve $-1 -1 $-1 0 3.45000000149011754 8.500000126659871924 0 1 0 0.5999999999999998668 0 0 1 I I #
ATTRIB_CUSTOM-attrib $-1 -1 $-1 $-1 $28 @22 generic_tag_attrib_def 3 3 -1 @23 generic_tag_attrib_def  1 1 @1 2 0 2 365 424 0 #
face $52 2 $-1 $53 $54 $6 $-1 $55 reversed single #
loop $-1 -1 $-1 $56 $57 $28 #
plane-surface $-1 -1 $-1 -0.5 4.600000001490116119 8.500000126659871924 -1 0 0 0 0 -1 reverse_v I I I I #
loop $-1 -1 $-1 $-1 $58 $19 #
coedge $-1 -1 $-1 $44 $44 $59 $60 reversed $29 0 $-1 #
coedge $-1 -1 $-1 $45 $45 $61 $62 reversed $31 0 $-1 #
loop $-1 -1 $-1 $63 $33 $64 #
vertex $-1 153 $-1 $34 0 $65 #
ellipse-curve $-1 -1 $-1 0 3.45000000149011754 8.500000126659871924 0 -1 0 0 0 0.3000000119209271787 1 I I #
vertex $-1 152 $-1 $36 0 $66 #
ellipse-curve $-1 -1 $-1 0 1.95000000149011643 8.500000126659871924 -0 1 -0 0.5999999999999998668 0 0 1 I I #
point $-1 -1 $-1 -0.5999999999999998668 3.45000000149011754 8.500000126659871924 #
ATTRIB_CUSTOM-attrib $-1 -1 $-1 $-1 $40 @22 generic_tag_attrib_def 3 3 -1 @23 generic_tag_attrib_def  1 1 @1 3 0 2 364 424 0 #
face $67 3 $-1 $68 $69 $6 $-1 $70 reversed single #
loop $-1 -1 $-1 $71 $72 $40 #
cone-surface $-1 -1 $-1 0.6499999999999999112 4.600000001490116119 8.500000126659871924 1 -0 -0 0 0.25 -0 1 I I -0 1 0.25 reversed I I I I #
loop $-1 -1 $-1 $-1 $59 $28 #
coedge $-1 -1 $-1 $57 $57 $73 $74 forward $41 0 $-1 #
coedge $75 -1 $-1 $58 $58 $76 $77 forward $43 0 $-1 #
coedge $-1 -1 $-1 $59 $59 $44 $60 forward $56 0 $-1 #
edge $-1 15 $-1 $78 -3.141592653589793116 $78 3.141592653589793116 $44 $79 forward @7 unknown #
coedge $-1 -1 $-1 $61 $61 $45 $62 forward $80 0 $-1 #
edge $-1 60 $-1 $81 -3.141592653589793116 $81 3.141592653589793116 $61 $82 forward @7 unknown #
loop $-1 -1 $-1 $-1 $83 $64 #
face $84 8 $-1 $85 $46 $6 $-1 $86 forward single #
point $-1 -1 $-1 -0.3000000119209271787 3.45000000149011754 8.500000126659871924 #
point $-1 -1 $-1 -0.5999999999999998668 1.95000000149011754 8.500000126659871924 #
ATTRIB_CUSTOM-attrib $-1 -1 $-1 $-1 $53 @22 generic_tag_attrib_def 3 3 -1 @23 generic_tag_attrib_def  1 1 @1 2 0 2 362 424 0 #
face $87 4 $-1 $88 $89 $6 $-1 $90 forward single #
loop $-1 -1 $-1 $91 $92 $53 #
plane-surface $-1 -1 $-1 0.5 4.600000001490116119 8.500000126659871924 1 0 -0 0 0 1 reverse_v I I I I #
loop $-1 -1 $-1 $-1 $93 $40 #
coedge $-1 -1 $-1 $72 $72 $92 $94 forward $54 0 $-1 #
coedge $-1 -1 $-1 $73 $73 $57 $74 reversed $89 0 $-1 #
edge $-1 17 $-1 $95 0 $95 6.283185307179586232 $73 $96 forward @7 unknown #
ATTRIB_CUSTOM-attrib $-1 -1 $-1 $-1 $58 @17 sketch_attrib_def 1 1 3 @13 142 0 0 0 1 1 #
coedge $-1 -1 $-1 $76 $76 $58 $77 reversed $97 0 $-1 #
edge $-1 16 $-1 $98 -3.141592653589793116 $98 3.141592653589793116 $76 $99 forward @7 unknown #
vertex $-1 155 $-1 $60 0 $100 #
ellipse-curve $-1 -1 $-1 -0.5 4.600000001490116119 8.500000126659871924 -1 -0 0 0 0 -0.6500000000000003553 1 I I #
loop $-1 -1 $-1 $101 $61 $85 #
vertex $-1 154 $-1 $62 0 $102 #
ellipse-curve $-1 -1 $-1 0 1.95000000149011643 8.500000126659871924 -0 1 -0 0.8000000119209271787 0 0 1 I I #
coedge $-1 -1 $-1 $83 $83 $103 $104 forward $63 0 $-1 #
ATTRIB_CUSTOM-attrib $-1 -1 $-1 $-1 $64 @22 generic_tag_attrib_def 3 3 -1 @23 generic_tag_attrib_def  2 1 @1 3 0 2 350 424 0 1 @1 3 0 2 359 424 0 #
face $105 9 $-1 $-1 $80 $6 $-1 $106 forward single #
cone-surface $-1 -1 $-1 0 2.725000001490115675 8.500000126659871924 -0 1 -0 0 0 0.3000000119209271787 1 I I -0 -1 0.3000000119209271787 reversed I I I I #
ATTRIB_CUSTOM-attrib $-1 -1 $-1 $-1 $68 @22 generic_tag_attrib_def 3 3 -1 @23 generic_tag_attrib_def  3 1 @1 4 0 2 353 424 0 1 @1 4 0 2 354 424 0 1 @1 3 0 2 356 424 0 #
face $107 5 $-1 $108 $109 $6 $-1 $110 forward single #
loop $-1 -1 $-1 $111 $73 $68 #
cone-surface $-1 -1 $-1 0 4.600000001490116119 8.500000126659871924 -1 -0 0 0 0 0.5000000000000017764 1 I I -0 -1 0.5000000000000017764 reversed I I I I #
loop $-1 -1 $-1 $-1 $112 $53 #
coedge $-1 -1 $-1 $92 $92 $72 $94 reversed $69 0 $-1 #
coedge $-1 -1 $-1 $93 $93 $113 $114 forward $71 0 $-1 #
edge $-1 18 $-1 $115 -3.141592653589793116 $115 3.141592653589793116 $92 $116 forward @7 unknown #
vertex $-1 157 $-1 $74 0 $117 #
ellipse-curve $-1 -1 $-1 -0.5 4.600000001490116119 8.500000126659871924 1 -0 -0 0 0 0.5000000000000017764 1 I I #
loop $-1 -1 $-1 $118 $76 $108 #
vertex $-1 156 $-1 $77 0 $119 #
ellipse-curve $-1 -1 $-1 -1 4.600000001490116119 8.500000126659871924 -1 -0 0 0 0 -0.6500000000000003553 1 I I #
point $-1 -1 $-1 -0.5 4.600000001490116119 9.150000126659872279 #
loop $-1 -1 $-1 $-1 $120 $85 #
point $-1 -1 $-1 -0.8000000119209271787 1.95000000149011643 8.500000126659871924 #
coedge $-1 -1 $-1 $103 $103 $83 $104 reversed $121 0 $-1 #
edge $-1 21 $-1 $122 0 $122 1.865321526308395095 $103 $123 forward @7 unknown #
ATTRIB_CUSTOM-attrib $-1 -1 $-1 $-1 $85 @22 generic_tag_attrib_def 3 3 -1 @23 generic_tag_attrib_def  2 1 @1 9 0 2 350 424 0 1 @1 7 0 1 433 0 #
cone-surface $-1 -1 $-1 0 3.350000001490116119 8.500000126659871924 -0 1 -0 0 0 0.8000000119209271787 1 I I -0 1 0.8000000119209271787 reversed I I I I #
ATTRIB_CUSTOM-attrib $-1 -1 $-1 $-1 $88 @22 generic_tag_attrib_def 3 3 -1 @23 generic_tag_attrib_def  2 1 @1 3 0 2 353 424 0 1 @1 3 0 2 354 424 0 #
face $124 6 $-1 $125 $97 $6 $-1 $126 reversed single #
loop $-1 -1 $-1 $127 $128 $88 #
cone-surface $-1 -1 $-1 0 4.600000001490116119 8.500000126659871924 -1 -0 0 0 0 0.8000000119209325078 1 I I -0 1 0.8000000119209325078 reversed I I I I #
loop $-1 -1 $-1 $121 $129 $68 #
coedge $-1 -1 $-1 $112 $112 $129 $130 forward $91 0 $-1 #
coedge $-1 -1 $-1 $113 $113 $93 $114 reversed $131 0 $-1 #
edge $-1 19 $-1 $132 0 $132 6.283185307179586232 $113 $133 forward @7 unknown #
vertex $-1 158 $-1 $94 0 $134 #
ellipse-curve $-1 -1 $-1 0.5 4.600000001490116119 8.500000126659871924 -1 -0 0 0 0.25 -0 1 I I #
point $-1 -1 $-1 -0.5 4.600000001490116119 9.0000001266598737 #
loop $-1 -1 $-1 $-1 $135 $108 #
point $-1 -1 $-1 -1 4.600000001490116119 9.150000126659872279 #
coedge $-1 -1 $-1 $136 $136 $137 $138 reversed $101 0 $-1 #
loop $-1 -1 $-1 $-1 $103 $68 #
vertex $-1 161 $-1 $104 0 $139 #
intcurve-curve $-1 -1 $-1 forward { int_int_cur 22210 full nubs 3 periodic 17 
	0 3 0.1169599145103484839 2 0.2339198290206969677 2 0.3501251052988978429 2 0.4663303815770987182 2 
	0.5825356578552995934 2 0.6987409341335004687 2 0.8157008486438490635 2 0.9326607631541975474 2 1.049620677664546031 2 
	1.166580592174894626 2 1.282785868453095501 2 1.398991144731296377 2 1.515196421009497252 2 1.631401697287698127 2 
	1.7483616117980465 2 1.865321526308395095 3 
	0 4.200000010430809283 8.200000114738944745 
	-0.03898663817011616128 4.200000010430809283 8.200000114738944745 
	-0.0795158090602950951 4.193699564352034059 8.208002004124226758 
	-0.1529374218780213679 4.173213122697667643 8.238856744662534481 
	-0.1859630493907982185 4.159491479556512772 8.26169909048000406 
	-0.2381321909563133277 4.135049125093702926 8.313868232045519946 
	-0.2610921060414012618 4.122499240235390161 8.346940379699596235 
	-0.2920503835623749489 4.104892627268460714 8.42060898675334002 
	-0.3000000119209271787 4.100000001490114343 8.461265034567137633 
	-0.3000000119209271787 4.100000001490114343 8.538735218752606215 
	-0.2920503835623749489 4.104892627268460714 8.579391266566403829 
	-0.2610921060414012618 4.122499240235390161 8.653059873620147613 
	-0.2381321909563134109 4.135049125093702926 8.686132021274223902 
	-0.185963049390798274 4.159491479556512772 8.738301162839739789 
	-0.1529374218780213956 4.173213122697667643 8.761143508657209367 
	-0.0795158090602950951 4.193699564352034059 8.79199824919551709 
	-0.03898663817011616128 4.200000010430809283 8.800000138580799103 
	0.03898663817011614741 4.200000010430809283 8.800000138580799103 
	0.07951580906029506735 4.193699564352034059 8.79199824919551709 
	0.1529374218780213124 4.173213122697667643 8.761143508657209367 
	0.185963049390798163 4.159491479556512772 8.738301162839739789 
	0.2381321909563133277 4.135049125093702926 8.686132021274223902 
	0.2610921060414012618 4.122499240235390161 8.653059873620147613 
	0.2920503835623749489 4.104892627268460714 8.579391266566403829 
	0.3000000119209271787 4.100000001490114343 8.538735218752606215 
	0.3000000119209271787 4.100000001490114343 8.461265034567137633 
	0.2920503835623749489 4.104892627268460714 8.42060898675334002 
	0.2610921060414012618 4.122499240235390161 8.346940379699596235 
	0.2381321909563134109 4.135049125093702926 8.313868232045519946 
	0.1859630493907983018 4.159491479556512772 8.26169909048000406 
	0.1529374218780210071 4.173213122697667643 8.238856744662534481 
	0.07951580906029492857 4.193699564352034059 8.208002004124226758 
	0.03898663817011620986 4.200000010430809283 8.200000114738944745 
	0 4.200000010430809283 8.200000114738944745 
	0.0002306190546243467893 
	
	cone 0 0.8500000014901161194 8.500000126659871924 -0 -1 0 0.3000000119209271787 0 -0 1 I I 0 -1 0.3000000119209271787 reversed I I I I 
	cone 0 4.600000001490116119 8.500000126659871924 -1 -0 0 0 0 0.5000000000000017764 1 I I -0 -1 0.5000000000000017764 reversed I I I I 
	nullbs 
	nullbs 
	I I 
	0 
	0 
	0 
	
	0 } I I #
ATTRIB_CUSTOM-attrib $-1 -1 $-1 $-1 $108 @22 generic_tag_attrib_def 3 3 -1 @23 generic_tag_attrib_def  1 1 @1 1 0 2 353 424 0 #
face $140 7 $-1 $64 $131 $6 $-1 $141 forward single #
plane-surface $-1 -1 $-1 -1 4.600000001490116119 8.500000126659871924 1 0 -0 0 0 1 reverse_v I I I I #
loop $-1 -1 $-1 $142 $143 $88 #
coedge $-1 -1 $-1 $128 $128 $144 $145 forward $109 0 $-1 #
coedge $-1 -1 $-1 $129 $129 $112 $130 reversed $111 0 $-1 #
edge $-1 20 $-1 $146 -3.141592653589793116 $146 3.141592653589793116 $129 $147 forward @7 unknown #
loop $-1 -1 $-1 $148 $113 $125 #
vertex $-1 159 $-1 $114 0 $149 #
ellipse-curve $-1 -1 $-1 1 4.600000001490116119 8.500000126659871924 1 -0 -0 0 0.25 -0 1 I I #
point $-1 -1 $-1 0.5 4.350000001490116119 8.500000126659871924 #
coedge $-1 -1 $-1 $135 $135 $143 $150 reversed $118 0 $-1 #
coedge $-1 -1 $-1 $120 $120 $151 $152 reversed $101 0 $-1 #
coedge $-1 -1 $-1 $151 $151 $120 $138 forward $142 0 $-1 #
edge $-1 24 $-1 $153 1.570796326794896558 $154 4.712388980384689674 $120 $155 forward @7 unknown #
point $-1 -1 $-1 3.469446951953614189e-17 4.200000010430810171 8.200000114738944745 #
ATTRIB_CUSTOM-attrib $-1 -1 $-1 $-1 $125 @22 generic_tag_attrib_def 3 3 -1 @23 generic_tag_attrib_def  2 1 @1 2 0 2 353 424 0 1 @1 1 0 2 362 424 0 #
plane-surface $-1 -1 $-1 1 4.600000001490116119 8.500000126659871924 1 0 -0 0 0 1 reverse_v I I I I #
loop $-1 -1 $-1 $-1 $137 $88 #
coedge $-1 -1 $-1 $143 $143 $135 $150 forward $127 0 $-1 #
coedge $-1 -1 $-1 $144 $144 $128 $145 reversed $148 0 $-1 #
edge $-1 22 $-1 $156 -3.141592653589793116 $156 3.141592653589793116 $128 $157 forward @7 unknown #
vertex $-1 160 $-1 $130 0 $158 #
ellipse-curve $-1 -1 $-1 0.5 4.600000001490116119 8.500000126659871924 -1 -0 0 0 0 0.5000000000000017764 1 I I #
loop $-1 -1 $-1 $-1 $144 $125 #
point $-1 -1 $-1 1 4.850000001490116119 8.500000126659871924 #
edge $-1 23 $-1 $159 -3.141592653589793116 $159 3.141592653589793116 $143 $160 forward @7 unknown #
coedge $-1 -1 $-1 $137 $137 $136 $152 forward $142 0 $-1 #
edge $-1 25 $-1 $154 1.570796326794896558 $153 4.712388980384689674 $136 $161 forward @7 unknown #
vertex $-1 164 $-1 $138 0 $162 #
vertex $-1 165 $-1 $138 1 $163 #
ellipse-curve $-1 -1 $-1 0 4.600000001490116119 8.500000126659871924 0.7071067811865499042 0.7071067811865452413 -0 -0.8000000119209272897 0.8000000119209325078 0 0.7071067811865497932 I I #
vertex $-1 162 $-1 $145 0 $164 #
ellipse-curve $-1 -1 $-1 1 4.600000001490116119 8.500000126659871924 -1 -0 0 0 0 0.8000000119209325078 1 I I #
point $-1 -1 $-1 0.5 4.600000001490116119 8.000000126659870148 #
vertex $-1 163 $-1 $150 0 $165 #
ellipse-curve $-1 -1 $-1 -1 4.600000001490116119 8.500000126659871924 1 -0 -0 0 0 0.8000000119209325078 1 I I #
ellipse-curve $-1 -1 $-1 0 4.600000001490116119 8.500000126659871924 -0.7071067811865499042 0.7071067811865452413 -0 0.8000000119209272897 0.8000000119209325078 -0 0.7071067811865497932 I I #
point $-1 -1 $-1 0 4.600000001490116119 9.300000138580799103 #
point $-1 -1 $-1 0 4.600000001490116119 7.700000114738944745 #
point $-1 -1 $-1 1 4.600000001490116119 7.700000114738939416 #
point $-1 -1 $-1 -1 4.600000001490116119 7.700000114738939416 #
End-of-ASM-data 