22700 0 2 4           
16 Autodesk Neutron 20 ASM 227.1.1.65535 NT 24 Wed Aug 25 11:00:24 2021 
10 9.999999999999999547e-07 1.000000000000000036e-10 
asmheader $-1 -1 @13 227.1.1.65535 #
body $2 492 $-1 $3 $-1 $4 #
ATTRIB_CUSTOM-attrib $-1 -1 $5 $-1 $1 @20 Timestamp_attrib_def 1 1469574211000 #
lump $-1 -1 $-1 $-1 $6 $1 #
transform $-1 -1 1 0 0 0 1 0 0 0 1 0 0 0 1 no_rotate no_reflect no_shear #
ATTRIB_CUSTOM-attrib $-1 -1 $-1 $2 $1 @22 generic_tag_attrib_def 3 3 -1 @23 generic_tag_attrib_def  4 3 @3 477 5 0 0 3 @3 479 8 0 0 3 @3 479 9 0 0 3 @3 485 4 0 0 #
shell $-1 -1 $-1 $-1 $-1 $7 $-1 $3 #
face $8 477 $-1 $9 $10 $6 $-1 $11 forward single #
ATTRIB_CUSTOM-attrib $-1 -1 $-1 $-1 $7 @22 generic_tag_attrib_def 3 3 -1 @23 generic_tag_attrib_def  1 1 @1 3 0 1 485 0 #
face $12 465 $-1 $13 $14 $6 $-1 $15 forward single #
loop $-1 -1 $-1 $16 $17 $7 #
cone-surface $-1 -1 $-1 -2 81.39999999701971944 -8.500000126659871924 0 1 0 0.5 0 0 1 I I 0 1 0.5 forward I I I I #
ATTRIB_CUSTOM-attrib $-1 -1 $18 $-1 $9 @27 NEUTRON_Material_attrib_def 1 @36 7bc8cd72-6c09-4b77-89d1-d8cbe83986bb #
face $19 475 $-1 $20 $21 $6 $-1 $22 forward single #
loop $-1 -1 $-1 $-1 $23 $9 #
plane-surface $-1 -1 $-1 -2 81.99999999701971376 -8.500000126659871924 0 1 0 1 0 0 forward_v I I I I #
loop $-1 -1 $-1 $-1 $24 $7 #
coedge $-1 -1 $-1 $17 $17 $23 $25 reversed $10 0 $-1 #
ATTRIB_CUSTOM-attrib $-1 -1 $-1 $12 $9 @22 generic_tag_attrib_def 3 3 -1 @23 generic_tag_attrib_def  1 1 @1 2 0 1 485 0 #
ATTRIB_CUSTOM-attrib $-1 -1 $-1 $-1 $13 @22 generic_tag_attrib_def 3 3 -1 @23 generic_tag_attrib_def  1 1 @1 2 0 1 483 0 #
face $26 476 $-1 $27 $28 $6 $-1 $29 reversed single #
loop $-1 -1 $-1 $30 $31 $13 #
cone-surface $-1 -1 $-1 0 81.41499999701972001 -8.500000126659868371 0 1 0 0.2267000000000000126 0 0 1 I I 0.707106781186534139 -0.7071067811865610064 0.2267000000000000126 forward I I I I #
coedge $-1 -1 $-1 $23 $23 $17 $25 forward $14 0 $-1 #
coedge $-1 -1 $-1 $24 $24 $32 $33 reversed $16 0 $-1 #
edge $-1 490 $-1 $34 -3.141592653589793116 $34 3.141592653589793116 $17 $35 forward @7 unknown #
ATTRIB_CUSTOM-attrib $-1 -1 $-1 $-1 $20 @22 generic_tag_attrib_def 3 3 -1 @23 generic_tag_attrib_def  3 1 @1 1 0 1 477 0 1 @1 1 0 1 479 0 1 @1 1 0 1 485 0 #
face $36 467 $-1 $37 $38 $6 $-1 $39 forward single #
loop $-1 -1 $-1 $40 $41 $20 #
plane-surface $-1 -1 $-1 -2 81.39999999701971944 -8.500000126659871924 0 1 0 1 0 0 forward_v I I I I #
loop $-1 -1 $-1 $-1 $42 $13 #
coedge $-1 -1 $-1 $31 $31 $43 $44 forward $21 0 $-1 #
coedge $-1 -1 $-1 $32 $32 $24 $33 forward $45 0 $-1 #
edge $-1 491 $-1 $46 -3.141592653589793116 $46 3.141592653589793116 $32 $47 forward @7 unknown #
vertex $-1 493 $-1 $25 2 $48 #
ellipse-curve $-1 -1 $-1 -2 81.99999999701971376 -8.500000126659871924 0 1 0 0.5 0 0 1 I I #
ATTRIB_CUSTOM-attrib $-1 -1 $49 $-1 $27 @22 generic_tag_attrib_def 3 3 -1 @23 generic_tag_attrib_def  1 1 @1 6 0 2 479 -481 0 #
face $50 474 $-1 $51 $52 $6 $-1 $53 forward single #
loop $-1 -1 $-1 $54 $55 $27 #
cone-surface $-1 -1 $-1 0 81.39999999701971944 -8.500000126659868371 0 1 0 0.2116999999999999993 0 0 1 I I 0 -1 0.2499999999999995559 forward I I I I #
loop $-1 -1 $-1 $56 $57 $20 #
coedge $-1 -1 $-1 $41 $41 $58 $59 reversed $28 0 $-1 #
coedge $-1 -1 $-1 $42 $42 $60 $61 forward $30 0 $-1 #
coedge $-1 -1 $-1 $43 $43 $31 $44 reversed $56 0 $-1 #
edge $-1 488 $-1 $62 -3.141592653589793116 $62 3.141592653589793116 $43 $63 forward @7 unknown #
loop $-1 -1 $-1 $64 $32 $65 #
vertex $-1 494 $-1 $33 0 $66 #
ellipse-curve $-1 -1 $-1 -2 81.89999999701971944 -8.500000126659871924 -0 -1 -0 0.5 0 0 1 I I #
point $-1 -1 $-1 -2.5 81.99999999701971376 -8.500000126659871924 #
ATTRIB_CUSTOM-attrib $-1 -1 $-1 $36 $27 @22 FDM_feature_attrib_def 2 2 @16 thread_face_data 3 481 2097152 6 1901 0 81.39999999701971944 -8.500000126659868371 0 81.89999999701971944 -8.500000126659868371 0 0 0 0 #
ATTRIB_CUSTOM-attrib $-1 -1 $-1 $-1 $37 @22 generic_tag_attrib_def 3 3 -1 @23 generic_tag_attrib_def  1 1 @1 1 0 1 483 0 #
face $67 468 $-1 $68 $69 $6 $-1 $70 forward single #
loop $-1 -1 $-1 $71 $58 $37 #
cone-surface $-1 -1 $-1 -4 81.41499999701972001 -8.500000126659868371 0 1 0 0.2266999999999999016 0 0 1 I I 0.7071067811865319186 -0.7071067811865633379 0.2266999999999999016 forward I I I I #
loop $-1 -1 $-1 $-1 $60 $27 #
coedge $-1 -1 $-1 $55 $55 $72 $73 reversed $38 0 $-1 #
loop $-1 -1 $-1 $-1 $43 $20 #
coedge $74 -1 $-1 $57 $57 $75 $76 reversed $40 0 $-1 #
coedge $-1 -1 $-1 $58 $58 $41 $59 forward $52 0 $-1 #
edge $-1 487 $-1 $77 -3.141592653589793116 $77 3.141592653589793116 $41 $78 forward @7 unknown #
coedge $-1 -1 $-1 $60 $60 $42 $61 reversed $54 0 $-1 #
edge $-1 489 $-1 $79 -3.141592653589793116 $79 3.141592653589793116 $60 $80 forward @7 unknown #
vertex $-1 495 $-1 $44 0 $81 #
ellipse-curve $-1 -1 $-1 0 81.39999999701971944 -8.500000126659868371 -0 -1 -0 0.2416999999999999982 0 0 1 I I #
loop $-1 -1 $-1 $-1 $82 $65 #
face $83 471 $-1 $84 $45 $6 $-1 $85 forward single #
point $-1 -1 $-1 -2.5 81.89999999701971944 -8.500000126659871924 #
ATTRIB_CUSTOM-attrib $-1 -1 $86 $-1 $51 @22 generic_tag_attrib_def 3 3 -1 @23 generic_tag_attrib_def  1 1 @1 7 0 2 479 -481 0 #
face $87 472 $-1 $88 $89 $6 $-1 $90 forward single #
loop $-1 -1 $-1 $91 $92 $51 #
cone-surface $-1 -1 $-1 -4 81.39999999701971944 -8.500000126659868371 0 1 0 0.2116999999999999993 0 0 1 I I 0 -1 0.25 forward I I I I #
loop $-1 -1 $-1 $-1 $93 $37 #
coedge $-1 -1 $-1 $72 $72 $55 $73 forward $94 0 $-1 #
edge $-1 480 $-1 $95 -3.141592653589793116 $95 3.141592653589793116 $55 $96 reversed @7 unknown #
ATTRIB_CUSTOM-attrib $-1 -1 $97 $-1 $57 @17 sketch_attrib_def 1 1 3 @13 108 0 0 0 1 1 #
coedge $98 -1 $-1 $75 $75 $57 $76 forward $99 0 $-1 #
edge $-1 483 $-1 $100 -3.141592653589793116 $100 3.141592653589793116 $75 $101 forward @7 unknown #
vertex $-1 497 $-1 $59 0 $102 #
ellipse-curve $-1 -1 $-1 -4 81.39999999701971944 -8.500000126659868371 -0 -1 -0 0.2416999999999998039 0 0 1 I I #
vertex $-1 496 $-1 $61 0 $103 #
ellipse-curve $-1 -1 $-1 0 81.42999999701972058 -8.500000126659868371 0 1 0 0.2116999999999999993 0 0 1 I I #
point $-1 -1 $-1 -0.2416999999999999982 81.39999999701971944 -8.500000126659868371 #
coedge $-1 -1 $-1 $82 $82 $104 $105 reversed $64 0 $-1 #
ATTRIB_CUSTOM-attrib $-1 -1 $-1 $-1 $65 @22 generic_tag_attrib_def 3 3 -1 @23 generic_tag_attrib_def  1 1 @1 2 0 1 479 0 #
face $106 466 $-1 $107 $108 $6 $-1 $109 forward single #
plane-surface $-1 -1 $-1 -2 81.89999999701971944 -8.500000126659871924 0 1 0 1 0 0 forward_v I I I I #
ATTRIB_CUSTOM-attrib $-1 -1 $-1 $67 $51 @22 FDM_feature_attrib_def 2 2 @16 thread_face_data 3 481 2097152 6 1901 -4 81.39999999701971944 -8.500000126659868371 -4 81.89999999701971944 -8.500000126659868371 0 0 0 0 #
ATTRIB_CUSTOM-attrib $-1 -1 $-1 $-1 $68 @22 generic_tag_attrib_def 3 3 -1 @23 generic_tag_attrib_def  1 1 @1 4 0 1 479 0 #
face $110 473 $-1 $65 $111 $6 $-1 $112 forward single #
loop $-1 -1 $-1 $99 $113 $68 #
cone-surface $-1 -1 $-1 -2 81.39999999701971944 -8.500000126659871924 0 1 0 2.5 0 0 1 I I 0 1 2.5 forward I I I I #
loop $-1 -1 $-1 $-1 $114 $51 #
coedge $-1 -1 $-1 $92 $92 $115 $116 reversed $69 0 $-1 #
coedge $-1 -1 $-1 $93 $93 $114 $117 forward $71 0 $-1 #
loop $-1 -1 $-1 $118 $72 $88 #
vertex $-1 499 $-1 $73 0 $119 #
ellipse-curve $-1 -1 $-1 0 81.89999999701971944 -8.500000126659868371 0 1 0 0.2116999999999999993 0 0 1 I I #
ATTRIB_CUSTOM-attrib $-1 -1 $-1 $74 $57 @17 sketch_attrib_def 1 1 3 @13 106 0 0 0 1 1 #
ATTRIB_CUSTOM-attrib $-1 -1 $120 $-1 $75 @17 sketch_attrib_def 1 1 3 @13 106 0 0 0 1 1 #
loop $-1 -1 $-1 $-1 $75 $68 #
vertex $-1 498 $-1 $76 0 $121 #
ellipse-curve $-1 -1 $-1 -2 81.39999999701971944 -8.500000126659871924 0 1 0 2.5 0 0 1 I I #
point $-1 -1 $-1 -4.241699999999999804 81.39999999701971944 -8.500000126659868371 #
point $-1 -1 $-1 -0.2116999999999999993 81.42999999701972058 -8.500000126659868371 #
coedge $-1 -1 $-1 $104 $104 $82 $105 forward $108 0 $-1 #
edge $-1 484 $-1 $122 -3.141592653589793116 $122 3.141592653589793116 $104 $123 reversed @7 unknown #
ATTRIB_CUSTOM-attrib $-1 -1 $124 $-1 $84 @27 NEUTRON_Material_attrib_def 1 @36 5837e989-3669-4fd0-983d-bb0cc29bd542 #
face $125 469 $-1 $126 $127 $6 $-1 $128 forward single #
loop $-1 -1 $-1 $129 $104 $84 #
cone-surface $-1 -1 $-1 -2 81.39999999701971944 -8.500000126659871924 0 1 0 1.200099999999999945 0 0 1 I I 0 -1 1.350000000000000089 forward I I I I #
ATTRIB_CUSTOM-attrib $-1 -1 $-1 $-1 $88 @22 generic_tag_attrib_def 3 3 -1 @23 generic_tag_attrib_def  1 1 @1 2 0 1 479 0 #
loop $-1 -1 $-1 $130 $115 $88 #
plane-surface $-1 -1 $-1 -2 81.89999999701971944 -8.500000126659871924 0 1 0 1 0 0 forward_v I I I I #
coedge $-1 -1 $-1 $113 $113 $131 $132 reversed $89 0 $-1 #
coedge $-1 -1 $-1 $114 $114 $93 $117 reversed $91 0 $-1 #
coedge $-1 -1 $-1 $115 $115 $92 $116 forward $111 0 $-1 #
edge $-1 481 $-1 $133 -3.141592653589793116 $133 3.141592653589793116 $92 $134 reversed @7 unknown #
edge $-1 486 $-1 $135 -3.141592653589793116 $135 3.141592653589793116 $114 $136 forward @7 unknown #
loop $-1 -1 $-1 $-1 $131 $88 #
point $-1 -1 $-1 -0.2116999999999999993 81.89999999701971944 -8.500000126659868371 #
ATTRIB_CUSTOM-attrib $-1 -1 $-1 $98 $75 @17 sketch_attrib_def 1 1 3 @13 108 0 0 0 1 1 #
point $-1 -1 $-1 -4.5 81.39999999701971944 -8.500000126659871924 #
vertex $-1 504 $-1 $105 0 $137 #
ellipse-curve $-1 -1 $-1 -2 81.89999999701971944 -8.500000126659871924 0 1 0 1.200099999999999945 0 0 1 I I #
ATTRIB_CUSTOM-attrib $-1 -1 $138 $106 $84 @22 FDM_feature_attrib_def 2 2 @16 thread_face_data 3 487 2097152 6 1901 -2 81.89999999701971944 -8.500000126659871924 -2 84.59999999701972229 -8.500000126659871924 0 0 0 0 #
ATTRIB_CUSTOM-attrib $-1 -1 $-1 $-1 $107 @22 generic_tag_attrib_def 3 3 -1 @23 generic_tag_attrib_def  1 1 @1 3 0 1 477 0 #
face $139 470 $-1 $-1 $140 $6 $-1 $141 forward single #
loop $-1 -1 $-1 $142 $143 $107 #
cone-surface $-1 -1 $-1 -2 81.39999999701971944 -8.500000126659871924 0 1 0 1.700000000000000178 0 0 1 I I 0 1 1.700000000000000178 forward I I I I #
loop $-1 -1 $-1 $-1 $144 $84 #
loop $-1 -1 $-1 $94 $145 $88 #
coedge $-1 -1 $-1 $131 $131 $113 $132 forward $118 0 $-1 #
edge $-1 482 $-1 $146 -3.141592653589793116 $146 3.141592653589793116 $113 $147 forward @7 unknown #
vertex $-1 501 $-1 $116 0 $148 #
ellipse-curve $-1 -1 $-1 -4 81.89999999701971944 -8.500000126659868371 0 1 0 0.2116999999999999993 0 0 1 I I #
vertex $-1 500 $-1 $117 0 $149 #
ellipse-curve $-1 -1 $-1 -4 81.42999999701972058 -8.500000126659868371 0 1 0 0.2116999999999999993 0 0 1 I I #
point $-1 -1 $-1 -3.200099999999999945 81.89999999701971944 -8.500000126659871924 #
ATTRIB_CUSTOM-attrib $-1 -1 $-1 $124 $84 @22 generic_tag_attrib_def 3 3 -1 @23 generic_tag_attrib_def  1 1 @1 4 0 2 477 -487 0 #
ATTRIB_CUSTOM-attrib $-1 -1 $-1 $-1 $126 @22 generic_tag_attrib_def 3 3 -1 @23 generic_tag_attrib_def  1 1 @1 2 0 1 477 0 #
loop $-1 -1 $-1 $150 $151 $126 #
plane-surface $-1 -1 $-1 -2 84.59999999701972229 -8.500000126659871924 0 1 0 1 0 0 forward_v I I I I #
loop $-1 -1 $-1 $-1 $152 $107 #
coedge $-1 -1 $-1 $143 $143 $145 $153 forward $127 0 $-1 #
coedge $-1 -1 $-1 $144 $144 $151 $154 reversed $129 0 $-1 #
coedge $-1 -1 $-1 $145 $145 $143 $153 reversed $130 0 $-1 #
vertex $-1 502 $-1 $132 0 $155 #
ellipse-curve $-1 -1 $-1 -2 81.89999999701971944 -8.500000126659871924 0 1 0 2.5 0 0 1 I I #
point $-1 -1 $-1 -4.211700000000000443 81.89999999701971944 -8.500000126659868371 #
point $-1 -1 $-1 -4.211700000000000443 81.42999999701972058 -8.500000126659868371 #
loop $-1 -1 $-1 $-1 $156 $126 #
coedge $-1 -1 $-1 $151 $151 $144 $154 forward $140 0 $-1 #
coedge $-1 -1 $-1 $152 $152 $156 $157 reversed $142 0 $-1 #
edge $-1 485 $-1 $158 -3.141592653589793116 $158 3.141592653589793116 $143 $159 forward @7 unknown #
edge $-1 478 $-1 $160 -3.141592653589793116 $160 3.141592653589793116 $144 $161 reversed @7 unknown #
point $-1 -1 $-1 -4.5 81.89999999701971944 -8.500000126659871924 #
coedge $-1 -1 $-1 $156 $156 $152 $157 forward $150 0 $-1 #
edge $-1 479 $-1 $162 -3.141592653589793116 $162 3.141592653589793116 $152 $163 forward @7 unknown #
vertex $-1 503 $-1 $153 0 $164 #
ellipse-curve $-1 -1 $-1 -2 81.89999999701971944 -8.500000126659871924 0 1 0 1.700000000000000178 0 0 1 I I #
vertex $-1 505 $-1 $154 0 $165 #
ellipse-curve $-1 -1 $-1 -2 84.59999999701972229 -8.500000126659871924 0 1 0 1.200099999999999945 0 0 1 I I #
vertex $-1 506 $-1 $157 0 $166 #
ellipse-curve $-1 -1 $-1 -2 84.59999999701972229 -8.500000126659871924 0 1 0 1.700000000000000178 0 0 1 I I #
point $-1 -1 $-1 -3.700000000000000178 81.89999999701971944 -8.500000126659871924 #
point $-1 -1 $-1 -3.200099999999999945 84.59999999701972229 -8.500000126659871924 #
point $-1 -1 $-1 -3.700000000000000178 84.59999999701972229 -8.500000126659871924 #
End-of-ASM-data 