22700 0 2 4           
16 Autodesk Neutron 20 ASM 227.1.1.65535 NT 24 Wed Aug 25 11:00:50 2021 
10 9.999999999999999547e-07 1.000000000000000036e-10 
asmheader $-1 -1 @13 227.1.1.65535 #
body $2 42 $-1 $3 $-1 $4 #
ATTRIB_CUSTOM-attrib $-1 -1 $5 $-1 $1 @20 Timestamp_attrib_def 1 1469386769001 #
lump $-1 -1 $-1 $-1 $6 $1 #
transform $-1 -1 1 0 0 0 1 0 0 0 1 0 0 0 1 no_rotate no_reflect no_shear #
ATTRIB_CUSTOM-attrib $-1 -1 $-1 $2 $1 @22 generic_tag_attrib_def 3 3 -1 @23 generic_tag_attrib_def  1 3 @3 308 10 0 0 #
shell $-1 -1 $-1 $-1 $-1 $7 $-1 $3 #
face $8 841 $-1 $9 $10 $6 $-1 $11 reversed single #
ATTRIB_CUSTOM-attrib $-1 -1 $-1 $-1 $7 @22 generic_tag_attrib_def 3 3 -1 @23 generic_tag_attrib_def  1 1 @1 3 0 1 319 0 #
face $12 840 $-1 $13 $14 $6 $-1 $15 reversed single #
loop $-1 -1 $-1 $16 $17 $7 #
cone-surface $-1 -1 $-1 0 1.025000001490116386 -8.500000126659871924 0 -1 0 0 0 1 1 I I 0 1 1 forward I I I I #
ATTRIB_CUSTOM-attrib $-1 -1 $-1 $-1 $9 @22 generic_tag_attrib_def 3 3 -1 @23 generic_tag_attrib_def  1 1 @1 5 0 1 319 0 #
face $18 467 $-1 $19 $20 $6 $-1 $21 reversed single #
loop $-1 -1 $-1 $-1 $22 $9 #
plane-surface $-1 -1 $-1 0 0.2500000014901162526 -8.500000126659871924 0 -1 0 0 0 1 forward_v I I I I #
loop $-1 -1 $-1 $-1 $23 $7 #
coedge $-1 -1 $-1 $24 $24 $22 $25 forward $10 0 $-1 #
ATTRIB_CUSTOM-attrib $-1 -1 $-1 $-1 $13 @22 generic_tag_attrib_def 3 3 -1 @23 generic_tag_attrib_def  1 1 @1 3 0 1 316 0 #
face $26 27 $-1 $27 $28 $6 $-1 $29 forward single #
loop $-1 -1 $-1 $30 $31 $13 #
cone-surface $-1 -1 $-1 0 0.5000000074505805969 -9.25 0 0 1 -0.25 0 0 1 I I 0 1 0.25 forward I I I I #
coedge $-1 -1 $-1 $22 $22 $17 $25 reversed $14 0 $-1 #
coedge $-1 -1 $-1 $23 $23 $32 $33 reversed $16 0 $-1 #
coedge $-1 -1 $-1 $17 $17 $31 $34 reversed $10 0 $-1 #
edge $-1 842 $-1 $35 -3.141592653589793116 $35 3.141592653589793116 $22 $36 forward @7 unknown #
ATTRIB_CUSTOM-attrib $-1 -1 $-1 $-1 $19 @22 generic_tag_attrib_def 3 3 -1 @23 generic_tag_attrib_def  1 1 @1 9 0 1 308 0 #
face $37 28 $-1 $38 $39 $6 $-1 $40 forward single #
loop $-1 -1 $-1 $41 $42 $19 #
torus-surface $-1 -1 $-1 0 -34.01397313610608819 0 0 -1 -0 -0.009671803481772796654 36.41397445631784535 0 0 -1 forward_v I I I I #
loop $-1 -1 $-1 $-1 $43 $13 #
coedge $-1 -1 $-1 $31 $31 $24 $34 forward $20 0 $-1 #
coedge $-1 -1 $-1 $32 $32 $23 $33 forward $44 0 $-1 #
edge $-1 844 $-1 $45 0 $45 6.112990145209895587 $32 $46 forward @7 unknown #
edge $-1 843 $-1 $35 0.3784217751324418511 $35 1.892108875662209311 $31 $47 forward @7 unknown #
vertex $-1 874 $-1 $34 0 $48 #
ellipse-curve $-1 -1 $-1 0 0.2500000014901162526 -8.500000126659871924 0 -1 0 0 0 1 1 I I #
ATTRIB_CUSTOM-attrib $-1 -1 $-1 $-1 $27 @22 generic_tag_attrib_def 3 3 -1 @23 generic_tag_attrib_def  1 1 @1 8 0 1 308 0 #
face $49 29 $-1 $50 $44 $6 $-1 $51 forward single #
loop $-1 -1 $-1 $52 $53 $27 #
cone-surface $-1 -1 $-1 0 1.771786466539032823 0 0 -1 -0 6.990388387992128472 0 0 1 I I 0.1922322401574129147 -0.9813494616313104268 6.990388387992128472 forward I I I I #
loop $-1 -1 $-1 $-1 $54 $19 #
coedge $-1 -1 $-1 $42 $42 $-1 $55 forward $28 0 $-1 #
coedge $-1 -1 $-1 $56 $56 $57 $58 reversed $30 0 $-1 #
loop $-1 -1 $-1 $59 $32 $38 #
vertex $-1 875 $-1 $33 0 $60 #
intcurve-curve $-1 -1 $-1 forward { int_int_cur 22210 full nubs 3 periodic 17 
	0 3 0.3761392675004073261 2 0.7522785350008146521 2 1.140201181706008482 2 1.528123828411202201 2 
	1.916158342390360314 2 2.304192856369518427 2 2.680343964487233333 2 3.056495072604948238 2 3.432646180722663587 2 
	3.808797288840378492 2 4.196831802819535717 2 4.584866316798692942 2 4.972788963503886883 2 5.360711610209080824 2 
	5.736850877709487762 2 6.112990145209895587 3 
	0 1.719268760167551591 -7.500000126659871924 
	-0.1253797558334691087 1.719268760167551591 -7.500000126659871924 
	-0.258864554890370302 1.713296944412787237 -7.525041526697421546 
	-0.5038310762223510153 1.689179415857520183 -7.626095461185537161 
	-0.6153221495261429475 1.671036760690685519 -7.702086055956528732 
	-0.7938907779002190024 1.62882271031670145 -7.878712334026651831 
	-0.871815223077508139 1.601697154853740424 -7.99212048921849405 
	-0.9748602378244414224 1.542346281211098402 -8.239902067743745562 
	-1 1.510120731805765004 -8.374267453619051338 
	-1 1.449722053862480431 -8.625769057886444102 
	-0.9748472075678209503 1.417407189589260597 -8.760151391997046844 
	-0.8717802408974155703 1.35774404430821205 -9.007941997976567805 
	-0.7938477174580009788 1.330399495273978605 -9.121343535795944035 
	-0.615284764231702197 1.287783716873101891 -9.297938543123475341 
	-0.5038103523332835287 1.269429307674109886 -9.373914929988920619 
	-0.2588648635429621203 1.245010175117074791 -9.474957010357300646 
	-0.1253837027059050702 1.238953189028222823 -9.500000126659871924 
	0.1253837027059050424 1.238953189028222823 -9.500000126659871924 
	0.2588648635429626754 1.245010175117075235 -9.47495701035729887 
	0.503810352333284639 1.269429307674110774 -9.373914929988918843 
	0.615284764231701975 1.287783716873108997 -9.297938543123473565 
	0.7938477174580006457 1.33039949527398571 -9.121343535795944035 
	0.8717802408974165695 1.357744044308211828 -9.007941997976566029 
	0.9748472075678212834 1.417407189589260819 -8.760151391997045067 
	1 1.449722053862480431 -8.625769057886444102 
	1 1.510120731805765226 -8.374267453619051338 
	0.9748602378244416444 1.542346281211098402 -8.239902067743747338 
	0.8718152230775088052 1.601697154853740424 -7.992120489218495827 
	0.7938907779002190024 1.62882271031670145 -7.878712334026651831 
	0.6153221495261429475 1.671036760690685519 -7.70208605595652962 
	0.5038310762223515704 1.689179415857520183 -7.626095461185537161 
	0.258864554890370635 1.713296944412786793 -7.525041526697421546 
	0.125379755833469303 1.719268760167551813 -7.500000126659871924 
	0 1.719268760167551591 -7.500000126659871924 
	0.0003902128677214633913 
	
	cone 0 1.025000001490116386 -8.500000126659871924 0 -1 0 0 0 1 1 I I 0 1 1 forward I I I I 
	sphere 2.842170943040400743e-14 -33.91428718860366587 0 36.41428718860368718 1 0 0 0 0 1 forward_v I I I I 
	nullbs 
	nullbs 
	I I 
	0 
	0 
	0 
	
	0 } I I #
intcurve-curve $-1 -1 $-1 forward { int_int_cur 22210 full nubs 3 periodic 17 
	0 3 0.0946120580087932983 2 0.1892241160175865966 2 0.2838229455750141961 2 0.3784217751324418511 2 
	0.473020604689869506 2 0.5676194342472972165 2 0.6622314922560905703 2 0.7568435502648838131 2 0.8514556082736770559 2 
	0.9460676662824702987 2 1.040666495839897898 2 1.135265325397325498 2 1.229864154954753097 2 1.324462984512180697 2 
	1.419075042520974161 2 1.513687100529767404 3 
	-0.25 0.5000000074505805969 -9.468245963211726846 
	-0.25 0.4684626547809828123 -9.468245963211726846 
	-0.2436697635224885083 0.4349195804479555894 -9.469947285324082031 
	-0.2181159962790337192 0.3733673361929723544 -9.47601132110719746 
	-0.1988992769564546237 0.345345893813761462 -9.480277777950725238 
	-0.1546572067678822771 0.3011038236251891154 -9.488223888329233802 
	-0.1266344761505109606 0.2818846926237627559 -9.492431386110714797 
	-0.06507766395412399596 0.2563291646930671019 -9.498359276904762893 
	-0.03153294318580923683 0.2500000074505805969 -9.500000126659871924 
	0.0315329431858091952 0.2500000074505805969 -9.500000126659871924 
	0.06507766395412395433 0.2563291646930671019 -9.498359276904762893 
	0.1266344761505109329 0.2818846926237627559 -9.492431386110714797 
	0.1546572067678822215 0.3011038236251890599 -9.488223888329233802 
	0.1988992769564545959 0.345345893813761462 -9.480277777950725238 
	0.2181159962790338858 0.373367336192972521 -9.47601132110719746 
	0.2436697635224886194 0.4349195804479557559 -9.469947285324082031 
	0.25 0.4684626547809828678 -9.468245963211726846 
	0.25 0.5315373601201782705 -9.468245963211726846 
	0.2436697635224886194 0.5650804344532053269 -9.469947285324082031 
	0.2181159962790338025 0.6266326787081887284 -9.47601132110719746 
	0.1988992769564546514 0.6546541210873997318 -9.480277777950725238 
	0.1546572067678822771 0.698896191275972134 -9.488223888329233802 
	0.1266344761505109884 0.7181153222773984934 -9.492431386110714797 
	0.06507766395412398208 0.7436708502080942029 -9.498359276904762893 
	0.03153294318580925071 0.7500000074505805969 -9.500000126659871924 
	-0.03153294318580916744 0.7500000074505805969 -9.500000126659871924 
	-0.06507766395412392657 0.7436708502080942029 -9.498359276904762893 
	-0.1266344761505109051 0.7181153222773986045 -9.492431386110714797 
	-0.1546572067678821938 0.698896191275972134 -9.488223888329233802 
	-0.1988992769564545959 0.6546541210873997318 -9.480277777950725238 
	-0.2181159962790336915 0.6266326787081889504 -9.47601132110719746 
	-0.2436697635224885639 0.565080434453205549 -9.469947285324082031 
	-0.25 0.5315373601201782705 -9.468245963211726846 
	-0.25 0.5000000074505805969 -9.468245963211726846 
	0.0001727525291753316213 
	
	cone 0 0.5000000074505805969 -9.25 0 0 1 -0.25 0 0 1 I I -0 -1 0.25 forward I I I I 
	cone 0 1.025000001490116386 -8.500000126659871924 0 -1 0 0 0 1 1 I I -0 -1 1 forward I I I I 
	nullbs 
	nullbs 
	I I 
	0 
	0 
	0 
	
	0 } I I #
point $-1 -1 $-1 0 0.2500000014901162526 -9.500000126659871924 #
ATTRIB_CUSTOM-attrib $-1 -1 $-1 $-1 $38 @22 generic_tag_attrib_def 3 3 -1 @23 generic_tag_attrib_def  1 1 @1 7 0 1 308 0 #
face $61 30 $-1 $62 $63 $6 $-1 $64 forward single #
sphere-surface $-1 -1 $-1 2.842170943040400743e-14 -33.91428718860366587 0 36.41428718860368718 1 0 0 0 0 1 forward_v I I I I #
loop $-1 -1 $-1 $-1 $65 $27 #
coedge $-1 -1 $-1 $53 $53 $54 $66 forward $39 0 $-1 #
coedge $-1 -1 $-1 $54 $54 $53 $66 reversed $41 0 $-1 #
edge $-1 43 $-1 $67 1 $67 0 $42 $-1 forward @7 unknown #
coedge $-1 -1 $-1 $43 $43 $68 $69 reversed $30 0 $-1 #
coedge $-1 -1 $-1 $68 $68 $43 $58 forward $63 0 $-1 #
edge $-1 429 $-1 $70 0.3767035264639878589 $71 1.130110579391963688 $57 $72 forward @7 unknown #
loop $-1 -1 $-1 $73 $74 $38 #
point $-1 -1 $-1 -2.775557561562891351e-17 1.719268760167549814 -7.500000126659872812 #
ATTRIB_CUSTOM-attrib $-1 -1 $-1 $-1 $50 @22 generic_tag_attrib_def 3 3 -1 @23 generic_tag_attrib_def  1 1 @1 6 0 1 308 0 #
face $75 31 $-1 $76 $77 $6 $-1 $78 forward single #
loop $-1 -1 $-1 $79 $57 $50 #
cone-surface $-1 -1 $-1 0 0.6000000089406967163 0 0 -1 -0 10.00000014901161194 0 0 1 I I 0 1 10.00000014901161194 forward I I I I #
coedge $-1 -1 $-1 $65 $65 $74 $80 reversed $52 0 $-1 #
edge $-1 34 $-1 $81 0 $81 6.283185307179586232 $53 $82 forward @7 unknown #
vertex $-1 878 $-1 $55 0 $83 #
coedge $-1 -1 $-1 $57 $57 $56 $69 forward $63 0 $-1 #
edge $-1 430 $-1 $71 1.130110579391963688 $70 1.88351763231993985 $68 $84 forward @7 unknown #
vertex $-1 876 $-1 $58 0 $85 #
vertex $-1 877 $-1 $58 1 $86 #
intcurve-curve $-1 -1 $-1 forward { int_int_cur 22210 full nubs 3 open 9 
	0.3767035264639878589 3 0.470879407459379784 2 0.5650552884547717092 2 0.6592311706913737135 2 0.7534070529279757178 2 
	0.8475829351645777221 2 0.9417588174011797264 2 1.035934698396571818 2 1.130110579391963688 3 
	-6.938893903907228378e-18 0.2500000074505805969 -10.00000014901161194 
	0.03139196033179730144 0.2500000074505805969 -10.00000014901161194 
	0.0648754504655847386 0.2562739652727161199 -9.999837134269279559 
	0.1264698959482303264 0.2817877870805401419 -9.999247816781222653 
	0.1545809617871969632 0.3010275786445038015 -9.998829957103612998 
	0.198972429098609932 0.3454190459559167703 -9.998045096782234964 
	0.2182122204851416891 0.3735301116426381074 -9.997627180120078449 
	0.2437260420188941679 0.4351245567388011826 -9.997037732365049223 
	0.25 0.4686080467050466325 -9.996874660624301967 
	0.25 0.5313919681961145614 -9.996874660624301967 
	0.2437260420188941679 0.5648754581623599558 -9.997037732365049223 
	0.2182122204851417446 0.6264699032585230309 -9.997627180120078449 
	0.1989724290986099875 0.6545809689452444236 -9.998045096782234964 
	0.154580961787196991 0.6989724362566573923 -9.998829957103612998 
	0.1264698959482302432 0.7182122278206211075 -9.999247816781222653 
	0.06487545046558462758 0.7437260496284451294 -9.999837134269279559 
	0.03139196033179732226 0.7500000074505805969 -10.00000014901161194 
	4.857225732735059864e-17 0.7500000074505805969 -10.00000014901161194 
	0.000166091035348186637 
	
	cone 0 0.5000000074505805969 -9.25 0 0 1 -0.25 0 0 1 I I 0 1 0.25 forward I I I I 
	cone 0 0.6000000089406967163 0 0 -1 -0 10.00000014901161194 0 0 1 I I 0 1 10.00000014901161194 forward I I I I 
	nullbs 
	nullbs 
	I I 
	0 
	0 
	0 
	
	0 } I I #
loop $-1 -1 $-1 $-1 $87 $38 #
coedge $-1 -1 $-1 $74 $74 $65 $80 forward $59 0 $-1 #
ATTRIB_CUSTOM-attrib $-1 -1 $-1 $-1 $62 @22 generic_tag_attrib_def 3 3 -1 @23 generic_tag_attrib_def  1 1 @1 5 0 1 308 0 #
face $88 32 $-1 $89 $90 $6 $-1 $91 forward single #
loop $-1 -1 $-1 $92 $93 $62 #
plane-surface $-1 -1 $-1 9.500000141561031342 0.1000000014901161194 0 0 -1 -0 0 0 -1 forward_v I I I I #
loop $-1 -1 $-1 $94 $95 $50 #
edge $-1 35 $-1 $96 0 $96 6.283185307179586232 $74 $97 forward @7 unknown #
vertex $-1 40 $-1 $66 2 $98 #
ellipse-curve $-1 -1 $-1 0 1.722718993457469594 0 0 -1 -0 6.98077677598425872 0 0 1 I I #
point $-1 -1 $-1 -1.687538997430237941e-14 2.400000035762785977 0 #
intcurve-curve $-1 -1 $-1 forward { int_int_cur 22210 full nubs 3 open 9 
	1.130110579391963688 3 1.224286460387355557 2 1.318462341382747649 2 1.412638223619349764 2 1.50681410585595188 3 
	1.600989988092553773 2 1.695165870329155888 2 1.789341751324547758 2 1.88351763231993985 3 
	4.857225732735059864e-17 0.7500000074505805969 -10.00000014901161194 
	-0.03139196033179722511 0.7500000074505805969 -10.00000014901161194 
	-0.06487545046558457207 0.7437260496284451294 -9.999837134269279559 
	-0.1264698959482301877 0.7182122278206211075 -9.999247816781222653 
	-0.15458096178719688 0.6989724362566576144 -9.998829957103612998 
	-0.1989724290986099042 0.6545809689452444236 -9.998045096782234964 
	-0.2182122204851416614 0.626469903258523142 -9.997627180120078449 
	-0.2437260420188941956 0.5648754581623599558 -9.997037732365049223 
	-0.25 0.5313919681961145614 -9.996874660624301967 
	-0.25 0.5000000074505805969 -9.996874660624301967 
	-0.25 0.4686080467050466325 -9.996874660624301967 
	-0.2437260420188941679 0.4351245567388011826 -9.997037732365049223 
	-0.2182122204851416891 0.3735301116426381074 -9.997627180120078449 
	-0.1989724290986099597 0.3454190459559167703 -9.998045096782234964 
	-0.154580961787196991 0.3010275786445038571 -9.998829957103612998 
	-0.1264698959482303819 0.2817877870805401419 -9.999247816781222653 
	-0.06487545046558478024 0.2562739652727161199 -9.999837134269279559 
	-0.03139196033179734308 0.2500000074505805969 -10.00000014901161194 
	-6.938893903907228378e-18 0.2500000074505805969 -10.00000014901161194 
	0.000166091035348186637 
	
	cone 0 0.5000000074505805969 -9.25 0 0 1 -0.25 0 0 1 I I 0 1 0.25 forward I I I I 
	cone 0 0.6000000089406967163 0 0 -1 -0 10.00000014901161194 0 0 1 I I 0 1 10.00000014901161194 forward I I I I 
	nullbs 
	nullbs 
	I I 
	0 
	0 
	0 
	
	0 } I I #
point $-1 -1 $-1 0 0.2500000074505805969 -10 #
point $-1 -1 $-1 0 0.7500000074505805969 -10 #
coedge $-1 -1 $-1 $87 $87 $95 $99 reversed $73 0 $-1 #
ATTRIB_CUSTOM-attrib $-1 -1 $-1 $-1 $76 @22 generic_tag_attrib_def 3 3 -1 @23 generic_tag_attrib_def  1 1 @1 4 0 1 308 0 #
face $100 33 $-1 $-1 $101 $6 $-1 $102 forward single #
loop $-1 -1 $-1 $103 $104 $76 #
cone-surface $-1 -1 $-1 0 0.1500000007450580652 0 0 -1 -0 9.500000141561031342 0 0 1 I I 0 -1 9.500000141561031342 forward I I I I #
loop $-1 -1 $-1 $-1 $105 $62 #
coedge $-1 -1 $-1 $93 $93 $106 $107 forward $77 0 $-1 #
loop $-1 -1 $-1 $-1 $106 $50 #
coedge $-1 -1 $-1 $95 $95 $87 $99 forward $79 0 $-1 #
vertex $-1 41 $-1 $80 2 $108 #
ellipse-curve $-1 -1 $-1 0 1.82085393962060027 0 0 -1 -0 6.999999999999977796 0 0 1 I I #
point $-1 -1 $-1 6.98077677598425872 1.722718993457469594 0 #
edge $-1 36 $-1 $109 0 $109 6.283185307179586232 $95 $110 forward @7 unknown #
ATTRIB_CUSTOM-attrib $-1 -1 $-1 $-1 $89 @22 generic_tag_attrib_def 3 3 -1 @23 generic_tag_attrib_def  1 1 @1 3 0 1 308 0 #
loop $-1 -1 $-1 $-1 $111 $89 #
plane-surface $-1 -1 $-1 0 0.2000000000000000111 0 0 -1 -0 0 0 -1 forward_v I I I I #
loop $-1 -1 $-1 $-1 $112 $76 #
coedge $-1 -1 $-1 $104 $104 $105 $113 forward $90 0 $-1 #
coedge $-1 -1 $-1 $105 $105 $104 $113 reversed $92 0 $-1 #
coedge $-1 -1 $-1 $106 $106 $93 $107 reversed $94 0 $-1 #
edge $-1 37 $-1 $114 0 $114 6.283185307179586232 $93 $115 forward @7 unknown #
point $-1 -1 $-1 6.999999999999977796 1.82085393962060027 0 #
vertex $-1 879 $-1 $99 0 $116 #
ellipse-curve $-1 -1 $-1 0 1.100000016391284419 0 0 -1 -0 10.00000014901161549 0 0 1 I I #
coedge $-1 -1 $-1 $111 $111 $112 $117 forward $101 0 $-1 #
coedge $-1 -1 $-1 $112 $112 $111 $117 reversed $103 0 $-1 #
edge $-1 38 $-1 $118 0 $118 6.283185307179586232 $104 $119 forward @7 unknown #
vertex $-1 880 $-1 $107 2 $120 #
ellipse-curve $-1 -1 $-1 0 0.1000000014901161194 0 0 -1 -0 10.00000014901161194 0 0 1 I I #
point $-1 -1 $-1 10.00000014901161549 1.100000016391284419 0 #
edge $-1 39 $-1 $121 0 $121 6.283185307179586232 $111 $122 forward @7 unknown #
vertex $-1 881 $-1 $113 2 $123 #
ellipse-curve $-1 -1 $-1 0 0.1000000014901161194 0 0 -1 -0 9.500000141561031342 0 0 1 I I #
point $-1 -1 $-1 10.00000014901161194 0.1000000014901161194 0 #
vertex $-1 882 $-1 $117 2 $124 #
ellipse-curve $-1 -1 $-1 0 0.2000000000000000111 0 0 -1 -0 9.500000141561031342 0 0 1 I I #
point $-1 -1 $-1 9.500000141561031342 0.1000000014901161194 0 #
point $-1 -1 $-1 9.500000141561031342 0.2000000000000000111 0 #
End-of-ASM-data 