22700 0 2 4           
16 Autodesk Neutron 20 ASM 227.1.1.65535 NT 24 Wed Aug 25 11:00:50 2021 
10 9.999999999999999547e-07 1.000000000000000036e-10 
asmheader $-1 -1 @13 227.1.1.65535 #
body $2 15 $-1 $3 $-1 $4 #
ATTRIB_CUSTOM-attrib $-1 -1 $5 $-1 $1 @20 Timestamp_attrib_def 1 1469384110001 #
lump $-1 -1 $-1 $-1 $6 $1 #
transform $-1 -1 1 0 0 0 1 0 0 0 1 0 0 0 1 no_rotate no_reflect no_shear #
ATTRIB_CUSTOM-attrib $-1 -1 $-1 $2 $1 @22 generic_tag_attrib_def 3 3 -1 @23 generic_tag_attrib_def  1 3 @3 313 6 0 0 #
shell $-1 -1 $-1 $-1 $-1 $7 $-1 $3 #
face $8 10 $-1 $9 $10 $6 $-1 $11 forward single #
ATTRIB_CUSTOM-attrib $-1 -1 $-1 $-1 $7 @22 generic_tag_attrib_def 3 3 -1 @23 generic_tag_attrib_def  1 1 @1 5 0 1 313 0 #
face $12 11 $-1 $13 $14 $6 $-1 $15 forward single #
loop $-1 -1 $-1 $16 $17 $7 #
cone-surface $-1 -1 $-1 0 1.771786466539033711 0 0 -1 -0 6.990388387992117813 0 0 1 I I -0.1922322401571956996 0.9813494616313528374 6.990388387992117813 forward I I I I #
ATTRIB_CUSTOM-attrib $-1 -1 $-1 $-1 $9 @22 generic_tag_attrib_def 3 3 -1 @23 generic_tag_attrib_def  1 1 @1 4 0 1 313 0 #
face $18 12 $-1 $-1 $19 $6 $-1 $20 forward single #
loop $-1 -1 $-1 $-1 $21 $9 #
sphere-surface $-1 -1 $-1 2.842170943040400743e-14 -33.91428527108365643 0 -36.31428530684646461 1 0 0 0 0 1 forward_v I I I I #
loop $-1 -1 $-1 $-1 $22 $7 #
coedge $-1 -1 $-1 $17 $17 $23 $24 forward $10 0 $-1 #
ATTRIB_CUSTOM-attrib $-1 -1 $-1 $-1 $13 @22 generic_tag_attrib_def 3 3 -1 @23 generic_tag_attrib_def  1 1 @1 3 0 1 313 0 #
loop $-1 -1 $-1 $-1 $23 $13 #
sphere-surface $-1 -1 $-1 0 -33.91428519118682061 0 36.4142852284397236 1 0 0 0 0 1 forward_v I I I I #
coedge $-1 -1 $-1 $21 $21 $22 $25 forward $14 0 $-1 #
coedge $-1 -1 $-1 $22 $22 $21 $25 reversed $16 0 $-1 #
coedge $-1 -1 $-1 $23 $23 $17 $24 reversed $19 0 $-1 #
edge $-1 13 $-1 $26 0 $26 6.283185307179586232 $23 $27 forward @7 unknown #
edge $-1 14 $-1 $28 0 $28 6.283185307179586232 $21 $29 forward @7 unknown #
vertex $-1 38 $-1 $24 2 $30 #
ellipse-curve $-1 -1 $-1 0 1.820853939620597828 0 0 -1 -0 6.999999999999977796 0 0 1 I I #
vertex $-1 39 $-1 $25 2 $31 #
ellipse-curve $-1 -1 $-1 0 1.722718993457469594 0 0 -1 -0 6.98077677598425872 0 0 1 I I #
point $-1 -1 $-1 6.999999999999977796 1.820853939620597828 0 #
point $-1 -1 $-1 6.98077677598425872 1.722718993457469594 0 #
End-of-ASM-data 