22700 0 2 4           
16 Autodesk Neutron 20 ASM 227.1.1.65535 NT 24 Wed Aug 25 11:00:53 2021 
10 9.999999999999999547e-07 1.000000000000000036e-10 
asmheader $-1 -1 @13 227.1.1.65535 #
body $2 270 $-1 $3 $-1 $4 #
ATTRIB_CUSTOM-attrib $-1 -1 $5 $-1 $1 @20 Timestamp_attrib_def 1 1469575348001 #
lump $-1 -1 $-1 $-1 $6 $1 #
transform $-1 -1 1 0 0 0 1 0 0 0 1 0 0 0 1 no_rotate no_reflect no_shear #
ATTRIB_CUSTOM-attrib $-1 -1 $-1 $2 $1 @22 generic_tag_attrib_def 3 3 -1 @23 generic_tag_attrib_def  3 3 @3 538 7 0 0 3 @3 540 5 0 0 3 @3 540 6 0 0 #
shell $-1 -1 $-1 $-1 $-1 $7 $-1 $3 #
face $8 578 $-1 $9 $10 $6 $-1 $11 forward single #
ATTRIB_CUSTOM-attrib $-1 -1 $12 $-1 $7 @27 NEUTRON_Material_attrib_def 1 @36 6bb8afca-53f5-4fd7-9c2a-82645359aa81 #
face $13 579 $-1 $14 $15 $6 $-1 $16 forward single #
loop $-1 -1 $-1 $-1 $17 $7 #
sphere-surface $-1 -1 $-1 1.559789833988968866 0.5000000074505807079 -30.60082571692744224 0.2000000000000000111 1 0 0 0 0 1 forward_v I I I I #
ATTRIB_CUSTOM-attrib $-1 -1 $-1 $8 $7 @22 generic_tag_attrib_def 3 3 -1 @23 generic_tag_attrib_def  1 1 @1 2 0 1 543 0 #
ATTRIB_CUSTOM-attrib $-1 -1 $18 $-1 $9 @27 NEUTRON_Material_attrib_def 1 @36 271628df-d9ff-41fb-92b1-4a670152c6da #
face $19 576 $-1 $20 $21 $6 $-1 $22 forward single #
loop $-1 -1 $-1 $23 $24 $9 #
cone-surface $-1 -1 $-1 1.035380729042725712 0.5000000074505807079 -26.43369299878065348 0.1248593107014865783 0 -0.9921744567016174132 -0.1984348913403232162 0 -0.02497186214029728166 1 I I 0 1 0.1999999999999997335 forward I I I I #
coedge $-1 -1 $-1 $17 $17 $25 $26 forward $10 0 $-1 #
ATTRIB_CUSTOM-attrib $-1 -1 $-1 $13 $9 @22 generic_tag_attrib_def 3 3 -1 @23 generic_tag_attrib_def  1 1 @1 4 0 1 540 0 #
ATTRIB_CUSTOM-attrib $-1 -1 $27 $-1 $14 @27 NEUTRON_Material_attrib_def 1 @36 75ffb6cf-8be5-4e3b-9e09-075e76f85878 #
face $28 577 $-1 $29 $30 $6 $-1 $31 forward single #
loop $-1 -1 $-1 $-1 $32 $14 #
sphere-surface $-1 -1 $-1 3.444921301722042362 0.5000000074505805969 -30.36359302659462145 0.2000000000000000111 1 0 0 0 0 1 forward_v I I I I #
loop $-1 -1 $-1 $-1 $25 $9 #
coedge $-1 -1 $-1 $24 $24 $33 $34 reversed $15 0 $-1 #
coedge $-1 -1 $-1 $25 $25 $17 $26 reversed $23 0 $-1 #
edge $-1 581 $-1 $35 -3.141592653589793116 $35 3.141592653589793116 $25 $36 forward @7 tangent #
ATTRIB_CUSTOM-attrib $-1 -1 $-1 $19 $14 @22 generic_tag_attrib_def 3 3 -1 @23 generic_tag_attrib_def  1 1 @1 1 0 1 543 0 #
ATTRIB_CUSTOM-attrib $-1 -1 $37 $-1 $20 @27 NEUTRON_Material_attrib_def 1 @36 619dfe94-6690-462a-947f-9c2a36eab6e4 #
face $38 549 $-1 $39 $40 $6 $-1 $41 forward single #
loop $-1 -1 $-1 $42 $43 $20 #
cone-surface $-1 -1 $-1 2.920512196775798763 0.5000000074505805969 -26.19646030844782914 0.1248593107014865783 0 -0.9921744567016174132 -0.1984348913403234937 0 -0.02497186214029731982 1 I I 0 1 0.2000000000000000111 forward I I I I #
coedge $-1 -1 $-1 $32 $32 $44 $45 forward $21 0 $-1 #
coedge $-1 -1 $-1 $33 $33 $24 $34 forward $46 0 $-1 #
edge $-1 408 $-1 $47 -3.141592653589793116 $47 3.141592653589793116 $33 $48 forward @7 unknown #
vertex $-1 582 $-1 $26 0 $49 #
ellipse-curve $-1 -1 $-1 1.559789833988968866 0.5000000074505807079 -30.60082571692744224 0.1248593107014865783 0 -0.9921744567016174132 -0.1984348913403235493 0 -0.0249718621402976737 1 I I #
ATTRIB_CUSTOM-attrib $-1 -1 $-1 $28 $20 @22 generic_tag_attrib_def 3 3 -1 @23 generic_tag_attrib_def  1 1 @1 3 0 1 540 0 #
ATTRIB_CUSTOM-attrib $-1 -1 $-1 $-1 $29 @22 generic_tag_attrib_def 3 3 -1 @23 generic_tag_attrib_def  1 1 @1 5 0 1 542 0 #
face $50 550 $-1 $51 $52 $6 $-1 $53 forward single #
loop $-1 -1 $-1 $-1 $54 $29 #
cone-surface $-1 -1 $-1 2.870903473940717987 0.5000000074505805969 -26.20270327398290533 0.1248593107014865228 0 -0.9921744567016175242 0.3507866432268962331 0.3535533905932738974 0.04414443264564774788 1 I I 0 1 0.4999999999999999445 forward I I I I #
loop $-1 -1 $-1 $-1 $44 $20 #
coedge $-1 -1 $-1 $43 $43 $55 $56 reversed $30 0 $-1 #
coedge $-1 -1 $-1 $44 $44 $32 $45 reversed $42 0 $-1 #
edge $-1 580 $-1 $57 -3.141592653589793116 $57 3.141592653589793116 $44 $58 forward @7 tangent #
loop $-1 -1 $-1 $59 $33 $51 #
vertex $-1 583 $-1 $34 0 $60 #
ellipse-curve $-1 -1 $-1 1.347529005796442636 0.5000000074505807079 -28.91412914053470118 -0.1248593107014865228 -0 0.9921744567016175242 -0.1984348913403232162 0 -0.02497186214029728166 1 I I #
point $-1 -1 $-1 1.758224725329292415 0.5000000074505807079 -30.57585385478714457 #
ATTRIB_CUSTOM-attrib $-1 -1 $-1 $-1 $39 @22 generic_tag_attrib_def 3 3 -1 @23 generic_tag_attrib_def  1 1 @1 6 0 1 542 0 #
face $61 552 $-1 $62 $46 $6 $-1 $63 forward single #
loop $-1 -1 $-1 $-1 $64 $39 #
sphere-surface $-1 -1 $-1 2.933333129291460839 0.5000000074505805969 -26.69879050233371132 0.5 1 0 0 0 0 1 forward_v I I I I #
coedge $-1 -1 $-1 $65 $66 $67 $68 forward $40 0 $-1 #
coedge $-1 -1 $-1 $55 $55 $43 $56 forward $59 0 $-1 #
edge $-1 407 $-1 $69 -3.141592653589793116 $69 3.141592653589793116 $55 $70 forward @7 unknown #
vertex $-1 584 $-1 $45 0 $71 #
ellipse-curve $-1 -1 $-1 3.444921301722042362 0.5000000074505805969 -30.36359302659462145 0.1248593107014865783 0 -0.9921744567016174132 -0.1984348913403235493 0 -0.0249718621402976737 1 I I #
loop $-1 -1 $-1 $72 $55 $51 #
point $-1 -1 $-1 1.545963897136765741 0.5000000074505807079 -28.88915727839440351 #
ATTRIB_CUSTOM-attrib $-1 -1 $-1 $-1 $51 @22 generic_tag_attrib_def 3 3 -1 @23 generic_tag_attrib_def  1 1 @1 2 0 1 538 0 #
face $73 551 $-1 $74 $75 $6 $-1 $76 forward single #
plane-surface $-1 -1 $-1 2.290094739662978718 0.5000000074505805969 -28.79551279536828901 0.1248593107014865228 0 -0.9921744567016175242 -0.9921744567016175242 0 -0.1248593107014865228 forward_v I I I I #
coedge $-1 -1 $-1 $77 $77 $78 $79 reversed $52 0 $-1 #
coedge $-1 -1 $-1 $78 $54 $80 $81 forward $40 0 $-1 #
coedge $-1 -1 $-1 $54 $78 $82 $83 forward $40 0 $-1 #
coedge $-1 -1 $-1 $84 $85 $54 $68 reversed $72 0 $-1 #
edge $-1 566 $-1 $86 -0.7853981633974479459 $87 2.356194490192344393 $67 $88 forward @7 unknown #
vertex $-1 585 $-1 $56 0 $89 #
ellipse-curve $-1 -1 $-1 3.232660473529515688 0.5000000074505805969 -28.67689645020187683 -0.1248593107014865228 -0 0.9921744567016175242 -0.1984348913403234937 0 -0.02497186214029731982 1 I I #
point $-1 -1 $-1 3.643356193062365911 0.5000000074505805969 -30.33862116445432378 #
loop $-1 -1 $-1 $-1 $67 $51 #
ATTRIB_CUSTOM-attrib $-1 -1 $-1 $-1 $62 @22 generic_tag_attrib_def 3 3 -1 @23 generic_tag_attrib_def  1 1 @1 3 0 1 538 0 #
face $90 548 $-1 $91 $92 $6 $-1 $93 forward single #
loop $-1 -1 $-1 $-1 $82 $62 #
plane-surface $-1 -1 $-1 3.366990702291526638 7.450580564838760232e-09 -26.14027361863216115 0 -1 0 -0.9921744567016174132 -0 -0.1248593107014865367 forward_v I I I I #
coedge $-1 -1 $-1 $64 $64 $94 $95 forward $52 0 $-1 #
coedge $-1 -1 $-1 $66 $65 $64 $79 forward $40 0 $-1 #
edge $-1 563 $-1 $96 -1.570796326794896558 $97 1.570796326794896558 $78 $98 forward @7 tangent #
coedge $-1 -1 $-1 $99 $100 $65 $81 reversed $101 0 $-1 #
edge $-1 564 $-1 $87 -2.500000000000001332 $96 -0.5000000000000008882 $80 $102 forward @7 tangent #
coedge $-1 -1 $-1 $103 $104 $66 $83 reversed $75 0 $-1 #
edge $-1 565 $-1 $97 0.4999999999999973355 $86 2.500000000000001332 $82 $105 forward @7 tangent #
coedge $-1 -1 $-1 $106 $67 $104 $107 forward $72 0 $-1 #
coedge $-1 -1 $-1 $67 $106 $99 $108 forward $72 0 $-1 #
vertex $-1 586 $-1 $107 0 $109 #
vertex $-1 587 $-1 $81 0 $110 #
ellipse-curve $-1 -1 $-1 3.183051750694434467 0.5000000074505805969 -28.68313941573695303 -0.1248593107014865228 -0 0.9921744567016175242 0.3507866432268962331 -0.3535533905932738974 0.04414443264564774788 1 I I #
point $-1 -1 $-1 3.431095364869839237 0.5000000074505805969 -28.65192458806157916 #
ATTRIB_CUSTOM-attrib $-1 -1 $-1 $-1 $74 @22 generic_tag_attrib_def 3 3 -1 @23 generic_tag_attrib_def  1 1 @1 4 0 1 542 0 #
face $111 547 $-1 $112 $113 $6 $-1 $114 forward single #
loop $-1 -1 $-1 $-1 $115 $74 #
sphere-surface $-1 -1 $-1 1.147419107228549784 0.5000000074505805969 -26.92353726159639038 0.5 1 0 0 0 0 1 forward_v I I I I #
coedge $-1 -1 $-1 $116 $117 $77 $95 reversed $118 0 $-1 #
edge $-1 567 $-1 $96 -2.35619449019235061 $97 0.7853981633974498333 $94 $119 forward @7 tangent #
vertex $-1 588 $-1 $120 0 $121 #
vertex $-1 589 $-1 $83 0 $122 #
ellipse-curve $-1 -1 $-1 2.933333129291460839 0.5000000074505805969 -26.69879050233371132 0.1248593107014883685 -0 -0.9921744567016173022 0.4960872283508086511 0 0.06242965535074418426 1 F -1.570796326794896558 F 1.570796326794896558 #
coedge $-1 -1 $-1 $123 $80 $85 $108 reversed $101 0 $-1 #
coedge $-1 -1 $-1 $80 $123 $116 $120 reversed $101 0 $-1 #
loop $-1 -1 $-1 $-1 $80 $124 #
straight-curve $-1 -1 $-1 2.870903473940717987 1.000000007450580597 -26.20270327398290533 -0.1248593107014865228 -0 0.9921744567016175242 F -3.99141694926327828 F 0.61726105849036772 #
coedge $-1 -1 $-1 $125 $82 $117 $126 reversed $75 0 $-1 #
coedge $-1 -1 $-1 $82 $125 $84 $107 reversed $75 0 $-1 #
straight-curve $-1 -1 $-1 2.870903473940717987 7.450580596923828125e-09 -26.20270327398290533 0.1248593107014865228 0 -0.9921744567016175242 F -0.61726105849036772 F 3.99141694926327828 #
coedge $-1 -1 $-1 $85 $84 $127 $128 reversed $72 0 $-1 #
edge $-1 568 $-1 $86 -2.299999999999999822 $129 -0.499999999999999889 $104 $130 forward @7 unknown #
edge $-1 562 $-1 $131 -2.300000000000001599 $87 -0.5000000000000008882 $99 $132 forward @7 unknown #
point $-1 -1 $-1 3.183051750694434023 7.450580564838760232e-09 -28.68313941573694947 #
point $-1 -1 $-1 3.183051750694434467 1.000000007450580597 -28.68313941573694947 #
ATTRIB_CUSTOM-attrib $-1 -1 $-1 $-1 $91 @22 generic_tag_attrib_def 3 3 -1 @23 generic_tag_attrib_def  1 1 @1 3 0 1 542 0 #
face $133 545 $-1 $134 $118 $6 $-1 $135 forward single #
loop $-1 -1 $-1 $-1 $136 $91 #
sphere-surface $-1 -1 $-1 1.147419107228549118 0.5000000074505805969 -26.92353726159638683 0.5000000000000007772 1 0 0 0 0 1 forward_v I I I I #
coedge $-1 -1 $-1 $137 $138 $139 $140 reversed $92 0 $-1 #
coedge $-1 -1 $-1 $141 $94 $100 $120 forward $118 0 $-1 #
coedge $-1 -1 $-1 $94 $142 $103 $126 forward $118 0 $-1 #
loop $-1 -1 $-1 $-1 $94 $112 #
ellipse-curve $-1 -1 $-1 2.933333129291460839 0.5000000074505805969 -26.69879050233371132 0.9921744567016174132 0 0.1248593107014865367 -0.04414443264564971159 -0.3535533905932734533 0.3507866432268968993 1 I I #
edge $-1 569 $-1 $96 -1.600000000000000755 $143 0.2000000000000003164 $100 $144 forward @7 tangent #
point $-1 -1 $-1 2.933333129291461283 1.000000007450580597 -26.69879050233371487 #
point $-1 -1 $-1 2.933333129291460839 7.450580596923828125e-09 -26.69879050233371132 #
coedge $-1 -1 $-1 $100 $99 $145 $146 reversed $101 0 $-1 #
face $147 253 $-1 $-1 $101 $6 $-1 $148 forward single #
coedge $-1 -1 $-1 $104 $103 $149 $150 reversed $75 0 $-1 #
edge $-1 558 $-1 $151 -1.600000000000000755 $97 0.199999999999999678 $103 $152 forward @7 tangent #
coedge $-1 -1 $-1 $149 $145 $106 $128 forward $153 0 $-1 #
edge $-1 561 $-1 $131 -0.785398163397448501 $129 2.356194490192345725 $106 $154 forward @7 unknown #
vertex $-1 590 $-1 $128 1 $155 #
straight-curve $-1 -1 $-1 0.901050500280713984 7.450580564838760232e-09 -28.97031583035036917 -0.9921744567016176353 -0 -0.1248593107014865644 I I #
vertex $-1 591 $-1 $108 0 $156 #
straight-curve $-1 -1 $-1 3.679138979045244007 1.000000007450580597 -28.62070976038620529 0.9921744567016176353 0 0.1248593107014865644 I I #
ATTRIB_CUSTOM-attrib $-1 -1 $-1 $-1 $112 @22 generic_tag_attrib_def 3 3 -1 @23 generic_tag_attrib_def  1 1 @1 1 0 1 542 0 #
face $157 546 $-1 $124 $153 $6 $-1 $158 forward single #
cone-surface $-1 -1 $-1 2.734898237951137734 0.5000000074505805969 -26.72376236447400899 0.9921744567016174132 0 0.1248593107014865367 -0.04414443264564957975 -0.3535533905932734533 0.3507866432268963996 1 I I 0 1 0.4999999999999999445 forward I I I I #
coedge $-1 -1 $-1 $159 $139 $160 $161 reversed $113 0 $-1 #
coedge $-1 -1 $-1 $138 $115 $141 $162 reversed $92 0 $-1 #
coedge $-1 -1 $-1 $115 $137 $163 $164 reversed $92 0 $-1 #
coedge $-1 -1 $-1 $136 $159 $115 $140 forward $113 0 $-1 #
edge $-1 555 $-1 $165 -0.7853981633974452814 $166 0.7853981633974527199 $139 $167 forward @7 unknown #
coedge $-1 -1 $-1 $142 $116 $137 $162 forward $118 0 $-1 #
coedge $-1 -1 $-1 $117 $141 $159 $168 forward $118 0 $-1 #
vertex $-1 595 $-1 $146 0 $169 #
straight-curve $-1 -1 $-1 1.345853998568872667 1.000000007450580597 -26.89856539945609271 -0.9921744567016174132 0 -0.1248593107014865367 F -3.591416949263275704 F 2.317261058490364789 #
coedge $-1 -1 $-1 $127 $163 $123 $146 forward $153 0 $-1 #
edge $-1 560 $-1 $143 0.4999999999999973355 $131 2.49999999999999778 $123 $170 forward @7 tangent #
ATTRIB_CUSTOM-attrib $-1 -1 $-1 $-1 $124 @22 generic_tag_attrib_def 3 3 -1 @23 generic_tag_attrib_def  1 1 @1 5 0 1 538 0 #
plane-surface $-1 -1 $-1 0.5889022235269973926 1.000000007450580597 -26.48987968859632502 0 1 0 0.9921744567016174132 -0 0.1248593107014865367 forward_v I I I I #
coedge $-1 -1 $-1 $160 $127 $125 $150 forward $153 0 $-1 #
edge $-1 559 $-1 $129 -2.500000000000001332 $151 -0.4999999999999973355 $125 $171 forward @7 tangent #
vertex $-1 592 $-1 $126 0 $172 #
straight-curve $-1 -1 $-1 2.734898237951137734 7.450580596923828125e-09 -26.72376236447400899 0.9921744567016174132 0 0.1248593107014865367 F -3.717261058490365588 F 2.191416949263275349 #
loop $-1 -1 $-1 $-1 $127 $134 #
ellipse-curve $-1 -1 $-1 1.397137728631522302 0.5000000074505805969 -28.90788617499962854 -0.1248593107014865228 -0 0.9921744567016175242 -0.3507866432268962331 0.3535533905932738974 -0.04414443264564774788 1 I I #
point $-1 -1 $-1 1.397137728631522524 7.450580564838760232e-09 -28.90788617499962498 #
point $-1 -1 $-1 1.39713772863152208 1.000000007450580597 -28.90788617499962498 #
ATTRIB_CUSTOM-attrib $-1 -1 $-1 $-1 $134 @22 generic_tag_attrib_def 3 3 -1 @23 generic_tag_attrib_def  1 1 @1 2 0 1 542 0 #
cone-surface $-1 -1 $-1 1.084989451877806044 0.5000000074505805969 -26.42745003324558084 0.1248593107014865228 0 -0.9921744567016175242 -0.3507866432268960666 -0.3535533905932733978 -0.04414443264565270919 1 I I 0 1 0.4999999999999999445 forward I I I I #
coedge $-1 -1 $-1 $139 $136 $142 $168 reversed $113 0 $-1 #
coedge $-1 -1 $-1 $163 $149 $136 $161 forward $153 0 $-1 #
edge $-1 554 $-1 $151 0 $166 1.570796326794896558 $160 $173 reversed @7 tangent #
edge $-1 557 $-1 $143 -0 $165 1.570796326794896558 $141 $174 reversed @7 tangent #
coedge $-1 -1 $-1 $145 $160 $138 $164 forward $153 0 $-1 #
edge $-1 556 $-1 $166 -0 $143 1.570796326794896558 $163 $175 reversed @7 tangent #
vertex $-1 594 $-1 $168 0 $176 #
vertex $-1 593 $-1 $164 0 $177 #
ellipse-curve $-1 -1 $-1 1.147419107228549784 0.5000000074505805969 -26.92353726159639038 -0 -1 0 -0.39493107587254489 0 0.3066422105812476318 1 F -0.7853981633974452814 F 0.7853981633974527199 #
edge $-1 553 $-1 $165 -0 $151 1.570796326794896558 $142 $178 reversed @7 tangent #
point $-1 -1 $-1 1.147419107228548896 1.000000007450580597 -26.92353726159639038 #
straight-curve $-1 -1 $-1 1.084989451877806044 1.000000007450580597 -26.42745003324558439 0.1248593107014865228 0 -0.9921744567016175242 F -1.491416949263281388 F 4.117261058490366388 #
straight-curve $-1 -1 $-1 1.084989451877806044 7.450580596923828125e-09 -26.42745003324558084 -0.1248593107014865228 -0 0.9921744567016175242 F -4.11726105849036994 F 1.491416949263277836 #
point $-1 -1 $-1 1.147419107228549118 7.450580596923828125e-09 -26.92353726159638683 #
ellipse-curve $-1 -1 $-1 1.147419107228548896 0.5000000074505805969 -26.92353726159638683 -0.1248593107014954462 0 0.992174456701616414 0 -0.5 0 1 F -1.570796326794896558 F -0 #
ellipse-curve $-1 -1 $-1 1.147419107228548896 0.5000000074505805969 -26.92353726159639038 -0.9921744567016175242 0 -0.1248593107014850656 0 0.5 0 1 F -1.570796326794896558 F -0 #
ellipse-curve $-1 -1 $-1 1.147419107228548896 0.5000000074505805969 -26.92353726159639038 -0.1248593107014884379 0 0.9921744567016171912 -0.496087228350808318 0 -0.06242965535074418426 1 F -1.570796326794896558 F -0 #
point $-1 -1 $-1 1.084989451877805822 0.5000000074505805969 -26.42745003324557729 #
point $-1 -1 $-1 0.6513318788777405777 0.5000000074505805969 -26.98596691694713456 #
ellipse-curve $-1 -1 $-1 1.147419107228549118 0.5000000074505805969 -26.92353726159638683 -0.9921744567016175242 -0 -0.1248593107014863979 -0.06242965535074329608 0 0.4960872283508095393 1 F -1.570796326794896558 F -0 #
End-of-ASM-data 