22700 0 2 4           
16 Autodesk Neutron 20 ASM 227.1.1.65535 NT 24 Wed Aug 25 11:00:53 2021 
10 9.999999999999999547e-07 1.000000000000000036e-10 
asmheader $-1 -1 @13 227.1.1.65535 #
body $2 123 $-1 $3 $-1 $4 #
ATTRIB_CUSTOM-attrib $-1 -1 $5 $-1 $1 @20 Timestamp_attrib_def 1 1469574211000 #
lump $-1 -1 $-1 $-1 $6 $1 #
transform $-1 -1 1 0 0 0 1 0 0 0 1 0 0 0 1 no_rotate no_reflect no_shear #
ATTRIB_CUSTOM-attrib $-1 -1 $-1 $2 $1 @22 generic_tag_attrib_def 3 3 -1 @23 generic_tag_attrib_def  1 3 @3 506 9 0 0 #
shell $-1 -1 $-1 $-1 $-1 $7 $-1 $3 #
face $8 112 $-1 $9 $10 $6 $-1 $11 reversed single #
ATTRIB_CUSTOM-attrib $-1 -1 $-1 $-1 $7 @22 generic_tag_attrib_def 3 3 -1 @23 generic_tag_attrib_def  1 1 @1 3 0 1 508 0 #
face $12 113 $-1 $13 $14 $6 $-1 $15 reversed single #
loop $-1 -1 $-1 $16 $17 $7 #
cone-surface $-1 -1 $-1 -4 81.29999999701972513 -8.500000126659868371 0 1 0 0.25 0 0 1 I I 0 1 0.25 forward I I I I #
ATTRIB_CUSTOM-attrib $-1 -1 $-1 $-1 $9 @22 generic_tag_attrib_def 3 3 -1 @23 generic_tag_attrib_def  1 1 @1 4 0 1 508 0 #
face $18 106 $-1 $19 $20 $6 $-1 $21 forward single #
loop $-1 -1 $-1 $22 $23 $9 #
cone-surface $-1 -1 $-1 0 81.29999999701972513 -8.500000126659870148 0 1 0 0.2499999999999996392 0 0 1 I I 0 1 0.2499999999999996392 forward I I I I #
loop $-1 -1 $-1 $-1 $24 $7 #
coedge $-1 -1 $-1 $17 $17 $25 $26 reversed $10 0 $-1 #
ATTRIB_CUSTOM-attrib $-1 -1 $-1 $-1 $13 @22 generic_tag_attrib_def 3 3 -1 @23 generic_tag_attrib_def  1 1 @1 8 0 1 506 0 #
face $27 107 $-1 $28 $29 $6 $-1 $30 forward single #
loop $-1 -1 $-1 $31 $25 $13 #
plane-surface $-1 -1 $-1 -2 81.39999999701971944 -8.500000126659871924 0 1 0 0 0 1 forward_v I I I I #
loop $-1 -1 $-1 $-1 $32 $9 #
coedge $-1 -1 $-1 $23 $23 $33 $34 reversed $14 0 $-1 #
coedge $35 -1 $-1 $24 $24 $36 $37 reversed $16 0 $-1 #
coedge $-1 -1 $-1 $25 $25 $17 $26 forward $20 0 $-1 #
edge $-1 119 $-1 $38 -3.141592653589793116 $38 3.141592653589793116 $25 $39 forward @7 unknown #
ATTRIB_CUSTOM-attrib $-1 -1 $-1 $-1 $19 @22 generic_tag_attrib_def 3 3 -1 @23 generic_tag_attrib_def  1 1 @1 7 0 1 506 0 #
face $40 108 $-1 $41 $42 $6 $-1 $43 forward single #
loop $-1 -1 $-1 $44 $36 $19 #
plane-surface $-1 -1 $-1 -2 81.29999999701972513 -6.000000126659871924 -0 -1 -0 0 0 -1 forward_v I I I I #
loop $-1 -1 $-1 $45 $33 $13 #
coedge $46 -1 $-1 $32 $32 $47 $48 reversed $22 0 $-1 #
coedge $-1 -1 $-1 $33 $33 $23 $34 forward $31 0 $-1 #
edge $-1 121 $-1 $49 -3.141592653589793116 $49 3.141592653589793116 $33 $50 forward @7 unknown #
ATTRIB_CUSTOM-attrib $-1 -1 $51 $-1 $24 @17 sketch_attrib_def 1 1 3 @13 156 0 0 0 1 1 #
coedge $-1 -1 $-1 $36 $36 $24 $37 forward $29 0 $-1 #
edge $-1 120 $-1 $52 -3.141592653589793116 $52 3.141592653589793116 $36 $53 forward @7 unknown #
vertex $-1 124 $-1 $26 0 $54 #
ellipse-curve $-1 -1 $-1 -4 81.39999999701971944 -8.500000126659868371 -0 -1 -0 0.25 0 0 1 I I #
ATTRIB_CUSTOM-attrib $-1 -1 $-1 $-1 $28 @22 generic_tag_attrib_def 3 3 -1 @23 generic_tag_attrib_def  1 1 @1 6 0 1 506 0 #
face $55 109 $-1 $56 $57 $6 $-1 $58 forward single #
loop $-1 -1 $-1 $59 $60 $28 #
torus-surface $-1 -1 $-1 -2 81.39999999701976208 -8.500000126659871924 0 1 0 2.5 0.1000000000000346029 0 0 1 forward_v I I I I #
loop $-1 -1 $-1 $61 $47 $19 #
loop $-1 -1 $-1 $-1 $62 $13 #
ATTRIB_CUSTOM-attrib $-1 -1 $-1 $-1 $32 @17 sketch_attrib_def 1 1 3 @13 151 0 0 0 1 1 #
coedge $-1 -1 $-1 $47 $47 $32 $48 forward $44 0 $-1 #
edge $-1 122 $-1 $63 -3.141592653589793116 $63 3.141592653589793116 $47 $64 forward @7 unknown #
vertex $-1 126 $-1 $34 0 $65 #
ellipse-curve $-1 -1 $-1 0 81.39999999701971944 -8.500000126659870148 -0 -1 -0 0.2499999999999996392 0 0 1 I I #
ATTRIB_CUSTOM-attrib $-1 -1 $-1 $35 $24 @17 sketch_attrib_def 1 1 3 @13 154 0 0 0 1 1 #
vertex $-1 125 $-1 $37 0 $66 #
ellipse-curve $-1 -1 $-1 -4 81.29999999701972513 -8.500000126659868371 0 1 0 0.25 0 0 1 I I #
point $-1 -1 $-1 -4.25 81.39999999701971944 -8.500000126659868371 #
ATTRIB_CUSTOM-attrib $-1 -1 $-1 $-1 $41 @22 generic_tag_attrib_def 3 3 -1 @23 generic_tag_attrib_def  1 1 @1 5 0 1 506 0 #
face $67 110 $-1 $68 $69 $6 $-1 $70 forward single #
loop $-1 -1 $-1 $71 $72 $41 #
cone-surface $-1 -1 $-1 -2 87.41245721374363598 -8.500000126659871924 0 1 0 0 0 6.086134160494355072 1 I I 0.4999325321727806637 0.8660643528487427245 6.086134160494355072 forward I I I I #
loop $-1 -1 $-1 $-1 $73 $28 #
coedge $-1 -1 $-1 $60 $60 $74 $75 forward $42 0 $-1 #
loop $-1 -1 $-1 $-1 $74 $19 #
coedge $-1 -1 $-1 $62 $62 $76 $77 forward $45 0 $-1 #
vertex $-1 127 $-1 $48 0 $78 #
ellipse-curve $-1 -1 $-1 0 81.29999999701972513 -8.500000126659870148 0 1 0 0.2499999999999996392 0 0 1 I I #
point $-1 -1 $-1 -0.2499999999999996392 81.39999999701971944 -8.500000126659870148 #
point $-1 -1 $-1 -4.25 81.29999999701972513 -8.500000126659868371 #
ATTRIB_CUSTOM-attrib $-1 -1 $-1 $-1 $56 @22 generic_tag_attrib_def 3 3 -1 @23 generic_tag_attrib_def  1 1 @1 4 0 1 506 0 #
face $79 111 $-1 $-1 $80 $6 $-1 $81 forward single #
loop $-1 -1 $-1 $82 $83 $56 #
cone-surface $-1 -1 $-1 -2 93.49990431029345928 -8.500000126659871924 0 1 0 0 0 9.542358668061362792 1 I I -0.8660643528486565712 0.4999325321729300442 9.542358668061362792 forward I I I I #
loop $-1 -1 $-1 $-1 $84 $41 #
coedge $-1 -1 $-1 $72 $72 $73 $85 forward $57 0 $-1 #
coedge $-1 -1 $-1 $73 $73 $72 $85 reversed $59 0 $-1 #
coedge $-1 -1 $-1 $74 $74 $60 $75 reversed $61 0 $-1 #
edge $-1 115 $-1 $86 -1.570796326794896558 $86 4.712388980384689674 $60 $87 forward @7 tangent #
coedge $-1 -1 $-1 $76 $76 $62 $77 reversed $88 0 $-1 #
edge $-1 114 $-1 $89 -1.570796326794896558 $89 4.712388980384689674 $76 $90 forward @7 unknown #
point $-1 -1 $-1 -0.2499999999999996392 81.29999999701972513 -8.500000126659870148 #
ATTRIB_CUSTOM-attrib $-1 -1 $-1 $-1 $68 @22 generic_tag_attrib_def 3 3 -1 @23 generic_tag_attrib_def  1 1 @1 3 0 1 506 0 #
loop $-1 -1 $-1 $88 $91 $68 #
cone-surface $-1 -1 $-1 -2 87.46245046696091663 -8.500000126659871924 0 1 0 0 0 5.999527725209464535 1 I I -0.4999325321727812188 -0.8660643528487423914 5.999527725209464535 forward I I I I #
loop $-1 -1 $-1 $-1 $92 $56 #
coedge $-1 -1 $-1 $83 $83 $84 $93 forward $69 0 $-1 #
coedge $-1 -1 $-1 $84 $84 $83 $93 reversed $71 0 $-1 #
edge $-1 116 $-1 $94 -1.570796326794896558 $94 4.712388980384689674 $72 $95 forward @7 tangent #
vertex $-1 129 $-1 $75 0 $96 #
ellipse-curve $-1 -1 $-1 -2 81.29999999701972513 -8.500000126659871924 0 1 0 2.5 -0 0 1 I I #
loop $-1 -1 $-1 $-1 $76 $68 #
vertex $-1 128 $-1 $77 0 $97 #
ellipse-curve $-1 -1 $-1 -2 81.39999999701971944 -8.500000126659871924 0 1 0 2.5 -0 0 1 I I #
coedge $-1 -1 $-1 $91 $91 $92 $98 forward $80 0 $-1 #
coedge $-1 -1 $-1 $92 $92 $91 $98 reversed $82 0 $-1 #
edge $-1 117 $-1 $99 -1.570796326794896558 $99 4.712388980384689674 $83 $100 forward @7 unknown #
vertex $-1 130 $-1 $85 2 $101 #
ellipse-curve $-1 -1 $-1 -2 81.35000674380248142 -8.500000126659871924 0 1 0 2.586606435284912742 -0 0 1 I I #
point $-1 -1 $-1 -2 81.29999999701972513 -6.000000126659871924 #
point $-1 -1 $-1 -2 81.39999999701971944 -6.000000126659871924 #
edge $-1 118 $-1 $102 -1.570796326794896558 $102 4.712388980384689674 $91 $103 forward @7 unknown #
vertex $-1 131 $-1 $93 2 $104 #
ellipse-curve $-1 -1 $-1 -2 93.47490768368480474 -8.500000126659871924 0 1 0 9.585661885703796514 -0 0 1 I I #
point $-1 -1 $-1 -2 81.35000674380248142 -5.913393691374959182 #
vertex $-1 132 $-1 $98 2 $105 #
ellipse-curve $-1 -1 $-1 -2 93.5249009369020996 -8.500000126659871924 0 1 0 9.499055450418927293 -0 0 1 I I #
point $-1 -1 $-1 -2 93.47490768368480474 1.085661759043925034 #
point $-1 -1 $-1 -2 93.5249009369020996 0.9990553237590561464 #
End-of-ASM-data 