22700 0 2 4           
16 Autodesk Neutron 20 ASM 227.1.1.65535 NT 24 Wed Aug 25 11:00:52 2021 
10 9.999999999999999547e-07 1.000000000000000036e-10 
asmheader $-1 -1 @13 227.1.1.65535 #
body $2 98 $-1 $3 $-1 $4 #
ATTRIB_CUSTOM-attrib $-1 -1 $5 $-1 $1 @20 Timestamp_attrib_def 1 1469574072001 #
lump $-1 -1 $-1 $-1 $6 $1 #
transform $-1 -1 1 0 0 0 1 0 0 0 1 0 0 0 1 no_rotate no_reflect no_shear #
ATTRIB_CUSTOM-attrib $7 -1 $-1 $2 $1 @22 generic_tag_attrib_def 3 3 -1 @23 generic_tag_attrib_def  3 3 @3 517 3 0 0 3 @3 519 4 0 0 3 @3 522 6 0 0 #
shell $-1 -1 $-1 $-1 $-1 $8 $-1 $3 #
ATTRIB_CUSTOM-attrib $-1 -1 $-1 $-1 $5 @22 generic_tag_attrib_def 3 3 -1 @23 generic_tag_attrib_def  1 0 @0  0 1 525 0 #
face $9 86 $-1 $10 $11 $6 $-1 $12 forward single #
ATTRIB_CUSTOM-attrib $-1 -1 $13 $-1 $8 @27 NEUTRON_Material_attrib_def 1 @36 fcee4413-6231-475f-8a92-ac49954b4842 #
face $14 85 $-1 $15 $16 $6 $-1 $17 forward single #
loop $-1 -1 $-1 $18 $19 $8 #
torus-surface $-1 -1 $-1 -2 83.89097323526381444 -8.500000126659871924 0 1 0 9.050773918458407508 -7.754240684734880595 0 0 1 forward_v I I I I #
ATTRIB_CUSTOM-attrib $20 -1 $-1 $9 $8 @22 generic_tag_attrib_def 3 3 -1 @23 generic_tag_attrib_def  1 1 @1 4 0 1 522 0 #
ATTRIB_CUSTOM-attrib $-1 -1 $21 $-1 $10 @27 NEUTRON_Material_attrib_def 1 @36 956bae09-6567-44ee-956d-707fa8bed856 #
face $22 91 $-1 $23 $24 $6 $-1 $25 forward single #
loop $-1 -1 $-1 $-1 $26 $10 #
sphere-surface $-1 -1 $-1 -2 89.8292741955198295 -8.500000126659871924 3.070727066608526457 0 -1 0 1 0 0 forward_v I I I I #
loop $-1 -1 $-1 $-1 $27 $8 #
coedge $-1 -1 $-1 $19 $19 $28 $29 forward $11 0 $-1 #
ATTRIB_CUSTOM-attrib $-1 -1 $-1 $-1 $13 @22 generic_tag_attrib_def 3 3 -1 @23 generic_tag_attrib_def  1 0 @0  0 1 525 0 #
ATTRIB_CUSTOM-attrib $30 -1 $-1 $14 $10 @22 generic_tag_attrib_def 3 3 -1 @23 generic_tag_attrib_def  1 1 @1 3 0 1 522 0 #
ATTRIB_CUSTOM-attrib $31 -1 $-1 $-1 $15 @22 generic_tag_attrib_def 3 3 -1 @23 generic_tag_attrib_def  1 1 @1 3 0 1 519 0 #
face $32 92 $-1 $33 $34 $6 $-1 $35 forward single #
loop $-1 -1 $-1 $36 $37 $15 #
cone-surface $-1 -1 $-1 -2 82.09999999701972229 -8.500000126659871924 0 -1 0 0.3999999999999999112 0 0 1 I I 0 1 0.3999999999999999112 forward I I I I #
coedge $-1 -1 $-1 $26 $26 $27 $38 forward $16 0 $-1 #
coedge $-1 -1 $-1 $27 $27 $26 $38 reversed $18 0 $-1 #
coedge $-1 -1 $-1 $28 $28 $19 $29 reversed $39 0 $-1 #
edge $-1 94 $-1 $40 -3.141592653589793116 $40 3.141592653589793116 $28 $41 forward @7 unknown #
ATTRIB_CUSTOM-attrib $-1 -1 $-1 $-1 $21 @22 generic_tag_attrib_def 3 3 -1 @23 generic_tag_attrib_def  1 0 @0  0 1 525 0 #
ATTRIB_CUSTOM-attrib $-1 -1 $-1 $-1 $22 @22 generic_tag_attrib_def 3 3 -1 @23 generic_tag_attrib_def  1 0 @0  0 1 525 0 #
ATTRIB_CUSTOM-attrib $42 -1 $-1 $-1 $23 @22 generic_tag_attrib_def 3 3 -1 @23 generic_tag_attrib_def  1 1 @1 2 0 1 519 0 #
face $43 88 $-1 $44 $45 $6 $-1 $46 forward single #
loop $-1 -1 $-1 $-1 $47 $23 #
plane-surface $-1 -1 $-1 -2 81.99999999701972797 -8.500000126659871924 0 -1 2.220446049250312588e-16 1 0 0 forward_v I I I I #
loop $-1 -1 $-1 $-1 $48 $15 #
coedge $-1 -1 $-1 $37 $37 $47 $49 reversed $24 0 $-1 #
edge $-1 97 $-1 $50 -1.570796326794896558 $50 4.712388980384689674 $26 $51 forward @7 tangent #
loop $-1 -1 $-1 $-1 $28 $33 #
vertex $-1 99 $-1 $29 0 $52 #
ellipse-curve $-1 -1 $-1 -2 84.69399115360917563 -8.500000126659871924 0 1 -2.220446049250312588e-16 1.338225000000000442 0 0 1 I I #
ATTRIB_CUSTOM-attrib $-1 -1 $-1 $-1 $32 @22 generic_tag_attrib_def 3 3 -1 @23 generic_tag_attrib_def  1 0 @0  0 1 525 0 #
ATTRIB_CUSTOM-attrib $-1 -1 $53 $-1 $33 @22 FDM_feature_attrib_def 2 2 @16 thread_face_data 3 523 2097152 6 1901 -2 82.09999999701972229 -8.500000126659871924 -2 84.69399115360917563 -8.500000126659871924 0 0 0 0 #
face $54 87 $-1 $-1 $55 $6 $-1 $56 forward single #
loop $-1 -1 $-1 $39 $57 $33 #
cone-surface $-1 -1 $-1 -2 83.4499999970197166 -8.500000126659871924 0 1 -2.220446049250312588e-16 1.33822500000000022 0 0 1 I I 0 1 1.350000000000000089 forward I I I I #
coedge $-1 -1 $-1 $47 $47 $37 $49 forward $34 0 $-1 #
coedge $58 -1 $-1 $48 $48 $59 $60 reversed $36 0 $-1 #
edge $-1 95 $-1 $61 -3.141592653589793116 $61 3.141592653589793116 $37 $62 forward @7 unknown #
vertex $-1 100 $-1 $38 0 $63 #
ellipse-curve $-1 -1 $-1 -2 88.14475171866881453 -8.500000126659871924 0 1 0 2.56744011470295419 0 0 1 I I #
point $-1 -1 $-1 -3.338225000000000442 84.69399115360917563 -8.500000126659871924 #
ATTRIB_CUSTOM-attrib $64 -1 $-1 $43 $33 @22 generic_tag_attrib_def 3 3 -1 @23 generic_tag_attrib_def  1 1 @1 3 0 2 517 -523 0 #
ATTRIB_CUSTOM-attrib $-1 -1 $65 $-1 $44 @27 NEUTRON_Material_attrib_def 1 @36 01d8d6d0-dfdd-4deb-bb4f-cb762f4e2cb4 #
loop $-1 -1 $-1 $66 $59 $44 #
plane-surface $-1 -1 $-1 -2 82.09999999701972229 -8.500000126659871924 0 -1 2.220446049250312588e-16 -1 0 0 forward_v I I I I #
coedge $-1 -1 $-1 $57 $57 $67 $68 reversed $45 0 $-1 #
ATTRIB_CUSTOM-attrib $-1 -1 $-1 $-1 $48 @17 sketch_attrib_def 1 1 3 @13 110 0 0 0 1 1 #
coedge $-1 -1 $-1 $59 $59 $48 $60 forward $55 0 $-1 #
edge $-1 96 $-1 $69 -3.141592653589793116 $69 3.141592653589793116 $59 $70 forward @7 unknown #
vertex $-1 101 $-1 $49 2 $71 #
ellipse-curve $-1 -1 $-1 -2 81.99999999701972797 -8.500000126659871924 0 -1 2.220446049250312588e-16 0.3999999999999999112 0 0 1 I I #
point $-1 -1 $-1 -2 88.14475171866881453 -5.932560011956917734 #
ATTRIB_CUSTOM-attrib $-1 -1 $-1 $-1 $53 @22 generic_tag_attrib_def 3 3 -1 @23 generic_tag_attrib_def  1 0 @0  0 1 525 0 #
ATTRIB_CUSTOM-attrib $72 -1 $-1 $54 $44 @22 generic_tag_attrib_def 3 3 -1 @23 generic_tag_attrib_def  1 1 @1 2 0 1 517 0 #
loop $-1 -1 $-1 $-1 $67 $44 #
coedge $-1 -1 $-1 $67 $67 $57 $68 forward $66 0 $-1 #
edge $-1 93 $-1 $73 -3.141592653589793116 $73 3.141592653589793116 $67 $74 reversed @7 unknown #
vertex $-1 102 $-1 $60 0 $75 #
ellipse-curve $-1 -1 $-1 -2 82.09999999701972229 -8.500000126659871924 0 1 -2.220446049250312588e-16 0.3999999999999999112 0 0 1 I I #
point $-1 -1 $-1 -2.399999999999999911 81.99999999701972797 -8.500000126659871924 #
ATTRIB_CUSTOM-attrib $-1 -1 $-1 $-1 $65 @22 generic_tag_attrib_def 3 3 -1 @23 generic_tag_attrib_def  1 0 @0  0 1 525 0 #
vertex $-1 103 $-1 $68 0 $76 #
ellipse-curve $-1 -1 $-1 -2 82.09999999701972229 -8.500000126659871924 0 1 -2.220446049250312588e-16 1.33822500000000022 0 0 1 I I #
point $-1 -1 $-1 -2.399999999999999911 82.09999999701972229 -8.500000126659871924 #
point $-1 -1 $-1 -3.338225000000000442 82.09999999701972229 -8.500000126659871924 #
End-of-ASM-data 