22700 0 2 4           
16 Autodesk Neutron 20 ASM 227.1.1.65535 NT 24 Wed Aug 25 21:04:59 2021 
10 9.999999999999999547e-07 1.000000000000000036e-10 
asmheader $-1 -1 @13 227.1.1.65535 #
body $2 731 $-1 $3 $-1 $-1 #
ATTRIB_CUSTOM-attrib $-1 -1 $4 $-1 $1 @20 Timestamp_attrib_def 1 1477936543001 #
lump $-1 -1 $-1 $-1 $5 $1 #
ATTRIB_CUSTOM-attrib $-1 -1 $-1 $2 $1 @22 generic_tag_attrib_def 3 3 -1 @23 generic_tag_attrib_def  2 3 @3 477 1 0 0 3 @3 517 4 0 0 #
shell $-1 -1 $-1 $-1 $-1 $6 $-1 $3 #
face $7 661 $-1 $8 $9 $5 $-1 $10 forward single #
ATTRIB_CUSTOM-attrib $-1 -1 $-1 $-1 $6 @22 generic_tag_attrib_def 3 3 -1 @23 generic_tag_attrib_def  1 1 @1 3 0 1 517 0 #
face $11 662 $-1 $12 $13 $5 $-1 $14 forward single #
loop $-1 -1 $-1 $15 $16 $6 #
cone-surface $-1 -1 $-1 0 0 -1.100000000000000089 0 0 -1 -2.5 0 0 1 I I 0 1 2.5 forward I I I I #
ATTRIB_CUSTOM-attrib $-1 -1 $-1 $-1 $8 @22 generic_tag_attrib_def 3 3 -1 @23 generic_tag_attrib_def  1 1 @1 2 0 1 517 0 #
face $17 663 $-1 $18 $19 $5 $-1 $20 reversed single #
loop $-1 -1 $-1 $-1 $21 $8 #
plane-surface $-1 -1 $-1 0 0 -6.599999999999999645 0 0 -1 -1 0 0 forward_v I I I I #
loop $-1 -1 $-1 $-1 $22 $6 #
coedge $-1 -1 $-1 $16 $16 $21 $23 reversed $9 0 $-1 #
ATTRIB_CUSTOM-attrib $-1 -1 $-1 $-1 $12 @22 generic_tag_attrib_def 3 3 -1 @23 generic_tag_attrib_def  2 2 @2 22 0 2 456 477 0 1 @1 4 0 2 456 477 0 #
face $24 664 $-1 $25 $26 $5 $-1 $27 reversed single #
loop $-1 -1 $-1 $-1 $28 $12 #
cone-surface $-1 -1 $-1 1.525890525044815503e-13 -4.799999999999999822 -1.100000000000000089 0 0 1 2.700000000000000622 -8.881784197001252323e-16 0 1 I I 0 -1 2.700000000000000622 forward I I I I #
coedge $-1 -1 $-1 $21 $21 $16 $23 forward $13 0 $-1 #
coedge $29 -1 $-1 $22 $22 $30 $31 reversed $15 0 $-1 #
edge $-1 685 $-1 $32 -3.141592653589793116 $32 3.141592653589793116 $16 $33 forward @7 unknown #
ATTRIB_CUSTOM-attrib $-1 -1 $-1 $-1 $18 @22 generic_tag_attrib_def 3 3 -1 @23 generic_tag_attrib_def  1 2 @2 21 0 2 456 477 0 #
face $34 665 $-1 $35 $36 $5 $-1 $37 reversed single #
loop $-1 -1 $-1 $-1 $38 $18 #
plane-surface $-1 -1 $-1 2.700000000000153833 -2.700000000000153833 -1.100000000000000089 -1 2.114710523095690471e-16 0 -2.114710523095690471e-16 -1 -0 forward_v I I I I #
coedge $-1 -1 $-1 $39 $40 $41 $42 reversed $19 0 $-1 #
ATTRIB_CUSTOM-attrib $-1 -1 $-1 $-1 $22 @17 sketch_attrib_def 1 1 3 @13 130 0 0 0 1 1 #
coedge $-1 -1 $-1 $30 $30 $22 $31 forward $43 0 $-1 #
edge $-1 686 $-1 $44 -3.141592653589793116 $44 3.141592653589793116 $30 $45 forward @7 unknown #
vertex $-1 799 $-1 $23 2 $46 #
ellipse-curve $-1 -1 $-1 0 0 -6.599999999999999645 0 0 -1 -2.5 0 0 1 I I #
ATTRIB_CUSTOM-attrib $-1 -1 $-1 $-1 $25 @22 generic_tag_attrib_def 3 3 -1 @23 generic_tag_attrib_def  1 2 @2 20 0 2 456 477 0 #
face $47 666 $-1 $48 $49 $5 $-1 $50 reversed single #
loop $-1 -1 $-1 $-1 $51 $25 #
plane-surface $-1 -1 $-1 4.799999999999998934 -2.700000000000153833 -1.100000000000000089 0 1 -0 -1 0 0 forward_v I I I I #
coedge $-1 -1 $-1 $52 $53 $54 $55 reversed $26 0 $-1 #
coedge $-1 -1 $-1 $56 $28 $57 $58 reversed $19 0 $-1 #
coedge $-1 -1 $-1 $28 $56 $52 $59 forward $19 0 $-1 #
coedge $-1 -1 $-1 $54 $60 $28 $42 forward $61 0 $-1 #
edge $-1 687 $-1 $62 -3.141592653589793116 $63 0 $41 $64 forward @7 unknown #
loop $-1 -1 $-1 $65 $30 $66 #
vertex $-1 800 $-1 $31 0 $67 #
ellipse-curve $-1 -1 $-1 0 0 -1.100000000000000089 -0 -0 1 -2.5 0 0 1 I I #
point $-1 -1 $-1 2.5 -3.061616997868383141e-16 -6.599999999999999645 #
ATTRIB_CUSTOM-attrib $-1 -1 $-1 $-1 $35 @22 generic_tag_attrib_def 3 3 -1 @23 generic_tag_attrib_def  2 2 @2 17 0 2 456 477 0 2 @2 19 0 2 456 477 0 #
face $68 667 $-1 $69 $70 $5 $-1 $71 reversed single #
loop $-1 -1 $-1 $-1 $72 $35 #
cone-surface $-1 -1 $-1 4.799999999999998934 1.536548666081216652e-13 -1.100000000000000089 0 0 1 0 2.700000000000000178 0 1 I I 0 -1 2.700000000000000178 forward I I I I #
coedge $-1 -1 $-1 $73 $74 $75 $76 reversed $36 0 $-1 #
coedge $-1 -1 $-1 $77 $38 $40 $59 reversed $26 0 $-1 #
coedge $-1 -1 $-1 $38 $77 $73 $78 forward $26 0 $-1 #
coedge $-1 -1 $-1 $75 $41 $38 $55 forward $61 0 $-1 #
edge $-1 691 $-1 $63 -3.449999999999923794 $79 -1.350000000000076694 $54 $80 forward @7 unknown #
coedge $81 -1 $-1 $40 $39 $82 $83 reversed $19 0 $-1 #
coedge $-1 -1 $-1 $84 $85 $39 $58 forward $86 0 $-1 #
edge $-1 688 $-1 $87 0 $62 1 $39 $88 forward @7 tangent #
edge $-1 690 $-1 $89 0 $63 1 $52 $90 forward @7 tangent #
coedge $-1 -1 $-1 $41 $91 $84 $92 forward $61 0 $-1 #
loop $-1 -1 $-1 $93 $94 $95 #
vertex $-1 802 $-1 $42 0 $96 #
vertex $-1 801 $-1 $42 1 $97 #
ellipse-curve $-1 -1 $-1 1.525890525044815503e-13 -4.799999999999999822 -0.1000000000000000888 -0 -0 1 2.700000000000000622 -8.881784197001252323e-16 0 1 I I #
loop $-1 -1 $-1 $-1 $98 $66 #
face $99 682 $-1 $100 $43 $5 $-1 $101 forward single #
point $-1 -1 $-1 2.5 -3.061616997868383141e-16 -1.100000000000000089 #
ATTRIB_CUSTOM-attrib $-1 -1 $-1 $-1 $48 @22 generic_tag_attrib_def 3 3 -1 @23 generic_tag_attrib_def  1 2 @2 16 0 2 456 477 0 #
face $102 668 $-1 $103 $104 $5 $-1 $105 reversed single #
loop $-1 -1 $-1 $-1 $106 $48 #
plane-surface $-1 -1 $-1 2.700000000000152944 2.700000000000153833 -1.100000000000000089 0 -1 0 1 -0 -0 forward_v I I I I #
coedge $-1 -1 $-1 $107 $108 $109 $110 reversed $49 0 $-1 #
coedge $-1 -1 $-1 $111 $51 $53 $78 reversed $36 0 $-1 #
coedge $-1 -1 $-1 $51 $111 $107 $112 forward $36 0 $-1 #
coedge $-1 -1 $-1 $109 $54 $51 $76 forward $61 0 $-1 #
edge $-1 694 $-1 $79 0.3000000000001543654 $113 2.399999999999999467 $75 $114 forward @7 unknown #
coedge $115 -1 $-1 $53 $52 $116 $117 reversed $26 0 $-1 #
edge $-1 693 $-1 $118 0 $79 1 $73 $119 forward @7 unknown #
vertex $-1 805 $-1 $55 1 $120 #
straight-curve $-1 -1 $-1 2.700000000000153833 -1.350000000000077138 -0.0999999999999999778 2.114710523095690471e-16 1 0 I I #
ATTRIB_CUSTOM-attrib $-1 -1 $121 $-1 $56 @17 sketch_attrib_def 1 1 3 @13 175 0 1 0 2 2 #
coedge $-1 -1 $-1 $122 $116 $56 $83 forward $65 0 $-1 #
edge $-1 689 $-1 $89 0 $87 3.141592653589793116 $82 $123 forward @7 unknown #
coedge $-1 -1 $-1 $124 $57 $60 $92 reversed $86 0 $-1 #
coedge $125 -1 $-1 $57 $124 $122 $126 reversed $86 0 $-1 #
loop $-1 -1 $-1 $-1 $84 $127 #
vertex $-1 803 $-1 $83 1 $128 #
straight-curve $-1 -1 $-1 -2.700000000000155165 -4.799999999999998934 -1.100000000000000089 0 0 1 I I #
vertex $-1 804 $-1 $83 0 $129 #
straight-curve $-1 -1 $-1 2.700000000000153388 -4.800000000000000711 -1.100000000000000089 0 0 1 I I #
coedge $-1 -1 $-1 $60 $94 $130 $131 forward $61 0 $-1 #
edge $-1 721 $-1 $132 0.3000000000001552536 $62 2.399999999999999911 $60 $133 forward @7 unknown #
loop $-1 -1 $-1 $134 $135 $95 #
coedge $-1 -1 $-1 $91 $136 $137 $138 forward $61 0 $-1 #
face $139 681 $-1 $66 $61 $5 $-1 $140 reversed single #
point $-1 -1 $-1 -2.700000000000155165 -4.799999999999998934 -0.1000000000000000888 #
point $-1 -1 $-1 2.700000000000153388 -4.800000000000000711 -0.1000000000000000888 #
coedge $-1 -1 $-1 $141 $142 $143 $144 forward $65 0 $-1 #
ATTRIB_CUSTOM-attrib $-1 -1 $-1 $-1 $66 @22 generic_tag_attrib_def 3 3 -1 @23 generic_tag_attrib_def  1 1 @1 2 0 2 452 477 0 #
face $145 683 $-1 $146 $147 $5 $-1 $148 forward single #
plane-surface $-1 -1 $-1 0 0 -1.100000000000000089 0 0 -1 1 0 0 forward_v I I I I #
ATTRIB_CUSTOM-attrib $-1 -1 $-1 $-1 $69 @22 generic_tag_attrib_def 3 3 -1 @23 generic_tag_attrib_def  1 2 @2 15 0 2 456 477 0 #
face $149 669 $-1 $150 $151 $5 $-1 $152 reversed single #
loop $-1 -1 $-1 $-1 $153 $69 #
plane-surface $-1 -1 $-1 2.700000000000152944 4.799999999999999822 -1.100000000000000089 -1 0 0 0 -1 0 forward_v I I I I #
coedge $-1 -1 $-1 $154 $155 $156 $157 reversed $70 0 $-1 #
coedge $-1 -1 $-1 $158 $72 $74 $112 reversed $49 0 $-1 #
coedge $-1 -1 $-1 $72 $158 $154 $159 forward $49 0 $-1 #
coedge $-1 -1 $-1 $156 $75 $72 $110 forward $61 0 $-1 #
edge $-1 697 $-1 $113 -3.141592653589793116 $160 0 $109 $161 forward @7 unknown #
coedge $162 -1 $-1 $74 $73 $163 $164 reversed $36 0 $-1 #
edge $-1 696 $-1 $165 0 $113 1 $107 $166 forward @7 tangent #
vertex $-1 807 $-1 $110 0 $167 #
straight-curve $-1 -1 $-1 2.399999999999999467 -2.700000000000153833 -0.0999999999999999778 1 0 0 I I #
ATTRIB_CUSTOM-attrib $-1 -1 $-1 $-1 $77 @17 sketch_attrib_def 1 1 3 @13 179 0 0 0 1 1 #
coedge $-1 -1 $-1 $82 $163 $77 $117 forward $65 0 $-1 #
edge $-1 692 $-1 $118 1.350000000000076694 $89 3.449999999999923794 $116 $168 forward @7 unknown #
vertex $-1 806 $-1 $117 0 $169 #
straight-curve $-1 -1 $-1 2.700000000000153833 -2.700000000000153833 -1.100000000000000089 0 0 1 I I #
point $-1 -1 $-1 2.700000000000153833 -2.700000000000153833 -0.1000000000000000888 #
ATTRIB_CUSTOM-attrib $-1 -1 $-1 $81 $56 @17 sketch_attrib_def 1 1 3 @13 175 0 1 0 1 2 #
coedge $-1 -1 $-1 $142 $82 $85 $126 forward $65 0 $-1 #
ellipse-curve $-1 -1 $-1 1.525890525044815503e-13 -4.799999999999999822 -1.100000000000000089 0 0 -1 2.700000000000000622 -8.881784197001252323e-16 0 1 I I #
coedge $-1 -1 $-1 $85 $84 $170 $171 reversed $86 0 $-1 #
ATTRIB_CUSTOM-attrib $-1 -1 $-1 $-1 $85 @17 sketch_attrib_def 1 1 3 @13 177 0 1 0 1 1 #
edge $-1 722 $-1 $87 -2.399999999999999911 $172 -0.3000000000001552536 $122 $173 forward @7 unknown #
face $174 674 $-1 $175 $86 $5 $-1 $176 reversed single #
point $-1 -1 $-1 -2.700000000000155165 -4.799999999999998934 -1.100000000000000089 #
point $-1 -1 $-1 2.700000000000153388 -4.800000000000000711 -1.100000000000000089 #
coedge $-1 -1 $-1 $177 $170 $91 $131 reversed $178 0 $-1 #
edge $-1 718 $-1 $179 -3.449999999999921574 $132 -1.35000000000007736 $91 $180 forward @7 unknown #
vertex $-1 823 $-1 $131 1 $181 #
straight-curve $-1 -1 $-1 -2.700000000000154721 -2.399999999999999023 -0.0999999999999999778 -2.11471052309569269e-16 -1 -0 I I #
loop $-1 -1 $-1 $182 $183 $95 #
coedge $-1 -1 $-1 $135 $135 $184 $185 forward $93 0 $-1 #
coedge $-1 -1 $-1 $94 $186 $187 $188 forward $61 0 $-1 #
coedge $-1 -1 $-1 $189 $190 $94 $138 reversed $191 0 $-1 #
edge $-1 715 $-1 $192 -3.141592653589793116 $179 0 $94 $193 forward @7 unknown #
ATTRIB_CUSTOM-attrib $-1 -1 $-1 $-1 $95 @22 generic_tag_attrib_def 3 3 -1 @23 generic_tag_attrib_def  1 1 @1 1 0 2 452 477 0 #
plane-surface $-1 -1 $-1 0 0 -0.1000000000000000056 0 0 -1 1 0 0 forward_v I I I I #
coedge $-1 -1 $-1 $194 $98 $195 $196 forward $65 0 $-1 #
coedge $-1 -1 $-1 $98 $122 $197 $198 forward $65 0 $-1 #
coedge $199 -1 $-1 $190 $189 $98 $144 reversed $191 0 $-1 #
edge $-1 716 $-1 $200 0 $201 3.141592653589793116 $98 $202 forward @7 unknown #
ATTRIB_CUSTOM-attrib $-1 -1 $-1 $-1 $100 @22 generic_tag_attrib_def 3 3 -1 @23 generic_tag_attrib_def  1 1 @1 5 0 2 450 477 0 #
face $203 684 $-1 $-1 $204 $5 $-1 $205 forward single #
loop $-1 -1 $-1 $206 $207 $100 #
cone-surface $-1 -1 $-1 -1.547206807117618054e-13 4.799999999999998934 -0.1000000000000000056 0 0 1 1.000000000000000222 0 0 1 I I 0 1 1.000000000000000222 forward I I I I #
ATTRIB_CUSTOM-attrib $-1 -1 $-1 $-1 $103 @22 generic_tag_attrib_def 3 3 -1 @23 generic_tag_attrib_def  2 2 @2 12 0 2 456 477 0 2 @2 14 0 2 456 477 0 #
face $208 670 $-1 $209 $210 $5 $-1 $211 reversed single #
loop $-1 -1 $-1 $-1 $212 $103 #
cone-surface $-1 -1 $-1 -1.547206807117618054e-13 4.799999999999998934 -1.100000000000000089 0 0 1 -2.700000000000000178 -8.881784197001252323e-16 0 1 I I 0 -1 2.700000000000000178 forward I I I I #
coedge $-1 -1 $-1 $213 $214 $215 $216 reversed $104 0 $-1 #
coedge $-1 -1 $-1 $217 $106 $108 $159 reversed $70 0 $-1 #
coedge $-1 -1 $-1 $106 $217 $213 $218 forward $70 0 $-1 #
coedge $-1 -1 $-1 $215 $109 $106 $157 forward $61 0 $-1 #
edge $-1 700 $-1 $160 -3.449999999999922462 $219 -1.350000000000076472 $156 $220 forward @7 unknown #
coedge $221 -1 $-1 $108 $107 $222 $223 reversed $49 0 $-1 #
edge $-1 699 $-1 $224 0 $160 1 $154 $225 forward @7 tangent #
vertex $-1 809 $-1 $110 1 $226 #
ellipse-curve $-1 -1 $-1 4.799999999999998934 1.536548666081216652e-13 -0.1000000000000000888 -0 -0 1 0 2.700000000000000178 0 1 I I #
ATTRIB_CUSTOM-attrib $-1 -1 $-1 $-1 $111 @17 sketch_attrib_def 1 1 3 @13 169 0 1 0 1 1 #
coedge $-1 -1 $-1 $116 $222 $111 $164 forward $65 0 $-1 #
edge $-1 695 $-1 $165 -2.399999999999999467 $118 -0.3000000000001543654 $163 $227 forward @7 unknown #
vertex $-1 808 $-1 $223 1 $228 #
straight-curve $-1 -1 $-1 4.799999999999998934 -2.699999999999846523 -1.100000000000000089 0 0 1 I I #
point $-1 -1 $-1 4.799999999999998934 -2.699999999999846523 -0.1000000000000000888 #
straight-curve $-1 -1 $-1 2.700000000000153833 -1.350000000000077138 -1.100000000000000089 -2.114710523095690471e-16 -1 -0 I I #
point $-1 -1 $-1 2.700000000000153833 -2.700000000000153833 -1.100000000000000089 #
coedge $-1 -1 $-1 $130 $197 $124 $171 forward $178 0 $-1 #
edge $-1 720 $-1 $172 0 $132 1 $124 $229 forward @7 unknown #
vertex $-1 824 $-1 $198 0 $230 #
straight-curve $-1 -1 $-1 -2.700000000000154721 -2.399999999999999023 -1.100000000000000089 2.11471052309569269e-16 1 0 I I #
ATTRIB_CUSTOM-attrib $-1 -1 $-1 $-1 $127 @22 generic_tag_attrib_def 3 3 -1 @23 generic_tag_attrib_def  1 1 @1 5 0 2 456 477 0 #
face $231 675 $-1 $232 $233 $5 $-1 $234 forward single #
plane-surface $-1 -1 $-1 -2.700000000000155165 -4.799999999999998934 -1.100000000000000089 1 -2.11471052309569269e-16 0 2.11471052309569269e-16 1 0 forward_v I I I I #
coedge $-1 -1 $-1 $197 $130 $190 $235 reversed $178 0 $-1 #
loop $-1 -1 $-1 $-1 $130 $236 #
vertex $-1 821 $-1 $138 1 $237 #
straight-curve $-1 -1 $-1 -1.35000000000007736 -2.700000000000154277 -0.0999999999999999778 1 -0 0 I I #
point $-1 -1 $-1 -2.700000000000154721 -2.700000000000154277 -0.1000000000000000888 #
loop $-1 -1 $-1 $238 $239 $95 #
coedge $-1 -1 $-1 $183 $183 $240 $241 forward $134 0 $-1 #
coedge $242 -1 $-1 $184 $184 $135 $185 reversed $243 0 $-1 #
edge $-1 724 $-1 $244 -3.141592653589793116 $244 3.141592653589793116 $135 $245 forward @7 unknown #
coedge $-1 -1 $-1 $136 $246 $247 $248 forward $61 0 $-1 #
coedge $-1 -1 $-1 $249 $250 $136 $188 reversed $251 0 $-1 #
edge $-1 712 $-1 $252 0.3000000000001548095 $192 2.399999999999999467 $136 $253 forward @7 unknown #
coedge $-1 -1 $-1 $143 $137 $250 $254 reversed $191 0 $-1 #
coedge $-1 -1 $-1 $137 $143 $177 $235 forward $191 0 $-1 #
loop $-1 -1 $-1 $-1 $137 $255 #
vertex $-1 819 $-1 $138 0 $256 #
ellipse-curve $-1 -1 $-1 -4.799999999999998934 -1.54242697071712399e-13 -0.1000000000000000888 -0 -0 1 0 -2.700000000000000178 0 1 I I #
coedge $-1 -1 $-1 $257 $141 $258 $259 forward $65 0 $-1 #
coedge $260 -1 $-1 $250 $249 $141 $196 reversed $251 0 $-1 #
edge $-1 713 $-1 $201 -2.399999999999999467 $261 -0.3000000000001548095 $141 $262 forward @7 unknown #
coedge $263 -1 $-1 $170 $177 $142 $198 reversed $178 0 $-1 #
edge $-1 719 $-1 $172 1.35000000000007736 $200 3.449999999999921574 $142 $264 forward @7 unknown #
ATTRIB_CUSTOM-attrib $-1 -1 $265 $-1 $143 @17 sketch_attrib_def 1 1 3 @13 183 0 1 0 2 2 #
vertex $-1 822 $-1 $144 0 $266 #
vertex $-1 820 $-1 $144 1 $267 #
ellipse-curve $-1 -1 $-1 -4.799999999999998934 -1.54242697071712399e-13 -1.100000000000000089 0 0 -1 0 -2.700000000000000178 0 1 I I #
ATTRIB_CUSTOM-attrib $-1 -1 $-1 $-1 $146 @22 generic_tag_attrib_def 3 3 -1 @23 generic_tag_attrib_def  1 1 @1 2 0 2 450 477 0 #
loop $-1 -1 $-1 $-1 $268 $146 #
plane-surface $-1 -1 $-1 0 -4.440892098500626162e-16 1 0 0 1 1 0 0 forward_v I I I I #
loop $-1 -1 $-1 $-1 $269 $100 #
coedge $-1 -1 $-1 $207 $207 $268 $270 forward $147 0 $-1 #
ATTRIB_CUSTOM-attrib $-1 -1 $-1 $-1 $150 @22 generic_tag_attrib_def 3 3 -1 @23 generic_tag_attrib_def  1 2 @2 11 0 2 456 477 0 #
face $271 671 $-1 $255 $251 $5 $-1 $272 reversed single #
loop $-1 -1 $-1 $-1 $247 $150 #
plane-surface $-1 -1 $-1 -2.700000000000154277 2.700000000000153388 -1.100000000000000089 1 2.11471052309569269e-16 -0 -2.11471052309569269e-16 1 0 forward_v I I I I #
coedge $-1 -1 $-1 $273 $274 $246 $275 reversed $151 0 $-1 #
coedge $-1 -1 $-1 $276 $153 $155 $218 reversed $104 0 $-1 #
coedge $-1 -1 $-1 $153 $276 $273 $277 forward $104 0 $-1 #
coedge $-1 -1 $-1 $246 $156 $153 $216 forward $61 0 $-1 #
edge $-1 703 $-1 $219 0.3000000000001539213 $278 2.399999999999999911 $215 $279 forward @7 unknown #
coedge $280 -1 $-1 $155 $154 $281 $282 reversed $70 0 $-1 #
edge $-1 702 $-1 $283 0 $219 1 $213 $284 forward @7 unknown #
vertex $-1 811 $-1 $157 1 $285 #
straight-curve $-1 -1 $-1 1.350000000000076472 2.700000000000153833 -0.0999999999999999778 -1 -0 -0 I I #
ATTRIB_CUSTOM-attrib $-1 -1 $286 $-1 $158 @17 sketch_attrib_def 1 1 3 @15 157 171 1 0 2 2 #
coedge $-1 -1 $-1 $163 $281 $158 $223 forward $65 0 $-1 #
edge $-1 698 $-1 $224 0 $165 3.141592653589793116 $222 $287 forward @7 unknown #
vertex $-1 810 $-1 $223 0 $288 #
straight-curve $-1 -1 $-1 4.799999999999998934 2.700000000000153833 -1.100000000000000089 0 0 1 I I #
point $-1 -1 $-1 4.799999999999998934 2.700000000000153833 -0.1000000000000000888 #
straight-curve $-1 -1 $-1 2.399999999999999467 -2.700000000000153833 -1.100000000000000089 -1 0 0 I I #
point $-1 -1 $-1 4.799999999999998934 -2.699999999999846523 -1.100000000000000089 #
straight-curve $-1 -1 $-1 -2.700000000000154721 -2.700000000000154277 -1.100000000000000089 0 0 1 I I #
point $-1 -1 $-1 -2.700000000000154721 -2.700000000000154277 -1.100000000000000089 #
ATTRIB_CUSTOM-attrib $-1 -1 $-1 $-1 $175 @22 generic_tag_attrib_def 3 3 -1 @23 generic_tag_attrib_def  1 1 @1 6 0 2 450 477 0 #
face $289 676 $-1 $290 $291 $5 $-1 $292 forward single #
loop $-1 -1 $-1 $243 $293 $175 #
cone-surface $-1 -1 $-1 1.525890525044815503e-13 -4.799999999999999822 -0.1000000000000000056 0 0 1 1.000000000000000222 0 0 1 I I 0 1 1.000000000000000222 forward I I I I #
edge $-1 717 $-1 $200 0 $179 1 $177 $294 forward @7 tangent #
face $295 673 $-1 $127 $178 $5 $-1 $296 reversed single #
point $-1 -1 $-1 -4.799999999999998934 -2.700000000000154277 -0.1000000000000000888 #
loop $-1 -1 $-1 $-1 $297 $95 #
coedge $-1 -1 $-1 $239 $239 $298 $299 forward $182 0 $-1 #
coedge $300 -1 $-1 $240 $240 $183 $241 reversed $301 0 $-1 #
edge $-1 726 $-1 $302 -3.141592653589793116 $302 3.141592653589793116 $183 $303 forward @7 unknown #
ATTRIB_CUSTOM-attrib $-1 -1 $-1 $-1 $184 @17 sketch_attrib_def 1 1 3 @13 146 0 0 0 1 1 #
loop $-1 -1 $-1 $-1 $184 $175 #
vertex $-1 826 $-1 $185 0 $304 #
ellipse-curve $-1 -1 $-1 1.525890525044815503e-13 -4.799999999999999822 -0.1000000000000000056 0 0 -1 1.000000000000000222 0 0 1 I I #
coedge $-1 -1 $-1 $186 $215 $212 $275 forward $61 0 $-1 #
coedge $-1 -1 $-1 $305 $306 $186 $248 reversed $210 0 $-1 #
edge $-1 709 $-1 $307 -3.449999999999921574 $252 -1.350000000000076916 $186 $308 forward @7 unknown #
coedge $-1 -1 $-1 $195 $187 $306 $309 reversed $251 0 $-1 #
coedge $-1 -1 $-1 $187 $195 $189 $254 forward $251 0 $-1 #
loop $-1 -1 $-1 $-1 $187 $209 #
vertex $-1 817 $-1 $248 1 $310 #
straight-curve $-1 -1 $-1 -2.399999999999999467 2.700000000000153388 -0.0999999999999999778 -1 -0 -0 I I #
edge $-1 714 $-1 $201 0 $192 1 $189 $311 forward @7 tangent #
face $312 672 $-1 $236 $191 $5 $-1 $313 reversed single #
point $-1 -1 $-1 -4.799999999999998934 2.700000000000153388 -0.1000000000000000888 #
coedge $-1 -1 $-1 $314 $194 $315 $316 forward $65 0 $-1 #
coedge $317 -1 $-1 $306 $305 $194 $259 reversed $210 0 $-1 #
edge $-1 710 $-1 $261 1.350000000000076916 $318 3.449999999999921574 $194 $319 forward @7 unknown #
ATTRIB_CUSTOM-attrib $-1 -1 $-1 $-1 $195 @17 sketch_attrib_def 1 1 3 @13 185 0 1 0 1 1 #
vertex $-1 818 $-1 $259 0 $320 #
straight-curve $-1 -1 $-1 -2.399999999999999467 2.700000000000153388 -1.100000000000000089 1 0 0 I I #
ATTRIB_CUSTOM-attrib $-1 -1 $-1 $-1 $197 @17 sketch_attrib_def 1 1 3 @13 187 0 0 0 1 1 #
straight-curve $-1 -1 $-1 -1.35000000000007736 -2.700000000000154277 -1.100000000000000089 -1 0 0 I I #
ATTRIB_CUSTOM-attrib $-1 -1 $-1 $199 $143 @17 sketch_attrib_def 1 1 3 @13 183 0 1 0 1 2 #
point $-1 -1 $-1 -4.799999999999998934 -2.700000000000154277 -1.100000000000000089 #
point $-1 -1 $-1 -4.799999999999998934 2.700000000000153388 -1.100000000000000089 #
coedge $-1 -1 $-1 $268 $268 $207 $270 reversed $204 0 $-1 #
coedge $321 -1 $-1 $269 $269 $297 $322 reversed $206 0 $-1 #
edge $-1 730 $-1 $323 -3.141592653589793116 $323 3.141592653589793116 $207 $324 forward @7 unknown #
ATTRIB_CUSTOM-attrib $-1 -1 $-1 $-1 $209 @22 generic_tag_attrib_def 3 3 -1 @23 generic_tag_attrib_def  1 2 @2 10 0 2 456 477 0 #
plane-surface $-1 -1 $-1 -4.799999999999998934 2.700000000000153388 -1.100000000000000089 0 -1 0 1 0 0 forward_v I I I I #
coedge $-1 -1 $-1 $315 $212 $214 $277 reversed $151 0 $-1 #
coedge $-1 -1 $-1 $212 $315 $305 $325 forward $151 0 $-1 #
edge $-1 706 $-1 $278 -3.141592653589793116 $307 0 $246 $326 forward @7 unknown #
coedge $327 -1 $-1 $214 $213 $314 $328 reversed $104 0 $-1 #
edge $-1 705 $-1 $329 0 $278 1 $273 $330 forward @7 tangent #
vertex $-1 813 $-1 $275 0 $331 #
straight-curve $-1 -1 $-1 2.700000000000152944 2.399999999999999911 -0.0999999999999999778 0 1 0 I I #
ATTRIB_CUSTOM-attrib $-1 -1 $-1 $-1 $217 @17 sketch_attrib_def 1 1 3 @13 163 0 0 0 1 1 #
coedge $-1 -1 $-1 $222 $314 $217 $282 forward $65 0 $-1 #
edge $-1 701 $-1 $283 1.350000000000076472 $224 3.449999999999922462 $281 $332 forward @7 unknown #
vertex $-1 812 $-1 $282 0 $333 #
straight-curve $-1 -1 $-1 2.700000000000152944 2.700000000000153833 -1.100000000000000089 0 0 1 I I #
point $-1 -1 $-1 2.700000000000152944 2.700000000000153833 -0.1000000000000000888 #
ATTRIB_CUSTOM-attrib $-1 -1 $-1 $221 $158 @17 sketch_attrib_def 1 1 3 @15 157 171 1 0 1 2 #
ellipse-curve $-1 -1 $-1 4.799999999999998934 1.536548666081216652e-13 -1.100000000000000089 0 0 -1 0 2.700000000000000178 0 1 I I #
point $-1 -1 $-1 4.799999999999998934 2.700000000000153833 -1.100000000000000089 #
ATTRIB_CUSTOM-attrib $-1 -1 $-1 $-1 $232 @22 generic_tag_attrib_def 3 3 -1 @23 generic_tag_attrib_def  1 1 @1 2 0 2 450 477 0 #
face $334 677 $-1 $335 $336 $5 $-1 $337 forward single #
loop $-1 -1 $-1 $-1 $338 $232 #
plane-surface $-1 -1 $-1 0 -4.440892098500626162e-16 1 0 0 1 1 0 0 forward_v I I I I #
coedge $-1 -1 $-1 $293 $293 $338 $339 forward $233 0 $-1 #
straight-curve $-1 -1 $-1 -4.799999999999998934 -2.700000000000154277 -1.100000000000000089 0 0 1 I I #
ATTRIB_CUSTOM-attrib $-1 -1 $-1 $-1 $236 @22 generic_tag_attrib_def 3 3 -1 @23 generic_tag_attrib_def  1 1 @1 6 0 2 456 477 0 #
plane-surface $-1 -1 $-1 -2.700000000000154721 -2.700000000000154277 -1.100000000000000089 0 1 0 -1 -0 -0 forward_v I I I I #
coedge $-1 -1 $-1 $297 $297 $269 $322 forward $238 0 $-1 #
coedge $340 -1 $-1 $298 $298 $239 $299 reversed $341 0 $-1 #
edge $-1 728 $-1 $342 -3.141592653589793116 $342 3.141592653589793116 $239 $343 forward @7 unknown #
ATTRIB_CUSTOM-attrib $-1 -1 $-1 $-1 $240 @17 sketch_attrib_def 1 1 3 @13 144 0 0 0 1 1 #
loop $-1 -1 $-1 $-1 $240 $290 #
vertex $-1 828 $-1 $241 0 $344 #
ellipse-curve $-1 -1 $-1 4.799999999999998934 1.536548666081216652e-13 -0.1000000000000000056 0 0 -1 1 0 0 1 I I #
point $-1 -1 $-1 -0.9999999999998476774 -4.799999999999999822 -0.1000000000000000056 #
coedge $-1 -1 $-1 $258 $247 $274 $325 reversed $210 0 $-1 #
coedge $-1 -1 $-1 $247 $258 $249 $309 forward $210 0 $-1 #
vertex $-1 815 $-1 $275 1 $345 #
straight-curve $-1 -1 $-1 -2.700000000000153833 1.350000000000076472 -0.0999999999999999778 2.11471052309569269e-16 -1 0 I I #
edge $-1 711 $-1 $261 0 $252 1 $249 $346 forward @7 unknown #
point $-1 -1 $-1 -2.700000000000154277 2.700000000000153388 -0.1000000000000000888 #
straight-curve $-1 -1 $-1 -4.799999999999998934 2.700000000000153388 -1.100000000000000089 0 0 1 I I #
ATTRIB_CUSTOM-attrib $-1 -1 $-1 $-1 $255 @22 generic_tag_attrib_def 3 3 -1 @23 generic_tag_attrib_def  2 1 @1 7 0 2 456 477 0 1 @1 9 0 2 456 477 0 #
cone-surface $-1 -1 $-1 -4.799999999999998934 -1.54242697071712399e-13 -1.100000000000000089 0 0 1 0 -2.700000000000000178 0 1 I I 0 -1 2.700000000000000178 forward I I I I #
coedge $-1 -1 $-1 $281 $257 $276 $328 forward $65 0 $-1 #
coedge $347 -1 $-1 $274 $273 $257 $316 reversed $151 0 $-1 #
edge $-1 707 $-1 $318 0 $329 3.141592653589793116 $257 $348 forward @7 unknown #
ATTRIB_CUSTOM-attrib $-1 -1 $-1 $-1 $258 @17 sketch_attrib_def 1 1 3 @13 195 0 0 0 1 1 #
vertex $-1 816 $-1 $316 0 $349 #
straight-curve $-1 -1 $-1 -2.700000000000153833 1.350000000000076472 -1.100000000000000089 -2.11471052309569269e-16 1 0 I I #
point $-1 -1 $-1 -2.700000000000154277 2.700000000000153388 -1.100000000000000089 #
ATTRIB_CUSTOM-attrib $-1 -1 $-1 $-1 $269 @17 sketch_attrib_def 1 1 3 @13 150 0 0 0 1 1 #
edge $-1 729 $-1 $350 -3.141592653589793116 $350 3.141592653589793116 $269 $351 forward @7 unknown #
vertex $-1 832 $-1 $270 0 $352 #
ellipse-curve $-1 -1 $-1 -1.547206807117618054e-13 4.799999999999998934 1 -0 -0 -1 1.000000000000000222 0 0 1 I I #
edge $-1 708 $-1 $318 0 $307 1 $305 $353 forward @7 tangent #
ellipse-curve $-1 -1 $-1 -1.547206807117618054e-13 4.799999999999998934 -0.1000000000000000888 -0 -0 1 -2.700000000000000178 -8.881784197001252323e-16 0 1 I I #
ATTRIB_CUSTOM-attrib $-1 -1 $-1 $-1 $276 @17 sketch_attrib_def 1 1 3 @13 193 0 1 0 1 1 #
edge $-1 704 $-1 $329 -2.399999999999999911 $283 -0.3000000000001539213 $314 $354 forward @7 unknown #
vertex $-1 814 $-1 $316 1 $355 #
straight-curve $-1 -1 $-1 2.700000000000152944 4.799999999999999822 -1.100000000000000089 0 0 1 I I #
point $-1 -1 $-1 2.700000000000152944 4.799999999999999822 -0.1000000000000000888 #
straight-curve $-1 -1 $-1 1.350000000000076472 2.700000000000153833 -1.100000000000000089 1 0 0 I I #
point $-1 -1 $-1 2.700000000000152944 2.700000000000153833 -1.100000000000000089 #
ATTRIB_CUSTOM-attrib $-1 -1 $-1 $-1 $290 @22 generic_tag_attrib_def 3 3 -1 @23 generic_tag_attrib_def  1 1 @1 4 0 2 450 477 0 #
face $356 678 $-1 $357 $358 $5 $-1 $359 forward single #
loop $-1 -1 $-1 $301 $360 $290 #
cone-surface $-1 -1 $-1 4.799999999999998934 1.536548666081216652e-13 -0.1000000000000000056 0 0 1 1 0 0 1 I I 0 1 1 forward I I I I #
coedge $-1 -1 $-1 $338 $338 $293 $339 reversed $291 0 $-1 #
edge $-1 723 $-1 $361 -3.141592653589793116 $361 3.141592653589793116 $293 $362 forward @7 unknown #
ATTRIB_CUSTOM-attrib $-1 -1 $-1 $-1 $298 @17 sketch_attrib_def 1 1 3 @13 148 0 0 0 1 1 #
loop $-1 -1 $-1 $-1 $298 $357 #
vertex $-1 830 $-1 $299 0 $363 #
ellipse-curve $-1 -1 $-1 -4.799999999999998934 -1.54242697071712399e-13 -0.1000000000000000056 0 0 -1 1 0 0 1 I I #
point $-1 -1 $-1 3.799999999999998934 1.537773312880364003e-13 -0.1000000000000000056 #
point $-1 -1 $-1 -2.700000000000154721 4.799999999999998046 -0.1000000000000000888 #
straight-curve $-1 -1 $-1 -2.700000000000154277 2.700000000000153388 -1.100000000000000089 0 0 1 I I #
ATTRIB_CUSTOM-attrib $-1 -1 $364 $-1 $315 @17 sketch_attrib_def 1 1 3 @13 191 0 1 0 2 2 #
ellipse-curve $-1 -1 $-1 -1.547206807117618054e-13 4.799999999999998934 -1.100000000000000089 0 0 -1 -2.700000000000000178 -8.881784197001252323e-16 0 1 I I #
point $-1 -1 $-1 -2.700000000000154721 4.799999999999998046 -1.100000000000000089 #
vertex $-1 831 $-1 $322 0 $365 #
ellipse-curve $-1 -1 $-1 -1.547206807117618054e-13 4.799999999999998934 -0.1000000000000000056 0 0 -1 1.000000000000000222 0 0 1 I I #
point $-1 -1 $-1 -1.000000000000154987 4.799999999999998934 1 #
straight-curve $-1 -1 $-1 -2.700000000000154721 4.799999999999998046 -1.100000000000000089 0 0 1 I I #
straight-curve $-1 -1 $-1 2.700000000000152944 2.399999999999999911 -1.100000000000000089 -0 -1 -0 I I #
point $-1 -1 $-1 2.700000000000152944 4.799999999999999822 -1.100000000000000089 #
ATTRIB_CUSTOM-attrib $-1 -1 $-1 $-1 $335 @22 generic_tag_attrib_def 3 3 -1 @23 generic_tag_attrib_def  1 1 @1 2 0 2 450 477 0 #
face $366 679 $-1 $367 $368 $5 $-1 $369 forward single #
loop $-1 -1 $-1 $-1 $370 $335 #
plane-surface $-1 -1 $-1 0 -4.440892098500626162e-16 1 0 0 1 1 0 0 forward_v I I I I #
coedge $-1 -1 $-1 $360 $360 $370 $371 forward $336 0 $-1 #
vertex $-1 825 $-1 $339 0 $372 #
ellipse-curve $-1 -1 $-1 1.525890525044815503e-13 -4.799999999999999822 1 -0 -0 -1 1.000000000000000222 0 0 1 I I #
point $-1 -1 $-1 -5.799999999999998934 -1.541202323917976638e-13 -0.1000000000000000056 #
ATTRIB_CUSTOM-attrib $-1 -1 $-1 $347 $315 @17 sketch_attrib_def 1 1 3 @13 191 0 1 0 1 2 #
point $-1 -1 $-1 -1.000000000000154987 4.799999999999998934 -0.1000000000000000056 #
ATTRIB_CUSTOM-attrib $-1 -1 $-1 $-1 $357 @22 generic_tag_attrib_def 3 3 -1 @23 generic_tag_attrib_def  1 1 @1 3 0 2 450 477 0 #
face $373 680 $-1 $95 $374 $5 $-1 $375 forward single #
loop $-1 -1 $-1 $341 $376 $357 #
cone-surface $-1 -1 $-1 -4.799999999999998934 -1.54242697071712399e-13 -0.1000000000000000056 0 0 1 1 0 0 1 I I 0 1 1 forward I I I I #
coedge $-1 -1 $-1 $370 $370 $360 $371 reversed $358 0 $-1 #
edge $-1 725 $-1 $377 -3.141592653589793116 $377 3.141592653589793116 $360 $378 forward @7 unknown #
point $-1 -1 $-1 -0.9999999999998476774 -4.799999999999999822 1 #
ATTRIB_CUSTOM-attrib $-1 -1 $-1 $-1 $367 @22 generic_tag_attrib_def 3 3 -1 @23 generic_tag_attrib_def  1 1 @1 2 0 2 450 477 0 #
loop $-1 -1 $-1 $-1 $379 $367 #
plane-surface $-1 -1 $-1 0 -4.440892098500626162e-16 1 0 0 1 1 0 0 forward_v I I I I #
coedge $-1 -1 $-1 $376 $376 $379 $380 forward $368 0 $-1 #
vertex $-1 827 $-1 $371 0 $381 #
ellipse-curve $-1 -1 $-1 4.799999999999998934 1.536548666081216652e-13 1 -0 -0 -1 1 0 0 1 I I #
coedge $-1 -1 $-1 $379 $379 $376 $380 reversed $374 0 $-1 #
edge $-1 727 $-1 $382 -3.141592653589793116 $382 3.141592653589793116 $376 $383 forward @7 unknown #
point $-1 -1 $-1 3.799999999999998934 1.537773312880364003e-13 1 #
vertex $-1 829 $-1 $380 0 $384 #
ellipse-curve $-1 -1 $-1 -4.799999999999998934 -1.54242697071712399e-13 1 -0 -0 -1 1 0 0 1 I I #
point $-1 -1 $-1 -5.799999999999998934 -1.541202323917976638e-13 1 #
End-of-ASM-data 