# WaveFront *.obj file
# Vertices: 72
# Triangles : 144

v 1.6500000000000001e+00 1.3259999999999999e+02 -2.0206672185931330e-16
v 1.4289419162443240e+00 1.3259999999999999e+02 -8.2499999999999996e-01
v 8.2500000000000040e-01 1.3259999999999999e+02 -1.4289419162443238e+00
v -1.0103336092965665e-16 1.3259999999999999e+02 -1.6500000000000001e+00
v -8.2499999999999984e-01 1.3259999999999999e+02 -1.4289419162443240e+00
v -1.4289419162443235e+00 1.3259999999999999e+02 -8.2500000000000040e-01
v -1.6500000000000001e+00 1.3259999999999999e+02 0.0000000000000000e+00
v -1.4289419162443240e+00 1.3259999999999999e+02 8.2499999999999984e-01
v -8.2500000000000062e-01 1.3259999999999999e+02 1.4289419162443235e+00
v -1.0103336092965665e-16 1.3259999999999999e+02 1.6500000000000001e+00
v 8.2499999999999907e-01 1.3259999999999999e+02 1.4289419162443244e+00
v 1.4289419162443235e+00 1.3259999999999999e+02 8.2500000000000062e-01
v 1.6500000000000001e+00 1.3359999999999999e+02 -2.0206672185931330e-16
v 1.4289419162443235e+00 1.3359999999999999e+02 8.2500000000000062e-01
v 8.2499999999999907e-01 1.3359999999999999e+02 1.4289419162443244e+00
v -1.0103336092965665e-16 1.3359999999999999e+02 1.6500000000000001e+00
v -8.2500000000000062e-01 1.3359999999999999e+02 1.4289419162443235e+00
v -1.4289419162443240e+00 1.3359999999999999e+02 8.2499999999999984e-01
v -1.6500000000000001e+00 1.3359999999999999e+02 0.0000000000000000e+00
v -1.4289419162443235e+00 1.3359999999999999e+02 -8.2500000000000040e-01
v -8.2499999999999984e-01 1.3359999999999999e+02 -1.4289419162443240e+00
v -1.0103336092965665e-16 1.3359999999999999e+02 -1.6500000000000001e+00
v 8.2500000000000040e-01 1.3359999999999999e+02 -1.4289419162443238e+00
v 1.4289419162443240e+00 1.3359999999999999e+02 -8.2499999999999996e-01
v 1.7500000000000000e+00 1.3259999999999999e+02 -2.1431318985078681e-16
v 1.5155444566227672e+00 1.3259999999999999e+02 -8.7500000000000078e-01
v 8.7499999999999889e-01 1.3259999999999999e+02 -1.5155444566227683e+00
v -3.2146978477618021e-16 1.3259999999999999e+02 -1.7500000000000000e+00
v -8.7500000000000078e-01 1.3259999999999999e+02 -1.5155444566227674e+00
v -1.5155444566227678e+00 1.3259999999999999e+02 -8.7499999999999956e-01
v -1.7500000000000000e+00 1.3259999999999999e+02 2.1431318985078681e-16
v -1.5155444566227674e+00 1.3259999999999999e+02 8.7500000000000056e-01
v -8.7499999999999956e-01 1.3259999999999999e+02 1.5155444566227678e+00
v 4.9573465354419824e-16 1.3259999999999999e+02 1.7500000000000000e+00
v 8.7500000000000056e-01 1.3259999999999999e+02 1.5155444566227674e+00
v 1.5155444566227678e+00 1.3259999999999999e+02 8.7499999999999967e-01
v -1.3500000000000001e+00 1.3359999999999999e+02 1.6532731788489269e-16
v -1.1691342951089920e+00 1.3359999999999999e+02 6.7500000000000049e-01
v -6.7499999999999927e-01 1.3359999999999999e+02 1.1691342951089927e+00
v 8.2663658942446343e-17 1.3359999999999999e+02 1.3500000000000001e+00
v 6.7500000000000049e-01 1.3359999999999999e+02 1.1691342951089920e+00
v 1.1691342951089922e+00 1.3359999999999999e+02 6.7499999999999982e-01
v 1.3500000000000001e+00 1.3359999999999999e+02 0.0000000000000000e+00
v 1.1691342951089920e+00 1.3359999999999999e+02 -6.7500000000000038e-01
v 6.7499999999999993e-01 1.3359999999999999e+02 -1.1691342951089922e+00
v 8.2663658942446343e-17 1.3359999999999999e+02 -1.3500000000000001e+00
v -6.7500000000000038e-01 1.3359999999999999e+02 -1.1691342951089922e+00
v -1.1691342951089922e+00 1.3359999999999999e+02 -6.7499999999999993e-01
v -1.3500000000000001e+00 0.0000000000000000e+00 1.6532731788489269e-16
v -1.1691342951089922e+00 0.0000000000000000e+00 -6.7499999999999993e-01
v -6.7500000000000038e-01 0.0000000000000000e+00 -1.1691342951089922e+00
v 8.2663658942446343e-17 0.0000000000000000e+00 -1.3500000000000001e+00
v 6.7499999999999993e-01 0.0000000000000000e+00 -1.1691342951089922e+00
v 1.1691342951089920e+00 0.0000000000000000e+00 -6.7500000000000038e-01
v 1.3500000000000001e+00 0.0000000000000000e+00 0.0000000000000000e+00
v 1.1691342951089922e+00 0.0000000000000000e+00 6.7499999999999982e-01
v 6.7500000000000049e-01 0.0000000000000000e+00 1.1691342951089920e+00
v 8.2663658942446343e-17 0.0000000000000000e+00 1.3500000000000001e+00
v -6.7499999999999927e-01 0.0000000000000000e+00 1.1691342951089927e+00
v -1.1691342951089920e+00 0.0000000000000000e+00 6.7500000000000049e-01
v -1.7500000000000000e+00 0.0000000000000000e+00 2.1431318985078681e-16
v -1.5155444566227678e+00 0.0000000000000000e+00 8.7499999999999989e-01
v -8.7500000000000044e-01 0.0000000000000000e+00 1.5155444566227676e+00
v 1.0715659492539340e-16 0.0000000000000000e+00 1.7500000000000000e+00
v 8.7499999999999978e-01 0.0000000000000000e+00 1.5155444566227678e+00
v 1.5155444566227674e+00 0.0000000000000000e+00 8.7500000000000044e-01
v 1.7500000000000000e+00 0.0000000000000000e+00 0.0000000000000000e+00
v 1.5155444566227678e+00 0.0000000000000000e+00 -8.7499999999999967e-01
v 8.7500000000000056e-01 0.0000000000000000e+00 -1.5155444566227674e+00
v 1.0715659492539340e-16 0.0000000000000000e+00 -1.7500000000000000e+00
v -8.7499999999999889e-01 0.0000000000000000e+00 -1.5155444566227683e+00
v -1.5155444566227674e+00 0.0000000000000000e+00 -8.7500000000000056e-01

vn 8.6602540378443871e-01 -0.0000000000000000e+00 -4.9999999999999994e-01
vn 1.0000000000000000e+00 -0.0000000000000000e+00 -1.2246467991473532e-16
vn 1.0000000000000000e+00 0.0000000000000000e+00 1.2246467991473532e-16
vn 8.6602540378443849e-01 0.0000000000000000e+00 5.0000000000000044e-01
vn 4.9999999999999933e-01 0.0000000000000000e+00 8.6602540378443904e-01
vn -6.1232339957367660e-17 -0.0000000000000000e+00 1.0000000000000000e+00
vn -5.0000000000000044e-01 -0.0000000000000000e+00 8.6602540378443849e-01
vn -8.6602540378443882e-01 -0.0000000000000000e+00 4.9999999999999994e-01
vn -1.0000000000000000e+00 -0.0000000000000000e+00 -0.0000000000000000e+00
vn -8.6602540378443849e-01 -0.0000000000000000e+00 -5.0000000000000022e-01
vn -4.9999999999999994e-01 -0.0000000000000000e+00 -8.6602540378443882e-01
vn -6.1232339957367660e-17 -0.0000000000000000e+00 -1.0000000000000000e+00
vn 5.0000000000000011e-01 -0.0000000000000000e+00 -8.6602540378443849e-01
vn 0.0000000000000000e+00 1.0000000000000000e+00 0.0000000000000000e+00
vn 8.6602540378443837e-01 0.0000000000000000e+00 -5.0000000000000022e-01
vn 1.0000000000000000e+00 0.0000000000000000e+00 -1.2246467991473530e-16
vn 1.0000000000000000e+00 -0.0000000000000000e+00 1.2246467991473530e-16
vn 8.6602540378443860e-01 -0.0000000000000000e+00 4.9999999999999994e-01
vn 5.0000000000000022e-01 -0.0000000000000000e+00 8.6602540378443849e-01
vn -6.1232339957367648e-17 0.0000000000000000e+00 1.0000000000000000e+00
vn -4.9999999999999994e-01 0.0000000000000000e+00 8.6602540378443860e-01
vn -8.6602540378443849e-01 0.0000000000000000e+00 5.0000000000000022e-01
vn -8.6602540378443871e-01 0.0000000000000000e+00 -4.9999999999999989e-01
vn -5.0000000000000022e-01 0.0000000000000000e+00 -8.6602540378443837e-01
vn -6.1232339957367648e-17 0.0000000000000000e+00 -1.0000000000000000e+00
vn 4.9999999999999944e-01 0.0000000000000000e+00 -8.6602540378443904e-01
vn 8.6602540378443882e-01 -0.0000000000000000e+00 4.9999999999999983e-01
vn 8.6602540378443849e-01 -0.0000000000000000e+00 5.0000000000000022e-01
vn 1.0000000000000000e+00 -0.0000000000000000e+00 -0.0000000000000000e+00
vn 8.6602540378443837e-01 -0.0000000000000000e+00 -5.0000000000000044e-01
vn 8.6602540378443882e-01 -0.0000000000000000e+00 -4.9999999999999983e-01
vn 4.9999999999999933e-01 -0.0000000000000000e+00 -8.6602540378443904e-01
vn 5.0000000000000022e-01 -0.0000000000000000e+00 -8.6602540378443849e-01
vn -1.6081226496766364e-16 0.0000000000000000e+00 -1.0000000000000000e+00
vn 6.1232339957367660e-17 -0.0000000000000000e+00 -1.0000000000000000e+00
vn -5.0000000000000056e-01 0.0000000000000000e+00 -8.6602540378443826e-01
vn -4.9999999999999933e-01 0.0000000000000000e+00 -8.6602540378443904e-01
vn -8.6602540378443882e-01 0.0000000000000000e+00 -4.9999999999999956e-01
vn -1.0000000000000000e+00 0.0000000000000000e+00 -1.2246467991473532e-16
vn -1.0000000000000000e+00 -0.0000000000000000e+00 1.2246467991473532e-16
vn -8.6602540378443871e-01 -0.0000000000000000e+00 4.9999999999999994e-01
vn -4.9999999999999978e-01 -0.0000000000000000e+00 8.6602540378443882e-01
vn -5.0000000000000022e-01 -0.0000000000000000e+00 8.6602540378443849e-01
vn 2.8327694488239903e-16 -0.0000000000000000e+00 1.0000000000000000e+00
vn 6.1232339957367660e-17 -0.0000000000000000e+00 1.0000000000000000e+00
vn 4.9999999999999983e-01 -0.0000000000000000e+00 8.6602540378443871e-01
vn -0.0000000000000000e+00 -1.0000000000000000e+00 -0.0000000000000000e+00

g face 0
f 2//1 24//1 1//2
f 1//2 24//1 13//2
f 1//3 13//3 12//4
f 12//4 13//3 14//4
f 12//4 14//4 11//5
f 11//5 14//4 15//5
f 11//5 15//5 10//6
f 10//6 15//5 16//6
f 10//6 16//6 9//7
f 9//7 16//6 17//7
f 9//7 17//7 8//8
f 8//8 17//7 18//8
f 8//8 18//8 7//9
f 7//9 18//8 19//9
f 7//9 19//9 6//10
f 6//10 19//9 20//10
f 6//10 20//10 5//11
f 5//11 20//10 21//11
f 5//11 21//11 4//12
f 4//12 21//11 22//12
f 4//12 22//12 3//13
f 3//13 22//12 23//13
f 3//13 23//13 2//1
f 2//1 23//13 24//1

g face 1
f 2//14 1//14 25//14
f 25//14 1//14 12//14
f 25//14 12//14 36//14
f 36//14 12//14 11//14
f 36//14 11//14 35//14
f 35//14 11//14 10//14
f 35//14 10//14 34//14
f 34//14 10//14 33//14
f 33//14 10//14 9//14
f 33//14 9//14 32//14
f 32//14 9//14 8//14
f 32//14 8//14 31//14
f 31//14 8//14 7//14
f 31//14 7//14 30//14
f 30//14 7//14 6//14
f 30//14 6//14 5//14
f 30//14 5//14 29//14
f 29//14 5//14 4//14
f 29//14 4//14 28//14
f 28//14 4//14 27//14
f 27//14 4//14 3//14
f 27//14 3//14 26//14
f 26//14 3//14 2//14
f 26//14 2//14 25//14

g face 2
f 38//15 60//15 37//16
f 37//16 60//15 49//16
f 37//17 49//17 48//18
f 48//18 49//17 50//18
f 48//18 50//18 47//19
f 47//19 50//18 51//19
f 47//19 51//19 46//20
f 46//20 51//19 52//20
f 46//20 52//20 45//21
f 45//21 52//20 53//21
f 45//21 53//21 44//22
f 44//22 53//21 54//22
f 44//22 54//22 43//9
f 43//9 54//22 55//9
f 43//9 55//9 42//23
f 42//23 55//9 56//23
f 42//23 56//23 41//24
f 41//24 56//23 57//24
f 41//24 57//24 40//25
f 40//25 57//24 58//25
f 40//25 58//25 39//26
f 39//26 58//25 59//26
f 39//26 59//26 38//15
f 38//15 59//26 60//15

g face 3
f 36//27 66//28 25//2
f 25//2 66//28 67//29
f 25//2 67//29 26//30
f 26//30 67//29 68//31
f 26//30 68//31 27//32
f 27//32 68//31 69//33
f 27//32 69//33 28//34
f 28//34 69//33 70//35
f 28//34 70//35 29//36
f 29//36 70//35 71//37
f 29//36 71//37 30//38
f 30//38 71//37 72//10
f 30//38 72//10 31//39
f 31//39 72//10 61//39
f 31//40 61//40 32//22
f 32//22 61//40 62//41
f 32//22 62//41 33//42
f 33//42 62//41 63//43
f 33//42 63//43 34//44
f 34//44 63//43 64//45
f 34//44 64//45 35//19
f 35//19 64//45 65//46
f 35//19 65//46 36//27
f 36//27 65//46 66//28

g face 4
f 24//14 44//14 13//14
f 13//14 44//14 43//14
f 13//14 43//14 14//14
f 14//14 43//14 42//14
f 14//14 42//14 41//14
f 44//14 24//14 45//14
f 45//14 24//14 23//14
f 45//14 23//14 46//14
f 46//14 23//14 22//14
f 46//14 22//14 21//14
f 46//14 21//14 47//14
f 47//14 21//14 20//14
f 47//14 20//14 48//14
f 48//14 20//14 19//14
f 48//14 19//14 37//14
f 37//14 19//14 38//14
f 38//14 19//14 18//14
f 38//14 18//14 39//14
f 39//14 18//14 17//14
f 39//14 17//14 40//14
f 40//14 17//14 16//14
f 40//14 16//14 15//14
f 40//14 15//14 41//14
f 41//14 15//14 14//14

g face 5
f 60//47 62//47 49//47
f 49//47 62//47 61//47
f 49//47 61//47 50//47
f 50//47 61//47 72//47
f 50//47 72//47 51//47
f 51//47 72//47 71//47
f 51//47 71//47 52//47
f 52//47 71//47 70//47
f 52//47 70//47 69//47
f 60//47 59//47 62//47
f 62//47 59//47 63//47
f 63//47 59//47 58//47
f 63//47 58//47 64//47
f 64//47 58//47 65//47
f 65//47 58//47 57//47
f 65//47 57//47 66//47
f 66//47 57//47 56//47
f 66//47 56//47 67//47
f 67//47 56//47 55//47
f 67//47 55//47 54//47
f 67//47 54//47 68//47
f 68//47 54//47 53//47
f 68//47 53//47 69//47
f 69//47 53//47 52//47

g halfedge 0 edge 0
l 1 2 3 4 5 6 7 8 9 10 11 12 1

g halfedge 1 edge 0
l 1 12 11 10 9 8 7 6 5 4 3 2 1

g halfedge 2 edge 1
l 13 24 23 22 21 20 19 18 17 16 15 14 13

g halfedge 3 edge 1
l 13 14 15 16 17 18 19 20 21 22 23 24 13

g halfedge 4 edge 2
l 25 36 35 34 33 32 31 30 29 28 27 26 25

g halfedge 5 edge 2
l 25 26 27 28 29 30 31 32 33 34 35 36 25

g halfedge 6 edge 3
l 37 38 39 40 41 42 43 44 45 46 47 48 37

g halfedge 7 edge 3
l 37 48 47 46 45 44 43 42 41 40 39 38 37

g halfedge 8 edge 4
l 49 50 51 52 53 54 55 56 57 58 59 60 49

g halfedge 9 edge 4
l 49 60 59 58 57 56 55 54 53 52 51 50 49

g halfedge 10 edge 5
l 61 62 63 64 65 66 67 68 69 70 71 72 61

g halfedge 11 edge 5
l 61 72 71 70 69 68 67 66 65 64 63 62 61

g vertex 0
p 1

g vertex 1
p 13

g vertex 2
p 25

g vertex 3
p 37

g vertex 4
p 49

g vertex 5
p 61

# End of file
