22700 0 2 4           
16 Autodesk Neutron 20 ASM 227.1.1.65535 NT 24 Wed Aug 25 07:50:29 2021 
10 9.999999999999999547e-07 1.000000000000000036e-10 
asmheader $-1 -1 @13 227.1.1.65535 #
body $2 25 $-1 $3 $-1 $4 #
ATTRIB_CUSTOM-attrib $-1 -1 $5 $-1 $1 @20 Timestamp_attrib_def 1 1455555285001 #
lump $-1 -1 $-1 $-1 $6 $1 #
transform $-1 -1 1 0 0 0 1 0 0 0 1 0 0 0 1 no_rotate no_reflect no_shear #
ATTRIB_CUSTOM-attrib $-1 -1 $-1 $2 $1 @22 generic_tag_attrib_def 3 3 -1 @23 generic_tag_attrib_def  1 3 @3 465 1 0 0 #
shell $-1 -1 $-1 $-1 $-1 $7 $-1 $3 #
face $8 13 $-1 $9 $10 $6 $-1 $11 reversed single #
ATTRIB_CUSTOM-attrib $-1 -1 $-1 $-1 $7 @22 generic_tag_attrib_def 3 3 -1 @23 generic_tag_attrib_def  1 1 @1 4 0 2 400 465 0 #
face $12 14 $-1 $13 $14 $6 $-1 $15 forward single #
loop $-1 -1 $-1 $16 $17 $7 #
cone-surface $-1 -1 $-1 0 133.5999999999999943 0 0 -1 0 -1.650000000000000133 0 0 1 I I 0 -1 1.650000000000000133 forward I I I I #
ATTRIB_CUSTOM-attrib $-1 -1 $-1 $-1 $9 @22 generic_tag_attrib_def 3 3 -1 @23 generic_tag_attrib_def  1 1 @1 2 0 2 400 465 0 #
face $18 15 $-1 $19 $20 $6 $-1 $21 forward single #
loop $-1 -1 $-1 $22 $23 $9 #
plane-surface $-1 -1 $-1 0 132.5999999999999943 0 0 1 0 -1 0 0 forward_v I I I I #
loop $-1 -1 $-1 $-1 $24 $7 #
coedge $-1 -1 $-1 $17 $17 $23 $25 forward $10 0 $-1 #
ATTRIB_CUSTOM-attrib $-1 -1 $-1 $-1 $13 @22 generic_tag_attrib_def 3 3 -1 @23 generic_tag_attrib_def  1 1 @1 4 0 2 397 465 0 #
face $26 16 $-1 $27 $28 $6 $-1 $29 forward single #
loop $-1 -1 $-1 $30 $31 $13 #
cone-surface $-1 -1 $-1 0 0 0 0 1 0 1.350000000000000089 0 0 1 I I 0 -1 1.350000000000000089 forward I I I I #
loop $-1 -1 $-1 $-1 $32 $9 #
coedge $-1 -1 $-1 $23 $23 $17 $25 reversed $14 0 $-1 #
coedge $33 -1 $-1 $24 $24 $34 $35 reversed $16 0 $-1 #
edge $-1 19 $-1 $36 -3.141592653589793116 $36 3.141592653589793116 $17 $37 forward @7 unknown #
ATTRIB_CUSTOM-attrib $-1 -1 $-1 $-1 $19 @22 generic_tag_attrib_def 3 3 -1 @23 generic_tag_attrib_def  1 1 @1 3 0 2 397 465 0 #
face $38 17 $-1 $39 $40 $6 $-1 $41 forward single #
loop $-1 -1 $-1 $42 $43 $19 #
cone-surface $-1 -1 $-1 0 0 0 0 1 0 1.75 0 0 1 I I 0 1 1.75 forward I I I I #
loop $-1 -1 $-1 $-1 $44 $13 #
coedge $-1 -1 $-1 $31 $31 $45 $46 reversed $20 0 $-1 #
coedge $-1 -1 $-1 $32 $32 $43 $47 reversed $22 0 $-1 #
ATTRIB_CUSTOM-attrib $-1 -1 $-1 $-1 $24 @17 sketch_attrib_def 1 1 3 @13 400 0 0 0 1 1 #
coedge $-1 -1 $-1 $34 $34 $24 $35 forward $40 0 $-1 #
edge $-1 20 $-1 $48 -3.141592653589793116 $48 3.141592653589793116 $34 $49 forward @7 unknown #
vertex $-1 26 $-1 $25 0 $50 #
ellipse-curve $-1 -1 $-1 0 132.5999999999999943 0 0 1 0 -1.650000000000000133 0 0 1 I I #
ATTRIB_CUSTOM-attrib $-1 -1 $-1 $-1 $27 @22 generic_tag_attrib_def 3 3 -1 @23 generic_tag_attrib_def  1 1 @1 2 0 2 397 465 0 #
face $51 18 $-1 $-1 $52 $6 $-1 $53 reversed single #
loop $-1 -1 $-1 $54 $34 $27 #
plane-surface $-1 -1 $-1 0 133.5999999999999943 0 0 1 0 1 0 0 forward_v I I I I #
loop $-1 -1 $-1 $-1 $55 $19 #
coedge $-1 -1 $-1 $43 $43 $32 $47 forward $28 0 $-1 #
coedge $56 -1 $-1 $44 $44 $57 $58 forward $30 0 $-1 #
coedge $-1 -1 $-1 $45 $45 $31 $46 forward $54 0 $-1 #
edge $-1 22 $-1 $59 -3.141592653589793116 $59 3.141592653589793116 $31 $60 forward @7 unknown #
edge $-1 21 $-1 $61 -1.224646799147353207e-16 $61 6.283185307179586232 $43 $62 forward @7 unknown #
vertex $-1 27 $-1 $35 0 $63 #
ellipse-curve $-1 -1 $-1 0 133.5999999999999943 0 0 1 0 -1.650000000000000133 0 0 1 I I #
point $-1 -1 $-1 1.650000000000000133 132.5999999999999943 -2.020667218593133001e-16 #
ATTRIB_CUSTOM-attrib $-1 -1 $-1 $-1 $39 @22 generic_tag_attrib_def 3 3 -1 @23 generic_tag_attrib_def  1 1 @1 1 0 2 397 465 0 #
loop $-1 -1 $-1 $64 $57 $39 #
plane-surface $-1 -1 $-1 0 0 0 0 1 0 1 0 0 forward_v I I I I #
loop $-1 -1 $-1 $-1 $45 $27 #
coedge $65 -1 $-1 $55 $55 $66 $67 forward $42 0 $-1 #
ATTRIB_CUSTOM-attrib $-1 -1 $-1 $-1 $44 @17 sketch_attrib_def 1 1 3 @15 394 393 0 0 1 1 #
coedge $68 -1 $-1 $57 $57 $44 $58 reversed $52 0 $-1 #
edge $-1 23 $-1 $69 -3.141592653589793116 $69 3.141592653589793116 $44 $70 forward @7 unknown #
vertex $-1 29 $-1 $46 0 $71 #
ellipse-curve $-1 -1 $-1 0 133.5999999999999943 0 0 -1 0 1.350000000000000089 0 0 1 I I #
vertex $-1 28 $-1 $47 0 $72 #
ellipse-curve $-1 -1 $-1 0 132.5999999999999943 0 -0 -1 -0 1.75 0 0 1 I I #
point $-1 -1 $-1 1.650000000000000133 133.5999999999999943 -2.020667218593133001e-16 #
loop $-1 -1 $-1 $-1 $66 $39 #
ATTRIB_CUSTOM-attrib $-1 -1 $-1 $-1 $55 @17 sketch_attrib_def 1 1 3 @13 391 0 0 0 1 1 #
coedge $73 -1 $-1 $66 $66 $55 $67 reversed $64 0 $-1 #
edge $-1 24 $-1 $74 -3.141592653589793116 $74 3.141592653589793116 $55 $75 forward @7 unknown #
ATTRIB_CUSTOM-attrib $-1 -1 $-1 $-1 $57 @17 sketch_attrib_def 1 1 3 @15 394 393 0 0 1 1 #
vertex $-1 30 $-1 $58 0 $76 #
ellipse-curve $-1 -1 $-1 0 0 0 0 -1 0 1.350000000000000089 0 0 1 I I #
point $-1 -1 $-1 -1.350000000000000089 133.5999999999999943 1.653273178848926867e-16 #
point $-1 -1 $-1 1.75 132.5999999999999943 -2.143131898507868051e-16 #
ATTRIB_CUSTOM-attrib $-1 -1 $-1 $-1 $66 @17 sketch_attrib_def 1 1 3 @13 391 0 0 0 1 1 #
vertex $-1 31 $-1 $67 0 $77 #
ellipse-curve $-1 -1 $-1 0 0 0 0 1 0 1.75 0 0 1 I I #
point $-1 -1 $-1 -1.350000000000000089 0 1.653273178848926867e-16 #
point $-1 -1 $-1 -1.75 0 2.143131898507868051e-16 #
End-of-ASM-data 