22700 0 2 4           
16 Autodesk Neutron 20 ASM 227.1.1.65535 NT 24 Wed Aug 25 07:50:31 2021 
10 9.999999999999999547e-07 1.000000000000000036e-10 
asmheader $-1 -1 @13 227.1.1.65535 #
body $2 119 $-1 $3 $-1 $4 #
ATTRIB_CUSTOM-attrib $-1 -1 $5 $-1 $1 @20 Timestamp_attrib_def 1 1455555654000 #
lump $-1 -1 $-1 $-1 $6 $1 #
transform $-1 -1 1 0 0 0 1 0 0 0 1 0 0 0 1 no_rotate no_reflect no_shear #
ATTRIB_CUSTOM-attrib $-1 -1 $-1 $2 $1 @22 generic_tag_attrib_def 3 3 -1 @23 generic_tag_attrib_def  1 3 @3 435 1 0 0 #
shell $-1 -1 $-1 $-1 $-1 $7 $-1 $3 #
face $8 135 $-1 $9 $10 $6 $-1 $11 forward single #
ATTRIB_CUSTOM-attrib $-1 -1 $-1 $-1 $7 @22 generic_tag_attrib_def 3 3 -1 @23 generic_tag_attrib_def  1 1 @1 1 0 1 510 0 #
face $12 137 $-1 $13 $14 $6 $-1 $15 forward single #
loop $-1 -1 $-1 $16 $17 $7 #
torus-surface $-1 -1 $-1 0 -0.267591879243998132 0 -0 1 -0 5.5 0.5 0 0 1 forward_v I I I I #
ATTRIB_CUSTOM-attrib $-1 -1 $-1 $-1 $9 @22 generic_tag_attrib_def 3 3 -1 @23 generic_tag_attrib_def  1 1 @1 3 0 2 333 435 0 #
face $18 136 $-1 $19 $20 $6 $-1 $21 forward single #
loop $-1 -1 $-1 $22 $23 $9 #
cone-surface $-1 -1 $-1 0 0 0 0 1 0 6 0 0 1 I I -0.832050294337843499 0.5547001962252293694 6 forward I I I I #
loop $-1 -1 $-1 $-1 $24 $7 #
coedge $-1 -1 $-1 $17 $17 $25 $26 forward $10 0 $-1 #
ATTRIB_CUSTOM-attrib $-1 -1 $-1 $-1 $13 @22 generic_tag_attrib_def 3 3 -1 @23 generic_tag_attrib_def  2 1 @1 3 0 2 322 435 0 1 @1 3 0 2 324 435 0 #
face $27 133 $-1 $28 $29 $6 $-1 $30 forward single #
loop $-1 -1 $-1 $31 $32 $13 #
cone-surface $-1 -1 $-1 0 0 0 0 -1 0 6 0 0 1 I I 0 1 6 forward I I I I #
loop $-1 -1 $-1 $-1 $33 $9 #
coedge $-1 -1 $-1 $23 $23 $34 $35 reversed $14 0 $-1 #
coedge $-1 -1 $-1 $24 $24 $33 $36 forward $16 0 $-1 #
coedge $-1 -1 $-1 $25 $25 $17 $26 reversed $31 0 $-1 #
edge $-1 143 $-1 $37 -3.141592653589793116 $37 3.141592653589793116 $25 $38 forward @7 tangent #
ATTRIB_CUSTOM-attrib $-1 -1 $-1 $-1 $19 @22 generic_tag_attrib_def 3 3 -1 @23 generic_tag_attrib_def  1 1 @1 1 0 1 509 0 #
face $39 134 $-1 $40 $41 $6 $-1 $42 reversed single #
loop $-1 -1 $-1 $43 $44 $19 #
torus-surface $-1 -1 $-1 0 0.532870727044668091 0 0 -1 0 4.75 0.25 0 0 -1 forward_v I I I I #
loop $-1 -1 $-1 $-1 $25 $13 #
coedge $-1 -1 $-1 $32 $32 $45 $46 forward $20 0 $-1 #
coedge $-1 -1 $-1 $33 $33 $24 $36 reversed $22 0 $-1 #
coedge $-1 -1 $-1 $34 $34 $23 $35 forward $43 0 $-1 #
edge $-1 140 $-1 $47 -3.141592653589793116 $47 3.141592653589793116 $23 $48 forward @7 tangent #
edge $-1 142 $-1 $49 -3.141592653589793116 $49 3.141592653589793116 $33 $50 forward @7 tangent #
vertex $-1 144 $-1 $26 0 $51 #
ellipse-curve $-1 -1 $-1 0 -0.267591879243998132 0 -0 1 -0 6 0 0 1 I I #
ATTRIB_CUSTOM-attrib $-1 -1 $-1 $-1 $28 @22 generic_tag_attrib_def 3 3 -1 @23 generic_tag_attrib_def  3 1 @1 3 0 2 327 435 0 1 @1 3 0 2 334 435 0 1 @1 3 0 2 335 435 0 #
face $52 132 $-1 $53 $54 $6 $-1 $55 forward single #
loop $-1 -1 $-1 $56 $57 $28 #
cone-surface $-1 -1 $-1 0 0 0 0 -1 0 4.5 0 0 1 I I 0 1 4.5 forward I I I I #
loop $-1 -1 $-1 $-1 $34 $19 #
coedge $-1 -1 $-1 $44 $44 $58 $59 forward $29 0 $-1 #
coedge $-1 -1 $-1 $45 $45 $32 $46 reversed $60 0 $-1 #
edge $-1 112 $-1 $61 -3.141592653589793116 $61 3.141592653589793116 $32 $62 forward @7 unknown #
vertex $-1 146 $-1 $35 0 $63 #
ellipse-curve $-1 -1 $-1 0 0.7408833006291288825 0 0 1 -0 -4.888675049056307564 0 5.986900250898336725e-16 1 I I #
vertex $-1 145 $-1 $36 0 $64 #
ellipse-curve $-1 -1 $-1 0 0.1484332679249236175 3.537606652603630311e-16 -0 -1 -0 5.777350098112615129 0 -3.537606652603630311e-16 1 I I #
point $-1 -1 $-1 -6 -0.267591879243998132 7.34788079488411875e-16 #
ATTRIB_CUSTOM-attrib $-1 -1 $-1 $-1 $40 @22 generic_tag_attrib_def 3 3 -1 @23 generic_tag_attrib_def  1 1 @1 2 0 1 498 0 #
face $65 105 $-1 $66 $67 $6 $-1 $68 reversed single #
loop $-1 -1 $-1 $69 $70 $40 #
plane-surface $-1 -1 $-1 0 -0.6999999999999999556 0 0 -1 0 1 0 0 forward_v I I I I #
loop $-1 -1 $-1 $-1 $58 $28 #
coedge $-1 -1 $-1 $57 $57 $71 $72 reversed $41 0 $-1 #
coedge $-1 -1 $-1 $58 $58 $44 $59 reversed $56 0 $-1 #
edge $-1 141 $-1 $73 -3.141592653589793116 $73 3.141592653589793116 $58 $74 forward @7 tangent #
loop $-1 -1 $-1 $-1 $45 $66 #
vertex $-1 147 $-1 $46 0 $75 #
ellipse-curve $-1 -1 $-1 0 -0.5 0 -0 1 -0 6 0 0 1 I I #
point $-1 -1 $-1 4.888675049056307564 0.7408833006291288825 -1.197380050179667345e-15 #
point $-1 -1 $-1 -5.777350098112615129 0.1484332679249236175 -9.860761315262647568e-32 #
ATTRIB_CUSTOM-attrib $-1 -1 $-1 $-1 $53 @22 generic_tag_attrib_def 3 3 -1 @23 generic_tag_attrib_def  1 1 @1 4 0 2 337 435 0 #
face $76 106 $-1 $77 $78 $6 $-1 $79 forward single #
loop $-1 -1 $-1 $80 $81 $53 #
cone-surface $-1 -1 $-1 0 -1 0 0 1 0 5.950000000000001066 0 0 1 I I 0 -1 5.950000000000001066 forward I I I I #
loop $-1 -1 $-1 $-1 $82 $40 #
coedge $-1 -1 $-1 $70 $70 $83 $84 reversed $54 0 $-1 #
coedge $-1 -1 $-1 $71 $71 $57 $72 forward $85 0 $-1 #
edge $-1 114 $-1 $86 -3.141592653589793116 $86 3.141592653589793116 $71 $87 forward @7 unknown #
vertex $-1 148 $-1 $59 0 $88 #
ellipse-curve $-1 -1 $-1 0 0.532870727044668091 0 0 -1 0 -4.5 0 5.510910596163089556e-16 1 I I #
point $-1 -1 $-1 -6 -0.5 -7.34788079488411875e-16 #
ATTRIB_CUSTOM-attrib $-1 -1 $-1 $-1 $66 @22 generic_tag_attrib_def 3 3 -1 @23 generic_tag_attrib_def  1 1 @1 2 0 2 337 435 0 #
face $89 107 $-1 $90 $91 $6 $-1 $92 forward single #
loop $-1 -1 $-1 $60 $93 $66 #
plane-surface $-1 -1 $-1 0 -0.5 0 0 -1 0 1 0 0 forward_v I I I I #
loop $-1 -1 $-1 $-1 $94 $53 #
coedge $-1 -1 $-1 $81 $81 $82 $95 forward $67 0 $-1 #
coedge $-1 -1 $-1 $82 $82 $81 $95 reversed $69 0 $-1 #
coedge $-1 -1 $-1 $83 $83 $70 $84 forward $91 0 $-1 #
edge $-1 139 $-1 $96 -3.141592653589793116 $96 3.141592653589793116 $83 $97 forward @7 unknown #
loop $-1 -1 $-1 $98 $71 $90 #
vertex $-1 149 $-1 $72 0 $99 #
ellipse-curve $-1 -1 $-1 0 -0.05000000000000000278 0 0 1 0 4.5 0 0 1 I I #
point $-1 -1 $-1 4.5 0.532870727044668091 0 #
ATTRIB_CUSTOM-attrib $-1 -1 $-1 $-1 $77 @22 generic_tag_attrib_def 3 3 -1 @23 generic_tag_attrib_def  1 1 @1 4 0 2 324 435 0 #
face $100 108 $-1 $-1 $85 $6 $-1 $101 reversed single #
loop $-1 -1 $-1 $102 $83 $77 #
cone-surface $-1 -1 $-1 0 0 0 0 -1 0 5.900000000000000355 0 0 1 I I 0 -1 5.900000000000000355 forward I I I I #
coedge $-1 -1 $-1 $93 $93 $94 $103 reversed $78 0 $-1 #
coedge $-1 -1 $-1 $94 $94 $93 $103 forward $80 0 $-1 #
edge $-1 138 $-1 $104 -3.141592653589793116 $104 3.141592653589793116 $81 $105 forward @7 unknown #
vertex $-1 150 $-1 $84 0 $106 #
ellipse-curve $-1 -1 $-1 0 -0.6999999999999999556 0 0 -1 0 5.900000000000000355 0 0 1 I I #
loop $-1 -1 $-1 $-1 $107 $90 #
point $-1 -1 $-1 -4.5 -0.05000000000000000278 5.510910596163089556e-16 #
ATTRIB_CUSTOM-attrib $-1 -1 $-1 $-1 $90 @22 generic_tag_attrib_def 3 3 -1 @23 generic_tag_attrib_def  1 1 @1 2 0 2 322 435 0 #
plane-surface $-1 -1 $-1 0 -0.05000000000000000278 0 0 1 0 1 0 0 forward_v I I I I #
loop $-1 -1 $-1 $-1 $108 $77 #
edge $-1 117 $-1 $109 -3.141592653589793116 $109 3.141592653589793116 $94 $110 forward @7 unknown #
vertex $-1 151 $-1 $95 0 $111 #
ellipse-curve $-1 -1 $-1 0 -0.6999999999999999556 0 -0 1 -0 5.950000000000001066 0 0 1 I I #
point $-1 -1 $-1 -5.900000000000000355 -0.6999999999999999556 -7.225416114969384193e-16 #
coedge $-1 -1 $-1 $107 $107 $108 $112 forward $98 0 $-1 #
coedge $-1 -1 $-1 $108 $108 $107 $112 reversed $102 0 $-1 #
vertex $-1 152 $-1 $103 0 $113 #
ellipse-curve $-1 -1 $-1 0 -0.5 0 0 -1 0 5.950000000000001066 0 0 1 I I #
point $-1 -1 $-1 -5.950000000000000178 -0.6999999999999999556 -7.286648454926751965e-16 #
edge $-1 118 $-1 $114 -3.141592653589793116 $114 3.141592653589793116 $107 $115 forward @7 unknown #
point $-1 -1 $-1 -5.950000000000001066 -0.5 -7.286648454926752951e-16 #
vertex $-1 153 $-1 $112 0 $116 #
ellipse-curve $-1 -1 $-1 0 -0.05000000000000000278 0 -0 -1 -0 5.900000000000000355 0 0 1 I I #
point $-1 -1 $-1 -5.900000000000000355 -0.05000000000000000278 -7.225416114969384193e-16 #
End-of-ASM-data 