22700 0 2 4           
16 Autodesk Neutron 20 ASM 227.1.1.65535 NT 24 Wed Aug 25 07:50:33 2021 
10 9.999999999999999547e-07 1.000000000000000036e-10 
asmheader $-1 -1 @13 227.1.1.65535 #
body $2 37 $-1 $3 $-1 $4 #
ATTRIB_CUSTOM-attrib $-1 -1 $5 $-1 $1 @20 Timestamp_attrib_def 1 1455555376001 #
lump $-1 -1 $-1 $-1 $6 $1 #
transform $-1 -1 1 0 0 0 1 0 0 0 1 0 0 0 1 no_rotate no_reflect no_shear #
ATTRIB_CUSTOM-attrib $-1 -1 $-1 $2 $1 @22 generic_tag_attrib_def 3 3 -1 @23 generic_tag_attrib_def  1 3 @3 485 1 0 0 #
shell $-1 -1 $-1 $-1 $-1 $7 $-1 $3 #
face $8 78 $-1 $9 $10 $6 $-1 $11 forward single #
ATTRIB_CUSTOM-attrib $-1 -1 $-1 $-1 $7 @22 generic_tag_attrib_def 3 3 -1 @23 generic_tag_attrib_def  1 1 @1 1 0 1 595 0 #
face $12 80 $-1 $13 $14 $6 $-1 $15 forward single #
loop $-1 -1 $-1 $16 $17 $7 #
torus-surface $-1 -1 $-1 0 1.199999999999999956 0 0 1 0 1.449999999999999734 0.3000000000000000444 0 0 1 forward_v I I I I #
ATTRIB_CUSTOM-attrib $-1 -1 $-1 $-1 $9 @22 generic_tag_attrib_def 3 3 -1 @23 generic_tag_attrib_def  1 1 @1 3 0 2 404 485 0 #
face $18 79 $-1 $19 $20 $6 $-1 $21 forward single #
loop $-1 -1 $-1 $22 $23 $9 #
cone-surface $-1 -1 $-1 0 0 0 0 1 0 1.749999999999999778 0 0 1 I I 0 1 1.749999999999999778 forward I I I I #
loop $-1 -1 $-1 $-1 $24 $7 #
coedge $-1 -1 $-1 $17 $17 $25 $26 forward $10 0 $-1 #
ATTRIB_CUSTOM-attrib $-1 -1 $-1 $-1 $13 @22 generic_tag_attrib_def 3 3 -1 @23 generic_tag_attrib_def  1 1 @1 2 0 2 404 485 0 #
face $27 25 $-1 $28 $29 $6 $-1 $30 reversed single #
loop $-1 -1 $-1 $31 $32 $13 #
plane-surface $-1 -1 $-1 0 1.5 0 0 1 0 1 0 0 forward_v I I I I #
loop $-1 -1 $-1 $-1 $25 $9 #
coedge $33 -1 $-1 $23 $23 $34 $35 forward $14 0 $-1 #
coedge $-1 -1 $-1 $24 $24 $36 $37 forward $16 0 $-1 #
coedge $-1 -1 $-1 $25 $25 $17 $26 reversed $22 0 $-1 #
edge $-1 81 $-1 $38 -3.141592653589793116 $38 3.141592653589793116 $25 $39 forward @7 tangent #
ATTRIB_CUSTOM-attrib $-1 -1 $-1 $-1 $19 @22 generic_tag_attrib_def 3 3 -1 @23 generic_tag_attrib_def  1 1 @1 3 0 2 408 485 0 #
face $40 26 $-1 $41 $42 $6 $-1 $43 reversed single #
loop $-1 -1 $-1 $44 $45 $19 #
cone-surface $-1 -1 $-1 0 0 0 0 1 0 0.6000000000000000888 0 0 1 I I 0 1 0.6000000000000000888 forward I I I I #
loop $-1 -1 $-1 $-1 $36 $13 #
coedge $-1 -1 $-1 $32 $32 $46 $47 forward $20 0 $-1 #
ATTRIB_CUSTOM-attrib $-1 -1 $-1 $-1 $23 @17 sketch_attrib_def 1 1 3 @13 408 0 0 0 1 1 #
coedge $48 -1 $-1 $34 $34 $23 $35 reversed $49 0 $-1 #
edge $-1 36 $-1 $50 -3.141592653589793116 $50 3.141592653589793116 $23 $51 forward @7 unknown #
coedge $-1 -1 $-1 $36 $36 $24 $37 reversed $31 0 $-1 #
edge $-1 82 $-1 $52 -3.141592653589793116 $52 3.141592653589793116 $36 $53 forward @7 tangent #
vertex $-1 83 $-1 $26 0 $54 #
ellipse-curve $-1 -1 $-1 0 1.199999999999999956 0 0 1 0 1.749999999999999778 0 0 1 I I #
ATTRIB_CUSTOM-attrib $-1 -1 $-1 $-1 $28 @22 generic_tag_attrib_def 3 3 -1 @23 generic_tag_attrib_def  1 1 @1 3 0 2 406 485 0 #
face $55 27 $-1 $56 $57 $6 $-1 $58 reversed single #
loop $-1 -1 $-1 $59 $60 $28 #
cone-surface $-1 -1 $-1 0 0 0 0 1 0 1.549999999999999822 0 0 1 I I 0 1 1.549999999999999822 forward I I I I #
loop $-1 -1 $-1 $-1 $46 $19 #
coedge $-1 -1 $-1 $45 $45 $61 $62 reversed $29 0 $-1 #
coedge $-1 -1 $-1 $46 $46 $32 $47 reversed $44 0 $-1 #
edge $-1 32 $-1 $63 -3.141592653589793116 $63 3.141592653589793116 $32 $64 forward @7 unknown #
ATTRIB_CUSTOM-attrib $-1 -1 $-1 $-1 $34 @17 sketch_attrib_def 1 1 3 @13 408 0 0 0 1 1 #
loop $-1 -1 $-1 $-1 $34 $56 #
vertex $-1 85 $-1 $35 0 $65 #
ellipse-curve $-1 -1 $-1 0 0 0 0 1 0 1.749999999999999778 0 0 1 I I #
vertex $-1 84 $-1 $37 0 $66 #
ellipse-curve $-1 -1 $-1 0 1.5 0 -0 -1 -0 1.449999999999999734 0 0 1 I I #
point $-1 -1 $-1 -1.749999999999999778 1.199999999999999956 2.143131898507867804e-16 #
ATTRIB_CUSTOM-attrib $-1 -1 $-1 $-1 $41 @22 generic_tag_attrib_def 3 3 -1 @23 generic_tag_attrib_def  1 1 @1 2 0 2 406 485 0 #
face $67 30 $-1 $-1 $68 $6 $-1 $69 reversed single #
loop $-1 -1 $-1 $70 $61 $41 #
plane-surface $-1 -1 $-1 0 1.300000000000000044 0 0 1 0 1 0 0 forward_v I I I I #
loop $-1 -1 $-1 $-1 $71 $28 #
coedge $-1 -1 $-1 $60 $60 $72 $73 forward $42 0 $-1 #
coedge $-1 -1 $-1 $61 $61 $45 $62 forward $57 0 $-1 #
edge $-1 31 $-1 $74 -3.141592653589793116 $74 3.141592653589793116 $61 $75 forward @7 unknown #
vertex $-1 86 $-1 $47 0 $76 #
ellipse-curve $-1 -1 $-1 0 1.5 0 -0 -1 -0 0.6000000000000000888 0 0 1 I I #
point $-1 -1 $-1 -1.749999999999999778 0 2.143131898507867804e-16 #
point $-1 -1 $-1 -1.449999999999999734 1.5 -1.775737858763661916e-16 #
ATTRIB_CUSTOM-attrib $-1 -1 $-1 $-1 $56 @22 generic_tag_attrib_def 3 3 -1 @23 generic_tag_attrib_def  1 1 @1 1 0 2 404 485 0 #
loop $-1 -1 $-1 $49 $77 $56 #
plane-surface $-1 -1 $-1 0 0 0 0 1 0 1 0 0 forward_v I I I I #
loop $-1 -1 $-1 $-1 $72 $41 #
coedge $78 -1 $-1 $71 $71 $77 $79 reversed $59 0 $-1 #
coedge $-1 -1 $-1 $72 $72 $60 $73 reversed $70 0 $-1 #
edge $-1 33 $-1 $80 -3.141592653589793116 $80 3.141592653589793116 $60 $81 forward @7 unknown #
vertex $-1 87 $-1 $62 0 $82 #
ellipse-curve $-1 -1 $-1 0 1.300000000000000044 0 0 1 0 0.6000000000000000888 0 0 1 I I #
point $-1 -1 $-1 -0.6000000000000000888 1.5 -7.347880794884120229e-17 #
coedge $-1 -1 $-1 $77 $77 $71 $79 forward $68 0 $-1 #
ATTRIB_CUSTOM-attrib $-1 -1 $-1 $-1 $71 @17 sketch_attrib_def 1 1 3 @15 411 410 0 0 1 1 #
edge $-1 34 $-1 $83 -3.141592653589793116 $83 3.141592653589793116 $77 $84 forward @7 unknown #
vertex $-1 88 $-1 $73 0 $85 #
ellipse-curve $-1 -1 $-1 0 1.300000000000000044 0 0 1 0 1.549999999999999822 0 0 1 I I #
point $-1 -1 $-1 -0.6000000000000000888 1.300000000000000044 7.347880794884120229e-17 #
vertex $-1 89 $-1 $79 0 $86 #
ellipse-curve $-1 -1 $-1 0 0 0 0 1 0 1.549999999999999822 0 0 1 I I #
point $-1 -1 $-1 -1.549999999999999822 1.300000000000000044 1.898202538678397212e-16 #
point $-1 -1 $-1 -1.549999999999999822 0 1.898202538678397212e-16 #
End-of-ASM-data 