22700 0 2 4           
16 Autodesk Neutron 20 ASM 227.1.1.65535 NT 24 Thu Aug 26 01:27:26 2021 
10 9.999999999999999547e-07 1.000000000000000036e-10 
asmheader $-1 -1 @13 227.1.1.65535 #
body $2 42038 $-1 $3 $-1 $4 #
ATTRIB_CUSTOM-attrib $-1 -1 $5 $-1 $1 @20 Timestamp_attrib_def 1 1534163889000205 #
lump $-1 -1 $-1 $-1 $6 $1 #
transform $-1 -1 1 0 0 0 1 0 0 0 1 0 0 0 1 no_rotate no_reflect no_shear #
ATTRIB_CUSTOM-attrib $7 -1 $-1 $2 $1 @22 generic_tag_attrib_def 3 3 -1 @23 generic_tag_attrib_def  1 3 @3 479 9 0 0 #
shell $-1 -1 $-1 $-1 $-1 $8 $-1 $3 #
ATTRIB_CUSTOM-attrib $-1 -1 $-1 $-1 $5 @22 generic_tag_attrib_def 3 3 -1 @23 generic_tag_attrib_def  1 0 @0  0 1 481 0 #
face $9 41729 $-1 $10 $11 $6 $-1 $12 forward single #
ATTRIB_CUSTOM-attrib $-1 -1 $-1 $-1 $8 @22 generic_tag_attrib_def 3 3 -1 @23 generic_tag_attrib_def  1 2 @2 16 0 1 484 0 #
face $13 41730 $-1 $14 $15 $6 $-1 $16 forward single #
loop $-1 -1 $-1 $-1 $17 $8 #
sphere-surface $-1 -1 $-1 9.430593131474656943 -0.4799999999999999267 -7.556958173453052652 0.07999999999999912736 0.2703456801936650611 0.5773502691896329475 -0.7704413539441422598 0.1911632637294338188 -0.8164965809277210385 -0.5447843058804581196 forward_v I I I I #
ATTRIB_CUSTOM-attrib $-1 -1 $-1 $-1 $10 @22 generic_tag_attrib_def 3 3 -1 @23 generic_tag_attrib_def  1 2 @2 14 0 1 484 0 #
face $18 41731 $-1 $19 $20 $6 $-1 $21 forward single #
loop $-1 -1 $-1 $-1 $22 $10 #
sphere-surface $-1 -1 $-1 9.430593131474656943 -2.81999999999999984 -7.556958173453051764 0.07999999999999912736 0.270345680193662341 -0.5773502691896275074 -0.7704413539441472558 -0.1911632637294291837 -0.8164965809277248132 0.5447843058804540117 forward_v I I I I #
coedge $-1 -1 $-1 $23 $24 $25 $26 reversed $11 0 $-1 #
ATTRIB_CUSTOM-attrib $-1 -1 $-1 $-1 $14 @22 generic_tag_attrib_def 3 3 -1 @23 generic_tag_attrib_def  1 2 @2 12 0 1 484 0 #
face $27 41732 $-1 $28 $29 $6 $-1 $30 forward single #
loop $-1 -1 $-1 $-1 $31 $14 #
cone-surface $-1 -1 $-1 9.430593131474656943 -0.3999999999999999112 -7.556958173453051764 0 -1 -0 0.02648835882560604885 0 -0.07548752775608656707 1 I I 0 1 0.08000000000000001554 forward I I I I #
coedge $-1 -1 $-1 $32 $33 $34 $35 reversed $15 0 $-1 #
coedge $-1 -1 $-1 $24 $17 $36 $37 reversed $11 0 $-1 #
coedge $-1 -1 $-1 $17 $23 $38 $39 reversed $11 0 $-1 #
coedge $-1 -1 $-1 $40 $41 $17 $26 forward $42 0 $-1 #
edge $-1 41755 $-1 $43 1.000697315559416964e-14 $44 1.570796326794896558 $25 $45 reversed @7 tangent #
ATTRIB_CUSTOM-attrib $-1 -1 $-1 $-1 $19 @22 generic_tag_attrib_def 3 3 -1 @23 generic_tag_attrib_def  1 2 @2 11 0 1 484 0 #
face $46 41733 $-1 $47 $48 $6 $-1 $49 forward single #
loop $-1 -1 $-1 $-1 $50 $19 #
sphere-surface $-1 -1 $-1 10.44756291111063362 -0.4799999999999999267 0.6565069340176812318 0.08000000000000001554 0.5389211383406987688 0.5537454453559869094 0.6347676648956414036 0.3583885452898460944 -0.832686004294235671 0.4221275504601994522 forward_v I I I I #
coedge $-1 -1 $-1 $51 $52 $32 $53 forward $20 0 $-1 #
coedge $-1 -1 $-1 $33 $22 $31 $53 reversed $15 0 $-1 #
coedge $-1 -1 $-1 $22 $32 $54 $55 reversed $15 0 $-1 #
coedge $-1 -1 $-1 $56 $57 $22 $35 forward $58 0 $-1 #
edge $-1 41758 $-1 $59 -0 $60 1.570796326794896558 $34 $61 reversed @7 tangent #
coedge $-1 -1 $-1 $62 $63 $23 $37 forward $48 0 $-1 #
edge $-1 41756 $-1 $64 -0 $43 1.570796326794896558 $36 $65 reversed @7 tangent #
coedge $-1 -1 $-1 $52 $51 $24 $39 forward $20 0 $-1 #
edge $-1 41757 $-1 $44 4.811147140404482724e-15 $64 1.570796326794896558 $38 $66 reversed @7 tangent #
coedge $-1 -1 $-1 $67 $25 $68 $69 forward $42 0 $-1 #
coedge $-1 -1 $-1 $25 $67 $70 $71 forward $42 0 $-1 #
loop $-1 -1 $-1 $-1 $67 $72 #
vertex $-1 42768 $-1 $73 0 $74 #
vertex $-1 42767 $-1 $75 1 $76 #
ellipse-curve $-1 -1 $-1 9.430593131474656943 -0.4799999999999999267 -7.556958173453051764 0.9013480114928094089 0 -0.433095557790608543 0 0.08000000000000001554 0 1 F -1.570796326794896558 F -0 #
ATTRIB_CUSTOM-attrib $-1 -1 $-1 $-1 $28 @22 generic_tag_attrib_def 3 3 -1 @23 generic_tag_attrib_def  1 1 @1 8 0 1 484 0 #
face $77 41734 $-1 $78 $79 $6 $-1 $80 forward single #
loop $-1 -1 $-1 $-1 $81 $28 #
cone-surface $-1 -1 $-1 10.28096408194291733 -0.4799999999999999267 -5.787186695892930111 0.4330955577906113185 -0 0.9013480114928081877 0.05098794329084642418 0.05656854249492353909 -0.02449958446524064595 1 I I 0 1 0.08000000000000001554 forward I I I I #
coedge $-1 -1 $-1 $82 $83 $84 $85 reversed $29 0 $-1 #
coedge $-1 -1 $-1 $38 $31 $86 $75 forward $20 0 $-1 #
coedge $-1 -1 $-1 $31 $38 $87 $88 forward $20 0 $-1 #
edge $-1 41759 $-1 $89 1.002887009549108799e-14 $59 1.570796326794896558 $31 $90 reversed @7 tangent #
coedge $-1 -1 $-1 $91 $92 $33 $55 forward $93 0 $-1 #
edge $-1 41760 $-1 $60 0 $89 1.570796326794896558 $54 $94 reversed @7 tangent #
coedge $-1 -1 $-1 $95 $34 $96 $97 forward $58 0 $-1 #
coedge $-1 -1 $-1 $34 $95 $98 $99 forward $58 0 $-1 #
loop $-1 -1 $-1 $-1 $95 $100 #
vertex $-1 42771 $-1 $75 0 $101 #
vertex $-1 42770 $-1 $102 1 $103 #
ellipse-curve $-1 -1 $-1 9.430593131474656943 -2.81999999999999984 -7.556958173453051764 0.9013480114928094089 0 -0.4330955577906085985 -0.03464764462324865235 0 -0.07210784091942468166 1 F -1.570796326794896558 F -0 #
coedge $-1 -1 $-1 $81 $36 $104 $73 forward $48 0 $-1 #
coedge $-1 -1 $-1 $36 $81 $105 $106 forward $48 0 $-1 #
vertex $-1 42769 $-1 $88 0 $107 #
ellipse-curve $-1 -1 $-1 9.430593131474656943 -0.4799999999999999267 -7.556958173453052652 -0.4330955577906129284 0 -0.9013480114928072995 0.07210784091942379348 0 -0.03464764462324865235 1 F -1.570796326794896558 F -0 #
ellipse-curve $-1 -1 $-1 9.430593131474656943 -0.4799999999999999267 -7.556958173453051764 0 1 0 -0.03464764462324865235 0 -0.07210784091942379348 1 F -1.570796326794896558 F -0 #
coedge $-1 -1 $-1 $41 $40 $108 $109 forward $42 0 $-1 #
coedge $-1 -1 $-1 $86 $110 $40 $69 reversed $111 0 $-1 #
edge $-1 41798 $-1 $44 -0.7679114467088855589 $112 -0.3347308737347010066 $68 $113 forward @7 tangent #
coedge $-1 -1 $-1 $114 $104 $41 $71 reversed $115 0 $-1 #
edge $-1 41797 $-1 $116 0.3347308737347013952 $43 0.767911446708886003 $70 $117 forward @7 tangent #
face $118 41744 $-1 $119 $42 $6 $-1 $120 forward single #
edge $-1 41768 $-1 $43 -1.963471883217488889 $121 1.634543900096741442 $104 $122 forward @7 tangent #
point $-1 -1 $-1 9.430593131474656943 -0.3999999999999999112 -7.556958173453052652 #
edge $-1 41761 $-1 $59 -2.419999999999999929 $44 -0.08000000000000001554 $86 $123 forward @7 tangent #
point $-1 -1 $-1 9.39594548685140829 -0.4799999999999999267 -7.629066014372476445 #
ATTRIB_CUSTOM-attrib $-1 -1 $-1 $-1 $47 @22 generic_tag_attrib_def 3 3 -1 @23 generic_tag_attrib_def  1 1 @1 9 0 1 484 0 #
face $124 41735 $-1 $125 $126 $6 $-1 $127 forward single #
loop $-1 -1 $-1 $-1 $128 $47 #
torus-surface $-1 -1 $-1 9.979368011216610768 -0.4799999999999999267 -3.828826777117549707 -0 -1 -0 1.120000000000000107 0.08000000000000001554 0 0 -1 forward_v I I I I #
coedge $-1 -1 $-1 $63 $62 $129 $130 forward $48 0 $-1 #
coedge $-1 -1 $-1 $83 $50 $131 $132 reversed $29 0 $-1 #
coedge $-1 -1 $-1 $50 $82 $133 $134 reversed $29 0 $-1 #
coedge $-1 -1 $-1 $135 $136 $50 $85 forward $137 0 $-1 #
edge $-1 41763 $-1 $138 1.373887440446530055e-14 $139 1.439813734663847322 $84 $140 reversed @7 tangent #
coedge $-1 -1 $-1 $98 $68 $51 $75 reversed $111 0 $-1 #
coedge $-1 -1 $-1 $105 $141 $52 $88 reversed $142 0 $-1 #
edge $-1 41762 $-1 $64 0.08000000000000001554 $89 2.419999999999999929 $87 $143 forward @7 tangent #
vertex $-1 42772 $-1 $88 1 $144 #
ellipse-curve $-1 -1 $-1 9.430593131474656943 -2.81999999999999984 -7.556958173453051764 0 -1 -0 0.07210784091942379348 0 -0.03464764462324865235 1 F -1.570796326794896558 F -0 #
coedge $-1 -1 $-1 $145 $54 $141 $146 forward $93 0 $-1 #
coedge $-1 -1 $-1 $54 $145 $147 $102 forward $93 0 $-1 #
loop $-1 -1 $-1 $-1 $145 $148 #
ellipse-curve $-1 -1 $-1 9.430593131474656943 -2.81999999999999984 -7.556958173453052652 -0.4330955577906128728 -0 -0.9013480114928072995 0 -0.08000000000000007105 0 1 F -1.570796326794896558 F -0 #
coedge $-1 -1 $-1 $57 $56 $149 $150 forward $58 0 $-1 #
coedge $-1 -1 $-1 $147 $151 $56 $97 reversed $152 0 $-1 #
edge $-1 41795 $-1 $60 -0.7679114467088855589 $153 -0.3347308737347013952 $96 $154 forward @7 tangent #
coedge $-1 -1 $-1 $110 $86 $57 $99 reversed $111 0 $-1 #
edge $-1 41794 $-1 $155 0.3347308737347010066 $59 0.7679114467088852258 $98 $156 forward @7 tangent #
face $157 41743 $-1 $72 $58 $6 $-1 $158 forward single #
point $-1 -1 $-1 9.39594548685140829 -2.81999999999999984 -7.629066014372475557 #
edge $-1 41786 $-1 $159 -1.634543900096741442 $60 1.963471883217488223 $147 $160 forward @7 tangent #
point $-1 -1 $-1 9.430593131474656943 -2.899999999999999911 -7.556958173453051764 #
coedge $-1 -1 $-1 $70 $161 $62 $73 reversed $115 0 $-1 #
coedge $-1 -1 $-1 $162 $87 $63 $106 reversed $142 0 $-1 #
edge $-1 41767 $-1 $163 -1.634543900096740776 $64 1.963471883217488223 $105 $164 forward @7 tangent #
point $-1 -1 $-1 9.502700972394080736 -0.4799999999999999267 -7.591605818076300416 #
coedge $-1 -1 $-1 $165 $166 $67 $109 reversed $167 0 $-1 #
edge $-1 41796 $-1 $112 -0.7853981633974536081 $116 0.7853981633974339571 $108 $168 forward @7 unknown #
coedge $-1 -1 $-1 $68 $98 $165 $169 reversed $111 0 $-1 #
loop $-1 -1 $-1 $-1 $98 $170 #
vertex $-1 42793 $-1 $169 0 $171 #
straight-curve $-1 -1 $-1 8.703790031357788948 -0.4799999999999999267 -7.2964869780262962 -0.9013480114928080766 -0 0.4330955577906113185 F -1.377596238065790013 F -0.03865840998108720922 #
coedge $172 -1 $-1 $173 $70 $166 $174 reversed $115 0 $-1 #
loop $-1 -1 $-1 $-1 $175 $176 #
vertex $-1 42794 $-1 $109 1 $177 #
straight-curve $-1 -1 $-1 8.7384376759810376 -0.3999999999999999112 -7.224379137106871518 0.9013480114928080766 0 -0.4330955577906113185 F 0.03865840998108720922 F 1.377596238065790013 #
ATTRIB_CUSTOM-attrib $-1 -1 $-1 $-1 $72 @22 generic_tag_attrib_def 3 3 -1 @23 generic_tag_attrib_def  1 2 @2 15 0 1 484 0 #
face $178 41745 $-1 $179 $180 $6 $-1 $181 forward single #
cone-surface $-1 -1 $-1 8.7384376759810376 -0.4799999999999999267 -7.224379137106871518 0.9013480114928080766 0 -0.4330955577906113185 -0.02449958446524088881 0.05656854249492410808 -0.05098794329084568172 1 I I 0 1 0.08000000000000001554 forward I I I I #
vertex $-1 42776 $-1 $73 1 $182 #
straight-curve $-1 -1 $-1 10.28096408194291733 -0.3999999999999999112 -5.787186695892930111 0.4330955577906113185 -0 0.9013480114928081877 F -2.339544346971102584 F 2.277568798686663065 #
straight-curve $-1 -1 $-1 9.39594548685140829 -0.3999999999999999112 -7.629066014372475557 -0 1 -0 F -2.74800100000000036 F 0.2480010000000000547 #
ATTRIB_CUSTOM-attrib $-1 -1 $-1 $-1 $78 @22 generic_tag_attrib_def 3 3 -1 @23 generic_tag_attrib_def  1 2 @2 10 0 1 484 0 #
face $183 41736 $-1 $184 $185 $6 $-1 $186 forward single #
loop $-1 -1 $-1 $-1 $131 $78 #
cone-surface $-1 -1 $-1 11.09014169950866879 -0.4799999999999999267 -3.684050506245176493 -0.146444569992600665 0 0.9892188776603904055 0.05595867011771268884 0.05656854249492377501 0.008284155880777160919 1 I I 0 1 0.08000000000000002942 forward I I I I #
coedge $-1 -1 $-1 $187 $188 $189 $190 forward $79 0 $-1 #
coedge $-1 -1 $-1 $188 $187 $81 $130 reversed $79 0 $-1 #
edge $-1 41766 $-1 $121 0 $163 1.570796326794896558 $81 $191 forward @7 tangent #
coedge $-1 -1 $-1 $192 $193 $82 $132 forward $126 0 $-1 #
edge $-1 41764 $-1 $194 0 $138 1.570796326794896558 $131 $195 reversed @7 tangent #
coedge $-1 -1 $-1 $196 $197 $83 $134 forward $185 0 $-1 #
edge $-1 41765 $-1 $139 0 $194 1.570796326794896336 $133 $198 reversed @7 tangent #
coedge $-1 -1 $-1 $199 $84 $200 $201 forward $137 0 $-1 #
coedge $-1 -1 $-1 $84 $199 $202 $203 forward $137 0 $-1 #
loop $-1 -1 $-1 $-1 $199 $204 #
vertex $-1 42774 $-1 $205 0 $206 #
vertex $-1 42773 $-1 $207 1 $208 #
ellipse-curve $-1 -1 $-1 10.4475629111106354 -0.4799999999999999267 0.6565069340176792334 0 1 -0 0.07913751021282955378 0 0.01171556559940789555 1 F -1.439813734663847322 F -0 #
coedge $-1 -1 $-1 $87 $162 $91 $146 reversed $142 0 $-1 #
loop $-1 -1 $-1 $-1 $141 $179 #
straight-curve $-1 -1 $-1 9.502700972394080736 -0.3999999999999999112 -7.591605818076300416 0 -1 0 F -0.2480010000000000547 F 2.74800100000000036 #
point $-1 -1 $-1 9.502700972394080736 -2.81999999999999984 -7.591605818076301304 #
coedge $-1 -1 $-1 $92 $91 $209 $210 forward $93 0 $-1 #
edge $-1 41787 $-1 $89 -1.963471883217488889 $211 1.634543900096740776 $141 $212 forward @7 tangent #
coedge $-1 -1 $-1 $213 $96 $92 $102 reversed $152 0 $-1 #
face $214 41740 $-1 $215 $93 $6 $-1 $216 forward single #
coedge $-1 -1 $-1 $217 $165 $95 $150 reversed $167 0 $-1 #
edge $-1 41793 $-1 $153 -0.785398163397433291 $155 0.7853981633974542742 $149 $218 forward @7 unknown #
coedge $-1 -1 $-1 $96 $219 $217 $220 forward $152 0 $-1 #
loop $-1 -1 $-1 $-1 $221 $222 #
vertex $-1 42791 $-1 $150 0 $223 #
straight-curve $-1 -1 $-1 8.7384376759810376 -2.899999999999999911 -7.224379137106871518 -0.9013480114928080766 -0 0.4330955577906113185 F -1.377596238065790013 F -0.03865840998108720922 #
vertex $-1 42792 $-1 $99 0 $224 #
straight-curve $-1 -1 $-1 8.703790031357788948 -2.81999999999999984 -7.2964869780262962 0.9013480114928080766 0 -0.4330955577906113185 F 0.03865840998108720922 F 1.377596238065790013 #
ATTRIB_CUSTOM-attrib $-1 -1 $-1 $-1 $100 @22 generic_tag_attrib_def 3 3 -1 @23 generic_tag_attrib_def  1 2 @2 13 0 1 484 0 #
cone-surface $-1 -1 $-1 8.7384376759810376 -2.81999999999999984 -7.224379137106871518 0.9013480114928080766 0 -0.4330955577906113185 -0.02449958446524087147 -0.05656854249492414277 -0.05098794329084564009 1 I I 0 1 0.08000000000000000167 forward I I I I #
vertex $-1 42788 $-1 $102 0 $225 #
straight-curve $-1 -1 $-1 10.28096408194291733 -2.899999999999999911 -5.787186695892930111 -0.4330955577906113185 -0 -0.9013480114928081877 F -2.277568798686659068 F 2.339544346971102584 #
coedge $-1 -1 $-1 $104 $226 $188 $227 reversed $115 0 $-1 #
coedge $-1 -1 $-1 $141 $105 $228 $229 reversed $142 0 $-1 #
vertex $-1 42777 $-1 $106 0 $230 #
straight-curve $-1 -1 $-1 10.35307192286234113 -0.4799999999999999267 -5.821834340516178763 -0.4330955577906113185 0 -0.9013480114928081877 F -2.277568798686663065 F 2.339544346971102584 #
coedge $-1 -1 $-1 $149 $108 $110 $169 forward $167 0 $-1 #
coedge $231 -1 $-1 $108 $232 $114 $174 forward $167 0 $-1 #
loop $-1 -1 $-1 $-1 $149 $233 #
ellipse-curve $-1 -1 $-1 9.040146683407064288 -0.4799999999999999267 -7.369349591576741965 0.9013480114928078546 -0 -0.4330955577906119291 -0.02449958446524088881 0.05656854249492410808 -0.05098794329084568172 1 I I #
edge $-1 41810 $-1 $112 0.08000000000000001554 $155 2.419999999999999929 $165 $234 forward @7 unknown #
face $235 41753 $-1 $236 $111 $6 $-1 $237 forward single #
point $-1 -1 $-1 9.005499038783812082 -0.4799999999999999267 -7.44145743249616487 #
ATTRIB_CUSTOM-attrib $-1 -1 $-1 $-1 $114 @17 sketch_attrib_def 1 1 3 @14 2107 0 1 0 1 1 #
coedge $-1 -1 $-1 $238 $114 $239 $240 reversed $115 0 $-1 #
edge $-1 41802 $-1 $241 0.244173476558500524 $116 3.735620536213938525 $114 $242 forward @7 unknown #
coedge $-1 -1 $-1 $226 $238 $196 $243 reversed $115 0 $-1 #
face $244 41748 $-1 $222 $115 $6 $-1 $245 forward single #
point $-1 -1 $-1 9.040146683407060735 -0.3999999999999999112 -7.369349591576741076 #
ATTRIB_CUSTOM-attrib $-1 -1 $-1 $-1 $119 @22 generic_tag_attrib_def 3 3 -1 @23 generic_tag_attrib_def  1 1 @1 1 0 1 483 0 #
face $246 41746 $-1 $247 $142 $6 $-1 $248 forward single #
loop $-1 -1 $-1 $-1 $249 $119 #
cone-surface $-1 -1 $-1 9.979368011216610768 -0.3999999999999999112 -3.828826777117549707 0 -1 0 1.186439872874482715 0 -0.1798900443425980322 1 I I 0 1 1.200000000000000178 forward I I I I #
point $-1 -1 $-1 10.98887778408855631 -0.3999999999999999112 -4.31389380184303306 #
ATTRIB_CUSTOM-attrib $-1 -1 $-1 $-1 $125 @22 generic_tag_attrib_def 3 3 -1 @23 generic_tag_attrib_def  1 1 @1 7 0 1 484 0 #
face $250 41737 $-1 $204 $251 $6 $-1 $252 forward single #
loop $-1 -1 $-1 $-1 $253 $125 #
cone-surface $-1 -1 $-1 10.31197843238395606 -0.4799999999999999267 0.6543386806000817124 -0.9998721540891545301 0 -0.01598985544382106744 -0.0009045228171602221357 0.05656854249492412889 0.05656131043808305253 1 I I 0 1 0.08000000000000001554 forward I I I I #
coedge $-1 -1 $-1 $129 $128 $254 $255 forward $79 0 $-1 #
coedge $-1 -1 $-1 $128 $129 $161 $227 forward $79 0 $-1 #
coedge $-1 -1 $-1 $193 $192 $128 $190 reversed $126 0 $-1 #
edge $-1 41769 $-1 $256 0 $257 1.570796326794896558 $128 $258 forward @7 tangent #
ellipse-curve $-1 -1 $-1 10.98887778408855631 -0.4799999999999999267 -4.31389380184303306 -0.4330955577906219767 0 -0.9013480114928029696 0 0.08000000000000001554 0 1 F 0 F 1.570796326794896558 #
coedge $-1 -1 $-1 $189 $131 $259 $205 forward $126 0 $-1 #
coedge $-1 -1 $-1 $131 $189 $226 $260 forward $126 0 $-1 #
vertex $-1 42775 $-1 $260 1 $261 #
ellipse-curve $-1 -1 $-1 10.44756291111063362 -0.4799999999999999267 0.6565069340176812318 -0.1464445699925877031 0 0.9892188776603922928 0 0.08000000000000001554 0 1 F -1.570796326794896558 F -0 #
coedge $-1 -1 $-1 $253 $133 $175 $243 forward $185 0 $-1 #
coedge $-1 -1 $-1 $133 $253 $262 $207 forward $185 0 $-1 #
ellipse-curve $-1 -1 $-1 10.4475629111106354 -0.4799999999999999267 0.6565069340176802326 0.9998721540891544191 2.220162174302662986e-14 0.01598985544382108479 -0.001279188435505673738 0 0.0799897723271315586 1 F -1.570796326794896336 F -0 #
coedge $-1 -1 $-1 $136 $135 $263 $264 forward $137 0 $-1 #
coedge $-1 -1 $-1 $262 $265 $135 $201 reversed $266 0 $-1 #
edge $-1 41781 $-1 $139 0.08000000000000001554 $267 2.419999999999999929 $200 $268 forward @7 tangent #
coedge $-1 -1 $-1 $269 $259 $136 $203 reversed $270 0 $-1 #
edge $-1 41780 $-1 $271 -2.419999999999999929 $138 -0.08000000000000001554 $202 $272 forward @7 tangent #
face $273 41738 $-1 $274 $137 $6 $-1 $275 forward single #
edge $-1 41772 $-1 $138 -4.387863533830597795 $257 -0.01945135495679985865 $259 $276 forward @7 tangent #
point $-1 -1 $-1 10.52670042132346495 -0.4799999999999999267 0.6682224996170882392 #
edge $-1 41775 $-1 $277 -0.3413917398700738737 $139 0.1356018148642129939 $262 $278 forward @7 tangent #
point $-1 -1 $-1 10.44628372267512972 -0.4799999999999999267 0.7364967063448119022 #
coedge $-1 -1 $-1 $279 $280 $145 $210 reversed $281 0 $-1 #
edge $-1 41785 $-1 $211 0 $159 1.570796326794896558 $145 $282 forward @7 tangent #
vertex $-1 42787 $-1 $229 0 $283 #
straight-curve $-1 -1 $-1 10.35307192286234113 -2.81999999999999984 -5.821834340516178763 0.4330955577906113185 0 0.9013480114928081877 F -2.339544346971102584 F 2.277568798686659068 #
coedge $-1 -1 $-1 $284 $147 $280 $285 reversed $152 0 $-1 #
ATTRIB_CUSTOM-attrib $-1 -1 $-1 $-1 $148 @22 generic_tag_attrib_def 3 3 -1 @23 generic_tag_attrib_def  1 1 @1 3 0 1 484 0 #
face $286 41741 $-1 $287 $281 $6 $-1 $288 forward single #
cone-surface $-1 -1 $-1 10.28096408194291733 -2.81999999999999984 -5.787186695892930111 0.4330955577906113185 0 0.9013480114928081877 0.05098794329084638255 -0.05656854249492357378 -0.02449958446524062861 1 I I 0 1 0.08000000000000000167 forward I I I I #
coedge $-1 -1 $-1 $232 $149 $151 $220 reversed $167 0 $-1 #
ellipse-curve $-1 -1 $-1 9.040146683407064288 -2.81999999999999984 -7.369349591576741965 0.9013480114928078546 -0 -0.4330955577906119291 -0.02449958446524087147 -0.05656854249492414277 -0.05098794329084564009 1 I I #
coedge $-1 -1 $-1 $151 $289 $290 $291 reversed $152 0 $-1 #
edge $-1 41807 $-1 $292 0.244173476558500524 $153 3.735620536213938525 $217 $293 forward @7 unknown #
coedge $-1 -1 $-1 $289 $284 $294 $295 reversed $152 0 $-1 #
face $296 41749 $-1 $297 $152 $6 $-1 $298 forward single #
point $-1 -1 $-1 9.040146683407060735 -2.899999999999999911 -7.369349591576741076 #
point $-1 -1 $-1 9.005499038783812082 -2.81999999999999984 -7.44145743249616487 #
point $-1 -1 $-1 10.98887778408855631 -2.899999999999999911 -4.31389380184303306 #
coedge $-1 -1 $-1 $161 $175 $193 $260 reversed $115 0 $-1 #
edge $-1 41771 $-1 $121 -0.2974487241735365162 $256 0.2974487241735377374 $161 $299 forward @7 tangent #
coedge $-1 -1 $-1 $254 $249 $162 $229 forward $180 0 $-1 #
edge $-1 41799 $-1 $211 -2.419999999999999929 $163 -0.08000000000000001554 $162 $300 forward @7 tangent #
point $-1 -1 $-1 11.0609856250079801 -0.4799999999999999267 -4.348541446466282601 #
ATTRIB_CUSTOM-attrib $-1 -1 $-1 $-1 $166 @17 sketch_attrib_def 1 1 3 @14 2107 0 1 0 1 1 #
coedge $-1 -1 $-1 $166 $217 $301 $302 reversed $167 0 $-1 #
face $303 41752 $-1 $170 $167 $6 $-1 $304 forward single #
straight-curve $-1 -1 $-1 9.005499038783812082 -0.3999999999999999112 -7.44145743249616487 0 -1 0 I I #
ATTRIB_CUSTOM-attrib $305 -1 $-1 $-1 $170 @22 generic_tag_attrib_def 3 3 -1 @23 generic_tag_attrib_def  1 1 @1 7 0 1 479 0 #
face $306 41754 $-1 $-1 $307 $6 $-1 $308 forward single #
plane-surface $-1 -1 $-1 9.005499038783812082 -0.3999999999999999112 -7.44145743249616487 -0.4330955577906113185 0 -0.9013480114928080766 0.9013480114928080766 0 -0.4330955577906113185 forward_v I I I I #
coedge $309 -1 $-1 $175 $173 $310 $311 reversed $115 0 $-1 #
coedge $-1 -1 $-1 $301 $312 $173 $240 forward $313 0 $-1 #
edge $-1 41803 $-1 $314 -0.2962359928971164957 $241 0.296235992897117717 $239 $315 forward @7 unknown #
vertex $-1 42795 $-1 $174 0 $316 #
straight-curve $-1 -1 $-1 10.65802734323270151 -0.3999999999999999112 -4.002255449568611567 -0.4330955577906119291 0 -0.9013480114928078546 F 0 F 3.815620536213937708 #
edge $-1 41776 $-1 $194 -0.1356018148642112175 $317 0.3310501349543389926 $175 $318 forward @7 tangent #
ATTRIB_CUSTOM-attrib $319 -1 $-1 $-1 $176 @22 generic_tag_attrib_def 3 3 -1 @23 generic_tag_attrib_def  1 1 @1 1 0 1 479 0 #
plane-surface $-1 -1 $-1 10.1721182141147839 -0.3999999999999999112 -3.467757886597336192 0 1 0 0.9996573249755573709 0 -0.02617694830787315602 forward_v I I I I #
ATTRIB_CUSTOM-attrib $320 -1 $-1 $-1 $179 @22 generic_tag_attrib_def 3 3 -1 @23 generic_tag_attrib_def  1 1 @1 8 0 1 479 0 #
face $321 41747 $-1 $176 $266 $6 $-1 $322 forward single #
plane-surface $-1 -1 $-1 9.468053327770832084 -0.3999999999999999112 -7.663713658995724209 0.9013480114928081877 0 -0.4330955577906113185 0.4330955577906113185 0 0.9013480114928081877 forward_v I I I I #
coedge $-1 -1 $-1 $228 $323 $279 $324 reversed $180 0 $-1 #
ATTRIB_CUSTOM-attrib $-1 -1 $-1 $-1 $184 @22 generic_tag_attrib_def 3 3 -1 @23 generic_tag_attrib_def  1 1 @1 6 0 1 484 0 #
loop $-1 -1 $-1 $-1 $325 $184 #
sphere-surface $-1 -1 $-1 10.4475629111106354 -2.81999999999999984 0.6565069340176792334 0.08000000000000032085 0.5389211383406607991 -0.5537454453559862433 0.6347676648956740442 -0.3583885452898202817 -0.8326860042942360041 -0.4221275504602204909 forward_v I I I I #
coedge $-1 -1 $-1 $197 $196 $326 $327 forward $185 0 $-1 #
coedge $-1 -1 $-1 $323 $228 $187 $255 reversed $180 0 $-1 #
edge $-1 41770 $-1 $257 -0.2974487241735375154 $163 0.2974487241735374043 $254 $328 forward @7 tangent #
vertex $-1 42778 $-1 $227 1 $329 #
vertex $-1 42779 $-1 $330 0 $331 #
ellipse-curve $-1 -1 $-1 11.08729315419624761 -0.4799999999999999267 -3.664808858725836949 0.1464445699925985556 -0 -0.9892188776603907385 0 0.08000000000000001554 0 1 F 0 F 1.570796326794896558 #
coedge $-1 -1 $-1 $202 $332 $192 $205 reversed $270 0 $-1 #
edge $-1 41773 $-1 $256 0.01945135495679985865 $194 4.387863533830597795 $226 $333 forward @7 tangent #
point $-1 -1 $-1 10.44756291111063362 -0.3999999999999999112 0.6565069340176802326 #
coedge $-1 -1 $-1 $334 $200 $197 $207 reversed $266 0 $-1 #
coedge $-1 -1 $-1 $335 $325 $199 $264 reversed $251 0 $-1 #
edge $-1 41778 $-1 $267 0 $271 1.439813734663847322 $199 $336 reversed @7 tangent #
coedge $-1 -1 $-1 $200 $334 $337 $338 reversed $266 0 $-1 #
loop $-1 -1 $-1 $-1 $265 $247 #
vertex $-1 42784 $-1 $201 1 $339 #
straight-curve $-1 -1 $-1 10.44628372267512972 -0.3999999999999999112 0.7364967063448119022 0 -1 0 F -0.2480010000000000547 F 2.74800100000000036 #
coedge $-1 -1 $-1 $332 $202 $340 $341 reversed $270 0 $-1 #
loop $-1 -1 $-1 $-1 $269 $297 #
vertex $-1 42783 $-1 $203 0 $342 #
straight-curve $-1 -1 $-1 10.52670042132346495 -0.3999999999999999112 0.668222499617087129 -0 1 -0 F -2.74800100000000036 F 0.2480010000000000547 #
ATTRIB_CUSTOM-attrib $-1 -1 $-1 $-1 $204 @22 generic_tag_attrib_def 3 3 -1 @23 generic_tag_attrib_def  1 1 @1 2 0 1 484 0 #
face $343 41739 $-1 $148 $344 $6 $-1 $345 forward single #
cone-surface $-1 -1 $-1 10.4475629111106354 -0.3999999999999999112 0.6565069340176792334 0 -1 0 0.05177664911492752681 0 0.06098506871710220045 1 I I 0 1 0.08000000000000001554 forward I I I I #
straight-curve $-1 -1 $-1 11.16927920972150012 -0.4799999999999999267 -3.672334940645768597 0.1464445699926006372 -0 -0.9892188776603902944 F -4.71881912363997813 F 1.601732214024213174 #
vertex $-1 42781 $-1 $346 0 $347 #
straight-curve $-1 -1 $-1 10.31069924394845039 -0.4799999999999999267 0.734328452927213271 0.9998721540891545301 -0 0.01598985544382106744 F -1.394658695011324667 F 0.9555127372288696463 #
coedge $-1 -1 $-1 $348 $209 $249 $324 forward $281 0 $-1 #
coedge $-1 -1 $-1 $209 $348 $213 $285 forward $281 0 $-1 #
loop $-1 -1 $-1 $-1 $348 $215 #
ellipse-curve $-1 -1 $-1 10.98887778408855631 -2.81999999999999984 -4.31389380184303306 -0.4330955577906218656 -0 -0.9013480114928029696 0.07210784091942379348 0 -0.03464764462324954053 1 F 0 F 1.570796326794896558 #
point $-1 -1 $-1 11.0609856250079801 -2.81999999999999984 -4.348541446466282601 #
coedge $-1 -1 $-1 $221 $213 $349 $350 reversed $152 0 $-1 #
edge $-1 41789 $-1 $351 -0.2974487241735377374 $159 0.2974487241735365162 $213 $352 forward @7 tangent #
ATTRIB_CUSTOM-attrib $-1 -1 $-1 $-1 $215 @22 generic_tag_attrib_def 3 3 -1 @23 generic_tag_attrib_def  1 1 @1 4 0 1 484 0 #
face $353 41742 $-1 $100 $354 $6 $-1 $355 forward single #
torus-surface $-1 -1 $-1 9.979368011216610768 -2.81999999999999984 -3.828826777117549707 -0 1 -0 1.120000000000000107 0.08000000000000001554 0 0 1 forward_v I I I I #
coedge $-1 -1 $-1 $219 $221 $356 $357 forward $152 0 $-1 #
coedge $-1 -1 $-1 $312 $301 $219 $291 forward $313 0 $-1 #
edge $-1 41806 $-1 $292 -0.296235992897117717 $358 0.2962359928971164957 $290 $359 forward @7 unknown #
vertex $-1 42798 $-1 $220 0 $360 #
straight-curve $-1 -1 $-1 10.65802734323270151 -2.899999999999999911 -4.002255449568611567 -0.4330955577906119291 0 -0.9013480114928078546 I I #
coedge $-1 -1 $-1 $361 $362 $221 $295 forward $344 0 $-1 #
edge $-1 41783 $-1 $363 -0.3310501349543389926 $364 0.1356018148642112453 $221 $365 forward @7 tangent #
ATTRIB_CUSTOM-attrib $366 -1 $-1 $-1 $222 @22 generic_tag_attrib_def 3 3 -1 @23 generic_tag_attrib_def  1 1 @1 2 0 1 479 0 #
face $367 41750 $-1 $368 $270 $6 $-1 $369 forward single #
plane-surface $-1 -1 $-1 10.1721182141147839 -2.899999999999999911 -3.467757886597336192 0 -1 0 -0.02617694830787315602 0 -0.9996573249755573709 forward_v I I I I #
ellipse-curve $-1 -1 $-1 9.979368011216610768 -0.3999999999999999112 -3.828826777117549707 -0 -1 -0 1.107343881349517112 0 -0.1678973747197581579 1 F -0.3291698702130383403 F 0.3881842409213476786 #
straight-curve $-1 -1 $-1 11.0609856250079801 -0.3999999999999999112 -4.348541446466282601 -0 1 -0 F -6.220001000000001667 F 3.720001000000000779 #
coedge $-1 -1 $-1 $290 $239 $232 $302 forward $313 0 $-1 #
edge $-1 41808 $-1 $241 0 $292 2.5 $232 $370 forward @7 tangent #
ATTRIB_CUSTOM-attrib $371 -1 $-1 $-1 $233 @22 generic_tag_attrib_def 3 3 -1 @23 generic_tag_attrib_def  1 1 @1 6 0 1 479 0 #
plane-surface $-1 -1 $-1 10.65802734323270151 -0.3999999999999999112 -4.002255449568611567 -0.9013480114928078546 0 0.4330955577906119291 -0.4330955577906119291 0 -0.9013480114928078546 forward_v I I I I #
ATTRIB_CUSTOM-attrib $-1 -1 $-1 $-1 $235 @22 generic_tag_attrib_def 3 3 -1 @23 generic_tag_attrib_def  1 0 @0  0 1 481 0 #
ATTRIB_CUSTOM-attrib $372 -1 $-1 $-1 $236 @22 generic_tag_attrib_def 3 3 -1 @23 generic_tag_attrib_def  1 1 @1 5 0 1 479 0 #
loop $-1 -1 $-1 $-1 $373 $236 #
plane-surface $-1 -1 $-1 9.969351149616315411 -0.3999999999999999112 0.7288696483569762075 -0.9895711634118046218 0 -0.1440448282438756 0.1440448282438756 0 -0.9895711634118046218 forward_v I I I I #
ATTRIB_CUSTOM-attrib $-1 -1 $-1 $-1 $238 @17 sketch_attrib_def 1 1 3 @14 2099 0 1 0 1 1 #
coedge $374 -1 $-1 $375 $326 $238 $311 forward $307 0 $-1 #
edge $-1 41804 $-1 $317 0.08066566055164380022 $314 4.536811734867630008 $238 $376 forward @7 unknown #
coedge $-1 -1 $-1 $239 $290 $375 $377 forward $313 0 $-1 #
loop $-1 -1 $-1 $-1 $239 $368 #
vertex $-1 42796 $-1 $311 1 $378 #
ellipse-curve $-1 -1 $-1 9.831198486010677584 -0.3999999999999999112 -3.87586428089141144 0 1 0 0.7908138947908265326 0 -0.1208858296317796843 1 I I #
point $-1 -1 $-1 10.5522768952049244 -0.3999999999999999112 -4.222340727123901516 #
vertex $-1 42780 $-1 $311 0 $379 #
straight-curve $-1 -1 $-1 10.31197843238395606 -0.3999999999999999112 0.6543386806000817124 -0.9998721540891545301 0 -0.01598985544382106744 F -0.9555127372288696463 F 1.394658695011324667 #
ATTRIB_CUSTOM-attrib $-1 -1 $-1 $-1 $244 @22 generic_tag_attrib_def 3 3 -1 @23 generic_tag_attrib_def  1 0 @0  0 1 481 0 #
ATTRIB_CUSTOM-attrib $-1 -1 $-1 $-1 $246 @22 generic_tag_attrib_def 3 3 -1 @23 generic_tag_attrib_def  1 0 @0  0 1 481 0 #
ATTRIB_CUSTOM-attrib $380 -1 $-1 $-1 $247 @22 generic_tag_attrib_def 3 3 -1 @23 generic_tag_attrib_def  1 1 @1 4 0 1 479 0 #
plane-surface $-1 -1 $-1 10.51642700507961337 -0.3999999999999999112 0.7376184306986863781 -0.01598985544382106744 0 0.9998721540891545301 -0.9998721540891545301 0 -0.01598985544382106744 forward_v I I I I #
coedge $-1 -1 $-1 $249 $254 $332 $330 forward $180 0 $-1 #
edge $-1 41790 $-1 $211 -0.2974487241735374043 $381 0.2974487241735375154 $249 $382 forward @7 tangent #
coedge $-1 -1 $-1 $263 $335 $383 $384 reversed $251 0 $-1 #
coedge $-1 -1 $-1 $310 $385 $253 $327 reversed $307 0 $-1 #
edge $-1 41774 $-1 $317 -1.570796326794907216 $277 -1.084202172485503961e-14 $326 $386 forward @7 unknown #
ellipse-curve $-1 -1 $-1 9.979368011216610768 -0.4799999999999999267 -3.828826777117549707 0 1 0 1.186439872874482715 0 -0.1798900443425980322 1 F -0.3881842409213476786 F 0.3291698702130383403 #
point $-1 -1 $-1 11.08729315419624761 -0.3999999999999999112 -3.664808858725836949 #
edge $-1 41800 $-1 $257 0.08000000000000001554 $381 2.419999999999999929 $332 $387 forward @7 tangent #
point $-1 -1 $-1 11.16643066440907894 -0.4799999999999999267 -3.653093293126429053 #
coedge $-1 -1 $-1 $259 $269 $323 $330 reversed $270 0 $-1 #
straight-curve $-1 -1 $-1 11.09014169950866879 -0.3999999999999999112 -3.684050506245176493 -0.1464445699926006372 0 0.9892188776603902944 F -1.601732214024213174 F 4.71881912363997813 #
coedge $-1 -1 $-1 $265 $262 $385 $346 forward $266 0 $-1 #
coedge $-1 -1 $-1 $325 $263 $361 $388 reversed $251 0 $-1 #
ellipse-curve $-1 -1 $-1 10.4475629111106354 -2.81999999999999984 0.6565069340176792334 0 -1 0 -0.001279188435505673738 0 0.07998977232713266883 1 F -1.439813734663847322 F -0 #
coedge $-1 -1 $-1 $362 $361 $265 $338 forward $344 0 $-1 #
edge $-1 41784 $-1 $267 -0.1356018148642129939 $389 0.3413917398700738737 $265 $390 forward @7 tangent #
point $-1 -1 $-1 10.44628372267512972 -2.81999999999999984 0.7364967063448117912 #
coedge $-1 -1 $-1 $383 $391 $269 $341 forward $354 0 $-1 #
edge $-1 41792 $-1 $381 0.01945135495679985865 $271 4.387863533830596907 $269 $392 forward @7 tangent #
point $-1 -1 $-1 10.52670042132346495 -2.81999999999999984 0.668222499617087129 #
ATTRIB_CUSTOM-attrib $-1 -1 $-1 $-1 $274 @22 generic_tag_attrib_def 3 3 -1 @23 generic_tag_attrib_def  1 1 @1 1 0 1 484 0 #
loop $-1 -1 $-1 $-1 $362 $274 #
cone-surface $-1 -1 $-1 10.31197843238395606 -2.81999999999999984 0.6543386806000812683 -0.9998721540891545301 -0 -0.01598985544382106744 -0.0009045228171602189915 -0.05656854249492401093 0.05656131043808315662 1 I I 0 1 0.08000000000000000167 forward I I I I #
edge $-1 41801 $-1 $277 0.08000000000000001554 $389 2.419999999999999929 $334 $393 forward @7 unknown #
point $-1 -1 $-1 9.969351149616315411 -0.4799999999999999267 0.7288696483569762075 #
coedge $-1 -1 $-1 $280 $279 $391 $394 forward $281 0 $-1 #
coedge $-1 -1 $-1 $391 $383 $284 $350 forward $354 0 $-1 #
edge $-1 41791 $-1 $364 -4.387863533830597795 $351 -0.01945135495679985865 $284 $395 forward @7 tangent #
vertex $-1 42790 $-1 $285 0 $396 #
ellipse-curve $-1 -1 $-1 9.979368011216610768 -2.899999999999999911 -3.828826777117549707 -0 1 -0 1.107343881349517112 0 -0.1678973747197581579 1 F -0.3881842409213476786 F 0.3291698702130383403 #
ATTRIB_CUSTOM-attrib $-1 -1 $-1 $-1 $287 @22 generic_tag_attrib_def 3 3 -1 @23 generic_tag_attrib_def  1 1 @1 5 0 1 484 0 #
loop $-1 -1 $-1 $-1 $383 $287 #
cone-surface $-1 -1 $-1 11.09014169950866879 -2.81999999999999984 -3.684050506245176493 -0.146444569992600665 0 0.9892188776603904055 0.05595867011771265415 -0.0565685424949238097 0.008284155880777155714 1 I I 0 1 0.08000000000000002942 forward I I I I #
coedge $-1 -1 $-1 $373 $375 $289 $357 reversed $307 0 $-1 #
edge $-1 41805 $-1 $363 0.08066566055164424431 $358 4.536811734867630008 $356 $397 forward @7 unknown #
vertex $-1 42797 $-1 $291 1 $398 #
ellipse-curve $-1 -1 $-1 9.831198486010677584 -2.899999999999999911 -3.87586428089141144 0 -1 0 0.7908138947908265326 0 -0.1208858296317796843 1 I I #
point $-1 -1 $-1 10.5522768952049244 -2.899999999999999911 -4.222340727123901516 #
coedge $-1 -1 $-1 $337 $294 $335 $388 forward $344 0 $-1 #
coedge $-1 -1 $-1 $294 $337 $373 $399 forward $344 0 $-1 #
vertex $-1 42786 $-1 $357 0 $400 #
vertex $-1 42782 $-1 $295 1 $401 #
straight-curve $-1 -1 $-1 10.31197843238395606 -2.899999999999999911 0.6543386806000812683 0.9998721540891545301 -0 0.01598985544382106744 F -1.394658695011324667 F 0.95551273722886787 #
ATTRIB_CUSTOM-attrib $-1 -1 $-1 $-1 $296 @22 generic_tag_attrib_def 3 3 -1 @23 generic_tag_attrib_def  1 0 @0  0 1 481 0 #
ATTRIB_CUSTOM-attrib $402 -1 $-1 $-1 $297 @22 generic_tag_attrib_def 3 3 -1 @23 generic_tag_attrib_def  1 1 @1 3 0 1 479 0 #
face $403 41751 $-1 $233 $313 $6 $-1 $404 forward single #
plane-surface $-1 -1 $-1 11.22030054140328481 -0.3999999999999999112 -4.016979091436361671 0.9892188776603902944 0 0.1464445699926006372 -0.146444569992600665 0 0.9892188776603905165 forward_v I I I I #
straight-curve $-1 -1 $-1 10.5522768952049244 -0.3999999999999999112 -4.222340727123901516 0 -1 -0 F -2.480001000000000122 F 4.980000999999999678 #
ATTRIB_CUSTOM-attrib $-1 -1 $-1 $-1 $303 @22 generic_tag_attrib_def 3 3 -1 @23 generic_tag_attrib_def  1 0 @0  0 1 481 0 #
ATTRIB_CUSTOM-attrib $-1 -1 $-1 $-1 $306 @22 generic_tag_attrib_def 3 3 -1 @23 generic_tag_attrib_def  1 0 @0  0 1 481 0 #
coedge $-1 -1 $-1 $385 $356 $362 $399 reversed $307 0 $-1 #
ATTRIB_CUSTOM-attrib $-1 -1 $-1 $-1 $310 @17 sketch_attrib_def 1 1 3 @14 2099 0 1 0 1 1 #
coedge $-1 -1 $-1 $356 $310 $312 $377 reversed $307 0 $-1 #
straight-curve $-1 -1 $-1 9.969351149616315411 -0.3999999999999999112 0.7288696483569762075 0.1440448282438756 0 -0.9895711634118046218 F 0 F 4.780985211426128423 #
edge $-1 41809 $-1 $358 -2.5 $314 0 $375 $405 forward @7 tangent #
point $-1 -1 $-1 10.62285541674012279 -0.3999999999999999112 -3.760628418296311448 #
point $-1 -1 $-1 9.980970620835655893 -0.3999999999999999112 0.6490452367975043657 #
ATTRIB_CUSTOM-attrib $-1 -1 $-1 $-1 $321 @22 generic_tag_attrib_def 3 3 -1 @23 generic_tag_attrib_def  1 0 @0  0 1 481 0 #
vertex $-1 42789 $-1 $324 1 $406 #
ellipse-curve $-1 -1 $-1 9.979368011216610768 -2.81999999999999984 -3.828826777117549707 0 -1 0 1.186439872874482715 0 -0.1798900443425980322 1 F -0.3291698702130383403 F 0.3881842409213476786 #
coedge $-1 -1 $-1 $349 $340 $325 $384 forward $354 0 $-1 #
edge $-1 41777 $-1 $271 -0 $364 1.570796326794896558 $383 $407 reversed @7 tangent #
coedge $-1 -1 $-1 $326 $373 $334 $346 reversed $307 0 $-1 #
ellipse-curve $-1 -1 $-1 9.980970620835655893 -0.4799999999999999267 0.6490452367975043657 0.9895711634118046218 -0 0.1440448282438756 -0.0116194712193404201 -8.673617379884035472e-16 0.07982441155947267442 0.9917479067661213454 I I #
straight-curve $-1 -1 $-1 11.16643066440907894 -0.3999999999999999112 -3.653093293126429053 0 -1 0 F -3.720001000000000779 F 6.220001000000001667 #
edge $-1 41779 $-1 $364 6.938006794695818281e-15 $267 1.570796326794896558 $361 $408 reversed @7 tangent #
vertex $-1 42785 $-1 $338 1 $409 #
straight-curve $-1 -1 $-1 10.31069924394845039 -2.81999999999999984 0.734328452927213271 -0.9998721540891545301 -0 -0.01598985544382106744 F -0.95551273722886787 F 1.394658695011324667 #
coedge $-1 -1 $-1 $340 $349 $348 $394 reversed $354 0 $-1 #
straight-curve $-1 -1 $-1 11.16927920972150012 -2.81999999999999984 -3.672334940645768597 -0.1464445699926006372 0 0.9892188776603902944 F -1.601732214024213174 F 4.71881912363997813 #
straight-curve $-1 -1 $-1 9.969351149616315411 -0.3999999999999999112 0.7288696483569762075 0 -1 0 I I #
edge $-1 41788 $-1 $381 0 $351 1.570796326794896558 $348 $410 forward @7 tangent #
straight-curve $-1 -1 $-1 11.09014169950866879 -2.899999999999999911 -3.684050506245176493 0.1464445699926006372 -0 -0.9892188776603902944 F -4.71881912363997813 F 1.601732214024213174 #
point $-1 -1 $-1 11.08729315419624761 -2.899999999999999911 -3.664808858725836949 #
straight-curve $-1 -1 $-1 9.969351149616315411 -2.899999999999999911 0.7288696483569762075 0.1440448282438756 0 -0.9895711634118046218 I I #
point $-1 -1 $-1 10.62285541674012279 -2.899999999999999911 -3.760628418296311448 #
edge $-1 41782 $-1 $389 1.275021754842952899e-14 $363 1.570796326794909215 $373 $411 forward @7 unknown #
point $-1 -1 $-1 9.980970620835655893 -2.899999999999999911 0.6490452367975039216 #
point $-1 -1 $-1 10.44756291111063362 -2.899999999999999911 0.6565069340176803436 #
ATTRIB_CUSTOM-attrib $-1 -1 $-1 $-1 $367 @22 generic_tag_attrib_def 3 3 -1 @23 generic_tag_attrib_def  1 0 @0  0 1 481 0 #
ATTRIB_CUSTOM-attrib $-1 -1 $-1 $-1 $368 @22 generic_tag_attrib_def 3 3 -1 @23 generic_tag_attrib_def  1 1 @1 1 0 1 482 0 #
cone-surface $-1 -1 $-1 9.831198486010677584 -0.3999999999999999112 -3.87586428089141144 -0 -1 -0 0.7908138947908265326 0 -0.1208858296317796843 1 I I 0 -1 0.8000000000000000444 forward I I I I #
straight-curve $-1 -1 $-1 10.62285541674012279 -0.3999999999999999112 -3.760628418296311004 -0 1 -0 F -4.980000999999999678 F 2.480001000000000122 #
point $-1 -1 $-1 11.16643066440907894 -2.81999999999999984 -3.653093293126429053 #
ellipse-curve $-1 -1 $-1 10.44756291111063362 -2.81999999999999984 0.6565069340176803436 -0.1464445699925985556 0 0.9892188776603907385 0.07913751021283133014 0 0.01171556559940789555 1 F -1.570796326794896558 F -0 #
ellipse-curve $-1 -1 $-1 10.44756291111063362 -2.81999999999999984 0.6565069340176797885 0.9998721540891547521 0 0.01598985544379879359 0 -0.08000000000000007105 0 1 F -1.570796326794896558 F -0 #
point $-1 -1 $-1 9.969351149616315411 -2.81999999999999984 0.7288696483569762075 #
ellipse-curve $-1 -1 $-1 11.08729315419624761 -2.81999999999999984 -3.664808858725836949 0.1464445699925985556 -0 -0.9892188776603907385 0.07913751021283133014 0 0.01171556559940789555 1 F 0 F 1.570796326794896558 #
ellipse-curve $-1 -1 $-1 9.980970620835655893 -2.81999999999999984 0.6490452367975039216 0.9895711634118046218 -0 0.1440448282438756 -0.01161947121934041836 1.020017403874362572e-15 0.07982441155947267442 0.9917479067661212344 I I #
End-of-ASM-data 