22700 0 2 4           
16 Autodesk Neutron 20 ASM 227.1.1.65535 NT 24 Thu Aug 26 01:27:25 2021 
10 9.999999999999999547e-07 1.000000000000000036e-10 
asmheader $-1 -1 @13 227.1.1.65535 #
body $2 42037 $-1 $3 $-1 $4 #
ATTRIB_CUSTOM-attrib $-1 -1 $5 $-1 $1 @20 Timestamp_attrib_def 1 1534146679064666 #
lump $-1 -1 $-1 $-1 $6 $1 #
transform $-1 -1 1 0 0 0 1 0 0 0 1 0 0 0 1 no_rotate no_reflect no_shear #
ATTRIB_CUSTOM-attrib $7 -1 $-1 $2 $1 @22 generic_tag_attrib_def 3 3 -1 @23 generic_tag_attrib_def  1 3 @3 467 3 0 0 #
shell $-1 -1 $-1 $-1 $-1 $8 $-1 $3 #
ATTRIB_CUSTOM-attrib $-1 -1 $-1 $-1 $5 @22 generic_tag_attrib_def 3 3 -1 @23 generic_tag_attrib_def  1 0 @0  0 1 468 0 #
face $9 41633 $-1 $10 $11 $6 $-1 $12 forward single #
ATTRIB_CUSTOM-attrib $13 -1 $-1 $-1 $8 @22 generic_tag_attrib_def 3 3 -1 @23 generic_tag_attrib_def  1 1 @1 2 0 1 467 0 #
face $14 41634 $-1 $15 $16 $6 $-1 $17 reversed single #
loop $-1 -1 $-1 $-1 $18 $8 #
plane-surface $-1 -1 $-1 5.492652766422460253 -1.443586607255089804 1.192578367304282239 0.08682408883346517947 0.0871557427476580826 0.9924038765061040657 0.007596123493896111273 -0.9961946980917455452 0.08682408883346506845 forward_v I I I I #
ATTRIB_CUSTOM-attrib $-1 -1 $-1 $-1 $9 @22 generic_tag_attrib_def 3 3 -1 @23 generic_tag_attrib_def  1 0 @0  0 1 468 0 #
ATTRIB_CUSTOM-attrib $19 -1 $-1 $-1 $10 @22 generic_tag_attrib_def 3 3 -1 @23 generic_tag_attrib_def  1 1 @1 1 0 1 467 0 #
face $20 41635 $-1 $21 $22 $6 $-1 $23 reversed single #
loop $-1 -1 $-1 $-1 $24 $10 #
plane-surface $-1 -1 $-1 5.423193495355688398 -1.513311201453216182 0.3986552660993989416 0.08682408883346517947 0.0871557427476580826 0.9924038765061040657 0.007596123493896111273 -0.9961946980917455452 0.08682408883346506845 forward_v I I I I #
coedge $-1 -1 $-1 $25 $26 $27 $28 forward $11 0 $-1 #
ATTRIB_CUSTOM-attrib $-1 -1 $-1 $-1 $14 @22 generic_tag_attrib_def 3 3 -1 @23 generic_tag_attrib_def  1 0 @0  0 1 468 0 #
ATTRIB_CUSTOM-attrib $29 -1 $-1 $-1 $15 @22 generic_tag_attrib_def 3 3 -1 @23 generic_tag_attrib_def  1 1 @1 6 0 1 467 0 #
face $30 41636 $-1 $31 $32 $6 $-1 $33 reversed single #
loop $-1 -1 $-1 $-1 $34 $15 #
plane-surface $-1 -1 $-1 0.9750469894762192613 -1.478448904354153548 1.187817659066302323 0.9961946980917455452 1.483338005154500404e-16 -0.08715574274765819363 0.08682408883346517947 0.0871557427476580826 0.9924038765061040657 forward_v I I I I #
coedge $-1 -1 $-1 $35 $36 $37 $38 forward $16 0 $-1 #
coedge $-1 -1 $-1 $39 $18 $40 $41 forward $11 0 $-1 #
coedge $-1 -1 $-1 $18 $39 $42 $43 forward $11 0 $-1 #
coedge $-1 -1 $-1 $44 $45 $18 $28 reversed $46 0 $-1 #
edge $-1 41639 $-1 $47 -4.5 $48 4.5 $27 $49 forward @7 unknown #
ATTRIB_CUSTOM-attrib $-1 -1 $-1 $-1 $20 @22 generic_tag_attrib_def 3 3 -1 @23 generic_tag_attrib_def  1 0 @0  0 1 468 0 #
ATTRIB_CUSTOM-attrib $50 -1 $-1 $-1 $21 @22 generic_tag_attrib_def 3 3 -1 @23 generic_tag_attrib_def  1 1 @1 4 0 1 467 0 #
face $51 41637 $-1 $52 $53 $6 $-1 $54 reversed single #
loop $-1 -1 $-1 $-1 $55 $21 #
plane-surface $-1 -1 $-1 5.446528945648230646 0.0158431427834653249 0.6653806834516430291 0.007596123493896111273 -0.9961946980917455452 0.08682408883346506845 -0.08682408883346517947 -0.0871557427476580826 -0.9924038765061040657 forward_v I I I I #
coedge $-1 -1 $-1 $56 $42 $57 $58 forward $22 0 $-1 #
coedge $-1 -1 $-1 $59 $24 $56 $60 forward $16 0 $-1 #
coedge $-1 -1 $-1 $24 $59 $61 $62 forward $16 0 $-1 #
coedge $-1 -1 $-1 $45 $44 $24 $38 reversed $46 0 $-1 #
edge $-1 41643 $-1 $63 -4.5 $64 4.5 $37 $65 forward @7 unknown #
coedge $-1 -1 $-1 $26 $25 $66 $67 forward $11 0 $-1 #
coedge $-1 -1 $-1 $68 $69 $25 $41 reversed $53 0 $-1 #
edge $-1 41640 $-1 $48 -1.5 $70 1.5 $40 $71 forward @7 unknown #
coedge $-1 -1 $-1 $34 $72 $26 $43 reversed $22 0 $-1 #
edge $-1 41642 $-1 $73 -1.5 $47 1.5 $42 $74 forward @7 unknown #
coedge $-1 -1 $-1 $37 $27 $72 $75 forward $46 0 $-1 #
coedge $-1 -1 $-1 $27 $37 $68 $76 reversed $46 0 $-1 #
loop $-1 -1 $-1 $-1 $44 $52 #
vertex $-1 42759 $-1 $28 0 $77 #
vertex $-1 42760 $-1 $28 1 $78 #
straight-curve $-1 -1 $-1 5.504046951663304377 -2.937878654392708011 1.3228145005544798 0.9961946980917455452 1.483338005154500404e-16 -0.08715574274765819363 I I #
ATTRIB_CUSTOM-attrib $-1 -1 $-1 $-1 $30 @22 generic_tag_attrib_def 3 3 -1 @23 generic_tag_attrib_def  1 0 @0  0 1 468 0 #
ATTRIB_CUSTOM-attrib $79 -1 $-1 $-1 $31 @22 generic_tag_attrib_def 3 3 -1 @23 generic_tag_attrib_def  1 1 @1 5 0 1 467 0 #
face $80 41638 $-1 $-1 $46 $6 $-1 $81 reversed single #
loop $-1 -1 $-1 $-1 $68 $31 #
plane-surface $-1 -1 $-1 9.9407992723019305 -1.478448904354152216 0.4034159743373787466 -0.9961946980917455452 -1.483338005154500404e-16 0.08715574274765819363 -0.08682408883346517947 -0.0871557427476580826 -0.9924038765061040657 forward_v I I I I #
coedge $-1 -1 $-1 $82 $66 $69 $83 forward $32 0 $-1 #
coedge $-1 -1 $-1 $72 $34 $35 $60 reversed $22 0 $-1 #
coedge $-1 -1 $-1 $66 $82 $34 $58 reversed $32 0 $-1 #
edge $-1 41647 $-1 $73 -0.4000000000000000222 $84 0.4000000000000000222 $57 $85 forward @7 unknown #
coedge $-1 -1 $-1 $36 $35 $82 $86 forward $16 0 $-1 #
edge $-1 41644 $-1 $64 -1.5 $84 1.5 $56 $87 forward @7 unknown #
coedge $-1 -1 $-1 $69 $68 $36 $62 reversed $53 0 $-1 #
edge $-1 41646 $-1 $88 -1.5 $63 1.5 $61 $89 forward @7 unknown #
vertex $-1 42763 $-1 $38 0 $90 #
vertex $-1 42764 $-1 $75 1 $91 #
straight-curve $-1 -1 $-1 5.434587680596532522 -3.00760324859083461 0.5288913993495965027 -0.9961946980917455452 -1.483338005154500404e-16 0.08715574274765819363 I I #
coedge $-1 -1 $-1 $55 $57 $39 $67 reversed $32 0 $-1 #
edge $-1 41641 $-1 $70 -4.5 $73 4.5 $66 $92 forward @7 unknown #
coedge $-1 -1 $-1 $61 $40 $45 $76 forward $53 0 $-1 #
coedge $-1 -1 $-1 $40 $61 $55 $83 reversed $53 0 $-1 #
vertex $-1 42761 $-1 $41 1 $93 #
straight-curve $-1 -1 $-1 9.975528907835316872 -1.443586607255089138 0.800377524939820395 -0.007596123493896111273 0.9961946980917455452 -0.08682408883346506845 I I #
coedge $-1 -1 $-1 $42 $56 $44 $75 reversed $22 0 $-1 #
vertex $-1 42762 $-1 $67 1 $94 #
straight-curve $-1 -1 $-1 1.009776625009605189 -1.44358660725509047 1.584779209668744082 0.007596123493896111273 -0.9961946980917455452 0.08682408883346506845 I I #
edge $-1 41648 $-1 $47 -0.4000000000000000222 $64 0.4000000000000000222 $44 $95 forward @7 unknown #
edge $-1 41650 $-1 $48 -0.4000000000000000222 $63 0.4000000000000000222 $45 $96 forward @7 unknown #
point $-1 -1 $-1 1.021170810250449312 -2.937878654392708899 1.715015342918941865 #
point $-1 -1 $-1 9.986923093076159219 -2.937878654392707567 0.9306136581900180671 #
ATTRIB_CUSTOM-attrib $-1 -1 $-1 $-1 $51 @22 generic_tag_attrib_def 3 3 -1 @23 generic_tag_attrib_def  1 0 @0  0 1 468 0 #
ATTRIB_CUSTOM-attrib $97 -1 $-1 $-1 $52 @22 generic_tag_attrib_def 3 3 -1 @23 generic_tag_attrib_def  1 1 @1 3 0 1 467 0 #
plane-surface $-1 -1 $-1 5.469317316129918893 -2.972740951491771533 0.9258529499520382622 -0.007596123493896111273 0.9961946980917455452 -0.08682408883346506845 0.08682408883346517947 0.0871557427476580826 0.9924038765061040657 forward_v I I I I #
coedge $-1 -1 $-1 $57 $55 $59 $86 reversed $32 0 $-1 #
edge $-1 41649 $-1 $70 -0.4000000000000000222 $88 0.4000000000000000222 $69 $98 forward @7 unknown #
vertex $-1 42765 $-1 $86 0 $99 #
straight-curve $-1 -1 $-1 0.9636528042353753598 0.01584314278346465876 1.057581525816104762 -0.08682408883346517947 -0.0871557427476580826 -0.9924038765061040657 I I #
edge $-1 41645 $-1 $84 -4.5 $88 4.5 $82 $100 forward @7 unknown #
straight-curve $-1 -1 $-1 0.9403173539428331118 -1.513311201453216848 0.7908561084638607852 -0.007596123493896111273 0.9961946980917455452 -0.08682408883346506845 I I #
vertex $-1 42766 $-1 $62 0 $101 #
straight-curve $-1 -1 $-1 9.906069636768544129 -1.513311201453215515 0.006454423734937098089 0.007596123493896111273 -0.9961946980917455452 0.08682408883346506845 I I #
point $-1 -1 $-1 9.917463822009386476 -3.007603248590834166 0.1366905569851347702 #
point $-1 -1 $-1 0.9517115391836772353 -3.007603248590835499 0.9210922417140584573 #
straight-curve $-1 -1 $-1 5.48125858118161613 0.05070543988252856904 1.062342234054084678 -0.9961946980917455452 -1.483338005154500404e-16 0.08715574274765819363 I I #
point $-1 -1 $-1 9.964134722594472748 0.05070543988252923517 0.670141391689622834 #
point $-1 -1 $-1 0.9983824397687612873 0.05070543988252790291 1.454543076418546521 #
straight-curve $-1 -1 $-1 0.9864411747170633848 -2.972740951491772421 1.318053792316500106 -0.08682408883346517947 -0.0871557427476580826 -0.9924038765061040657 I I #
straight-curve $-1 -1 $-1 9.952193457542772848 -2.972740951491771089 0.5336521075875764186 -0.08682408883346517947 -0.0871557427476580826 -0.9924038765061040657 I I #
ATTRIB_CUSTOM-attrib $-1 -1 $-1 $-1 $80 @22 generic_tag_attrib_def 3 3 -1 @23 generic_tag_attrib_def  1 0 @0  0 1 468 0 #
straight-curve $-1 -1 $-1 9.929405087061086377 0.01584314278346599103 0.2731798410871811855 -0.08682408883346517947 -0.0871557427476580826 -0.9924038765061040657 I I #
point $-1 -1 $-1 0.9289231687019892103 -0.01901915431559858538 0.6606199752136632242 #
straight-curve $-1 -1 $-1 5.411799310114844275 -0.01901915431559791925 0.2684191328492013806 0.9961946980917455452 1.483338005154500404e-16 -0.08715574274765819363 I I #
point $-1 -1 $-1 9.894675451527700005 -0.01901915431559725311 -0.123781709515260463 #
End-of-ASM-data 