22700 0 2 4           
16 Autodesk Neutron 20 ASM 227.1.1.65535 NT 24 Thu Aug 26 01:27:28 2021 
10 9.999999999999999547e-07 1.000000000000000036e-10 
asmheader $-1 -1 @13 227.1.1.65535 #
body $2 42040 $-1 $3 $-1 $4 #
ATTRIB_CUSTOM-attrib $-1 -1 $5 $-1 $1 @20 Timestamp_attrib_def 1 1534150514517476 #
lump $-1 -1 $-1 $-1 $6 $1 #
transform $-1 -1 1 0 0 0 1 0 0 0 1 0 0 0 1 no_rotate no_reflect no_shear #
ATTRIB_CUSTOM-attrib $7 -1 $-1 $2 $1 @22 generic_tag_attrib_def 3 3 -1 @23 generic_tag_attrib_def  1 3 @3 521 1 0 0 #
shell $-1 -1 $-1 $-1 $-1 $8 $-1 $3 #
ATTRIB_CUSTOM-attrib $-1 -1 $-1 $-1 $5 @22 generic_tag_attrib_def 3 3 -1 @23 generic_tag_attrib_def  1 0 @0  0 2 523 527 0 #
face $9 41884 $-1 $10 $11 $6 $-1 $12 forward single #
ATTRIB_CUSTOM-attrib $13 -1 $-1 $-1 $8 @22 generic_tag_attrib_def 3 3 -1 @23 generic_tag_attrib_def  1 1 @1 1 0 2 515 521 0 #
face $14 40042 $-1 $15 $16 $6 $-1 $17 forward single #
loop $-1 -1 $-1 $18 $19 $8 #
torus-surface $-1 -1 $-1 10.83133897549856428 -1.620000000000000107 -1.629669329221769658 0.9876883405951378814 -0 0.1564344650402303971 0.3242000000000000437 -0.02999999999999999889 0.1564344650402303971 0 -0.9876883405951378814 forward_v I I I I #
ATTRIB_CUSTOM-attrib $-1 -1 $-1 $-1 $9 @22 generic_tag_attrib_def 3 3 -1 @23 generic_tag_attrib_def  1 0 @0  0 2 523 527 0 #
ATTRIB_CUSTOM-attrib $-1 -1 $20 $-1 $10 @22 FDM_feature_attrib_def 2 2 @16 thread_face_data 3 519 2097152 6 1901 10.83133897549856428 -1.620000000000000107 -1.629669329221769658 8.917396509093306278 -1.620000000000000107 -1.932808035576726979 0 0 0 0 #
face $21 41885 $-1 $22 $23 $6 $-1 $24 forward single #
loop $-1 -1 $-1 $25 $26 $10 #
cone-surface $-1 -1 $-1 11.35481379601398721 -1.620000000000000107 -1.54675906275044639 -0.9876883405951378814 0 -0.1564344650402303971 -0.0460230196148357848 0 0.2905779098030895624 1 I I 0 1 0.2999999999999999889 forward I I I I #
loop $-1 -1 $-1 $-1 $27 $8 #
coedge $-1 -1 $-1 $19 $19 $28 $29 forward $11 0 $-1 #
ATTRIB_CUSTOM-attrib $30 -1 $-1 $14 $10 @22 generic_tag_attrib_def 3 3 -1 @23 generic_tag_attrib_def  1 1 @1 3 0 3 512 -519 521 0 #
ATTRIB_CUSTOM-attrib $31 -1 $-1 $-1 $15 @22 generic_tag_attrib_def 3 3 -1 @23 generic_tag_attrib_def  1 1 @1 2 0 2 509 521 0 #
face $32 41886 $-1 $33 $34 $6 $-1 $35 reversed single #
loop $-1 -1 $-1 $36 $37 $15 #
plane-surface $-1 -1 $-1 10.86096962571641811 -1.620000000000000107 -1.6249762952705602 -0.9876883405951378814 0 -0.1564344650402303971 -0.1564344650402303971 0 0.9876883405951378814 forward_v I I I I #
loop $-1 -1 $-1 $-1 $28 $10 #
coedge $-1 -1 $-1 $26 $26 $38 $39 reversed $16 0 $-1 #
coedge $-1 -1 $-1 $27 $27 $40 $41 forward $18 0 $-1 #
coedge $-1 -1 $-1 $28 $28 $19 $29 reversed $25 0 $-1 #
edge $-1 41907 $-1 $42 -3.141592653589793116 $42 3.141592653589793116 $28 $43 forward @7 tangent #
ATTRIB_CUSTOM-attrib $-1 -1 $-1 $-1 $20 @22 generic_tag_attrib_def 3 3 -1 @23 generic_tag_attrib_def  1 0 @0  0 2 523 527 0 #
ATTRIB_CUSTOM-attrib $-1 -1 $-1 $-1 $21 @22 generic_tag_attrib_def 3 3 -1 @23 generic_tag_attrib_def  1 0 @0  0 2 523 527 0 #
ATTRIB_CUSTOM-attrib $44 -1 $-1 $-1 $22 @22 generic_tag_attrib_def 3 3 -1 @23 generic_tag_attrib_def  1 1 @1 5 0 2 518 521 0 #
face $45 41887 $-1 $46 $47 $6 $-1 $35 reversed single #
loop $-1 -1 $-1 $-1 $48 $22 #
cone-surface $-1 -1 $-1 11.32998445933232823 -1.620000000000000107 -1.550691643344400461 -0.9876883405951378814 0 -0.1564344650402303694 -0.0948709728825620352 0 0.5989917487359729398 1 I I -0.8660254037844385966 -0.500000000000000111 0.6064582562299425383 forward I I I I #
loop $-1 -1 $-1 $-1 $40 $15 #
coedge $-1 -1 $-1 $49 $50 $51 $52 forward $23 0 $-1 #
coedge $-1 -1 $-1 $38 $38 $26 $39 forward $53 0 $-1 #
edge $-1 41909 $-1 $54 -3.141592653589793116 $54 3.141592653589793116 $26 $55 reversed @7 unknown #
coedge $-1 -1 $-1 $40 $40 $27 $41 reversed $36 0 $-1 #
edge $-1 41908 $-1 $56 -3.141592653589793116 $56 3.141592653589793116 $40 $57 forward @7 tangent #
vertex $-1 42804 $-1 $29 0 $58 #
ellipse-curve $-1 -1 $-1 10.83133897549856428 -1.620000000000000107 -1.629669329221769658 0.9876883405951378814 -0 0.1564344650402303971 -0.0460230196148357848 0 0.2905779098030895624 1 I I #
ATTRIB_CUSTOM-attrib $-1 -1 $-1 $-1 $32 @22 generic_tag_attrib_def 3 3 -1 @23 generic_tag_attrib_def  1 0 @0  0 2 523 527 0 #
ATTRIB_CUSTOM-attrib $59 -1 $-1 $-1 $33 @22 generic_tag_attrib_def 3 3 -1 @23 generic_tag_attrib_def  1 1 @1 5 0 2 518 521 0 #
face $60 41888 $-1 $61 $62 $6 $-1 $35 reversed single #
loop $-1 -1 $-1 $-1 $63 $33 #
coedge $-1 -1 $-1 $64 $65 $66 $67 reversed $34 0 $-1 #
coedge $-1 -1 $-1 $68 $37 $69 $70 forward $23 0 $-1 #
coedge $-1 -1 $-1 $37 $71 $72 $73 forward $23 0 $-1 #
coedge $-1 -1 $-1 $74 $75 $37 $52 reversed $76 0 $-1 #
edge $-1 41910 $-1 $77 1.570796326794896558 $78 2.617993877991493967 $37 $79 forward @7 unknown #
loop $-1 -1 $-1 $80 $38 $81 #
vertex $-1 42806 $-1 $39 0 $82 #
ellipse-curve $-1 -1 $-1 8.917396509093306278 -1.620000000000000107 -1.932808035576726979 0.9876883405951378814 -0 0.1564344650402303971 -0.0460230196148357848 0 0.2905779098030895624 1 I I #
vertex $-1 42805 $-1 $41 0 $83 #
ellipse-curve $-1 -1 $-1 10.86096962571641811 -1.620000000000000107 -1.6249762952705602 -0.9876883405951378814 0 -0.1564344650402303971 -0.05071605356604270282 0 0.3202085600209437222 1 I I #
point $-1 -1 $-1 10.87736199511340018 -1.620000000000000107 -1.920247239024856611 #
ATTRIB_CUSTOM-attrib $-1 -1 $-1 $-1 $45 @22 generic_tag_attrib_def 3 3 -1 @23 generic_tag_attrib_def  1 0 @0  0 2 523 527 0 #
ATTRIB_CUSTOM-attrib $84 -1 $-1 $-1 $46 @22 generic_tag_attrib_def 3 3 -1 @23 generic_tag_attrib_def  1 1 @1 5 0 2 518 521 0 #
face $85 41889 $-1 $86 $87 $6 $-1 $35 reversed single #
loop $-1 -1 $-1 $-1 $88 $46 #
coedge $-1 -1 $-1 $89 $90 $91 $92 reversed $47 0 $-1 #
coedge $-1 -1 $-1 $65 $48 $93 $94 reversed $34 0 $-1 #
coedge $-1 -1 $-1 $48 $64 $95 $96 reversed $34 0 $-1 #
coedge $-1 -1 $-1 $97 $98 $48 $67 forward $99 0 $-1 #
edge $-1 41916 $-1 $100 0 $101 0.3297056722068198997 $66 $102 forward @7 unknown #
coedge $-1 -1 $-1 $103 $49 $104 $105 forward $23 0 $-1 #
coedge $-1 -1 $-1 $106 $107 $49 $70 reversed $108 0 $-1 #
edge $-1 41911 $-1 $78 2.617993877991493967 $109 3.665191429188091377 $49 $79 forward @7 unknown #
coedge $-1 -1 $-1 $50 $103 $110 $111 forward $23 0 $-1 #
coedge $-1 -1 $-1 $112 $113 $50 $73 reversed $114 0 $-1 #
edge $-1 41915 $-1 $115 0.5235987755982988157 $77 1.570796326794896558 $50 $79 forward @7 unknown #
coedge $-1 -1 $-1 $75 $51 $116 $117 reversed $76 0 $-1 #
coedge $-1 -1 $-1 $51 $74 $118 $119 reversed $76 0 $-1 #
loop $-1 -1 $-1 $-1 $75 $120 #
vertex $-1 42807 $-1 $121 2 $122 #
vertex $-1 42808 $-1 $52 2 $123 #
ellipse-curve $-1 -1 $-1 10.86096962571641811 -1.620000000000000107 -1.6249762952705602 -0.9876883405951378814 0 -0.1564344650402303971 -0.08805954348897432338 0 0.5559860760851061956 1 I I #
loop $-1 -1 $-1 $-1 $124 $81 #
face $125 41902 $-1 $126 $53 $6 $-1 $127 forward single #
point $-1 -1 $-1 8.963419528708140405 -1.620000000000000107 -2.223385945379813933 #
point $-1 -1 $-1 10.91168567928245992 -1.620000000000000107 -1.945184855291504533 #
ATTRIB_CUSTOM-attrib $-1 -1 $-1 $-1 $60 @22 generic_tag_attrib_def 3 3 -1 @23 generic_tag_attrib_def  1 0 @0  0 2 523 527 0 #
ATTRIB_CUSTOM-attrib $128 -1 $-1 $-1 $61 @22 generic_tag_attrib_def 3 3 -1 @23 generic_tag_attrib_def  1 1 @1 5 0 2 518 521 0 #
face $129 41890 $-1 $130 $131 $6 $-1 $35 reversed single #
loop $-1 -1 $-1 $-1 $132 $61 #
coedge $-1 -1 $-1 $133 $134 $135 $136 reversed $62 0 $-1 #
coedge $-1 -1 $-1 $90 $63 $137 $138 reversed $47 0 $-1 #
coedge $-1 -1 $-1 $63 $89 $139 $140 reversed $47 0 $-1 #
coedge $-1 -1 $-1 $141 $142 $63 $92 forward $143 0 $-1 #
edge $-1 41919 $-1 $144 0.3297056722068202883 $145 0.6594113444136404656 $91 $146 forward @7 unknown #
coedge $-1 -1 $-1 $147 $139 $64 $94 forward $148 0 $-1 #
edge $-1 41917 $-1 $149 0.3297056722068197887 $100 0.6594113444136396884 $93 $150 forward @7 unknown #
coedge $-1 -1 $-1 $137 $151 $65 $96 forward $152 0 $-1 #
edge $-1 41918 $-1 $101 -0.5235987755982988157 $149 0.5235987755982988157 $95 $153 forward @7 unknown #
coedge $-1 -1 $-1 $154 $66 $155 $156 forward $99 0 $-1 #
coedge $-1 -1 $-1 $66 $157 $147 $158 reversed $99 0 $-1 #
loop $-1 -1 $-1 $-1 $97 $159 #
vertex $-1 42814 $-1 $158 0 $160 #
vertex $-1 42813 $-1 $67 1 $161 #
intcurve-curve $-1 -1 $-1 forward { exact_int_cur 22403 full nurbs 2 open 2 
	0 2 0.3297056722068198997 2 
	11.20347272037452058 -1.619999999999999885 -0.9126268025515145155 1 
	11.26675425252501306 -1.469166975080229864 -0.9907729866653376405 1.037954849302046068 
	11.2785519943068735 -1.338541743770057524 -1.0652609967103146 1 
	0 
	
	null_surface 
	null_surface 
	nullbs 
	nullbs 
	I I 
	0 
	0 
	0 
	
	0 F 1 F 0 UNEXTENDED UNEXTENDED } I I #
coedge $-1 -1 $-1 $71 $68 $162 $163 forward $23 0 $-1 #
coedge $-1 -1 $-1 $164 $165 $68 $105 reversed $166 0 $-1 #
edge $-1 41912 $-1 $109 -2.617993877991494855 $167 -1.57079632679489678 $68 $79 forward @7 unknown #
coedge $-1 -1 $-1 $107 $69 $168 $169 reversed $108 0 $-1 #
coedge $-1 -1 $-1 $69 $106 $170 $171 reversed $108 0 $-1 #
loop $-1 -1 $-1 $-1 $107 $172 #
vertex $-1 42809 $-1 $70 2 $173 #
coedge $-1 -1 $-1 $174 $175 $71 $111 reversed $176 0 $-1 #
edge $-1 41914 $-1 $177 -0.5235987755982988157 $115 0.5235987755982988157 $71 $79 forward @7 unknown #
coedge $-1 -1 $-1 $113 $72 $178 $179 reversed $114 0 $-1 #
coedge $-1 -1 $-1 $72 $112 $180 $121 reversed $114 0 $-1 #
loop $-1 -1 $-1 $-1 $112 $181 #
vertex $-1 42812 $-1 $179 2 $182 #
coedge $-1 -1 $-1 $180 $183 $74 $117 forward $184 0 $-1 #
edge $-1 41946 $-1 $185 0 $77 0.3297056722068196777 $116 $186 forward @7 unknown #
coedge $-1 -1 $-1 $187 $168 $75 $119 forward $188 0 $-1 #
edge $-1 41936 $-1 $78 0.3297056722068198442 $185 0.6594113444136396884 $118 $189 forward @7 unknown #
face $190 41896 $-1 $191 $76 $6 $-1 $192 reversed single #
edge $-1 41945 $-1 $77 0.3297056722068196777 $193 0.6594113444136392443 $180 $194 forward @7 unknown #
point $-1 -1 $-1 10.86096962571641811 -1.057083487540114941 -1.6249762952705602 #
point $-1 -1 $-1 10.93723142742353005 -1.338541743770057302 -2.106474361310688437 #
coedge $-1 -1 $-1 $124 $124 $195 $196 forward $80 0 $-1 #
ATTRIB_CUSTOM-attrib $197 -1 $-1 $-1 $81 @22 generic_tag_attrib_def 3 3 -1 @23 generic_tag_attrib_def  1 1 @1 1 0 2 514 521 0 #
face $198 41903 $-1 $199 $200 $6 $-1 $201 forward single #
cone-surface $-1 -1 $-1 8.904359022997450523 -1.620000000000000107 -1.934872970515257862 -0.9876883405951378814 0 -0.1564344650402303971 -0.04395808467630474281 0 0.2775404237072337521 1 I I -0.707106781186549127 0.7071067811865460184 0.2810000000000000275 forward I I I I #
ATTRIB_CUSTOM-attrib $-1 -1 $-1 $-1 $85 @22 generic_tag_attrib_def 3 3 -1 @23 generic_tag_attrib_def  1 0 @0  0 2 523 527 0 #
ATTRIB_CUSTOM-attrib $202 -1 $-1 $-1 $86 @22 generic_tag_attrib_def 3 3 -1 @23 generic_tag_attrib_def  1 1 @1 5 0 2 518 521 0 #
face $203 41891 $-1 $204 $205 $6 $-1 $35 reversed single #
loop $-1 -1 $-1 $-1 $206 $86 #
coedge $-1 -1 $-1 $155 $207 $208 $209 reversed $87 0 $-1 #
coedge $-1 -1 $-1 $134 $88 $210 $211 reversed $62 0 $-1 #
coedge $-1 -1 $-1 $88 $133 $142 $212 reversed $62 0 $-1 #
coedge $-1 -1 $-1 $213 $214 $88 $136 forward $215 0 $-1 #
edge $-1 41922 $-1 $216 0.3297056722068196777 $217 0.6594113444136392443 $135 $218 forward @7 unknown #
coedge $-1 -1 $-1 $210 $95 $89 $138 forward $152 0 $-1 #
edge $-1 41920 $-1 $149 0.5235987755982988157 $144 1.57079632679489678 $137 $153 forward @7 unknown #
coedge $-1 -1 $-1 $93 $219 $90 $140 forward $148 0 $-1 #
edge $-1 41921 $-1 $145 0 $149 0.3297056722068197887 $139 $220 forward @7 unknown #
coedge $-1 -1 $-1 $221 $91 $219 $222 forward $143 0 $-1 #
coedge $-1 -1 $-1 $91 $223 $134 $212 forward $143 0 $-1 #
loop $-1 -1 $-1 $-1 $142 $224 #
vertex $-1 42817 $-1 $92 0 $225 #
vertex $-1 42816 $-1 $222 0 $226 #
intcurve-curve $-1 -1 $-1 forward { exact_int_cur 22403 full nurbs 2 open 2 
	0.3297056722068202883 2 0.6594113444136404656 2 
	11.35481379601398721 -2.182916512459884828 -1.54675906275044639 1 
	11.33121831245026279 -2.182916512459884828 -1.39778304266049247 1.037954849302044291 
	11.25431392151259402 -2.182916512459885272 -1.233625513244934524 1 
	0 
	
	null_surface 
	null_surface 
	nullbs 
	nullbs 
	I I 
	0 
	0 
	0 
	
	0 F 1 F 0 UNEXTENDED UNEXTENDED } I I #
coedge $-1 -1 $-1 $227 $93 $98 $158 forward $148 0 $-1 #
loop $-1 -1 $-1 $-1 $93 $199 #
vertex $-1 42815 $-1 $140 1 $228 #
intcurve-curve $-1 -1 $-1 forward { exact_int_cur 22403 full nurbs 2 open 2 
	0.3297056722068197887 2 0.6594113444136396884 2 
	11.2785519943068735 -1.901458256229942689 -1.0652609967103146 1 
	11.26675425252501306 -1.770833024919770571 -0.9907729866653376405 1.037954849302036298 
	11.20347272037452058 -1.620000000000000329 -0.9126268025515145155 1 
	0 
	
	null_surface 
	null_surface 
	nullbs 
	nullbs 
	I I 
	0 
	0 
	0 
	
	0 F 1 F 0 UNEXTENDED UNEXTENDED } I I #
coedge $-1 -1 $-1 $95 $229 $207 $230 forward $152 0 $-1 #
loop $-1 -1 $-1 $-1 $137 $231 #
ellipse-curve $-1 -1 $-1 11.35481379601398721 -1.620000000000000107 -1.54675906275044639 0.9876883405951378814 -0 0.1564344650402303971 -0.08805954348897432338 0 0.5559860760851061956 1 I I #
coedge $-1 -1 $-1 $178 $97 $232 $233 forward $99 0 $-1 #
coedge $-1 -1 $-1 $207 $132 $97 $156 reversed $87 0 $-1 #
edge $-1 41926 $-1 $101 0.3297056722068198997 $234 0.6594113444136396884 $97 $235 forward @7 unknown #
coedge $-1 -1 $-1 $98 $178 $175 $236 forward $99 0 $-1 #
edge $-1 41952 $-1 $100 0.05027767497325673351 $237 0.4497223250267432526 $98 $238 forward @7 unknown #
face $239 41905 $-1 $231 $99 $6 $-1 $240 forward single #
point $-1 -1 $-1 11.20347272037452058 -1.620000000000000107 -0.9126268025515145155 #
point $-1 -1 $-1 11.2785519943068735 -1.338541743770057524 -1.0652609967103146 #
coedge $-1 -1 $-1 $241 $242 $103 $163 reversed $243 0 $-1 #
edge $-1 41913 $-1 $167 -1.57079632679489678 $177 -0.5235987755982988157 $103 $79 forward @7 unknown #
coedge $-1 -1 $-1 $165 $104 $244 $245 reversed $166 0 $-1 #
coedge $-1 -1 $-1 $104 $164 $246 $247 reversed $166 0 $-1 #
loop $-1 -1 $-1 $-1 $165 $248 #
vertex $-1 42810 $-1 $163 2 $249 #
coedge $-1 -1 $-1 $118 $250 $106 $169 forward $188 0 $-1 #
edge $-1 41935 $-1 $251 0 $78 0.3297056722068198442 $168 $252 forward @7 unknown #
coedge $-1 -1 $-1 $253 $244 $107 $171 forward $215 0 $-1 #
edge $-1 41940 $-1 $109 0.3297056722068195667 $251 0.6594113444136392443 $170 $254 forward @7 unknown #
face $255 41899 $-1 $248 $108 $6 $-1 $192 reversed single #
point $-1 -1 $-1 10.93723142742353005 -1.901458256229942467 -2.106474361310688437 #
coedge $-1 -1 $-1 $175 $110 $227 $256 reversed $176 0 $-1 #
coedge $-1 -1 $-1 $110 $174 $157 $236 reversed $176 0 $-1 #
loop $-1 -1 $-1 $-1 $174 $191 #
vertex $-1 42811 $-1 $111 2 $257 #
coedge $-1 -1 $-1 $157 $154 $112 $179 forward $99 0 $-1 #
edge $-1 41944 $-1 $193 0 $115 0.3297056722068196777 $178 $258 forward @7 unknown #
coedge $-1 -1 $-1 $232 $116 $113 $121 forward $184 0 $-1 #
face $259 41895 $-1 $120 $114 $6 $-1 $192 reversed single #
point $-1 -1 $-1 10.78470782400930617 -1.338541743770057524 -1.143478229230428411 #
coedge $-1 -1 $-1 $116 $260 $187 $261 forward $184 0 $-1 #
loop $-1 -1 $-1 $-1 $260 $262 #
vertex $-1 42826 $-1 $117 0 $263 #
intcurve-curve $-1 -1 $-1 forward { exact_int_cur 22403 full nurbs 2 open 2 
	0 2 0.3297056722068196777 2 
	10.96146950021780953 -1.057083487540114941 -1.938109844776068513 1 
	10.88456510928014254 -1.057083487540114941 -1.773952315360510568 1.037954849302037186 
	10.86096962571641811 -1.057083487540114941 -1.6249762952705602 1 
	0 
	
	null_surface 
	null_surface 
	nullbs 
	nullbs 
	I I 
	0 
	0 
	0 
	
	0 F 1 F 0 UNEXTENDED UNEXTENDED } I I #
coedge $-1 -1 $-1 $264 $118 $183 $261 reversed $188 0 $-1 #
loop $-1 -1 $-1 $-1 $264 $204 #
intcurve-curve $-1 -1 $-1 forward { exact_int_cur 22403 full nurbs 2 open 2 
	0.3297056722068198442 2 0.6594113444136396884 2 
	10.93723142742353005 -1.338541743770057302 -2.106474361310688437 1 
	10.92543368564166784 -1.207916512459885183 -2.031986351265711477 1.037954849302036298 
	10.96146950021780953 -1.057083487540114941 -1.938109844776068513 1 
	0 
	
	null_surface 
	null_surface 
	nullbs 
	nullbs 
	I I 
	0 
	0 
	0 
	
	0 F 1 F 0 UNEXTENDED UNEXTENDED } I I #
ATTRIB_CUSTOM-attrib $265 -1 $-1 $-1 $120 @22 generic_tag_attrib_def 3 3 -1 @23 generic_tag_attrib_def  1 1 @1 3 0 2 517 521 0 #
face $266 41897 $-1 $267 $176 $6 $-1 $192 reversed single #
cone-surface $-1 -1 $-1 10.88579896239807709 -1.620000000000000107 -1.621043714676606129 -0.9876883405951378814 0 -0.1564344650402303971 -0.0948709728825620352 0 0.5989917487359729398 1 I I 0.8660254037844385966 -0.500000000000000111 0.6064582562299425383 forward I I I I #
vertex $-1 42829 $-1 $121 1 $268 #
intcurve-curve $-1 -1 $-1 forward { exact_int_cur 22403 full nurbs 2 open 2 
	0.3297056722068196777 2 0.6594113444136392443 2 
	10.86096962571641811 -1.057083487540114941 -1.6249762952705602 1 
	10.83737414215269368 -1.057083487540114941 -1.47600027518060628 1.037954849302045623 
	10.85978709794166086 -1.057083487540114941 -1.296112423389232049 1 
	0 
	
	null_surface 
	null_surface 
	nullbs 
	nullbs 
	I I 
	0 
	0 
	0 
	
	0 F 1 F 0 UNEXTENDED UNEXTENDED } I I #
coedge $-1 -1 $-1 $195 $195 $124 $196 reversed $200 0 $-1 #
edge $-1 41951 $-1 $269 -3.141592653589793116 $269 3.141592653589793116 $195 $270 forward @7 unknown #
ATTRIB_CUSTOM-attrib $-1 -1 $-1 $-1 $125 @22 generic_tag_attrib_def 3 3 -1 @23 generic_tag_attrib_def  1 0 @0  0 2 523 527 0 #
ATTRIB_CUSTOM-attrib $271 -1 $-1 $-1 $126 @22 generic_tag_attrib_def 3 3 -1 @23 generic_tag_attrib_def  1 1 @1 2 0 2 512 521 0 #
face $272 41904 $-1 $159 $148 $6 $-1 $273 forward single #
loop $-1 -1 $-1 $-1 $195 $126 #
plane-surface $-1 -1 $-1 8.885592944526141679 -1.620000000000000107 -1.937845225351022549 -0.9876883405951378814 0 -0.1564344650402303971 -0.1564344650402303971 0 0.9876883405951378814 forward_v I I I I #
ATTRIB_CUSTOM-attrib $-1 -1 $-1 $-1 $129 @22 generic_tag_attrib_def 3 3 -1 @23 generic_tag_attrib_def  1 0 @0  0 2 523 527 0 #
ATTRIB_CUSTOM-attrib $274 -1 $-1 $-1 $130 @22 generic_tag_attrib_def 3 3 -1 @23 generic_tag_attrib_def  1 1 @1 5 0 2 518 521 0 #
face $275 41892 $-1 $276 $188 $6 $-1 $277 forward single #
loop $-1 -1 $-1 $-1 $278 $130 #
coedge $-1 -1 $-1 $279 $280 $281 $282 reversed $131 0 $-1 #
coedge $-1 -1 $-1 $132 $155 $151 $230 reversed $87 0 $-1 #
coedge $-1 -1 $-1 $260 $232 $132 $209 forward $184 0 $-1 #
edge $-1 41925 $-1 $234 0 $283 0.3297056722068198997 $208 $284 forward @7 unknown #
coedge $-1 -1 $-1 $285 $137 $133 $211 forward $152 0 $-1 #
edge $-1 41923 $-1 $144 1.57079632679489678 $216 2.617993877991494855 $210 $153 forward @7 unknown #
edge $-1 41924 $-1 $217 0 $144 0.3297056722068202883 $142 $286 forward @7 unknown #
coedge $-1 -1 $-1 $244 $135 $223 $287 forward $215 0 $-1 #
coedge $-1 -1 $-1 $135 $253 $280 $288 forward $215 0 $-1 #
loop $-1 -1 $-1 $-1 $214 $276 #
vertex $-1 42819 $-1 $211 1 $289 #
vertex $-1 42818 $-1 $287 0 $290 #
intcurve-curve $-1 -1 $-1 forward { exact_int_cur 22403 full nurbs 2 open 2 
	0.3297056722068196777 2 0.6594113444136392443 2 
	11.43107559772109916 -1.901458256229942467 -2.028257128790574626 1 
	11.41927785593923694 -2.03208348754011503 -1.953769118745597666 1.03795484930202675 
	11.35599632378874446 -2.182916512459884828 -1.875622934631770988 1 
	0 
	
	null_surface 
	null_surface 
	nullbs 
	nullbs 
	I I 
	0 
	0 
	0 
	
	0 F 1 F 0 UNEXTENDED UNEXTENDED } I I #
coedge $-1 -1 $-1 $139 $291 $141 $222 reversed $148 0 $-1 #
intcurve-curve $-1 -1 $-1 forward { exact_int_cur 22403 full nurbs 2 open 2 
	0 2 0.3297056722068197887 2 
	11.25431392151259402 -2.182916512459885272 -1.233625513244934524 1 
	11.29034973608873571 -2.032083487540114586 -1.13974900675529156 1.037954849302031635 
	11.2785519943068735 -1.901458256229942689 -1.0652609967103146 1 
	0 
	
	null_surface 
	null_surface 
	nullbs 
	nullbs 
	I I 
	0 
	0 
	0 
	
	0 F 1 F 0 UNEXTENDED UNEXTENDED } I I #
coedge $-1 -1 $-1 $246 $141 $241 $292 forward $143 0 $-1 #
edge $-1 41941 $-1 $145 0.05027767497325674045 $293 0.4497223250267432526 $141 $294 forward @7 unknown #
coedge $-1 -1 $-1 $142 $246 $213 $287 reversed $143 0 $-1 #
face $295 41894 $-1 $181 $143 $6 $-1 $296 forward single #
point $-1 -1 $-1 11.35481379601398721 -2.182916512459884828 -1.54675906275044639 #
point $-1 -1 $-1 11.25431392151259402 -2.182916512459884828 -1.233625513244934524 #
coedge $-1 -1 $-1 $291 $147 $174 $256 forward $148 0 $-1 #
point $-1 -1 $-1 11.2785519943068735 -1.901458256229942689 -1.0652609967103146 #
coedge $-1 -1 $-1 $151 $285 $297 $298 forward $152 0 $-1 #
edge $-1 41927 $-1 $283 -1.570796326794896558 $101 -0.5235987755982988157 $151 $153 forward @7 unknown #
face $299 41906 $-1 $-1 $152 $6 $-1 $300 reversed single #
coedge $-1 -1 $-1 $208 $180 $154 $233 reversed $184 0 $-1 #
edge $-1 41950 $-1 $234 0.05027767497325674045 $193 0.4497223250267432526 $154 $301 forward @7 unknown #
vertex $-1 42821 $-1 $233 0 $302 #
intcurve-curve $-1 -1 $-1 forward { exact_int_cur 22403 full nurbs 2 open 2 
	0.3297056722068198997 2 0.6594113444136396884 2 
	11.2785519943068735 -1.338541743770057524 -1.0652609967103146 1 
	11.29034973608873571 -1.207916512459885183 -1.13974900675529156 1.037954849302047844 
	11.25431392151259402 -1.057083487540114941 -1.233625513244934524 1 
	0 
	
	null_surface 
	null_surface 
	nullbs 
	nullbs 
	I I 
	0 
	0 
	0 
	
	0 F 1 F 0 UNEXTENDED UNEXTENDED } I I #
edge $-1 41948 $-1 $115 0.3297056722068196777 $237 0.6594113444136393554 $157 $303 forward @7 unknown #
vertex $-1 42830 $-1 $236 1 $304 #
straight-curve $-1 -1 $-1 11.25313139373783855 -1.620000000000000107 -0.9047616413636063726 -0.9876883405951378814 0 -0.1564344650402303971 I I #
ATTRIB_CUSTOM-attrib $305 -1 $-1 $-1 $159 @22 generic_tag_attrib_def 3 3 -1 @23 generic_tag_attrib_def  1 1 @1 3 0 2 509 521 0 #
plane-surface $-1 -1 $-1 11.25313139373783855 -1.620000000000000107 -0.9047616413636063726 -0.1354762207522682005 0.5 0.8553631939770864889 0.07821723252011519856 0.8660254037844387076 -0.4938441702975689407 forward_v I I I I #
coedge $-1 -1 $-1 $242 $162 $221 $292 reversed $243 0 $-1 #
coedge $-1 -1 $-1 $162 $241 $291 $306 reversed $243 0 $-1 #
loop $-1 -1 $-1 $-1 $241 $267 #
coedge $-1 -1 $-1 $170 $213 $164 $245 forward $215 0 $-1 #
edge $-1 41939 $-1 $307 0 $109 0.3297056722068195667 $244 $308 forward @7 unknown #
coedge $-1 -1 $-1 $223 $221 $165 $247 forward $143 0 $-1 #
edge $-1 41943 $-1 $167 0.3297056722068200108 $307 0.6594113444136400215 $246 $309 forward @7 unknown #
face $310 41900 $-1 $262 $166 $6 $-1 $192 reversed single #
point $-1 -1 $-1 10.86096962571641811 -2.182916512459884828 -1.6249762952705602 #
coedge $-1 -1 $-1 $168 $281 $253 $311 forward $188 0 $-1 #
vertex $-1 42825 $-1 $169 0 $312 #
intcurve-curve $-1 -1 $-1 forward { exact_int_cur 22403 full nurbs 2 open 2 
	0 2 0.3297056722068198442 2 
	11.01231070135588475 -1.619999999999999662 -2.259108555469488522 1 
	10.94902916920539226 -1.469166975080229642 -2.180962371355665397 1.037954849302040961 
	10.93723142742353005 -1.338541743770057302 -2.106474361310688437 1 
	0 
	
	null_surface 
	null_surface 
	nullbs 
	nullbs 
	I I 
	0 
	0 
	0 
	
	0 F 1 F 0 UNEXTENDED UNEXTENDED } I I #
coedge $-1 -1 $-1 $214 $170 $250 $311 reversed $215 0 $-1 #
intcurve-curve $-1 -1 $-1 forward { exact_int_cur 22403 full nurbs 2 open 2 
	0.3297056722068195667 2 0.6594113444136392443 2 
	10.93723142742353005 -1.901458256229942467 -2.106474361310688437 1 
	10.94902916920539226 -1.770833024919770127 -2.180962371355665397 1.037954849302036742 
	11.01231070135588475 -1.620000000000000329 -2.259108555469488522 1 
	0 
	
	null_surface 
	null_surface 
	nullbs 
	nullbs 
	I I 
	0 
	0 
	0 
	
	0 F 1 F 0 UNEXTENDED UNEXTENDED } I I #
ATTRIB_CUSTOM-attrib $313 -1 $-1 $-1 $172 @22 generic_tag_attrib_def 3 3 -1 @23 generic_tag_attrib_def  1 1 @1 3 0 2 517 521 0 #
edge $-1 41947 $-1 $237 0 $177 0.3297056722068198997 $227 $314 forward @7 unknown #
point $-1 -1 $-1 10.78470782400930617 -1.901458256229942689 -1.143478229230428411 #
intcurve-curve $-1 -1 $-1 forward { exact_int_cur 22403 full nurbs 2 open 2 
	0 2 0.3297056722068196777 2 
	10.85978709794166086 -1.057083487540115163 -1.296112423389232049 1 
	10.79650556579116838 -1.207916512459885183 -1.217966239275405371 1.037954849302028082 
	10.78470782400930617 -1.338541743770057524 -1.143478229230428411 1 
	0 
	
	null_surface 
	null_surface 
	nullbs 
	nullbs 
	I I 
	0 
	0 
	0 
	
	0 F 1 F 0 UNEXTENDED UNEXTENDED } I I #
ATTRIB_CUSTOM-attrib $315 -1 $-1 $-1 $181 @22 generic_tag_attrib_def 3 3 -1 @23 generic_tag_attrib_def  1 1 @1 3 0 2 517 521 0 #
coedge $-1 -1 $-1 $183 $208 $278 $316 forward $184 0 $-1 #
edge $-1 41937 $-1 $317 0.05027767497325675433 $185 0.4497223250267432526 $183 $318 forward @7 unknown #
face $319 41901 $-1 $81 $184 $6 $-1 $320 forward single #
point $-1 -1 $-1 10.96146950021780953 -1.057083487540114941 -1.938109844776068513 #
coedge $-1 -1 $-1 $281 $187 $321 $322 forward $188 0 $-1 #
ATTRIB_CUSTOM-attrib $-1 -1 $-1 $-1 $190 @22 generic_tag_attrib_def 3 3 -1 @23 generic_tag_attrib_def  1 0 @0  0 2 523 527 0 #
ATTRIB_CUSTOM-attrib $323 -1 $-1 $-1 $191 @22 generic_tag_attrib_def 3 3 -1 @23 generic_tag_attrib_def  1 1 @1 3 0 2 517 521 0 #
face $324 41898 $-1 $172 $243 $6 $-1 $192 reversed single #
point $-1 -1 $-1 10.85978709794166086 -1.057083487540114941 -1.296112423389232049 #
vertex $-1 42831 $-1 $196 0 $325 #
ellipse-curve $-1 -1 $-1 8.885592944526141679 -1.620000000000000107 -1.937845225351022549 0.9876883405951378814 -0 0.1564344650402303971 -0.04098582984054036787 0 0.2587743452359261287 1 I I #
ATTRIB_CUSTOM-attrib $-1 -1 $-1 $-1 $198 @22 generic_tag_attrib_def 3 3 -1 @23 generic_tag_attrib_def  1 0 @0  0 2 523 527 0 #
ATTRIB_CUSTOM-attrib $326 -1 $-1 $-1 $199 @22 generic_tag_attrib_def 3 3 -1 @23 generic_tag_attrib_def  1 1 @1 8 0 2 509 521 0 #
plane-surface $-1 -1 $-1 11.30397259487591199 -2.182916512459885272 -1.225760352057026381 -0.1354762207522682005 -0.5 0.8553631939770864889 -0.07821723252011519856 0.8660254037844387076 0.4938441702975689407 forward_v I I I I #
ATTRIB_CUSTOM-attrib $-1 -1 $-1 $-1 $203 @22 generic_tag_attrib_def 3 3 -1 @23 generic_tag_attrib_def  1 0 @0  0 2 523 527 0 #
ATTRIB_CUSTOM-attrib $327 -1 $-1 $-1 $204 @22 generic_tag_attrib_def 3 3 -1 @23 generic_tag_attrib_def  1 1 @1 5 0 2 509 521 0 #
face $328 41893 $-1 $224 $215 $6 $-1 $329 forward single #
plane-surface $-1 -1 $-1 11.40565499715206244 -1.057083487540114941 -1.867757773443862845 0.135476220752268145 0.500000000000000222 -0.8553631939770861559 0.07821723252011525407 -0.8660254037844385966 -0.4938441702975692738 forward_v I I I I #
coedge $-1 -1 $-1 $297 $321 $260 $316 reversed $205 0 $-1 #
coedge $-1 -1 $-1 $280 $206 $285 $330 reversed $131 0 $-1 #
coedge $-1 -1 $-1 $206 $279 $214 $288 reversed $131 0 $-1 #
coedge $-1 -1 $-1 $250 $264 $206 $282 forward $188 0 $-1 #
edge $-1 41928 $-1 $331 0.3297056722068197887 $332 0.6594113444136395774 $281 $333 forward @7 unknown #
vertex $-1 42820 $-1 $230 0 $334 #
intcurve-curve $-1 -1 $-1 forward { exact_int_cur 22403 full nurbs 2 open 2 
	0 2 0.3297056722068198997 2 
	11.25431392151259402 -1.057083487540114941 -1.233625513244934524 1 
	11.33121831245026279 -1.057083487540114941 -1.39778304266049247 1.037954849302043181 
	11.35481379601398721 -1.057083487540114941 -1.54675906275044639 1 
	0 
	
	null_surface 
	null_surface 
	nullbs 
	nullbs 
	I I 
	0 
	0 
	0 
	
	0 F 1 F 0 UNEXTENDED UNEXTENDED } I I #
coedge $-1 -1 $-1 $229 $210 $279 $330 forward $152 0 $-1 #
intcurve-curve $-1 -1 $-1 forward { exact_int_cur 22403 full nurbs 2 open 2 
	0 2 0.3297056722068202883 2 
	11.35599632378874446 -2.182916512459884828 -1.875622934631770988 1 
	11.37840927957770987 -2.182916512459884828 -1.695735082840396757 1.037954849302052507 
	11.35481379601398721 -2.182916512459884828 -1.54675906275044639 1 
	0 
	
	null_surface 
	null_surface 
	nullbs 
	nullbs 
	I I 
	0 
	0 
	0 
	
	0 F 1 F 0 UNEXTENDED UNEXTENDED } I I #
edge $-1 41938 $-1 $217 0.05027767497325676127 $307 0.4497223250267432526 $213 $335 forward @7 unknown #
edge $-1 41930 $-1 $332 0 $216 0.3297056722068196777 $214 $336 forward @7 unknown #
point $-1 -1 $-1 11.43107559772109916 -1.901458256229942467 -2.028257128790574626 #
point $-1 -1 $-1 11.35599632378874446 -2.182916512459884828 -1.875622934631770988 #
coedge $-1 -1 $-1 $219 $227 $242 $306 forward $148 0 $-1 #
edge $-1 41942 $-1 $293 0 $167 0.3297056722068200108 $221 $337 forward @7 unknown #
vertex $-1 42828 $-1 $306 1 $338 #
straight-curve $-1 -1 $-1 11.30397259487591199 -2.182916512459885272 -1.225760352057026381 -0.9876883405951378814 0 -0.1564344650402303971 I I #
ATTRIB_CUSTOM-attrib $339 -1 $-1 $-1 $224 @22 generic_tag_attrib_def 3 3 -1 @23 generic_tag_attrib_def  1 1 @1 7 0 2 509 521 0 #
plane-surface $-1 -1 $-1 11.40565499715206244 -2.182916512459884828 -1.867757773443862845 2.671956075885889356e-17 -1 -1.687006672126977341e-16 -0.1564344650402303971 -1.70803542250023994e-16 0.9876883405951378814 forward_v I I I I #
coedge $-1 -1 $-1 $321 $278 $229 $298 reversed $205 0 $-1 #
edge $-1 41932 $-1 $331 -2.617993877991493967 $283 -1.570796326794896558 $229 $153 forward @7 unknown #
ATTRIB_CUSTOM-attrib $340 -1 $-1 $-1 $231 @22 generic_tag_attrib_def 3 3 -1 @23 generic_tag_attrib_def  2 1 @1 1 0 2 509 521 0 1 @1 1 0 2 512 521 0 #
plane-surface $-1 -1 $-1 11.35481379601398721 -1.620000000000000107 -1.54675906275044639 -0.9876883405951378814 0 -0.1564344650402303971 -0.1564344650402303971 0 0.9876883405951378814 forward_v I I I I #
straight-curve $-1 -1 $-1 11.30397259487591199 -1.057083487540114941 -1.225760352057026381 -0.9876883405951378814 0 -0.1564344650402303971 I I #
point $-1 -1 $-1 11.25431392151259402 -1.057083487540114941 -1.233625513244934524 #
intcurve-curve $-1 -1 $-1 forward { exact_int_cur 22403 full nurbs 2 open 2 
	0.3297056722068196777 2 0.6594113444136393554 2 
	10.78470782400930617 -1.338541743770057524 -1.143478229230428411 1 
	10.77291008222744395 -1.469166975080229864 -1.068990219185451451 1.037954849302035853 
	10.80894589680358564 -1.619999999999999662 -0.9751137126958120405 1 
	0 
	
	null_surface 
	null_surface 
	nullbs 
	nullbs 
	I I 
	0 
	0 
	0 
	
	0 F 1 F 0 UNEXTENDED UNEXTENDED } I I #
point $-1 -1 $-1 10.80894589680358564 -1.620000000000000107 -0.9751137126958120405 #
ATTRIB_CUSTOM-attrib $-1 -1 $-1 $-1 $239 @22 generic_tag_attrib_def 3 3 -1 @23 generic_tag_attrib_def  1 0 @0  0 2 523 527 0 #
edge $-1 41949 $-1 $177 0.3297056722068198997 $293 0.6594113444136396884 $291 $341 forward @7 unknown #
vertex $-1 42827 $-1 $245 0 $342 #
intcurve-curve $-1 -1 $-1 forward { exact_int_cur 22403 full nurbs 2 open 2 
	0 2 0.3297056722068195667 2 
	10.96146950021780953 -2.182916512459884828 -1.938109844776068513 1 
	10.92543368564166784 -2.03208348754011503 -2.031986351265711477 1.037954849302036298 
	10.93723142742353005 -1.901458256229942467 -2.106474361310688437 1 
	0 
	
	null_surface 
	null_surface 
	nullbs 
	nullbs 
	I I 
	0 
	0 
	0 
	
	0 F 1 F 0 UNEXTENDED UNEXTENDED } I I #
intcurve-curve $-1 -1 $-1 forward { exact_int_cur 22403 full nurbs 2 open 2 
	0.3297056722068200108 2 0.6594113444136400215 2 
	10.86096962571641811 -2.182916512459884828 -1.6249762952705602 1 
	10.88456510928014254 -2.182916512459884828 -1.773952315360510568 1.037954849302027638 
	10.96146950021780953 -2.182916512459884828 -1.938109844776068513 1 
	0 
	
	null_surface 
	null_surface 
	nullbs 
	nullbs 
	I I 
	0 
	0 
	0 
	
	0 F 1 F 0 UNEXTENDED UNEXTENDED } I I #
ATTRIB_CUSTOM-attrib $343 -1 $-1 $-1 $248 @22 generic_tag_attrib_def 3 3 -1 @23 generic_tag_attrib_def  1 1 @1 3 0 2 517 521 0 #
edge $-1 41934 $-1 $332 0.05027767497325676127 $251 0.4497223250267432526 $250 $344 forward @7 unknown #
point $-1 -1 $-1 11.01231070135588475 -1.619999999999999885 -2.259108555469488522 #
ATTRIB_CUSTOM-attrib $-1 -1 $-1 $-1 $255 @22 generic_tag_attrib_def 3 3 -1 @23 generic_tag_attrib_def  1 0 @0  0 2 523 527 0 #
intcurve-curve $-1 -1 $-1 forward { exact_int_cur 22403 full nurbs 2 open 2 
	0 2 0.3297056722068198997 2 
	10.80894589680358564 -1.620000000000000329 -0.9751137126958120405 1 
	10.77291008222744395 -1.770833024919770349 -1.068990219185451451 1.037954849302033189 
	10.78470782400930617 -1.901458256229942689 -1.143478229230428411 1 
	0 
	
	null_surface 
	null_surface 
	nullbs 
	nullbs 
	I I 
	0 
	0 
	0 
	
	0 F 1 F 0 UNEXTENDED UNEXTENDED } I I #
ATTRIB_CUSTOM-attrib $-1 -1 $-1 $-1 $259 @22 generic_tag_attrib_def 3 3 -1 @23 generic_tag_attrib_def  1 0 @0  0 2 523 527 0 #
edge $-1 41931 $-1 $283 0.3297056722068198997 $317 0.6594113444136397995 $260 $345 forward @7 unknown #
vertex $-1 42824 $-1 $261 0 $346 #
straight-curve $-1 -1 $-1 11.40565499715206244 -1.057083487540114941 -1.867757773443862845 -0.9876883405951378814 0 -0.1564344650402303971 I I #
ATTRIB_CUSTOM-attrib $347 -1 $-1 $-1 $262 @22 generic_tag_attrib_def 3 3 -1 @23 generic_tag_attrib_def  1 1 @1 4 0 2 509 521 0 #
plane-surface $-1 -1 $-1 11.30397259487591199 -1.057083487540114941 -1.225760352057026381 -2.671956075885891205e-17 1 1.687006672126978327e-16 0.1564344650402303971 1.708035422500241173e-16 -0.9876883405951378814 forward_v I I I I #
coedge $-1 -1 $-1 $278 $297 $264 $322 reversed $205 0 $-1 #
edge $-1 41933 $-1 $317 0 $331 0.3297056722068197887 $264 $348 forward @7 unknown #
ATTRIB_CUSTOM-attrib $-1 -1 $-1 $-1 $266 @22 generic_tag_attrib_def 3 3 -1 @23 generic_tag_attrib_def  1 0 @0  0 2 523 527 0 #
ATTRIB_CUSTOM-attrib $349 -1 $-1 $-1 $267 @22 generic_tag_attrib_def 3 3 -1 @23 generic_tag_attrib_def  1 1 @1 3 0 2 517 521 0 #
point $-1 -1 $-1 8.926578774366682012 -1.620000000000000107 -2.196619570586946679 #
ATTRIB_CUSTOM-attrib $-1 -1 $-1 $-1 $272 @22 generic_tag_attrib_def 3 3 -1 @23 generic_tag_attrib_def  1 0 @0  0 2 523 527 0 #
ATTRIB_CUSTOM-attrib $-1 -1 $-1 $-1 $275 @22 generic_tag_attrib_def 3 3 -1 @23 generic_tag_attrib_def  1 0 @0  0 2 523 527 0 #
ATTRIB_CUSTOM-attrib $350 -1 $-1 $-1 $276 @22 generic_tag_attrib_def 3 3 -1 @23 generic_tag_attrib_def  1 1 @1 6 0 2 509 521 0 #
plane-surface $-1 -1 $-1 11.45649619829013588 -1.620000000000000107 -2.188756484137282854 0.1354762207522682005 -0.4999999999999997224 -0.8553631939770866 -0.07821723252011515692 -0.8660254037844388186 0.4938441702975686631 forward_v I I I I #
edge $-1 41929 $-1 $216 2.617993877991494855 $331 3.665191429188092265 $285 $153 forward @7 unknown #
vertex $-1 42823 $-1 $330 1 $351 #
vertex $-1 42822 $-1 $311 0 $352 #
intcurve-curve $-1 -1 $-1 forward { exact_int_cur 22403 full nurbs 2 open 2 
	0.3297056722068197887 2 0.6594113444136395774 2 
	11.43107559772109916 -1.338541743770057302 -2.028257128790574626 1 
	11.44287333950296137 -1.46916697508022942 -2.102745138835551586 1.037954849302037186 
	11.40683752492681791 -1.619999999999999662 -2.196621645325190997 1 
	0 
	
	null_surface 
	null_surface 
	nullbs 
	nullbs 
	I I 
	0 
	0 
	0 
	
	0 F 1 F 0 UNEXTENDED UNEXTENDED } I I #
point $-1 -1 $-1 11.35481379601398721 -1.057083487540114941 -1.54675906275044639 #
straight-curve $-1 -1 $-1 11.40565499715206244 -2.182916512459884828 -1.867757773443862845 -0.9876883405951378814 0 -0.1564344650402303971 I I #
intcurve-curve $-1 -1 $-1 forward { exact_int_cur 22403 full nurbs 2 open 2 
	0 2 0.3297056722068196777 2 
	11.40683752492681791 -1.620000000000000329 -2.196621645325190997 1 
	11.44287333950296137 -1.770833024919770127 -2.102745138835551586 1.037954849302039628 
	11.43107559772109916 -1.901458256229942467 -2.028257128790574626 1 
	0 
	
	null_surface 
	null_surface 
	nullbs 
	nullbs 
	I I 
	0 
	0 
	0 
	
	0 F 1 F 0 UNEXTENDED UNEXTENDED } I I #
intcurve-curve $-1 -1 $-1 forward { exact_int_cur 22403 full nurbs 2 open 2 
	0 2 0.3297056722068200108 2 
	10.85978709794166086 -2.182916512459885272 -1.296112423389232049 1 
	10.83737414215269368 -2.182916512459884828 -1.47600027518060628 1.037954849302052063 
	10.86096962571641811 -2.182916512459884828 -1.6249762952705602 1 
	0 
	
	null_surface 
	null_surface 
	nullbs 
	nullbs 
	I I 
	0 
	0 
	0 
	
	0 F 1 F 0 UNEXTENDED UNEXTENDED } I I #
point $-1 -1 $-1 10.85978709794166086 -2.182916512459884828 -1.296112423389232049 #
ATTRIB_CUSTOM-attrib $-1 -1 $-1 $-1 $295 @22 generic_tag_attrib_def 3 3 -1 @23 generic_tag_attrib_def  1 0 @0  0 2 523 527 0 #
ATTRIB_CUSTOM-attrib $-1 -1 $-1 $-1 $299 @22 generic_tag_attrib_def 3 3 -1 @23 generic_tag_attrib_def  1 0 @0  0 2 523 527 0 #
intcurve-curve $-1 -1 $-1 forward { exact_int_cur 22403 full nurbs 2 open 2 
	0.3297056722068198997 2 0.6594113444136396884 2 
	10.78470782400930617 -1.901458256229942689 -1.143478229230428411 1 
	10.79650556579116838 -2.032083487540114586 -1.217966239275405371 1.037954849302043181 
	10.85978709794166086 -2.182916512459884828 -1.296112423389232049 1 
	0 
	
	null_surface 
	null_surface 
	nullbs 
	nullbs 
	I I 
	0 
	0 
	0 
	
	0 F 1 F 0 UNEXTENDED UNEXTENDED } I I #
point $-1 -1 $-1 10.96146950021780953 -2.182916512459884828 -1.938109844776068513 #
ATTRIB_CUSTOM-attrib $-1 -1 $-1 $-1 $310 @22 generic_tag_attrib_def 3 3 -1 @23 generic_tag_attrib_def  1 0 @0  0 2 523 527 0 #
straight-curve $-1 -1 $-1 11.45649619829013588 -1.620000000000000107 -2.188756484137282854 -0.9876883405951378814 0 -0.1564344650402303971 I I #
intcurve-curve $-1 -1 $-1 forward { exact_int_cur 22403 full nurbs 2 open 2 
	0.3297056722068198997 2 0.6594113444136397995 2 
	11.35481379601398721 -1.057083487540114941 -1.54675906275044639 1 
	11.37840927957770987 -1.057083487540114941 -1.695735082840396757 1.037954849302050286 
	11.35599632378874446 -1.057083487540114941 -1.875622934631770988 1 
	0 
	
	null_surface 
	null_surface 
	nullbs 
	nullbs 
	I I 
	0 
	0 
	0 
	
	0 F 1 F 0 UNEXTENDED UNEXTENDED } I I #
point $-1 -1 $-1 11.35599632378874446 -1.057083487540114941 -1.875622934631770988 #
ATTRIB_CUSTOM-attrib $-1 -1 $-1 $-1 $319 @22 generic_tag_attrib_def 3 3 -1 @23 generic_tag_attrib_def  1 0 @0  0 2 523 527 0 #
intcurve-curve $-1 -1 $-1 forward { exact_int_cur 22403 full nurbs 2 open 2 
	0 2 0.3297056722068197887 2 
	11.35599632378874446 -1.057083487540114941 -1.875622934631770988 1 
	11.41927785593923694 -1.207916512459885183 -1.953769118745597666 1.037954849302034077 
	11.43107559772109916 -1.338541743770057302 -2.028257128790574626 1 
	0 
	
	null_surface 
	null_surface 
	nullbs 
	nullbs 
	I I 
	0 
	0 
	0 
	
	0 F 1 F 0 UNEXTENDED UNEXTENDED } I I #
ATTRIB_CUSTOM-attrib $-1 -1 $-1 $-1 $324 @22 generic_tag_attrib_def 3 3 -1 @23 generic_tag_attrib_def  1 0 @0  0 2 523 527 0 #
ATTRIB_CUSTOM-attrib $-1 -1 $-1 $-1 $328 @22 generic_tag_attrib_def 3 3 -1 @23 generic_tag_attrib_def  1 0 @0  0 2 523 527 0 #
point $-1 -1 $-1 11.43107559772109916 -1.338541743770057302 -2.028257128790574626 #
point $-1 -1 $-1 11.40683752492681791 -1.619999999999999885 -2.196621645325190997 #
End-of-ASM-data 