22700 0 2 4           
16 Autodesk Neutron 20 ASM 227.1.1.65535 NT 24 Thu Aug 26 01:27:29 2021 
10 9.999999999999999547e-07 1.000000000000000036e-10 
asmheader $-1 -1 @13 227.1.1.65535 #
body $2 106 $-1 $3 $-1 $4 #
ATTRIB_CUSTOM-attrib $-1 -1 $5 $-1 $1 @20 Timestamp_attrib_def 1 1533905496898133 #
lump $-1 -1 $-1 $-1 $6 $1 #
transform $-1 -1 1 0 0 0 1 0 0 0 1 0 0 0 1 no_rotate no_reflect no_shear #
ATTRIB_CUSTOM-attrib $-1 -1 $-1 $2 $1 @22 generic_tag_attrib_def 3 3 -1 @23 generic_tag_attrib_def  2 3 @3 435 9 0 0 3 @3 438 4 0 0 #
shell $-1 -1 $-1 $-1 $-1 $7 $-1 $3 #
face $8 102 $-1 $9 $10 $6 $-1 $11 forward single #
ATTRIB_CUSTOM-attrib $-1 -1 $-1 $-1 $7 @22 generic_tag_attrib_def 3 3 -1 @23 generic_tag_attrib_def  1 1 @1 1 0 1 441 0 #
face $12 101 $-1 $13 $14 $6 $-1 $15 forward single #
loop $-1 -1 $-1 $16 $17 $7 #
torus-surface $-1 -1 $-1 0 0 0.9300000000000000488 -0 -0 -1 0.473300000000000054 -0.02999999999999999889 -1 0 0 forward_v I I I I #
ATTRIB_CUSTOM-attrib $-1 -1 $18 $-1 $9 @22 FDM_feature_attrib_def 2 2 @16 thread_face_data 3 445 2097152 6 1901 0 0 0.9300000000000001599 0 0 1.968700000000000117 0 0 0 0 #
face $19 103 $-1 $20 $21 $6 $-1 $22 forward single #
loop $-1 -1 $-1 $23 $24 $9 #
cone-surface $-1 -1 $-1 0 0 0 0 0 1 0.4433000000000000274 0 0 1 I I 0 1 0.4500000000000000111 forward I I I I #
loop $-1 -1 $-1 $-1 $25 $7 #
coedge $-1 -1 $-1 $17 $17 $26 $27 forward $10 0 $-1 #
ATTRIB_CUSTOM-attrib $-1 -1 $-1 $12 $9 @22 generic_tag_attrib_def 3 3 -1 @23 generic_tag_attrib_def  1 1 @1 3 0 2 438 -445 0 #
ATTRIB_CUSTOM-attrib $-1 -1 $-1 $-1 $13 @22 generic_tag_attrib_def 3 3 -1 @23 generic_tag_attrib_def  1 1 @1 2 0 1 435 0 #
face $28 73 $-1 $29 $30 $6 $-1 $31 reversed single #
loop $-1 -1 $-1 $32 $33 $13 #
plane-surface $-1 -1 $-1 0 1.11022302462515654e-16 0.9000000000000000222 0 0 1 1 0 0 forward_v I I I I #
loop $-1 -1 $-1 $-1 $26 $9 #
coedge $-1 -1 $-1 $24 $24 $34 $35 reversed $14 0 $-1 #
coedge $-1 -1 $-1 $25 $25 $36 $37 forward $16 0 $-1 #
coedge $-1 -1 $-1 $26 $26 $17 $27 reversed $23 0 $-1 #
edge $-1 104 $-1 $38 -3.141592653589793116 $38 3.141592653589793116 $26 $39 forward @7 tangent #
ATTRIB_CUSTOM-attrib $-1 -1 $-1 $-1 $20 @22 generic_tag_attrib_def 3 3 -1 @23 generic_tag_attrib_def  1 1 @1 5 0 1 444 0 #
face $40 72 $-1 $41 $42 $6 $-1 $31 reversed single #
loop $-1 -1 $-1 $-1 $43 $20 #
cone-surface $-1 -1 $-1 8.064831642121550135e-34 0 0.03384074277046122958 -1.699904930667138038e-17 0 1 0.8163861141556919554 0 0 1 I I -0.8660254037844387076 -0.5 0.8163861141556919554 forward I I I I #
loop $-1 -1 $-1 $-1 $36 $13 #
coedge $-1 -1 $-1 $44 $45 $46 $47 forward $21 0 $-1 #
coedge $-1 -1 $-1 $34 $34 $24 $35 forward $48 0 $-1 #
edge $-1 33 $-1 $49 -3.141592653589793116 $49 3.141592653589793116 $24 $50 reversed @7 unknown #
coedge $-1 -1 $-1 $36 $36 $25 $37 reversed $32 0 $-1 #
edge $-1 105 $-1 $51 -3.141592653589793116 $51 3.141592653589793116 $36 $52 forward @7 tangent #
vertex $-1 -1 $-1 $27 0 $53 #
ellipse-curve $-1 -1 $-1 0 0 0.9300000000000000488 -0 -0 -1 0.4433000000000000274 0 0 1 I I #
ATTRIB_CUSTOM-attrib $-1 -1 $-1 $-1 $29 @22 generic_tag_attrib_def 3 3 -1 @23 generic_tag_attrib_def  1 1 @1 5 0 1 444 0 #
face $54 71 $-1 $55 $56 $6 $-1 $31 reversed single #
loop $-1 -1 $-1 $-1 $57 $29 #
coedge $-1 -1 $-1 $58 $59 $60 $61 reversed $30 0 $-1 #
coedge $-1 -1 $-1 $62 $33 $63 $64 forward $21 0 $-1 #
coedge $-1 -1 $-1 $33 $65 $66 $67 forward $21 0 $-1 #
coedge $-1 -1 $-1 $68 $69 $33 $47 reversed $70 0 $-1 #
edge $-1 54 $-1 $71 1.570796326794896558 $72 2.617993877991493967 $33 $73 forward @7 unknown #
loop $-1 -1 $-1 $74 $34 $75 #
vertex $-1 -1 $-1 $35 0 $76 #
ellipse-curve $-1 -1 $-1 0 0 1.968700000000000117 -0 -0 -1 0.4433000000000000274 0 0 1 I I #
vertex $-1 -1 $-1 $37 0 $77 #
ellipse-curve $-1 -1 $-1 0 0 0.9000000000000000222 0 0 1 0.473300000000000054 0 0 1 I I #
point $-1 -1 $-1 -0.4433000000000000274 5.428859260620217196e-17 0.9300000000000000488 #
ATTRIB_CUSTOM-attrib $-1 -1 $-1 $-1 $41 @22 generic_tag_attrib_def 3 3 -1 @23 generic_tag_attrib_def  1 1 @1 5 0 1 444 0 #
face $78 70 $-1 $79 $80 $6 $-1 $31 reversed single #
loop $-1 -1 $-1 $-1 $81 $41 #
coedge $-1 -1 $-1 $82 $83 $84 $85 reversed $42 0 $-1 #
coedge $-1 -1 $-1 $59 $43 $86 $87 reversed $30 0 $-1 #
coedge $-1 -1 $-1 $43 $58 $88 $89 reversed $30 0 $-1 #
coedge $-1 -1 $-1 $90 $91 $43 $61 forward $92 0 $-1 #
edge $-1 88 $-1 $93 0 $94 0.4438345587399500358 $60 $95 forward @7 unknown #
coedge $-1 -1 $-1 $96 $44 $97 $98 forward $21 0 $-1 #
coedge $-1 -1 $-1 $99 $100 $44 $64 reversed $101 0 $-1 #
edge $-1 55 $-1 $72 2.617993877991493967 $102 3.665191429188091377 $44 $73 forward @7 unknown #
coedge $-1 -1 $-1 $45 $96 $103 $104 forward $21 0 $-1 #
coedge $-1 -1 $-1 $105 $106 $45 $67 reversed $107 0 $-1 #
edge $-1 53 $-1 $108 0.5235987755982988157 $71 1.570796326794896558 $45 $73 forward @7 unknown #
coedge $-1 -1 $-1 $69 $46 $109 $110 reversed $70 0 $-1 #
coedge $-1 -1 $-1 $46 $68 $111 $112 reversed $70 0 $-1 #
loop $-1 -1 $-1 $-1 $69 $113 #
vertex $-1 -1 $-1 $114 2 $115 #
vertex $-1 -1 $-1 $47 2 $116 #
ellipse-curve $-1 -1 $-1 4.602083639435601492e-18 0 0.9000000000000000222 0 0 1 0.7577722283113840218 0 -1.020887748718519342e-16 1 I I #
loop $-1 -1 $-1 $-1 $117 $75 #
face $118 30 $-1 $119 $48 $6 $-1 $120 forward single #
point $-1 -1 $-1 -0.4433000000000000274 5.428859260620217196e-17 1.968700000000000117 #
point $-1 -1 $-1 -0.473300000000000054 -5.796253300364423577e-17 0.9000000000000000222 #
ATTRIB_CUSTOM-attrib $-1 -1 $-1 $-1 $55 @22 generic_tag_attrib_def 3 3 -1 @23 generic_tag_attrib_def  1 1 @1 5 0 1 444 0 #
face $121 69 $-1 $122 $123 $6 $-1 $31 reversed single #
loop $-1 -1 $-1 $-1 $124 $55 #
coedge $-1 -1 $-1 $125 $126 $127 $128 reversed $56 0 $-1 #
coedge $-1 -1 $-1 $83 $57 $129 $130 reversed $42 0 $-1 #
coedge $-1 -1 $-1 $57 $82 $131 $132 reversed $42 0 $-1 #
coedge $-1 -1 $-1 $133 $134 $57 $85 forward $135 0 $-1 #
edge $-1 87 $-1 $136 0.4438345587399502579 $137 0.8876691174799005157 $84 $138 forward @7 unknown #
coedge $-1 -1 $-1 $139 $131 $58 $87 forward $140 0 $-1 #
edge $-1 85 $-1 $141 0.4438345587399498693 $93 0.8876691174798997386 $86 $142 forward @7 unknown #
coedge $-1 -1 $-1 $129 $143 $59 $89 forward $144 0 $-1 #
edge $-1 92 $-1 $94 -0.5235987755982988157 $141 0.5235987755982988157 $88 $145 forward @7 unknown #
coedge $-1 -1 $-1 $146 $60 $147 $148 forward $92 0 $-1 #
coedge $-1 -1 $-1 $60 $149 $139 $150 reversed $92 0 $-1 #
loop $-1 -1 $-1 $-1 $90 $151 #
vertex $-1 -1 $-1 $150 0 $152 #
vertex $-1 -1 $-1 $61 1 $153 #
intcurve-curve $-1 -1 $-1 forward { exact_int_cur 22403 full nurbs 2 open 2 
	0 2 0.4438345587399500358 2 
	0.875 -5.949667257334982824e-17 0.06768148554092254243 1 
	0.7577722283113834667 0.2030444566227681547 -1.201296007113938913e-16 1.037954849302046956 
	0.65625 0.3788861141556918999 -5.551115123125782702e-17 1 
	0 
	
	null_surface 
	null_surface 
	nullbs 
	nullbs 
	I I 
	0 
	0 
	0 
	
	0 F 1 F 0 UNEXTENDED UNEXTENDED } I I #
coedge $-1 -1 $-1 $65 $62 $154 $155 forward $21 0 $-1 #
coedge $-1 -1 $-1 $156 $157 $62 $98 reversed $158 0 $-1 #
edge $-1 50 $-1 $102 -2.617993877991494855 $159 -1.57079632679489678 $62 $73 forward @7 unknown #
coedge $-1 -1 $-1 $100 $63 $160 $161 reversed $101 0 $-1 #
coedge $-1 -1 $-1 $63 $99 $162 $163 reversed $101 0 $-1 #
loop $-1 -1 $-1 $-1 $100 $164 #
vertex $-1 -1 $-1 $64 2 $165 #
coedge $-1 -1 $-1 $166 $167 $65 $104 reversed $168 0 $-1 #
edge $-1 52 $-1 $169 -0.5235987755982987046 $108 0.5235987755982988157 $65 $73 forward @7 unknown #
coedge $-1 -1 $-1 $106 $66 $170 $171 reversed $107 0 $-1 #
coedge $-1 -1 $-1 $66 $105 $172 $114 reversed $107 0 $-1 #
loop $-1 -1 $-1 $-1 $105 $173 #
vertex $-1 -1 $-1 $171 2 $174 #
coedge $-1 -1 $-1 $172 $175 $68 $110 forward $176 0 $-1 #
edge $-1 64 $-1 $177 0 $71 0.443834558739950702 $109 $178 forward @7 unknown #
coedge $-1 -1 $-1 $179 $160 $69 $112 forward $180 0 $-1 #
edge $-1 63 $-1 $72 0.4438345587399508685 $177 0.887669117479901737 $111 $181 forward @7 unknown #
face $182 45 $-1 $183 $70 $6 $-1 $184 reversed single #
edge $-1 65 $-1 $71 0.443834558739950702 $185 0.8876691174799011819 $172 $186 forward @7 unknown #
point $-1 -1 $-1 8.786881048632236051e-17 0.7577722283113839108 0.9000000000000001332 #
point $-1 -1 $-1 -0.656249999999999889 0.3788861141556920664 0.9000000000000001332 #
coedge $-1 -1 $-1 $117 $117 $187 $188 forward $74 0 $-1 #
ATTRIB_CUSTOM-attrib $-1 -1 $-1 $-1 $75 @22 generic_tag_attrib_def 3 3 -1 @23 generic_tag_attrib_def  1 1 @1 1 0 1 440 0 #
face $189 31 $-1 $190 $191 $6 $-1 $192 forward single #
cone-surface $-1 -1 $-1 0 0 1.980999999999999872 0 0 1 0.4310000000000000497 0 0 1 I I -0.7071067811865470176 0.7071067811865480168 0.4310000000000000497 forward I I I I #
ATTRIB_CUSTOM-attrib $-1 -1 $-1 $-1 $79 @22 generic_tag_attrib_def 3 3 -1 @23 generic_tag_attrib_def  1 1 @1 5 0 1 444 0 #
face $193 68 $-1 $194 $195 $6 $-1 $31 reversed single #
loop $-1 -1 $-1 $-1 $196 $79 #
coedge $-1 -1 $-1 $147 $197 $198 $199 reversed $80 0 $-1 #
coedge $-1 -1 $-1 $126 $81 $200 $201 reversed $56 0 $-1 #
coedge $-1 -1 $-1 $81 $125 $134 $202 reversed $56 0 $-1 #
coedge $-1 -1 $-1 $203 $204 $81 $128 forward $205 0 $-1 #
edge $-1 79 $-1 $206 0.4438345587399499248 $207 0.8876691174799000716 $127 $208 forward @7 unknown #
coedge $-1 -1 $-1 $200 $88 $82 $130 forward $144 0 $-1 #
edge $-1 93 $-1 $141 0.5235987755982988157 $136 1.57079632679489678 $129 $145 forward @7 unknown #
coedge $-1 -1 $-1 $86 $209 $83 $132 forward $140 0 $-1 #
edge $-1 84 $-1 $137 0 $141 0.4438345587399498693 $131 $210 forward @7 unknown #
coedge $-1 -1 $-1 $211 $84 $209 $212 forward $135 0 $-1 #
coedge $-1 -1 $-1 $84 $213 $126 $202 forward $135 0 $-1 #
loop $-1 -1 $-1 $-1 $134 $214 #
vertex $-1 -1 $-1 $85 0 $215 #
vertex $-1 -1 $-1 $212 0 $216 #
intcurve-curve $-1 -1 $-1 forward { exact_int_cur 22403 full nurbs 2 open 2 
	0.4438345587399502579 2 0.8876691174799005157 2 
	-1.926458516294424081e-16 -0.7577722283113836887 -1.387778780781445676e-16 1 
	0.2030444566227670167 -0.7577722283113837998 -1.955900719163849999e-16 1.037954849302040516 
	0.4375000000000000555 -0.7577722283113839108 0.0676814855409225008 1 
	0 
	
	null_surface 
	null_surface 
	nullbs 
	nullbs 
	I I 
	0 
	0 
	0 
	
	0 F 1 F 0 UNEXTENDED UNEXTENDED } I I #
coedge $-1 -1 $-1 $217 $86 $91 $150 forward $140 0 $-1 #
loop $-1 -1 $-1 $-1 $86 $190 #
vertex $-1 -1 $-1 $132 1 $218 #
intcurve-curve $-1 -1 $-1 forward { exact_int_cur 22403 full nurbs 2 open 2 
	0.4438345587399498693 2 0.8876691174798997386 2 
	0.656250000000000111 -0.3788861141556918444 1.387778780781445676e-17 1 
	0.7577722283113836887 -0.2030444566227677938 -3.209238430557093125e-17 1.03795484930204962 
	0.875 5.949667257334982824e-17 0.0676814855409225008 1 
	0 
	
	null_surface 
	null_surface 
	nullbs 
	nullbs 
	I I 
	0 
	0 
	0 
	
	0 F 1 F 0 UNEXTENDED UNEXTENDED } I I #
coedge $-1 -1 $-1 $88 $219 $197 $220 forward $144 0 $-1 #
loop $-1 -1 $-1 $-1 $129 $221 #
ellipse-curve $-1 -1 $-1 5.75260454929454231e-19 0 0 -0 -0 -1 0.7577722283113839108 0 0 1 I I #
coedge $-1 -1 $-1 $170 $90 $222 $223 forward $92 0 $-1 #
coedge $-1 -1 $-1 $197 $124 $90 $148 reversed $80 0 $-1 #
edge $-1 89 $-1 $94 0.4438345587399500358 $224 0.8876691174798998496 $90 $225 forward @7 unknown #
coedge $-1 -1 $-1 $91 $170 $167 $226 forward $92 0 $-1 #
edge $-1 77 $-1 $93 0.06768148554092248692 $227 0.832318514459077563 $91 $228 forward @7 unknown #
face $229 5 $-1 $221 $92 $6 $-1 $230 forward single #
point $-1 -1 $-1 0.875 0 0.06768148554092248692 #
point $-1 -1 $-1 0.65625 0.3788861141556918444 -2.722161700311360879e-18 #
coedge $-1 -1 $-1 $231 $232 $96 $155 reversed $233 0 $-1 #
edge $-1 51 $-1 $159 -1.57079632679489678 $169 -0.5235987755982987046 $96 $73 forward @7 unknown #
coedge $-1 -1 $-1 $157 $97 $234 $235 reversed $158 0 $-1 #
coedge $-1 -1 $-1 $97 $156 $236 $237 reversed $158 0 $-1 #
loop $-1 -1 $-1 $-1 $157 $238 #
vertex $-1 -1 $-1 $155 2 $239 #
coedge $-1 -1 $-1 $111 $240 $99 $161 forward $180 0 $-1 #
edge $-1 62 $-1 $241 0 $72 0.4438345587399508685 $160 $242 forward @7 unknown #
coedge $-1 -1 $-1 $243 $234 $100 $163 forward $205 0 $-1 #
edge $-1 61 $-1 $102 0.443834558739950924 $241 0.887669117479901626 $162 $244 forward @7 unknown #
face $245 42 $-1 $238 $101 $6 $-1 $184 reversed single #
point $-1 -1 $-1 -0.656250000000000222 -0.3788861141556917334 0.9000000000000001332 #
coedge $-1 -1 $-1 $167 $103 $217 $246 reversed $168 0 $-1 #
coedge $-1 -1 $-1 $103 $166 $149 $226 reversed $168 0 $-1 #
loop $-1 -1 $-1 $-1 $166 $183 #
vertex $-1 -1 $-1 $104 2 $247 #
coedge $-1 -1 $-1 $149 $146 $105 $171 forward $92 0 $-1 #
edge $-1 66 $-1 $185 0 $108 0.4438345587399499248 $170 $248 forward @7 unknown #
coedge $-1 -1 $-1 $222 $109 $106 $114 forward $176 0 $-1 #
face $249 46 $-1 $113 $107 $6 $-1 $184 reversed single #
point $-1 -1 $-1 0.65625 0.3788861141556918444 0.9000000000000001332 #
coedge $-1 -1 $-1 $109 $250 $179 $251 forward $176 0 $-1 #
loop $-1 -1 $-1 $-1 $250 $252 #
vertex $-1 -1 $-1 $110 0 $253 #
intcurve-curve $-1 -1 $-1 forward { exact_int_cur 22403 full nurbs 2 open 2 
	0 2 0.443834558739950702 2 
	-0.4375000000000006106 0.7577722283113840218 0.832318514459077563 1 
	-0.2030444566227679604 0.7577722283113839108 0.9000000000000002442 1.037954849302024751 
	9.47719359454758213e-17 0.7577722283113839108 0.9000000000000001332 1 
	0 
	
	null_surface 
	null_surface 
	nullbs 
	nullbs 
	I I 
	0 
	0 
	0 
	
	0 F 1 F 0 UNEXTENDED UNEXTENDED } I I #
coedge $-1 -1 $-1 $254 $111 $175 $251 reversed $180 0 $-1 #
loop $-1 -1 $-1 $-1 $254 $194 #
intcurve-curve $-1 -1 $-1 forward { exact_int_cur 22403 full nurbs 2 open 2 
	0.4438345587399508685 2 0.887669117479901737 2 
	-0.65625 0.3788861141556921219 0.9000000000000001332 1 
	-0.5547277716886167553 0.5547277716886155341 0.9000000000000002442 1.037954849302064941 
	-0.4374999999999994449 0.7577722283113846879 0.832318514459077341 1 
	0 
	
	null_surface 
	null_surface 
	nullbs 
	nullbs 
	I I 
	0 
	0 
	0 
	
	0 F 1 F 0 UNEXTENDED UNEXTENDED } I I #
ATTRIB_CUSTOM-attrib $-1 -1 $-1 $-1 $113 @22 generic_tag_attrib_def 3 3 -1 @23 generic_tag_attrib_def  1 1 @1 3 0 1 443 0 #
face $255 44 $-1 $256 $168 $6 $-1 $184 reversed single #
cone-surface $-1 -1 $-1 -1.117039367744596795e-32 0 0.8661592572295389036 1.35992394453371043e-16 -0 1 0.8163861141556919554 0 -1.09985369089428762e-16 1 I I 0.8660254037844389297 -0.4999999999999996669 0.8163861141556919554 forward I I I I #
vertex $-1 -1 $-1 $114 1 $257 #
intcurve-curve $-1 -1 $-1 forward { exact_int_cur 22403 full nurbs 2 open 2 
	0.443834558739950702 2 0.8876691174799011819 2 
	9.47719359454758213e-17 0.7577722283113839108 0.9000000000000001332 1 
	0.2030444566227671832 0.7577722283113839108 0.9000000000000001332 1.037954849302055171 
	0.4375000000000006106 0.7577722283113839108 0.832318514459077341 1 
	0 
	
	null_surface 
	null_surface 
	nullbs 
	nullbs 
	I I 
	0 
	0 
	0 
	
	0 F 1 F 0 UNEXTENDED UNEXTENDED } I I #
coedge $-1 -1 $-1 $187 $187 $117 $188 reversed $191 0 $-1 #
edge $-1 34 $-1 $258 -3.141592653589793116 $258 3.141592653589793116 $187 $259 forward @7 unknown #
ATTRIB_CUSTOM-attrib $-1 -1 $-1 $-1 $119 @22 generic_tag_attrib_def 3 3 -1 @23 generic_tag_attrib_def  1 1 @1 2 0 1 438 0 #
face $260 0 $-1 $151 $140 $6 $-1 $261 forward single #
loop $-1 -1 $-1 $-1 $187 $119 #
plane-surface $-1 -1 $-1 0 0 2 0 0 1 1 0 0 forward_v I I I I #
ATTRIB_CUSTOM-attrib $-1 -1 $-1 $-1 $122 @22 generic_tag_attrib_def 3 3 -1 @23 generic_tag_attrib_def  1 1 @1 5 0 1 444 0 #
face $262 76 $-1 $263 $180 $6 $-1 $264 forward single #
loop $-1 -1 $-1 $-1 $265 $122 #
coedge $-1 -1 $-1 $266 $267 $268 $269 reversed $123 0 $-1 #
coedge $-1 -1 $-1 $124 $147 $143 $220 reversed $80 0 $-1 #
coedge $-1 -1 $-1 $250 $222 $124 $199 forward $176 0 $-1 #
edge $-1 82 $-1 $224 0 $270 0.4438345587399497028 $198 $271 forward @7 unknown #
coedge $-1 -1 $-1 $272 $129 $125 $201 forward $144 0 $-1 #
edge $-1 94 $-1 $136 1.57079632679489678 $206 2.617993877991494855 $200 $145 forward @7 unknown #
edge $-1 86 $-1 $207 0 $136 0.4438345587399502579 $134 $273 forward @7 unknown #
coedge $-1 -1 $-1 $234 $127 $213 $274 forward $205 0 $-1 #
coedge $-1 -1 $-1 $127 $243 $267 $275 forward $205 0 $-1 #
loop $-1 -1 $-1 $-1 $204 $263 #
vertex $-1 -1 $-1 $201 1 $276 #
vertex $-1 -1 $-1 $274 0 $277 #
intcurve-curve $-1 -1 $-1 forward { exact_int_cur 22403 full nurbs 2 open 2 
	0.4438345587399499248 2 0.8876691174799000716 2 
	-0.656250000000000222 -0.3788861141556917334 -1.387778780781445676e-17 1 
	-0.5547277716886165333 -0.5547277716886157561 -8.933825901280556536e-17 1.037954849302040516 
	-0.437500000000000222 -0.7577722283113837998 0.06768148554092251468 1 
	0 
	
	null_surface 
	null_surface 
	nullbs 
	nullbs 
	I I 
	0 
	0 
	0 
	
	0 F 1 F 0 UNEXTENDED UNEXTENDED } I I #
coedge $-1 -1 $-1 $131 $278 $133 $212 reversed $140 0 $-1 #
intcurve-curve $-1 -1 $-1 forward { exact_int_cur 22403 full nurbs 2 open 2 
	0 2 0.4438345587399498693 2 
	0.4375000000000001665 -0.7577722283113836887 0.06768148554092248692 1 
	0.5547277716886164223 -0.5547277716886158672 -5.117434254131580929e-17 1.037954849302051175 
	0.656250000000000111 -0.3788861141556918444 1.387778780781445676e-17 1 
	0 
	
	null_surface 
	null_surface 
	nullbs 
	nullbs 
	I I 
	0 
	0 
	0 
	
	0 F 1 F 0 UNEXTENDED UNEXTENDED } I I #
coedge $-1 -1 $-1 $236 $133 $231 $279 forward $135 0 $-1 #
edge $-1 96 $-1 $137 0.06768148554092248692 $280 0.8323185144590776741 $133 $281 forward @7 unknown #
coedge $-1 -1 $-1 $134 $236 $203 $274 reversed $135 0 $-1 #
face $282 74 $-1 $173 $135 $6 $-1 $283 forward single #
point $-1 -1 $-1 -1.937137688544729498e-16 -0.7577722283113836887 -1.387778780781445984e-17 #
point $-1 -1 $-1 0.437500000000000222 -0.7577722283113836887 0.06768148554092248692 #
coedge $-1 -1 $-1 $278 $139 $166 $246 forward $140 0 $-1 #
point $-1 -1 $-1 0.656250000000000111 -0.3788861141556918444 -2.722161700311359338e-18 #
coedge $-1 -1 $-1 $143 $272 $284 $285 forward $144 0 $-1 #
edge $-1 91 $-1 $270 -1.570796326794896558 $94 -0.5235987755982988157 $143 $145 forward @7 unknown #
face $286 6 $-1 $-1 $144 $6 $-1 $287 reversed single #
coedge $-1 -1 $-1 $198 $172 $146 $223 reversed $176 0 $-1 #
edge $-1 98 $-1 $224 0.0676814855409225008 $185 0.832318514459077563 $146 $288 forward @7 unknown #
vertex $-1 -1 $-1 $223 0 $289 #
intcurve-curve $-1 -1 $-1 forward { exact_int_cur 22403 full nurbs 2 open 2 
	0.4438345587399500358 2 0.8876691174798998496 2 
	0.65625 0.3788861141556918999 -5.551115123125782702e-17 1 
	0.5547277716886165333 0.5547277716886156451 -9.497611030973018842e-17 1.037954849302046512 
	0.437500000000000111 0.7577722283113836887 0.06768148554092251468 1 
	0 
	
	null_surface 
	null_surface 
	nullbs 
	nullbs 
	I I 
	0 
	0 
	0 
	
	0 F 1 F 0 UNEXTENDED UNEXTENDED } I I #
edge $-1 67 $-1 $108 0.4438345587399499248 $227 0.8876691174798998496 $149 $290 forward @7 unknown #
vertex $-1 -1 $-1 $226 1 $291 #
straight-curve $-1 -1 $-1 0.875 0 0 0 0 1 I I #
ATTRIB_CUSTOM-attrib $-1 -1 $-1 $-1 $151 @22 generic_tag_attrib_def 3 3 -1 @23 generic_tag_attrib_def  1 1 @1 3 0 1 435 0 #
plane-surface $-1 -1 $-1 0.875 0 0 0.8660254037844387076 0.4999999999999999445 -0 -0.4999999999999999445 0.8660254037844387076 -0 forward_v I I I I #
coedge $-1 -1 $-1 $232 $154 $211 $279 reversed $233 0 $-1 #
coedge $-1 -1 $-1 $154 $231 $278 $292 reversed $233 0 $-1 #
loop $-1 -1 $-1 $-1 $231 $256 #
coedge $-1 -1 $-1 $162 $203 $156 $235 forward $205 0 $-1 #
edge $-1 60 $-1 $293 0 $102 0.443834558739950924 $234 $294 forward @7 unknown #
coedge $-1 -1 $-1 $213 $211 $157 $237 forward $135 0 $-1 #
edge $-1 59 $-1 $159 0.4438345587399510905 $293 0.88766911747990207 $236 $295 forward @7 unknown #
face $296 41 $-1 $252 $158 $6 $-1 $184 reversed single #
point $-1 -1 $-1 -1.896869456699667869e-16 -0.7577722283113836887 0.9000000000000001332 #
coedge $-1 -1 $-1 $160 $268 $243 $297 forward $180 0 $-1 #
vertex $-1 -1 $-1 $161 0 $298 #
intcurve-curve $-1 -1 $-1 forward { exact_int_cur 22403 full nurbs 2 open 2 
	0 2 0.4438345587399508685 2 
	-0.8750000000000004441 -5.35470053160148676e-16 0.832318514459077452 1 
	-0.7577722283113839108 0.2030444566227677383 0.9000000000000001332 1.037954849302074711 
	-0.65625 0.3788861141556921219 0.9000000000000001332 1 
	0 
	
	null_surface 
	null_surface 
	nullbs 
	nullbs 
	I I 
	0 
	0 
	0 
	
	0 F 1 F 0 UNEXTENDED UNEXTENDED } I I #
coedge $-1 -1 $-1 $204 $162 $240 $297 reversed $205 0 $-1 #
intcurve-curve $-1 -1 $-1 forward { exact_int_cur 22403 full nurbs 2 open 2 
	0.443834558739950924 2 0.887669117479901626 2 
	-0.656250000000000222 -0.3788861141556917334 0.9000000000000002442 1 
	-0.7577722283113840218 -0.203044456622767433 0.9000000000000002442 1.037954849302036742 
	-0.8750000000000004441 8.92450088600247892e-16 0.832318514459077452 1 
	0 
	
	null_surface 
	null_surface 
	nullbs 
	nullbs 
	I I 
	0 
	0 
	0 
	
	0 F 1 F 0 UNEXTENDED UNEXTENDED } I I #
ATTRIB_CUSTOM-attrib $-1 -1 $-1 $-1 $164 @22 generic_tag_attrib_def 3 3 -1 @23 generic_tag_attrib_def  1 1 @1 3 0 1 443 0 #
edge $-1 56 $-1 $227 0 $169 0.4438345587399499248 $217 $299 forward @7 unknown #
point $-1 -1 $-1 0.656250000000000111 -0.3788861141556918444 0.9000000000000001332 #
intcurve-curve $-1 -1 $-1 forward { exact_int_cur 22403 full nurbs 2 open 2 
	0 2 0.4438345587399499248 2 
	0.437500000000000111 0.7577722283113837998 0.8323185144590776741 1 
	0.5547277716886159782 0.5547277716886165333 0.9000000000000000222 1.037954849302033189 
	0.65625 0.3788861141556918444 0.9000000000000000222 1 
	0 
	
	null_surface 
	null_surface 
	nullbs 
	nullbs 
	I I 
	0 
	0 
	0 
	
	0 F 1 F 0 UNEXTENDED UNEXTENDED } I I #
ATTRIB_CUSTOM-attrib $-1 -1 $-1 $-1 $173 @22 generic_tag_attrib_def 3 3 -1 @23 generic_tag_attrib_def  1 1 @1 3 0 1 443 0 #
coedge $-1 -1 $-1 $175 $198 $265 $300 forward $176 0 $-1 #
edge $-1 100 $-1 $301 0.06768148554092245917 $177 0.8323185144590776741 $175 $302 forward @7 unknown #
face $303 47 $-1 $75 $176 $6 $-1 $304 forward single #
point $-1 -1 $-1 -0.437499999999999778 0.7577722283113839108 0.8323185144590776741 #
coedge $-1 -1 $-1 $268 $179 $305 $306 forward $180 0 $-1 #
ATTRIB_CUSTOM-attrib $-1 -1 $-1 $-1 $183 @22 generic_tag_attrib_def 3 3 -1 @23 generic_tag_attrib_def  1 1 @1 3 0 1 443 0 #
face $307 43 $-1 $164 $233 $6 $-1 $184 reversed single #
point $-1 -1 $-1 0.4374999999999999445 0.7577722283113839108 0.832318514459077563 #
vertex $-1 -1 $-1 $188 0 $308 #
ellipse-curve $-1 -1 $-1 0 0 2 -0 -0 -1 0.4120000000000000329 0 0 1 I I #
ATTRIB_CUSTOM-attrib $-1 -1 $-1 $-1 $190 @22 generic_tag_attrib_def 3 3 -1 @23 generic_tag_attrib_def  1 1 @1 8 0 1 435 0 #
plane-surface $-1 -1 $-1 0.437500000000000111 -0.7577722283113837998 0 0.8660254037844387076 -0.4999999999999999445 0 0.4999999999999999445 0.8660254037844387076 -0 forward_v I I I I #
ATTRIB_CUSTOM-attrib $-1 -1 $-1 $-1 $194 @22 generic_tag_attrib_def 3 3 -1 @23 generic_tag_attrib_def  1 1 @1 5 0 1 435 0 #
face $309 75 $-1 $214 $205 $6 $-1 $310 forward single #
plane-surface $-1 -1 $-1 -0.4374999999999997224 0.7577722283113839108 0 -0.8660254037844385966 0.5000000000000003331 0 -0.5000000000000003331 -0.8660254037844385966 -0 forward_v I I I I #
coedge $-1 -1 $-1 $284 $305 $250 $300 reversed $195 0 $-1 #
coedge $-1 -1 $-1 $267 $196 $272 $311 reversed $123 0 $-1 #
coedge $-1 -1 $-1 $196 $266 $204 $275 reversed $123 0 $-1 #
coedge $-1 -1 $-1 $240 $254 $196 $269 forward $180 0 $-1 #
edge $-1 81 $-1 $312 0.4438345587399495362 $313 0.8876691174798994055 $268 $314 forward @7 unknown #
vertex $-1 -1 $-1 $220 0 $315 #
intcurve-curve $-1 -1 $-1 forward { exact_int_cur 22403 full nurbs 2 open 2 
	0 2 0.4438345587399497028 2 
	0.437499999999999778 0.7577722283113839108 0.06768148554092245917 1 
	0.2030444566227667391 0.7577722283113839108 -1.335737076502141463e-16 1.037954849302052507 
	9.074511276096965844e-17 0.7577722283113839108 -2.081668171172168513e-17 1 
	0 
	
	null_surface 
	null_surface 
	nullbs 
	nullbs 
	I I 
	0 
	0 
	0 
	
	0 F 1 F 0 UNEXTENDED UNEXTENDED } I I #
coedge $-1 -1 $-1 $219 $200 $266 $311 forward $144 0 $-1 #
intcurve-curve $-1 -1 $-1 forward { exact_int_cur 22403 full nurbs 2 open 2 
	0 2 0.4438345587399502579 2 
	-0.4375000000000004441 -0.7577722283113835777 0.06768148554092248692 1 
	-0.2030444566227673775 -0.7577722283113836887 -2.20309881449054501e-16 1.037954849302044735 
	-1.926458516294424081e-16 -0.7577722283113836887 -1.387778780781445676e-16 1 
	0 
	
	null_surface 
	null_surface 
	nullbs 
	nullbs 
	I I 
	0 
	0 
	0 
	
	0 F 1 F 0 UNEXTENDED UNEXTENDED } I I #
edge $-1 97 $-1 $207 0.06768148554092245917 $293 0.8323185144590777851 $203 $316 forward @7 unknown #
edge $-1 78 $-1 $313 0 $206 0.4438345587399499248 $204 $317 forward @7 unknown #
point $-1 -1 $-1 -0.656250000000000222 -0.3788861141556917334 -2.503341391531755417e-17 #
point $-1 -1 $-1 -0.4375000000000003886 -0.7577722283113836887 0.06768148554092245917 #
coedge $-1 -1 $-1 $209 $217 $232 $292 forward $140 0 $-1 #
edge $-1 58 $-1 $280 0 $159 0.4438345587399510905 $211 $318 forward @7 unknown #
vertex $-1 -1 $-1 $292 1 $319 #
straight-curve $-1 -1 $-1 0.437500000000000111 -0.7577722283113837998 0 0 0 1 I I #
ATTRIB_CUSTOM-attrib $-1 -1 $-1 $-1 $214 @22 generic_tag_attrib_def 3 3 -1 @23 generic_tag_attrib_def  1 1 @1 7 0 1 435 0 #
plane-surface $-1 -1 $-1 -0.4375000000000003331 -0.7577722283113835777 0 -2.537652627714642394e-16 -1 0 1 -2.537652627714642394e-16 -0 forward_v I I I I #
coedge $-1 -1 $-1 $305 $265 $219 $285 reversed $195 0 $-1 #
edge $-1 90 $-1 $312 -2.617993877991493967 $270 -1.570796326794896558 $219 $145 forward @7 unknown #
ATTRIB_CUSTOM-attrib $-1 -1 $-1 $-1 $221 @22 generic_tag_attrib_def 3 3 -1 @23 generic_tag_attrib_def  2 1 @1 1 0 1 435 0 1 @1 1 0 1 438 0 #
plane-surface $-1 -1 $-1 0 1.11022302462515654e-16 0 0 0 1 1 0 0 forward_v I I I I #
straight-curve $-1 -1 $-1 0.437500000000000111 0.7577722283113837998 0 0 0 1 I I #
point $-1 -1 $-1 0.4374999999999999445 0.7577722283113839108 0.0676814855409225008 #
intcurve-curve $-1 -1 $-1 forward { exact_int_cur 22403 full nurbs 2 open 2 
	0.4438345587399499248 2 0.8876691174798998496 2 
	0.65625 0.3788861141556918444 0.9000000000000000222 1 
	0.7577722283113836887 0.2030444566227677938 0.9000000000000000222 1.037954849302043625 
	0.875 -5.949667257334984057e-17 0.832318514459077563 1 
	0 
	
	null_surface 
	null_surface 
	nullbs 
	nullbs 
	I I 
	0 
	0 
	0 
	
	0 F 1 F 0 UNEXTENDED UNEXTENDED } I I #
point $-1 -1 $-1 0.875 0 0.832318514459077563 #
edge $-1 57 $-1 $169 0.4438345587399499248 $280 0.8876691174798998496 $278 $320 forward @7 unknown #
vertex $-1 -1 $-1 $235 0 $321 #
intcurve-curve $-1 -1 $-1 forward { exact_int_cur 22403 full nurbs 2 open 2 
	0 2 0.443834558739950924 2 
	-0.437499999999999889 -0.7577722283113844659 0.832318514459077452 1 
	-0.5547277716886162002 -0.5547277716886162002 0.9000000000000002442 1.037954849302046068 
	-0.656250000000000222 -0.3788861141556917334 0.9000000000000002442 1 
	0 
	
	null_surface 
	null_surface 
	nullbs 
	nullbs 
	I I 
	0 
	0 
	0 
	
	0 F 1 F 0 UNEXTENDED UNEXTENDED } I I #
intcurve-curve $-1 -1 $-1 forward { exact_int_cur 22403 full nurbs 2 open 2 
	0.4438345587399510905 2 0.88766911747990207 2 
	-1.886190284449362206e-16 -0.7577722283113837998 0.9000000000000001332 1 
	-0.2030444566227684322 -0.7577722283113836887 0.9000000000000002442 1.037954849302035853 
	-0.4375000000000012768 -0.7577722283113836887 0.832318514459077563 1 
	0 
	
	null_surface 
	null_surface 
	nullbs 
	nullbs 
	I I 
	0 
	0 
	0 
	
	0 F 1 F 0 UNEXTENDED UNEXTENDED } I I #
ATTRIB_CUSTOM-attrib $-1 -1 $-1 $-1 $238 @22 generic_tag_attrib_def 3 3 -1 @23 generic_tag_attrib_def  1 1 @1 3 0 1 443 0 #
edge $-1 99 $-1 $313 0.06768148554092245917 $241 0.8323185144590776741 $240 $322 forward @7 unknown #
point $-1 -1 $-1 -0.875 1.665334536937734811e-16 0.8323185144590776741 #
intcurve-curve $-1 -1 $-1 forward { exact_int_cur 22403 full nurbs 2 open 2 
	0 2 0.4438345587399499248 2 
	0.875000000000000111 5.949667257334982824e-17 0.8323185144590776741 1 
	0.7577722283113840218 -0.203044456622767433 0.9000000000000001332 1.0379548493020192 
	0.656250000000000111 -0.3788861141556918444 0.9000000000000000222 1 
	0 
	
	null_surface 
	null_surface 
	nullbs 
	nullbs 
	I I 
	0 
	0 
	0 
	
	0 F 1 F 0 UNEXTENDED UNEXTENDED } I I #
edge $-1 83 $-1 $270 0.4438345587399497028 $301 0.8876691174798995165 $250 $323 forward @7 unknown #
vertex $-1 -1 $-1 $251 0 $324 #
straight-curve $-1 -1 $-1 -0.4374999999999997224 0.7577722283113839108 0 0 0 1 I I #
ATTRIB_CUSTOM-attrib $-1 -1 $-1 $-1 $252 @22 generic_tag_attrib_def 3 3 -1 @23 generic_tag_attrib_def  1 1 @1 4 0 1 435 0 #
plane-surface $-1 -1 $-1 0.437500000000000111 0.7577722283113837998 0 1.268826313857321937e-16 1 -0 -1 1.268826313857321937e-16 -0 forward_v I I I I #
coedge $-1 -1 $-1 $265 $284 $254 $306 reversed $195 0 $-1 #
edge $-1 80 $-1 $301 0 $312 0.4438345587399495362 $254 $325 forward @7 unknown #
ATTRIB_CUSTOM-attrib $-1 -1 $-1 $-1 $256 @22 generic_tag_attrib_def 3 3 -1 @23 generic_tag_attrib_def  1 1 @1 3 0 1 443 0 #
point $-1 -1 $-1 -0.4120000000000000329 5.045544812487095751e-17 2 #
ATTRIB_CUSTOM-attrib $-1 -1 $-1 $-1 $263 @22 generic_tag_attrib_def 3 3 -1 @23 generic_tag_attrib_def  1 1 @1 6 0 1 435 0 #
plane-surface $-1 -1 $-1 -0.875 1.11022302462515654e-16 0 -0.8660254037844388186 -0.4999999999999997224 0 0.4999999999999997224 -0.8660254037844388186 -0 forward_v I I I I #
edge $-1 95 $-1 $206 2.617993877991494855 $312 3.665191429188092265 $272 $145 forward @7 unknown #
vertex $-1 -1 $-1 $311 1 $326 #
vertex $-1 -1 $-1 $297 0 $327 #
intcurve-curve $-1 -1 $-1 forward { exact_int_cur 22403 full nurbs 2 open 2 
	0.4438345587399495362 2 0.8876691174798994055 2 
	-0.656249999999999889 0.378886114155692344 -2.775557561562891351e-17 1 
	-0.7577722283113834667 0.2030444566227685432 -1.166601537594402771e-16 1.037954849302036298 
	-0.874999999999999889 5.949667257334982331e-16 0.06768148554092243141 1 
	0 
	
	null_surface 
	null_surface 
	nullbs 
	nullbs 
	I I 
	0 
	0 
	0 
	
	0 F 1 F 0 UNEXTENDED UNEXTENDED } I I #
point $-1 -1 $-1 8.384198730181619765e-17 0.7577722283113839108 -1.387778780781445367e-17 #
straight-curve $-1 -1 $-1 -0.4375000000000003331 -0.7577722283113835777 0 0 0 1 I I #
intcurve-curve $-1 -1 $-1 forward { exact_int_cur 22403 full nurbs 2 open 2 
	0 2 0.4438345587399499248 2 
	-0.875 1.784900177200494847e-16 0.06768148554092248692 1 
	-0.7577722283113836887 -0.2030444566227678216 -7.459310946700270506e-17 1.037954849302043625 
	-0.656250000000000222 -0.3788861141556917334 -1.387778780781445676e-17 1 
	0 
	
	null_surface 
	null_surface 
	nullbs 
	nullbs 
	I I 
	0 
	0 
	0 
	
	0 F 1 F 0 UNEXTENDED UNEXTENDED } I I #
intcurve-curve $-1 -1 $-1 forward { exact_int_cur 22403 full nurbs 2 open 2 
	0 2 0.4438345587399510905 2 
	0.4375000000000008882 -0.7577722283113837998 0.832318514459077341 1 
	0.2030444566227678771 -0.7577722283113837998 0.9000000000000001332 1.037954849302055615 
	-1.886190284449362206e-16 -0.7577722283113837998 0.9000000000000001332 1 
	0 
	
	null_surface 
	null_surface 
	nullbs 
	nullbs 
	I I 
	0 
	0 
	0 
	
	0 F 1 F 0 UNEXTENDED UNEXTENDED } I I #
point $-1 -1 $-1 0.437500000000000222 -0.7577722283113836887 0.8323185144590776741 #
intcurve-curve $-1 -1 $-1 forward { exact_int_cur 22403 full nurbs 2 open 2 
	0.4438345587399499248 2 0.8876691174798998496 2 
	0.656250000000000111 -0.3788861141556918444 0.9000000000000000222 1 
	0.5547277716886160892 -0.5547277716886163113 0.9000000000000000222 1.037954849302042293 
	0.4375000000000001665 -0.7577722283113836887 0.8323185144590776741 1 
	0 
	
	null_surface 
	null_surface 
	nullbs 
	nullbs 
	I I 
	0 
	0 
	0 
	
	0 F 1 F 0 UNEXTENDED UNEXTENDED } I I #
point $-1 -1 $-1 -0.4375000000000004996 -0.7577722283113835777 0.8323185144590777851 #
straight-curve $-1 -1 $-1 -0.875 1.11022302462515654e-16 0 0 0 1 I I #
intcurve-curve $-1 -1 $-1 forward { exact_int_cur 22403 full nurbs 2 open 2 
	0.4438345587399497028 2 0.8876691174798995165 2 
	9.074511276096965844e-17 0.7577722283113839108 -2.081668171172168513e-17 1 
	-0.2030444566227666281 0.7577722283113839108 -1.066854937725736363e-16 1.03795484930203763 
	-0.4374999999999997224 0.7577722283113840218 0.0676814855409225008 1 
	0 
	
	null_surface 
	null_surface 
	nullbs 
	nullbs 
	I I 
	0 
	0 
	0 
	
	0 F 1 F 0 UNEXTENDED UNEXTENDED } I I #
point $-1 -1 $-1 -0.437499999999999778 0.7577722283113839108 0.06768148554092245917 #
intcurve-curve $-1 -1 $-1 forward { exact_int_cur 22403 full nurbs 2 open 2 
	0 2 0.4438345587399495362 2 
	-0.4374999999999999445 0.7577722283113837998 0.06768148554092248692 1 
	-0.5547277716886164223 0.5547277716886159782 -4.250072516143177381e-17 1.037954849302043181 
	-0.656249999999999889 0.378886114155692344 -2.775557561562891351e-17 1 
	0 
	
	null_surface 
	null_surface 
	nullbs 
	nullbs 
	I I 
	0 
	0 
	0 
	
	0 F 1 F 0 UNEXTENDED UNEXTENDED } I I #
point $-1 -1 $-1 -0.656249999999999889 0.3788861141556920664 -2.503341391531754801e-17 #
point $-1 -1 $-1 -0.875 1.665334536937734811e-16 0.06768148554092245917 #
End-of-ASM-data 