22700 0 2 4           
16 Autodesk Neutron 20 ASM 227.1.1.65535 NT 24 Thu Aug 26 00:43:46 2021 
10 9.999999999999999547e-07 1.000000000000000036e-10 
asmheader $-1 -1 @13 227.1.1.65535 #
body $2 66 $-1 $3 $-1 $4 #
ATTRIB_CUSTOM-attrib $-1 -1 $5 $-1 $1 @20 Timestamp_attrib_def 1 1455851549001 #
lump $-1 -1 $-1 $-1 $6 $1 #
transform $-1 -1 1 0 0 0 1 0 0 0 1 0 0 0 1 no_rotate no_reflect no_shear #
ATTRIB_CUSTOM-attrib $-1 -1 $-1 $2 $1 @22 generic_tag_attrib_def 3 3 -1 @23 generic_tag_attrib_def  1 3 @3 641 1 0 0 #
shell $-1 -1 $-1 $-1 $-1 $7 $-1 $3 #
face $8 0 $-1 $9 $10 $6 $-1 $11 forward single #
ATTRIB_CUSTOM-attrib $-1 -1 $-1 $-1 $7 @22 generic_tag_attrib_def 3 3 -1 @23 generic_tag_attrib_def  1 2 @2 17 0 2 573 641 0 #
face $12 1 $-1 $13 $14 $6 $-1 $15 forward single #
loop $-1 -1 $-1 $-1 $16 $7 #
plane-surface $-1 -1 $-1 4.659950039874013683 1.759412159428986655 -4.11500000000000199 0.4825904053558333073 -0.6859340817647180399 -0.5446108116187978743 -0.7484375328674411909 0 -0.6632052920440982824 forward_v I I I I #
ATTRIB_CUSTOM-attrib $-1 -1 $-1 $-1 $9 @22 generic_tag_attrib_def 3 3 -1 @23 generic_tag_attrib_def  1 2 @2 15 0 2 573 641 0 #
face $17 2 $-1 $18 $19 $6 $-1 $20 forward single #
loop $-1 -1 $-1 $-1 $21 $9 #
plane-surface $-1 -1 $-1 4.659950039874013683 1.5405878405710145 -4.115000000000001101 0.4825904053558638385 0.6859340817647100463 -0.5446108116187808879 -0.7484375328674102157 0 -0.6632052920441334765 forward_v I I I I #
coedge $-1 -1 $-1 $22 $23 $24 $25 reversed $10 0 $-1 #
ATTRIB_CUSTOM-attrib $-1 -1 $-1 $-1 $13 @22 generic_tag_attrib_def 3 3 -1 @23 generic_tag_attrib_def  1 2 @2 14 0 2 573 641 0 #
face $26 3 $-1 $27 $28 $6 $-1 $29 forward single #
loop $-1 -1 $-1 $-1 $24 $13 #
cone-surface $-1 -1 $-1 4.950000000000000178 1.650000000000000577 -4.120000000000000995 0 0 -1 0 0.3149999999999999467 0 1 I I -0.7071067811865475727 -0.7071067811865475727 0.3149999999999999467 forward I I I I #
coedge $-1 -1 $-1 $30 $31 $32 $33 reversed $14 0 $-1 #
coedge $-1 -1 $-1 $23 $16 $34 $35 reversed $10 0 $-1 #
coedge $-1 -1 $-1 $16 $22 $36 $37 reversed $10 0 $-1 #
coedge $-1 -1 $-1 $38 $39 $16 $25 forward $19 0 $-1 #
edge $-1 23 $-1 $40 -0.004576474330381908109 $41 -0 $24 $42 reversed @7 unknown #
ATTRIB_CUSTOM-attrib $-1 -1 $-1 $-1 $18 @22 generic_tag_attrib_def 3 3 -1 @23 generic_tag_attrib_def  1 2 @2 13 0 2 573 641 0 #
face $43 4 $-1 $44 $45 $6 $-1 $46 forward single #
loop $-1 -1 $-1 $-1 $47 $18 #
plane-surface $-1 -1 $-1 4.659950039874013683 1.759412159428986655 -4.010000000000000675 0.4825904053558638385 -0.6859340817647100463 0.5446108116187808879 0.7484375328674102157 0 -0.6632052920441334765 forward_v I I I I #
coedge $-1 -1 $-1 $31 $21 $48 $49 reversed $14 0 $-1 #
coedge $-1 -1 $-1 $21 $30 $50 $51 reversed $14 0 $-1 #
coedge $-1 -1 $-1 $52 $53 $21 $33 forward $54 0 $-1 #
edge $-1 26 $-1 $55 0 $56 0.01635729494533657777 $32 $57 forward @7 unknown #
coedge $-1 -1 $-1 $58 $59 $22 $35 forward $60 0 $-1 #
edge $-1 24 $-1 $61 0 $40 0.01635729494533657777 $34 $62 forward @7 unknown #
coedge $-1 -1 $-1 $63 $64 $23 $37 forward $65 0 $-1 #
edge $-1 25 $-1 $41 0 $61 0.01444215039732146301 $36 $66 forward @7 unknown #
coedge $-1 -1 $-1 $48 $24 $67 $68 forward $19 0 $-1 #
coedge $-1 -1 $-1 $24 $48 $69 $70 forward $19 0 $-1 #
vertex $-1 68 $-1 $70 1 $71 #
vertex $-1 67 $-1 $68 0 $72 #
intcurve-curve $-1 -1 $-1 forward { exact_int_cur 22140 full nurbs 2 open 2 
	0 2 0.5330248283955831834 2 
	4.649500415973665923 1.760000000000000675 -4.125000000000000888 1 
	4.882068769354250826 1.74655464716871367 -3.901982242937510392 2.710555388060103432 
	4.947976655400930568 1.969993603180803632 -4.125000000000000888 1 
	0 
	
	null_surface 
	null_surface 
	nullbs 
	nullbs 
	I I 
	0 
	0 
	0 
	
	0 F 1 F 0 UNEXTENDED UNEXTENDED } I I #
ATTRIB_CUSTOM-attrib $-1 -1 $-1 $-1 $27 @22 generic_tag_attrib_def 3 3 -1 @23 generic_tag_attrib_def  1 2 @2 11 0 2 573 641 0 #
face $73 5 $-1 $74 $75 $6 $-1 $76 forward single #
loop $-1 -1 $-1 $-1 $77 $27 #
plane-surface $-1 -1 $-1 4.419167308680401973 1.550000000000000488 -4.115000000000001101 -0.6018204545065267697 0.4961328458598386892 -0.6258309194954936316 -0.7207985640717500253 0 0.6931445953277737271 forward_v I I I I #
coedge $-1 -1 $-1 $78 $79 $80 $81 reversed $28 0 $-1 #
coedge $-1 -1 $-1 $39 $38 $30 $49 forward $19 0 $-1 #
edge $-1 27 $-1 $82 -0.5330248283955139055 $55 -0.5284483540651341293 $48 $83 reversed @7 unknown #
coedge $-1 -1 $-1 $84 $85 $31 $51 forward $75 0 $-1 #
edge $-1 28 $-1 $56 0 $82 0.01444215039732146301 $50 $86 forward @7 unknown #
coedge $-1 -1 $-1 $87 $32 $88 $89 forward $54 0 $-1 #
coedge $-1 -1 $-1 $32 $87 $90 $91 forward $54 0 $-1 #
loop $-1 -1 $-1 $-1 $87 $92 #
vertex $-1 71 $-1 $70 0 $93 #
vertex $-1 70 $-1 $94 1 $95 #
straight-curve $-1 -1 $-1 4.659950039874013683 1.5405878405710145 -4.115000000000001101 -0.8178647472668524321 0.5754105101387421151 0 F 0 F 0.01635729494533657777 #
coedge $-1 -1 $-1 $80 $34 $96 $97 forward $60 0 $-1 #
coedge $-1 -1 $-1 $34 $80 $98 $99 forward $60 0 $-1 #
loop $-1 -1 $-1 $-1 $34 $100 #
vertex $-1 69 $-1 $99 1 $101 #
straight-curve $-1 -1 $-1 4.646571984977576619 1.750000000000000666 -4.115000000000001101 0.8178647472668524321 0.5754105101387421151 -5.429861249480878419e-14 F 0 F 0.01635729494533657777 #
coedge $-1 -1 $-1 $102 $36 $103 $104 forward $65 0 $-1 #
coedge $-1 -1 $-1 $36 $102 $105 $106 forward $65 0 $-1 #
loop $-1 -1 $-1 $-1 $64 $107 #
straight-curve $-1 -1 $-1 4.649500415973665923 1.760000000000000675 -4.125000000000000888 -0.2027697341133097297 -0.6924176611437777851 0.692417661143762353 F 0 F 0.01444215039732146301 #
coedge $-1 -1 $-1 $105 $108 $38 $68 reversed $109 0 $-1 #
edge $-1 29 $-1 $41 -7.503074290383401568 $82 -1.921703670385978224 $67 $110 forward @7 unknown #
coedge $-1 -1 $-1 $90 $96 $39 $70 reversed $111 0 $-1 #
edge $-1 30 $-1 $55 -4.351674899141810826 $40 1.210082245552017932 $69 $112 forward @7 unknown #
point $-1 -1 $-1 4.659950039874013683 1.759412159428986655 -4.11500000000000199 #
point $-1 -1 $-1 4.649500415973665923 1.760000000000000675 -4.125000000000000888 #
ATTRIB_CUSTOM-attrib $-1 -1 $-1 $-1 $44 @22 generic_tag_attrib_def 3 3 -1 @23 generic_tag_attrib_def  1 1 @1 9 0 2 573 641 0 #
face $113 6 $-1 $114 $115 $6 $-1 $116 forward single #
loop $-1 -1 $-1 $-1 $50 $44 #
plane-surface $-1 -1 $-1 4.749999949149787071 1.545000000000000373 -4.120000000000000995 0 0.7071067811865396902 -0.7071067811865553443 -1 0 0 forward_v I I I I #
coedge $-1 -1 $-1 $117 $118 $119 $120 reversed $45 0 $-1 #
coedge $-1 -1 $-1 $79 $47 $121 $122 reversed $28 0 $-1 #
coedge $-1 -1 $-1 $47 $78 $123 $124 reversed $28 0 $-1 #
coedge $-1 -1 $-1 $59 $58 $47 $81 forward $60 0 $-1 #
edge $-1 31 $-1 $125 0 $126 0.01635729494533657777 $80 $127 forward @7 unknown #
vertex $-1 72 $-1 $68 1 $128 #
intcurve-curve $-1 -1 $-1 forward { exact_int_cur 22140 full nurbs 2 open 2 
	0 2 0.5330248283955139055 2 
	4.947976655400909252 1.330006396819197523 -4.125000000000000888 1 
	4.882068769354231286 1.553445352831264836 -3.901982242937537038 2.710555388059382231 
	4.649500415973665923 1.54000000000000048 -4.125000000000000888 1 
	0 
	
	null_surface 
	null_surface 
	nullbs 
	nullbs 
	I I 
	0 
	0 
	0 
	
	0 F 1 F 0 UNEXTENDED UNEXTENDED } I I #
coedge $-1 -1 $-1 $129 $50 $108 $130 forward $75 0 $-1 #
coedge $-1 -1 $-1 $50 $129 $131 $94 forward $75 0 $-1 #
straight-curve $-1 -1 $-1 4.646571984977576619 1.550000000000000488 -4.115000000000001101 0.2027697341133097297 -0.6924176611437777851 -0.692417661143762353 F 0 F 0.01444215039732146301 #
coedge $-1 -1 $-1 $53 $52 $132 $133 forward $54 0 $-1 #
coedge $-1 -1 $-1 $131 $134 $52 $89 reversed $135 0 $-1 #
edge $-1 60 $-1 $56 0.1849999999999996092 $136 0.2900000000000000355 $88 $137 forward @7 unknown #
coedge $-1 -1 $-1 $138 $69 $53 $91 reversed $111 0 $-1 #
edge $-1 59 $-1 $139 -0.2899999999999991473 $55 -0.1849999999999996092 $90 $140 forward @7 unknown #
face $141 14 $-1 $100 $54 $6 $-1 $142 forward single #
point $-1 -1 $-1 4.659950039874013683 1.5405878405710145 -4.115000000000001101 #
edge $-1 38 $-1 $143 -0.3308326404693850975 $56 -0.1034279641722104515 $131 $144 forward @7 unknown #
point $-1 -1 $-1 4.646571984977576619 1.550000000000000488 -4.115000000000001101 #
coedge $-1 -1 $-1 $69 $138 $58 $97 reversed $111 0 $-1 #
edge $-1 61 $-1 $40 0.184999999999998721 $125 0.2900000000000000355 $96 $145 forward @7 unknown #
coedge $-1 -1 $-1 $146 $103 $59 $99 reversed $147 0 $-1 #
edge $-1 62 $-1 $126 -0.2900000000000000355 $61 -0.1849999999999996092 $98 $148 forward @7 unknown #
face $149 15 $-1 $107 $60 $6 $-1 $150 forward single #
point $-1 -1 $-1 4.646571984977576619 1.750000000000000666 -4.115000000000001101 #
coedge $-1 -1 $-1 $64 $63 $151 $152 reversed $65 0 $-1 #
coedge $-1 -1 $-1 $98 $153 $63 $104 reversed $147 0 $-1 #
edge $-1 64 $-1 $61 0.2142424544564338618 $154 0.4516471307536082946 $103 $155 forward @7 unknown #
coedge $-1 -1 $-1 $156 $67 $64 $106 reversed $109 0 $-1 #
edge $-1 63 $-1 $157 -0.439492034949462429 $41 -0.2113140234603445577 $105 $158 forward @7 unknown #
face $159 16 $-1 $160 $65 $6 $-1 $161 forward single #
coedge $-1 -1 $-1 $67 $156 $84 $130 reversed $109 0 $-1 #
loop $-1 -1 $-1 $-1 $67 $162 #
ellipse-curve $-1 -1 $-1 4.950000000000000178 1.650000000000000577 -4.125000000000000888 0 0 -1 0 0.3199999999999998401 0 1 I I #
loop $-1 -1 $-1 $-1 $138 $163 #
ellipse-curve $-1 -1 $-1 4.950000000000000178 1.650000000000000577 -4.115000000000001101 -0 -0 1 0 0.3100000000000000533 0 1 I I #
ATTRIB_CUSTOM-attrib $-1 -1 $-1 $-1 $74 @22 generic_tag_attrib_def 3 3 -1 @23 generic_tag_attrib_def  1 2 @2 10 0 2 573 641 0 #
face $164 7 $-1 $165 $166 $6 $-1 $167 forward single #
loop $-1 -1 $-1 $-1 $168 $74 #
cone-surface $-1 -1 $-1 4.950000000000000178 1.650000000000000577 -4.120000000000000995 0 0 -1 0.545000000000000151 0 0 1 I I -0.7071067811865475727 0.7071067811865475727 0.545000000000000151 forward I I I I #
coedge $-1 -1 $-1 $118 $77 $129 $169 reversed $45 0 $-1 #
coedge $-1 -1 $-1 $77 $117 $170 $171 reversed $45 0 $-1 #
coedge $-1 -1 $-1 $172 $173 $77 $120 forward $174 0 $-1 #
edge $-1 34 $-1 $143 0 $175 0.01272202773269635531 $119 $176 forward @7 unknown #
coedge $-1 -1 $-1 $177 $178 $78 $122 forward $179 0 $-1 #
edge $-1 32 $-1 $180 -0.06153142608048695755 $125 -0 $121 $181 reversed @7 unknown #
coedge $-1 -1 $-1 $182 $183 $79 $124 forward $184 0 $-1 #
edge $-1 33 $-1 $126 0 $180 0.01444215039732146301 $123 $185 forward @7 unknown #
vertex $-1 74 $-1 $186 0 $187 #
vertex $-1 73 $-1 $188 1 $189 #
straight-curve $-1 -1 $-1 4.659950039874013683 1.759412159428986655 -4.010000000000000675 -0.8178647472668524321 -0.5754105101387421151 0 F 0 F 0.01635729494533657777 #
point $-1 -1 $-1 4.649500415973665923 1.54000000000000048 -4.125000000000000888 #
coedge $-1 -1 $-1 $85 $84 $117 $169 forward $75 0 $-1 #
edge $-1 37 $-1 $82 0.1004995331761211474 $190 0.3286775446652390187 $108 $191 forward @7 unknown #
coedge $-1 -1 $-1 $192 $88 $85 $94 reversed $135 0 $-1 #
coedge $-1 -1 $-1 $193 $194 $87 $133 reversed $166 0 $-1 #
edge $-1 42 $-1 $136 0 $139 0.01635729494533657777 $87 $195 forward @7 unknown #
coedge $-1 -1 $-1 $88 $192 $196 $197 reversed $135 0 $-1 #
loop $-1 -1 $-1 $-1 $134 $198 #
vertex $-1 82 $-1 $197 0 $199 #
straight-curve $-1 -1 $-1 4.646571984977576619 1.550000000000000488 -4.300000000000000711 0 -0 1 F 0.1590945324576589215 F 0.3159054675423411673 #
coedge $-1 -1 $-1 $96 $90 $177 $186 reversed $111 0 $-1 #
vertex $-1 81 $-1 $186 1 $200 #
straight-curve $-1 -1 $-1 4.659950039874013683 1.5405878405710145 -4.300000000000000711 0 0 -1 F -0.3159054675423411673 F -0.1590945324576589215 #
ATTRIB_CUSTOM-attrib $-1 -1 $-1 $-1 $92 @22 generic_tag_attrib_def 3 3 -1 @23 generic_tag_attrib_def  1 1 @1 7 0 2 573 641 0 #
plane-surface $-1 -1 $-1 4.653261012425795151 1.545293920285507383 -4.300000000000000711 0.5754105101387422261 0.8178647472668525431 0 0 0 -1 forward_v I I I I #
vertex $-1 77 $-1 $94 0 $201 #
straight-curve $-1 -1 $-1 4.749999949149787071 1.550000000000000488 -4.115000000000001101 1 0 0 F -0.3518336404693851449 F 0.7610010508502131898 #
straight-curve $-1 -1 $-1 4.659950039874013683 1.759412159428986655 -4.300000000000000711 -0 0 1 F 0.1590945324576589215 F 0.3159054675423411673 #
coedge $-1 -1 $-1 $153 $98 $183 $188 reversed $147 0 $-1 #
loop $-1 -1 $-1 $-1 $103 $160 #
straight-curve $-1 -1 $-1 4.646571984977576619 1.750000000000000666 -4.300000000000000711 0 0 -1 F -0.3159054675423411673 F -0.1590945324576589215 #
ATTRIB_CUSTOM-attrib $-1 -1 $-1 $-1 $100 @22 generic_tag_attrib_def 3 3 -1 @23 generic_tag_attrib_def  1 2 @2 12 0 2 573 641 0 #
plane-surface $-1 -1 $-1 4.653261012425795151 1.754706079714493772 -4.300000000000000711 0.5754105101387422261 -0.8178647472668525431 0 0 0 -1 forward_v I I I I #
coedge $-1 -1 $-1 $168 $202 $102 $152 forward $115 0 $-1 #
edge $-1 41 $-1 $157 0 $154 0.01864725814820892766 $151 $203 forward @7 unknown #
coedge $-1 -1 $-1 $103 $146 $204 $205 reversed $147 0 $-1 #
vertex $-1 79 $-1 $205 0 $206 #
straight-curve $-1 -1 $-1 4.860814439434010481 1.750000000000000666 -4.115000000000001101 -1 0 0 F -0.6501865605659897795 F 0.4826481307536081289 #
coedge $-1 -1 $-1 $108 $105 $202 $207 reversed $109 0 $-1 #
vertex $-1 80 $-1 $207 1 $208 #
straight-curve $-1 -1 $-1 4.860814439434010481 1.760000000000000675 -4.125000000000000888 1 -0 -0 F -0.4826481307536081289 F 0.6501865605659897795 #
ATTRIB_CUSTOM-attrib $-1 -1 $-1 $-1 $107 @22 generic_tag_attrib_def 3 3 -1 @23 generic_tag_attrib_def  1 2 @2 16 0 2 573 641 0 #
face $209 17 $-1 $162 $147 $6 $-1 $210 reversed single #
plane-surface $-1 -1 $-1 4.860814439434010481 1.755000000000000782 -4.120000000000000995 -0 -0.7071067811865396902 -0.7071067811865553443 -1 0 0 forward_v I I I I #
face $211 18 $-1 $212 $109 $6 $-1 $213 forward single #
face $214 21 $-1 $215 $111 $6 $-1 $216 reversed single #
ATTRIB_CUSTOM-attrib $-1 -1 $-1 $-1 $114 @22 generic_tag_attrib_def 3 3 -1 @23 generic_tag_attrib_def  1 1 @1 8 0 2 573 641 0 #
face $217 8 $-1 $218 $184 $6 $-1 $219 forward single #
loop $-1 -1 $-1 $-1 $132 $114 #
plane-surface $-1 -1 $-1 4.646571984977576619 1.550000000000000488 -4.010000000000000675 0.4825904053558943141 0.6859340817647020527 0.5446108116187640125 0.7484375328673792405 0 -0.6632052920441685595 forward_v I I I I #
coedge $-1 -1 $-1 $170 $151 $220 $221 forward $115 0 $-1 #
edge $-1 35 $-1 $190 0 $143 0.01430539890828088322 $129 $222 forward @7 unknown #
coedge $-1 -1 $-1 $202 $168 $118 $171 forward $115 0 $-1 #
edge $-1 36 $-1 $175 -0.03752578767160866247 $190 -0 $170 $223 reversed @7 unknown #
coedge $-1 -1 $-1 $224 $119 $225 $226 forward $174 0 $-1 #
coedge $-1 -1 $-1 $119 $224 $192 $227 forward $174 0 $-1 #
loop $-1 -1 $-1 $-1 $119 $228 #
vertex $-1 76 $-1 $221 1 $229 #
straight-curve $-1 -1 $-1 4.419167308680401973 1.550000000000000488 -4.115000000000001101 -0.6361013866348174117 -0.7716054859325861548 0 F 0 F 0.01272202773269635531 #
coedge $-1 -1 $-1 $230 $121 $138 $186 forward $179 0 $-1 #
coedge $-1 -1 $-1 $121 $230 $231 $232 forward $179 0 $-1 #
loop $-1 -1 $-1 $-1 $230 $233 #
vertex $-1 75 $-1 $234 0 $235 #
intcurve-curve $-1 -1 $-1 forward { exact_int_cur 22140 full nurbs 2 open 4 
	0 2 4.485735691527070301 1 5.137408507634601662 1 5.678372775910559334 2 
	4.659950039874013683 1.759412159428986433 -4.010000000000000675 1 
	4.468303628772869018 1.769881877176279206 -3.826991779595107168 1.971869490423980409 
	2.406942094075837701 1.962441327387395074 -1.757851093734288161 1.326365094568827008 
	1.376975570079175926 2.058911303204715271 -0.7236740363150108157 1.117204111856166193 
	0.6563590835784185451 2.126495205464200566 -6.217248937900876626e-15 1 
	0 
	
	null_surface 
	null_surface 
	nullbs 
	nullbs 
	I I 
	0 
	0 
	0 
	
	0 F 1 F 0 UNEXTENDED UNEXTENDED } I I #
coedge $-1 -1 $-1 $236 $123 $237 $234 forward $184 0 $-1 #
coedge $-1 -1 $-1 $123 $236 $146 $188 forward $184 0 $-1 #
loop $-1 -1 $-1 $-1 $183 $165 #
straight-curve $-1 -1 $-1 4.646571984977576619 1.750000000000000666 -4.010000000000000675 0.2027697341133097297 0.6924176611437777851 0.692417661143762353 F 0 F 0.01444215039732146301 #
edge $-1 58 $-1 $125 -7.493267552731603942 $139 -1.931510408037775184 $138 $238 forward @7 unknown #
point $-1 -1 $-1 4.659950039874013683 1.759412159428986655 -4.010000000000000675 #
edge $-1 45 $-1 $239 -0.4516471307536082946 $126 -0.2142424544564338618 $146 $240 forward @7 unknown #
point $-1 -1 $-1 4.646571984977576619 1.750000000000000666 -4.010000000000000675 #
vertex $-1 78 $-1 $130 1 $241 #
straight-curve $-1 -1 $-1 4.749999949149787071 1.54000000000000048 -4.125000000000000888 -1 -0 -0 F -0.7610010508502131898 F 0.3518336404693851449 #
coedge $-1 -1 $-1 $134 $131 $173 $227 reversed $135 0 $-1 #
coedge $-1 -1 $-1 $194 $132 $242 $243 reversed $166 0 $-1 #
coedge $-1 -1 $-1 $132 $193 $230 $244 reversed $166 0 $-1 #
straight-curve $-1 -1 $-1 4.646571984977576619 1.550000000000000488 -4.010000000000000675 0.8178647472668524321 -0.5754105101387421151 -5.429861249480878419e-14 F 0 F 0.01635729494533657777 #
coedge $-1 -1 $-1 $245 $242 $134 $197 forward $246 0 $-1 #
edge $-1 54 $-1 $136 0.1034279641722104515 $247 0.3308326404693850975 $134 $248 forward @7 unknown #
face $249 20 $-1 $163 $135 $6 $-1 $250 reversed single #
point $-1 -1 $-1 4.646571984977576619 1.550000000000000488 -4.010000000000000675 #
point $-1 -1 $-1 4.659950039874013683 1.5405878405710145 -4.010000000000001563 #
point $-1 -1 $-1 4.419167308680401973 1.550000000000000488 -4.115000000000001101 #
coedge $-1 -1 $-1 $151 $170 $156 $207 forward $115 0 $-1 #
intcurve-curve $-1 -1 $-1 forward { exact_int_cur 22140 full nubs 3 open 2 
	0 3 0.01864725814820892766 3 
	4.421322404484548052 1.760000000000001119 -4.125000000000000888 
	4.417244266340691894 1.756683045741426419 -4.121683045741425744 
	4.413192480905506088 1.753349145734659054 -4.118349145734659267 
	4.409167308680402186 1.750000000000000666 -4.115000000000001101 
	0 
	
	cone 4.950000000000000178 1.650000000000000577 -4.120000000000000995 0 0 -1 0.545000000000000151 0 0 1 I I -0.7071067811865475727 0.7071067811865475727 0.545000000000000151 forward I I I I 
	plane 4.860814439434010481 1.755000000000000782 -4.120000000000000995 -0 -0.7071067811865396902 -0.7071067811865553443 -1 0 0 forward_v I I I I 
	nullbs 
	nullbs 
	I I 
	0 
	0 
	0 
	
	0 F 1 F 0 UNEXTENDED UNEXTENDED } I I #
coedge $-1 -1 $-1 $251 $220 $153 $205 forward $252 0 $-1 #
edge $-1 65 $-1 $154 -0.05250000000000021316 $239 0.05250000000000021316 $204 $253 forward @7 unknown #
point $-1 -1 $-1 4.409167308680402186 1.750000000000000666 -4.115000000000001101 #
edge $-1 40 $-1 $190 -2.936453187528640374 $157 2.936453187528640818 $156 $254 forward @7 unknown #
point $-1 -1 $-1 4.421322404484548052 1.760000000000000675 -4.125000000000000888 #
ATTRIB_CUSTOM-attrib $-1 -1 $-1 $-1 $160 @22 generic_tag_attrib_def 3 3 -1 @23 generic_tag_attrib_def  2 1 @1 4 0 2 569 641 0 2 @2 14 0 2 571 641 0 #
plane-surface $-1 -1 $-1 4.771628878868020784 1.750000000000000666 -4.799999999999999822 0 1 -0 -1 0 0 forward_v I I I I #
ATTRIB_CUSTOM-attrib $-1 -1 $-1 $-1 $162 @22 generic_tag_attrib_def 3 3 -1 @23 generic_tag_attrib_def  1 1 @1 2 0 2 566 641 0 #
face $255 19 $-1 $198 $256 $6 $-1 $257 forward single #
plane-surface $-1 -1 $-1 4.950000000000000178 1.650000000000000577 -4.125000000000000888 0 0 -1 -1 0 0 forward_v I I I I #
ATTRIB_CUSTOM-attrib $-1 -1 $-1 $-1 $163 @22 generic_tag_attrib_def 3 3 -1 @23 generic_tag_attrib_def  1 1 @1 3 0 2 568 641 0 #
face $258 22 $-1 $-1 $252 $6 $-1 $259 forward single #
cone-surface $-1 -1 $-1 4.950000000000000178 1.650000000000000577 -4.300000000000000711 0 0 -1 0 0.3100000000000000533 0 1 I I 0 1 0.3100000000000000533 forward I I I I #
ATTRIB_CUSTOM-attrib $-1 -1 $-1 $-1 $165 @22 generic_tag_attrib_def 3 3 -1 @23 generic_tag_attrib_def  1 1 @1 5 0 2 573 641 0 #
face $260 9 $-1 $261 $262 $6 $-1 $263 forward single #
plane-surface $-1 -1 $-1 4.860814439434010481 1.755000000000000782 -4.005000000000000782 0 -0.7071067811865396902 0.7071067811865553443 1 0 -0 forward_v I I I I #
coedge $-1 -1 $-1 $204 $225 $168 $221 reversed $252 0 $-1 #
edge $-1 39 $-1 $154 -2.958757516596884241 $175 2.940575447967484823 $220 $264 forward @7 unknown #
straight-curve $-1 -1 $-1 4.421322404484548052 1.54000000000000048 -4.125000000000000888 -0.1506491233109599204 0.6990367807367723341 0.6990367807367567909 F 0 F 0.01430539890828088322 #
intcurve-curve $-1 -1 $-1 forward { exact_int_cur 22140 full nurbs 2 open 2 
	0 2 5.844220953124793283 2 
	4.421322404484548052 1.539999999999999369 -4.125000000000000888 1 
	3.886331684134990638 1.549340986426565703 -3.603129446017486082 1.485526698404226131 
	0.2856299217344151486 1.726660113362372906 6.217248937900876626e-15 1 
	0 
	
	null_surface 
	null_surface 
	nullbs 
	nullbs 
	I I 
	0 
	0 
	0 
	
	0 F 1 F 0 UNEXTENDED UNEXTENDED } I I #
coedge $-1 -1 $-1 $173 $172 $265 $266 forward $174 0 $-1 #
coedge $-1 -1 $-1 $220 $251 $172 $226 reversed $252 0 $-1 #
edge $-1 55 $-1 $175 -0.05250000000000021316 $267 0.05250000000000021316 $225 $268 forward @7 unknown #
edge $-1 56 $-1 $247 -0.05250000000000021316 $143 0.05250000000000021316 $192 $269 forward @7 unknown #
face $270 12 $-1 $233 $174 $6 $-1 $271 forward single #
point $-1 -1 $-1 4.411074809198827218 1.540183613609265478 -4.115000000000001101 #
coedge $-1 -1 $-1 $178 $177 $194 $244 forward $179 0 $-1 #
coedge $-1 -1 $-1 $272 $237 $178 $232 reversed $256 0 $-1 #
edge $-1 57 $-1 $273 -4.361481636793607564 $180 1.219888983203815114 $231 $274 forward @7 unknown #
face $275 13 $-1 $92 $179 $6 $-1 $276 forward single #
edge $-1 46 $-1 $180 0.2113140234603445577 $277 0.439492034949462429 $237 $278 forward @7 unknown #
point $-1 -1 $-1 4.649500415973665923 1.760000000000000675 -4.000000000000000888 #
coedge $-1 -1 $-1 $183 $182 $279 $280 forward $184 0 $-1 #
coedge $-1 -1 $-1 $231 $281 $182 $234 reversed $256 0 $-1 #
ellipse-curve $-1 -1 $-1 4.950000000000000178 1.650000000000000577 -4.010000000000000675 -0 -0 -1 0 0.3100000000000000533 0 1 I I #
vertex $-1 84 $-1 $188 0 $282 #
straight-curve $-1 -1 $-1 4.860814439434010481 1.750000000000000666 -4.010000000000000675 1 0 0 F -0.4826481307536081289 F 0.6501865605659897795 #
point $-1 -1 $-1 4.421322404484548052 1.540000000000000258 -4.125000000000000888 #
coedge $-1 -1 $-1 $196 $283 $193 $243 forward $246 0 $-1 #
edge $-1 43 $-1 $273 0 $136 0.01444215039732146301 $242 $284 forward @7 unknown #
edge $-1 44 $-1 $139 -5.678372775910575321 $273 -5.616841349829724273 $230 $285 reversed @7 unknown #
coedge $-1 -1 $-1 $283 $196 $286 $287 forward $246 0 $-1 #
loop $-1 -1 $-1 $-1 $245 $288 #
vertex $-1 86 $-1 $197 1 $289 #
straight-curve $-1 -1 $-1 4.749999949149787071 1.550000000000000488 -4.010000000000000675 -1 0 0 F -0.7610010508502131898 F 0.3518336404693851449 #
ATTRIB_CUSTOM-attrib $-1 -1 $-1 $-1 $198 @22 generic_tag_attrib_def 3 3 -1 @23 generic_tag_attrib_def  2 1 @1 6 0 2 569 641 0 2 @2 12 0 2 571 641 0 #
plane-surface $-1 -1 $-1 4.549999898299574852 1.550000000000000488 -4.799999999999999822 0 -1 0 1 -0 -0 forward_v I I I I #
coedge $-1 -1 $-1 $225 $204 $290 $291 reversed $252 0 $-1 #
loop $-1 -1 $-1 $-1 $220 $215 #
straight-curve $-1 -1 $-1 4.409167308680402186 1.750000000000000666 -4.062500000000000888 0 0 1 I I #
ellipse-curve $-1 -1 $-1 4.950000000000000178 1.650000000000000577 -4.125000000000000888 -0 -0 1 0.5400000000000002576 0 0 1 I I #
ATTRIB_CUSTOM-attrib $-1 -1 $-1 $-1 $212 @22 generic_tag_attrib_def 3 3 -1 @23 generic_tag_attrib_def  1 1 @1 1 0 2 566 641 0 #
loop $-1 -1 $-1 $-1 $237 $212 #
plane-surface $-1 -1 $-1 4.950000000000000178 1.650000000000000577 -4.000000000000000888 0 0 1 1 0 0 forward_v I I I I #
ATTRIB_CUSTOM-attrib $-1 -1 $-1 $-1 $215 @22 generic_tag_attrib_def 3 3 -1 @23 generic_tag_attrib_def  1 1 @1 3 0 2 566 641 0 #
cone-surface $-1 -1 $-1 4.950000000000000178 1.650000000000000577 -4.062500000000000888 0 0 1 0.5500000000000000444 0 0 1 I I 0 1 0.5500000000000000444 forward I I I I #
ATTRIB_CUSTOM-attrib $-1 -1 $-1 $-1 $218 @22 generic_tag_attrib_def 3 3 -1 @23 generic_tag_attrib_def  1 1 @1 4 0 2 573 641 0 #
face $292 10 $-1 $288 $293 $6 $-1 $294 forward single #
loop $-1 -1 $-1 $-1 $265 $218 #
plane-surface $-1 -1 $-1 4.411074809198827218 1.540183613609265478 -4.010000000000000675 -0.6018204545065308775 0.4961328458598421864 0.6258309194954870813 0.7207985640717440301 -0 0.6931445953277799443 forward_v I I I I #
ellipse-curve $-1 -1 $-1 4.950000000000000178 1.650000000000000577 -4.115000000000001101 0 0 -1 0.5500000000000000444 0 0 1 I I #
coedge $-1 -1 $-1 $295 $286 $224 $266 reversed $262 0 $-1 #
edge $-1 48 $-1 $267 0 $247 0.01272202773269635531 $224 $296 forward @7 unknown #
vertex $-1 87 $-1 $291 0 $297 #
straight-curve $-1 -1 $-1 4.411074809198827218 1.540183613609265478 -4.062500000000000888 0 0 1 F -0.07158567867140241958 F 0.07158567867140241958 #
straight-curve $-1 -1 $-1 4.419167308680401973 1.550000000000000488 -4.062500000000000888 0 -0 -1 F -0.07158567867140241958 F 0.07158567867140241958 #
ATTRIB_CUSTOM-attrib $-1 -1 $-1 $-1 $228 @22 generic_tag_attrib_def 3 3 -1 @23 generic_tag_attrib_def  1 1 @1 3 0 2 573 641 0 #
plane-surface $-1 -1 $-1 4.41512105893961504 1.545091806804633094 -4.062500000000000888 -0.7716054859325861548 0.6361013866348174117 -0 -0 0 1 forward_v I I I I #
coedge $-1 -1 $-1 $281 $231 $283 $298 reversed $256 0 $-1 #
vertex $-1 83 $-1 $298 1 $299 #
ellipse-curve $-1 -1 $-1 4.950000000000000178 1.650000000000000577 -4.000000000000000888 0 0 1 0 0.3199999999999998401 0 1 I I #
ATTRIB_CUSTOM-attrib $-1 -1 $-1 $-1 $233 @22 generic_tag_attrib_def 3 3 -1 @23 generic_tag_attrib_def  1 1 @1 6 0 2 573 641 0 #
cone-surface $-1 -1 $-1 4.950000000000000178 1.650000000000000577 -4.005000000000000782 0 0 1 0 0.3149999999999999467 0 1 I I -0.7071067811865475727 -0.7071067811865475727 0.3149999999999999467 forward I I I I #
vertex $-1 85 $-1 $234 1 $300 #
straight-curve $-1 -1 $-1 4.860814439434010481 1.760000000000000675 -4.000000000000000888 -1 0 -0 F -0.6501865605659897795 F 0.4826481307536081289 #
coedge $-1 -1 $-1 $301 $290 $236 $280 reversed $293 0 $-1 #
edge $-1 47 $-1 $277 0 $239 0.01864725814818217822 $236 $302 forward @7 unknown #
coedge $-1 -1 $-1 $237 $272 $301 $303 reversed $256 0 $-1 #
point $-1 -1 $-1 4.409167308680402186 1.750000000000000666 -4.010000000000000675 #
coedge $-1 -1 $-1 $242 $245 $272 $298 forward $246 0 $-1 #
straight-curve $-1 -1 $-1 4.649500415973665923 1.54000000000000048 -4.000000000000000888 -0.2027697341133097297 0.6924176611437777851 -0.692417661143762353 F 0 F 0.01444215039732146301 #
intcurve-curve $-1 -1 $-1 forward { exact_int_cur 22140 full nurbs 2 open 3 
	0 2 1.951832910197096149 1 5.678372775910575321 2 
	0.6563590835783763566 1.173504794536110341 0 1 
	2.697827062913066953 1.364966376342391152 -2.050129854490105874 1.422879765158488352 
	4.486249743207506135 1.531098526013708216 -3.844128998325127888 1.807383816019132894 
	4.659950039874015459 1.540587840571012945 -4.010000000000001563 1 
	0 
	
	null_surface 
	null_surface 
	nullbs 
	nullbs 
	I I 
	0 
	0 
	0 
	
	0 F 1 F 0 UNEXTENDED UNEXTENDED } I I #
coedge $-1 -1 $-1 $265 $295 $245 $287 reversed $262 0 $-1 #
edge $-1 50 $-1 $247 0 $304 0.01430539890828088322 $245 $305 forward @7 unknown #
face $306 11 $-1 $228 $246 $6 $-1 $307 forward single #
point $-1 -1 $-1 4.419167308680401973 1.550000000000000488 -4.010000000000000675 #
coedge $-1 -1 $-1 $279 $308 $251 $291 forward $293 0 $-1 #
edge $-1 52 $-1 $267 -2.940575447967484823 $239 2.958757516596884241 $251 $309 forward @7 unknown #
ATTRIB_CUSTOM-attrib $-1 -1 $-1 $-1 $261 @22 generic_tag_attrib_def 3 3 -1 @23 generic_tag_attrib_def  1 1 @1 1 0 2 573 641 0 #
loop $-1 -1 $-1 $-1 $301 $261 #
cone-surface $-1 -1 $-1 4.950000000000000178 1.650000000000000577 -4.005000000000000782 0 0 1 0.545000000000000151 0 0 1 I I -0.7071067811865475727 0.7071067811865475727 0.545000000000000151 forward I I I I #
coedge $-1 -1 $-1 $286 $265 $308 $310 reversed $262 0 $-1 #
straight-curve $-1 -1 $-1 4.411074809198827218 1.540183613609265478 -4.010000000000000675 0.6361013866348174117 0.7716054859325861548 0 F 0 F 0.01272202773269635531 #
point $-1 -1 $-1 4.411074809198827218 1.540183613609265478 -4.010000000000000675 #
edge $-1 53 $-1 $304 -0.3286775446652390187 $273 -0.1004995331761211474 $272 $311 forward @7 unknown #
point $-1 -1 $-1 4.649500415973665923 1.54000000000000048 -4.000000000000000888 #
point $-1 -1 $-1 4.421322404484548052 1.760000000000001119 -4.000000000000000888 #
coedge $-1 -1 $-1 $308 $279 $281 $303 forward $293 0 $-1 #
intcurve-curve $-1 -1 $-1 forward { exact_int_cur 22140 full nubs 3 open 2 
	0 3 0.01864725814818217822 3 
	4.421322404484548052 1.760000000000000897 -4.000000000000000888 
	4.417244266340698111 1.75668304574143086 -4.003316954258570703 
	4.413192480905517634 1.753349145734668824 -4.00665085426533274 
	4.409167308680402186 1.750000000000000666 -4.010000000000000675 
	0 
	
	plane 4.860814439434010481 1.755000000000000782 -4.005000000000000782 0 -0.7071067811865396902 0.7071067811865553443 1 0 -0 forward_v I I I I 
	cone 4.950000000000000178 1.650000000000000577 -4.005000000000000782 0 0 1 0.545000000000000151 0 0 1 I I -0.7071067811865475727 0.7071067811865475727 0.545000000000000151 forward I I I I 
	nullbs 
	nullbs 
	I I 
	0 
	0 
	0 
	
	0 F 1 F 0 UNEXTENDED UNEXTENDED } I I #
edge $-1 51 $-1 $277 -2.936453187528640374 $304 2.936453187528640818 $281 $312 forward @7 unknown #
vertex $-1 88 $-1 $303 1 $313 #
straight-curve $-1 -1 $-1 4.419167308680401973 1.550000000000000488 -4.010000000000000675 0.1506491233109599204 -0.6990367807367723341 0.6990367807367567909 F 0 F 0.01430539890828088322 #
ATTRIB_CUSTOM-attrib $-1 -1 $-1 $-1 $288 @22 generic_tag_attrib_def 3 3 -1 @23 generic_tag_attrib_def  1 1 @1 2 0 2 573 641 0 #
plane-surface $-1 -1 $-1 4.749999949149787071 1.545000000000000373 -4.005000000000000782 0 0.7071067811865396902 0.7071067811865553443 1 0 0 forward_v I I I I #
coedge $-1 -1 $-1 $290 $301 $295 $310 forward $293 0 $-1 #
ellipse-curve $-1 -1 $-1 4.950000000000000178 1.650000000000000577 -4.010000000000000675 0 0 1 0.5500000000000000444 0 0 1 I I #
edge $-1 49 $-1 $304 -0.004052347478458065248 $267 -0 $308 $314 reversed @7 unknown #
straight-curve $-1 -1 $-1 4.749999949149787071 1.54000000000000048 -4.000000000000000888 1 -0 -0 F -0.3518336404693851449 F 0.7610010508502131898 #
ellipse-curve $-1 -1 $-1 4.950000000000000178 1.650000000000000577 -4.000000000000000888 -0 -0 -1 0.5400000000000002576 0 0 1 I I #
point $-1 -1 $-1 4.421322404484548052 1.54000000000000048 -4.000000000000000888 #
intcurve-curve $-1 -1 $-1 forward { exact_int_cur 22140 full nurbs 2 open 2 
	0 2 1.534944326632045497 2 
	4.41107480919882633 1.540183613609265922 -4.010000000000000675 1 
	5.098527503819257234 1.527555884638835737 -3.3389111944522889 2.857268898690671577 
	4.955000000000004512 2.199977272257682248 -4.010000000000000675 1 
	0 
	
	null_surface 
	null_surface 
	nullbs 
	nullbs 
	I I 
	0 
	0 
	0 
	
	0 F 1 F 0 UNEXTENDED UNEXTENDED } I I #
End-of-ASM-data 