22700 0 2 4           
16 Autodesk Neutron 20 ASM 227.1.1.65535 NT 24 Thu Aug 26 00:43:48 2021 
10 9.999999999999999547e-07 1.000000000000000036e-10 
asmheader $-1 -1 @13 227.1.1.65535 #
body $2 39 $-1 $3 $-1 $4 #
ATTRIB_CUSTOM-attrib $-1 -1 $5 $-1 $1 @20 Timestamp_attrib_def 1 1455851549001 #
lump $-1 -1 $-1 $-1 $6 $1 #
transform $-1 -1 1 0 0 0 1 0 0 0 1 0 0 0 1 no_rotate no_reflect no_shear #
ATTRIB_CUSTOM-attrib $-1 -1 $-1 $2 $1 @22 generic_tag_attrib_def 3 3 -1 @23 generic_tag_attrib_def  1 3 @3 666 1 0 0 #
shell $-1 -1 $-1 $-1 $-1 $7 $-1 $3 #
face $8 0 $-1 $9 $10 $6 $-1 $11 reversed single #
ATTRIB_CUSTOM-attrib $-1 -1 $-1 $-1 $7 @22 generic_tag_attrib_def 3 3 -1 @23 generic_tag_attrib_def  1 1 @1 5 0 2 563 666 0 #
face $12 1 $-1 $13 $14 $6 $-1 $15 reversed single #
loop $-1 -1 $-1 $-1 $16 $7 #
plane-surface $-1 -1 $-1 4.549999898299574852 1.750000000000000666 -4.799999999999999822 -1 0 0 -0 -1 -0 forward_v I I I I #
ATTRIB_CUSTOM-attrib $-1 -1 $-1 $-1 $9 @22 generic_tag_attrib_def 3 3 -1 @23 generic_tag_attrib_def  1 1 @1 4 0 2 563 666 0 #
face $17 2 $-1 $18 $19 $6 $-1 $20 reversed single #
loop $-1 -1 $-1 $-1 $21 $9 #
plane-surface $-1 -1 $-1 4.771628878868020784 1.750000000000000666 -4.799999999999999822 0 1 -0 -1 0 0 forward_v I I I I #
coedge $-1 -1 $-1 $22 $23 $24 $25 reversed $10 0 $-1 #
ATTRIB_CUSTOM-attrib $-1 -1 $-1 $-1 $13 @22 generic_tag_attrib_def 3 3 -1 @23 generic_tag_attrib_def  1 1 @1 6 0 2 563 666 0 #
face $26 3 $-1 $27 $28 $6 $-1 $29 forward single #
loop $-1 -1 $-1 $-1 $30 $13 #
plane-surface $-1 -1 $-1 4.549999898299574852 1.550000000000000488 -4.799999999999999822 0 -1 0 1 -0 -0 forward_v I I I I #
coedge $-1 -1 $-1 $31 $32 $33 $34 reversed $14 0 $-1 #
coedge $-1 -1 $-1 $35 $16 $36 $37 reversed $10 0 $-1 #
coedge $-1 -1 $-1 $16 $35 $31 $38 forward $10 0 $-1 #
coedge $-1 -1 $-1 $33 $39 $16 $25 forward $40 0 $-1 #
edge $-1 13 $-1 $41 -0.1500000000000001332 $42 0.05000000000000004441 $24 $43 forward @7 unknown #
ATTRIB_CUSTOM-attrib $44 -1 $-1 $-1 $18 @22 generic_tag_attrib_def 3 3 -1 @23 generic_tag_attrib_def  1 1 @1 2 0 2 557 666 0 #
face $45 4 $-1 $46 $47 $6 $-1 $48 reversed single #
loop $-1 -1 $-1 $40 $49 $18 #
plane-surface $-1 -1 $-1 4.950000000000000178 1.650000000000000577 -4.125000000000000888 0 0 1 1 0 0 forward_v I I I I #
coedge $-1 -1 $-1 $50 $36 $39 $51 reversed $19 0 $-1 #
coedge $-1 -1 $-1 $52 $21 $23 $38 reversed $14 0 $-1 #
coedge $-1 -1 $-1 $21 $53 $54 $55 reversed $14 0 $-1 #
coedge $-1 -1 $-1 $56 $24 $21 $34 forward $40 0 $-1 #
edge $-1 17 $-1 $42 -0.310814541134435629 $57 -0.198955030118488807 $33 $58 forward @7 unknown #
coedge $59 -1 $-1 $23 $22 $60 $61 reversed $10 0 $-1 #
coedge $-1 -1 $-1 $30 $62 $22 $37 forward $19 0 $-1 #
edge $-1 14 $-1 $63 0 $41 0.6749999999999989342 $22 $64 forward @7 unknown #
edge $-1 16 $-1 $65 0 $42 0.6749999999999989342 $31 $66 forward @7 unknown #
coedge $-1 -1 $-1 $24 $56 $30 $51 forward $40 0 $-1 #
loop $-1 -1 $-1 $-1 $39 $18 #
vertex $-1 41 $-1 $51 1 $67 #
vertex $-1 40 $-1 $25 1 $68 #
straight-curve $-1 -1 $-1 4.549999898299574852 1.700000000000000622 -4.125000000000000888 0 1 -0 I I #
ATTRIB_CUSTOM-attrib $-1 -1 $-1 $-1 $26 @22 generic_tag_attrib_def 3 3 -1 @23 generic_tag_attrib_def  1 0 @0  0 1 559 0 #
ATTRIB_CUSTOM-attrib $69 -1 $-1 $-1 $27 @22 generic_tag_attrib_def 3 3 -1 @23 generic_tag_attrib_def  2 1 @1 3 0 2 551 666 0 1 @1 8 0 2 557 666 0 #
face $70 5 $-1 $71 $72 $6 $-1 $73 forward single #
loop $-1 -1 $-1 $-1 $74 $27 #
cone-surface $-1 -1 $-1 4.950000000000000178 1.650000000000000577 -4.199999999999999289 0 0 1 0.3049999999999999933 0 0 1 I I 0 1 0.3049999999999999933 forward I I I I #
coedge $-1 -1 $-1 $49 $49 $75 $76 forward $28 0 $-1 #
coedge $-1 -1 $-1 $77 $30 $74 $78 reversed $19 0 $-1 #
edge $-1 23 $-1 $79 0.08814053983426539673 $41 0.2000000508502122187 $39 $80 forward @7 unknown #
coedge $81 -1 $-1 $82 $31 $83 $84 reversed $14 0 $-1 #
coedge $-1 -1 $-1 $32 $85 $86 $87 reversed $14 0 $-1 #
coedge $-1 -1 $-1 $88 $89 $32 $55 forward $47 0 $-1 #
edge $-1 22 $-1 $57 -0.07499999999999840128 $90 0.510000000000000675 $54 $91 forward @7 unknown #
coedge $-1 -1 $-1 $39 $33 $89 $92 forward $40 0 $-1 #
vertex $-1 44 $-1 $92 0 $93 #
straight-curve $-1 -1 $-1 4.860814439434010481 1.750000000000000666 -4.125000000000000888 1 -0 0 I I #
ATTRIB_CUSTOM-attrib $-1 -1 $-1 $-1 $35 @17 sketch_attrib_def 1 1 3 @14 1220 0 0 0 2 3 #
coedge $-1 -1 $-1 $94 $83 $35 $61 forward $95 0 $-1 #
edge $-1 15 $-1 $65 -0.05000000000000004441 $63 0.1500000000000001332 $60 $96 forward @7 unknown #
coedge $97 -1 $-1 $36 $98 $94 $99 reversed $19 0 $-1 #
vertex $-1 42 $-1 $99 0 $100 #
straight-curve $-1 -1 $-1 4.549999898299574852 1.550000000000000488 -4.799999999999999822 0 0 1 I I #
vertex $-1 43 $-1 $61 0 $101 #
straight-curve $-1 -1 $-1 4.549999898299574852 1.750000000000000666 -4.799999999999999822 0 0 1 I I #
point $-1 -1 $-1 4.549999898299574852 1.550000000000000488 -4.125000000000000888 #
point $-1 -1 $-1 4.549999898299574852 1.750000000000000666 -4.125000000000000888 #
ATTRIB_CUSTOM-attrib $-1 -1 $-1 $-1 $45 @22 generic_tag_attrib_def 3 3 -1 @23 generic_tag_attrib_def  1 0 @0  0 1 559 0 #
ATTRIB_CUSTOM-attrib $-1 -1 $-1 $-1 $46 @22 generic_tag_attrib_def 3 3 -1 @23 generic_tag_attrib_def  1 1 @1 1 0 2 561 666 0 #
face $102 6 $-1 $103 $104 $6 $-1 $105 reversed single #
loop $-1 -1 $-1 $-1 $106 $46 #
cone-surface $-1 -1 $-1 4.950000000000000178 1.650000000000000577 -4.734999999999999432 0 0 -1 -0.3500000000000000888 0 0 1 I I -0.7071067811865475727 -0.7071067811865475727 0.3500000000000000888 forward I I I I #
coedge $-1 -1 $-1 $89 $88 $50 $78 forward $47 0 $-1 #
coedge $-1 -1 $-1 $75 $75 $49 $76 reversed $107 0 $-1 #
edge $-1 29 $-1 $108 0 $108 6.283185307179586232 $75 $109 forward @7 unknown #
coedge $-1 -1 $-1 $110 $50 $111 $112 reversed $19 0 $-1 #
edge $-1 24 $-1 $113 -0.510000000000000675 $79 0.07499999999999840128 $74 $114 forward @7 unknown #
vertex $-1 49 $-1 $51 0 $115 #
straight-curve $-1 -1 $-1 4.749999949149787071 1.550000000000000488 -4.125000000000000888 -1 0 0 I I #
ATTRIB_CUSTOM-attrib $-1 -1 $-1 $-1 $52 @17 sketch_attrib_def 1 1 3 @17 1190 1189 1 0 2 3 #
coedge $-1 -1 $-1 $85 $52 $116 $117 reversed $14 0 $-1 #
coedge $-1 -1 $-1 $60 $118 $52 $84 forward $95 0 $-1 #
edge $-1 18 $-1 $119 0.2722352468040343254 $65 0.310814541134435629 $83 $120 forward @7 unknown #
coedge $-1 -1 $-1 $53 $82 $121 $122 reversed $14 0 $-1 #
coedge $-1 -1 $-1 $123 $124 $53 $87 forward $125 0 $-1 #
edge $-1 21 $-1 $90 0.198955030118488807 $126 0.2200473613553350916 $86 $127 forward @7 unknown #
coedge $-1 -1 $-1 $74 $54 $124 $128 forward $47 0 $-1 #
coedge $-1 -1 $-1 $54 $74 $56 $92 reversed $47 0 $-1 #
vertex $-1 48 $-1 $128 0 $129 #
straight-curve $-1 -1 $-1 4.661859409315521674 1.750000000000000666 -4.199999999999999289 0 -0 -1 I I #
edge $-1 30 $-1 $57 -2.807545807317879838 $79 2.807545807317879838 $89 $130 forward @7 unknown #
point $-1 -1 $-1 4.661859409315521674 1.750000000000000666 -4.125000000000000888 #
coedge $-1 -1 $-1 $118 $60 $62 $99 forward $95 0 $-1 #
loop $-1 -1 $-1 $131 $94 $132 #
straight-curve $-1 -1 $-1 4.549999898299574852 1.700000000000000622 -4.799999999999999822 -0 -1 -0 I I #
ATTRIB_CUSTOM-attrib $-1 -1 $133 $-1 $62 @17 sketch_attrib_def 1 1 3 @14 1199 0 0 0 1 2 #
coedge $-1 -1 $-1 $62 $110 $134 $135 reversed $19 0 $-1 #
edge $-1 28 $-1 $63 -0.2000000508502122187 $136 -0.1614207565198109151 $94 $137 forward @7 unknown #
point $-1 -1 $-1 4.549999898299574852 1.550000000000000488 -4.799999999999999822 #
point $-1 -1 $-1 4.549999898299574852 1.750000000000000666 -4.799999999999999822 #
ATTRIB_CUSTOM-attrib $138 -1 $-1 $-1 $71 @22 generic_tag_attrib_def 3 3 -1 @23 generic_tag_attrib_def  1 1 @1 3 0 2 553 666 0 #
face $139 7 $-1 $140 $125 $6 $-1 $141 reversed single #
loop $-1 -1 $-1 $-1 $134 $71 #
cone-surface $-1 -1 $-1 4.950000000000000178 1.650000000000000577 -4.754999999999999893 0 0 1 0.375 0 0 1 I I 0 1 0.375 forward I I I I #
coedge $-1 -1 $-1 $142 $143 $110 $144 forward $72 0 $-1 #
loop $-1 -1 $-1 $145 $75 $146 #
vertex $-1 54 $-1 $76 0 $147 #
ellipse-curve $-1 -1 $-1 4.950000000000000178 1.650000000000000577 -4.125000000000000888 0 0 1 0.5500000000000000444 0 0 1 I I #
coedge $-1 -1 $-1 $98 $77 $106 $144 reversed $19 0 $-1 #
coedge $-1 -1 $-1 $124 $123 $77 $112 forward $125 0 $-1 #
edge $-1 25 $-1 $148 -0.1092328710711116813 $113 -0.08814053983426539673 $111 $149 forward @7 unknown #
vertex $-1 50 $-1 $112 1 $150 #
straight-curve $-1 -1 $-1 4.661859409315521674 1.550000000000000488 -4.199999999999999289 -0 -0 1 I I #
point $-1 -1 $-1 4.661859409315521674 1.550000000000000488 -4.125000000000000888 #
coedge $-1 -1 $-1 $151 $152 $82 $117 forward $104 0 $-1 #
edge $-1 19 $-1 $153 0.004999999999999893419 $119 0.04499999999999992895 $116 $154 forward @7 unknown #
coedge $-1 -1 $-1 $83 $94 $151 $155 forward $95 0 $-1 #
vertex $-1 45 $-1 $117 1 $156 #
straight-curve $-1 -1 $-1 4.860814439434010481 1.750000000000000666 -4.799999999999999822 -1 0 0 I I #
coedge $-1 -1 $-1 $143 $142 $85 $122 forward $72 0 $-1 #
edge $-1 20 $-1 $126 0 $153 0.07227439892910023089 $121 $157 forward @7 unknown #
coedge $-1 -1 $-1 $111 $86 $142 $158 reversed $125 0 $-1 #
coedge $-1 -1 $-1 $86 $111 $88 $128 reversed $125 0 $-1 #
loop $-1 -1 $-1 $-1 $111 $103 #
vertex $-1 47 $-1 $122 0 $159 #
straight-curve $-1 -1 $-1 4.860814439434010481 1.750000000000000666 -4.709999999999999964 -1 0 0 I I #
edge $-1 31 $-1 $90 -2.807545807317879838 $113 2.807545807317879838 $88 $160 forward @7 unknown #
point $-1 -1 $-1 4.661859409315521674 1.750000000000000666 -4.709999999999999964 #
ellipse-curve $-1 -1 $-1 4.950000000000000178 1.650000000000000577 -4.125000000000000888 -0 -0 -1 0.3049999999999999933 0 0 1 I I #
loop $-1 -1 $-1 $-1 $161 $132 #
face $162 10 $-1 $163 $95 $6 $-1 $164 forward single #
ATTRIB_CUSTOM-attrib $-1 -1 $165 $97 $62 @17 sketch_attrib_def 1 1 3 @17 1183 1182 0 0 3 5 #
coedge $-1 -1 $-1 $152 $151 $98 $135 forward $104 0 $-1 #
edge $-1 27 $-1 $136 -0.04499999999999992895 $166 -0.004999999999999893419 $134 $167 forward @7 unknown #
vertex $-1 53 $-1 $155 0 $168 #
straight-curve $-1 -1 $-1 4.749999949149787071 1.550000000000000488 -4.799999999999999822 1 0 0 I I #
ATTRIB_CUSTOM-attrib $-1 -1 $-1 $-1 $102 @22 generic_tag_attrib_def 3 3 -1 @23 generic_tag_attrib_def  1 0 @0  0 1 559 0 #
ATTRIB_CUSTOM-attrib $169 -1 $-1 $-1 $103 @22 generic_tag_attrib_def 3 3 -1 @23 generic_tag_attrib_def  1 1 @1 1 0 2 553 666 0 #
face $170 8 $-1 $171 $172 $6 $-1 $173 forward single #
plane-surface $-1 -1 $-1 4.950000000000000178 1.650000000000000577 -4.709999999999999964 0 0 1 1 0 0 forward_v I I I I #
coedge $-1 -1 $-1 $121 $106 $123 $158 forward $72 0 $-1 #
coedge $-1 -1 $-1 $106 $121 $152 $174 forward $72 0 $-1 #
edge $-1 26 $-1 $166 0 $148 0.07227439892910023089 $106 $175 forward @7 unknown #
loop $-1 -1 $-1 $-1 $176 $146 #
face $177 12 $-1 $-1 $107 $6 $-1 $178 forward single #
point $-1 -1 $-1 5.5 1.650000000000000577 -4.125000000000000888 #
vertex $-1 51 $-1 $158 0 $179 #
straight-curve $-1 -1 $-1 4.749999949149787071 1.550000000000000488 -4.709999999999999964 1 0 -0 I I #
point $-1 -1 $-1 4.661859409315521674 1.550000000000000488 -4.709999999999999964 #
coedge $-1 -1 $-1 $134 $116 $118 $155 reversed $104 0 $-1 #
coedge $-1 -1 $-1 $116 $134 $143 $174 reversed $104 0 $-1 #
vertex $-1 46 $-1 $174 0 $180 #
straight-curve $-1 -1 $-1 4.588579192629976156 1.750000000000000666 -4.754999999999999893 0 -0 -1 I I #
edge $-1 34 $-1 $136 -2.871659857756389655 $119 2.871659857756389655 $118 $181 forward @7 unknown #
point $-1 -1 $-1 4.588579192629976156 1.750000000000000666 -4.799999999999999822 #
intcurve-curve $-1 -1 $-1 forward { exact_int_cur 22140 full nurbs 2 open 2 
	0 2 0.07227439892910023089 2 
	4.640767078078675389 1.750000000000000666 -4.709999999999999964 1 
	4.616536988406187092 1.750000000000000666 -4.733054589008734325 1.002790798060753774 
	4.588579192629976156 1.750000000000000666 -4.759999999999999787 1 
	0 
	
	null_surface 
	null_surface 
	nullbs 
	nullbs 
	I I 
	0 
	0 
	0 
	
	0 F 1 F 0 UNEXTENDED UNEXTENDED } I I #
edge $-1 32 $-1 $148 -5.970418585238041587 $126 -0.3127667219415449784 $123 $182 forward @7 unknown #
point $-1 -1 $-1 4.640767078078675389 1.750000000000000666 -4.709999999999999964 #
ellipse-curve $-1 -1 $-1 4.950000000000000178 1.650000000000000577 -4.709999999999999964 -0 -0 -1 0.3049999999999999933 0 0 1 I I #
coedge $-1 -1 $-1 $161 $161 $183 $184 reversed $131 0 $-1 #
ATTRIB_CUSTOM-attrib $185 -1 $-1 $-1 $132 @22 generic_tag_attrib_def 3 3 -1 @23 generic_tag_attrib_def  2 1 @1 2 0 2 549 666 0 1 @1 1 0 2 555 666 0 #
face $186 11 $-1 $146 $187 $6 $-1 $188 reversed single #
plane-surface $-1 -1 $-1 4.950000000000000178 1.650000000000000577 -4.799999999999999822 0 0 -1 -1 0 0 forward_v I I I I #
ATTRIB_CUSTOM-attrib $-1 -1 $-1 $133 $62 @17 sketch_attrib_def 1 1 3 @17 1183 1182 0 0 2 5 #
vertex $-1 52 $-1 $135 1 $189 #
straight-curve $-1 -1 $-1 4.588579192629976156 1.550000000000000488 -4.754999999999999893 -0 -0 1 I I #
point $-1 -1 $-1 4.588579192629976156 1.550000000000000488 -4.799999999999999822 #
ATTRIB_CUSTOM-attrib $-1 -1 $-1 $-1 $139 @22 generic_tag_attrib_def 3 3 -1 @23 generic_tag_attrib_def  1 0 @0  0 1 559 0 #
ATTRIB_CUSTOM-attrib $-1 -1 $-1 $-1 $140 @22 generic_tag_attrib_def 3 3 -1 @23 generic_tag_attrib_def  1 1 @1 1 0 2 560 666 0 #
face $190 9 $-1 $132 $191 $6 $-1 $192 forward single #
loop $-1 -1 $-1 $193 $194 $140 #
cone-surface $-1 -1 $-1 4.950000000000000178 1.650000000000000577 -4.775000000000000355 0 0 -1 -0.5950000000000001954 0 0 1 I I -0.7071067811865475727 0.7071067811865475727 0.5950000000000001954 forward I I I I #
edge $-1 33 $-1 $153 -6.013252511346182771 $166 -0.2699327958334036826 $152 $195 forward @7 unknown #
intcurve-curve $-1 -1 $-1 forward { exact_int_cur 22140 full nurbs 2 open 2 
	0 2 0.07227439892910023089 2 
	4.588579192629976156 1.550000000000000488 -4.759999999999999787 1 
	4.616536988406187092 1.550000000000000488 -4.733054589008734325 1.002790798060753774 
	4.640767078078675389 1.550000000000000488 -4.709999999999999964 1 
	0 
	
	null_surface 
	null_surface 
	nullbs 
	nullbs 
	I I 
	0 
	0 
	0 
	
	0 F 1 F 0 UNEXTENDED UNEXTENDED } I I #
coedge $-1 -1 $-1 $176 $176 $196 $197 forward $145 0 $-1 #
ATTRIB_CUSTOM-attrib $198 -1 $-1 $-1 $146 @22 generic_tag_attrib_def 3 3 -1 @23 generic_tag_attrib_def  2 1 @1 3 0 2 549 666 0 1 @1 7 0 2 557 666 0 #
cone-surface $-1 -1 $-1 4.950000000000000178 1.650000000000000577 -4.512500000000000178 0 0 1 0.5500000000000000444 0 0 1 I I 0 1 0.5500000000000000444 forward I I I I #
point $-1 -1 $-1 4.640767078078675389 1.550000000000000488 -4.709999999999999964 #
point $-1 -1 $-1 4.588579192629976156 1.750000000000000666 -4.759999999999999787 #
ellipse-curve $-1 -1 $-1 4.950000000000000178 1.650000000000000577 -4.799999999999999822 0 0 1 0.375 0 0 1 I I #
ellipse-curve $-1 -1 $-1 4.950000000000000178 1.650000000000000577 -4.709999999999999964 0 0 1 -0.3250000000000001776 0 0 1 I I #
coedge $-1 -1 $-1 $183 $183 $161 $184 forward $193 0 $-1 #
edge $-1 36 $-1 $199 -3.141592653589793116 $199 3.141592653589793116 $161 $200 forward @7 unknown #
ATTRIB_CUSTOM-attrib $-1 -1 $-1 $-1 $162 @22 generic_tag_attrib_def 3 3 -1 @23 generic_tag_attrib_def  1 0 @0  0 1 559 0 #
ATTRIB_CUSTOM-attrib $201 -1 $-1 $-1 $163 @22 generic_tag_attrib_def 3 3 -1 @23 generic_tag_attrib_def  1 1 @1 2 0 2 555 666 0 #
loop $-1 -1 $-1 $202 $196 $163 #
plane-surface $-1 -1 $-1 4.950000000000000178 1.650000000000000355 -4.700000000000000178 0 0 -1 -1 0 0 forward_v I I I I #
point $-1 -1 $-1 4.588579192629976156 1.550000000000000488 -4.759999999999999787 #
ATTRIB_CUSTOM-attrib $203 -1 $-1 $-1 $171 @22 generic_tag_attrib_def 3 3 -1 @23 generic_tag_attrib_def  1 1 @1 3 0 2 555 666 0 #
loop $-1 -1 $-1 $204 $205 $171 #
cone-surface $-1 -1 $-1 4.950000000000000178 1.650000000000000577 -4.799999999999999822 0 0 1 -0.6200000000000001066 0 0 1 I I 0 1 0.6200000000000001066 forward I I I I #
loop $-1 -1 $-1 $-1 $183 $140 #
coedge $-1 -1 $-1 $194 $194 $206 $207 forward $172 0 $-1 #
ellipse-curve $-1 -1 $-1 4.950000000000000178 1.650000000000000577 -4.759999999999999787 -0 -0 -1 -0.375 -0 -0 1 I I #
coedge $-1 -1 $-1 $196 $196 $176 $197 reversed $187 0 $-1 #
edge $-1 38 $-1 $208 0 $208 6.283185307179586232 $176 $209 forward @7 unknown #
ATTRIB_CUSTOM-attrib $-1 -1 $-1 $-1 $177 @22 generic_tag_attrib_def 3 3 -1 @23 generic_tag_attrib_def  1 0 @0  0 1 559 0 #
vertex $-1 56 $-1 $184 0 $210 #
ellipse-curve $-1 -1 $-1 4.950000000000000178 1.650000000000000577 -4.799999999999999822 -0 -0 1 -0.5700000000000002842 0 0 1 I I #
ATTRIB_CUSTOM-attrib $-1 -1 $-1 $-1 $186 @22 generic_tag_attrib_def 3 3 -1 @23 generic_tag_attrib_def  1 0 @0  0 1 559 0 #
loop $-1 -1 $-1 $-1 $211 $163 #
ATTRIB_CUSTOM-attrib $-1 -1 $-1 $-1 $190 @22 generic_tag_attrib_def 3 3 -1 @23 generic_tag_attrib_def  1 0 @0  0 1 559 0 #
loop $-1 -1 $-1 $-1 $206 $171 #
coedge $-1 -1 $-1 $205 $205 $211 $212 reversed $191 0 $-1 #
coedge $-1 -1 $-1 $206 $206 $194 $207 reversed $204 0 $-1 #
edge $-1 35 $-1 $213 -3.141592653589793116 $213 3.141592653589793116 $206 $214 forward @7 unknown #
vertex $-1 58 $-1 $197 0 $215 #
ellipse-curve $-1 -1 $-1 4.950000000000000178 1.650000000000000577 -4.700000000000000178 0 0 1 0.5500000000000000444 0 0 1 I I #
point $-1 -1 $-1 5.520000000000000462 1.650000000000000577 -4.799999999999999822 #
coedge $-1 -1 $-1 $211 $211 $205 $212 forward $202 0 $-1 #
edge $-1 37 $-1 $216 -3.141592653589793116 $216 3.141592653589793116 $205 $217 forward @7 unknown #
vertex $-1 55 $-1 $207 0 $218 #
ellipse-curve $-1 -1 $-1 4.950000000000000178 1.650000000000000577 -4.75 0 0 -1 -0.6200000000000001066 0 0 1 I I #
point $-1 -1 $-1 5.5 1.650000000000000577 -4.700000000000000178 #
vertex $-1 57 $-1 $212 0 $219 #
ellipse-curve $-1 -1 $-1 4.950000000000000178 1.650000000000000577 -4.700000000000000178 0 0 1 -0.6200000000000001066 0 0 1 I I #
point $-1 -1 $-1 5.570000000000000284 1.650000000000000577 -4.75 #
point $-1 -1 $-1 5.570000000000000284 1.650000000000000577 -4.700000000000000178 #
End-of-ASM-data 