22700 0 2 4           
16 Autodesk Neutron 20 ASM 227.1.1.65535 NT 24 Wed Aug 25 07:50:27 2021 
10 9.999999999999999547e-07 1.000000000000000036e-10 
asmheader $-1 -1 @13 227.1.1.65535 #
body $2 149 $-1 $3 $-1 $4 #
ATTRIB_CUSTOM-attrib $-1 -1 $5 $-1 $1 @20 Timestamp_attrib_def 1 1455555285000 #
lump $-1 -1 $-1 $-1 $6 $1 #
transform $-1 -1 1 0 0 0 1 0 0 0 1 0 0 0 1 no_rotate no_reflect no_shear #
ATTRIB_CUSTOM-attrib $-1 -1 $-1 $2 $1 @22 generic_tag_attrib_def 3 3 -1 @23 generic_tag_attrib_def  1 3 @3 445 1 0 0 #
shell $-1 -1 $-1 $-1 $-1 $7 $-1 $3 #
face $8 75 $-1 $9 $10 $6 $-1 $11 reversed single #
ATTRIB_CUSTOM-attrib $-1 -1 $-1 $-1 $7 @22 generic_tag_attrib_def 3 3 -1 @23 generic_tag_attrib_def  1 1 @1 5 0 2 355 445 0 #
face $12 76 $-1 $13 $14 $6 $-1 $15 forward single #
loop $-1 -1 $-1 $-1 $16 $7 #
spline-surface $-1 -1 $-1 forward { helix_spl_line 22140 F 0 F 0.09237604307034014139 
	F 0 F 31.41592653589793116 
	F 0 F 31.41592653589793116 
	0 -1.096188021535170032 -1.156831827543015472e-16 
	0.6400000000000001243 0 0 
	0 6.458305178695694667e-17 -0.6400000000000001243 
	-0 0.0600000000000000186 6.054661105027214135e-18 
	0 
	-0 1 1.009110184171202084e-16 
	null_surface 
	null_surface 
	nullbs 
	nullbs 
	
	-1.353164693413186015 -1.637040452729150256e-31 0.4999999999999991118 
	} F 0.04618802153516923109 F 0.09237604307034014139 F 0 F 31.41592653589793116 #
ATTRIB_CUSTOM-attrib $-1 -1 $-1 $-1 $9 @22 generic_tag_attrib_def 3 3 -1 @23 generic_tag_attrib_def  1 1 @1 1 0 2 355 445 0 #
face $17 77 $-1 $18 $19 $6 $-1 $20 reversed single #
loop $-1 -1 $-1 $-1 $21 $9 #
plane-surface $-1 -1 $-1 0.613333333333333397 -1.050000000000000044 -1.11022302462515654e-16 -0 1.009110184171204179e-16 -1 -1 0 0 forward_v I I I I #
coedge $-1 -1 $-1 $22 $23 $24 $25 reversed $10 0 $26 #
ATTRIB_CUSTOM-attrib $-1 -1 $-1 $-1 $13 @22 generic_tag_attrib_def 3 3 -1 @23 generic_tag_attrib_def  1 1 @1 2 0 2 355 445 0 #
face $27 78 $-1 $28 $29 $6 $-1 $30 reversed single #
loop $-1 -1 $-1 $-1 $31 $13 #
plane-surface $-1 -1 $-1 0.613333333333333397 -0.75 6.703677065396638116e-16 1.224646799147353256e-15 1.009110184171204179e-16 -1 -1 1.23580355703225895e-31 -1.224646799147353256e-15 forward_v I I I I #
coedge $-1 -1 $-1 $32 $33 $34 $35 reversed $14 0 $-1 #
coedge $-1 -1 $-1 $36 $16 $37 $38 forward $10 0 $39 #
coedge $-1 -1 $-1 $16 $36 $40 $41 reversed $10 0 $42 #
coedge $-1 -1 $-1 $43 $44 $16 $25 forward $45 0 $-1 #
edge $-1 101 $-1 $46 -31.41592653589793116 $47 -2.418399152312304956 $24 $48 forward @7 unknown #
pcurve $-1 -1 $-1 0 reversed { exp_par_cur nubs 1 open 2 
	-31.41592653589795248 1 -2.418399152312304956 1 
	0.046188021535170036 31.41592653589795248 
	0.04618802153517004294 2.41839915231230318 
	0 
	spline forward { ref 0 } I I I I 
	} 0 0 #
ATTRIB_CUSTOM-attrib $-1 -1 $-1 $-1 $18 @22 generic_tag_attrib_def 3 3 -1 @23 generic_tag_attrib_def  1 1 @1 4 0 2 355 445 0 #
face $49 79 $-1 $50 $51 $6 $-1 $52 reversed single #
loop $-1 -1 $-1 $-1 $53 $18 #
spline-surface $-1 -1 $-1 forward { helix_spl_line 22140 F 0 F 0.09237604307034014139 
	F 0 F 31.41592653589793116 
	F 0 F 31.41592653589793116 
	0 -1.050000000000000044 -1.11022302462515654e-16 
	0.5600000000000000533 0 0 
	0 5.651017031358732063e-17 -0.5600000000000000533 
	-0 0.0600000000000000186 6.054661105027214135e-18 
	0 
	-0 1 1.009110184171202084e-16 
	null_surface 
	null_surface 
	nullbs 
	nullbs 
	
	1.546473935329355731 -1.870903374547600355e-31 0.4999999999999991118 
	} I I I I #
coedge $-1 -1 $-1 $54 $37 $44 $55 reversed $19 0 $-1 #
coedge $-1 -1 $-1 $33 $21 $56 $57 reversed $14 0 $-1 #
coedge $-1 -1 $-1 $21 $32 $58 $59 reversed $14 0 $-1 #
coedge $-1 -1 $-1 $60 $40 $21 $35 forward $61 0 $-1 #
edge $-1 105 $-1 $62 0.2533333333333333548 $63 0.2933333333333333903 $34 $64 forward @7 unknown #
coedge $-1 -1 $-1 $23 $22 $65 $66 reversed $10 0 $67 #
coedge $-1 -1 $-1 $31 $68 $22 $38 reversed $19 0 $-1 #
edge $-1 102 $-1 $46 -0.04618802153517018866 $69 -0 $22 $70 forward @7 unknown #
pcurve $-1 -1 $-1 0 reversed { exp_par_cur nubs 1 open 2 
	0 1 0.09237604307034014139 1 
	0.09237604307034015527 31.41592653589793116 
	-0 31.41592653589793116 
	0 
	spline forward { ref 0 } I I I I 
	} 0 0 #
coedge $-1 -1 $-1 $34 $60 $23 $41 forward $61 0 $-1 #
edge $-1 104 $-1 $47 1.505651311011018123 $62 2.915865612936882734 $40 $71 forward @7 unknown #
pcurve $-1 -1 $-1 -1 $71 0 0 #
coedge $-1 -1 $-1 $58 $24 $60 $72 reversed $45 0 $-1 #
coedge $-1 -1 $-1 $24 $73 $31 $55 forward $45 0 $-1 #
loop $-1 -1 $-1 $-1 $44 $74 #
vertex $-1 151 $-1 $25 0 $75 #
vertex $-1 150 $-1 $41 0 $76 #
intcurve-curve $-1 -1 $-1 forward { helix_int_cur 22140 F -31.41592653589795248 F -2.418399152312304956 
	0 -1.07309401076758526 -1.133527426084086253e-16 
	0.6000000000000000888 0 5.200010849845536803e-32 
	-5.200010849845536803e-32 -6.054661105027213981e-17 0.6000000000000000888 
	0 -0.0600000000000000186 -6.054661105027214135e-18 
	-0 
	0 -1 -1.009110184171202084e-16 
	null_surface 
	null_surface 
	nullbs 
	nullbs 
	} I I #
ATTRIB_CUSTOM-attrib $-1 -1 $-1 $-1 $28 @22 generic_tag_attrib_def 3 3 -1 @23 generic_tag_attrib_def  1 1 @1 3 0 2 355 445 0 #
face $77 80 $-1 $74 $61 $6 $-1 $78 reversed single #
loop $-1 -1 $-1 $-1 $79 $28 #
cone-surface $-1 -1 $-1 0 -1.003811978464830057 -1.063614221707297732e-16 -0 1 1.009110184171202084e-16 0.6400000000000001243 0 1.232595164407830946e-32 1 I I -1.224646799147353207e-16 1 0.6400000000000001243 forward I I I I #
coedge $-1 -1 $-1 $80 $81 $82 $83 reversed $29 0 $84 #
coedge $-1 -1 $-1 $85 $31 $86 $87 reversed $19 0 $-1 #
edge $-1 108 $-1 $88 1.5 $46 1.523094010767585216 $44 $89 forward @7 unknown #
coedge $-1 -1 $-1 $65 $80 $32 $57 forward $29 0 $90 #
edge $-1 106 $-1 $91 0.04618802153517018866 $62 0.09237604307034014139 $56 $92 forward @7 unknown #
coedge $-1 -1 $-1 $93 $43 $33 $59 forward $45 0 $-1 #
edge $-1 107 $-1 $63 -1.800000000000000044 $91 -1.776905989232415273 $58 $94 forward @7 unknown #
coedge $-1 -1 $-1 $40 $34 $43 $72 forward $61 0 $-1 #
loop $-1 -1 $-1 $95 $40 $50 #
vertex $-1 153 $-1 $41 1 $96 #
vertex $-1 154 $-1 $72 0 $97 #
straight-curve $-1 -1 $-1 0.3066666666666666985 -1.050000000000000044 -1.11022302462515654e-16 1 0 -0 I I #
coedge $-1 -1 $-1 $98 $56 $36 $66 forward $29 0 $99 #
edge $-1 103 $-1 $62 0 $69 31.41592653589793116 $36 $100 forward @7 unknown #
pcurve $-1 -1 $-1 0 reversed { exp_par_cur nubs 1 open 2 
	0 1 31.41592653589793116 1 
	0.09237604307034014139 -1.71958030748860301e-32 
	0.09237604307034014139 31.41592653589793116 
	0 
	spline forward { ref 0 } I I I I 
	} 0 0 #
coedge $-1 -1 $-1 $37 $85 $98 $101 reversed $19 0 $-1 #
vertex $-1 152 $-1 $66 1 $102 #
straight-curve $-1 -1 $-1 0.5600000000000000533 -0.75 6.050532105851382217e-16 -0.8660254037844392627 0.4999999999999991118 -1.010119729516347587e-15 F -0.09237604307034014139 F -0 #
intcurve-curve $-1 -1 $-1 forward { int_int_cur 22140 full nubs 3 open 8 
	1.505651311011018123 3 1.689227415054646464 2 1.920688571299987046 2 2.149683837065623493 2 2.376212655446203303 2 
	2.600274463738519781 2 2.758705361926329314 2 2.915865612936882734 3 
	-0.4498176919826076259 -1.050000000000000044 -0.397069318859365028 
	-0.4082632371479383848 -1.050000000000000044 -0.441607669839136352 
	-0.360103135454481027 -1.050000000000000044 -0.4796238163023663348 
	-0.2398358928555864023 -1.050000000000000044 -0.5475635373427956143 
	-0.1660445947406317124 -1.050000000000000044 -0.5720583698363407299 
	-0.01402504182880850991 -1.050000000000000044 -0.5911285782876694039 
	0.0626966973229479696 -1.050000000000000044 -0.5858334551719621697 
	0.2089560624823222912 -1.050000000000000044 -0.546199646415169493 
	0.2771646382733193859 -1.050000000000000044 -0.5125485151900126546 
	0.3960955697876756276 -1.050000000000000044 -0.42137436830596392 
	0.4458621640181840151 -1.050000000000000044 -0.3649822308549220962 
	0.5098616039641733488 -1.050000000000000044 -0.2550796525310499163 
	0.5299194291540663126 -1.050000000000000044 -0.2060972738868400711 
	0.5557664869622344073 -1.050000000000000044 -0.1044058266905625448 
	0.5615424519503232625 -1.050000000000000044 -0.05222370284801657742 
	0.5600000000000000533 -1.050000000000000044 -1.11022302462515654e-16 
	3.732607492642478221e-07 
	
	spline forward { ref 0 } I I I I 
	plane 0 -1.050000000000000044 -1.059565693379762447e-16 -0 -1 -1.009110184171202207e-16 -1 0 0 reverse_v I I I I 
	nubs 3 open 8 
	1.505651311011018123 3 1.689227415054646464 3 1.920688571299987046 3 2.149683837065623493 3 2.376212655446203303 3 
	2.600274463738519781 3 2.758705361926329314 3 2.915865612936882734 3 
	0.04618802153517008457 2.418399152312291189 
	0.04812612093633701627 2.316920504968406735 
	0.050063910783247699 2.215458065847473623 
	0.05202443403449538012 2.112805308458945763 
	0.05449636767364353374 1.983375165777124582 
	0.05695767162307201203 1.854501592347523209 
	0.05945603725816686613 1.723687473594270436 
	0.06192778634932693399 1.594266993822508915 
	0.0643890440883249926 1.465395839965387026 
	0.06688751446489034358 1.334576236961563689 
	0.06935907447845618412 1.205165657269485102 
	0.0718202844926722761 1.076297002276103809 
	0.07431886146274097049 0.9454718180494962043 
	0.07679022770246847485 0.8160713843318669891 
	0.07925138841022009994 0.6872053110189279002 
	0.08175007387199405284 0.5563744461799173813 
	0.0835168586043622263 0.4638658139185434237 
	0.08528204712914912167 0.3714407588906841751 
	0.08706305847116709018 0.2781872230899556375 
	0.08882978574953155626 0.1856815991131812726 
	0.09059497297287782969 0.09325661222860083532 
	0.09237604307034014139 0 
	
	nullbs 
	I I 
	0 
	0 
	0 
	
	0 } I I #
edge $-1 116 $-1 $63 -3.141592653589793116 $47 0.7231935012775020377 $43 $103 forward @7 unknown #
coedge $-1 -1 $-1 $44 $93 $104 $105 reversed $45 0 $-1 #
face $106 81 $-1 $107 $45 $6 $-1 $108 forward single #
point $-1 -1 $-1 0.6000000000000000888 -0.7730940107675852158 6.517086424051394182e-16 #
point $-1 -1 $-1 -0.4498176919826076259 -1.050000000000000044 -0.397069318859365028 #
ATTRIB_CUSTOM-attrib $-1 -1 $-1 $-1 $50 @22 generic_tag_attrib_def 3 3 -1 @23 generic_tag_attrib_def  1 1 @1 2 0 2 346 445 0 #
plane-surface $-1 -1 $-1 0 -1.050000000000000044 -1.059565693379762447e-16 0 1 1.009110184171202207e-16 -1 0 0 forward_v I I I I #
coedge $-1 -1 $-1 $109 $110 $111 $112 reversed $51 0 $-1 #
coedge $-1 -1 $-1 $56 $53 $93 $113 reversed $29 0 $114 #
coedge $-1 -1 $-1 $53 $98 $109 $115 reversed $29 0 $116 #
coedge $-1 -1 $-1 $111 $104 $53 $83 forward $117 0 $-1 #
edge $-1 112 $-1 $118 1.406575524639533503 $119 2.907562575035249175 $82 $120 forward @7 unknown #
pcurve $-1 -1 $-1 -1 $120 0 0 #
coedge $-1 -1 $-1 $68 $54 $110 $121 reversed $19 0 $-1 #
coedge $-1 -1 $-1 $104 $111 $54 $87 forward $117 0 $-1 #
edge $-1 109 $-1 $122 -0.3333333333333329818 $88 -0.2933333333333329462 $86 $123 forward @7 unknown #
vertex $-1 156 $-1 $105 0 $124 #
straight-curve $-1 -1 $-1 0.6000000000000000888 0.75 8.054056101767131334e-16 0 -1 -1.009110184171202207e-16 I I #
pcurve $-1 -1 $-1 0 reversed { exp_par_cur nubs 1 open 2 
	-0.09237604307034014139 1 -0 1 
	0 0 
	0.09237604307034016915 0 
	0 
	spline forward { ref 2 } I I I I 
	} 0 0 #
vertex $-1 155 $-1 $113 0 $125 #
straight-curve $-1 -1 $-1 0.6400000000000001243 -1.003811978464830057 -1.063614221707297608e-16 -0.8660254037844392627 -0.4999999999999991118 -5.045550920856011651e-17 F 0 F 0.09237604307034014139 #
coedge $-1 -1 $-1 $73 $58 $80 $113 forward $45 0 $-1 #
straight-curve $-1 -1 $-1 0.6000000000000000888 0.75 7.06175306883010982e-17 -0 1 1.009110184171202207e-16 I I #
loop $-1 -1 $-1 $-1 $126 $50 #
point $-1 -1 $-1 0.5600000000000000533 -1.050000000000000044 -1.11022302462515654e-16 #
point $-1 -1 $-1 0.6000000000000000888 -1.050000000000000044 -1.79435377286817447e-16 #
coedge $-1 -1 $-1 $81 $65 $68 $101 forward $29 0 $127 #
pcurve $-1 -1 $-1 0 reversed { exp_par_cur nubs 1 open 2 
	-31.41592653589793116 1 -0 1 
	0 31.41592653589793116 
	0 0 
	0 
	spline forward { ref 2 } I I I I 
	} 0 0 #
intcurve-curve $-1 -1 $-1 forward { helix_int_cur 22140 F 0 F 31.41592653589793116 
	0 -1.050000000000000044 -1.11022302462515654e-16 
	0.5600000000000000533 0 0 
	0 5.651017031358732063e-17 -0.5600000000000000533 
	-0 0.0600000000000000186 6.054661105027214135e-18 
	0 
	-0 1 1.009110184171202084e-16 
	null_surface 
	null_surface 
	nullbs 
	nullbs 
	} I I #
edge $-1 111 $-1 $69 -0.09237604307034014139 $128 -0 $98 $129 forward @7 unknown #
point $-1 -1 $-1 0.5600000000000000533 -0.75 6.050532105851382217e-16 #
ellipse-curve $-1 -1 $-1 0 -1.050000000000000044 -1.059565693379762447e-16 -0 -1 -1.009110184171202207e-16 -0.6000000000000000888 0 0 1 I I #
coedge $-1 -1 $-1 $82 $86 $73 $105 forward $117 0 $-1 #
edge $-1 118 $-1 $88 -3.141592653589793116 $118 0.7231935012775039251 $104 $130 forward @7 unknown #
ATTRIB_CUSTOM-attrib $-1 -1 $-1 $-1 $74 @22 generic_tag_attrib_def 3 3 -1 @23 generic_tag_attrib_def  1 1 @1 3 0 2 346 445 0 #
face $131 82 $-1 $132 $133 $6 $-1 $134 reversed single #
cone-surface $-1 -1 $-1 0 0.75 7.568326381284015011e-17 0 -1 -1.009110184171202207e-16 -0.6000000000000000888 0 0 1 I I 0 1 0.6000000000000000888 forward I I I I #
coedge $-1 -1 $-1 $110 $79 $81 $115 forward $51 0 $-1 #
coedge $-1 -1 $-1 $79 $109 $85 $121 forward $51 0 $-1 #
coedge $-1 -1 $-1 $86 $82 $79 $112 forward $117 0 $-1 #
edge $-1 115 $-1 $119 1.44638700255500563 $122 6.283185307179585344 $111 $135 forward @7 unknown #
edge $-1 113 $-1 $91 0 $118 28.99752738358564841 $93 $136 forward @7 unknown #
pcurve $-1 -1 $-1 0 reversed { exp_par_cur nubs 1 open 2 
	0 1 28.99752738358564841 1 
	0.04618802153517000825 -2.865967179147671592e-32 
	0.04618802153517000825 28.99752738358564841 
	0 
	spline forward { ref 2 } I I I I 
	} 0 0 #
edge $-1 114 $-1 $119 26.579128231273355 $128 31.41592653589793116 $81 $137 forward @7 unknown #
pcurve $-1 -1 $-1 0 reversed { exp_par_cur nubs 1 open 2 
	26.579128231273355 1 31.41592653589793116 1 
	0.09237604307034016915 26.579128231273355 
	0.09237604307034014139 31.41592653589793116 
	0 
	spline forward { ref 2 } I I I I 
	} 0 0 #
loop $-1 -1 $-1 $138 $86 $139 #
vertex $-1 160 $-1 $113 1 $140 #
vertex $-1 159 $-1 $83 1 $141 #
intcurve-curve $-1 -1 $-1 forward { int_int_cur 22140 full nubs 3 open 8 
	1.406575524639533503 3 1.590967142323697958 2 1.828082623728063405 2 2.067655084682090472 2 2.309683993653971257 2 
	2.554168824368091339 2 2.730233233090125111 2 2.907562575035249175 3 
	-0.4498176919826069042 -0.75 0.3970693188593656942 
	-0.4916731789271087671 -0.75 0.3522083195903255026 
	-0.5264712450447204262 -0.750000000000000111 0.3011108059350511845 
	-0.5870789152916153775 -0.75 0.1740953812677911716 
	-0.6068166604898888039 -0.75 0.09664655294524848728 
	-0.6156951493523423746 -0.75 -0.06230014697535181389 
	-0.6044347022385807566 -0.75 -0.1422820779907558175 
	-0.551755636984331721 -0.75 -0.294283691928360347 
	-0.5105466460304384224 -0.75 -0.3647334408881436341 
	-0.4029950427459506046 -0.75 -0.4866126767363829764 
	-0.337453011600903463 -0.75 -0.5366573074673050003 
	-0.2114193734514897005 -0.75 -0.5988417594635585539 
	-0.1552715597854341656 -0.75 -0.6173630902316934455 
	-0.03907037588212804169 -0.75 -0.638494716291691411 
	0.02043485480317538266 -0.75 -0.6408863650225562481 
	0.07941673251754367835 -0.75 -0.6350535273472915909 
	3.740938859092834576e-07 
	
	spline forward { ref 2 } I I I I 
	plane 0 -0.750000000000000111 0.7635964917678803587 0 -1 -1.009110184171202084e-16 0 1.009110184171202084e-16 -1 forward_v I I I I 
	nubs 3 open 8 
	1.406575524639533503 3 1.590967142323697958 3 1.828082623728063405 3 2.067655084682090472 3 2.309683993653971257 3 
	2.554168824368091339 3 2.730233233090125111 3 2.907562575035249175 3 
	0.04618802153516996661 28.9975273835856413 
	0.04814039544898907758 28.89530132450707001 
	0.05007633355678607623 28.79393584221941538 
	0.05201896514450267406 28.69221989014271657 
	0.05451703034204319342 28.56142150226302334 
	0.05697840860487227155 28.43254403779286932 
	0.05945075817353398517 28.30309211709264261 
	0.06194872611301585619 28.17229882163299237 
	0.06441014685320753386 28.04341913305333023 
	0.06688266723842904715 27.91395826841894845 
	0.06938053952668313262 27.783169981245873 
	0.0718420014475833757 27.65428813644935246 
	0.07431468874094793176 27.52481853252503541 
	0.07681246694808525899 27.39403517142771349 
	0.07927396880561603243 27.2651512355541108 
	0.08174681922996329675 27.13567309011151352 
	0.08352762888816998854 27.04243011445045042 
	0.08529337052950400344 26.94997609830790353 
	0.08706143115015171907 26.85740066069243426 
	0.08884219438705065475 26.76416011564536035 
	0.09060793698076084757 26.6717060496365157 
	0.09237604307034014139 26.579128231273355 
	
	nullbs 
	I I 
	0 
	0 
	0 
	
	0 } I I #
edge $-1 110 $-1 $128 -0.09237604307033997486 $122 -0.04618802153516998743 $110 $142 forward @7 unknown #
vertex $-1 157 $-1 $87 0 $143 #
straight-curve $-1 -1 $-1 0.3066666666666671426 -0.75 2.775557561562891351e-16 -1 1.235803557032258731e-31 -1.224646799147353256e-15 I I #
point $-1 -1 $-1 0.6000000000000000888 -0.75 -1.491620717616813524e-16 #
point $-1 -1 $-1 0.6000000000000000888 -1.026905989232415273 -1.086918623166227198e-16 #
coedge $-1 -1 $-1 $126 $126 $144 $145 forward $95 0 $-1 #
pcurve $-1 -1 $-1 0 reversed { exp_par_cur nubs 1 open 2 
	0 1 0.09237604307034014139 1 
	0.09237604307034016915 31.41592653589793116 
	0 31.41592653589793116 
	0 
	spline forward { ref 2 } I I I I 
	} 0 0 #
vertex $-1 158 $-1 $115 1 $146 #
straight-curve $-1 -1 $-1 0.6400000000000001243 -0.7038119784648300126 7.076858348087124997e-16 0.8660254037844392627 0.4999999999999991118 1.111030747933467919e-15 F -0.09237604307034014139 F -0 #
ellipse-curve $-1 -1 $-1 0 -0.75 -7.568326381284015011e-17 -0 1 1.009110184171202084e-16 -0.6000000000000000888 0 0 1 I I #
ATTRIB_CUSTOM-attrib $-1 -1 $-1 $-1 $107 @22 generic_tag_attrib_def 3 3 -1 @23 generic_tag_attrib_def  1 1 @1 4 0 2 353 445 0 #
face $147 83 $-1 $148 $149 $6 $-1 $150 reversed single #
loop $-1 -1 $-1 $-1 $151 $107 #
spline-surface $-1 -1 $-1 forward { helix_spl_line 22140 F 0 F 0.1039230484541327215 
	F 0 F 62.83185307179586232 
	F 0 F 62.83185307179586232 
	0 1.350000000000000089 1.110223024625156294e-16 
	-0.5550000000000000488 0 0 
	0 5.600561522150173672e-17 -0.5550000000000000488 
	-0 -0.05500000000000000028 -5.550106012941612508e-18 
	0 
	-0 -1 -1.00911018417120233e-16 
	null_surface 
	null_surface 
	nullbs 
	nullbs 
	
	1.560406132944934576 -1.332535312873330717e-31 0.499999999999999889 
	} F 0.1000000000000000749 F 0.1039230484541327215 F 62.60776906810168185 F 62.83185307179586232 #
ellipse-curve $-1 -1 $-1 0 -0.75 -8.074899693737959646e-17 -0 1 1.009110184171202084e-16 0.6400000000000001243 0 1.232595164407830946e-32 1 I I #
intcurve-curve $-1 -1 $-1 forward { helix_int_cur 22140 F 0 F 28.99752738358564841 
	0 -1.026905989232415051 -1.086918623166227074e-16 
	0.6000000000000000888 0 1.733336949948512268e-32 
	1.733336949948512268e-32 6.054661105027213981e-17 -0.6000000000000000888 
	-0 0.0600000000000000186 6.054661105027214135e-18 
	0 
	-0 1 1.009110184171202084e-16 
	null_surface 
	null_surface 
	nullbs 
	nullbs 
	} I I #
intcurve-curve $-1 -1 $-1 forward { helix_int_cur 22140 F 26.579128231273355 F 31.41592653589793116 
	0 -1.003811978464830057 -1.063614221707297732e-16 
	0.6400000000000001243 0 0 
	0 6.458305178695694667e-17 -0.6400000000000001243 
	-0 0.0600000000000000186 6.054661105027214135e-18 
	0 
	-0 1 1.009110184171202084e-16 
	null_surface 
	null_surface 
	nullbs 
	nullbs 
	} I I #
loop $-1 -1 $-1 $-1 $152 $139 #
face $153 96 $-1 $154 $117 $6 $-1 $155 forward single #
point $-1 -1 $-1 -0.4498176919826069042 -0.75 0.3970693188593656942 #
point $-1 -1 $-1 0.07941673251754594043 -0.75 -0.6350535273472913689 #
straight-curve $-1 -1 $-1 0.6400000000000001243 -0.7961880215351699874 6.983640742251406147e-16 2.408481735558279341e-46 -1 -1.009110184171204179e-16 I I #
point $-1 -1 $-1 0.6400000000000001243 -0.75 7.030249545169264586e-16 #
coedge $-1 -1 $-1 $144 $144 $126 $145 reversed $156 0 $-1 #
edge $-1 117 $-1 $157 -3.141592653589793116 $157 3.141592653589793116 $144 $158 forward @7 unknown #
point $-1 -1 $-1 0.6400000000000001243 -0.7038119784648300126 7.076858348087124997e-16 #
ATTRIB_CUSTOM-attrib $-1 -1 $-1 $-1 $132 @22 generic_tag_attrib_def 3 3 -1 @23 generic_tag_attrib_def  1 1 @1 4 0 2 353 445 0 #
face $159 84 $-1 $160 $161 $6 $-1 $162 reversed single #
loop $-1 -1 $-1 $-1 $163 $132 #
spline-surface $-1 -1 $-1 forward { ref 14 } F 0 F 0.05196152422706648566 F 0 F 62.83185307179586232 #
coedge $-1 -1 $-1 $164 $165 $166 $167 reversed $133 0 $168 #
coedge $-1 -1 $-1 $152 $152 $169 $170 reversed $138 0 $-1 #
ATTRIB_CUSTOM-attrib $-1 -1 $-1 $-1 $139 @22 generic_tag_attrib_def 3 3 -1 @23 generic_tag_attrib_def  1 1 @1 4 0 2 341 445 0 #
face $171 97 $-1 $172 $173 $6 $-1 $174 forward single #
plane-surface $-1 -1 $-1 0 -0.750000000000000111 0.7635964917678803587 0 -1 -1.009110184171202084e-16 0 1.009110184171202084e-16 -1 forward_v I I I I #
loop $-1 -1 $-1 $-1 $144 $175 #
vertex $-1 161 $-1 $145 0 $176 #
ellipse-curve $-1 -1 $-1 0 -1.050000000000000044 -1.059565693379762447e-16 0 1 1.009110184171202207e-16 -0.4000000000000000777 0 0 1 I I #
ATTRIB_CUSTOM-attrib $-1 -1 $-1 $-1 $148 @22 generic_tag_attrib_def 3 3 -1 @23 generic_tag_attrib_def  1 1 @1 3 0 2 353 445 0 #
face $177 85 $-1 $178 $179 $6 $-1 $180 reversed single #
loop $-1 -1 $-1 $-1 $181 $148 #
cone-surface $-1 -1 $-1 0 1.298038475772933742 1.057788121342564934e-16 -0 -1 -1.00911018417120233e-16 -0.6450000000000001288 0 1.232595164407830946e-32 1 I I -1.224646799147353207e-16 1 0.6450000000000001288 forward I I I I #
coedge $-1 -1 $-1 $182 $183 $184 $185 reversed $149 0 $186 #
coedge $-1 -1 $-1 $165 $151 $187 $188 forward $133 0 $189 #
coedge $-1 -1 $-1 $151 $164 $190 $191 reversed $133 0 $192 #
coedge $-1 -1 $-1 $193 $194 $151 $167 forward $173 0 $-1 #
edge $-1 119 $-1 $195 0 $196 0.1443423219809085167 $166 $197 forward @7 unknown #
pcurve $-1 -1 $-1 -1 $197 0 0 #
coedge $-1 -1 $-1 $169 $169 $152 $170 forward $198 0 $-1 #
edge $-1 144 $-1 $199 -1.570796326794896558 $199 4.712388980384689674 $169 $200 forward @7 tangent #
ATTRIB_CUSTOM-attrib $-1 -1 $-1 $-1 $154 @22 generic_tag_attrib_def 3 3 -1 @23 generic_tag_attrib_def  2 1 @1 5 0 2 341 445 0 1 @1 1 0 2 346 445 0 #
face $201 98 $-1 $202 $203 $6 $-1 $204 forward single #
loop $-1 -1 $-1 $205 $194 $154 #
plane-surface $-1 -1 $-1 0 0.75 0 -0 1 1.009110184171202084e-16 0 -1.009110184171202084e-16 1 forward_v I I I I #
face $206 94 $-1 $207 $208 $6 $-1 $209 forward single #
point $-1 -1 $-1 0.4000000000000000777 -1.050000000000000044 -1.549424413038703878e-16 #
ATTRIB_CUSTOM-attrib $-1 -1 $-1 $-1 $160 @22 generic_tag_attrib_def 3 3 -1 @23 generic_tag_attrib_def  1 1 @1 2 0 2 353 445 0 #
face $210 86 $-1 $211 $212 $6 $-1 $180 reversed single #
loop $-1 -1 $-1 $-1 $213 $160 #
plane-surface $-1 -1 $-1 -0.6149999999999999911 0.8000000000000000444 1.561836805284343865e-15 -2.449293598294706513e-15 1.009110184171200728e-16 -1 -1 -2.471607114064517899e-31 2.449293598294706513e-15 forward_v I I I I #
coedge $-1 -1 $-1 $190 $214 $193 $215 reversed $161 0 $-1 #
coedge $-1 -1 $-1 $216 $163 $217 $218 forward $149 0 $219 #
coedge $-1 -1 $-1 $163 $216 $220 $221 forward $149 0 $222 #
coedge $-1 -1 $-1 $223 $224 $163 $185 forward $225 0 $-1 #
edge $-1 122 $-1 $226 0 $227 62.831853071795841 $184 $228 forward @7 unknown #
pcurve $-1 -1 $-1 0 reversed { exp_par_cur nubs 1 open 2 
	0 1 62.83185307179585521 1 
	0.05196152422706635382 -4.626858725254619708e-33 
	0.05196152422706635382 62.83185307179585521 
	0 
	spline forward { ref 14 } I I I I 
	} 0 0 #
coedge $-1 -1 $-1 $213 $229 $164 $188 reversed $179 0 $-1 #
edge $-1 120 $-1 $195 -0.003923048454132625762 $230 -0 $164 $231 forward @7 unknown #
pcurve $-1 -1 $-1 0 reversed { exp_par_cur nubs 1 open 2 
	0 1 0.1039230484541327215 1 
	0.1039230484541327076 62.83185307179586232 
	0 62.83185307179586232 
	0 
	spline forward { ref 14 } I I I I 
	} 0 0 #
coedge $-1 -1 $-1 $214 $181 $165 $191 forward $161 0 $-1 #
edge $-1 121 $-1 $196 62.60776906810168185 $230 62.83185307179585521 $165 $232 forward @7 unknown #
pcurve $-1 -1 $-1 0 reversed { exp_par_cur nubs 1 open 2 
	62.60776906810168185 1 62.83185307179586232 1 
	0.1039230484541327076 62.60776906810168185 
	0.1039230484541327215 62.83185307179586232 
	0 
	spline forward { ref 14 } I I I I 
	} 0 0 #
coedge $-1 -1 $-1 $194 $166 $181 $215 forward $173 0 $-1 #
coedge $-1 -1 $-1 $166 $193 $213 $233 forward $173 0 $-1 #
vertex $-1 163 $-1 $233 1 $234 #
vertex $-1 162 $-1 $167 1 $235 #
intcurve-curve $-1 -1 $-1 forward { int_int_cur 22140 full nubs 3 open 2 
	0 3 0.1443423219809085167 3 
	-0.6416025403784439973 0.75 1.621948686210787201e-15 
	-0.6427391951581373775 0.75 0.04810067920292911137 
	-0.6384603567664609569 0.75 0.09617637393622105457 
	-0.628873750437493495 0.75 0.1433276177527601225 
	2.57615316861294225e-08 
	
	spline forward { ref 14 } I I I I 
	plane 0 0.75 0 -0 1 1.009110184171202084e-16 0 -1.009110184171202084e-16 1 forward_v I I I I 
	nubs 3 open 2 
	0 3 0.1443423219809085167 3 
	0.1000000000000001166 62.83185307179586232 
	0.101312495886063586 62.75688348209543221 
	0.1026174126684291366 62.68234680978587647 
	0.1039230484541327215 62.60776906810168896 
	
	nullbs 
	I I 
	0 
	0 
	0 
	
	0 } I I #
loop $-1 -1 $-1 $236 $169 $207 #
vertex $-1 179 $-1 $170 0 $237 #
ellipse-curve $-1 -1 $-1 0 -0.750000000000000111 -7.568326381284017477e-17 -0 1 1.009110184171202084e-16 0.7635964917678804698 0 0 1 I I #
ATTRIB_CUSTOM-attrib $-1 -1 $-1 $-1 $172 @22 generic_tag_attrib_def 3 3 -1 @23 generic_tag_attrib_def  1 1 @1 6 0 2 341 445 0 #
face $238 99 $-1 $239 $240 $6 $-1 $241 forward single #
loop $-1 -1 $-1 $242 $243 $172 #
torus-surface $-1 -1 $-1 0 0.4250000000000000444 4.288718282727609287e-17 -0 1 1.009110184171202084e-16 0.7750000000000001332 0.3251999999999999891 0 -1.009110184171202084e-16 1 forward_v I I I I #
loop $-1 -1 $-1 $244 $245 $154 #
ATTRIB_CUSTOM-attrib $-1 -1 $-1 $-1 $175 @22 generic_tag_attrib_def 3 3 -1 @23 generic_tag_attrib_def  2 1 @1 4 0 2 346 445 0 1 @1 4 0 2 348 445 0 #
face $246 95 $-1 $139 $198 $6 $-1 $247 forward single #
loop $-1 -1 $-1 $156 $248 $175 #
cone-surface $-1 -1 $-1 0 0.75 7.568326381284015011e-17 0 -1 -1.009110184171202207e-16 -0.4000000000000000777 0 0 1 I I 0 -1 0.4000000000000000777 forward I I I I #
ATTRIB_CUSTOM-attrib $-1 -1 $-1 $-1 $178 @22 generic_tag_attrib_def 3 3 -1 @23 generic_tag_attrib_def  1 1 @1 2 0 2 353 445 0 #
face $249 87 $-1 $250 $251 $6 $-1 $252 reversed single #
loop $-1 -1 $-1 $-1 $253 $178 #
coedge $-1 -1 $-1 $229 $187 $194 $233 reversed $179 0 $-1 #
coedge $-1 -1 $-1 $181 $190 $229 $254 forward $161 0 $-1 #
edge $-1 126 $-1 $196 -0.2240840036941757762 $255 -2.449293598294706513e-15 $193 $256 forward @7 unknown #
coedge $-1 -1 $-1 $183 $182 $257 $258 forward $149 0 $259 #
coedge $-1 -1 $-1 $260 $261 $182 $218 reversed $262 0 $-1 #
edge $-1 123 $-1 $226 0.05196152422706641627 $263 0.1039230484541327215 $182 $264 forward @7 unknown #
pcurve $-1 -1 $-1 0 reversed { exp_par_cur nubs 1 open 2 
	-0.1039230484541327215 1 -0 1 
	0 0 
	0.1039230484541327076 0 
	0 
	spline forward { ref 14 } I I I I 
	} 0 0 #
coedge $-1 -1 $-1 $265 $253 $183 $221 reversed $212 0 $-1 #
edge $-1 125 $-1 $266 -0.1039230484541327215 $227 -0.05196152422706636076 $183 $231 forward @7 unknown #
pcurve $-1 -1 $-1 0 reversed { ref 18 } 0 0 #
coedge $-1 -1 $-1 $267 $184 $253 $268 forward $225 0 $-1 #
coedge $-1 -1 $-1 $184 $269 $260 $270 forward $225 0 $-1 #
loop $-1 -1 $-1 $-1 $224 $271 #
vertex $-1 166 $-1 $185 0 $272 #
vertex $-1 165 $-1 $268 0 $273 #
intcurve-curve $-1 -1 $-1 forward { helix_int_cur 22140 F 0 F 62.83185307179585521 
	0 1.324019237886466804 1.084005572983860552e-16 
	-0.6000000000000000888 0 2.696301922142130194e-33 
	-2.696301922142130194e-33 6.054661105027215214e-17 -0.6000000000000000888 
	-0 -0.05500000000000000028 -5.550106012941612508e-18 
	0 
	-0 -1 -1.00911018417120233e-16 
	null_surface 
	null_surface 
	nullbs 
	nullbs 
	} I I #
coedge $-1 -1 $-1 $187 $213 $214 $254 reversed $179 0 $-1 #
vertex $-1 164 $-1 $191 1 $274 #
straight-curve $-1 -1 $-1 -0.6450000000000001288 0.7480384757729336975 1.630072122904926338e-15 -0.8660254037844387076 -0.499999999999999889 2.07069496824125396e-15 F -0.1039230484541327215 F -0 #
intcurve-curve $-1 -1 $-1 forward { helix_int_cur 22140 F 62.60776906810168185 F 62.83185307179586232 
	0 1.298038475772933742 1.057788121342564934e-16 
	-0.6450000000000001288 0 0 
	0 6.508760687904256756e-17 -0.6450000000000001288 
	-0 -0.05500000000000000028 -5.550106012941612508e-18 
	0 
	-0 -1 -1.00911018417120233e-16 
	null_surface 
	null_surface 
	nullbs 
	nullbs 
	} I I #
edge $-1 128 $-1 $255 -0.3375000000000001332 $195 -0.3341025403784440018 $194 $275 forward @7 unknown #
point $-1 -1 $-1 -0.6416025403784439973 0.75 1.621948686210787398e-15 #
point $-1 -1 $-1 -0.628873750437493495 0.75 0.1433276177527601225 #
loop $-1 -1 $-1 $-1 $276 $207 #
point $-1 -1 $-1 0 -0.750000000000000111 0.7635964917678803587 #
ATTRIB_CUSTOM-attrib $-1 -1 $-1 $-1 $202 @22 generic_tag_attrib_def 3 3 -1 @23 generic_tag_attrib_def  1 1 @1 7 0 2 341 445 0 #
face $277 100 $-1 $-1 $278 $6 $-1 $279 forward single #
loop $-1 -1 $-1 $280 $281 $202 #
plane-surface $-1 -1 $-1 0 0.1000000000000000333 0.7864035082321199077 0 -1 -1.009110184171202084e-16 0 1.009110184171202084e-16 -1 forward_v I I I I #
loop $-1 -1 $-1 $-1 $282 $172 #
coedge $-1 -1 $-1 $243 $243 $283 $284 forward $203 0 $-1 #
loop $-1 -1 $-1 $285 $286 $154 #
coedge $-1 -1 $-1 $287 $288 $289 $290 forward $205 0 $-1 #
ATTRIB_CUSTOM-attrib $-1 -1 $-1 $-1 $207 @22 generic_tag_attrib_def 3 3 -1 @23 generic_tag_attrib_def  1 1 @1 3 0 2 341 445 0 #
torus-surface $-1 -1 $-1 0 -0.4249999999999999334 -4.288718282727608671e-17 -0 1 1.009110184171202084e-16 0.7635964917678804698 0.3250000000000000666 0 -1.009110184171202084e-16 1 forward_v I I I I #
coedge $-1 -1 $-1 $248 $248 $291 $292 reversed $208 0 $-1 #
ATTRIB_CUSTOM-attrib $-1 -1 $-1 $-1 $211 @22 generic_tag_attrib_def 3 3 -1 @23 generic_tag_attrib_def  1 1 @1 5 0 2 353 445 0 #
face $293 88 $-1 $271 $262 $6 $-1 $294 forward single #
loop $-1 -1 $-1 $-1 $295 $211 #
spline-surface $-1 -1 $-1 forward { helix_spl_line 22140 F 0 F 0.1039230484541327215 
	F 0 F 62.83185307179586232 
	F 0 F 62.83185307179586232 
	0 1.401961524227066436 1.162657927907747531e-16 
	-0.6450000000000001288 0 0 
	0 6.508760687904256756e-17 -0.6450000000000001288 
	-0 -0.05500000000000000028 -5.550106012941612508e-18 
	0 
	-0 -1 -1.00911018417120233e-16 
	null_surface 
	null_surface 
	nullbs 
	nullbs 
	
	-1.342675044627036574 -1.242150165682310054e-31 0.499999999999999889 
	} F 0.05196152422706364765 F 0.1039230484541327215 F 0 F 62.83185307179586232 #
coedge $-1 -1 $-1 $220 $265 $223 $268 reversed $212 0 $-1 #
edge $-1 127 $-1 $230 -0.1039230484541326938 $255 -0.1019615242270663913 $214 $296 forward @7 unknown #
vertex $-1 169 $-1 $233 0 $297 #
ellipse-curve $-1 -1 $-1 0 0.75 5.047569141224347725e-17 0 -1 -1.009110184171202084e-16 -0.6450000000000000178 0 1.232595164407830672e-32 1 I I #
coedge $-1 -1 $-1 $295 $298 $216 $258 reversed $251 0 $299 #
edge $-1 124 $-1 $263 0 $266 62.83185307179586232 $257 $300 forward @7 unknown #
pcurve $-1 -1 $-1 0 reversed { exp_par_cur nubs 1 open 2 
	-62.83185307179586232 1 -0 1 
	0 62.83185307179586232 
	0 2.220892188122217679e-32 
	0 
	spline forward { ref 14 } I I I I 
	} 0 0 #
coedge $-1 -1 $-1 $261 $217 $224 $270 reversed $262 0 $-1 #
coedge $-1 -1 $-1 $217 $260 $301 $302 reversed $262 0 $-1 #
loop $-1 -1 $-1 $-1 $260 $250 #
vertex $-1 167 $-1 $303 1 $304 #
straight-curve $-1 -1 $-1 -0.6450000000000001288 1.298038475772933742 1.057788121342565057e-16 0.8660254037844387076 0.499999999999999889 5.045550920856003023e-17 F 0 F 0.1039230484541327215 #
coedge $-1 -1 $-1 $253 $220 $298 $305 reversed $212 0 $-1 #
vertex $-1 168 $-1 $258 1 $306 #
coedge $-1 -1 $-1 $269 $223 $307 $308 forward $225 0 $-1 #
edge $-1 129 $-1 $227 0.02401923788646687097 $309 0.07598076211353321785 $223 $310 forward @7 unknown #
coedge $-1 -1 $-1 $224 $267 $311 $312 reversed $225 0 $-1 #
edge $-1 133 $-1 $313 -0.6000000000000000888 $226 -0.5740192378864670264 $224 $314 forward @7 unknown #
face $315 89 $-1 $316 $317 $6 $-1 $318 forward single #
point $-1 -1 $-1 -0.6000000000000000888 1.324019237886467026 1.084005572983860675e-16 #
point $-1 -1 $-1 -0.6000000000000000888 0.774019237886466871 1.522475656145793874e-15 #
point $-1 -1 $-1 -0.6450000000000001288 0.7480384757729336975 1.630072122904926141e-15 #
straight-curve $-1 -1 $-1 -0.3074999999999999956 0.75 8.03633472887865622e-16 1 2.471607114064517461e-31 -2.449293598294706513e-15 I I #
coedge $-1 -1 $-1 $276 $276 $319 $320 reversed $236 0 $-1 #
ATTRIB_CUSTOM-attrib $-1 -1 $-1 $-1 $239 @22 generic_tag_attrib_def 3 3 -1 @23 generic_tag_attrib_def  1 1 @1 8 0 2 341 445 0 #
loop $-1 -1 $-1 $321 $319 $239 #
torus-surface $-1 -1 $-1 0 5.551115123125782702e-17 6.16297582203915473e-33 -0 1 1.009110184171202084e-16 0.7635964917678803587 -0.1000000000000000194 0 -1.009110184171202084e-16 1 forward_v I I I I #
loop $-1 -1 $-1 $-1 $283 $202 #
coedge $-1 -1 $-1 $281 $281 $322 $323 forward $240 0 $-1 #
coedge $-1 -1 $-1 $282 $282 $324 $325 reversed $242 0 $-1 #
coedge $-1 -1 $-1 $283 $283 $243 $284 reversed $280 0 $-1 #
edge $-1 147 $-1 $326 -1.570796326794896558 $326 4.712388980384689674 $243 $327 forward @7 unknown #
loop $-1 -1 $-1 $-1 $324 $154 #
coedge $-1 -1 $-1 $286 $286 $328 $329 forward $244 0 $-1 #
coedge $-1 -1 $-1 $288 $245 $330 $331 forward $205 0 $-1 #
coedge $-1 -1 $-1 $245 $287 $332 $333 forward $205 0 $-1 #
coedge $-1 -1 $-1 $334 $335 $245 $290 reversed $336 0 $337 #
edge $-1 140 $-1 $338 0 $339 1.136652110146423311 $245 $340 forward @7 unknown #
coedge $-1 -1 $-1 $291 $291 $248 $292 forward $341 0 $-1 #
edge $-1 143 $-1 $342 -3.141592653589793116 $342 3.141592653589793116 $248 $343 forward @7 unknown #
ATTRIB_CUSTOM-attrib $-1 -1 $-1 $-1 $250 @22 generic_tag_attrib_def 3 3 -1 @23 generic_tag_attrib_def  1 1 @1 1 0 2 353 445 0 #
plane-surface $-1 -1 $-1 -0.6149999999999999911 1.350000000000000089 1.110223024625155924e-16 -0 1.009110184171200728e-16 -1 -1 0 0 forward_v I I I I #
coedge $-1 -1 $-1 $307 $257 $344 $303 reversed $251 0 $345 #
straight-curve $-1 -1 $-1 -0.6450000000000001288 0.8519615242270663913 1.640559103561444437e-15 -3.503246160812042677e-46 1 1.009110184171200851e-16 I I #
point $-1 -1 $-1 -0.6450000000000001288 0.75 1.630270062312329351e-15 #
coedge $-1 -1 $-1 $257 $307 $265 $305 forward $251 0 $346 #
pcurve $-1 -1 $-1 0 reversed { exp_par_cur nubs 1 open 2 
	0 1 62.83185307179586232 1 
	0.1039230484541327215 7.532095599251705516e-33 
	0.1039230484541327215 62.83185307179586232 
	0 
	spline forward { ref 24 } I I I I 
	} 0 0 #
intcurve-curve $-1 -1 $-1 forward { helix_int_cur 22140 F 0 F 62.83185307179586232 
	0 1.350000000000000089 1.110223024625156171e-16 
	-0.5550000000000000488 0 0 
	0 5.600561522150173672e-17 -0.5550000000000000488 
	-0 -0.05500000000000000028 -5.550106012941612508e-18 
	0 
	-0 -1 -1.00911018417120233e-16 
	null_surface 
	null_surface 
	nullbs 
	nullbs 
	} I I #
coedge $-1 -1 $-1 $311 $344 $261 $302 forward $347 0 $-1 #
edge $-1 134 $-1 $263 0.2475000000000000533 $313 0.2925000000000000933 $301 $348 forward @7 unknown #
edge $-1 131 $-1 $349 1.855459806539158096 $263 3.579000330469355617 $344 $350 forward @7 unknown #
point $-1 -1 $-1 -0.5550000000000000488 1.350000000000000089 1.110223024625156294e-16 #
edge $-1 130 $-1 $309 -0.05196152422706636076 $266 -0 $298 $351 forward @7 unknown #
point $-1 -1 $-1 -0.5550000000000000488 0.8000000000000000444 1.414879189386661608e-15 #
coedge $-1 -1 $-1 $298 $295 $267 $308 reversed $251 0 $352 #
edge $-1 132 $-1 $309 -62.83185307179587653 $349 -2.968035323292371519 $267 $353 forward @7 unknown #
vertex $-1 170 $-1 $308 0 $354 #
straight-curve $-1 -1 $-1 -0.6000000000000000888 0.75 1.52005185038906756e-15 0 1 1.009110184171202207e-16 I I #
coedge $-1 -1 $-1 $344 $301 $269 $312 forward $347 0 $-1 #
edge $-1 136 $-1 $313 -6.283185307179586232 $349 -2.968035323292347538 $269 $355 forward @7 unknown #
vertex $-1 172 $-1 $312 0 $356 #
straight-curve $-1 -1 $-1 -0.6000000000000000888 0.75 5.047569141224353888e-17 -0 -1 -1.009110184171202207e-16 I I #
ATTRIB_CUSTOM-attrib $-1 -1 $-1 $-1 $271 @22 generic_tag_attrib_def 3 3 -1 @23 generic_tag_attrib_def  1 1 @1 3 0 2 348 445 0 #
face $357 90 $-1 $358 $359 $6 $-1 $360 reversed single #
loop $-1 -1 $-1 $225 $328 $271 #
cone-surface $-1 -1 $-1 0 0.75 7.568326381284015011e-17 0 1 1.009110184171202207e-16 -0.6000000000000000888 0 0 1 I I 0 1 0.6000000000000000888 forward I I I I #
coedge $-1 -1 $-1 $319 $319 $276 $320 forward $278 0 $-1 #
edge $-1 145 $-1 $361 -1.570796326794896558 $361 4.712388980384689674 $276 $362 forward @7 tangent #
loop $-1 -1 $-1 $-1 $322 $239 #
coedge $-1 -1 $-1 $322 $322 $281 $323 reversed $321 0 $-1 #
edge $-1 148 $-1 $363 -1.570796326794896558 $363 4.712388980384689674 $281 $364 forward @7 tangent #
coedge $-1 -1 $-1 $324 $324 $282 $325 forward $285 0 $-1 #
edge $-1 146 $-1 $365 -1.570796326794896558 $365 4.712388980384689674 $324 $366 forward @7 unknown #
vertex $-1 182 $-1 $284 0 $367 #
ellipse-curve $-1 -1 $-1 0 0.1000000000000000888 1.009110184171202947e-17 -0 1 1.009110184171202084e-16 0.7864035082321199077 0 0 1 I I #
coedge $368 -1 $-1 $328 $328 $286 $329 reversed $317 0 $-1 #
edge $-1 135 $-1 $369 -3.141592653589793116 $369 3.141592653589793116 $286 $370 forward @7 unknown #
coedge $-1 -1 $-1 $371 $372 $287 $331 reversed $373 0 $-1 #
edge $-1 142 $-1 $339 -0.3300000000000000155 $374 -0.2999999999999999889 $287 $375 forward @7 unknown #
coedge $-1 -1 $-1 $376 $377 $288 $333 reversed $359 0 $-1 #
edge $-1 137 $-1 $374 2.449293598294706907e-15 $338 1.813799364234237599 $288 $378 forward @7 unknown #
coedge $-1 -1 $-1 $335 $289 $377 $379 forward $336 0 $380 #
coedge $-1 -1 $-1 $289 $334 $371 $381 forward $336 0 $382 #
loop $-1 -1 $-1 $-1 $289 $358 #
pcurve $-1 -1 $-1 -1 $340 0 0 #
vertex $-1 174 $-1 $290 0 $383 #
vertex $-1 177 $-1 $290 1 $384 #
intcurve-curve $-1 -1 $-1 forward { int_int_cur 22140 full nubs 3 open 6 
	0 3 0.2394418384104148589 2 0.4813447341163278881 2 0.7257081586739634327 2 0.9303282356087024807 2 
	1.136652110146423311 3 
	0.1467772938568426278 0.749999999999999889 0.5920780573607351549 
	0.06985729752467957632 0.749999999999999889 0.6133754788522872703 
	-0.01049486842908986528 0.749999999999999889 0.6193679842509889344 
	-0.1698382748329448078 0.749999999999999889 0.6002668987457503436 
	-0.2472545962966073985 0.749999999999999889 0.5750438145902990739 
	-0.3888809531039293388 0.749999999999999889 0.4960617312655883904 
	-0.4515707896068471006 0.75 0.4427886700317535951 
	-0.5448821184126596551 0.75 0.3256508540150385711 
	-0.5784379606293329479 0.75 0.2657028874711562239 
	-0.6253487692829312605 0.75 0.1368893103304031078 
	-0.6382215876625237927 0.749999999999999889 0.06881457423062127543 
	-0.6400000000000000133 0.749999999999999889 1.6180235943208556e-15 
	3.731529300304227935e-07 
	
	spline forward { helix_spl_line 22140 F 0 F 0.03464101615137760853 
	F 0 F 62.83185307179586232 
	F 0 F 62.83185307179586232 
	0 1.332679491924311233 1.092744723530959133e-16 
	-0.6099999999999999867 0 1.232595164407830946e-32 
	-1.232595164407830946e-32 6.155572123444331996e-17 -0.6099999999999999867 
	-0 -0.0600000000000000186 -6.054661105027214135e-18 
	0 
	-0 -1 -1.009110184171202084e-16 
	null_surface 
	null_surface 
	nullbs 
	nullbs 
	
	1.419713776695799679 6.769170165190547343e-31 -0.5000000000000015543 
	} I I I I 
	plane 0 0.75 0 -0 1 1.009110184171202084e-16 0 -1.009110184171202084e-16 1 forward_v I I I I 
	nubs 3 open 6 
	0 3 0.2394418384104148589 3 0.4813447341163278881 3 0.7257081586739634327 3 0.9303282356087024807 3 
	1.136652110146423311 3 
	0 61.01805370756164137 
	0.002497990248684785284 61.14884817112842796 
	0.004959401299546088021 61.27772735237593338 
	0.00743188260156538074 61.40718617061862972 
	0.009929776831361678685 61.53797560664816757 
	0.01239122935751253533 61.66685695953676571 
	0.01486387845811117277 61.79632456369253646 
	0.01736167824752010702 61.92710905483495765 
	0.01982317099298554902 62.05599251360192881 
	0.02229598408522433239 62.18546870433989682 
	0.02436661804403017495 62.29388684489419603 
	0.02641503743172834637 62.40114183322526031 
	0.02846850011830097046 62.50866088806787957 
	0.03053906124826979637 62.61707521531319287 
	0.03258748246783375185 62.72433029956052053 
	0.03464101615137760853 62.83185307179586232 
	
	nullbs 
	I I 
	0 
	0 
	0 
	
	0 } I I #
loop $-1 -1 $-1 $-1 $291 $385 #
vertex $-1 178 $-1 $292 0 $386 #
ellipse-curve $-1 -1 $-1 0 1.350000000000000089 1.362298748631122899e-16 -0 -1 -1.009110184171202207e-16 -0.4000000000000000777 0 0 1 I I #
coedge $-1 -1 $-1 $301 $311 $295 $303 forward $347 0 $-1 #
pcurve $-1 -1 $-1 -1 $350 0 0 #
pcurve $-1 -1 $-1 0 reversed { exp_par_cur nubs 1 open 2 
	0 1 0.1039230484541327215 1 
	0.1039230484541327493 62.83185307179586232 
	-0 62.83185307179586232 
	0 
	spline forward { ref 24 } I I I I 
	} 0 0 #
loop $-1 -1 $-1 $341 $301 $385 #
straight-curve $-1 -1 $-1 -0.3074999999999999956 1.350000000000000089 1.110223024625156047e-16 -1 0 0 I I #
vertex $-1 171 $-1 $308 1 $387 #
intcurve-curve $-1 -1 $-1 forward { int_int_cur 22140 full nubs 3 open 10 
	1.855459806539158096 3 1.942985267654380399 2 2.175692351396368185 2 2.406138785840632455 2 2.634324102621353969 2 
	2.860247828860895236 2 3.083909487087189483 2 3.305308595149011985 2 3.44260300349537296 2 3.579000330469355617 3 
	0.5909860167596496794 1.350000000000000089 -0.1036123930549005534 
	0.5852580199353286661 1.350000000000000089 -0.132041562885584024 
	0.5774637030938861715 1.350000000000000089 -0.1600787392922910779 
	0.5414830333472987478 1.350000000000000089 -0.2603923256868205804 
	0.5014169069775891163 1.350000000000000089 -0.3275081379164728745 
	0.3982144856509269859 1.350000000000000089 -0.4419485260287356332 
	0.3362887024909662625 1.350000000000000089 -0.4883633474572318667 
	0.1987512462764364773 1.350000000000000089 -0.5543891739776811711 
	0.1245915707941932099 1.350000000000000089 -0.573624482490805665 
	-0.02618071095392315861 1.350000000000000089 -0.5824010840224680408 
	-0.1013220956056703481 1.350000000000000089 -0.5721469177718297994 
	-0.2426844527904675752 1.350000000000000089 -0.523525211545727176 
	-0.3076359318069399329 1.350000000000000089 -0.4859006610889940458 
	-0.4188000905031121213 1.350000000000000089 -0.3882650044158862945 
	-0.4641314641219881354 1.350000000000000089 -0.329413508604290528 
	-0.5171293431843467792 1.350000000000000089 -0.222626189655279999 
	-0.5323627699055615281 1.350000000000000089 -0.1794348157250215126 
	-0.5519183367068436485 1.350000000000000089 -0.09060274545213908848 
	-0.5562378109039011198 1.350000000000000089 -0.04531101999812917058 
	-0.5550000000000000488 1.350000000000000089 1.110223024625156171e-16 
	3.420765965439054154e-07 
	
	spline forward { ref 24 } I I I I 
	plane 0 1.350000000000000089 1.362298748631122899e-16 0 1 1.009110184171202207e-16 -1 0 0 forward_v I I I I 
	nubs 3 open 10 
	1.855459806539158096 3 1.942985267654380399 3 2.175692351396368185 3 2.406138785840632455 3 2.634324102621353969 3 
	2.860247828860895236 3 3.083909487087189483 3 3.305308595149011985 3 3.44260300349537296 3 3.579000330469355617 3 
	0.05196152422706627749 2.968035323292347982 
	0.05280742177187554981 2.919717768520310841 
	0.05365560939963524151 2.871269404516041401 
	0.05450834157873368779 2.822561456346309061 
	0.05677562287408522562 2.693054651599073868 
	0.05903214202954509826 2.564162578844939588 
	0.06132152573274092522 2.433393287513881731 
	0.06358866905727003638 2.303894363641595167 
	0.06584515593796258504 2.175004134417858559 
	0.06813462224507876863 2.044230124761903244 
	0.0704016245348210723 1.914739256777800769 
	0.07265807817892715181 1.785850926023444529 
	0.07494762846093849795 1.655072119732693636 
	0.07721448654989200577 1.525589488478385602 
	0.07947090595670840141 1.396703113353443104 
	0.08176054161729288949 1.265919430249998756 
	0.08402725223288097511 1.136445222654625997 
	0.0862836363608305984 1.007560862653841482 
	0.08857335883733050141 0.8767722206369048532 
	0.0908399185956118016 0.7473066299907450416 
	0.09309626636013038081 0.6184243470642851737 
	0.09538607712454318099 0.4876306620535558745 
	0.09680603864506294454 0.406522649667281466 
	0.09822529299769457156 0.3254550306163208617 
	0.0996545627893379582 0.2438153310267815732 
	0.1010744937351999995 0.1627090650608722933 
	0.1024937475369864515 0.08164147747410681333 
	0.1039230484541327215 0 
	
	nullbs 
	I I 
	0 
	0 
	0 
	
	0 } I I #
straight-curve $-1 -1 $-1 -0.5550000000000000488 0.8000000000000000444 1.414879189386661608e-15 0.8660254037844387076 -0.499999999999999889 -2.171605986658373897e-15 F -0.1039230484541327215 F -0 #
pcurve $-1 -1 $-1 0 reversed { exp_par_cur nubs 1 open 2 
	-62.83185307179587653 1 -2.968035323292371519 1 
	0.051961524227066333 62.83185307179587653 
	0.05196152422706624974 2.968035323292372407 
	0 
	spline forward { ref 24 } I I I I 
	} 0 0 #
intcurve-curve $-1 -1 $-1 forward { helix_int_cur 22140 F -62.83185307179587653 F -2.968035323292371519 
	0 1.375980762113533373 1.136440476266452036e-16 
	-0.6000000000000000888 0 5.007417855406813218e-33 
	5.007417855406813218e-33 -6.054661105027215214e-17 0.6000000000000000888 
	0 0.05500000000000000028 5.550106012941612508e-18 
	-0 
	0 1 1.00911018417120233e-16 
	null_surface 
	null_surface 
	nullbs 
	nullbs 
	} I I #
point $-1 -1 $-1 -0.6000000000000000888 0.8259807621135332178 1.527719146474052924e-15 #
ellipse-curve $-1 -1 $-1 0 1.350000000000000089 1.362298748631122899e-16 0 1 1.009110184171202207e-16 -0.6000000000000000888 0 0 1 I I #
point $-1 -1 $-1 -0.6000000000000000888 1.350000000000000089 1.110223024625155924e-16 #
ATTRIB_CUSTOM-attrib $-1 -1 $-1 $-1 $316 @22 generic_tag_attrib_def 3 3 -1 @23 generic_tag_attrib_def  1 1 @1 4 0 2 351 445 0 #
face $388 91 $-1 $389 $336 $6 $-1 $390 reversed single #
loop $-1 -1 $-1 $-1 $332 $316 #
cone-surface $-1 -1 $-1 0 1.367320508075688945 1.127701325719353455e-16 -0 -1 -1.009110184171202084e-16 -0.6099999999999999867 0 0 1 I I -0 -1 0.6099999999999999867 forward I I I I #
vertex $-1 180 $-1 $320 0 $391 #
ellipse-curve $-1 -1 $-1 0 -0.09999999999999986677 -1.009110184171201098e-17 -0 1 1.009110184171202084e-16 0.7635964917678803587 0 0 1 I I #
vertex $-1 183 $-1 $323 0 $392 #
ellipse-curve $-1 -1 $-1 0 0.1000000000000000888 1.009110184171202947e-17 -0 1 1.009110184171202084e-16 0.7635964917678800257 0 0 1 I I #
vertex $-1 181 $-1 $325 0 $393 #
ellipse-curve $-1 -1 $-1 0 0.75 7.568326381284016244e-17 -0 1 1.009110184171202084e-16 0.7864035082321179093 0 0 1 I I #
point $-1 -1 $-1 0 0.1000000000000000472 0.7864035082321199077 #
ATTRIB_CUSTOM-attrib $-1 -1 $394 $-1 $328 @17 sketch_attrib_def 1 1 3 @13 303 0 0 0 1 1 #
vertex $-1 173 $-1 $329 0 $395 #
ellipse-curve $-1 -1 $-1 0 0.75 7.568326381284015011e-17 0 -1 -1.009110184171202084e-16 -0.6000000000000000888 0 0 1 I I #
coedge $-1 -1 $-1 $372 $330 $335 $381 reversed $373 0 $-1 #
coedge $-1 -1 $-1 $330 $371 $376 $396 reversed $373 0 $-1 #
loop $-1 -1 $-1 $-1 $330 $389 #
vertex $-1 175 $-1 $333 0 $397 #
straight-curve $-1 -1 $-1 -0.3099999999999999978 0.75 8.09756706883602695e-16 1 2.471607114064517023e-31 -2.449293598294706119e-15 I I #
coedge $-1 -1 $-1 $377 $332 $372 $396 forward $359 0 $-1 #
coedge $-1 -1 $-1 $332 $376 $334 $379 reversed $359 0 $-1 #
ellipse-curve $-1 -1 $-1 0 0.75 5.047569141224348958e-17 -0 1 1.009110184171202084e-16 -0.6099999999999999867 0 0 1 I I #
edge $-1 139 $-1 $338 61.01805370756162716 $398 62.83185307179586232 $377 $399 forward @7 unknown #
pcurve $-1 -1 $-1 0 reversed { exp_par_cur nubs 1 open 2 
	-62.83185307179586232 1 -61.01805370756162716 1 
	0 62.83185307179586232 
	0 61.01805370756162716 
	0 
	spline forward { ref 29 } I I I I 
	} 0 0 #
edge $-1 141 $-1 $398 0 $339 0.03464101615137760853 $335 $400 forward @7 unknown #
pcurve $-1 -1 $-1 0 reversed { exp_par_cur nubs 1 open 2 
	-0.03464101615137760853 1 -0 1 
	0.03464101615137761547 62.83185307179586232 
	0 62.83185307179586232 
	0 
	spline forward { ref 29 } I I I I 
	} 0 0 #
point $-1 -1 $-1 0.1467772938568510377 0.75 0.5920780573607330455 #
point $-1 -1 $-1 -0.6400000000000000133 0.749999999999999889 1.618023594320855797e-15 #
face $401 93 $-1 $175 $347 $6 $-1 $402 forward single #
point $-1 -1 $-1 0.4000000000000000777 1.350000000000000089 8.724400289721814685e-17 #
point $-1 -1 $-1 0.5909860167596496794 1.350000000000000089 -0.1036123930549005534 #
ATTRIB_CUSTOM-attrib $-1 -1 $-1 $-1 $358 @22 generic_tag_attrib_def 3 3 -1 @23 generic_tag_attrib_def  1 1 @1 5 0 2 351 445 0 #
face $403 92 $-1 $385 $373 $6 $-1 $404 reversed single #
spline-surface $-1 -1 $-1 forward { ref 29 } F 0 F 0.03464101615137760853 F 61.01805370756162716 F 62.83185307179586232 #
point $-1 -1 $-1 0 -0.0999999999999999778 0.7635964917678803587 #
point $-1 -1 $-1 0 0.1000000000000000472 0.7635964917678800257 #
point $-1 -1 $-1 0 0.75 0.7864035082321179093 #
ATTRIB_CUSTOM-attrib $-1 -1 $405 $368 $328 @17 sketch_attrib_def 1 1 3 @13 300 0 0 0 1 1 #
point $-1 -1 $-1 0.6000000000000000888 0.75 2.204455863998947823e-18 #
edge $-1 138 $-1 $374 0.01732050807568874529 $398 0.03464101615137771262 $376 $406 forward @7 unknown #
point $-1 -1 $-1 -0.6099999999999999867 0.75 1.544544786372014471e-15 #
vertex $-1 176 $-1 $379 1 $407 #
intcurve-curve $-1 -1 $-1 forward { helix_int_cur 22140 F 61.01805370756162716 F 62.83185307179586232 
	0 1.332679491924311233 1.092744723530959133e-16 
	-0.6099999999999999867 0 1.232595164407830946e-32 
	-1.232595164407830946e-32 6.155572123444331996e-17 -0.6099999999999999867 
	-0 -0.0600000000000000186 -6.054661105027214135e-18 
	0 
	-0 -1 -1.009110184171202084e-16 
	null_surface 
	null_surface 
	nullbs 
	nullbs 
	} I I #
straight-curve $-1 -1 $-1 -0.6099999999999999867 0.7326794919243110327 1.542796956262594657e-15 -0.8660254037844378194 0.5000000000000015543 2.171605986658371925e-15 F 0 F 0.03464101615137760853 #
ATTRIB_CUSTOM-attrib $-1 -1 $-1 $-1 $385 @22 generic_tag_attrib_def 3 3 -1 @23 generic_tag_attrib_def  1 1 @1 2 0 2 348 445 0 #
plane-surface $-1 -1 $-1 0 1.350000000000000089 1.362298748631122899e-16 0 1 1.009110184171202207e-16 -1 0 0 forward_v I I I I #
ATTRIB_CUSTOM-attrib $-1 -1 $-1 $-1 $389 @22 generic_tag_attrib_def 3 3 -1 @23 generic_tag_attrib_def  1 1 @1 2 0 2 351 445 0 #
plane-surface $-1 -1 $-1 -0.6199999999999999956 0.749999999999999889 1.56903772235496158e-15 -2.449293598294706119e-15 1.009110184171197646e-16 -1 -1 -2.471607114064517461e-31 2.449293598294706119e-15 forward_v I I I I #
ATTRIB_CUSTOM-attrib $-1 -1 $-1 $394 $328 @17 sketch_attrib_def 1 1 3 @13 297 0 0 0 1 1 #
straight-curve $-1 -1 $-1 -0.6099999999999999867 0.7673205080756887453 1.546292616481434089e-15 1.050973848243612803e-45 -1 -1.00911018417119777e-16 I I #
point $-1 -1 $-1 -0.6099999999999999867 0.7326794919243110327 1.542796956262594657e-15 #
End-of-ASM-data 