22700 0 2 4           
16 Autodesk Neutron 20 ASM 227.1.1.65535 NT 24 Wed Aug 25 07:50:32 2021 
10 9.999999999999999547e-07 1.000000000000000036e-10 
asmheader $-1 -1 @13 227.1.1.65535 #
body $2 25 $-1 $3 $-1 $4 #
ATTRIB_CUSTOM-attrib $-1 -1 $5 $-1 $1 @20 Timestamp_attrib_def 1 1455556983000 #
lump $-1 -1 $-1 $-1 $6 $1 #
transform $-1 -1 1 0 0 0 1 0 0 0 1 0 0 0 1 no_rotate no_reflect no_shear #
ATTRIB_CUSTOM-attrib $-1 -1 $-1 $2 $1 @22 generic_tag_attrib_def 3 3 -1 @23 generic_tag_attrib_def  1 3 @3 440 1 0 0 #
shell $-1 -1 $-1 $-1 $-1 $7 $-1 $3 #
face $8 68 $-1 $9 $10 $6 $-1 $11 reversed single #
ATTRIB_CUSTOM-attrib $-1 -1 $-1 $-1 $7 @22 generic_tag_attrib_def 3 3 -1 @23 generic_tag_attrib_def  1 1 @1 3 0 1 649 0 #
face $12 13 $-1 $13 $14 $6 $-1 $15 reversed single #
loop $-1 -1 $-1 $16 $17 $7 #
cone-surface $-1 -1 $-1 1.599999999999999645 0 0 -1 0 0 0 0.4095760221444942895 -0.286788218175521803 1 I I 0 1 0.4999999999999979461 forward I I I I #
ATTRIB_CUSTOM-attrib $-1 -1 $-1 $-1 $9 @22 generic_tag_attrib_def 3 3 -1 @23 generic_tag_attrib_def  1 1 @1 3 0 2 371 440 0 #
face $18 14 $-1 $19 $20 $6 $-1 $21 reversed single #
loop $-1 -1 $-1 $22 $23 $9 #
cone-surface $-1 -1 $-1 0.75 -5.551115123125782702e-17 0 0 0 -1 0.5 0 0 1 I I 0 1 0.5 forward I I I I #
loop $-1 -1 $-1 $-1 $24 $7 #
coedge $-1 -1 $-1 $17 $17 $25 $26 reversed $10 0 $-1 #
ATTRIB_CUSTOM-attrib $-1 -1 $-1 $-1 $13 @22 generic_tag_attrib_def 3 3 -1 @23 generic_tag_attrib_def  1 1 @1 1 0 2 369 440 0 #
face $27 15 $-1 $28 $29 $6 $-1 $30 forward single #
loop $-1 -1 $-1 $31 $25 $13 #
sphere-surface $-1 -1 $-1 0 0 0 0.8500000000000000888 1 0 0 0 0 1 forward_v I I I I #
loop $-1 -1 $-1 $-1 $32 $9 #
coedge $-1 -1 $-1 $23 $23 $33 $34 reversed $14 0 $-1 #
coedge $-1 -1 $-1 $24 $24 $35 $36 reversed $16 0 $-1 #
coedge $-1 -1 $-1 $25 $25 $17 $26 forward $20 0 $-1 #
edge $-1 69 $-1 $37 -3.141592653589793116 $37 3.141592653589793116 $25 $38 forward @7 unknown #
ATTRIB_CUSTOM-attrib $-1 -1 $-1 $-1 $19 @22 generic_tag_attrib_def 3 3 -1 @23 generic_tag_attrib_def  1 1 @1 1 0 2 365 440 0 #
face $39 16 $-1 $40 $41 $6 $-1 $42 forward single #
loop $-1 -1 $-1 $43 $35 $19 #
sphere-surface $-1 -1 $-1 0 0 0 0.9000000000000000222 1 0 0 0 0 1 forward_v I I I I #
loop $-1 -1 $-1 $-1 $44 $13 #
coedge $-1 -1 $-1 $32 $32 $45 $46 reversed $22 0 $-1 #
coedge $-1 -1 $-1 $33 $33 $23 $34 forward $41 0 $-1 #
edge $-1 19 $-1 $47 0 $47 3.104280366686202441 $33 $48 forward @7 unknown #
coedge $-1 -1 $-1 $35 $35 $24 $36 forward $29 0 $-1 #
edge $-1 70 $-1 $49 -3.141592653589793116 $49 3.141592653589793116 $35 $50 forward @7 unknown #
vertex $-1 71 $-1 $26 0 $51 #
ellipse-curve $-1 -1 $-1 -0.6873863542433777951 0 0 -1 0 0 2.220446049250313081e-16 0.4095760221444942895 -0.286788218175521803 1 I I #
ATTRIB_CUSTOM-attrib $-1 -1 $-1 $-1 $28 @22 generic_tag_attrib_def 3 3 -1 @23 generic_tag_attrib_def  2 1 @1 4 0 2 361 440 0 1 @1 3 0 2 366 440 0 #
face $52 17 $-1 $53 $54 $6 $-1 $55 forward single #
loop $-1 -1 $-1 $56 $33 $28 #
cone-surface $-1 -1 $-1 0 0 0 1 0 0 0 0 -0.8499999999999999778 1 I I 0 -1 0.8499999999999999778 forward I I I I #
loop $-1 -1 $-1 $-1 $57 $19 #
coedge $-1 -1 $-1 $44 $44 $58 $59 reversed $31 0 $-1 #
coedge $-1 -1 $-1 $45 $45 $32 $46 forward $54 0 $-1 #
edge $-1 20 $-1 $60 0 $60 3.092464536502625094 $45 $61 forward @7 unknown #
vertex $-1 73 $-1 $34 0 $62 #
intcurve-curve $-1 -1 $-1 forward { int_int_cur 22140 full nubs 3 periodic 17 
	0 3 0.1945873409631407314 2 0.3891746819262814627 2 0.5826223867989162031 2 0.7760700916715510544 2 
	0.9695177965441857948 2 1.162965501416820535 2 1.357552842379960989 2 1.552140183343101443 2 1.746727524306241897 2 
	1.941314865269382572 2 2.134762570142017424 2 2.328210275014652275 2 2.521657979887287127 2 2.715105684759921534 2 
	2.909693025723061766 2 3.104280366686202441 3 
	0.75 0.4999999999999999445 -0.6873863542433760188 
	0.8148624469877135956 0.4999999999999999445 -0.6873863542433760188 
	0.882399052269320916 0.4867011565206957324 -0.6975373079191090619 
	1.004820147700594024 0.4352865284164982307 -0.7307269214263426571 
	1.059914337547489538 0.3971924436390581459 -0.7530212034163012991 
	1.146936863602041168 0.310169917584506516 -0.7928243803697674341 
	1.185210255400102275 0.2550031146428576312 -0.8132953696782431185 
	1.236780950492090136 0.1322077016542513861 -0.8420196407480285972 
	1.25 0.06448256829087813113 -0.8499999999999999778 
	1.25 -0.06448256829087840869 -0.8499999999999999778 
	1.236780950492090358 -0.1322077016542516081 -0.8420196407480285972 
	1.185210255400102053 -0.2550031146428578532 -0.8132953696782431185 
	1.146936863602040724 -0.310169917584506849 -0.7928243803697673231 
	1.059914337547489316 -0.3971924436390583679 -0.7530212034163012991 
	1.004820147700594024 -0.4352865284164984527 -0.7307269214263425461 
	0.882399052269321027 -0.4867011565206958434 -0.6975373079191089509 
	0.8148624469877134846 -0.5 -0.6873863542433759077 
	0.6851375530122865154 -0.5 -0.6873863542433759077 
	0.617600947730678973 -0.4867011565206957879 -0.6975373079191090619 
	0.4951798522994060869 -0.4352865284164983972 -0.7307269214263426571 
	0.4400856624525106287 -0.3971924436390582569 -0.7530212034163012991 
	0.3530631363979590542 -0.3101699175845066825 -0.7928243803697674341 
	0.3147897445998977251 -0.2550031146428577422 -0.8132953696782431185 
	0.2632190495079096415 -0.1322077016542514694 -0.8420196407480285972 
	0.25 -0.06448256829087828379 -0.8499999999999999778 
	0.25 0.06448256829087829767 -0.8499999999999999778 
	0.2632190495079097525 0.1322077016542516636 -0.8420196407480283751 
	0.3147897445998978916 0.2550031146428579087 -0.8132953696782428965 
	0.3530631363979592763 0.310169917584506738 -0.7928243803697674341 
	0.4400856624525106842 0.3971924436390581459 -0.7530212034163014101 
	0.4951798522994060869 0.4352865284164982862 -0.7307269214263428792 
	0.617600947730679084 0.4867011565206956769 -0.697537307919109284 
	0.6851375530122864044 0.499999999999999889 -0.6873863542433760188 
	0.75 0.4999999999999999445 -0.6873863542433760188 
	0.000317716839827955936 
	
	cone 0.75 -5.551115123125782702e-17 0 0 0 -1 0.5 0 0 1 I I 0 1 0.5 forward I I I I 
	cone 0 0 0 1 0 0 0 0 -0.8499999999999999778 1 I I 0 -1 0.8499999999999999778 forward I I I I 
	nullbs 
	nullbs 
	I I 
	0 
	0 
	0 
	
	0 } I I #
vertex $-1 72 $-1 $36 0 $63 #
ellipse-curve $-1 -1 $-1 -0.7483314773547897758 0 0 1 -0 -0 1.11022302462515654e-16 0.4095760221444942895 -0.286788218175521803 1 I I #
point $-1 -1 $-1 -0.6873863542433780172 -0.4095760221444942339 0.2867882181755218585 #
ATTRIB_CUSTOM-attrib $-1 -1 $-1 $-1 $40 @22 generic_tag_attrib_def 3 3 -1 @23 generic_tag_attrib_def  1 1 @1 3 0 2 361 440 0 #
face $64 18 $-1 $-1 $65 $6 $-1 $66 forward single #
loop $-1 -1 $-1 $67 $45 $40 #
cone-surface $-1 -1 $-1 0 0 0 1 0 0 0 0 -0.9000000000000000222 1 I I 0 1 0.9000000000000000222 forward I I I I #
loop $-1 -1 $-1 $68 $58 $28 #
coedge $-1 -1 $-1 $57 $57 $69 $70 reversed $43 0 $-1 #
coedge $-1 -1 $-1 $58 $58 $44 $59 forward $56 0 $-1 #
edge $-1 21 $-1 $71 -3.141592653589793116 $71 3.141592653589793116 $58 $72 forward @7 tangent #
vertex $-1 74 $-1 $46 0 $73 #
intcurve-curve $-1 -1 $-1 forward { int_int_cur 22140 full nubs 3 periodic 17 
	0 3 0.1937101024449250364 2 0.3874202048898500728 2 0.5802681695077531732 2 0.7731161341256562736 2 
	0.965964098743559374 2 1.158812063361462474 2 1.352522165806387511 2 1.546232268251312547 2 1.739942370696237584 2 
	1.93365247314116262 2 2.126500437759065498 2 2.319348402376968821 2 2.512196366994872143 2 2.705044331612775022 2 
	2.89875443405770028 2 3.092464536502625094 3 
	0.75 0.4999999999999999445 -0.7483314773547883325 
	0.6854299658516915805 0.4999999999999999445 -0.7483314773547883325 
	0.6179331824727132272 0.4867986639615243805 -0.7575764922640415566 
	0.495384267961850755 0.4354142213651530646 -0.7882318380733881469 
	0.4401540831658206088 0.3972608643523681815 -0.8089763604095741023 
	0.352933662757863309 0.3100404439444108262 -0.8462350774519808994 
	0.3146412452658083891 0.2547507473822763768 -0.8654805738275809235 
	0.2631393147384550879 0.1319161693483391906 -0.892498008381554242 
	0.25 0.06428265487263426503 -0.9000000000000000222 
	0.25 -0.06428265487263450095 -0.9000000000000000222 
	0.2631393147384550879 -0.1319161693483393571 -0.892498008381554131 
	0.3146412452658083891 -0.2547507473822765434 -0.8654805738275808125 
	0.35293366275786342 -0.3100404439444109927 -0.8462350774519808994 
	0.4401540831658207198 -0.3972608643523682925 -0.8089763604095741023 
	0.495384267961850866 -0.4354142213651531756 -0.7882318380733879248 
	0.6179331824727132272 -0.486798663961524436 -0.7575764922640413346 
	0.6854299658516915805 -0.5 -0.7483314773547883325 
	0.8145700341483084195 -0.5 -0.7483314773547883325 
	0.8820668175272866618 -0.486798663961524436 -0.7575764922640413346 
	1.004615732038149023 -0.4354142213651531201 -0.7882318380733879248 
	1.059845916834179391 -0.3972608643523682925 -0.8089763604095741023 
	1.14706633724213658 -0.3100404439444109927 -0.8462350774519807883 
	1.1853587547341915 -0.2547507473822765989 -0.8654805738275808125 
	1.236860685261544912 -0.1319161693483394404 -0.892498008381554242 
	1.25 -0.06428265487263451483 -0.9000000000000000222 
	1.25 0.06428265487263438993 -0.9000000000000000222 
	1.236860685261544912 0.1319161693483393294 -0.892498008381554131 
	1.1853587547341915 0.2547507473822764879 -0.8654805738275808125 
	1.14706633724213658 0.3100404439444108817 -0.8462350774519807883 
	1.059845916834179169 0.3972608643523681815 -0.8089763604095741023 
	1.004615732038149023 0.4354142213651531756 -0.7882318380733880359 
	0.8820668175272864397 0.4867986639615243805 -0.7575764922640415566 
	0.8145700341483083085 0.499999999999999889 -0.7483314773547883325 
	0.75 0.4999999999999999445 -0.7483314773547883325 
	0.0003089275746394433073 
	
	cone 0.75 -5.551115123125782702e-17 0 0 0 -1 0.5 0 0 1 I I 0 1 0.5 forward I I I I 
	cone 0 0 0 1 0 0 0 0 -0.9000000000000000222 1 I I 0 1 0.9000000000000000222 forward I I I I 
	nullbs 
	nullbs 
	I I 
	0 
	0 
	0 
	
	0 } I I #
point $-1 -1 $-1 0.75 0.4999999999999999445 -0.6873863542433759077 #
point $-1 -1 $-1 -0.7483314773547898868 -0.409576022144494345 0.2867882181755217474 #
ATTRIB_CUSTOM-attrib $-1 -1 $-1 $-1 $53 @22 generic_tag_attrib_def 3 3 -1 @23 generic_tag_attrib_def  1 1 @1 2 0 2 361 440 0 #
loop $-1 -1 $-1 $74 $75 $53 #
plane-surface $-1 -1 $-1 1.5 0 0 1 0 0 0 0 -1 forward_v I I I I #
loop $-1 -1 $-1 $76 $77 $40 #
loop $-1 -1 $-1 $-1 $78 $28 #
coedge $79 -1 $-1 $69 $69 $57 $70 forward $76 0 $-1 #
edge $-1 22 $-1 $80 -3.141592653589793116 $80 3.141592653589793116 $69 $81 forward @7 tangent #
vertex $-1 75 $-1 $59 0 $82 #
ellipse-curve $-1 -1 $-1 0 0 0 -1 -0 -0 0 0 -0.8499999999999999778 1 I I #
point $-1 -1 $-1 0.75 0.4999999999999999445 -0.7483314773547883325 #
loop $-1 -1 $-1 $-1 $83 $53 #
coedge $-1 -1 $-1 $75 $75 $78 $84 forward $65 0 $-1 #
loop $-1 -1 $-1 $-1 $69 $40 #
coedge $-1 -1 $-1 $77 $77 $83 $85 reversed $67 0 $-1 #
coedge $-1 -1 $-1 $78 $78 $75 $84 reversed $68 0 $-1 #
ATTRIB_CUSTOM-attrib $-1 -1 $-1 $-1 $69 @17 sketch_attrib_def 1 1 3 @13 330 0 0 0 1 1 #
vertex $-1 76 $-1 $70 0 $86 #
ellipse-curve $-1 -1 $-1 0 0 0 1 0 0 0 0 -0.9000000000000000222 1 I I #
point $-1 -1 $-1 0 -1.04094977927525014e-16 0.8499999999999999778 #
coedge $-1 -1 $-1 $83 $83 $77 $85 forward $74 0 $-1 #
edge $-1 23 $-1 $87 -3.141592653589793116 $87 3.141592653589793116 $78 $88 forward @7 unknown #
edge $-1 24 $-1 $89 -3.141592653589793116 $89 3.141592653589793116 $77 $90 forward @7 unknown #
point $-1 -1 $-1 0 -1.102182119232617911e-16 0.9000000000000000222 #
vertex $-1 77 $-1 $84 0 $91 #
ellipse-curve $-1 -1 $-1 1.5 0 0 -1 0 0 0 0 -0.8499999999999999778 1 I I #
vertex $-1 78 $-1 $85 0 $92 #
ellipse-curve $-1 -1 $-1 1.5 0 0 1 0 0 0 0 -0.9000000000000000222 1 I I #
point $-1 -1 $-1 1.5 -1.04094977927525014e-16 0.8499999999999999778 #
point $-1 -1 $-1 1.5 -1.102182119232617911e-16 0.9000000000000000222 #
End-of-ASM-data 