22700 0 2 4           
16 Autodesk Neutron 20 ASM 227.1.1.65535 NT 24 Wed Aug 25 07:50:30 2021 
10 9.999999999999999547e-07 1.000000000000000036e-10 
asmheader $-1 -1 @13 227.1.1.65535 #
body $2 19 $-1 $3 $-1 $4 #
ATTRIB_CUSTOM-attrib $-1 -1 $5 $-1 $1 @20 Timestamp_attrib_def 1 1455555728001 #
lump $-1 -1 $-1 $-1 $6 $1 #
transform $-1 -1 1 0 0 0 1 0 0 0 1 0 0 0 1 no_rotate no_reflect no_shear #
ATTRIB_CUSTOM-attrib $7 -1 $-1 $2 $1 @22 generic_tag_attrib_def 3 3 -1 @23 generic_tag_attrib_def  1 3 @3 425 1 0 0 #
shell $-1 -1 $-1 $-1 $-1 $8 $-1 $3 #
ATTRIB_CUSTOM-attrib $-1 -1 $-1 $-1 $5 @22 generic_tag_attrib_def 3 3 -1 @23 generic_tag_attrib_def  1 0 @0  0 1 611 0 #
face $9 10 $-1 $10 $11 $6 $-1 $12 reversed single #
ATTRIB_CUSTOM-attrib $13 -1 $-1 $-1 $8 @22 generic_tag_attrib_def 3 3 -1 @23 generic_tag_attrib_def  1 1 @1 4 0 3 421 425 -610 0 #
face $14 11 $-1 $15 $16 $6 $-1 $17 reversed single #
loop $-1 -1 $-1 $18 $19 $8 #
cone-surface $-1 -1 $-1 -4.450000000000001066 -184.5000000000000284 5.44967825620572277e-16 -2.722369203307612484e-104 1 -7.006492321624088466e-46 13.3500000000000032 0 -5.187136044092925995e-58 1 I I 0 -1 13.3500000000000032 forward I I I I #
ATTRIB_CUSTOM-attrib $-1 -1 $-1 $-1 $9 @22 generic_tag_attrib_def 3 3 -1 @23 generic_tag_attrib_def  1 0 @0  0 1 611 0 #
ATTRIB_CUSTOM-attrib $20 -1 $-1 $-1 $10 @22 generic_tag_attrib_def 3 3 -1 @23 generic_tag_attrib_def  1 1 @1 2 0 3 421 425 -610 0 #
face $21 12 $-1 $22 $23 $6 $-1 $24 forward single #
loop $-1 -1 $-1 $25 $26 $10 #
plane-surface $-1 -1 $-1 -4.450000000000001066 -183.7500000000000284 5.44967825620572277e-16 -2.722369203307612484e-104 1 -7.006492321624088466e-46 0.75 0 -2.914121373085912765e-59 forward_v I I I I #
loop $-1 -1 $-1 $-1 $27 $8 #
coedge $-1 -1 $-1 $19 $19 $26 $28 forward $11 0 $-1 #
ATTRIB_CUSTOM-attrib $-1 -1 $-1 $-1 $14 @22 generic_tag_attrib_def 3 3 -1 @23 generic_tag_attrib_def  1 0 @0  0 1 611 0 #
ATTRIB_CUSTOM-attrib $29 -1 $-1 $-1 $15 @22 generic_tag_attrib_def 3 3 -1 @23 generic_tag_attrib_def  1 1 @1 3 0 3 419 425 -610 0 #
face $30 13 $-1 $31 $32 $6 $-1 $33 forward single #
loop $-1 -1 $-1 $34 $35 $15 #
cone-surface $-1 -1 $-1 -4.450000000000001066 -184.5000000000000284 5.44967825620572277e-16 -2.722369203307612484e-104 1 -7.006492321624088466e-46 13.5 0 -5.245418471554642977e-58 1 I I 0 1 13.5 forward I I I I #
loop $-1 -1 $-1 $-1 $36 $10 #
coedge $-1 -1 $-1 $26 $26 $19 $28 reversed $16 0 $-1 #
coedge $37 -1 $-1 $27 $27 $38 $39 reversed $18 0 $-1 #
edge $-1 15 $-1 $40 -3.141592653589793116 $40 3.141592653589793116 $19 $41 forward @7 unknown #
ATTRIB_CUSTOM-attrib $-1 -1 $-1 $-1 $21 @22 generic_tag_attrib_def 3 3 -1 @23 generic_tag_attrib_def  1 0 @0  0 1 611 0 #
ATTRIB_CUSTOM-attrib $42 -1 $-1 $-1 $22 @22 generic_tag_attrib_def 3 3 -1 @23 generic_tag_attrib_def  1 1 @1 2 0 3 419 425 -610 0 #
face $43 14 $-1 $-1 $44 $6 $-1 $45 reversed single #
loop $-1 -1 $-1 $-1 $46 $22 #
plane-surface $-1 -1 $-1 -4.450000000000001066 -183.0000000000000284 5.44967825620572277e-16 -2.722369203307612484e-104 1 -7.006492321624088466e-46 0.75 0 -2.914121373085912765e-59 forward_v I I I I #
loop $-1 -1 $-1 $-1 $47 $15 #
coedge $-1 -1 $-1 $35 $35 $36 $48 forward $23 0 $-1 #
coedge $-1 -1 $-1 $36 $36 $35 $48 reversed $25 0 $-1 #
ATTRIB_CUSTOM-attrib $-1 -1 $-1 $-1 $27 @17 sketch_attrib_def 1 1 3 @13 435 0 0 0 1 1 #
coedge $-1 -1 $-1 $38 $38 $27 $39 forward $44 0 $-1 #
edge $-1 16 $-1 $49 -3.141592653589793116 $49 3.141592653589793116 $38 $50 forward @7 unknown #
vertex $-1 24 $-1 $28 0 $51 #
ellipse-curve $-1 -1 $-1 -4.450000000000001066 -183.7500000000000284 5.44967825620572277e-16 2.722369203307612484e-104 -1 7.006492321624088466e-46 13.3500000000000032 0 -5.187136044092925995e-58 1 I I #
ATTRIB_CUSTOM-attrib $-1 -1 $-1 $-1 $30 @22 generic_tag_attrib_def 3 3 -1 @23 generic_tag_attrib_def  1 0 @0  0 1 611 0 #
ATTRIB_CUSTOM-attrib $52 -1 $-1 $-1 $31 @22 generic_tag_attrib_def 3 3 -1 @23 generic_tag_attrib_def  1 1 @1 1 0 3 419 425 -610 0 #
loop $-1 -1 $-1 $-1 $38 $31 #
plane-surface $-1 -1 $-1 -4.450000000000001066 -184.5000000000000284 5.44967825620572277e-16 -2.722369203307612484e-104 1 -7.006492321624088466e-46 0.75 0 -2.914121373085912765e-59 forward_v I I I I #
coedge $-1 -1 $-1 $46 $46 $47 $53 forward $32 0 $-1 #
coedge $-1 -1 $-1 $47 $47 $46 $53 reversed $34 0 $-1 #
edge $-1 17 $-1 $54 -3.141592653589793116 $54 3.141592653589793116 $35 $55 forward @7 unknown #
vertex $-1 25 $-1 $39 0 $56 #
ellipse-curve $-1 -1 $-1 -4.450000000000001066 -184.5000000000000284 5.44967825620572277e-16 2.722369203307612484e-104 -1 7.006492321624088466e-46 13.3500000000000032 0 -5.187136044092925995e-58 1 I I #
point $-1 -1 $-1 -17.80000000000000426 -183.7500000000000284 2.179871302482289108e-15 #
ATTRIB_CUSTOM-attrib $-1 -1 $-1 $-1 $43 @22 generic_tag_attrib_def 3 3 -1 @23 generic_tag_attrib_def  1 0 @0  0 1 611 0 #
edge $-1 18 $-1 $57 -3.141592653589793116 $57 3.141592653589793116 $47 $58 forward @7 unknown #
vertex $-1 26 $-1 $48 0 $59 #
ellipse-curve $-1 -1 $-1 -4.450000000000001066 -183.7500000000000284 5.44967825620572277e-16 -2.722369203307612484e-104 1 -7.006492321624088466e-46 13.5 0 -5.245418471554642977e-58 1 I I #
point $-1 -1 $-1 -17.80000000000000426 -184.5000000000000284 2.179871302482289108e-15 #
vertex $-1 27 $-1 $53 2 $60 #
ellipse-curve $-1 -1 $-1 -4.450000000000001066 -183.0000000000000284 5.44967825620572277e-16 -2.722369203307612484e-104 1 -7.006492321624088466e-46 13.5 0 -5.245418471554642977e-58 1 I I #
point $-1 -1 $-1 -17.95000000000000284 -183.7500000000000284 2.198241004469499144e-15 #
point $-1 -1 $-1 -17.95000000000000284 -183.0000000000000284 2.198241004469499144e-15 #
End-of-ASM-data 