22700 0 2 4           
16 Autodesk Neutron 20 ASM 227.1.1.65535 NT 24 Wed Aug 25 07:50:30 2021 
10 9.999999999999999547e-07 1.000000000000000036e-10 
asmheader $-1 -1 @13 227.1.1.65535 #
body $2 22 $-1 $3 $-1 $4 #
ATTRIB_CUSTOM-attrib $-1 -1 $5 $-1 $1 @20 Timestamp_attrib_def 1 1455555284001 #
lump $-1 -1 $-1 $-1 $6 $1 #
transform $-1 -1 1 0 0 0 1 0 0 0 1 0 0 0 1 no_rotate no_reflect no_shear #
ATTRIB_CUSTOM-attrib $-1 -1 $-1 $2 $1 @22 generic_tag_attrib_def 3 3 -1 @23 generic_tag_attrib_def  1 3 @3 430 1 0 0 #
shell $-1 -1 $-1 $-1 $-1 $7 $-1 $3 #
face $8 14 $-1 $9 $10 $6 $-1 $11 reversed single #
ATTRIB_CUSTOM-attrib $-1 -1 $-1 $-1 $7 @22 generic_tag_attrib_def 3 3 -1 @23 generic_tag_attrib_def  2 1 @1 3 0 2 308 430 0 1 @1 3 0 2 309 430 0 #
face $12 15 $-1 $13 $14 $6 $-1 $15 reversed single #
loop $-1 -1 $-1 $16 $17 $7 #
cone-surface $-1 -1 $-1 0 0 0 0 1 0 6 0 0 1 I I 0 1 6 forward I I I I #
ATTRIB_CUSTOM-attrib $18 -1 $-1 $-1 $9 @22 generic_tag_attrib_def 3 3 -1 @23 generic_tag_attrib_def  2 1 @1 4 0 2 305 430 0 1 @1 4 0 2 306 430 0 #
face $19 16 $-1 $20 $21 $6 $-1 $22 reversed single #
loop $-1 -1 $-1 $23 $24 $9 #
plane-surface $-1 -1 $-1 -21.86413844596278722 5.050000000000000711 0 0 -1 0 1 0 0 forward_v I I I I #
loop $-1 -1 $-1 $-1 $25 $7 #
coedge $-1 -1 $-1 $17 $17 $26 $27 reversed $10 0 $-1 #
ATTRIB_CUSTOM-attrib $-1 -1 $-1 $-1 $12 @22 generic_tag_attrib_def 3 3 -1 @23 generic_tag_attrib_def  1 0 @0  0 1 307 0 #
ATTRIB_CUSTOM-attrib $28 -1 $-1 $-1 $13 @22 generic_tag_attrib_def 3 3 -1 @23 generic_tag_attrib_def  1 1 @1 1 0 2 303 430 0 #
face $29 17 $-1 $-1 $30 $6 $-1 $31 forward single #
loop $-1 -1 $-1 $32 $26 $13 #
sphere-surface $-1 -1 $-1 0 17.25 0 17.15000000000000213 1 0 0 0 0 1 forward_v I I I I #
loop $-1 -1 $-1 $-1 $33 $9 #
coedge $-1 -1 $-1 $24 $24 $34 $35 reversed $14 0 $-1 #
coedge $-1 -1 $-1 $25 $25 $36 $37 reversed $16 0 $-1 #
coedge $-1 -1 $-1 $26 $26 $17 $27 forward $21 0 $-1 #
edge $-1 18 $-1 $38 -3.141592653589793116 $38 3.141592653589793116 $26 $39 forward @7 unknown #
ATTRIB_CUSTOM-attrib $-1 -1 $-1 $-1 $19 @22 generic_tag_attrib_def 3 3 -1 @23 generic_tag_attrib_def  1 0 @0  0 1 307 0 #
ATTRIB_CUSTOM-attrib $40 -1 $-1 $-1 $20 @22 generic_tag_attrib_def 3 3 -1 @23 generic_tag_attrib_def  1 1 @1 1 0 2 301 430 0 #
loop $-1 -1 $-1 $41 $36 $20 #
sphere-surface $-1 -1 $-1 0 17.25 0 17.25 1 0 0 0 0 1 forward_v I I I I #
loop $-1 -1 $-1 $-1 $42 $13 #
coedge $-1 -1 $-1 $33 $33 $42 $43 reversed $23 0 $-1 #
coedge $-1 -1 $-1 $34 $34 $24 $35 forward $41 0 $-1 #
edge $-1 20 $-1 $44 -3.141592653589793116 $44 3.141592653589793116 $34 $45 forward @7 unknown #
coedge $-1 -1 $-1 $36 $36 $25 $37 forward $30 0 $-1 #
edge $-1 19 $-1 $46 -3.141592653589793116 $46 3.141592653589793116 $36 $47 forward @7 unknown #
vertex $-1 23 $-1 $27 0 $48 #
ellipse-curve $-1 -1 $-1 0 1.183808789884267298 0 -0 -1 -0 6 0 0 1 I I #
ATTRIB_CUSTOM-attrib $-1 -1 $-1 $-1 $29 @22 generic_tag_attrib_def 3 3 -1 @23 generic_tag_attrib_def  1 0 @0  0 1 307 0 #
loop $-1 -1 $-1 $-1 $34 $20 #
coedge $-1 -1 $-1 $42 $42 $33 $43 forward $32 0 $-1 #
edge $-1 21 $-1 $49 -3.141592653589793116 $49 3.141592653589793116 $42 $50 forward @7 unknown #
vertex $-1 25 $-1 $35 0 $51 #
ellipse-curve $-1 -1 $-1 0 5.050000000000000711 0 0 -1 0 0 0 12.19518347545456294 1 I I #
vertex $-1 24 $-1 $37 0 $52 #
ellipse-curve $-1 -1 $-1 0 1.077106010364133226 0 0 1 0 6 0 0 1 I I #
point $-1 -1 $-1 -6 1.183808789884267298 -7.34788079488411875e-16 #
vertex $-1 26 $-1 $43 0 $53 #
ellipse-curve $-1 -1 $-1 0 5.050000000000000711 0 0 1 0 0 0 12.05331904497678508 1 I I #
point $-1 -1 $-1 1.493479240823012569e-15 5.050000000000000711 -12.19518347545456294 #
point $-1 -1 $-1 -6 1.077106010364133226 7.34788079488411875e-16 #
point $-1 -1 $-1 -1.476105858753265287e-15 5.050000000000000711 -12.05331904497678508 #
End-of-ASM-data 