22700 0 2 4           
16 Autodesk Neutron 20 ASM 227.1.1.65535 NT 24 Wed Aug 25 07:50:34 2021 
10 9.999999999999999547e-07 1.000000000000000036e-10 
asmheader $-1 -1 @13 227.1.1.65535 #
body $2 28 $-1 $3 $-1 $4 #
ATTRIB_CUSTOM-attrib $-1 -1 $5 $-1 $1 @20 Timestamp_attrib_def 1 1455555285001 #
lump $-1 -1 $-1 $-1 $6 $1 #
transform $-1 -1 1 0 0 0 1 0 0 0 1 0 0 0 1 no_rotate no_reflect no_shear #
ATTRIB_CUSTOM-attrib $-1 -1 $-1 $2 $1 @22 generic_tag_attrib_def 3 3 -1 @23 generic_tag_attrib_def  1 3 @3 480 1 0 0 #
shell $-1 -1 $-1 $-1 $-1 $7 $-1 $3 #
face $8 19 $-1 $9 $10 $6 $-1 $11 forward single #
ATTRIB_CUSTOM-attrib $-1 -1 $-1 $-1 $7 @22 generic_tag_attrib_def 3 3 -1 @23 generic_tag_attrib_def  1 1 @1 3 0 2 391 480 0 #
face $12 20 $-1 $13 $14 $6 $-1 $15 forward single #
loop $-1 -1 $-1 $16 $17 $7 #
cone-surface $-1 -1 $-1 0 3.400000000000000355 0 0 -1 0 -0.5 0 0 1 I I -0.07333144303605414194 0.9973076252903363415 0.5 forward I I I I #
ATTRIB_CUSTOM-attrib $-1 -1 $-1 $-1 $9 @22 generic_tag_attrib_def 3 3 -1 @23 generic_tag_attrib_def  2 1 @1 2 0 2 388 480 0 1 @1 2 0 2 391 480 0 #
face $18 21 $-1 $19 $20 $6 $-1 $21 forward single #
loop $-1 -1 $-1 $-1 $22 $9 #
plane-surface $-1 -1 $-1 0 3.400000000000000355 0 0 1 0 1 0 0 forward_v I I I I #
loop $-1 -1 $-1 $-1 $23 $7 #
coedge $-1 -1 $-1 $17 $17 $24 $25 reversed $10 0 $-1 #
ATTRIB_CUSTOM-attrib $-1 -1 $-1 $-1 $13 @22 generic_tag_attrib_def 3 3 -1 @23 generic_tag_attrib_def  1 1 @1 3 0 2 386 480 0 #
face $26 22 $-1 $27 $28 $6 $-1 $29 forward single #
loop $-1 -1 $-1 $30 $31 $13 #
cone-surface $-1 -1 $-1 0 0 0 0 -1 0 0.5 0 0 1 I I 0 1 0.5 forward I I I I #
coedge $-1 -1 $-1 $22 $22 $23 $32 reversed $14 0 $-1 #
coedge $-1 -1 $-1 $23 $23 $22 $32 forward $16 0 $-1 #
coedge $-1 -1 $-1 $24 $24 $17 $25 forward $28 0 $-1 #
edge $-1 24 $-1 $33 -6.283185307179586232 $33 0 $24 $34 forward @7 unknown #
ATTRIB_CUSTOM-attrib $-1 -1 $-1 $-1 $19 @22 generic_tag_attrib_def 3 3 -1 @23 generic_tag_attrib_def  1 1 @1 1 0 2 386 480 0 #
face $35 23 $-1 $-1 $36 $6 $-1 $37 reversed single #
loop $-1 -1 $-1 $38 $24 $19 #
plane-surface $-1 -1 $-1 0 0 0 0 1 0 1 0 0 forward_v I I I I #
loop $-1 -1 $-1 $-1 $39 $13 #
coedge $-1 -1 $-1 $31 $31 $40 $41 reversed $20 0 $-1 #
edge $-1 25 $-1 $42 0 $42 6.283185307179586232 $23 $43 forward @7 unknown #
vertex $-1 29 $-1 $25 0 $44 #
ellipse-curve $-1 -1 $-1 0 0 0 -0 -1 -0 0.25 0 0 1 I I #
ATTRIB_CUSTOM-attrib $-1 -1 $-1 $-1 $27 @22 generic_tag_attrib_def 3 3 -1 @23 generic_tag_attrib_def  1 1 @1 2 0 2 386 480 0 #
loop $-1 -1 $-1 $-1 $40 $27 #
plane-surface $-1 -1 $-1 0 -1 0 0 1 0 1 0 0 forward_v I I I I #
loop $-1 -1 $-1 $-1 $45 $19 #
coedge $46 -1 $-1 $39 $39 $45 $47 reversed $30 0 $-1 #
coedge $-1 -1 $-1 $40 $40 $31 $41 forward $36 0 $-1 #
edge $-1 26 $-1 $48 -3.141592653589793116 $48 3.141592653589793116 $31 $49 forward @7 unknown #
vertex $-1 30 $-1 $32 0 $50 #
ellipse-curve $-1 -1 $-1 0 3.400000000000000355 0 -0 -1 -0 -0.5 0 0 1 I I #
point $-1 -1 $-1 0.25 0 0 #
coedge $51 -1 $-1 $45 $45 $39 $47 forward $38 0 $-1 #
ATTRIB_CUSTOM-attrib $-1 -1 $-1 $-1 $39 @17 sketch_attrib_def 1 1 3 @13 368 0 0 0 1 1 #
edge $-1 27 $-1 $52 -3.141592653589793116 $52 3.141592653589793116 $45 $53 forward @7 unknown #
vertex $-1 31 $-1 $41 2 $54 #
ellipse-curve $-1 -1 $-1 0 -1 0 -0 -1 -0 0.5 0 0 1 I I #
point $-1 -1 $-1 -0.5 3.400000000000000355 0 #
ATTRIB_CUSTOM-attrib $-1 -1 $-1 $-1 $45 @17 sketch_attrib_def 1 1 3 @13 368 0 0 0 1 1 #
vertex $-1 32 $-1 $47 0 $55 #
ellipse-curve $-1 -1 $-1 0 0 0 0 1 0 0.5 0 0 1 I I #
point $-1 -1 $-1 -0.5 -1 6.123233995736766036e-17 #
point $-1 -1 $-1 -0.5 0 6.123233995736766036e-17 #
End-of-ASM-data 