22700 0 2 4           
16 Autodesk Neutron 20 ASM 227.1.1.65535 NT 24 Thu Aug 26 01:27:27 2021 
10 9.999999999999999547e-07 1.000000000000000036e-10 
asmheader $-1 -1 @13 227.1.1.65535 #
body $2 42039 $-1 $3 $-1 $4 #
ATTRIB_CUSTOM-attrib $-1 -1 $5 $-1 $1 @20 Timestamp_attrib_def 1 1534149953587517 #
lump $-1 -1 $-1 $-1 $6 $1 #
transform $-1 -1 1 0 0 0 1 0 0 0 1 0 0 0 1 no_rotate no_reflect no_shear #
ATTRIB_CUSTOM-attrib $7 -1 $-1 $2 $1 @22 generic_tag_attrib_def 3 3 -1 @23 generic_tag_attrib_def  3 3 @3 498 3 0 0 3 @3 500 3 0 0 3 @3 502 3 0 0 #
shell $-1 -1 $-1 $-1 $-1 $8 $-1 $3 #
ATTRIB_CUSTOM-attrib $-1 -1 $-1 $-1 $5 @22 generic_tag_attrib_def 3 3 -1 @23 generic_tag_attrib_def  1 0 @0  0 1 505 0 #
face $9 40039 $-1 $10 $11 $6 $-1 $12 forward single #
ATTRIB_CUSTOM-attrib $-1 -1 $13 $-1 $8 @27 NEUTRON_Material_attrib_def 1 @36 0c774a79-9b96-41bb-8df7-e086f86fa878 #
face $14 40038 $-1 $15 $16 $6 $-1 $17 forward single #
loop $-1 -1 $-1 $18 $19 $8 #
torus-surface $-1 -1 $-1 71.70000000000000284 2.900000000000000355 4.999999999999986677 1 0 -2.220446049250312588e-16 1 0.8000000000000000444 -2.220446049250312588e-16 0 -1 forward_v I I I I #
ATTRIB_CUSTOM-attrib $20 -1 $-1 $9 $8 @22 generic_tag_attrib_def 3 3 -1 @23 generic_tag_attrib_def  1 1 @1 1 0 1 504 0 #
ATTRIB_CUSTOM-attrib $-1 -1 $21 $-1 $10 @27 NEUTRON_Material_attrib_def 1 @36 30accf25-6425-4c08-8155-3cec8d19cb91 #
face $22 40040 $-1 $23 $24 $6 $-1 $25 forward single #
loop $-1 -1 $-1 $26 $27 $10 #
cone-surface $-1 -1 $-1 65.5 2.900000000000000355 4.999999999999988454 -1 0 2.220446049250313081e-16 0 1.800000000000000044 0 1 I I 0 1 1.800000000000000044 forward I I I I #
loop $-1 -1 $-1 $-1 $28 $8 #
coedge $-1 -1 $-1 $19 $19 $29 $30 forward $11 0 $-1 #
ATTRIB_CUSTOM-attrib $-1 -1 $-1 $-1 $13 @22 generic_tag_attrib_def 3 3 -1 @23 generic_tag_attrib_def  1 0 @0  0 1 505 0 #
ATTRIB_CUSTOM-attrib $31 -1 $-1 $14 $10 @22 generic_tag_attrib_def 3 3 -1 @23 generic_tag_attrib_def  1 1 @1 3 0 1 502 0 #
ATTRIB_CUSTOM-attrib $-1 -1 $32 $-1 $15 @27 NEUTRON_Material_attrib_def 1 @36 b2d71daa-525a-43e9-ac6d-12d41ae8a32d #
face $33 40041 $-1 $34 $35 $6 $-1 $36 forward single #
loop $-1 -1 $-1 $-1 $37 $15 #
plane-surface $-1 -1 $-1 72.5 2.900000000000000355 4.999999999999986677 1 0 -2.220446049250312588e-16 -2.220446049250312588e-16 0 -1 forward_v I I I I #
loop $-1 -1 $-1 $-1 $29 $10 #
coedge $-1 -1 $-1 $27 $27 $38 $39 reversed $16 0 $-1 #
coedge $-1 -1 $-1 $28 $28 $37 $40 forward $18 0 $-1 #
coedge $-1 -1 $-1 $29 $29 $19 $30 reversed $26 0 $-1 #
edge $-1 41879 $-1 $41 -3.141592653589793116 $41 3.141592653589793116 $29 $42 forward @7 tangent #
ATTRIB_CUSTOM-attrib $-1 -1 $-1 $-1 $21 @22 generic_tag_attrib_def 3 3 -1 @23 generic_tag_attrib_def  1 0 @0  0 1 505 0 #
ATTRIB_CUSTOM-attrib $43 -1 $-1 $22 $15 @22 generic_tag_attrib_def 3 3 -1 @23 generic_tag_attrib_def  2 1 @1 1 0 1 498 0 1 @1 2 0 1 502 0 #
ATTRIB_CUSTOM-attrib $-1 -1 $44 $-1 $23 @27 NEUTRON_Material_attrib_def 1 @36 046f7a13-5d25-4e10-aac6-21817af76e28 #
face $45 41877 $-1 $46 $47 $6 $-1 $48 forward single #
loop $-1 -1 $-1 $49 $38 $23 #
plane-surface $-1 -1 $-1 58.5 2.900000000000000355 4.99999999999999023 -1 0 2.220446049250313081e-16 0 1 0 forward_v I I I I #
coedge $-1 -1 $-1 $37 $37 $28 $40 reversed $24 0 $-1 #
coedge $-1 -1 $-1 $38 $38 $27 $39 forward $35 0 $-1 #
edge $-1 41881 $-1 $50 0 $50 6.283185307179586232 $38 $51 forward @7 unknown #
edge $-1 41880 $-1 $52 -3.141592653589793116 $52 3.141592653589793116 $37 $53 forward @7 tangent #
vertex $-1 42799 $-1 $30 0 $54 #
ellipse-curve $-1 -1 $-1 71.70000000000000284 2.900000000000000355 4.999999999999986677 1 0 -2.220446049250312588e-16 0 -1.800000000000000044 2.204364238465235329e-16 1 I I #
ATTRIB_CUSTOM-attrib $-1 -1 $-1 $-1 $32 @22 generic_tag_attrib_def 3 3 -1 @23 generic_tag_attrib_def  1 0 @0  0 1 505 0 #
ATTRIB_CUSTOM-attrib $55 -1 $-1 $33 $23 @22 generic_tag_attrib_def 3 3 -1 @23 generic_tag_attrib_def  1 1 @1 1 0 1 502 0 #
ATTRIB_CUSTOM-attrib $56 -1 $-1 $-1 $34 @22 generic_tag_attrib_def 3 3 -1 @23 generic_tag_attrib_def  1 1 @1 1 0 1 500 0 #
face $57 41878 $-1 $-1 $58 $6 $-1 $59 forward single #
loop $-1 -1 $-1 $-1 $60 $34 #
sphere-surface $-1 -1 $-1 12.5 2.900000000000000355 5 1.5 1 0 0 0 0 1 forward_v I I I I #
loop $-1 -1 $-1 $-1 $61 $23 #
vertex $-1 42801 $-1 $39 0 $62 #
ellipse-curve $-1 -1 $-1 58.5 2.900000000000000355 4.99999999999999023 -1 0 2.220446049250313081e-16 0 1.800000000000000044 0 1 I I #
vertex $-1 42800 $-1 $40 0 $63 #
ellipse-curve $-1 -1 $-1 72.5 2.900000000000000355 4.999999999999986677 -1 0 2.220446049250312588e-16 2.719262146893781016e-32 -1 1.224646799147352961e-16 1 I I #
point $-1 -1 $-1 71.70000000000000284 4.700000000000000178 4.999999999999986677 #
ATTRIB_CUSTOM-attrib $-1 -1 $-1 $-1 $44 @22 generic_tag_attrib_def 3 3 -1 @23 generic_tag_attrib_def  1 0 @0  0 1 505 0 #
ATTRIB_CUSTOM-attrib $-1 -1 $-1 $-1 $45 @22 generic_tag_attrib_def 3 3 -1 @23 generic_tag_attrib_def  1 0 @0  0 1 505 0 #
ATTRIB_CUSTOM-attrib $64 -1 $-1 $-1 $46 @22 generic_tag_attrib_def 3 3 -1 @23 generic_tag_attrib_def  1 1 @1 3 0 1 498 0 #
loop $-1 -1 $-1 $65 $66 $46 #
cone-surface $-1 -1 $-1 42.5 2.900000000000000355 4.999999999999993783 1 0 -2.220446049250312588e-16 -3.330669073875468635e-16 0 -1.5 1 I I 0 1 1.5 forward I I I I #
coedge $-1 -1 $-1 $60 $60 $67 $68 forward $47 0 $-1 #
coedge $-1 -1 $-1 $61 $61 $66 $69 reversed $49 0 $-1 #
point $-1 -1 $-1 58.5 4.700000000000000178 4.99999999999999023 #
point $-1 -1 $-1 72.5 3.900000000000000355 4.999999999999986677 #
ATTRIB_CUSTOM-attrib $-1 -1 $-1 $-1 $57 @22 generic_tag_attrib_def 3 3 -1 @23 generic_tag_attrib_def  1 0 @0  0 1 505 0 #
loop $-1 -1 $-1 $-1 $67 $46 #
coedge $-1 -1 $-1 $66 $66 $61 $69 forward $58 0 $-1 #
coedge $-1 -1 $-1 $67 $67 $60 $68 reversed $65 0 $-1 #
edge $-1 41883 $-1 $70 0 $70 6.283185307179586232 $67 $71 forward @7 tangent #
edge $-1 41882 $-1 $72 -3.141592653589793116 $72 3.141592653589793116 $66 $73 forward @7 unknown #
vertex $-1 42803 $-1 $68 0 $74 #
ellipse-curve $-1 -1 $-1 12.5 2.900000000000000355 5 -1 0 2.220446049250312588e-16 -3.330669073875468635e-16 0 -1.5 1 I I #
vertex $-1 42802 $-1 $69 0 $75 #
ellipse-curve $-1 -1 $-1 58.5 2.900000000000000355 4.99999999999999023 -1 0 2.220446049250313081e-16 -3.330669073875468635e-16 0 -1.5 1 I I #
point $-1 -1 $-1 12.5 2.900000000000000355 3.5 #
point $-1 -1 $-1 58.5 2.900000000000000355 6.499999999999989342 #
End-of-ASM-data 