# WaveFront *.obj file
# Vertices: 109
# Triangles : 214

v 7.1700000000000003e+01 4.7000000000000002e+00 4.9999999999999867e+00
v 7.1700000000000003e+01 4.4588457268119903e+00 5.8999999999999861e+00
v 7.1700000000000003e+01 3.8000000000000007e+00 6.5588457268119758e+00
v 7.1700000000000003e+01 2.9000000000000004e+00 6.7999999999999865e+00
v 7.1700000000000003e+01 2.0000000000000004e+00 6.5588457268119766e+00
v 7.1700000000000003e+01 1.3411542731880111e+00 5.8999999999999870e+00
v 7.1700000000000003e+01 1.1000000000000003e+00 4.9999999999999867e+00
v 7.1700000000000003e+01 1.3411542731880106e+00 4.0999999999999872e+00
v 7.1700000000000003e+01 1.9999999999999996e+00 3.4411542731879976e+00
v 7.1700000000000003e+01 2.9000000000000004e+00 3.1999999999999869e+00
v 7.1700000000000003e+01 3.7999999999999994e+00 3.4411542731879963e+00
v 7.1700000000000003e+01 4.4588457268119894e+00 4.0999999999999863e+00
v 7.2500000000000000e+01 3.9000000000000004e+00 4.9999999999999867e+00
v 7.2500000000000000e+01 3.7660254037844392e+00 4.4999999999999867e+00
v 7.2500000000000000e+01 3.4000000000000004e+00 4.1339745962155483e+00
v 7.2500000000000000e+01 2.9000000000000004e+00 3.9999999999999867e+00
v 7.2500000000000000e+01 2.4000000000000004e+00 4.1339745962155483e+00
v 7.2500000000000000e+01 2.0339745962155620e+00 4.4999999999999867e+00
v 7.2500000000000000e+01 1.9000000000000004e+00 4.9999999999999867e+00
v 7.2500000000000000e+01 2.0339745962155615e+00 5.4999999999999867e+00
v 7.2500000000000000e+01 2.3999999999999999e+00 5.8660254037844251e+00
v 7.2500000000000000e+01 2.9000000000000004e+00 5.9999999999999867e+00
v 7.2500000000000000e+01 3.3999999999999999e+00 5.8660254037844259e+00
v 7.2500000000000000e+01 3.7660254037844387e+00 5.4999999999999867e+00
v 7.2100000000000009e+01 2.9000000000000004e+00 6.6928203230275374e+00
v 7.2392820323027550e+01 2.9000000000000004e+00 6.3999999999999861e+00
v 7.2100000000000009e+01 4.3660254037844393e+00 5.8464101615137620e+00
v 7.2392820323027550e+01 4.1124355652982141e+00 5.6999999999999869e+00
v 7.2392820323027550e+01 4.3000000000000007e+00 4.9999999999999867e+00
v 7.2100000000000009e+01 4.5928203230275511e+00 4.9999999999999867e+00
v 7.2100000000000009e+01 3.7464101615137757e+00 6.4660254037844247e+00
v 7.2392820323027550e+01 3.5999999999999996e+00 6.2124355652982013e+00
v 7.2100000000000009e+01 2.0535898384862250e+00 6.4660254037844247e+00
v 7.2392820323027550e+01 2.1999999999999997e+00 6.2124355652982004e+00
v 7.2100000000000009e+01 1.4339745962155619e+00 5.8464101615137620e+00
v 7.2392820323027550e+01 1.6875644347017866e+00 5.6999999999999869e+00
v 7.2100000000000009e+01 1.2071796769724492e+00 4.9999999999999867e+00
v 7.2392820323027550e+01 1.5000000000000004e+00 4.9999999999999867e+00
v 7.2100000000000009e+01 1.4339745962155614e+00 4.1535898384862113e+00
v 7.2392820323027550e+01 1.6875644347017862e+00 4.2999999999999865e+00
v 7.2100000000000009e+01 2.0535898384862241e+00 3.5339745962155482e+00
v 7.2392820323027550e+01 2.1999999999999997e+00 3.7875644347017730e+00
v 7.2100000000000009e+01 2.9000000000000004e+00 3.3071796769724355e+00
v 7.2392820323027550e+01 2.9000000000000004e+00 3.5999999999999868e+00
v 7.2100000000000009e+01 3.7464101615137753e+00 3.5339745962155478e+00
v 7.2392820323027550e+01 3.6000000000000001e+00 3.7875644347017730e+00
v 7.2100000000000009e+01 4.3660254037844393e+00 4.1535898384862113e+00
v 7.2392820323027550e+01 4.1124355652982150e+00 4.2999999999999865e+00
v 5.8500000000000000e+01 4.7000000000000002e+00 4.9999999999999902e+00
v 5.8500000000000000e+01 4.4588457268119894e+00 5.8999999999999915e+00
v 5.8500000000000000e+01 3.7999999999999989e+00 6.5588457268119811e+00
v 5.8500000000000000e+01 2.8999999999999999e+00 6.7999999999999901e+00
v 5.8500000000000000e+01 1.9999999999999996e+00 6.5588457268119793e+00
v 5.8500000000000000e+01 1.3411542731880104e+00 5.8999999999999897e+00
v 5.8500000000000000e+01 1.1000000000000003e+00 4.9999999999999902e+00
v 5.8500000000000000e+01 1.3411542731880111e+00 4.0999999999999899e+00
v 5.8500000000000000e+01 2.0000000000000009e+00 3.4411542731880003e+00
v 5.8500000000000000e+01 2.9000000000000004e+00 3.1999999999999904e+00
v 5.8500000000000000e+01 3.8000000000000007e+00 3.4411542731880007e+00
v 5.8500000000000000e+01 4.4588457268119903e+00 4.0999999999999908e+00
v 5.8500000000000000e+01 2.9000000000000004e+00 6.4999999999999893e+00
v 5.8500000000000000e+01 2.1499999999999999e+00 6.2990381056766482e+00
v 5.8500000000000000e+01 1.6009618943233419e+00 5.7499999999999893e+00
v 5.8500000000000000e+01 1.4000000000000004e+00 4.9999999999999902e+00
v 5.8500000000000000e+01 1.6009618943233426e+00 4.2499999999999893e+00
v 5.8500000000000000e+01 2.1500000000000004e+00 3.7009618943233322e+00
v 5.8500000000000000e+01 2.9000000000000004e+00 3.4999999999999902e+00
v 5.8500000000000000e+01 3.6500000000000008e+00 3.7009618943233322e+00
v 5.8500000000000000e+01 4.1990381056766584e+00 4.2499999999999902e+00
v 5.8500000000000000e+01 4.4000000000000004e+00 4.9999999999999902e+00
v 5.8500000000000000e+01 4.1990381056766584e+00 5.7499999999999902e+00
v 5.8500000000000000e+01 3.6500000000000004e+00 6.2990381056766482e+00
v 1.2500000000000000e+01 2.9000000000000004e+00 3.5000000000000000e+00
v 1.2500000000000000e+01 2.1500000000000004e+00 3.7009618943233420e+00
v 1.2500000000000000e+01 1.6009618943233423e+00 4.2500000000000000e+00
v 1.2500000000000000e+01 1.4000000000000004e+00 5.0000000000000000e+00
v 1.2500000000000000e+01 1.6009618943233423e+00 5.7500000000000000e+00
v 1.2500000000000000e+01 2.1499999999999999e+00 6.2990381056766580e+00
v 1.2500000000000000e+01 2.9000000000000004e+00 6.5000000000000000e+00
v 1.2500000000000000e+01 3.6499999999999999e+00 6.2990381056766580e+00
v 1.2500000000000000e+01 4.1990381056766584e+00 5.7500000000000009e+00
v 1.2500000000000000e+01 4.4000000000000004e+00 5.0000000000000000e+00
v 1.2500000000000000e+01 4.1990381056766584e+00 4.2500000000000009e+00
v 1.2500000000000000e+01 3.6500000000000012e+00 3.7009618943233424e+00
v 1.1750000000000000e+01 2.9000000000000004e+00 6.2990381056766580e+00
v 1.1200961894323342e+01 2.9000000000000004e+00 5.7500000000000000e+00
v 1.1000000000000000e+01 2.9000000000000004e+00 5.0000000000000000e+00
v 1.1200961894323342e+01 2.9000000000000004e+00 4.2500000000000000e+00
v 1.1750000000000000e+01 2.9000000000000004e+00 3.7009618943233420e+00
v 1.2125000000000000e+01 2.2504809471616714e+00 6.2990381056766580e+00
v 1.1850480947161671e+01 1.7750000000000004e+00 5.7500000000000000e+00
v 1.1750000000000000e+01 1.6009618943233423e+00 5.0000000000000000e+00
v 1.1850480947161671e+01 1.7750000000000004e+00 4.2500000000000000e+00
v 1.2125000000000000e+01 2.2504809471616709e+00 3.7009618943233420e+00
v 1.2125000000000000e+01 3.5495190528383302e+00 3.7009618943233420e+00
v 1.1850480947161671e+01 4.0250000000000004e+00 4.2500000000000000e+00
v 1.1750000000000000e+01 4.1990381056766584e+00 5.0000000000000000e+00
v 1.1850480947161671e+01 4.0250000000000004e+00 5.7500000000000000e+00
v 1.2125000000000000e+01 3.5495190528383294e+00 6.2990381056766580e+00
v 1.1850480947161671e+01 3.2750000000000004e+00 6.2990381056766580e+00
v 1.1375000000000000e+01 3.5495190528383298e+00 5.7500000000000000e+00
v 1.1200961894323342e+01 3.6500000000000008e+00 5.0000000000000000e+00
v 1.1375000000000000e+01 3.5495190528383298e+00 4.2500000000000000e+00
v 1.1850480947161671e+01 3.2750000000000008e+00 3.7009618943233420e+00
v 1.1850480947161671e+01 2.5250000000000004e+00 3.7009618943233420e+00
v 1.1375000000000000e+01 2.2504809471616714e+00 4.2500000000000000e+00
v 1.1200961894323342e+01 2.1500000000000004e+00 5.0000000000000000e+00
v 1.1375000000000000e+01 2.2504809471616714e+00 5.7500000000000000e+00
v 1.1850480947161671e+01 2.5250000000000004e+00 6.2990381056766580e+00

vn -1.3877787807814435e-16 8.6602540378443871e-01 4.9999999999999978e-01
vn 4.9999999999999994e-01 7.5000000000000011e-01 4.3301270189221913e-01
vn -1.3596310734468905e-32 1.0000000000000000e+00 -6.1232339957367660e-17
vn 4.9999999999999983e-01 8.6602540378443882e-01 -1.6405106439876096e-16
vn 1.3877787807814467e-16 8.6602540378443837e-01 -5.0000000000000033e-01
vn 4.9999999999999978e-01 7.5000000000000000e-01 -4.3301270189221963e-01
vn 2.4037033579794546e-16 4.9999999999999939e-01 -8.6602540378443904e-01
vn 4.9999999999999967e-01 4.3301270189221908e-01 -7.5000000000000044e-01
vn 2.7755575615628909e-16 -0.0000000000000000e+00 -1.0000000000000000e+00
vn 4.9999999999999967e-01 -0.0000000000000000e+00 -8.6602540378443882e-01
vn 2.4037033579794527e-16 -5.0000000000000033e-01 -8.6602540378443837e-01
vn 4.9999999999999967e-01 -4.3301270189221963e-01 -7.5000000000000011e-01
vn 1.3877787807814444e-16 -8.6602540378443882e-01 -4.9999999999999967e-01
vn 4.9999999999999978e-01 -7.5000000000000022e-01 -4.3301270189221924e-01
vn -1.3596310734468905e-32 -1.0000000000000000e+00 -6.1232339957367660e-17
vn 4.9999999999999983e-01 -8.6602540378443882e-01 -1.6405106439876096e-16
vn -1.3877787807814457e-16 -8.6602540378443860e-01 5.0000000000000022e-01
vn 5.0000000000000000e-01 -7.4999999999999989e-01 4.3301270189221946e-01
vn -2.4037033579794537e-16 -4.9999999999999994e-01 8.6602540378443871e-01
vn 5.0000000000000011e-01 -4.3301270189221930e-01 7.4999999999999989e-01
vn -2.7755575615628909e-16 -1.2246467991473532e-16 1.0000000000000000e+00
vn 5.0000000000000011e-01 -1.0605752387249069e-16 8.6602540378443860e-01
vn -2.7755575615628909e-16 1.2246467991473532e-16 1.0000000000000000e+00
vn 5.0000000000000011e-01 1.0605752387249069e-16 8.6602540378443860e-01
vn -2.4037033579794551e-16 5.0000000000000033e-01 8.6602540378443837e-01
vn 5.0000000000000011e-01 4.3301270189221930e-01 7.4999999999999989e-01
vn 1.0000000000000000e+00 5.3028761936245340e-17 -2.5266077490371505e-16
vn 8.6602540378443871e-01 4.3301270189221930e-01 -2.5000000000000011e-01
vn 1.0000000000000000e+00 6.1232339957367660e-17 -2.2204460492503126e-16
vn 8.6602540378443882e-01 4.9999999999999989e-01 -1.1189013615452456e-16
vn 1.0000000000000000e+00 -1.3926750670211105e-16 -3.0245073740886313e-16
vn 8.6602540378443882e-01 4.3301270189221908e-01 2.4999999999999981e-01
vn 1.0000000000000000e+00 2.5266077490371470e-16 2.1557669428792711e-16
vn 8.6602540378443882e-01 2.4999999999999969e-01 4.3301270189221913e-01
vn 1.0000000000000000e+00 3.4691420382247104e-32 6.1232339957367710e-17
vn 8.6602540378443893e-01 6.1232339957367636e-17 4.9999999999999972e-01
vn 1.0000000000000000e+00 -3.4691420382247104e-32 6.1232339957367710e-17
vn 8.6602540378443893e-01 -6.1232339957367636e-17 4.9999999999999972e-01
vn 1.0000000000000000e+00 -1.4163847244119956e-16 2.3280425649570404e-17
vn 8.6602540378443882e-01 -2.5000000000000011e-01 4.3301270189221891e-01
vn 1.0000000000000000e+00 -2.4532503057460169e-16 -8.0406132483831744e-17
vn 8.6602540378443882e-01 -4.3301270189221908e-01 2.4999999999999981e-01
vn 1.0000000000000000e+00 -6.1232339957367660e-17 -2.2204460492503126e-16
vn 8.6602540378443882e-01 -4.9999999999999989e-01 -1.1189013615452456e-16
vn 1.0000000000000000e+00 3.3156377534046745e-16 -3.0616169978683818e-17
vn 8.6602540378443871e-01 -4.3301270189221930e-01 -2.5000000000000011e-01
vn 1.0000000000000000e+00 3.0245073740886327e-16 3.0181543905379253e-16
vn 8.6602540378443871e-01 -2.5000000000000011e-01 -4.3301270189221930e-01
vn 1.0000000000000000e+00 -0.0000000000000000e+00 1.6081226496766371e-16
vn 8.6602540378443860e-01 -0.0000000000000000e+00 -5.0000000000000011e-01
vn 1.0000000000000000e+00 -3.0245073740886327e-16 3.0181543905379253e-16
vn 8.6602540378443871e-01 2.4999999999999989e-01 -4.3301270189221946e-01
vn 1.1102230246251580e-16 8.6602540378443826e-01 5.0000000000000067e-01
vn 1.1102230246251553e-16 8.6602540378443893e-01 4.9999999999999944e-01
vn 2.7391003653507356e-32 1.0000000000000000e+00 1.2335811384723962e-16
vn -4.9303806576313161e-32 1.0000000000000000e+00 -2.2204460492503096e-16
vn -1.1102230246251557e-16 8.6602540378443893e-01 -4.9999999999999961e-01
vn -1.1102230246251575e-16 8.6602540378443837e-01 -5.0000000000000044e-01
vn -1.9229626863835636e-16 5.0000000000000022e-01 -8.6602540378443849e-01
vn -1.9229626863835648e-16 4.9999999999999933e-01 -8.6602540378443904e-01
vn -2.2204460492503131e-16 6.1232339957367660e-17 -1.0000000000000000e+00
vn -1.9229626863835643e-16 -4.9999999999999978e-01 -8.6602540378443882e-01
vn -1.9229626863835638e-16 -5.0000000000000022e-01 -8.6602540378443860e-01
vn -1.1102230246251564e-16 -8.6602540378443860e-01 -4.9999999999999994e-01
vn -2.7192621468937821e-32 -1.0000000000000000e+00 -1.2246467991473532e-16
vn 2.7192621468937821e-32 -1.0000000000000000e+00 1.2246467991473532e-16
vn 1.1102230246251564e-16 -8.6602540378443860e-01 4.9999999999999994e-01
vn 1.9229626863835631e-16 -5.0000000000000056e-01 8.6602540378443826e-01
vn 1.9229626863835643e-16 -4.9999999999999978e-01 8.6602540378443882e-01
vn 2.2204460492503131e-16 -1.6081226496766366e-16 1.0000000000000000e+00
vn 2.2204460492503131e-16 6.1232339957367660e-17 1.0000000000000000e+00
vn 1.9229626863835648e-16 4.9999999999999911e-01 8.6602540378443904e-01
vn 1.9229626863835636e-16 5.0000000000000022e-01 8.6602540378443849e-01
vn 1.0000000000000000e+00 0.0000000000000000e+00 -2.2204460492503126e-16
vn -1.0000000000000000e+00 0.0000000000000000e+00 2.2204460492503131e-16
vn 0.0000000000000000e+00 0.0000000000000000e+00 -1.0000000000000000e+00
vn 0.0000000000000000e+00 -5.0000000000000000e-01 -8.6602540378443871e-01
vn -2.4999999999999997e-01 -4.3301270189221958e-01 -8.6602540378443860e-01
vn 0.0000000000000000e+00 -8.6602540378443871e-01 -5.0000000000000000e-01
vn -4.3301270189221935e-01 -7.5000000000000000e-01 -5.0000000000000000e-01
vn 0.0000000000000000e+00 -1.0000000000000000e+00 0.0000000000000000e+00
vn -5.0000000000000000e-01 -8.6602540378443871e-01 0.0000000000000000e+00
vn 0.0000000000000000e+00 -8.6602540378443871e-01 5.0000000000000000e-01
vn -4.3301270189221935e-01 -7.5000000000000000e-01 5.0000000000000000e-01
vn 0.0000000000000000e+00 -5.0000000000000022e-01 8.6602540378443860e-01
vn -2.5000000000000000e-01 -4.3301270189221935e-01 8.6602540378443871e-01
vn 0.0000000000000000e+00 0.0000000000000000e+00 1.0000000000000000e+00
vn 0.0000000000000000e+00 4.9999999999999978e-01 8.6602540378443882e-01
vn -2.5000000000000000e-01 4.3301270189221935e-01 8.6602540378443871e-01
vn 0.0000000000000000e+00 8.6602540378443837e-01 5.0000000000000044e-01
vn -4.3301270189221935e-01 7.5000000000000000e-01 5.0000000000000000e-01
vn 0.0000000000000000e+00 1.0000000000000000e+00 0.0000000000000000e+00
vn -5.0000000000000000e-01 8.6602540378443871e-01 0.0000000000000000e+00
vn 0.0000000000000000e+00 8.6602540378443893e-01 -4.9999999999999956e-01
vn -4.3301270189221935e-01 7.5000000000000000e-01 -5.0000000000000000e-01
vn 0.0000000000000000e+00 5.0000000000000056e-01 -8.6602540378443837e-01
vn -2.4999999999999997e-01 4.3301270189221985e-01 -8.6602540378443860e-01
vn -4.3301270189221935e-01 -2.5000000000000000e-01 8.6602540378443871e-01
vn -5.0000000000000000e-01 0.0000000000000000e+00 8.6602540378443871e-01
vn -4.3301270189221935e-01 -2.5000000000000000e-01 -8.6602540378443871e-01
vn -4.3301270189221930e-01 2.5000000000000028e-01 -8.6602540378443860e-01
vn -5.0000000000000000e-01 0.0000000000000000e+00 -8.6602540378443871e-01
vn -4.3301270189221935e-01 2.5000000000000000e-01 8.6602540378443871e-01
vn -8.6602540378443871e-01 0.0000000000000000e+00 5.0000000000000000e-01
vn -7.5000000000000000e-01 -4.3301270189221935e-01 5.0000000000000000e-01
vn -7.4999999999999989e-01 4.3301270189221958e-01 4.9999999999999994e-01
vn -8.6602540378443860e-01 5.0000000000000022e-01 0.0000000000000000e+00
vn -1.0000000000000000e+00 0.0000000000000000e+00 0.0000000000000000e+00
vn -7.4999999999999989e-01 4.3301270189221958e-01 -4.9999999999999994e-01
vn -8.6602540378443871e-01 0.0000000000000000e+00 -5.0000000000000000e-01
vn -8.6602540378443871e-01 -5.0000000000000000e-01 0.0000000000000000e+00
vn -7.5000000000000000e-01 -4.3301270189221935e-01 -5.0000000000000000e-01
vn 1.9229626863835633e-16 4.9999999999999989e-01 8.6602540378443871e-01
vn 2.2204460492503121e-16 1.2246467991473532e-16 1.0000000000000000e+00
vn 2.2204460492503121e-16 -1.2246467991473532e-16 1.0000000000000000e+00
vn 1.9229626863835631e-16 -5.0000000000000033e-01 8.6602540378443849e-01
vn 1.1102230246251551e-16 -8.6602540378443893e-01 4.9999999999999939e-01
vn 1.1102230246251557e-16 -8.6602540378443871e-01 4.9999999999999978e-01
vn -6.2900117310782129e-32 -1.0000000000000000e+00 -2.8327694488239898e-16
vn -1.1102230246251573e-16 -8.6602540378443837e-01 -5.0000000000000044e-01
vn -1.1102230246251568e-16 -8.6602540378443849e-01 -5.0000000000000033e-01
vn -1.9229626863835633e-16 -4.9999999999999989e-01 -8.6602540378443871e-01
vn -1.9229626863835633e-16 -4.9999999999999978e-01 -8.6602540378443871e-01
vn -2.2204460492503121e-16 0.0000000000000000e+00 -1.0000000000000000e+00
vn -1.9229626863835631e-16 5.0000000000000022e-01 -8.6602540378443849e-01
vn -1.9229626863835626e-16 5.0000000000000044e-01 -8.6602540378443837e-01
vn -1.1102230246251559e-16 8.6602540378443871e-01 -4.9999999999999978e-01
vn -1.1102230246251557e-16 8.6602540378443882e-01 -4.9999999999999972e-01
vn -6.2900117310782129e-32 1.0000000000000000e+00 -2.8327694488239898e-16
vn 1.1102230246251557e-16 8.6602540378443871e-01 4.9999999999999978e-01
vn 1.1102230246251568e-16 8.6602540378443871e-01 5.0000000000000022e-01

g face 0
f 2//1 27//2 1//3
f 1//3 27//2 30//4
f 1//3 30//4 12//5
f 12//5 30//4 47//6
f 12//5 47//6 11//7
f 11//7 47//6 45//8
f 11//7 45//8 10//9
f 10//9 45//8 43//10
f 10//9 43//10 9//11
f 9//11 43//10 41//12
f 9//11 41//12 8//13
f 8//13 41//12 39//14
f 8//13 39//14 7//15
f 7//15 39//14 37//16
f 7//15 37//16 6//17
f 6//17 37//16 35//18
f 6//17 35//18 5//19
f 5//19 35//18 33//20
f 5//19 33//20 4//21
f 4//21 33//20 25//22
f 4//23 25//24 3//25
f 3//25 25//24 31//26
f 3//25 31//26 2//1
f 2//1 31//26 27//2
f 14//27 48//28 13//29
f 13//29 48//28 29//30
f 13//29 29//30 24//31
f 24//31 29//30 28//32
f 24//31 28//32 23//33
f 23//33 28//32 32//34
f 23//33 32//34 22//35
f 22//35 32//34 26//36
f 22//37 26//38 21//39
f 21//39 26//38 34//40
f 21//39 34//40 20//41
f 20//41 34//40 36//42
f 20//41 36//42 19//43
f 19//43 36//42 38//44
f 19//43 38//44 18//45
f 18//45 38//44 40//46
f 18//45 40//46 17//47
f 17//47 40//46 42//48
f 17//47 42//48 16//49
f 16//49 42//48 44//50
f 16//49 44//50 15//51
f 15//51 44//50 46//52
f 15//51 46//52 14//27
f 14//27 46//52 48//28
f 25//24 26//36 31//26
f 31//26 26//36 32//34
f 31//26 32//34 27//2
f 27//2 32//34 28//32
f 27//2 28//32 30//4
f 30//4 28//32 29//30
f 30//4 29//30 47//6
f 47//6 29//30 48//28
f 47//6 48//28 45//8
f 45//8 48//28 46//52
f 45//8 46//52 43//10
f 43//10 46//52 44//50
f 43//10 44//50 41//12
f 41//12 44//50 42//48
f 41//12 42//48 39//14
f 39//14 42//48 40//46
f 39//14 40//46 37//16
f 37//16 40//46 38//44
f 37//16 38//44 35//18
f 35//18 38//44 36//42
f 35//18 36//42 33//20
f 33//20 36//42 34//40
f 33//20 34//40 25//22
f 25//22 34//40 26//38

g face 1
f 50//53 2//54 49//55
f 49//55 2//54 1//56
f 49//55 1//56 60//57
f 60//57 1//56 12//58
f 60//57 12//58 59//59
f 59//59 12//58 11//60
f 59//59 11//60 58//61
f 58//61 11//60 10//61
f 58//61 10//61 57//62
f 57//62 10//61 9//63
f 57//62 9//63 56//64
f 56//64 9//63 8//64
f 56//64 8//64 55//65
f 55//65 8//64 7//65
f 55//66 7//66 54//67
f 54//67 7//66 6//67
f 54//67 6//67 53//68
f 53//68 6//67 5//69
f 53//68 5//69 52//70
f 52//70 5//69 4//71
f 52//70 4//71 51//72
f 51//72 4//71 3//73
f 51//72 3//73 50//53
f 50//53 3//73 2//54

g face 2
f 13//74 24//74 14//74
f 14//74 24//74 15//74
f 15//74 24//74 23//74
f 15//74 23//74 16//74
f 16//74 23//74 22//74
f 16//74 22//74 17//74
f 17//74 22//74 21//74
f 17//74 21//74 18//74
f 18//74 21//74 20//74
f 18//74 20//74 19//74

g face 3
f 60//75 69//75 49//75
f 49//75 69//75 70//75
f 49//75 70//75 50//75
f 50//75 70//75 71//75
f 50//75 71//75 72//75
f 69//75 60//75 68//75
f 68//75 60//75 59//75
f 68//75 59//75 67//75
f 67//75 59//75 58//75
f 67//75 58//75 57//75
f 67//75 57//75 66//75
f 66//75 57//75 56//75
f 66//75 56//75 65//75
f 65//75 56//75 55//75
f 65//75 55//75 64//75
f 64//75 55//75 63//75
f 63//75 55//75 54//75
f 63//75 54//75 62//75
f 62//75 54//75 53//75
f 62//75 53//75 61//75
f 61//75 53//75 52//75
f 61//75 52//75 51//75
f 61//75 51//75 72//75
f 72//75 51//75 50//75

g face 4
f 73//76 74//77 94//78
f 94//78 74//77 75//79
f 94//78 75//79 93//80
f 93//80 75//79 76//81
f 93//80 76//81 92//82
f 92//82 76//81 77//83
f 92//82 77//83 91//84
f 91//84 77//83 78//85
f 91//84 78//85 90//86
f 90//86 78//85 79//87
f 79//87 80//88 99//89
f 99//89 80//88 81//90
f 99//89 81//90 98//91
f 98//91 81//90 82//92
f 98//91 82//92 97//93
f 97//93 82//92 83//94
f 97//93 83//94 96//95
f 96//95 83//94 84//96
f 96//95 84//96 95//97
f 95//97 84//96 73//76
f 90//86 79//87 109//98
f 109//98 79//87 85//99
f 105//100 73//76 94//78
f 95//97 73//76 104//101
f 104//101 73//76 89//102
f 100//103 79//87 99//89
f 85//99 86//104 109//98
f 109//98 86//104 108//105
f 109//98 108//105 90//86
f 90//86 108//105 91//84
f 79//87 100//103 85//99
f 85//99 100//103 101//106
f 85//99 101//106 86//104
f 86//104 101//106 102//107
f 86//104 102//107 87//108
f 87//108 102//107 103//109
f 87//108 103//109 88//110
f 88//110 103//109 104//101
f 88//110 104//101 89//102
f 86//104 87//108 108//105
f 108//105 87//108 107//111
f 108//105 107//111 91//84
f 91//84 107//111 92//82
f 87//108 88//110 107//111
f 107//111 88//110 106//112
f 107//111 106//112 92//82
f 92//82 106//112 93//80
f 88//110 89//102 106//112
f 106//112 89//102 105//100
f 106//112 105//100 93//80
f 93//80 105//100 94//78
f 89//102 73//76 105//100
f 104//101 103//109 95//97
f 95//97 103//109 96//95
f 103//109 102//107 96//95
f 96//95 102//107 97//93
f 100//103 99//89 98//91
f 102//107 101//106 97//93
f 97//93 101//106 98//91
f 101//106 100//103 98//91

g face 5
f 72//113 80//113 61//114
f 61//114 80//113 79//114
f 61//115 79//115 62//116
f 62//116 79//115 78//116
f 62//116 78//116 63//117
f 63//117 78//116 77//118
f 63//117 77//118 64//15
f 64//15 77//118 76//119
f 64//15 76//119 65//120
f 65//120 76//119 75//121
f 65//120 75//121 66//122
f 66//122 75//121 74//123
f 66//122 74//123 67//124
f 67//124 74//123 73//124
f 67//124 73//124 68//125
f 68//125 73//124 84//126
f 68//125 84//126 69//127
f 69//127 84//126 83//128
f 69//127 83//128 70//3
f 70//3 83//128 82//129
f 70//3 82//129 71//130
f 71//130 82//129 81//131
f 71//130 81//131 72//113
f 72//113 81//131 80//113

g halfedge 0 edge 0
l 1 12 11 10 9 8 7 6 5 4 3 2 1

g halfedge 1 edge 0
l 1 2 3 4 5 6 7 8 9 10 11 12 1

g halfedge 2 edge 1
l 13 24 23 22 21 20 19 18 17 16 15 14 13

g halfedge 3 edge 1
l 13 14 15 16 17 18 19 20 21 22 23 24 13

g halfedge 4 edge 2
l 49 60 59 58 57 56 55 54 53 52 51 50 49

g halfedge 5 edge 2
l 49 50 51 52 53 54 55 56 57 58 59 60 49

g halfedge 6 edge 3
l 61 72 71 70 69 68 67 66 65 64 63 62 61

g halfedge 7 edge 3
l 61 62 63 64 65 66 67 68 69 70 71 72 61

g halfedge 8 edge 4
l 73 84 83 82 81 80 79 78 77 76 75 74 73

g halfedge 9 edge 4
l 73 74 75 76 77 78 79 80 81 82 83 84 73

g vertex 0
p 1

g vertex 1
p 13

g vertex 2
p 49

g vertex 3
p 61

g vertex 4
p 73

# End of file
