22700 0 2 4           
16 Autodesk Neutron 20 ASM 227.1.1.65535 NT 24 Thu Aug 26 01:27:28 2021 
10 9.999999999999999547e-07 1.000000000000000036e-10 
asmheader $-1 -1 @13 227.1.1.65535 #
body $2 42041 $-1 $3 $-1 $4 #
ATTRIB_CUSTOM-attrib $-1 -1 $5 $-1 $1 @20 Timestamp_attrib_def 1 1534150360059003 #
lump $-1 -1 $-1 $-1 $6 $1 #
transform $-1 -1 1 0 0 0 1 0 0 0 1 0 0 0 1 no_rotate no_reflect no_shear #
ATTRIB_CUSTOM-attrib $7 -1 $-1 $2 $1 @22 generic_tag_attrib_def 3 3 -1 @23 generic_tag_attrib_def  1 3 @3 524 1 0 0 #
shell $-1 -1 $-1 $-1 $-1 $8 $-1 $3 #
ATTRIB_CUSTOM-attrib $-1 -1 $-1 $-1 $5 @22 generic_tag_attrib_def 3 3 -1 @23 generic_tag_attrib_def  1 0 @0  0 1 526 0 #
face $9 41953 $-1 $10 $11 $6 $-1 $12 forward single #
ATTRIB_CUSTOM-attrib $13 -1 $-1 $-1 $8 @22 generic_tag_attrib_def 3 3 -1 @23 generic_tag_attrib_def  1 1 @1 1 0 2 515 524 0 #
face $14 40043 $-1 $15 $16 $6 $-1 $17 forward single #
loop $-1 -1 $-1 $18 $19 $8 #
torus-surface $-1 -1 $-1 17.70000000000000284 3 6.469999999999999751 1.224646799147353207e-16 -0 1 0.3242000000000000437 -0.02999999999999999889 1 0 -1.224646799147353207e-16 forward_v I I I I #
ATTRIB_CUSTOM-attrib $-1 -1 $-1 $-1 $9 @22 generic_tag_attrib_def 3 3 -1 @23 generic_tag_attrib_def  1 0 @0  0 1 526 0 #
ATTRIB_CUSTOM-attrib $-1 -1 $20 $-1 $10 @22 FDM_feature_attrib_def 2 2 @16 thread_face_data 3 519 2097152 6 1901 17.70000000000000284 3 6.469999999999999751 17.70000000000000284 3 4.532199999999999562 0 0 0 0 #
face $21 41954 $-1 $22 $23 $6 $-1 $24 forward single #
loop $-1 -1 $-1 $25 $26 $10 #
cone-surface $-1 -1 $-1 17.70000000000000284 3 7 -1.224646799147353207e-16 0 -1 -0.2942000000000000171 0 3.602910883091513046e-17 1 I I 0 1 0.2999999999999999889 forward I I I I #
loop $-1 -1 $-1 $-1 $27 $8 #
coedge $-1 -1 $-1 $19 $19 $28 $29 forward $11 0 $-1 #
ATTRIB_CUSTOM-attrib $30 -1 $-1 $14 $10 @22 generic_tag_attrib_def 3 3 -1 @23 generic_tag_attrib_def  1 1 @1 3 0 3 512 -519 524 0 #
ATTRIB_CUSTOM-attrib $31 -1 $-1 $-1 $15 @22 generic_tag_attrib_def 3 3 -1 @23 generic_tag_attrib_def  1 1 @1 2 0 2 509 524 0 #
face $32 41955 $-1 $33 $34 $6 $-1 $35 reversed single #
loop $-1 -1 $-1 $36 $37 $15 #
plane-surface $-1 -1 $-1 17.70000000000000284 3 6.5 -1.224646799147353207e-16 0 -1 -1 0 1.224646799147353207e-16 forward_v I I I I #
loop $-1 -1 $-1 $-1 $28 $10 #
coedge $-1 -1 $-1 $26 $26 $38 $39 reversed $16 0 $-1 #
coedge $-1 -1 $-1 $27 $27 $40 $41 forward $18 0 $-1 #
coedge $-1 -1 $-1 $28 $28 $19 $29 reversed $25 0 $-1 #
edge $-1 41976 $-1 $42 -3.141592653589793116 $42 3.141592653589793116 $28 $43 forward @7 tangent #
ATTRIB_CUSTOM-attrib $-1 -1 $-1 $-1 $20 @22 generic_tag_attrib_def 3 3 -1 @23 generic_tag_attrib_def  1 0 @0  0 1 526 0 #
ATTRIB_CUSTOM-attrib $-1 -1 $-1 $-1 $21 @22 generic_tag_attrib_def 3 3 -1 @23 generic_tag_attrib_def  1 0 @0  0 1 526 0 #
ATTRIB_CUSTOM-attrib $44 -1 $-1 $-1 $22 @22 generic_tag_attrib_def 3 3 -1 @23 generic_tag_attrib_def  1 1 @1 5 0 2 518 524 0 #
face $45 41956 $-1 $46 $47 $6 $-1 $35 reversed single #
loop $-1 -1 $-1 $-1 $48 $22 #
cone-surface $-1 -1 $-1 17.70000000000000284 3 6.974861162513371404 -1.396271816185862379e-16 0 -1 -0.6064582562299425383 0 7.426971623084845273e-17 1 I I -0.8660254037844385966 -0.500000000000000111 0.6064582562299425383 forward I I I I #
loop $-1 -1 $-1 $-1 $40 $15 #
coedge $-1 -1 $-1 $49 $50 $51 $52 forward $23 0 $-1 #
coedge $-1 -1 $-1 $38 $38 $26 $39 forward $53 0 $-1 #
edge $-1 41978 $-1 $54 -3.141592653589793116 $54 3.141592653589793116 $26 $55 reversed @7 unknown #
coedge $-1 -1 $-1 $40 $40 $27 $41 reversed $36 0 $-1 #
edge $-1 41977 $-1 $56 -3.141592653589793116 $56 3.141592653589793116 $40 $57 forward @7 tangent #
vertex $-1 42832 $-1 $29 0 $58 #
ellipse-curve $-1 -1 $-1 17.70000000000000284 3 6.469999999999999751 1.224646799147353207e-16 -0 1 -0.2942000000000000171 0 3.602910883091513046e-17 1 I I #
ATTRIB_CUSTOM-attrib $-1 -1 $-1 $-1 $32 @22 generic_tag_attrib_def 3 3 -1 @23 generic_tag_attrib_def  1 0 @0  0 1 526 0 #
ATTRIB_CUSTOM-attrib $59 -1 $-1 $-1 $33 @22 generic_tag_attrib_def 3 3 -1 @23 generic_tag_attrib_def  1 1 @1 5 0 2 518 524 0 #
face $60 41957 $-1 $61 $62 $6 $-1 $35 reversed single #
loop $-1 -1 $-1 $-1 $63 $33 #
coedge $-1 -1 $-1 $64 $65 $66 $67 reversed $34 0 $-1 #
coedge $-1 -1 $-1 $68 $37 $69 $70 forward $23 0 $-1 #
coedge $-1 -1 $-1 $37 $71 $72 $73 forward $23 0 $-1 #
coedge $-1 -1 $-1 $74 $75 $37 $52 reversed $76 0 $-1 #
edge $-1 41979 $-1 $77 1.570796326794896558 $78 2.617993877991493967 $37 $79 forward @7 unknown #
loop $-1 -1 $-1 $80 $38 $81 #
vertex $-1 42834 $-1 $39 0 $82 #
ellipse-curve $-1 -1 $-1 17.70000000000000284 3 4.532199999999999562 1.224646799147353207e-16 -0 1 -0.2942000000000000171 0 3.602910883091513046e-17 1 I I #
vertex $-1 42833 $-1 $41 0 $83 #
ellipse-curve $-1 -1 $-1 17.70000000000000284 3 6.5 -1.224646799147353207e-16 0 -1 -0.3242000000000000437 0 3.970304922835719427e-17 1 I I #
point $-1 -1 $-1 17.99420000000000286 3 6.469999999999999751 #
ATTRIB_CUSTOM-attrib $-1 -1 $-1 $-1 $45 @22 generic_tag_attrib_def 3 3 -1 @23 generic_tag_attrib_def  1 0 @0  0 1 526 0 #
ATTRIB_CUSTOM-attrib $84 -1 $-1 $-1 $46 @22 generic_tag_attrib_def 3 3 -1 @23 generic_tag_attrib_def  1 1 @1 5 0 2 518 524 0 #
face $85 41958 $-1 $86 $87 $6 $-1 $35 reversed single #
loop $-1 -1 $-1 $-1 $88 $46 #
coedge $-1 -1 $-1 $89 $90 $91 $92 reversed $47 0 $-1 #
coedge $-1 -1 $-1 $65 $48 $93 $94 reversed $34 0 $-1 #
coedge $-1 -1 $-1 $48 $64 $95 $96 reversed $34 0 $-1 #
coedge $-1 -1 $-1 $97 $98 $48 $67 forward $99 0 $-1 #
edge $-1 41985 $-1 $100 0 $101 0.3297056722068198997 $66 $102 forward @7 unknown #
coedge $-1 -1 $-1 $103 $49 $104 $105 forward $23 0 $-1 #
coedge $-1 -1 $-1 $106 $107 $49 $70 reversed $108 0 $-1 #
edge $-1 41980 $-1 $78 2.617993877991493967 $109 3.665191429188091377 $49 $79 forward @7 unknown #
coedge $-1 -1 $-1 $50 $103 $110 $111 forward $23 0 $-1 #
coedge $-1 -1 $-1 $112 $113 $50 $73 reversed $114 0 $-1 #
edge $-1 41984 $-1 $115 0.5235987755982988157 $77 1.570796326794896558 $50 $79 forward @7 unknown #
coedge $-1 -1 $-1 $75 $51 $116 $117 reversed $76 0 $-1 #
coedge $-1 -1 $-1 $51 $74 $118 $119 reversed $76 0 $-1 #
loop $-1 -1 $-1 $-1 $75 $120 #
vertex $-1 42835 $-1 $121 2 $122 #
vertex $-1 42836 $-1 $52 2 $123 #
ellipse-curve $-1 -1 $-1 17.70000000000000284 3 6.5 -1.224646799147353207e-16 0 -1 -0.5629165124598851655 0 6.89373905171189507e-17 1 I I #
loop $-1 -1 $-1 $-1 $124 $81 #
face $125 41971 $-1 $126 $53 $6 $-1 $127 forward single #
point $-1 -1 $-1 17.99420000000000286 3 4.532199999999999562 #
point $-1 -1 $-1 18.024200000000004 3 6.5 #
ATTRIB_CUSTOM-attrib $-1 -1 $-1 $-1 $60 @22 generic_tag_attrib_def 3 3 -1 @23 generic_tag_attrib_def  1 0 @0  0 1 526 0 #
ATTRIB_CUSTOM-attrib $128 -1 $-1 $-1 $61 @22 generic_tag_attrib_def 3 3 -1 @23 generic_tag_attrib_def  1 1 @1 5 0 2 518 524 0 #
face $129 41959 $-1 $130 $131 $6 $-1 $35 reversed single #
loop $-1 -1 $-1 $-1 $132 $61 #
coedge $-1 -1 $-1 $133 $134 $135 $136 reversed $62 0 $-1 #
coedge $-1 -1 $-1 $90 $63 $137 $138 reversed $47 0 $-1 #
coedge $-1 -1 $-1 $63 $89 $139 $140 reversed $47 0 $-1 #
coedge $-1 -1 $-1 $141 $142 $63 $92 forward $143 0 $-1 #
edge $-1 41988 $-1 $144 0.3297056722068202883 $145 0.6594113444136404656 $91 $146 forward @7 unknown #
coedge $-1 -1 $-1 $147 $139 $64 $94 forward $148 0 $-1 #
edge $-1 41986 $-1 $149 0.3297056722068197887 $100 0.6594113444136396884 $93 $150 forward @7 unknown #
coedge $-1 -1 $-1 $137 $151 $65 $96 forward $152 0 $-1 #
edge $-1 41987 $-1 $101 -0.5235987755982988157 $149 0.5235987755982988157 $95 $153 forward @7 unknown #
coedge $-1 -1 $-1 $154 $66 $155 $156 forward $99 0 $-1 #
coedge $-1 -1 $-1 $66 $157 $147 $158 reversed $99 0 $-1 #
loop $-1 -1 $-1 $-1 $97 $159 #
vertex $-1 42842 $-1 $158 0 $160 #
vertex $-1 42841 $-1 $67 1 $161 #
intcurve-curve $-1 -1 $-1 forward { exact_int_cur 22403 full nurbs 2 open 2 
	0 2 0.3297056722068198997 2 
	17.05000000000000426 3 6.949722325026743697 1 
	17.13708348754011723 3.150833024919770242 7 1.037954849302046068 
	17.21250000000000213 3.281458256229942805 7 1 
	0 
	
	null_surface 
	null_surface 
	nullbs 
	nullbs 
	I I 
	0 
	0 
	0 
	
	0 F 1 F 0 UNEXTENDED UNEXTENDED } I I #
coedge $-1 -1 $-1 $71 $68 $162 $163 forward $23 0 $-1 #
coedge $-1 -1 $-1 $164 $165 $68 $105 reversed $166 0 $-1 #
edge $-1 41981 $-1 $109 -2.617993877991494855 $167 -1.57079632679489678 $68 $79 forward @7 unknown #
coedge $-1 -1 $-1 $107 $69 $168 $169 reversed $108 0 $-1 #
coedge $-1 -1 $-1 $69 $106 $170 $171 reversed $108 0 $-1 #
loop $-1 -1 $-1 $-1 $107 $172 #
vertex $-1 42837 $-1 $70 2 $173 #
coedge $-1 -1 $-1 $174 $175 $71 $111 reversed $176 0 $-1 #
edge $-1 41983 $-1 $177 -0.5235987755982988157 $115 0.5235987755982988157 $71 $79 forward @7 unknown #
coedge $-1 -1 $-1 $113 $72 $178 $179 reversed $114 0 $-1 #
coedge $-1 -1 $-1 $72 $112 $180 $121 reversed $114 0 $-1 #
loop $-1 -1 $-1 $-1 $112 $181 #
vertex $-1 42840 $-1 $179 2 $182 #
coedge $-1 -1 $-1 $180 $183 $74 $117 forward $184 0 $-1 #
edge $-1 42015 $-1 $185 0 $77 0.3297056722068196777 $116 $186 forward @7 unknown #
coedge $-1 -1 $-1 $187 $168 $75 $119 forward $188 0 $-1 #
edge $-1 42005 $-1 $78 0.3297056722068198442 $185 0.6594113444136396884 $118 $189 forward @7 unknown #
face $190 41965 $-1 $191 $76 $6 $-1 $192 reversed single #
edge $-1 42014 $-1 $77 0.3297056722068196777 $193 0.6594113444136392443 $180 $194 forward @7 unknown #
point $-1 -1 $-1 17.70000000000000284 3.562916512459885165 6.5 #
point $-1 -1 $-1 18.18750000000000355 3.281458256229942805 6.5 #
coedge $-1 -1 $-1 $124 $124 $195 $196 forward $80 0 $-1 #
ATTRIB_CUSTOM-attrib $197 -1 $-1 $-1 $81 @22 generic_tag_attrib_def 3 3 -1 @23 generic_tag_attrib_def  1 1 @1 1 0 2 514 524 0 #
face $198 41972 $-1 $199 $200 $6 $-1 $201 forward single #
cone-surface $-1 -1 $-1 17.70000000000000284 3 4.519000000000000128 -1.224646799147353207e-16 0 -1 -0.2810000000000000275 0 3.441257505604062904e-17 1 I I -0.707106781186549127 0.7071067811865460184 0.2810000000000000275 forward I I I I #
ATTRIB_CUSTOM-attrib $-1 -1 $-1 $-1 $85 @22 generic_tag_attrib_def 3 3 -1 @23 generic_tag_attrib_def  1 0 @0  0 1 526 0 #
ATTRIB_CUSTOM-attrib $202 -1 $-1 $-1 $86 @22 generic_tag_attrib_def 3 3 -1 @23 generic_tag_attrib_def  1 1 @1 5 0 2 518 524 0 #
face $203 41960 $-1 $204 $205 $6 $-1 $35 reversed single #
loop $-1 -1 $-1 $-1 $206 $86 #
coedge $-1 -1 $-1 $155 $207 $208 $209 reversed $87 0 $-1 #
coedge $-1 -1 $-1 $134 $88 $210 $211 reversed $62 0 $-1 #
coedge $-1 -1 $-1 $88 $133 $142 $212 reversed $62 0 $-1 #
coedge $-1 -1 $-1 $213 $214 $88 $136 forward $215 0 $-1 #
edge $-1 41991 $-1 $216 0.3297056722068196777 $217 0.6594113444136392443 $135 $218 forward @7 unknown #
coedge $-1 -1 $-1 $210 $95 $89 $138 forward $152 0 $-1 #
edge $-1 41989 $-1 $149 0.5235987755982988157 $144 1.57079632679489678 $137 $153 forward @7 unknown #
coedge $-1 -1 $-1 $93 $219 $90 $140 forward $148 0 $-1 #
edge $-1 41990 $-1 $145 0 $149 0.3297056722068197887 $139 $220 forward @7 unknown #
coedge $-1 -1 $-1 $221 $91 $219 $222 forward $143 0 $-1 #
coedge $-1 -1 $-1 $91 $223 $134 $212 forward $143 0 $-1 #
loop $-1 -1 $-1 $-1 $142 $224 #
vertex $-1 42845 $-1 $92 0 $225 #
vertex $-1 42844 $-1 $222 0 $226 #
intcurve-curve $-1 -1 $-1 forward { exact_int_cur 22403 full nurbs 2 open 2 
	0.3297056722068202883 2 0.6594113444136404656 2 
	17.70000000000000284 2.437083487540115279 7 1 
	17.54916697508023304 2.437083487540115279 7 1.037954849302044291 
	17.37500000000000355 2.437083487540114835 6.949722325026742809 1 
	0 
	
	null_surface 
	null_surface 
	nullbs 
	nullbs 
	I I 
	0 
	0 
	0 
	
	0 F 1 F 0 UNEXTENDED UNEXTENDED } I I #
coedge $-1 -1 $-1 $227 $93 $98 $158 forward $148 0 $-1 #
loop $-1 -1 $-1 $-1 $93 $199 #
vertex $-1 42843 $-1 $140 1 $228 #
intcurve-curve $-1 -1 $-1 forward { exact_int_cur 22403 full nurbs 2 open 2 
	0.3297056722068197887 2 0.6594113444136396884 2 
	17.21250000000000213 2.718541743770057195 7 1 
	17.13708348754011723 2.849166975080229758 7 1.037954849302036298 
	17.05000000000000426 3 6.949722325026743697 1 
	0 
	
	null_surface 
	null_surface 
	nullbs 
	nullbs 
	I I 
	0 
	0 
	0 
	
	0 F 1 F 0 UNEXTENDED UNEXTENDED } I I #
coedge $-1 -1 $-1 $95 $229 $207 $230 forward $152 0 $-1 #
loop $-1 -1 $-1 $-1 $137 $231 #
ellipse-curve $-1 -1 $-1 17.70000000000000284 3 7 1.224646799147353207e-16 -0 1 -0.5629165124598851655 0 6.89373905171189507e-17 1 I I #
coedge $-1 -1 $-1 $178 $97 $232 $233 forward $99 0 $-1 #
coedge $-1 -1 $-1 $207 $132 $97 $156 reversed $87 0 $-1 #
edge $-1 41995 $-1 $101 0.3297056722068198997 $234 0.6594113444136396884 $97 $235 forward @7 unknown #
coedge $-1 -1 $-1 $98 $178 $175 $236 forward $99 0 $-1 #
edge $-1 42021 $-1 $100 0.05027767497325673351 $237 0.4497223250267432526 $98 $238 forward @7 unknown #
face $239 41974 $-1 $231 $99 $6 $-1 $240 forward single #
point $-1 -1 $-1 17.05000000000000426 3 6.949722325026743697 #
point $-1 -1 $-1 17.21250000000000213 3.281458256229942805 7 #
coedge $-1 -1 $-1 $241 $242 $103 $163 reversed $243 0 $-1 #
edge $-1 41982 $-1 $167 -1.57079632679489678 $177 -0.5235987755982988157 $103 $79 forward @7 unknown #
coedge $-1 -1 $-1 $165 $104 $244 $245 reversed $166 0 $-1 #
coedge $-1 -1 $-1 $104 $164 $246 $247 reversed $166 0 $-1 #
loop $-1 -1 $-1 $-1 $165 $248 #
vertex $-1 42838 $-1 $163 2 $249 #
coedge $-1 -1 $-1 $118 $250 $106 $169 forward $188 0 $-1 #
edge $-1 42004 $-1 $251 0 $78 0.3297056722068198442 $168 $252 forward @7 unknown #
coedge $-1 -1 $-1 $253 $244 $107 $171 forward $215 0 $-1 #
edge $-1 42009 $-1 $109 0.3297056722068195667 $251 0.6594113444136392443 $170 $254 forward @7 unknown #
face $255 41968 $-1 $248 $108 $6 $-1 $192 reversed single #
point $-1 -1 $-1 18.18750000000000355 2.718541743770057639 6.5 #
coedge $-1 -1 $-1 $175 $110 $227 $256 reversed $176 0 $-1 #
coedge $-1 -1 $-1 $110 $174 $157 $236 reversed $176 0 $-1 #
loop $-1 -1 $-1 $-1 $174 $191 #
vertex $-1 42839 $-1 $111 2 $257 #
coedge $-1 -1 $-1 $157 $154 $112 $179 forward $99 0 $-1 #
edge $-1 42013 $-1 $193 0 $115 0.3297056722068196777 $178 $258 forward @7 unknown #
coedge $-1 -1 $-1 $232 $116 $113 $121 forward $184 0 $-1 #
face $259 41964 $-1 $120 $114 $6 $-1 $192 reversed single #
point $-1 -1 $-1 17.21250000000000213 3.281458256229942805 6.5 #
coedge $-1 -1 $-1 $116 $260 $187 $261 forward $184 0 $-1 #
loop $-1 -1 $-1 $-1 $260 $262 #
vertex $-1 42854 $-1 $117 0 $263 #
intcurve-curve $-1 -1 $-1 forward { exact_int_cur 22403 full nurbs 2 open 2 
	0 2 0.3297056722068196777 2 
	18.02500000000000213 3.562916512459885165 6.550277674973256303 1 
	17.85083302491977264 3.562916512459885165 6.5 1.037954849302037186 
	17.70000000000000284 3.562916512459885165 6.5 1 
	0 
	
	null_surface 
	null_surface 
	nullbs 
	nullbs 
	I I 
	0 
	0 
	0 
	
	0 F 1 F 0 UNEXTENDED UNEXTENDED } I I #
coedge $-1 -1 $-1 $264 $118 $183 $261 reversed $188 0 $-1 #
loop $-1 -1 $-1 $-1 $264 $204 #
intcurve-curve $-1 -1 $-1 forward { exact_int_cur 22403 full nurbs 2 open 2 
	0.3297056722068198442 2 0.6594113444136396884 2 
	18.18750000000000355 3.281458256229942805 6.5 1 
	18.11208348754011865 3.412083487540114923 6.5 1.037954849302036298 
	18.02500000000000213 3.562916512459885165 6.550277674973256303 1 
	0 
	
	null_surface 
	null_surface 
	nullbs 
	nullbs 
	I I 
	0 
	0 
	0 
	
	0 F 1 F 0 UNEXTENDED UNEXTENDED } I I #
ATTRIB_CUSTOM-attrib $265 -1 $-1 $-1 $120 @22 generic_tag_attrib_def 3 3 -1 @23 generic_tag_attrib_def  1 1 @1 3 0 2 517 524 0 #
face $266 41966 $-1 $267 $176 $6 $-1 $192 reversed single #
cone-surface $-1 -1 $-1 17.70000000000000284 3 6.525138837486628596 -1.224646799147353207e-16 0 -1 -0.6064582562299425383 0 7.426971623084845273e-17 1 I I 0.8660254037844385966 -0.500000000000000111 0.6064582562299425383 forward I I I I #
vertex $-1 42857 $-1 $121 1 $268 #
intcurve-curve $-1 -1 $-1 forward { exact_int_cur 22403 full nurbs 2 open 2 
	0.3297056722068196777 2 0.6594113444136392443 2 
	17.70000000000000284 3.562916512459885165 6.5 1 
	17.54916697508023304 3.562916512459885165 6.5 1.037954849302045623 
	17.37500000000000355 3.562916512459885165 6.550277674973257191 1 
	0 
	
	null_surface 
	null_surface 
	nullbs 
	nullbs 
	I I 
	0 
	0 
	0 
	
	0 F 1 F 0 UNEXTENDED UNEXTENDED } I I #
coedge $-1 -1 $-1 $195 $195 $124 $196 reversed $200 0 $-1 #
edge $-1 42020 $-1 $269 -3.141592653589793116 $269 3.141592653589793116 $195 $270 forward @7 unknown #
ATTRIB_CUSTOM-attrib $-1 -1 $-1 $-1 $125 @22 generic_tag_attrib_def 3 3 -1 @23 generic_tag_attrib_def  1 0 @0  0 1 526 0 #
ATTRIB_CUSTOM-attrib $271 -1 $-1 $-1 $126 @22 generic_tag_attrib_def 3 3 -1 @23 generic_tag_attrib_def  1 1 @1 2 0 2 512 524 0 #
face $272 41973 $-1 $159 $148 $6 $-1 $273 forward single #
loop $-1 -1 $-1 $-1 $195 $126 #
plane-surface $-1 -1 $-1 17.70000000000000284 3 4.5 -1.224646799147353207e-16 0 -1 -1 0 1.224646799147353207e-16 forward_v I I I I #
ATTRIB_CUSTOM-attrib $-1 -1 $-1 $-1 $129 @22 generic_tag_attrib_def 3 3 -1 @23 generic_tag_attrib_def  1 0 @0  0 1 526 0 #
ATTRIB_CUSTOM-attrib $274 -1 $-1 $-1 $130 @22 generic_tag_attrib_def 3 3 -1 @23 generic_tag_attrib_def  1 1 @1 5 0 2 518 524 0 #
face $275 41961 $-1 $276 $188 $6 $-1 $277 forward single #
loop $-1 -1 $-1 $-1 $278 $130 #
coedge $-1 -1 $-1 $279 $280 $281 $282 reversed $131 0 $-1 #
coedge $-1 -1 $-1 $132 $155 $151 $230 reversed $87 0 $-1 #
coedge $-1 -1 $-1 $260 $232 $132 $209 forward $184 0 $-1 #
edge $-1 41994 $-1 $234 0 $283 0.3297056722068198997 $208 $284 forward @7 unknown #
coedge $-1 -1 $-1 $285 $137 $133 $211 forward $152 0 $-1 #
edge $-1 41992 $-1 $144 1.57079632679489678 $216 2.617993877991494855 $210 $153 forward @7 unknown #
edge $-1 41993 $-1 $217 0 $144 0.3297056722068202883 $142 $286 forward @7 unknown #
coedge $-1 -1 $-1 $244 $135 $223 $287 forward $215 0 $-1 #
coedge $-1 -1 $-1 $135 $253 $280 $288 forward $215 0 $-1 #
loop $-1 -1 $-1 $-1 $214 $276 #
vertex $-1 42847 $-1 $211 1 $289 #
vertex $-1 42846 $-1 $287 0 $290 #
intcurve-curve $-1 -1 $-1 forward { exact_int_cur 22403 full nurbs 2 open 2 
	0.3297056722068196777 2 0.6594113444136392443 2 
	18.18750000000000355 2.718541743770057639 7 1 
	18.11208348754011865 2.587916512459885077 7 1.03795484930202675 
	18.02500000000000213 2.437083487540115279 6.949722325026742809 1 
	0 
	
	null_surface 
	null_surface 
	nullbs 
	nullbs 
	I I 
	0 
	0 
	0 
	
	0 F 1 F 0 UNEXTENDED UNEXTENDED } I I #
coedge $-1 -1 $-1 $139 $291 $141 $222 reversed $148 0 $-1 #
intcurve-curve $-1 -1 $-1 forward { exact_int_cur 22403 full nurbs 2 open 2 
	0 2 0.3297056722068197887 2 
	17.37500000000000355 2.437083487540114835 6.949722325026742809 1 
	17.28791651245988703 2.587916512459885521 7 1.037954849302031635 
	17.21250000000000213 2.718541743770057195 7 1 
	0 
	
	null_surface 
	null_surface 
	nullbs 
	nullbs 
	I I 
	0 
	0 
	0 
	
	0 F 1 F 0 UNEXTENDED UNEXTENDED } I I #
coedge $-1 -1 $-1 $246 $141 $241 $292 forward $143 0 $-1 #
edge $-1 42010 $-1 $145 0.05027767497325674045 $293 0.4497223250267432526 $141 $294 forward @7 unknown #
coedge $-1 -1 $-1 $142 $246 $213 $287 reversed $143 0 $-1 #
face $295 41963 $-1 $181 $143 $6 $-1 $296 forward single #
point $-1 -1 $-1 17.70000000000000284 2.437083487540115279 7 #
point $-1 -1 $-1 17.37500000000000355 2.437083487540115279 6.949722325026743697 #
coedge $-1 -1 $-1 $291 $147 $174 $256 forward $148 0 $-1 #
point $-1 -1 $-1 17.21250000000000213 2.718541743770057195 7 #
coedge $-1 -1 $-1 $151 $285 $297 $298 forward $152 0 $-1 #
edge $-1 41996 $-1 $283 -1.570796326794896558 $101 -0.5235987755982988157 $151 $153 forward @7 unknown #
face $299 41975 $-1 $-1 $152 $6 $-1 $300 reversed single #
coedge $-1 -1 $-1 $208 $180 $154 $233 reversed $184 0 $-1 #
edge $-1 42019 $-1 $234 0.05027767497325674045 $193 0.4497223250267432526 $154 $301 forward @7 unknown #
vertex $-1 42849 $-1 $233 0 $302 #
intcurve-curve $-1 -1 $-1 forward { exact_int_cur 22403 full nurbs 2 open 2 
	0.3297056722068198997 2 0.6594113444136396884 2 
	17.21250000000000213 3.281458256229942805 7 1 
	17.28791651245988703 3.412083487540114923 7 1.037954849302047844 
	17.37500000000000355 3.562916512459885165 6.949722325026743697 1 
	0 
	
	null_surface 
	null_surface 
	nullbs 
	nullbs 
	I I 
	0 
	0 
	0 
	
	0 F 1 F 0 UNEXTENDED UNEXTENDED } I I #
edge $-1 42017 $-1 $115 0.3297056722068196777 $237 0.6594113444136393554 $157 $303 forward @7 unknown #
vertex $-1 42858 $-1 $236 1 $304 #
straight-curve $-1 -1 $-1 17.05000000000000426 3 7 -1.224646799147353207e-16 0 -1 I I #
ATTRIB_CUSTOM-attrib $305 -1 $-1 $-1 $159 @22 generic_tag_attrib_def 3 3 -1 @23 generic_tag_attrib_def  1 1 @1 3 0 2 509 524 0 #
plane-surface $-1 -1 $-1 17.05000000000000426 3 7 -0.8660254037844387076 0.5 1.060575238724906915e-16 0.5 0.8660254037844387076 -6.123233995736766036e-17 forward_v I I I I #
coedge $-1 -1 $-1 $242 $162 $221 $292 reversed $243 0 $-1 #
coedge $-1 -1 $-1 $162 $241 $291 $306 reversed $243 0 $-1 #
loop $-1 -1 $-1 $-1 $241 $267 #
coedge $-1 -1 $-1 $170 $213 $164 $245 forward $215 0 $-1 #
edge $-1 42008 $-1 $307 0 $109 0.3297056722068195667 $244 $308 forward @7 unknown #
coedge $-1 -1 $-1 $223 $221 $165 $247 forward $143 0 $-1 #
edge $-1 42012 $-1 $167 0.3297056722068200108 $307 0.6594113444136400215 $246 $309 forward @7 unknown #
face $310 41969 $-1 $262 $166 $6 $-1 $192 reversed single #
point $-1 -1 $-1 17.70000000000000284 2.437083487540115279 6.5 #
coedge $-1 -1 $-1 $168 $281 $253 $311 forward $188 0 $-1 #
vertex $-1 42853 $-1 $169 0 $312 #
intcurve-curve $-1 -1 $-1 forward { exact_int_cur 22403 full nurbs 2 open 2 
	0 2 0.3297056722068198442 2 
	18.35000000000000142 3.000000000000000444 6.550277674973256303 1 
	18.26291651245988845 3.150833024919770686 6.5 1.037954849302040961 
	18.18750000000000355 3.281458256229942805 6.5 1 
	0 
	
	null_surface 
	null_surface 
	nullbs 
	nullbs 
	I I 
	0 
	0 
	0 
	
	0 F 1 F 0 UNEXTENDED UNEXTENDED } I I #
coedge $-1 -1 $-1 $214 $170 $250 $311 reversed $215 0 $-1 #
intcurve-curve $-1 -1 $-1 forward { exact_int_cur 22403 full nurbs 2 open 2 
	0.3297056722068195667 2 0.6594113444136392443 2 
	18.18750000000000355 2.718541743770057639 6.5 1 
	18.26291651245988845 2.849166975080229758 6.5 1.037954849302036742 
	18.35000000000000142 3 6.550277674973256303 1 
	0 
	
	null_surface 
	null_surface 
	nullbs 
	nullbs 
	I I 
	0 
	0 
	0 
	
	0 F 1 F 0 UNEXTENDED UNEXTENDED } I I #
ATTRIB_CUSTOM-attrib $313 -1 $-1 $-1 $172 @22 generic_tag_attrib_def 3 3 -1 @23 generic_tag_attrib_def  1 1 @1 3 0 2 517 524 0 #
edge $-1 42016 $-1 $237 0 $177 0.3297056722068198997 $227 $314 forward @7 unknown #
point $-1 -1 $-1 17.21250000000000213 2.718541743770057195 6.5 #
intcurve-curve $-1 -1 $-1 forward { exact_int_cur 22403 full nurbs 2 open 2 
	0 2 0.3297056722068196777 2 
	17.37500000000000355 3.562916512459884721 6.550277674973257191 1 
	17.28791651245988703 3.412083487540114923 6.5 1.037954849302028082 
	17.21250000000000213 3.281458256229942805 6.5 1 
	0 
	
	null_surface 
	null_surface 
	nullbs 
	nullbs 
	I I 
	0 
	0 
	0 
	
	0 F 1 F 0 UNEXTENDED UNEXTENDED } I I #
ATTRIB_CUSTOM-attrib $315 -1 $-1 $-1 $181 @22 generic_tag_attrib_def 3 3 -1 @23 generic_tag_attrib_def  1 1 @1 3 0 2 517 524 0 #
coedge $-1 -1 $-1 $183 $208 $278 $316 forward $184 0 $-1 #
edge $-1 42006 $-1 $317 0.05027767497325675433 $185 0.4497223250267432526 $183 $318 forward @7 unknown #
face $319 41970 $-1 $81 $184 $6 $-1 $320 forward single #
point $-1 -1 $-1 18.02500000000000213 3.562916512459885165 6.550277674973256303 #
coedge $-1 -1 $-1 $281 $187 $321 $322 forward $188 0 $-1 #
ATTRIB_CUSTOM-attrib $-1 -1 $-1 $-1 $190 @22 generic_tag_attrib_def 3 3 -1 @23 generic_tag_attrib_def  1 0 @0  0 1 526 0 #
ATTRIB_CUSTOM-attrib $323 -1 $-1 $-1 $191 @22 generic_tag_attrib_def 3 3 -1 @23 generic_tag_attrib_def  1 1 @1 3 0 2 517 524 0 #
face $324 41967 $-1 $172 $243 $6 $-1 $192 reversed single #
point $-1 -1 $-1 17.37500000000000355 3.562916512459885165 6.550277674973257191 #
vertex $-1 42859 $-1 $196 0 $325 #
ellipse-curve $-1 -1 $-1 17.70000000000000284 3 4.5 1.224646799147353207e-16 -0 1 -0.2620000000000000107 0 3.208574613766065694e-17 1 I I #
ATTRIB_CUSTOM-attrib $-1 -1 $-1 $-1 $198 @22 generic_tag_attrib_def 3 3 -1 @23 generic_tag_attrib_def  1 0 @0  0 1 526 0 #
ATTRIB_CUSTOM-attrib $326 -1 $-1 $-1 $199 @22 generic_tag_attrib_def 3 3 -1 @23 generic_tag_attrib_def  1 1 @1 8 0 2 509 524 0 #
plane-surface $-1 -1 $-1 17.37500000000000355 2.437083487540114835 7 -0.8660254037844387076 -0.5 1.060575238724906915e-16 -0.5 0.8660254037844387076 6.123233995736766036e-17 forward_v I I I I #
ATTRIB_CUSTOM-attrib $-1 -1 $-1 $-1 $203 @22 generic_tag_attrib_def 3 3 -1 @23 generic_tag_attrib_def  1 0 @0  0 1 526 0 #
ATTRIB_CUSTOM-attrib $327 -1 $-1 $-1 $204 @22 generic_tag_attrib_def 3 3 -1 @23 generic_tag_attrib_def  1 1 @1 5 0 2 509 524 0 #
face $328 41962 $-1 $224 $215 $6 $-1 $329 forward single #
plane-surface $-1 -1 $-1 18.02500000000000213 3.562916512459885165 7 0.8660254037844385966 0.5000000000000003331 -1.060575238724906792e-16 0.5000000000000003331 -0.8660254037844385966 -6.123233995736769734e-17 forward_v I I I I #
coedge $-1 -1 $-1 $297 $321 $260 $316 reversed $205 0 $-1 #
coedge $-1 -1 $-1 $280 $206 $285 $330 reversed $131 0 $-1 #
coedge $-1 -1 $-1 $206 $279 $214 $288 reversed $131 0 $-1 #
coedge $-1 -1 $-1 $250 $264 $206 $282 forward $188 0 $-1 #
edge $-1 41997 $-1 $331 0.3297056722068197887 $332 0.6594113444136395774 $281 $333 forward @7 unknown #
vertex $-1 42848 $-1 $230 0 $334 #
intcurve-curve $-1 -1 $-1 forward { exact_int_cur 22403 full nurbs 2 open 2 
	0 2 0.3297056722068198997 2 
	17.37500000000000355 3.562916512459885165 6.949722325026743697 1 
	17.54916697508023304 3.562916512459885165 7 1.037954849302043181 
	17.70000000000000284 3.562916512459885165 7 1 
	0 
	
	null_surface 
	null_surface 
	nullbs 
	nullbs 
	I I 
	0 
	0 
	0 
	
	0 F 1 F 0 UNEXTENDED UNEXTENDED } I I #
coedge $-1 -1 $-1 $229 $210 $279 $330 forward $152 0 $-1 #
intcurve-curve $-1 -1 $-1 forward { exact_int_cur 22403 full nurbs 2 open 2 
	0 2 0.3297056722068202883 2 
	18.02500000000000213 2.437083487540115279 6.949722325026742809 1 
	17.85083302491977264 2.437083487540115279 7 1.037954849302052507 
	17.70000000000000284 2.437083487540115279 7 1 
	0 
	
	null_surface 
	null_surface 
	nullbs 
	nullbs 
	I I 
	0 
	0 
	0 
	
	0 F 1 F 0 UNEXTENDED UNEXTENDED } I I #
edge $-1 42007 $-1 $217 0.05027767497325676127 $307 0.4497223250267432526 $213 $335 forward @7 unknown #
edge $-1 41999 $-1 $332 0 $216 0.3297056722068196777 $214 $336 forward @7 unknown #
point $-1 -1 $-1 18.18750000000000355 2.718541743770057639 7 #
point $-1 -1 $-1 18.02500000000000213 2.437083487540115279 6.949722325026742809 #
coedge $-1 -1 $-1 $219 $227 $242 $306 forward $148 0 $-1 #
edge $-1 42011 $-1 $293 0 $167 0.3297056722068200108 $221 $337 forward @7 unknown #
vertex $-1 42856 $-1 $306 1 $338 #
straight-curve $-1 -1 $-1 17.37500000000000355 2.437083487540114835 7 -1.224646799147353207e-16 0 -1 I I #
ATTRIB_CUSTOM-attrib $339 -1 $-1 $-1 $224 @22 generic_tag_attrib_def 3 3 -1 @23 generic_tag_attrib_def  1 1 @1 7 0 2 509 524 0 #
plane-surface $-1 -1 $-1 18.02500000000000213 2.437083487540115279 7 1.70803542250023994e-16 -1 -2.091740112995215956e-32 -1 -1.70803542250023994e-16 1.224646799147353207e-16 forward_v I I I I #
coedge $-1 -1 $-1 $321 $278 $229 $298 reversed $205 0 $-1 #
edge $-1 42001 $-1 $331 -2.617993877991493967 $283 -1.570796326794896558 $229 $153 forward @7 unknown #
ATTRIB_CUSTOM-attrib $340 -1 $-1 $-1 $231 @22 generic_tag_attrib_def 3 3 -1 @23 generic_tag_attrib_def  2 1 @1 1 0 2 509 524 0 1 @1 1 0 2 512 524 0 #
plane-surface $-1 -1 $-1 17.70000000000000284 3 7 -1.224646799147353207e-16 0 -1 -1 0 1.224646799147353207e-16 forward_v I I I I #
straight-curve $-1 -1 $-1 17.37500000000000355 3.562916512459885165 7 -1.224646799147353207e-16 0 -1 I I #
point $-1 -1 $-1 17.37500000000000355 3.562916512459885165 6.949722325026743697 #
intcurve-curve $-1 -1 $-1 forward { exact_int_cur 22403 full nurbs 2 open 2 
	0.3297056722068196777 2 0.6594113444136393554 2 
	17.21250000000000213 3.281458256229942805 6.5 1 
	17.13708348754011723 3.150833024919770242 6.5 1.037954849302035853 
	17.05000000000000426 3.000000000000000444 6.550277674973257191 1 
	0 
	
	null_surface 
	null_surface 
	nullbs 
	nullbs 
	I I 
	0 
	0 
	0 
	
	0 F 1 F 0 UNEXTENDED UNEXTENDED } I I #
point $-1 -1 $-1 17.05000000000000426 3 6.550277674973257191 #
ATTRIB_CUSTOM-attrib $-1 -1 $-1 $-1 $239 @22 generic_tag_attrib_def 3 3 -1 @23 generic_tag_attrib_def  1 0 @0  0 1 526 0 #
edge $-1 42018 $-1 $177 0.3297056722068198997 $293 0.6594113444136396884 $291 $341 forward @7 unknown #
vertex $-1 42855 $-1 $245 0 $342 #
intcurve-curve $-1 -1 $-1 forward { exact_int_cur 22403 full nurbs 2 open 2 
	0 2 0.3297056722068195667 2 
	18.02500000000000213 2.437083487540115279 6.550277674973256303 1 
	18.11208348754011865 2.587916512459885077 6.5 1.037954849302036298 
	18.18750000000000355 2.718541743770057639 6.5 1 
	0 
	
	null_surface 
	null_surface 
	nullbs 
	nullbs 
	I I 
	0 
	0 
	0 
	
	0 F 1 F 0 UNEXTENDED UNEXTENDED } I I #
intcurve-curve $-1 -1 $-1 forward { exact_int_cur 22403 full nurbs 2 open 2 
	0.3297056722068200108 2 0.6594113444136400215 2 
	17.70000000000000284 2.437083487540115279 6.5 1 
	17.85083302491977264 2.437083487540115279 6.5 1.037954849302027638 
	18.02500000000000213 2.437083487540115279 6.550277674973256303 1 
	0 
	
	null_surface 
	null_surface 
	nullbs 
	nullbs 
	I I 
	0 
	0 
	0 
	
	0 F 1 F 0 UNEXTENDED UNEXTENDED } I I #
ATTRIB_CUSTOM-attrib $343 -1 $-1 $-1 $248 @22 generic_tag_attrib_def 3 3 -1 @23 generic_tag_attrib_def  1 1 @1 3 0 2 517 524 0 #
edge $-1 42003 $-1 $332 0.05027767497325676127 $251 0.4497223250267432526 $250 $344 forward @7 unknown #
point $-1 -1 $-1 18.35000000000000142 3 6.550277674973256303 #
ATTRIB_CUSTOM-attrib $-1 -1 $-1 $-1 $255 @22 generic_tag_attrib_def 3 3 -1 @23 generic_tag_attrib_def  1 0 @0  0 1 526 0 #
intcurve-curve $-1 -1 $-1 forward { exact_int_cur 22403 full nurbs 2 open 2 
	0 2 0.3297056722068198997 2 
	17.05000000000000426 3 6.550277674973257191 1 
	17.13708348754011723 2.849166975080229758 6.5 1.037954849302033189 
	17.21250000000000213 2.718541743770057195 6.5 1 
	0 
	
	null_surface 
	null_surface 
	nullbs 
	nullbs 
	I I 
	0 
	0 
	0 
	
	0 F 1 F 0 UNEXTENDED UNEXTENDED } I I #
ATTRIB_CUSTOM-attrib $-1 -1 $-1 $-1 $259 @22 generic_tag_attrib_def 3 3 -1 @23 generic_tag_attrib_def  1 0 @0  0 1 526 0 #
edge $-1 42000 $-1 $283 0.3297056722068198997 $317 0.6594113444136397995 $260 $345 forward @7 unknown #
vertex $-1 42852 $-1 $261 0 $346 #
straight-curve $-1 -1 $-1 18.02500000000000213 3.562916512459885165 7 -1.224646799147353207e-16 0 -1 I I #
ATTRIB_CUSTOM-attrib $347 -1 $-1 $-1 $262 @22 generic_tag_attrib_def 3 3 -1 @23 generic_tag_attrib_def  1 1 @1 4 0 2 509 524 0 #
plane-surface $-1 -1 $-1 17.37500000000000355 3.562916512459885165 7 -1.708035422500241173e-16 1 2.091740112995217324e-32 1 1.708035422500241173e-16 -1.224646799147353207e-16 forward_v I I I I #
coedge $-1 -1 $-1 $278 $297 $264 $322 reversed $205 0 $-1 #
edge $-1 42002 $-1 $317 0 $331 0.3297056722068197887 $264 $348 forward @7 unknown #
ATTRIB_CUSTOM-attrib $-1 -1 $-1 $-1 $266 @22 generic_tag_attrib_def 3 3 -1 @23 generic_tag_attrib_def  1 0 @0  0 1 526 0 #
ATTRIB_CUSTOM-attrib $349 -1 $-1 $-1 $267 @22 generic_tag_attrib_def 3 3 -1 @23 generic_tag_attrib_def  1 1 @1 3 0 2 517 524 0 #
point $-1 -1 $-1 17.9620000000000033 3 4.5 #
ATTRIB_CUSTOM-attrib $-1 -1 $-1 $-1 $272 @22 generic_tag_attrib_def 3 3 -1 @23 generic_tag_attrib_def  1 0 @0  0 1 526 0 #
ATTRIB_CUSTOM-attrib $-1 -1 $-1 $-1 $275 @22 generic_tag_attrib_def 3 3 -1 @23 generic_tag_attrib_def  1 0 @0  0 1 526 0 #
ATTRIB_CUSTOM-attrib $350 -1 $-1 $-1 $276 @22 generic_tag_attrib_def 3 3 -1 @23 generic_tag_attrib_def  1 1 @1 6 0 2 509 524 0 #
plane-surface $-1 -1 $-1 18.35000000000000142 3 7 0.8660254037844388186 -0.4999999999999997224 -1.060575238724907161e-16 -0.4999999999999997224 -0.8660254037844388186 6.123233995736762338e-17 forward_v I I I I #
edge $-1 41998 $-1 $216 2.617993877991494855 $331 3.665191429188092265 $285 $153 forward @7 unknown #
vertex $-1 42851 $-1 $330 1 $351 #
vertex $-1 42850 $-1 $311 0 $352 #
intcurve-curve $-1 -1 $-1 forward { exact_int_cur 22403 full nurbs 2 open 2 
	0.3297056722068197887 2 0.6594113444136395774 2 
	18.18750000000000355 3.281458256229942805 7 1 
	18.26291651245988845 3.150833024919770686 7 1.037954849302037186 
	18.35000000000000142 3.000000000000000444 6.949722325026742809 1 
	0 
	
	null_surface 
	null_surface 
	nullbs 
	nullbs 
	I I 
	0 
	0 
	0 
	
	0 F 1 F 0 UNEXTENDED UNEXTENDED } I I #
point $-1 -1 $-1 17.70000000000000284 3.562916512459885165 7 #
straight-curve $-1 -1 $-1 18.02500000000000213 2.437083487540115279 7 -1.224646799147353207e-16 0 -1 I I #
intcurve-curve $-1 -1 $-1 forward { exact_int_cur 22403 full nurbs 2 open 2 
	0 2 0.3297056722068196777 2 
	18.35000000000000142 3 6.949722325026742809 1 
	18.26291651245988845 2.849166975080230202 7 1.037954849302039628 
	18.18750000000000355 2.718541743770057639 7 1 
	0 
	
	null_surface 
	null_surface 
	nullbs 
	nullbs 
	I I 
	0 
	0 
	0 
	
	0 F 1 F 0 UNEXTENDED UNEXTENDED } I I #
intcurve-curve $-1 -1 $-1 forward { exact_int_cur 22403 full nurbs 2 open 2 
	0 2 0.3297056722068200108 2 
	17.37500000000000355 2.437083487540114835 6.550277674973257191 1 
	17.54916697508023304 2.437083487540115279 6.5 1.037954849302052063 
	17.70000000000000284 2.437083487540115279 6.5 1 
	0 
	
	null_surface 
	null_surface 
	nullbs 
	nullbs 
	I I 
	0 
	0 
	0 
	
	0 F 1 F 0 UNEXTENDED UNEXTENDED } I I #
point $-1 -1 $-1 17.37500000000000355 2.437083487540115279 6.550277674973257191 #
ATTRIB_CUSTOM-attrib $-1 -1 $-1 $-1 $295 @22 generic_tag_attrib_def 3 3 -1 @23 generic_tag_attrib_def  1 0 @0  0 1 526 0 #
ATTRIB_CUSTOM-attrib $-1 -1 $-1 $-1 $299 @22 generic_tag_attrib_def 3 3 -1 @23 generic_tag_attrib_def  1 0 @0  0 1 526 0 #
intcurve-curve $-1 -1 $-1 forward { exact_int_cur 22403 full nurbs 2 open 2 
	0.3297056722068198997 2 0.6594113444136396884 2 
	17.21250000000000213 2.718541743770057195 6.5 1 
	17.28791651245988703 2.587916512459885521 6.5 1.037954849302043181 
	17.37500000000000355 2.437083487540115279 6.550277674973257191 1 
	0 
	
	null_surface 
	null_surface 
	nullbs 
	nullbs 
	I I 
	0 
	0 
	0 
	
	0 F 1 F 0 UNEXTENDED UNEXTENDED } I I #
point $-1 -1 $-1 18.02500000000000213 2.437083487540115279 6.550277674973256303 #
ATTRIB_CUSTOM-attrib $-1 -1 $-1 $-1 $310 @22 generic_tag_attrib_def 3 3 -1 @23 generic_tag_attrib_def  1 0 @0  0 1 526 0 #
straight-curve $-1 -1 $-1 18.35000000000000142 3 7 -1.224646799147353207e-16 0 -1 I I #
intcurve-curve $-1 -1 $-1 forward { exact_int_cur 22403 full nurbs 2 open 2 
	0.3297056722068198997 2 0.6594113444136397995 2 
	17.70000000000000284 3.562916512459885165 7 1 
	17.85083302491977264 3.562916512459885165 7 1.037954849302050286 
	18.02500000000000213 3.562916512459885165 6.949722325026742809 1 
	0 
	
	null_surface 
	null_surface 
	nullbs 
	nullbs 
	I I 
	0 
	0 
	0 
	
	0 F 1 F 0 UNEXTENDED UNEXTENDED } I I #
point $-1 -1 $-1 18.02500000000000213 3.562916512459885165 6.949722325026742809 #
ATTRIB_CUSTOM-attrib $-1 -1 $-1 $-1 $319 @22 generic_tag_attrib_def 3 3 -1 @23 generic_tag_attrib_def  1 0 @0  0 1 526 0 #
intcurve-curve $-1 -1 $-1 forward { exact_int_cur 22403 full nurbs 2 open 2 
	0 2 0.3297056722068197887 2 
	18.02500000000000213 3.562916512459885165 6.949722325026742809 1 
	18.11208348754011865 3.412083487540114923 7 1.037954849302034077 
	18.18750000000000355 3.281458256229942805 7 1 
	0 
	
	null_surface 
	null_surface 
	nullbs 
	nullbs 
	I I 
	0 
	0 
	0 
	
	0 F 1 F 0 UNEXTENDED UNEXTENDED } I I #
ATTRIB_CUSTOM-attrib $-1 -1 $-1 $-1 $324 @22 generic_tag_attrib_def 3 3 -1 @23 generic_tag_attrib_def  1 0 @0  0 1 526 0 #
ATTRIB_CUSTOM-attrib $-1 -1 $-1 $-1 $328 @22 generic_tag_attrib_def 3 3 -1 @23 generic_tag_attrib_def  1 0 @0  0 1 526 0 #
point $-1 -1 $-1 18.18750000000000355 3.281458256229942805 7 #
point $-1 -1 $-1 18.35000000000000142 3 6.949722325026742809 #
End-of-ASM-data 