22700 0 2 4           
16 Autodesk Neutron 20 ASM 227.1.1.65535 NT 24 Wed Aug 25 15:39:40 2021 
10 9.999999999999999547e-07 1.000000000000000036e-10 
asmheader $-1 -1 @13 227.1.1.65535 #
body $2 -1 $-1 $3 $-1 $4 #
ATTRIB_CUSTOM-attrib $-1 -1 $5 $-1 $1 @20 Timestamp_attrib_def 1 1629905923913953 #
lump $-1 -1 $-1 $-1 $6 $1 #
transform $-1 -1 1 0 0 0 1 0 0 0 1 0 0 0 1 no_rotate no_reflect no_shear #
ATTRIB_CUSTOM-attrib $-1 -1 $-1 $2 $1 @22 generic_tag_attrib_def 3 3 -1 @23 generic_tag_attrib_def  1 3 @3 300 5 0 0 #
shell $-1 -1 $-1 $-1 $-1 $7 $-1 $3 #
face $8 1646 $-1 $9 $10 $6 $-1 $11 reversed single #
ATTRIB_CUSTOM-attrib $-1 -1 $-1 $-1 $7 @22 generic_tag_attrib_def 3 3 -1 @23 generic_tag_attrib_def  1 4 @4 5984 0 1 -300 0 #
face $12 1647 $-1 $13 $14 $6 $-1 $15 reversed single #
loop $-1 -1 $-1 $-1 $16 $7 #
plane-surface $-1 -1 $-1 1.764999999999997016 3.911755002028725059 11.91224085252709486 2.086536767333740533e-16 -0.3420201433256712109 -0.9396926207859075397 7.594372760115125996e-17 0.9396926207859075397 -0.3420201433256711554 forward_v I I I I #
ATTRIB_CUSTOM-attrib $-1 -1 $-1 $-1 $9 @22 generic_tag_attrib_def 3 3 -1 @23 generic_tag_attrib_def  1 4 @4 6040 0 1 -300 0 #
face $17 1648 $-1 $18 $19 $6 $-1 $20 reversed single #
loop $-1 -1 $-1 $-1 $21 $9 #
plane-surface $-1 -1 $-1 1.764999999999997016 3.343507768823767989 11.23503017087336531 1.427275208435528357e-16 0.7660444431189782355 -0.6427876096865392519 -1.700960357273690912e-16 0.6427876096865392519 0.7660444431189782355 forward_v I I I I #
coedge $-1 -1 $-1 $22 $23 $24 $25 reversed $10 0 $-1 #
ATTRIB_CUSTOM-attrib $-1 -1 $-1 $-1 $13 @22 generic_tag_attrib_def 3 3 -1 @23 generic_tag_attrib_def  1 4 @4 5891 0 1 -300 0 #
face $26 1649 $-1 $27 $28 $6 $-1 $29 reversed single #
loop $-1 -1 $-1 $-1 $30 $13 #
cone-surface $-1 -1 $-1 1.764999999999997016 4.676340553206852491 12.35672128193113295 1 0 2.220446049250313081e-16 2.963107205369197803e-16 -1.119748963954110055 -1.334464850595955543 1 I I 0 1 1.742020143325670123 forward I I I I #
coedge $-1 -1 $-1 $31 $32 $33 $34 reversed $14 0 $-1 #
coedge $-1 -1 $-1 $35 $16 $36 $37 reversed $10 0 $-1 #
coedge $-1 -1 $-1 $16 $38 $39 $40 reversed $10 0 $-1 #
coedge $-1 -1 $-1 $41 $42 $16 $25 forward $43 0 $-1 #
edge $-1 1562 $-1 $44 1.319593222470176075 $45 2.267917375326657936 $24 $46 forward @7 unknown #
ATTRIB_CUSTOM-attrib $-1 -1 $-1 $-1 $18 @22 generic_tag_attrib_def 3 3 -1 @23 generic_tag_attrib_def  1 4 @4 5776 0 1 -300 0 #
face $47 1650 $-1 $48 $49 $6 $-1 $50 reversed single #
loop $-1 -1 $-1 $-1 $51 $18 #
plane-surface $-1 -1 $-1 1.764999999999997016 9.564667229952735994 9.991329587185497019 -1.582867581062817569e-16 0.7013061791336755446 0.7128601848251345796 -1.557212534772202216e-16 -0.7128601848251345796 0.7013061791336756556 forward_v I I I I #
coedge $-1 -1 $-1 $52 $53 $54 $55 reversed $19 0 $-1 #
coedge $-1 -1 $-1 $56 $21 $38 $57 reversed $14 0 $-1 #
coedge $-1 -1 $-1 $21 $56 $52 $58 forward $14 0 $-1 #
coedge $-1 -1 $-1 $54 $39 $21 $34 forward $59 0 $-1 #
edge $-1 1567 $-1 $60 -0.02603893919085109587 $61 0.8579968210536073059 $33 $62 forward @7 unknown #
coedge $-1 -1 $-1 $38 $22 $63 $64 forward $10 0 $-1 #
coedge $-1 -1 $-1 $65 $66 $22 $37 forward $67 0 $-1 #
edge $-1 1563 $-1 $68 0 $44 0.9565347558121004568 $22 $69 forward @7 unknown #
coedge $-1 -1 $-1 $23 $35 $31 $57 forward $10 0 $-1 #
coedge $-1 -1 $-1 $33 $70 $23 $40 forward $59 0 $-1 #
edge $-1 1566 $-1 $45 1.457610426978495521 $60 1.776863758721276554 $39 $71 forward @7 unknown #
coedge $-1 -1 $-1 $72 $24 $70 $73 reversed $43 0 $-1 #
coedge $-1 -1 $-1 $24 $74 $65 $75 forward $43 0 $-1 #
loop $-1 -1 $-1 $-1 $24 $76 #
vertex $-1 1509 $-1 $75 1 $77 #
vertex $-1 1508 $-1 $40 0 $78 #
straight-curve $-1 -1 $-1 2.591477852383700764 6.332524265473477243 11.03115289660667386 0.09855832935011643592 -0.9351175164127323303 0.340354941515174314 I I #
ATTRIB_CUSTOM-attrib $-1 -1 $-1 $-1 $27 @22 generic_tag_attrib_def 3 3 -1 @23 generic_tag_attrib_def  1 4 @4 5866 0 1 -300 0 #
face $79 1651 $-1 $80 $81 $6 $-1 $82 reversed single #
loop $-1 -1 $-1 $-1 $83 $27 #
cone-surface $-1 -1 $-1 1.764999999999997016 9.424405994126004771 9.848757550220472723 1 0 2.220446049250313081e-16 -3.40192071454738207e-17 0.1285575219373078504 0.1532088886237956693 1 I I 0 1 0.2000000000000000111 forward I I I I #
coedge $-1 -1 $-1 $84 $85 $86 $87 reversed $28 0 $-1 #
coedge $-1 -1 $-1 $88 $30 $32 $58 reversed $19 0 $-1 #
coedge $-1 -1 $-1 $30 $89 $90 $91 reversed $19 0 $-1 #
coedge $-1 -1 $-1 $92 $33 $30 $55 forward $59 0 $-1 #
edge $-1 1570 $-1 $61 0.1730766597006293817 $93 3.141592653589798001 $54 $94 forward @7 unknown #
coedge $-1 -1 $-1 $32 $31 $95 $96 reversed $14 0 $-1 #
edge $-1 1565 $-1 $97 0 $60 1.050000000000000711 $31 $98 forward @7 unknown #
edge $-1 1569 $-1 $99 0 $61 1.050000000000000711 $52 $100 forward @7 unknown #
loop $-1 -1 $-1 $-1 $39 $101 #
vertex $-1 1512 $-1 $40 1 $102 #
vertex $-1 1513 $-1 $34 1 $103 #
straight-curve $-1 -1 $-1 2.815000000000001279 3.895017494547465375 11.89229386785522635 1.700960357273690912e-16 -0.6427876096865392519 -0.7660444431189782355 I I #
coedge $-1 -1 $-1 $104 $95 $35 $64 reversed $105 0 $-1 #
edge $106 1564 $-1 $68 0 $97 12.62960355675452639 $35 $107 forward @7 unknown #
coedge $-1 -1 $-1 $108 $36 $42 $75 reversed $67 0 $-1 #
coedge $-1 -1 $-1 $36 $108 $104 $109 forward $67 0 $-1 #
loop $-1 -1 $-1 $-1 $65 $110 #
vertex $-1 1510 $-1 $64 0 $111 #
straight-curve $-1 -1 $-1 1.764999999999997016 5.098549528602093872 11.48028297066433723 1 0 2.220446049250313081e-16 I I #
coedge $-1 -1 $-1 $39 $112 $41 $73 forward $59 0 $-1 #
straight-curve $-1 -1 $-1 2.815000000000001279 5.581460764241018779 11.30451765509905115 -7.594372760115127228e-17 -0.9396926207859077618 0.3420201433256712664 I I #
coedge $-1 -1 $-1 $113 $41 $114 $115 reversed $43 0 $-1 #
edge $-1 1591 $-1 $116 -11.54202014332566151 $45 -11.2227668115828898 $70 $117 forward @7 unknown #
coedge $-1 -1 $-1 $42 $118 $119 $120 forward $43 0 $-1 #
edge $-1 1586 $-1 $121 -5.847013440198841394 $44 -1.801344590090607989 $42 $122 forward @7 unknown #
face $123 1668 $-1 $124 $43 $6 $-1 $125 reversed single #
point $-1 -1 $-1 2.721534755812097472 5.098549528602093872 11.48028297066433723 #
point $-1 -1 $-1 2.815000000000001279 4.211755002028732875 11.80304978224722845 #
ATTRIB_CUSTOM-attrib $-1 -1 $-1 $-1 $48 @22 generic_tag_attrib_def 3 3 -1 @23 generic_tag_attrib_def  1 4 @4 5614 0 1 -300 0 #
face $126 1652 $-1 $110 $127 $6 $-1 $128 reversed single #
loop $-1 -1 $-1 $-1 $129 $48 #
cone-surface $-1 -1 $-1 1.764999999999997016 9.963022949970266495 7.922649615841649506 1 0 2.220446049250313081e-16 3.061728643092643986e-16 -1.157017697435770653 -1.378879997614160802 1 I I 0 -1 1.800000000000000044 forward I I I I #
coedge $-1 -1 $-1 $130 $131 $132 $133 reversed $49 0 $-1 #
coedge $-1 -1 $-1 $134 $51 $89 $135 reversed $28 0 $-1 #
coedge $-1 -1 $-1 $51 $134 $130 $136 forward $28 0 $-1 #
coedge $-1 -1 $-1 $132 $90 $51 $87 forward $43 0 $-1 #
edge $-1 1574 $-1 $137 -0.384662141765391874 $138 4.787207375730465841 $86 $139 forward @7 unknown #
coedge $-1 -1 $-1 $89 $52 $140 $141 reversed $19 0 $-1 #
coedge $-1 -1 $-1 $53 $88 $84 $135 forward $19 0 $-1 #
coedge $-1 -1 $-1 $86 $142 $53 $91 forward $43 0 $-1 #
edge $-1 1573 $-1 $93 -1.570796326794891895 $137 -1.491699870859149568 $90 $143 forward @7 unknown #
coedge $-1 -1 $-1 $144 $54 $142 $145 forward $59 0 $-1 #
vertex $-1 1515 $-1 $145 0 $146 #
ellipse-curve $-1 -1 $-1 2.815000000000001279 4.676340553206852491 12.35672128193113295 -1 0 -2.220446049250313081e-16 2.963107205369197803e-16 -1.119748963954110055 -1.334464850595955543 1 I I #
coedge $-1 -1 $-1 $63 $140 $56 $96 forward $105 0 $-1 #
edge $147 1568 $-1 $99 0 $97 8.840357602444580465 $56 $148 forward @7 unknown #
vertex $-1 1511 $-1 $96 1 $149 #
straight-curve $-1 -1 $-1 1.764999999999997016 3.911755002028725059 11.91224085252709486 1 0 2.220446049250313081e-16 I I #
vertex $-1 1514 $-1 $141 1 $150 #
straight-curve $-1 -1 $-1 1.764999999999997016 3.343507768823767989 11.23503017087336531 1 0 2.220446049250313081e-16 I I #
face $151 1655 $-1 $152 $59 $6 $-1 $153 forward single #
point $-1 -1 $-1 2.815000000000001279 3.911755002028723283 11.91224085252709486 #
point $-1 -1 $-1 2.815000000000001279 3.343507768823766213 11.23503017087336531 #
coedge $-1 -1 $-1 $154 $63 $66 $109 reversed $105 0 $-1 #
loop $-1 -1 $-1 $-1 $140 $155 #
DXID-attrib $-1 -1 $-1 $-1 $64 @18 ASM_EDGE_FROM_STEP @3 494 #
straight-curve $-1 -1 $-1 1.764999999999997016 5.098549528602093872 11.48028297066433723 -7.594372760115125071e-18 -0.09396926207859072899 0.03420201433256711554 F 0 F 12.62960355675452639 #
coedge $-1 -1 $-1 $66 $65 $156 $157 reversed $67 0 $-1 #
edge $158 1587 $-1 $159 0 $68 40.23383746884520207 $66 $160 forward @7 unknown #
face $161 1653 $-1 $155 $67 $6 $-1 $162 reversed single #
point $-1 -1 $-1 1.764999999999997016 5.098549528602093872 11.48028297066433723 #
coedge $163 -1 $-1 $70 $144 $164 $165 reversed $59 0 $-1 #
coedge $-1 -1 $-1 $166 $72 $167 $168 reversed $43 0 $-1 #
coedge $-1 -1 $-1 $169 $170 $72 $115 forward $171 0 $-1 #
edge $-1 1630 $-1 $172 1.922026557552836579 $116 2.926919102385837856 $114 $173 forward @7 unknown #
vertex $-1 1528 $-1 $165 0 $174 #
straight-curve $-1 -1 $-1 2.814999999999994174 11.42561045491552107 20.40018793468039604 -1.700960357273690912e-16 0.6427876096865392519 0.7660444431189782355 I I #
coedge $-1 -1 $-1 $74 $132 $129 $175 forward $43 0 $-1 #
coedge $-1 -1 $-1 $176 $156 $74 $120 reversed $127 0 $-1 #
edge $-1 1583 $-1 $177 -0.1009302645261760528 $121 1.570796326794896558 $74 $178 forward @7 unknown #
vertex $-1 1524 $-1 $120 1 $179 #
straight-curve $-1 -1 $-1 2.910344787960777779 3.726240591390594048 12.63178689373978969 0.1048161652064475424 -0.7618247750934051821 0.6392468878025903134 I I #
ATTRIB_CUSTOM-attrib $-1 -1 $-1 $-1 $76 @22 generic_tag_attrib_def 3 3 -1 @23 generic_tag_attrib_def  1 4 @4 5337 0 1 -300 0 #
face $180 1669 $-1 $181 $182 $6 $-1 $183 reversed single #
plane-surface $-1 -1 $-1 3.109663720801030706 16.03320571717053511 30.24073298749695127 -0.9944916146008545565 -0.08029384090544003372 0.06737453228956168105 -0.1048161652064475424 0.7618247750934051821 -0.6392468878025903134 forward_v I I I I #
ATTRIB_CUSTOM-attrib $-1 -1 $-1 $-1 $80 @22 generic_tag_attrib_def 3 3 -1 @23 generic_tag_attrib_def  1 4 @4 5782 0 1 -300 0 #
loop $-1 -1 $-1 $-1 $119 $80 #
cone-surface $-1 -1 $-1 1.764999999999997016 8.309197812375501258 9.047310637776558195 1 0 2.220446049250313081e-16 3.40192071454738207e-17 -0.1285575219373078504 -0.1532088886237956693 1 I I 0 1 0.2000000000000000111 forward I I I I #
coedge $-1 -1 $-1 $184 $185 $118 $175 reversed $81 0 $-1 #
coedge $-1 -1 $-1 $186 $83 $85 $136 reversed $49 0 $-1 #
coedge $-1 -1 $-1 $83 $186 $184 $187 forward $49 0 $-1 #
coedge $-1 -1 $-1 $118 $86 $83 $133 forward $43 0 $-1 #
edge $-1 1577 $-1 $138 1.649892782730641327 $188 3.741582371508454408 $132 $189 forward @7 unknown #
coedge $-1 -1 $-1 $85 $84 $190 $191 forward $28 0 $-1 #
edge $-1 1572 $-1 $192 0 $137 1.035492773181951875 $89 $193 forward @7 tangent #
edge $-1 1576 $-1 $194 0 $138 0.4950735677514490618 $130 $195 forward @7 tangent #
vertex $-1 1517 $-1 $87 0 $196 #
vertex $-1 1518 $-1 $87 1 $197 #
straight-curve $-1 -1 $-1 2.760298640613672916 6.170739266024703795 13.33024891990312 -0.1044920417273336177 0.7089577905344364162 -0.6974670346734558324 I I #
coedge $-1 -1 $-1 $95 $190 $88 $141 forward $105 0 $-1 #
edge $198 1571 $-1 $192 3.062496197654046348 $99 6.110108647478956989 $88 $199 forward @7 unknown #
coedge $-1 -1 $-1 $90 $200 $92 $145 reversed $43 0 $-1 #
ellipse-curve $-1 -1 $-1 2.815000000000001279 4.676340553206852491 12.35672128193113295 -0.9944916146008545565 -0.08029384090544003372 0.06737453228956168105 -0.1836032284787712798 1.334464850595955543 -1.119748963954110055 0.9944916146008545565 I I #
coedge $201 -1 $-1 $112 $92 $202 $203 forward $59 0 $-1 #
edge $-1 1588 $-1 $93 -8.757979856674328545 $204 -8.457979856674338492 $92 $117 forward @7 unknown #
point $-1 -1 $-1 2.814999999999997726 5.796089517160970317 13.69118613252708272 #
DXID-attrib $-1 -1 $-1 $-1 $96 @18 ASM_EDGE_FROM_STEP @3 498 #
straight-curve $-1 -1 $-1 1.764999999999997016 3.343507768823767989 11.23503017087336531 -1.700960357273691035e-17 0.06427876096865392519 0.07660444431189783465 F 0 F 8.840357602444580465 #
point $-1 -1 $-1 1.764999999999997016 3.911755002028725059 11.91224085252709486 #
point $-1 -1 $-1 1.764999999999997016 3.343507768823767989 11.23503017087336531 #
ATTRIB_CUSTOM-attrib $-1 -1 $-1 $-1 $101 @22 generic_tag_attrib_def 3 3 -1 @23 generic_tag_attrib_def  1 4 @4 5480 0 1 -300 0 #
face $205 1656 $-1 $206 $207 $6 $-1 $208 reversed single #
plane-surface $-1 -1 $-1 2.815000000000001279 7.111588122540741352 10.31330594467769757 1 0 2.220446049250313081e-16 1.700960357273690912e-16 -0.6427876096865392519 -0.7660444431189782355 forward_v I I I I #
coedge $-1 -1 $-1 $209 $104 $210 $211 forward $105 0 $-1 #
face $212 1654 $-1 $101 $105 $6 $-1 $213 forward single #
coedge $-1 -1 $-1 $119 $210 $108 $157 forward $127 0 $-1 #
edge $-1 1585 $-1 $159 0 $121 0.5324832612485757011 $108 $214 forward @7 tangent #
DXID-attrib $-1 -1 $-1 $-1 $109 @18 ASM_EDGE_FROM_STEP @3 492 #
vertex $-1 1525 $-1 $109 0 $215 #
straight-curve $-1 -1 $-1 1.764999999999997016 8.180640290438194739 8.894101749152763858 -1.427275208435528357e-17 -0.07660444431189783465 0.06427876096865392519 F 0 F 40.23383746884520207 #
ATTRIB_CUSTOM-attrib $-1 -1 $-1 $-1 $110 @22 generic_tag_attrib_def 3 3 -1 @23 generic_tag_attrib_def  1 4 @4 5579 0 1 -300 0 #
plane-surface $-1 -1 $-1 1.764999999999997016 5.098549528602093872 11.48028297066433723 1.700960357273690912e-16 -0.6427876096865392519 -0.7660444431189782355 1.427275208435528357e-16 0.7660444431189782355 -0.6427876096865392519 forward_v I I I I #
ATTRIB_CUSTOM-attrib $-1 -1 $216 $-1 $112 @17 sketch_attrib_def 1 1 3 @13 490 0 0 0 1 1 #
coedge $217 -1 $-1 $218 $219 $112 $165 forward $220 0 $-1 #
edge $-1 1590 $-1 $116 0 $221 1 $112 $222 forward @7 unknown #
coedge $-1 -1 $-1 $223 $113 $224 $225 reversed $43 0 $-1 #
coedge $-1 -1 $-1 $226 $227 $113 $168 forward $228 0 $-1 #
edge $-1 1631 $-1 $229 -3.938533462556854214 $172 0.1273423833215826251 $167 $230 forward @7 unknown #
coedge $-1 -1 $-1 $231 $114 $219 $232 forward $171 0 $-1 #
coedge $-1 -1 $-1 $114 $231 $226 $233 reversed $171 0 $-1 #
loop $-1 -1 $-1 $-1 $231 $234 #
vertex $-1 1556 $-1 $233 0 $235 #
straight-curve $-1 -1 $-1 2.526527743125907222 6.743556237797349695 10.56229616160628026 0.09855832935011656082 -0.935117516412730998 0.3403549415151776447 I I #
point $-1 -1 $-1 2.815000000000001279 4.006542916033325241 11.55848754151846691 #
edge $-1 1580 $-1 $188 2.541602935671152252 $177 3.242522918115960717 $118 $236 forward @7 unknown #
coedge $-1 -1 $-1 $210 $119 $185 $237 reversed $127 0 $-1 #
vertex $-1 1522 $-1 $175 1 $238 #
ellipse-curve $-1 -1 $-1 2.29748326124857627 8.309197812375501258 9.047310637776558195 -0.9944916146008545565 -0.08029384090544003372 0.06737453228956168105 -0.02107934620414395055 0.1532088886237956693 -0.1285575219373078504 0.9944916146008545565 I I #
point $-1 -1 $-1 2.29748326124857627 8.180640290438194739 8.894101749152763858 #
ATTRIB_CUSTOM-attrib $-1 -1 $-1 $-1 $124 @22 generic_tag_attrib_def 3 3 -1 @23 generic_tag_attrib_def  1 4 @4 5816 0 1 -300 0 #
face $239 1670 $-1 $240 $241 $6 $-1 $242 forward single #
loop $-1 -1 $-1 $243 $244 $124 #
plane-surface $-1 -1 $-1 2.199999999999995737 22.64482290565403844 24.69292744315508159 -1 0 -2.220446049250313081e-16 1.427275208435528357e-16 0.7660444431189782355 -0.6427876096865392519 forward_v I I I I #
coedge $-1 -1 $-1 $245 $129 $131 $187 reversed $81 0 $-1 #
coedge $-1 -1 $-1 $129 $245 $176 $237 forward $81 0 $-1 #
coedge $-1 -1 $-1 $131 $130 $246 $247 forward $49 0 $-1 #
edge $-1 1579 $-1 $248 0 $188 0.4793414738235899364 $184 $249 forward @7 tangent #
vertex $-1 1520 $-1 $133 1 $250 #
ellipse-curve $-1 -1 $-1 2.261739131364315369 9.424405994126004771 9.848757550220472723 -0.9944916146008545565 -0.08029384090544003372 0.06737453228956168105 0.02107934620414395055 -0.1532088886237956693 0.1285575219373078504 0.9944916146008545565 I I #
coedge $-1 -1 $-1 $140 $246 $134 $191 reversed $105 0 $-1 #
edge $251 1575 $-1 $192 0 $194 51.43557269867295645 $134 $252 forward @7 unknown #
vertex $-1 1516 $-1 $141 0 $253 #
straight-curve $-1 -1 $-1 1.764999999999997016 5.898030043896470787 13.59853808327136804 1 0 2.220446049250313081e-16 I I #
vertex $-1 1519 $-1 $247 0 $254 #
straight-curve $-1 -1 $-1 1.764999999999997016 9.564667229952739547 9.991329587185500571 1 0 2.220446049250313081e-16 I I #
point $-1 -1 $-1 2.800492773181947115 5.898030043896470787 13.59853808327136804 #
point $-1 -1 $-1 2.260073567751444301 9.564667229952739547 9.991329587185500571 #
DXID-attrib $-1 -1 $-1 $-1 $141 @18 ASM_EDGE_FROM_STEP @3 497 #
ellipse-curve $-1 -1 $-1 1.764999999999997016 4.676340553206852491 12.35672128193113295 1 0 2.220446049250313081e-16 2.963107205369197803e-16 -1.119748963954110055 -1.334464850595955543 1 F 3.062496197654046348 F 6.110108647478956989 #
coedge $-1 -1 $-1 $142 $223 $255 $256 reversed $43 0 $-1 #
ATTRIB_CUSTOM-attrib $-1 -1 $-1 $-1 $144 @17 sketch_attrib_def 1 1 3 @13 495 0 0 0 1 1 #
coedge $257 -1 $-1 $258 $259 $144 $203 reversed $260 0 $-1 #
edge $-1 1589 $-1 $204 0 $221 3.141592653589793116 $144 $261 forward @7 unknown #
vertex $-1 1526 $-1 $256 0 $262 #
ATTRIB_CUSTOM-attrib $-1 -1 $-1 $-1 $152 @22 generic_tag_attrib_def 3 3 -1 @23 generic_tag_attrib_def  1 4 @4 5622 0 1 -300 0 #
face $263 1657 $-1 $264 $265 $6 $-1 $266 reversed single #
loop $-1 -1 $-1 $-1 $267 $152 #
plane-surface $-1 -1 $-1 1.364999999999998437 5.898030043896470787 13.59853808327136804 -1.582867581062817569e-16 0.7013061791336755446 0.7128601848251345796 1.557212534772202216e-16 0.7128601848251345796 -0.7013061791336756556 forward_v I I I I #
coedge $-1 -1 $-1 $246 $154 $245 $268 reversed $105 0 $-1 #
coedge $-1 -1 $-1 $156 $176 $154 $211 reversed $127 0 $-1 #
edge $269 1584 $-1 $159 0 $270 1.671726591321074151 $210 $271 forward @7 unknown #
ATTRIB_CUSTOM-attrib $-1 -1 $272 $-1 $155 @22 generic_tag_attrib_def 3 3 -1 @23 generic_tag_attrib_def  1 4 @4 5812 0 1 -300 0 #
plane-surface $-1 -1 $-1 1.764999999999997016 4.676340553206852491 12.35672128193113295 1 0 2.220446049250313081e-16 1.700960357273691035e-17 -0.06427876096865392519 -0.07660444431189783465 forward_v I I I I #
straight-curve $-1 -1 $-1 1.764999999999997016 8.180640290438194739 8.894101749152763858 1 0 2.220446049250313081e-16 I I #
point $-1 -1 $-1 1.764999999999997016 8.180640290438194739 8.894101749152763858 #
ATTRIB_CUSTOM-attrib $-1 -1 $273 $163 $112 @17 sketch_attrib_def 1 1 3 @13 496 0 1 0 1 1 #
ATTRIB_CUSTOM-attrib $-1 -1 $274 $-1 $164 @17 sketch_attrib_def 1 1 3 @13 507 0 1 0 1 1 #
coedge $-1 -1 $-1 $275 $164 $259 $276 forward $220 0 $-1 #
coedge $-1 -1 $-1 $164 $275 $169 $232 reversed $220 0 $-1 #
loop $-1 -1 $-1 $-1 $164 $277 #
vertex $-1 1527 $-1 $203 1 $278 #
straight-curve $-1 -1 $-1 2.815000000000001279 4.006542916033325241 11.55848754151846691 1.700960357273690665e-16 -0.6427876096865394739 -0.7660444431189781245 F -0.3192533317427681538 F 1 #
coedge $-1 -1 $-1 $200 $166 $279 $280 reversed $43 0 $-1 #
coedge $-1 -1 $-1 $281 $282 $166 $225 forward $283 0 $-1 #
edge $-1 1632 $-1 $284 0.7813886048222871139 $229 1.570796326794893005 $224 $285 forward @7 unknown #
coedge $-1 -1 $-1 $286 $167 $170 $233 forward $228 0 $-1 #
coedge $-1 -1 $-1 $167 $286 $281 $287 reversed $228 0 $-1 #
loop $-1 -1 $-1 $-1 $286 $288 #
vertex $-1 1557 $-1 $287 0 $289 #
straight-curve $-1 -1 $-1 2.702611929316855566 5.043248119353055614 11.13506417596910936 0.1048161652064475424 -0.7618247750934051821 0.6392468878025903134 I I #
coedge $-1 -1 $-1 $170 $169 $290 $291 forward $171 0 $-1 #
edge $-1 1643 $-1 $116 0 $292 2.5 $169 $293 forward @7 unknown #
edge $-1 1644 $-1 $172 0.09904053039512916712 $294 2.400959469604877938 $226 $295 forward @7 unknown #
face $296 1676 $-1 $288 $171 $6 $-1 $297 forward single #
point $-1 -1 $-1 2.715959469604872112 4.94623553681923056 11.21646739819279048 #
ellipse-curve $-1 -1 $-1 2.087762555957031196 9.963022949970266495 7.922649615841649506 0.9944916146008545565 0.08029384090544003372 -0.06737453228956168105 -0.1897141158372955272 1.378879997614160802 -1.157017697435770653 0.9944916146008546676 I I #
edge $-1 1582 $-1 $270 0 $177 0.5115111907194211938 $176 $298 forward @7 tangent #
point $-1 -1 $-1 2.276511190719421762 8.474580326134978137 8.934844535583071234 #
ATTRIB_CUSTOM-attrib $-1 -1 $-1 $-1 $181 @22 generic_tag_attrib_def 3 3 -1 @23 generic_tag_attrib_def  1 4 @4 5484 0 1 -300 0 #
face $299 1671 $-1 $300 $301 $6 $-1 $302 forward single #
loop $-1 -1 $-1 $-1 $303 $181 #
cone-surface $-1 -1 $-1 2.815000000000001279 9.963022949970266495 7.922649615841649506 -1 0 -2.220446049250313081e-16 2.769809444286121397e-17 -1.494804218294909504 -0.1247411278117428468 1 I I 0 1 1.500000000000000222 forward I I I I #
loop $-1 -1 $-1 $-1 $304 $124 #
coedge $-1 -1 $-1 $305 $279 $306 $307 reversed $182 0 $-1 #
coedge $-1 -1 $-1 $185 $184 $209 $268 forward $81 0 $-1 #
coedge $-1 -1 $-1 $190 $209 $186 $247 reversed $105 0 $-1 #
edge $308 1578 $-1 $194 0.07909645593574450573 $248 2.170786044713540974 $186 $309 forward @7 unknown #
vertex $-1 1521 $-1 $268 0 $310 #
straight-curve $-1 -1 $-1 1.764999999999997016 9.478267689710428101 9.656146756782590046 1 0 2.220446049250313081e-16 I I #
point $-1 -1 $-1 2.244341473823585176 9.478267689710428101 9.656146756782590046 #
DXID-attrib $-1 -1 $-1 $-1 $191 @18 ASM_EDGE_FROM_STEP @3 484 #
straight-curve $-1 -1 $-1 1.764999999999997016 5.898030043896470787 13.59853808327136804 1.557212534772201908e-17 0.07128601848251343853 -0.07013061791336754058 F 0 F 51.43557269867295645 #
point $-1 -1 $-1 1.764999999999997016 5.898030043896470787 13.59853808327136804 #
point $-1 -1 $-1 1.764999999999997016 9.564667229952739547 9.991329587185500571 #
coedge $-1 -1 $-1 $311 $312 $200 $256 forward $313 0 $-1 #
edge $-1 1634 $-1 $204 2.13601473056753921 $314 8.021130615077181503 $255 $315 forward @7 unknown #
ATTRIB_CUSTOM-attrib $-1 -1 $-1 $-1 $202 @17 sketch_attrib_def 1 1 3 @13 495 0 0 0 1 1 #
coedge $-1 -1 $-1 $316 $202 $312 $317 forward $260 0 $-1 #
coedge $-1 -1 $-1 $202 $316 $218 $276 reversed $260 0 $-1 #
loop $-1 -1 $-1 $-1 $202 $318 #
ellipse-curve $-1 -1 $-1 2.815000000000001279 4.676340553206852491 12.35672128193113295 1 0 2.220446049250313081e-16 -3.473395312551291e-16 1.312585246860066279 1.564278183531642386 1 F 0 F 3.141592653589793116 #
point $-1 -1 $-1 2.814999999999997726 5.988925800066919436 13.92099946546277422 #
ATTRIB_CUSTOM-attrib $-1 -1 $-1 $-1 $206 @22 generic_tag_attrib_def 3 3 -1 @23 generic_tag_attrib_def  1 4 @4 5510 0 1 -300 0 #
face $319 1658 $-1 $320 $321 $6 $-1 $322 reversed single #
loop $-1 -1 $-1 $-1 $323 $206 #
cone-surface $-1 -1 $-1 1.364999999999998437 4.676340553206852491 12.35672128193113295 -1 0 -2.220446049250313081e-16 -2.963107205369197803e-16 1.119748963954110055 1.334464850595955543 1 I I 0 1 1.742020143325670123 forward I I I I #
coedge $-1 -1 $-1 $324 $325 $326 $327 reversed $207 0 $-1 #
edge $328 1581 $-1 $248 -2.170786044713539198 $270 -1.469866062268729179 $245 $329 forward @7 unknown #
DXID-attrib $-1 -1 $-1 $-1 $211 @18 ASM_EDGE_FROM_STEP @3 490 #
vertex $-1 1523 $-1 $211 1 $330 #
ellipse-curve $-1 -1 $-1 1.764999999999997016 8.309197812375501258 9.047310637776558195 1 0 2.220446049250313081e-16 3.40192071454738207e-17 -0.1285575219373078504 -0.1532088886237956693 1 F 0 F 1.671726591321074151 #
DXID-attrib $-1 -1 $-1 $212 $155 @18 ASM_FACE_FROM_STEP @24 Pieza4_Candado_sldprt-94 #
ATTRIB_CUSTOM-attrib $-1 -1 $-1 $216 $112 @17 sketch_attrib_def 1 1 3 @13 507 0 1 0 1 1 #
ATTRIB_CUSTOM-attrib $-1 -1 $331 $217 $164 @17 sketch_attrib_def 1 1 3 @13 496 0 1 0 1 1 #
coedge $-1 -1 $-1 $219 $218 $332 $333 reversed $220 0 $-1 #
edge $-1 1642 $-1 $221 0 $334 2.5 $218 $335 forward @7 unknown #
face $336 1675 $-1 $234 $220 $6 $-1 $337 forward single #
point $-1 -1 $-1 2.815000000000001279 3.363755306346785545 10.79244309839948812 #
coedge $-1 -1 $-1 $244 $305 $223 $280 forward $182 0 $-1 #
edge $-1 1633 $-1 $314 19.41407575852162992 $284 22.05488089742741664 $223 $338 forward @7 unknown #
coedge $-1 -1 $-1 $339 $224 $227 $287 forward $283 0 $-1 #
coedge $-1 -1 $-1 $224 $339 $340 $341 reversed $283 0 $-1 #
loop $-1 -1 $-1 $-1 $339 $342 #
vertex $-1 1558 $-1 $341 0 $343 #
ellipse-curve $-1 -1 $-1 2.289789955234372343 7.272375357039432942 7.698115585780502812 0.9944916146008545565 0.08029384090544003372 -0.06737453228956168105 -0.1264760772248636478 0.9192533317427765693 -0.7713451316238435496 0.9944916146008545565 I I #
coedge $-1 -1 $-1 $227 $226 $344 $345 forward $228 0 $-1 #
edge $-1 1645 $-1 $229 0.5252100447656271598 $346 1.974789955234374617 $281 $347 forward @7 tangent #
face $348 1677 $-1 $342 $228 $6 $-1 $349 forward single #
point $-1 -1 $-1 2.289789955234372343 8.043720488663280932 8.61736891752327594 #
coedge $-1 -1 $-1 $350 $344 $231 $291 reversed $351 0 $-1 #
edge $-1 1629 $-1 $292 -7.130375520543999812 $294 -6.125482975710999867 $231 $352 forward @7 unknown #
vertex $-1 1547 $-1 $232 1 $353 #
straight-curve $-1 -1 $-1 2.815000000000001279 4.006542916033325241 11.55848754151846691 -1 0 -2.220446049250313081e-16 I I #
vertex $-1 1555 $-1 $291 1 $354 #
straight-curve $-1 -1 $-1 2.815000000000001279 4.94623553681923056 11.21646739819279048 -1 0 -2.220446049250313081e-16 I I #
ATTRIB_CUSTOM-attrib $-1 -1 $-1 $-1 $234 @22 generic_tag_attrib_def 3 3 -1 @23 generic_tag_attrib_def  1 4 @4 5487 0 1 -300 0 #
plane-surface $-1 -1 $-1 2.815000000000001279 4.94623553681923056 11.21646739819279048 2.086536767333738068e-16 -0.3420201433256744861 -0.9396926207859063185 -7.594372760115198719e-17 -0.9396926207859063185 0.3420201433256744861 forward_v I I I I #
straight-curve $-1 -1 $-1 1.764999999999997016 8.474580326134978137 8.934844535583071234 1 0 2.220446049250313081e-16 I I #
ATTRIB_CUSTOM-attrib $-1 -1 $-1 $-1 $240 @22 generic_tag_attrib_def 3 3 -1 @23 generic_tag_attrib_def  1 4 @4 5483 0 1 -300 0 #
face $355 1672 $-1 $356 $313 $6 $-1 $357 forward single #
loop $-1 -1 $-1 $-1 $358 $240 #
plane-surface $-1 -1 $-1 2.814999999999997726 10.16569555456053919 9.820882590048725547 -1.582867581062830388e-16 0.7013061791336696604 0.7128601848251403528 1.557212534772189397e-16 0.7128601848251404638 -0.7013061791336697715 forward_v I I I I #
coedge $-1 -1 $-1 $359 $340 $360 $361 forward $241 0 $-1 #
coedge $-1 -1 $-1 $304 $304 $362 $363 reversed $243 0 $-1 #
coedge $-1 -1 $-1 $279 $244 $364 $365 reversed $182 0 $-1 #
coedge $-1 -1 $-1 $340 $359 $244 $307 forward $241 0 $-1 #
edge $-1 1635 $-1 $366 2.352184931617180119 $284 6.283185307179586232 $306 $367 forward @7 unknown #
DXID-attrib $-1 -1 $-1 $-1 $247 @18 ASM_EDGE_FROM_STEP @3 486 #
ellipse-curve $-1 -1 $-1 1.764999999999997016 9.424405994126004771 9.848757550220472723 -1 0 -2.220446049250313081e-16 -3.40192071454738207e-17 0.1285575219373078504 0.1532088886237956693 1 F 0.07909645593574450573 F 2.170786044713540974 #
point $-1 -1 $-1 1.764999999999997016 9.478267689710428101 9.656146756782590046 #
coedge $-1 -1 $-1 $368 $255 $369 $370 forward $313 0 $-1 #
coedge $-1 -1 $-1 $255 $368 $258 $317 reversed $313 0 $-1 #
loop $-1 -1 $-1 $-1 $368 $300 #
vertex $-1 1559 $-1 $370 0 $371 #
straight-curve $-1 -1 $-1 3.038215495680674394 4.472958757638711091 15.40914519016886786 -0.1045009158814961814 0.7097175036922205305 -0.696692632035685766 I I #
coedge $-1 -1 $-1 $259 $258 $372 $373 reversed $260 0 $-1 #
edge $-1 1641 $-1 $204 0 $374 2.5 $312 $375 forward @7 unknown #
face $376 1674 $-1 $277 $260 $6 $-1 $377 forward single #
ATTRIB_CUSTOM-attrib $-1 -1 $-1 $-1 $264 @22 generic_tag_attrib_def 3 3 -1 @23 generic_tag_attrib_def  1 4 @4 5335 0 1 -300 0 #
face $378 1659 $-1 $379 $380 $6 $-1 $381 reversed single #
loop $-1 -1 $-1 $-1 $382 $264 #
plane-surface $-1 -1 $-1 1.364999999999998437 3.911755002028725059 11.91224085252709486 1.42727520843552959e-16 0.7660444431189777914 -0.642787609686539807 1.700960357273689925e-16 -0.642787609686539807 -0.7660444431189777914 forward_v I I I I #
coedge $-1 -1 $-1 $383 $384 $385 $386 reversed $265 0 $-1 #
coedge $-1 -1 $-1 $387 $267 $388 $389 reversed $207 0 $-1 #
coedge $-1 -1 $-1 $267 $387 $383 $390 forward $207 0 $-1 #
coedge $-1 -1 $-1 $385 $391 $267 $327 forward $351 0 $-1 #
edge $-1 1592 $-1 $392 -3.018996573778528258 $393 2.152872943717329957 $326 $394 forward @7 unknown #
DXID-attrib $-1 -1 $-1 $-1 $268 @18 ASM_EDGE_FROM_STEP @3 488 #
ellipse-curve $-1 -1 $-1 1.764999999999997016 9.963022949970266495 7.922649615841649506 1 0 2.220446049250313081e-16 3.061728643092643986e-16 -1.157017697435770653 -1.378879997614160802 1 F -2.170786044713539198 F -1.469866062268729179 #
point $-1 -1 $-1 1.764999999999997016 8.474580326134978137 8.934844535583071234 #
ATTRIB_CUSTOM-attrib $-1 -1 $-1 $274 $164 @17 sketch_attrib_def 1 1 3 @13 490 0 0 0 1 1 #
coedge $-1 -1 $-1 $372 $395 $275 $333 forward $396 0 $-1 #
edge $-1 1619 $-1 $292 0 $334 1 $275 $397 forward @7 unknown #
vertex $-1 1548 $-1 $276 1 $398 #
straight-curve $-1 -1 $-1 2.815000000000001279 3.363755306346785545 10.79244309839948812 -1 0 -2.220446049250313081e-16 I I #
ATTRIB_CUSTOM-attrib $-1 -1 $-1 $-1 $277 @22 generic_tag_attrib_def 3 3 -1 @23 generic_tag_attrib_def  1 4 @4 5488 0 1 -300 0 #
plane-surface $-1 -1 $-1 2.815000000000001279 4.006542916033325241 11.55848754151846691 1.42727520843552885e-16 0.7660444431189781245 -0.6427876096865394739 1.700960357273690665e-16 -0.6427876096865394739 -0.7660444431189781245 forward_v I I I I #
straight-curve $-1 -1 $-1 2.199999999999995737 22.64482290565403844 24.69292744315508159 1.700960357273690912e-16 -0.6427876096865392519 -0.7660444431189782355 I I #
coedge $-1 -1 $-1 $282 $281 $399 $400 forward $283 0 $-1 #
coedge $-1 -1 $-1 $303 $306 $282 $341 forward $241 0 $-1 #
edge $-1 1639 $-1 $284 0.6150000000000002132 $401 1.884999999999999787 $340 $402 forward @7 tangent #
face $403 1678 $-1 $-1 $283 $6 $-1 $404 forward single #
point $-1 -1 $-1 2.199999999999999289 8.468218731675358768 7.797908488029907659 #
coedge $-1 -1 $-1 $290 $399 $286 $345 reversed $351 0 $-1 #
edge $-1 1628 $-1 $294 -4.597691924237857997 $346 -0.5318160783594207963 $286 $405 forward @7 unknown #
vertex $-1 1554 $-1 $345 1 $406 #
straight-curve $-1 -1 $-1 2.815000000000001279 8.043720488663279156 8.61736891752327594 -1 0 -2.220446049250313081e-16 I I #
ATTRIB_CUSTOM-attrib $-1 -1 $-1 $-1 $288 @22 generic_tag_attrib_def 3 3 -1 @23 generic_tag_attrib_def  1 4 @4 5486 0 1 -300 0 #
plane-surface $-1 -1 $-1 2.815000000000001279 8.043720488663279156 8.61736891752327594 1.700960357273690912e-16 -0.6427876096865392519 -0.7660444431189782355 -1.427275208435528357e-16 -0.7660444431189782355 0.6427876096865392519 forward_v I I I I #
coedge $-1 -1 $-1 $407 $290 $395 $408 reversed $351 0 $-1 #
loop $-1 -1 $-1 $-1 $385 $409 #
straight-curve $-1 -1 $-1 1.017757898943784767 10.67428196389456474 9.13162899824245855 0.0985583293501179486 0.935117516412730887 -0.3403549415151775892 I I #
point $-1 -1 $-1 0.315000000000001279 4.006542916033325241 11.55848754151846691 #
point $-1 -1 $-1 0.4140405303951233407 4.946235536819232337 11.21646739819279048 #
ATTRIB_CUSTOM-attrib $-1 -1 $-1 $-1 $300 @22 generic_tag_attrib_def 3 3 -1 @23 generic_tag_attrib_def  1 4 @4 5482 0 1 -300 0 #
face $410 1673 $-1 $318 $411 $6 $-1 $412 forward single #
plane-surface $-1 -1 $-1 2.814999999999997726 5.988925800066919436 13.92099946546277422 -1.584565254160307951e-16 0.7005281706500894323 0.7136247488180600396 1.555485008908540453e-16 0.7136247488180601506 -0.7005281706500895433 forward_v I I I I #
coedge $-1 -1 $-1 $369 $413 $414 $415 forward $301 0 $-1 #
coedge $-1 -1 $-1 $306 $303 $413 $416 reversed $241 0 $-1 #
coedge $-1 -1 $-1 $417 $414 $303 $361 reversed $418 0 $-1 #
edge $-1 1622 $-1 $401 0 $419 3.931000375562406113 $303 $420 forward @7 unknown #
coedge $-1 -1 $-1 $362 $362 $304 $363 forward $421 0 $-1 #
edge $-1 1637 $-1 $422 -3.141592653589793116 $422 3.141592653589793116 $362 $423 forward @7 unknown #
coedge $-1 -1 $-1 $413 $369 $305 $365 forward $301 0 $-1 #
edge $-1 1636 $-1 $314 0.7669919609397979343 $366 1.835236234010451106 $364 $424 forward @7 unknown #
vertex $-1 1560 $-1 $416 0 $425 #
ellipse-curve $-1 -1 $-1 2.199999999999999289 9.963022949970266495 7.922649615841649506 -1 0 -2.220446049250313081e-16 2.769809444286121397e-17 -1.494804218294909504 -0.1247411278117428468 1 I I #
coedge $-1 -1 $-1 $312 $311 $426 $427 forward $313 0 $-1 #
coedge $-1 -1 $-1 $364 $358 $311 $370 reversed $301 0 $-1 #
edge $-1 1640 $-1 $314 0.6150000000000002132 $428 1.884999999999999787 $311 $429 forward @7 tangent #
point $-1 -1 $-1 2.199999999999999289 10.16569555456053919 9.820882590048725547 #
coedge $-1 -1 $-1 $430 $332 $316 $373 forward $396 0 $-1 #
edge $-1 1620 $-1 $334 -3.141592653589793116 $374 -0 $316 $431 forward @7 unknown #
vertex $-1 1549 $-1 $317 1 $432 #
straight-curve $-1 -1 $-1 2.814999999999997726 5.988925800066919436 13.92099946546277422 -1 0 -2.220446049250313081e-16 I I #
ATTRIB_CUSTOM-attrib $-1 -1 $-1 $-1 $318 @22 generic_tag_attrib_def 3 3 -1 @23 generic_tag_attrib_def  1 4 @4 5489 0 1 -300 0 #
cone-surface $-1 -1 $-1 2.815000000000001279 4.676340553206852491 12.35672128193113295 -1 0 -2.220446049250313081e-16 -3.473395312551291e-16 1.312585246860066279 1.564278183531642386 1 I I 0 1 2.042020143325661508 forward I I I I #
ATTRIB_CUSTOM-attrib $-1 -1 $-1 $-1 $320 @22 generic_tag_attrib_def 3 3 -1 @23 generic_tag_attrib_def  1 4 @4 5659 0 1 -300 0 #
face $433 1660 $-1 $434 $435 $6 $-1 $436 reversed single #
loop $-1 -1 $-1 $-1 $437 $320 #
plane-surface $-1 -1 $-1 1.364999999999998437 5.098549528602093872 11.48028297066433723 2.086536767333740533e-16 -0.3420201433256712109 -0.9396926207859075397 -7.594372760115125996e-17 -0.9396926207859075397 0.3420201433256711554 forward_v I I I I #
coedge $-1 -1 $-1 $438 $439 $440 $441 reversed $321 0 $-1 #
coedge $-1 -1 $-1 $442 $323 $325 $390 reversed $265 0 $-1 #
coedge $-1 -1 $-1 $323 $443 $444 $445 reversed $265 0 $-1 #
coedge $-1 -1 $-1 $446 $326 $323 $386 forward $351 0 $-1 #
edge $-1 1596 $-1 $393 1.49169987085914979 $447 1.570796326794858588 $385 $448 forward @7 unknown #
coedge $-1 -1 $-1 $325 $324 $449 $450 reversed $207 0 $-1 #
coedge $-1 -1 $-1 $451 $452 $324 $389 forward $453 0 $-1 #
edge $-1 1593 $-1 $454 0 $392 0.4950735677514508382 $324 $455 forward @7 tangent #
edge $-1 1595 $-1 $456 0 $393 1.035492773181958981 $383 $457 forward @7 tangent #
coedge $-1 -1 $-1 $326 $458 $451 $459 forward $351 0 $-1 #
vertex $-1 1530 $-1 $459 1 $460 #
vertex $-1 1529 $-1 $327 1 $461 #
straight-curve $-1 -1 $-1 0.5544653162865991192 7.424326089375675508 12.09698017518812563 -0.1044920417273352137 -0.7089577905344363051 0.6974670346734557214 I I #
coedge $-1 -1 $-1 $332 $462 $350 $408 forward $396 0 $-1 #
loop $-1 -1 $-1 $-1 $444 $463 #
straight-curve $-1 -1 $-1 0.315000000000001279 4.006542916033325241 11.55848754151846691 1.700960357273690665e-16 -0.6427876096865394739 -0.7660444431189781245 I I #
point $-1 -1 $-1 0.315000000000001279 3.363755306346785545 10.79244309839948812 #
coedge $-1 -1 $-1 $344 $464 $339 $400 reversed $351 0 $-1 #
edge $-1 1627 $-1 $346 -1.570796326794893005 $401 -0.78138860482228778 $339 $465 forward @7 unknown #
vertex $-1 1551 $-1 $400 1 $466 #
straight-curve $-1 -1 $-1 2.815000000000001279 8.468218731675358768 7.797908488029905882 -1 0 -2.220446049250313081e-16 I I #
ATTRIB_CUSTOM-attrib $-1 -1 $-1 $-1 $342 @22 generic_tag_attrib_def 3 3 -1 @23 generic_tag_attrib_def  1 4 @4 5485 0 1 -300 0 #
cone-surface $-1 -1 $-1 2.815000000000001279 7.272375357039432942 7.698115585780502812 -1 0 -2.220446049250313081e-16 -2.215847555429089279e-17 1.195843374635926271 0.09979290224940284837 1 I I 0 -1 1.199999999999999512 forward I I I I #
straight-curve $-1 -1 $-1 0.8959529666943915061 8.448871152950502506 8.277407144548636353 0.1048161652064491106 0.761824775093405071 -0.6392468878025902024 I I #
point $-1 -1 $-1 0.8402100447656231097 8.043720488663280932 8.61736891752327594 #
coedge $-1 -1 $-1 $467 $350 $468 $469 forward $351 0 $-1 #
edge $-1 1618 $-1 $470 11.22276681158286848 $292 11.54202014332566151 $395 $471 forward @7 unknown #
face $472 1667 $-1 $76 $351 $6 $-1 $473 reversed single #
ATTRIB_CUSTOM-attrib $-1 -1 $-1 $-1 $356 @22 generic_tag_attrib_def 3 3 -1 @23 generic_tag_attrib_def  1 4 @4 5265 0 1 -300 0 #
loop $-1 -1 $-1 $421 $474 $356 #
cone-surface $-1 -1 $-1 2.815000000000001279 10 7.499999999999992895 -1 0 -2.220446049250313081e-16 8.504801786368454558e-17 -0.3213938048432696259 -0.3830222215594891177 1 I I 0 -1 0.5 forward I I I I #
coedge $-1 -1 $-1 $358 $364 $359 $416 forward $301 0 $-1 #
coedge $-1 -1 $-1 $360 $417 $358 $415 reversed $418 0 $-1 #
edge $-1 1624 $-1 $419 -0.3872473800023594759 $428 0.6809968930682936961 $358 $475 forward @7 unknown #
edge $-1 1638 $-1 $366 0.6150000000000002132 $419 1.884999999999999787 $413 $476 forward @7 unknown #
coedge $-1 -1 $-1 $414 $360 $464 $477 reversed $418 0 $-1 #
loop $-1 -1 $-1 $478 $360 $479 #
vertex $-1 1550 $-1 $415 0 $480 #
ellipse-curve $-1 -1 $-1 0.9299999999999997158 9.963022949970266495 7.922649615841649506 1 0 2.220446049250313081e-16 2.769809444286121397e-17 -1.494804218294909504 -0.1247411278117428468 1 I I #
loop $-1 -1 $-1 $-1 $362 $356 #
vertex $-1 1561 $-1 $363 0 $481 #
ellipse-curve $-1 -1 $-1 2.199999999999999289 10 7.499999999999992895 1 0 2.220446049250313081e-16 8.504801786368454558e-17 -0.3213938048432696259 -0.3830222215594891177 1 I I #
straight-curve $-1 -1 $-1 2.199999999999995737 9.618937523525598721 10.35877879160165804 1.557212534772189397e-16 0.7128601848251404638 -0.7013061791336697715 I I #
point $-1 -1 $-1 2.199999999999999289 10.92720436450007782 9.071716280520117692 #
coedge $-1 -1 $-1 $464 $446 $368 $427 reversed $351 0 $-1 #
edge $-1 1626 $-1 $428 -3.5642262776969722 $374 2.320889606812671424 $368 $482 forward @7 unknown #
vertex $-1 1552 $-1 $427 0 $483 #
straight-curve $-1 -1 $-1 2.814999999999997726 10.16569555456053919 9.820882590048725547 -1 0 -2.220446049250313081e-16 I I #
coedge $-1 -1 $-1 $444 $372 $446 $484 forward $396 0 $-1 #
ellipse-curve $-1 -1 $-1 0.315000000000001279 4.676340553206852491 12.35672128193113295 -1 0 -2.220446049250313081e-16 -3.473395312551291e-16 1.312585246860066279 1.564278183531642386 1 I I #
point $-1 -1 $-1 0.3149999999999977263 5.988925800066919436 13.92099946546277422 #
ATTRIB_CUSTOM-attrib $-1 -1 $-1 $-1 $379 @22 generic_tag_attrib_def 3 3 -1 @23 generic_tag_attrib_def  1 4 @4 5298 0 1 -300 0 #
face $485 1661 $-1 $486 $453 $6 $-1 $487 reversed single #
loop $-1 -1 $-1 $-1 $488 $379 #
cone-surface $-1 -1 $-1 1.364999999999998437 9.963022949970266495 7.922649615841649506 -1 0 -2.220446049250313081e-16 -3.061728643092643986e-16 1.157017697435770653 1.378879997614160802 1 I I 0 -1 1.800000000000000044 forward I I I I #
coedge $-1 -1 $-1 $489 $468 $462 $490 reversed $380 0 $-1 #
coedge $-1 -1 $-1 $491 $382 $443 $492 reversed $321 0 $-1 #
coedge $-1 -1 $-1 $382 $491 $489 $493 forward $321 0 $-1 #
coedge $-1 -1 $-1 $462 $444 $382 $441 forward $396 0 $-1 #
edge $-1 1600 $-1 $494 -1.300014701175836507 $495 -0.415978940931378105 $440 $496 forward @7 unknown #
coedge $-1 -1 $-1 $443 $383 $497 $498 reversed $265 0 $-1 #
coedge $-1 -1 $-1 $384 $442 $438 $492 forward $265 0 $-1 #
coedge $-1 -1 $-1 $440 $430 $384 $445 forward $396 0 $-1 #
edge $-1 1599 $-1 $447 -3.798422912684365402e-14 $494 2.968515993889163873 $444 $499 forward @7 unknown #
coedge $-1 -1 $-1 $426 $385 $430 $484 reversed $351 0 $-1 #
vertex $-1 1533 $-1 $445 0 $500 #
ellipse-curve $-1 -1 $-1 0.3149999999999941735 4.676340553206852491 12.35672128193113295 0.9944916146008544455 -0.08029384090544101904 0.06737453228956295781 0.1836032284787740554 1.334464850595955543 -1.119748963954110055 0.9944916146008544455 I I #
coedge $-1 -1 $-1 $501 $497 $387 $450 forward $502 0 $-1 #
edge $503 1594 $-1 $456 0 $454 51.43557269867295645 $387 $504 forward @7 unknown #
coedge $-1 -1 $-1 $505 $388 $391 $459 reversed $453 0 $-1 #
coedge $-1 -1 $-1 $388 $505 $501 $506 reversed $453 0 $-1 #
loop $-1 -1 $-1 $-1 $451 $434 #
vertex $-1 1531 $-1 $450 1 $507 #
straight-curve $-1 -1 $-1 1.364999999999998437 9.564667229952739547 9.991329587185500571 -1 0 -2.220446049250313081e-16 I I #
vertex $-1 1532 $-1 $498 1 $508 #
straight-curve $-1 -1 $-1 1.364999999999998437 5.898030043896470787 13.59853808327136804 -1 0 -2.220446049250313081e-16 I I #
coedge $-1 -1 $-1 $391 $509 $488 $510 forward $351 0 $-1 #
edge $-1 1611 $-1 $511 -0.5999897179186615137 $392 1.491699870859152011 $391 $512 forward @7 unknown #
point $-1 -1 $-1 0.8699264322485475986 9.564667229952739547 9.991329587185500571 #
point $-1 -1 $-1 0.3295072268180412323 5.898030043896470787 13.59853808327136804 #
coedge $-1 -1 $-1 $395 $440 $437 $490 forward $396 0 $-1 #
face $513 1665 $-1 $479 $396 $6 $-1 $514 reversed single #
coedge $-1 -1 $-1 $399 $426 $417 $477 forward $351 0 $-1 #
ellipse-curve $-1 -1 $-1 0.8402100447656231097 7.272375357039432942 7.698115585780502812 -0.9944916146008544455 0.08029384090544101904 -0.06737453228956295781 0.1264760772248655352 0.9192533317427764583 -0.7713451316238435496 0.9944916146008544455 I I #
point $-1 -1 $-1 0.9299999999999997158 8.468218731675358768 7.797908488029907659 #
coedge $-1 -1 $-1 $509 $407 $515 $516 forward $351 0 $-1 #
coedge $-1 -1 $-1 $437 $517 $407 $469 reversed $380 0 $-1 #
edge $-1 1606 $-1 $470 -6.976581556697073694 $518 -6.028257403840654227 $407 $519 forward @7 unknown #
vertex $-1 1538 $-1 $408 0 $520 #
straight-curve $-1 -1 $-1 0.3149999999999941735 11.42561045491556726 20.40018793468036051 1.700960357273690912e-16 -0.6427876096865392519 -0.7660444431189782355 I I #
ATTRIB_CUSTOM-attrib $-1 -1 $-1 $-1 $409 @22 generic_tag_attrib_def 3 3 -1 @23 generic_tag_attrib_def  1 4 @4 5542 0 1 -300 0 #
plane-surface $-1 -1 $-1 0.9299999999999997158 22.64482290565403844 24.69292744315508159 0.9944916146008544455 -0.08029384090544101904 0.06737453228956295781 -0.1048161652064491106 -0.761824775093405071 0.6392468878025902024 forward_v I I I I #
coedge $-1 -1 $-1 $474 $474 $521 $522 forward $411 0 $-1 #
straight-curve $-1 -1 $-1 0.9299999999999997158 10.65115112561854716 9.343295260969100013 -1.557212534772189397e-16 -0.7128601848251404638 0.7013061791336697715 I I #
straight-curve $-1 -1 $-1 2.814999999999997726 10.92720436450007782 9.071716280520117692 -1 0 -2.220446049250313081e-16 I I #
edge $-1 1623 $-1 $428 19.41407575852162992 $401 22.05488089742741664 $464 $523 forward @7 unknown #
loop $-1 -1 $-1 $-1 $521 $479 #
face $524 1666 $-1 $409 $418 $6 $-1 $525 reversed single #
point $-1 -1 $-1 0.9299999999999961631 10.92720436450007782 9.071716280520117692 #
point $-1 -1 $-1 2.199999999999999289 10.32139380484326807 7.88302222155948229 #
straight-curve $-1 -1 $-1 0.5575350895717647859 7.636101778159229525 12.30405277662818619 -0.1045009158814977773 -0.7097175036922205305 0.696692632035685655 I I #
point $-1 -1 $-1 0.9299999999999961631 10.16569555456053919 9.820882590048725547 #
edge $-1 1621 $-1 $374 8.457979856674338492 $447 8.757979856674328545 $430 $471 forward @7 unknown #
ATTRIB_CUSTOM-attrib $-1 -1 $-1 $-1 $434 @22 generic_tag_attrib_def 3 3 -1 @23 generic_tag_attrib_def  1 4 @4 6053 0 1 -300 0 #
face $526 1662 $-1 $527 $528 $6 $-1 $529 reversed single #
cone-surface $-1 -1 $-1 1.364999999999998437 9.424405994126004771 9.848757550220472723 -1 0 -2.220446049250313081e-16 -3.40192071454738207e-17 0.1285575219373078504 0.1532088886237956693 1 I I 0 1 0.2000000000000000111 forward I I I I #
coedge $-1 -1 $-1 $530 $531 $458 $510 reversed $435 0 $-1 #
coedge $-1 -1 $-1 $532 $437 $439 $493 reversed $380 0 $-1 #
edge $-1 1603 $-1 $495 -2.408343936559003584 $470 -2.089090604816160823 $462 $533 forward @7 unknown #
coedge $-1 -1 $-1 $439 $438 $534 $535 reversed $321 0 $-1 #
edge $-1 1598 $-1 $536 0 $494 1.050000000000000711 $438 $537 forward @7 unknown #
edge $-1 1602 $-1 $538 0 $495 1.050000000000000711 $489 $539 forward @7 unknown #
vertex $-1 1535 $-1 $445 1 $540 #
vertex $-1 1536 $-1 $441 1 $541 #
straight-curve $-1 -1 $-1 0.315000000000001279 4.17914111114994391 12.2308992086820929 -1.700960357273689925e-16 0.642787609686539807 0.7660444431189777914 I I #
coedge $-1 -1 $-1 $449 $534 $442 $498 forward $502 0 $-1 #
edge $542 1597 $-1 $536 -2.968515993889163873 $456 0.07909645593574680944 $442 $543 forward @7 unknown #
ellipse-curve $-1 -1 $-1 0.315000000000001279 4.676340553206852491 12.35672128193113295 1 0 2.220446049250313081e-16 -2.963107205369197803e-16 1.119748963954110055 1.334464850595955543 1 I I #
point $-1 -1 $-1 0.3149999999999977263 5.796089517161014726 13.69118613252704719 #
coedge $-1 -1 $-1 $544 $449 $452 $506 forward $502 0 $-1 #
loop $-1 -1 $-1 $-1 $545 $546 #
DXID-attrib $-1 -1 $-1 $-1 $450 @18 ASM_EDGE_FROM_STEP @3 506 #
straight-curve $-1 -1 $-1 1.364999999999998437 5.898030043896470787 13.59853808327136804 1.557212534772201908e-17 0.07128601848251343853 -0.07013061791336754058 F 0 F 51.43557269867295645 #
coedge $-1 -1 $-1 $452 $451 $531 $547 reversed $453 0 $-1 #
edge $548 1612 $-1 $454 0.07909645593574450573 $549 2.170786044713540974 $452 $550 forward @7 unknown #
point $-1 -1 $-1 1.364999999999998437 9.564667229952739547 9.991329587185500571 #
point $-1 -1 $-1 1.364999999999998437 5.898030043896470787 13.59853808327136804 #
coedge $-1 -1 $-1 $458 $467 $551 $552 forward $351 0 $-1 #
edge $-1 1607 $-1 $553 3.040662389063625515 $511 3.741582371508434424 $458 $554 forward @7 unknown #
vertex $-1 1541 $-1 $510 1 $555 #
ellipse-curve $-1 -1 $-1 0.8682608686356765304 9.424405994126004771 9.848757550220472723 0.9944916146008544455 -0.08029384090544101904 0.06737453228956295781 0.02107934620414426627 0.1532088886237956693 -0.1285575219373078504 0.9944916146008544455 I I #
ATTRIB_CUSTOM-attrib $-1 -1 $-1 $-1 $463 @22 generic_tag_attrib_def 3 3 -1 @23 generic_tag_attrib_def  1 4 @4 5481 0 1 -300 0 #
plane-surface $-1 -1 $-1 0.315000000000001279 7.111588122540741352 10.31330594467769757 1 0 2.220446049250313081e-16 1.700960357273690912e-16 -0.6427876096865392519 -0.7660444431189782355 forward_v I I I I #
coedge $-1 -1 $-1 $556 $557 $467 $516 reversed $528 0 $-1 #
edge $-1 1613 $-1 $518 -4.538595443616618041 $558 -0.4929265935083829708 $467 $559 forward @7 unknown #
coedge $-1 -1 $-1 $468 $532 $556 $560 forward $380 0 $-1 #
vertex $-1 1540 $-1 $469 1 $561 #
straight-curve $-1 -1 $-1 1.002600222802904284 10.73567862037822707 9.428535774541728642 0.0985583293501178237 0.9351175164127323303 -0.340354941515174314 I I #
point $-1 -1 $-1 0.315000000000001279 4.211755002028791495 11.80304978224721069 #
coedge $-1 -1 $-1 $521 $521 $474 $522 reversed $478 0 $-1 #
edge $-1 1625 $-1 $562 -3.141592653589793116 $562 3.141592653589793116 $474 $563 forward @7 unknown #
straight-curve $-1 -1 $-1 0.9299999999999997158 22.64482290565403844 24.69292744315508159 1.700960357273690912e-16 -0.6427876096865392519 -0.7660444431189782355 I I #
ATTRIB_CUSTOM-attrib $-1 -1 $-1 $-1 $479 @22 generic_tag_attrib_def 3 3 -1 @23 generic_tag_attrib_def  1 4 @4 5944 0 1 -300 0 #
plane-surface $-1 -1 $-1 0.9299999999999997158 24.87022825307681728 22.82559063691267909 1 0 2.220446049250313081e-16 -1.427275208435528357e-16 -0.7660444431189782355 0.6427876096865392519 forward_v I I I I #
ATTRIB_CUSTOM-attrib $-1 -1 $-1 $-1 $486 @22 generic_tag_attrib_def 3 3 -1 @23 generic_tag_attrib_def  1 4 @4 5443 0 1 -300 0 #
face $564 1663 $-1 $546 $565 $6 $-1 $566 reversed single #
loop $-1 -1 $-1 $-1 $515 $486 #
plane-surface $-1 -1 $-1 1.364999999999998437 8.180640290438194739 8.894101749152763858 1.700960357273690912e-16 -0.6427876096865392519 -0.7660444431189782355 -1.427275208435528357e-16 -0.7660444431189782355 0.6427876096865392519 forward_v I I I I #
coedge $-1 -1 $-1 $567 $488 $568 $569 reversed $435 0 $-1 #
coedge $-1 -1 $-1 $488 $567 $505 $547 forward $435 0 $-1 #
coedge $-1 -1 $-1 $517 $489 $570 $571 reversed $380 0 $-1 #
straight-curve $-1 -1 $-1 0.315000000000001279 6.174858027527704962 11.08853871416767234 7.594372760115127228e-17 0.9396926207859077618 -0.3420201433256712664 I I #
coedge $-1 -1 $-1 $497 $570 $491 $535 forward $502 0 $-1 #
edge $572 1601 $-1 $538 -8.840357602444580465 $536 0 $491 $573 forward @7 unknown #
vertex $-1 1534 $-1 $535 1 $574 #
straight-curve $-1 -1 $-1 1.364999999999998437 3.343507768823767989 11.23503017087336531 -1 0 -2.220446049250313081e-16 I I #
vertex $-1 1537 $-1 $571 1 $575 #
straight-curve $-1 -1 $-1 1.364999999999998437 3.911755002028725059 11.91224085252709486 -1 0 -2.220446049250313081e-16 I I #
point $-1 -1 $-1 0.315000000000001279 3.343507768823767989 11.23503017087336531 #
point $-1 -1 $-1 0.315000000000001279 3.911755002028725059 11.91224085252709486 #
DXID-attrib $-1 -1 $-1 $-1 $498 @18 ASM_EDGE_FROM_STEP @3 508 #
ellipse-curve $-1 -1 $-1 1.364999999999998437 4.676340553206852491 12.35672128193113295 -1 0 -2.220446049250313081e-16 -2.963107205369197803e-16 1.119748963954110055 1.334464850595955543 1 F -2.968515993889163873 F 0.07909645593574680944 #
coedge $-1 -1 $-1 $545 $501 $567 $576 forward $502 0 $-1 #
coedge $-1 -1 $-1 $577 $544 $578 $579 forward $502 0 $-1 #
face $580 1664 $-1 $463 $502 $6 $-1 $581 forward single #
edge $-1 1610 $-1 $549 0 $511 0.4793414738235917127 $505 $582 forward @7 tangent #
DXID-attrib $-1 -1 $-1 $-1 $506 @18 ASM_EDGE_FROM_STEP @3 504 #
vertex $-1 1544 $-1 $506 1 $583 #
ellipse-curve $-1 -1 $-1 1.364999999999998437 9.424405994126004771 9.848757550220472723 -1 0 -2.220446049250313081e-16 -3.40192071454738207e-17 0.1285575219373078504 0.1532088886237956693 1 F 0.07909645593574450573 F 2.170786044713540974 #
coedge $-1 -1 $-1 $584 $568 $509 $552 reversed $565 0 $-1 #
edge $-1 1616 $-1 $558 -1.570796326794896558 $553 0.1009302645261760667 $509 $585 forward @7 unknown #
vertex $-1 1542 $-1 $510 0 $586 #
ellipse-curve $-1 -1 $-1 1.042237444042967809 9.963022949970266495 7.922649615841649506 -0.9944916146008544455 0.08029384090544101904 -0.06737453228956295781 0.189714115837298386 1.378879997614160802 -1.157017697435770653 0.9944916146008544455 I I #
point $-1 -1 $-1 0.8856585261764067241 9.478267689710428101 9.656146756782590046 #
coedge $-1 -1 $-1 $587 $515 $517 $560 reversed $528 0 $-1 #
coedge $-1 -1 $-1 $515 $587 $584 $588 forward $528 0 $-1 #
vertex $-1 1545 $-1 $516 1 $589 #
straight-curve $-1 -1 $-1 0.8841834140112503349 8.55616398167527592 8.578999958337398368 0.1048161652064491106 0.761824775093405071 -0.6392468878025902024 I I #
edge $-1 1605 $-1 $590 0 $518 0.9565347558121075622 $556 $591 forward @7 unknown #
point $-1 -1 $-1 0.4084652441878908746 5.098549528602093872 11.48028297066433723 #
vertex $-1 1553 $-1 $522 0 $592 #
ellipse-curve $-1 -1 $-1 0.9299999999999997158 10 7.499999999999992895 -1 0 -2.220446049250313081e-16 8.504801786368454558e-17 -0.3213938048432696259 -0.3830222215594891177 1 I I #
ATTRIB_CUSTOM-attrib $-1 -1 $-1 $-1 $527 @22 generic_tag_attrib_def 3 3 -1 @23 generic_tag_attrib_def  1 4 @4 5895 0 1 -300 0 #
loop $-1 -1 $-1 $-1 $551 $527 #
cone-surface $-1 -1 $-1 1.364999999999998437 8.309197812375501258 9.047310637776558195 -1 0 -2.220446049250313081e-16 -3.40192071454738207e-17 0.1285575219373078504 0.1532088886237956693 1 I I 0 1 0.2000000000000000111 forward I I I I #
coedge $-1 -1 $-1 $531 $530 $544 $576 reversed $435 0 $-1 #
coedge $-1 -1 $-1 $551 $578 $530 $569 forward $565 0 $-1 #
edge $-1 1608 $-1 $593 0 $553 0.5115111907194229701 $568 $594 forward @7 tangent #
coedge $-1 -1 $-1 $534 $577 $532 $571 forward $502 0 $-1 #
edge $595 1604 $-1 $590 0 $538 12.62960355675452639 $532 $596 forward @7 unknown #
DXID-attrib $-1 -1 $-1 $-1 $535 @18 ASM_EDGE_FROM_STEP @3 514 #
straight-curve $-1 -1 $-1 1.364999999999998437 3.343507768823767989 11.23503017087336531 1.70096035727369011e-17 -0.0642787609686539807 -0.07660444431189779302 F -8.840357602444580465 F 0 #
point $-1 -1 $-1 1.364999999999998437 3.343507768823767989 11.23503017087336531 #
point $-1 -1 $-1 1.364999999999998437 3.911755002028725059 11.91224085252709486 #
edge $597 1609 $-1 $549 0.9708066088762540291 $593 1.671726591321064603 $567 $598 forward @7 unknown #
coedge $-1 -1 $-1 $570 $545 $587 $599 forward $502 0 $-1 #
coedge $-1 -1 $-1 $568 $584 $545 $579 reversed $565 0 $-1 #
edge $600 1617 $-1 $593 1.469866062268724294 $601 3.141592653589793116 $578 $602 forward @7 unknown #
ATTRIB_CUSTOM-attrib $-1 -1 $603 $-1 $546 @22 generic_tag_attrib_def 3 3 -1 @23 generic_tag_attrib_def  1 4 @4 5863 0 1 -300 0 #
plane-surface $-1 -1 $-1 1.364999999999998437 8.309197812375501258 9.047310637776558195 -1 0 -2.220446049250313081e-16 -1.700960357273691035e-17 0.06427876096865392519 0.07660444431189783465 forward_v I I I I #
straight-curve $-1 -1 $-1 1.364999999999998437 9.478267689710428101 9.656146756782590046 -1 0 -2.220446049250313081e-16 I I #
point $-1 -1 $-1 1.364999999999998437 9.478267689710428101 9.656146756782590046 #
coedge $-1 -1 $-1 $578 $551 $557 $588 reversed $565 0 $-1 #
ellipse-curve $-1 -1 $-1 0.8325167387514227357 8.309197812375501258 9.047310637776558195 0.9944916146008544455 -0.08029384090544101904 0.06737453228956295781 0.02107934620414426627 0.1532088886237956693 -0.1285575219373078504 0.9944916146008544455 I I #
point $-1 -1 $-1 0.853488809280577243 8.474580326134978137 8.934844535583071234 #
coedge $-1 -1 $-1 $557 $556 $577 $599 reversed $528 0 $-1 #
edge $-1 1615 $-1 $601 0 $558 0.5324832612485774774 $584 $604 forward @7 tangent #
point $-1 -1 $-1 0.8325167387514227357 8.180640290438194739 8.894101749152763858 #
vertex $-1 1539 $-1 $599 1 $605 #
straight-curve $-1 -1 $-1 1.364999999999998437 5.098549528602093872 11.48028297066433723 -1 0 -2.220446049250313081e-16 I I #
point $-1 -1 $-1 0.9299999999999997158 10.32139380484326807 7.88302222155948229 #
vertex $-1 1543 $-1 $579 0 $606 #
straight-curve $-1 -1 $-1 1.364999999999998437 8.474580326134978137 8.934844535583071234 -1 0 -2.220446049250313081e-16 I I #
DXID-attrib $-1 -1 $-1 $-1 $571 @18 ASM_EDGE_FROM_STEP @3 511 #
straight-curve $-1 -1 $-1 1.364999999999998437 5.098549528602093872 11.48028297066433723 -7.594372760115125071e-18 -0.09396926207859072899 0.03420201433256711554 F 0 F 12.62960355675452639 #
DXID-attrib $-1 -1 $-1 $-1 $576 @18 ASM_EDGE_FROM_STEP @3 502 #
ellipse-curve $-1 -1 $-1 1.364999999999998437 9.963022949970266495 7.922649615841649506 1 0 2.220446049250313081e-16 -3.061728643092643986e-16 1.157017697435770653 1.378879997614160802 1 F 0.9708066088762540291 F 1.671726591321064603 #
edge $607 1614 $-1 $601 0 $590 40.23383746884520207 $587 $608 forward @7 unknown #
DXID-attrib $-1 -1 $-1 $-1 $579 @18 ASM_EDGE_FROM_STEP @3 500 #
vertex $-1 1546 $-1 $579 1 $609 #
ellipse-curve $-1 -1 $-1 1.364999999999998437 8.309197812375501258 9.047310637776558195 -1 0 -2.220446049250313081e-16 -3.40192071454738207e-17 0.1285575219373078504 0.1532088886237956693 1 F 1.469866062268724294 F 3.141592653589793116 #
DXID-attrib $-1 -1 $-1 $580 $546 @18 ASM_FACE_FROM_STEP @25 Pieza4_Candado_sldprt-103 #
straight-curve $-1 -1 $-1 1.364999999999998437 8.180640290438194739 8.894101749152763858 -1 0 -2.220446049250313081e-16 I I #
point $-1 -1 $-1 1.364999999999998437 5.098549528602093872 11.48028297066433723 #
point $-1 -1 $-1 1.364999999999998437 8.474580326134978137 8.934844535583071234 #
DXID-attrib $-1 -1 $-1 $-1 $599 @18 ASM_EDGE_FROM_STEP @3 513 #
straight-curve $-1 -1 $-1 1.364999999999998437 8.180640290438194739 8.894101749152763858 -1.427275208435528357e-17 -0.07660444431189783465 0.06427876096865392519 F 0 F 40.23383746884520207 #
point $-1 -1 $-1 1.364999999999998437 8.180640290438194739 8.894101749152763858 #
End-of-ASM-data 