22700 0 2 4           
16 Autodesk Neutron 20 ASM 227.1.1.65535 NT 24 Wed Aug 25 06:16:31 2021 
10 9.999999999999999547e-07 1.000000000000000036e-10 
asmheader $-1 -1 @13 227.1.1.65535 #
body $2 1720 $-1 $3 $-1 $-1 #
ATTRIB_CUSTOM-attrib $-1 -1 $4 $-1 $1 @20 Timestamp_attrib_def 1 1448291859001 #
lump $-1 -1 $-1 $-1 $5 $1 #
ATTRIB_CUSTOM-attrib $6 -1 $-1 $2 $1 @22 generic_tag_attrib_def 3 3 -1 @23 generic_tag_attrib_def  1 3 @3 770 2 0 0 #
shell $-1 -1 $-1 $-1 $-1 $7 $-1 $3 #
ATTRIB_CUSTOM-attrib $-1 -1 $-1 $-1 $4 @22 generic_tag_attrib_def 3 3 -1 @23 generic_tag_attrib_def  1 0 @0  0 1 776 0 #
face $8 1447 $-1 $9 $10 $5 $-1 $11 reversed single #
ATTRIB_CUSTOM-attrib $12 -1 $-1 $-1 $7 @22 generic_tag_attrib_def 3 3 -1 @23 generic_tag_attrib_def  2 1 @1 1 0 5 375 -417 514 536 770 0 1 @1 1 0 5 378 -417 514 536 770 0 #
face $13 1448 $-1 $14 $15 $5 $-1 $16 forward single #
loop $-1 -1 $-1 $-1 $17 $7 #
plane-surface $-1 -1 $-1 -0.04470235630136709659 -0.2971000007402334608 5.21339110025746244 9.916112095558370959e-18 1 9.957992501029628319e-17 0.6999999999999998446 -6.941278466890896803e-18 3.955193370856954163e-16 forward_v I I I I #
ATTRIB_CUSTOM-attrib $-1 -1 $-1 $-1 $8 @22 generic_tag_attrib_def 3 3 -1 @23 generic_tag_attrib_def  1 0 @0  0 17 387 388 418 422 424 427 428 438 449 487 491 492 498 516 530 539 776 0 #
ATTRIB_CUSTOM-attrib $18 -1 $-1 $-1 $9 @22 generic_tag_attrib_def 3 3 -1 @23 generic_tag_attrib_def  1 1 @1 3 0 5 375 -417 514 536 770 0 #
face $19 1449 $-1 $20 $21 $5 $-1 $22 forward single #
loop $-1 -1 $-1 $-1 $23 $9 #
plane-surface $-1 -1 $-1 0.217797643698632859 -0.2971000007402334608 5.21339110025746244 0.8660254037844390407 4.120235752362040946e-17 -0.4999999999999994449 -0.3499999999999995337 6.38377605695516221e-17 -0.6062177826491073063 forward_v I I I I #
coedge $-1 -1 $-1 $24 $25 $26 $27 forward $10 0 $-1 #
ATTRIB_CUSTOM-attrib $-1 -1 $-1 $-1 $13 @22 generic_tag_attrib_def 3 3 -1 @23 generic_tag_attrib_def  1 0 @0  0 17 387 388 418 422 424 427 428 438 449 487 491 492 498 516 530 539 776 0 #
ATTRIB_CUSTOM-attrib $28 -1 $-1 $-1 $14 @22 generic_tag_attrib_def 3 3 -1 @23 generic_tag_attrib_def  1 1 @1 8 0 5 375 -417 514 536 770 0 #
face $29 1450 $-1 $30 $31 $5 $-1 $32 forward single #
loop $-1 -1 $-1 $-1 $33 $14 #
plane-surface $-1 -1 $-1 0.08654764369863277018 -0.2971000007402334608 5.440722768750877236 0.8660254037844384856 -5.837756748667588605e-17 0.5000000000000004441 0.3500000000000001998 5.689648210266071143e-17 -0.6062177826491068622 forward_v I I I I #
coedge $-1 -1 $-1 $34 $35 $36 $37 forward $15 0 $-1 #
coedge $-1 -1 $-1 $38 $17 $39 $40 forward $10 0 $-1 #
coedge $-1 -1 $-1 $17 $41 $42 $43 forward $10 0 $-1 #
coedge $-1 -1 $-1 $44 $45 $17 $27 reversed $46 0 $-1 #
edge $-1 1469 $-1 $47 0.5235987755982987046 $48 1.570796326794897002 $17 $49 forward @7 unknown #
ATTRIB_CUSTOM-attrib $-1 -1 $-1 $-1 $19 @22 generic_tag_attrib_def 3 3 -1 @23 generic_tag_attrib_def  1 0 @0  0 17 387 388 418 422 424 427 428 438 449 487 491 492 498 516 530 539 776 0 #
ATTRIB_CUSTOM-attrib $50 -1 $-1 $-1 $20 @22 generic_tag_attrib_def 3 3 -1 @23 generic_tag_attrib_def  1 1 @1 4 0 5 375 -417 514 536 770 0 #
face $51 1451 $-1 $52 $53 $5 $-1 $54 reversed single #
loop $-1 -1 $-1 $-1 $55 $20 #
plane-surface $-1 -1 $-1 0.08654764369863299223 -0.2971000007402332943 4.986059431764047645 5.650276244081363654e-16 9.957992501029628319e-17 -1 -0.6999999999999998446 6.941278466890896803e-18 -3.955193370856954163e-16 forward_v I I I I #
coedge $-1 -1 $-1 $56 $57 $58 $59 forward $21 0 $-1 #
coedge $-1 -1 $-1 $60 $23 $61 $62 forward $15 0 $-1 #
coedge $-1 -1 $-1 $23 $63 $64 $65 forward $15 0 $-1 #
coedge $-1 -1 $-1 $66 $67 $23 $37 reversed $68 0 $-1 #
edge $-1 1475 $-1 $69 0.1902148108885498567 $70 0.3804296217770998245 $23 $71 forward @7 unknown #
coedge $-1 -1 $-1 $72 $24 $73 $74 forward $10 0 $-1 #
coedge $-1 -1 $-1 $75 $76 $24 $40 reversed $77 0 $-1 #
edge $-1 1470 $-1 $48 1.570796326794897002 $78 2.617993877991494855 $24 $49 forward @7 unknown #
coedge $-1 -1 $-1 $25 $72 $66 $79 forward $10 0 $-1 #
coedge $-1 -1 $-1 $64 $58 $25 $43 reversed $80 0 $-1 #
edge $-1 1474 $-1 $69 -0.5235987755982988157 $47 0.5235987755982987046 $25 $49 forward @7 unknown #
coedge $-1 -1 $-1 $45 $26 $57 $81 reversed $46 0 $-1 #
coedge $-1 -1 $-1 $26 $44 $82 $83 reversed $46 0 $-1 #
loop $-1 -1 $-1 $-1 $45 $84 #
vertex $-1 1754 $-1 $81 1 $85 #
vertex $-1 1755 $-1 $83 0 $86 #
ellipse-curve $-1 -1 $-1 -0.04470235630136709659 -0.2971000007402334608 5.21339110025746244 -9.916112095558370959e-18 -1 -9.957992501029628319e-17 0.2273316684934151011 -2.254246307651031996e-18 1.284486726015723142e-16 1 I I #
ATTRIB_CUSTOM-attrib $-1 -1 $-1 $-1 $29 @22 generic_tag_attrib_def 3 3 -1 @23 generic_tag_attrib_def  1 0 @0  0 17 387 388 418 422 424 427 428 438 449 487 491 492 498 516 530 539 776 0 #
ATTRIB_CUSTOM-attrib $87 -1 $-1 $-1 $30 @22 generic_tag_attrib_def 3 3 -1 @23 generic_tag_attrib_def  1 1 @1 3 0 5 383 -417 514 536 770 0 #
face $88 1452 $-1 $89 $90 $5 $-1 $54 reversed single #
loop $-1 -1 $-1 $-1 $91 $30 #
cone-surface $-1 -1 $-1 -0.04470235630136709659 -0.08815222357137186826 5.21339110025746244 9.916112095558370959e-18 1 9.957992501029628319e-17 0.2449158342467075145 -2.428612866367559052e-18 1.383842120043540569e-16 1 I I 0.8660254037844388186 -0.4999999999999999445 0.2449158342467075145 forward I I I I #
coedge $-1 -1 $-1 $92 $93 $94 $95 forward $31 0 $-1 #
coedge $-1 -1 $-1 $96 $33 $63 $97 forward $21 0 $-1 #
coedge $-1 -1 $-1 $33 $98 $44 $81 forward $21 0 $-1 #
coedge $-1 -1 $-1 $42 $64 $33 $59 reversed $80 0 $-1 #
edge $-1 1481 $-1 $47 0.1902148108885497457 $99 0.380429621777099547 $33 $100 forward @7 unknown #
coedge $-1 -1 $-1 $101 $34 $102 $103 forward $15 0 $-1 #
coedge $-1 -1 $-1 $93 $104 $34 $62 reversed $31 0 $-1 #
edge $-1 1476 $-1 $70 0.02900635094610965956 $105 0.2839936490538903513 $34 $106 forward @7 unknown #
coedge $-1 -1 $-1 $35 $101 $56 $97 reversed $15 0 $-1 #
coedge $-1 -1 $-1 $58 $42 $35 $65 reversed $80 0 $-1 #
edge $-1 1480 $-1 $99 0 $69 0.1902148108885498567 $35 $107 forward @7 unknown #
coedge $-1 -1 $-1 $67 $36 $41 $79 reversed $68 0 $-1 #
coedge $-1 -1 $-1 $36 $66 $93 $108 reversed $68 0 $-1 #
loop $-1 -1 $-1 $-1 $67 $109 #
vertex $-1 1759 $-1 $65 1 $110 #
vertex $-1 1760 $-1 $62 0 $111 #
intcurve-curve $-1 -1 $-1 forward { exact_int_cur 22140 full nurbs 2 open 2 
	0.1902148108885498567 2 0.3804296217770998245 2 
	0.1521726436986328146 -0.2971000007402333498 5.099725266010755043 1 
	0.12171597520521793 -0.2971000007402334053 5.046972768750877414 1.037954849302054283 
	0.08654764369863299223 -0.2767955550779565566 4.986059431764047645 1 
	0 
	
	null_surface 
	null_surface 
	nullbs 
	nullbs 
	I I 
	0 
	0 
	0 
	
	0 F 1 F 0 UNEXTENDED UNEXTENDED } I I #
coedge $-1 -1 $-1 $41 $38 $112 $113 forward $10 0 $-1 #
coedge $-1 -1 $-1 $114 $115 $38 $74 reversed $116 0 $-1 #
edge $-1 1471 $-1 $78 2.617993877991494855 $117 3.665191429188091821 $38 $49 forward @7 unknown #
coedge $-1 -1 $-1 $76 $39 $118 $119 reversed $77 0 $-1 #
coedge $-1 -1 $-1 $39 $75 $120 $121 reversed $77 0 $-1 #
loop $-1 -1 $-1 $-1 $76 $122 #
vertex $-1 1756 $-1 $40 1 $123 #
edge $-1 1473 $-1 $124 -1.570796326794896558 $69 -0.5235987755982988157 $41 $49 forward @7 unknown #
loop $-1 -1 $-1 $-1 $64 $125 #
edge $-1 1485 $-1 $126 0 $47 0.1902148108885497457 $57 $127 forward @7 unknown #
coedge $-1 -1 $-1 $128 $118 $45 $83 forward $129 0 $-1 #
edge $-1 1504 $-1 $48 0.1902148108885500788 $126 0.3804296217771001576 $82 $130 forward @7 unknown #
face $131 1464 $-1 $125 $46 $5 $-1 $132 reversed single #
point $-1 -1 $-1 0.1521726436986328146 -0.2971000007402334608 5.327056934504169838 #
point $-1 -1 $-1 -0.04470235630136731864 -0.2971000007402334608 5.440722768750877236 #
ATTRIB_CUSTOM-attrib $-1 -1 $-1 $-1 $51 @22 generic_tag_attrib_def 3 3 -1 @23 generic_tag_attrib_def  1 0 @0  0 17 387 388 418 422 424 427 428 438 449 487 491 492 498 516 530 539 776 0 #
ATTRIB_CUSTOM-attrib $133 -1 $-1 $-1 $52 @22 generic_tag_attrib_def 3 3 -1 @23 generic_tag_attrib_def  1 1 @1 3 0 5 383 -417 514 536 770 0 #
face $134 1453 $-1 $135 $136 $5 $-1 $54 reversed single #
loop $-1 -1 $-1 $-1 $137 $52 #
coedge $-1 -1 $-1 $138 $139 $140 $141 reversed $53 0 $-1 #
coedge $-1 -1 $-1 $142 $55 $143 $144 forward $31 0 $-1 #
coedge $-1 -1 $-1 $55 $61 $67 $108 forward $31 0 $-1 #
coedge $-1 -1 $-1 $112 $145 $55 $95 reversed $146 0 $-1 #
edge $-1 1486 $-1 $124 0.1902148108885499678 $147 0.3804296217770999355 $55 $148 forward @7 unknown #
coedge $-1 -1 $-1 $149 $56 $150 $151 forward $21 0 $-1 #
edge $-1 1479 $-1 $99 0.02900635094610965609 $152 0.2839936490538903513 $63 $153 forward @7 unknown #
coedge $-1 -1 $-1 $57 $149 $128 $154 reversed $21 0 $-1 #
vertex $-1 1764 $-1 $97 0 $155 #
intcurve-curve $-1 -1 $-1 forward { exact_int_cur 22140 full nurbs 2 open 2 
	0.1902148108885497457 2 0.380429621777099547 2 
	0.1521726436986328146 -0.2971000007402333498 5.327056934504169838 1 
	0.1826293121920479212 -0.2971000007402333498 5.274304437244293098 1.037954849302040961 
	0.217797643698632859 -0.2767955550779567231 5.21339110025746244 1 
	0 
	
	null_surface 
	null_surface 
	nullbs 
	nullbs 
	I I 
	0 
	0 
	0 
	
	0 F 1 F 0 UNEXTENDED UNEXTENDED } I I #
coedge $-1 -1 $-1 $63 $60 $156 $157 forward $15 0 $-1 #
coedge $-1 -1 $-1 $158 $159 $60 $103 reversed $160 0 $-1 #
edge $-1 1477 $-1 $105 0 $161 0.1902148108885498012 $60 $162 forward @7 unknown #
coedge $-1 -1 $-1 $61 $142 $158 $163 forward $31 0 $-1 #
vertex $-1 1761 $-1 $163 1 $164 #
straight-curve $-1 -1 $-1 0.08654764369863299223 -0.2971000007402332943 4.986059431764047645 6.941278466890858284e-18 0.6999999999999998446 6.970594750720737112e-17 I I #
intcurve-curve $-1 -1 $-1 forward { exact_int_cur 22140 full nurbs 2 open 2 
	0 2 0.1902148108885498567 2 
	0.217797643698632859 -0.2767955550779567231 5.21339110025746244 1 
	0.1826293121920481433 -0.2971000007402333498 5.152477763270632671 1.037954849302037186 
	0.1521726436986328146 -0.2971000007402333498 5.099725266010755043 1 
	0 
	
	null_surface 
	null_surface 
	nullbs 
	nullbs 
	I I 
	0 
	0 
	0 
	
	0 F 1 F 0 UNEXTENDED UNEXTENDED } I I #
edge $-1 1490 $-1 $70 0 $124 0.1902148108885499678 $93 $165 forward @7 unknown #
face $166 1462 $-1 $122 $68 $5 $-1 $132 reversed single #
point $-1 -1 $-1 0.1521726436986328146 -0.2971000007402334608 5.099725266010755043 #
point $-1 -1 $-1 0.08654764369863299223 -0.2767955550779565566 4.986059431764047645 #
coedge $-1 -1 $-1 $145 $94 $72 $113 reversed $146 0 $-1 #
edge $-1 1472 $-1 $117 -2.617993877991494411 $124 -1.570796326794896558 $72 $49 forward @7 unknown #
coedge $-1 -1 $-1 $115 $73 $167 $168 reversed $116 0 $-1 #
coedge $-1 -1 $-1 $73 $114 $169 $170 reversed $116 0 $-1 #
loop $-1 -1 $-1 $-1 $115 $171 #
vertex $-1 1757 $-1 $74 1 $172 #
coedge $-1 -1 $-1 $82 $173 $75 $119 forward $129 0 $-1 #
edge $-1 1503 $-1 $174 0 $48 0.1902148108885500788 $118 $175 forward @7 unknown #
coedge $-1 -1 $-1 $176 $167 $76 $121 forward $177 0 $-1 #
edge $-1 1507 $-1 $78 0.1902148108885499123 $174 0.380429621777099769 $120 $178 forward @7 unknown #
face $179 1463 $-1 $84 $77 $5 $-1 $132 reversed single #
point $-1 -1 $-1 -0.2415773563013672298 -0.2971000007402334608 5.327056934504169838 #
vertex $-1 1758 $-1 $79 0 $180 #
face $181 1465 $-1 $182 $80 $5 $-1 $132 reversed single #
vertex $-1 1767 $-1 $154 0 $183 #
intcurve-curve $-1 -1 $-1 forward { exact_int_cur 22140 full nurbs 2 open 2 
	0 2 0.1902148108885497457 2 
	0.08654764369863277018 -0.2767955550779567231 5.440722768750877236 1 
	0.121715975205217708 -0.2971000007402333498 5.379809431764047467 1.037954849302040961 
	0.1521726436986328146 -0.2971000007402333498 5.327056934504169838 1 
	0 
	
	null_surface 
	null_surface 
	nullbs 
	nullbs 
	I I 
	0 
	0 
	0 
	
	0 F 1 F 0 UNEXTENDED UNEXTENDED } I I #
coedge $-1 -1 $-1 $184 $82 $98 $154 forward $129 0 $-1 #
loop $-1 -1 $-1 $-1 $118 $185 #
intcurve-curve $-1 -1 $-1 forward { exact_int_cur 22140 full nurbs 2 open 2 
	0.1902148108885500788 2 0.3804296217771001576 2 
	-0.04470235630136731864 -0.2971000007402334608 5.440722768750877236 1 
	0.01621098068546267257 -0.2971000007402334608 5.440722768750877236 1.037954849302036742 
	0.08654764369863277018 -0.2767955550779567231 5.440722768750877236 1 
	0 
	
	null_surface 
	null_surface 
	nullbs 
	nullbs 
	I I 
	0 
	0 
	0 
	
	0 F 1 F 0 UNEXTENDED UNEXTENDED } I I #
ATTRIB_CUSTOM-attrib $186 -1 $-1 $-1 $84 @22 generic_tag_attrib_def 3 3 -1 @23 generic_tag_attrib_def  1 1 @1 5 0 5 384 -417 514 536 770 0 #
cone-surface $-1 -1 $-1 -0.04470235630136709659 -0.286947777909095092 5.21339110025746244 6.64408097168351062e-32 1 9.957992501029628319e-17 0.2449158342467075145 -2.428612866367559052e-18 1.383842120043540569e-16 1 I I -0.8660254037844387076 -0.5 0.2449158342467075145 forward I I I I #
ATTRIB_CUSTOM-attrib $-1 -1 $-1 $-1 $88 @22 generic_tag_attrib_def 3 3 -1 @23 generic_tag_attrib_def  1 0 @0  0 17 387 388 418 422 424 427 428 438 449 487 491 492 498 516 530 539 776 0 #
ATTRIB_CUSTOM-attrib $187 -1 $-1 $-1 $89 @22 generic_tag_attrib_def 3 3 -1 @23 generic_tag_attrib_def  1 1 @1 3 0 5 383 -417 514 536 770 0 #
face $188 1454 $-1 $189 $190 $5 $-1 $54 reversed single #
loop $-1 -1 $-1 $-1 $191 $89 #
coedge $-1 -1 $-1 $192 $193 $194 $195 reversed $90 0 $-1 #
coedge $-1 -1 $-1 $139 $91 $196 $197 reversed $53 0 $-1 #
coedge $-1 -1 $-1 $91 $138 $198 $199 reversed $53 0 $-1 #
coedge $-1 -1 $-1 $173 $184 $91 $141 forward $129 0 $-1 #
edge $-1 1491 $-1 $200 0.19021481088854994 $201 0.38042962177709988 $140 $202 forward @7 unknown #
coedge $-1 -1 $-1 $104 $92 $203 $204 forward $31 0 $-1 #
coedge $-1 -1 $-1 $205 $206 $92 $144 reversed $207 0 $-1 #
edge $-1 1487 $-1 $147 0.02900635094610964915 $208 0.2839936490538903513 $92 $209 forward @7 unknown #
coedge $-1 -1 $-1 $94 $112 $205 $210 reversed $146 0 $-1 #
loop $-1 -1 $-1 $-1 $94 $211 #
vertex $-1 1768 $-1 $144 0 $212 #
intcurve-curve $-1 -1 $-1 forward { exact_int_cur 22140 full nurbs 2 open 2 
	0.1902148108885499678 2 0.3804296217770999355 2 
	-0.04470235630136709659 -0.2971000007402334053 4.986059431764047645 1 
	-0.1056156932881973098 -0.2971000007402334053 4.986059431764047645 1.037954849302035853 
	-0.1759523563013669634 -0.2767955550779565566 4.986059431764047645 1 
	0 
	
	null_surface 
	null_surface 
	nullbs 
	nullbs 
	I I 
	0 
	0 
	0 
	
	0 F 1 F 0 UNEXTENDED UNEXTENDED } I I #
coedge $-1 -1 $-1 $98 $96 $213 $214 forward $21 0 $-1 #
coedge $-1 -1 $-1 $156 $215 $96 $151 reversed $190 0 $-1 #
edge $-1 1482 $-1 $152 0 $216 0.1902148108885498567 $96 $217 forward @7 unknown #
vertex $-1 1763 $-1 $157 1 $218 #
straight-curve $-1 -1 $-1 0.217797643698632859 -0.2971000007402334608 5.21339110025746244 6.941278466890858284e-18 0.6999999999999998446 6.970594750720737112e-17 I I #
edge $-1 1484 $-1 $126 0.02900635094610965609 $219 0.2839936490538903513 $128 $220 forward @7 unknown #
point $-1 -1 $-1 0.217797643698632859 -0.2767955550779567231 5.21339110025746244 #
coedge $-1 -1 $-1 $215 $150 $101 $157 reversed $190 0 $-1 #
edge $-1 1478 $-1 $161 0.1902148108885498012 $152 0.380429621777099547 $101 $221 forward @7 unknown #
coedge $-1 -1 $-1 $159 $102 $104 $163 reversed $160 0 $-1 #
coedge $-1 -1 $-1 $102 $158 $222 $223 reversed $160 0 $-1 #
loop $-1 -1 $-1 $-1 $102 $224 #
vertex $-1 1762 $-1 $103 2 $225 #
intcurve-curve $-1 -1 $-1 forward { exact_int_cur 22140 full nurbs 2 open 2 
	0 2 0.1902148108885498012 2 
	0.08654764369863299223 -0.09830444640251018162 4.986059431764047645 1 
	0.121715975205217708 -0.07800000074023366592 5.046972768750878302 1.03795484930203874 
	0.1521726436986328146 -0.07800000074023344387 5.099725266010755043 1 
	0 
	
	null_surface 
	null_surface 
	nullbs 
	nullbs 
	I I 
	0 
	0 
	0 
	
	0 F 1 F 0 UNEXTENDED UNEXTENDED } I I #
edge $-1 1489 $-1 $226 0.1902148108885499955 $105 0.3804296217770999911 $104 $227 forward @7 unknown #
point $-1 -1 $-1 0.08654764369863299223 -0.09830444640251018162 4.986059431764047645 #
intcurve-curve $-1 -1 $-1 forward { exact_int_cur 22140 full nurbs 2 open 2 
	0 2 0.1902148108885499678 2 
	0.08654764369863299223 -0.2767955550779565566 4.986059431764047645 1 
	0.01621098068546311666 -0.2971000007402334053 4.986059431764047645 1.037954849302052951 
	-0.04470235630136709659 -0.2971000007402334053 4.986059431764047645 1 
	0 
	
	null_surface 
	null_surface 
	nullbs 
	nullbs 
	I I 
	0 
	0 
	0 
	
	0 F 1 F 0 UNEXTENDED UNEXTENDED } I I #
ATTRIB_CUSTOM-attrib $228 -1 $-1 $-1 $109 @22 generic_tag_attrib_def 3 3 -1 @23 generic_tag_attrib_def  1 1 @1 5 0 5 384 -417 514 536 770 0 #
coedge $-1 -1 $-1 $120 $229 $114 $168 forward $177 0 $-1 #
edge $-1 1506 $-1 $230 0 $78 0.1902148108885499123 $167 $231 forward @7 unknown #
coedge $-1 -1 $-1 $232 $205 $115 $170 forward $207 0 $-1 #
edge $-1 1510 $-1 $117 0.1902148108885500788 $230 0.3804296217771000466 $169 $233 forward @7 unknown #
face $234 1461 $-1 $109 $116 $5 $-1 $132 reversed single #
point $-1 -1 $-1 -0.2415773563013670078 -0.2971000007402334608 5.099725266010755043 #
coedge $-1 -1 $-1 $118 $140 $176 $235 reversed $129 0 $-1 #
vertex $-1 1776 $-1 $235 0 $236 #
intcurve-curve $-1 -1 $-1 forward { exact_int_cur 22140 full nurbs 2 open 2 
	0 2 0.1902148108885500788 2 
	-0.1759523563013674075 -0.2767955550779567231 5.440722768750877236 1 
	-0.1056156932881973098 -0.2971000007402334608 5.440722768750877236 1.037954849302036742 
	-0.04470235630136731864 -0.2971000007402334608 5.440722768750877236 1 
	0 
	
	null_surface 
	null_surface 
	nullbs 
	nullbs 
	I I 
	0 
	0 
	0 
	
	0 F 1 F 0 UNEXTENDED UNEXTENDED } I I #
coedge $-1 -1 $-1 $198 $120 $173 $235 forward $177 0 $-1 #
loop $-1 -1 $-1 $-1 $167 $237 #
intcurve-curve $-1 -1 $-1 forward { exact_int_cur 22140 full nurbs 2 open 2 
	0.1902148108885499123 2 0.380429621777099769 2 
	-0.2415773563013672298 -0.2971000007402333498 5.327056934504169838 1 
	-0.2111206878079521232 -0.2971000007402334608 5.379809431764047467 1.037954849302044291 
	-0.1759523563013674075 -0.2767955550779567231 5.440722768750877236 1 
	0 
	
	null_surface 
	null_surface 
	nullbs 
	nullbs 
	I I 
	0 
	0 
	0 
	
	0 F 1 F 0 UNEXTENDED UNEXTENDED } I I #
ATTRIB_CUSTOM-attrib $238 -1 $-1 $-1 $122 @22 generic_tag_attrib_def 3 3 -1 @23 generic_tag_attrib_def  1 1 @1 5 0 5 384 -417 514 536 770 0 #
point $-1 -1 $-1 -0.04470235630136709659 -0.2971000007402334053 4.986059431764047645 #
ATTRIB_CUSTOM-attrib $239 -1 $-1 $-1 $125 @22 generic_tag_attrib_def 3 3 -1 @23 generic_tag_attrib_def  1 1 @1 5 0 5 384 -417 514 536 770 0 #
face $240 1466 $-1 $241 $242 $5 $-1 $243 forward single #
point $-1 -1 $-1 0.08654764369863277018 -0.2767955550779567231 5.440722768750877236 #
coedge $-1 -1 $-1 $140 $128 $191 $244 forward $129 0 $-1 #
face $245 1457 $-1 $237 $129 $5 $-1 $246 forward single #
ATTRIB_CUSTOM-attrib $-1 -1 $-1 $-1 $131 @22 generic_tag_attrib_def 3 3 -1 @23 generic_tag_attrib_def  1 0 @0  0 17 387 388 418 422 424 427 428 438 449 487 491 492 498 516 530 539 776 0 #
ATTRIB_CUSTOM-attrib $-1 -1 $-1 $-1 $134 @22 generic_tag_attrib_def 3 3 -1 @23 generic_tag_attrib_def  1 0 @0  0 17 387 388 418 422 424 427 428 438 449 487 491 492 498 516 530 539 776 0 #
ATTRIB_CUSTOM-attrib $247 -1 $-1 $-1 $135 @22 generic_tag_attrib_def 3 3 -1 @23 generic_tag_attrib_def  1 1 @1 3 0 5 383 -417 514 536 770 0 #
face $248 1455 $-1 $224 $249 $5 $-1 $54 reversed single #
loop $-1 -1 $-1 $-1 $150 $135 #
coedge $-1 -1 $-1 $213 $250 $184 $244 reversed $136 0 $-1 #
coedge $-1 -1 $-1 $193 $137 $251 $252 reversed $90 0 $-1 #
coedge $-1 -1 $-1 $137 $192 $253 $254 reversed $90 0 $-1 #
coedge $-1 -1 $-1 $229 $198 $137 $195 forward $177 0 $-1 #
edge $-1 1494 $-1 $255 0.1902148108885498567 $256 0.3804296217770997135 $194 $257 forward @7 unknown #
coedge $-1 -1 $-1 $258 $251 $138 $197 forward $242 0 $-1 #
edge $-1 1492 $-1 $255 -2.617993877991494411 $200 -1.570796326794897002 $196 $259 forward @7 unknown #
coedge $-1 -1 $-1 $194 $176 $139 $199 forward $177 0 $-1 #
edge $-1 1493 $-1 $201 0 $255 0.1902148108885498567 $198 $260 forward @7 unknown #
vertex $-1 1772 $-1 $261 2 $262 #
vertex $-1 1771 $-1 $199 0 $263 #
intcurve-curve $-1 -1 $-1 forward { exact_int_cur 22140 full nurbs 2 open 2 
	0.19021481088854994 2 0.38042962177709988 2 
	-0.04470235630136731864 -0.07800000074023338836 5.440722768750877236 1 
	-0.1056156932881975319 -0.07800000074023361041 5.440722768750877236 1.03795484930205939 
	-0.1759523563013671854 -0.09830444640251023714 5.440722768750877236 1 
	0 
	
	null_surface 
	null_surface 
	nullbs 
	nullbs 
	I I 
	0 
	0 
	0 
	
	0 F 1 F 0 UNEXTENDED UNEXTENDED } I I #
coedge $-1 -1 $-1 $264 $265 $142 $204 reversed $249 0 $-1 #
edge $-1 1488 $-1 $208 0 $226 0.1902148108885499955 $142 $266 forward @7 unknown #
coedge $-1 -1 $-1 $169 $143 $145 $210 forward $207 0 $-1 #
coedge $-1 -1 $-1 $143 $253 $264 $267 forward $207 0 $-1 #
loop $-1 -1 $-1 $-1 $205 $268 #
vertex $-1 1769 $-1 $204 0 $269 #
straight-curve $-1 -1 $-1 -0.1759523563013669634 -0.2971000007402332943 4.986059431764047645 6.941278466890858284e-18 0.6999999999999998446 6.970594750720737112e-17 I I #
edge $-1 1509 $-1 $147 0 $117 0.1902148108885500788 $205 $270 forward @7 unknown #
face $271 1460 $-1 $171 $146 $5 $-1 $132 reversed single #
point $-1 -1 $-1 -0.1759523563013669634 -0.2767955550779565566 4.986059431764047645 #
coedge $-1 -1 $-1 $250 $191 $149 $214 reversed $136 0 $-1 #
edge $-1 1483 $-1 $216 0.1902148108885498567 $219 0.3804296217770997135 $149 $272 forward @7 unknown #
coedge $-1 -1 $-1 $150 $156 $273 $274 reversed $190 0 $-1 #
vertex $-1 1765 $-1 $274 2 $275 #
intcurve-curve $-1 -1 $-1 forward { exact_int_cur 22140 full nurbs 2 open 2 
	0 2 0.1902148108885498567 2 
	0.217797643698632859 -0.09830444640251023714 5.21339110025746244 1 
	0.1826293121920481433 -0.07800000074023361041 5.274304437244293098 1.037954849302036742 
	0.1521726436986328146 -0.07800000074023361041 5.327056934504170727 1 
	0 
	
	null_surface 
	null_surface 
	nullbs 
	nullbs 
	I I 
	0 
	0 
	0 
	
	0 F 1 F 0 UNEXTENDED UNEXTENDED } I I #
point $-1 -1 $-1 0.217797643698632859 -0.09830444640251023714 5.21339110025746244 #
vertex $-1 1766 $-1 $214 1 $276 #
straight-curve $-1 -1 $-1 0.08654764369863277018 -0.2971000007402334608 5.440722768750877236 6.941278466890858284e-18 0.6999999999999998446 6.970594750720737112e-17 I I #
intcurve-curve $-1 -1 $-1 forward { exact_int_cur 22140 full nurbs 2 open 2 
	0.1902148108885498012 2 0.380429621777099547 2 
	0.1521726436986328146 -0.07800000074023344387 5.099725266010755043 1 
	0.1826293121920479212 -0.07800000074023338836 5.152477763270631783 1.03795484930202897 
	0.217797643698632637 -0.09830444640251023714 5.21339110025746244 1 
	0 
	
	null_surface 
	null_surface 
	nullbs 
	nullbs 
	I I 
	0 
	0 
	0 
	
	0 F 1 F 0 UNEXTENDED UNEXTENDED } I I #
coedge $-1 -1 $-1 $277 $273 $159 $223 forward $242 0 $-1 #
edge $-1 1502 $-1 $161 0.5235987755982988157 $226 1.570796326794896558 $222 $259 forward @7 unknown #
face $278 1456 $-1 $185 $160 $5 $-1 $54 reversed single #
point $-1 -1 $-1 0.1521726436986328146 -0.07800000074023344387 5.099725266010755043 #
vertex $-1 1770 $-1 $163 2 $279 #
intcurve-curve $-1 -1 $-1 forward { exact_int_cur 22140 full nurbs 2 open 2 
	0.1902148108885499955 2 0.3804296217770999911 2 
	-0.04470235630136709659 -0.0780000007402335549 4.986059431764047645 1 
	0.0162109806854633387 -0.0780000007402335549 4.986059431764047645 1.037954849302044291 
	0.08654764369863299223 -0.09830444640251018162 4.986059431764047645 1 
	0 
	
	null_surface 
	null_surface 
	nullbs 
	nullbs 
	I I 
	0 
	0 
	0 
	
	0 F 1 F 0 UNEXTENDED UNEXTENDED } I I #
ATTRIB_CUSTOM-attrib $-1 -1 $-1 $-1 $166 @22 generic_tag_attrib_def 3 3 -1 @23 generic_tag_attrib_def  1 0 @0  0 17 387 388 418 422 424 427 428 438 449 487 491 492 498 516 530 539 776 0 #
coedge $-1 -1 $-1 $167 $194 $232 $280 reversed $177 0 $-1 #
vertex $-1 1777 $-1 $280 0 $281 #
intcurve-curve $-1 -1 $-1 forward { exact_int_cur 22140 full nurbs 2 open 2 
	0 2 0.1902148108885499123 2 
	-0.3072023563013670522 -0.2767955550779567231 5.21339110025746244 1 
	-0.2720340247947823364 -0.2971000007402333498 5.274304437244293098 1.037954849302042737 
	-0.2415773563013672298 -0.2971000007402333498 5.327056934504169838 1 
	0 
	
	null_surface 
	null_surface 
	nullbs 
	nullbs 
	I I 
	0 
	0 
	0 
	
	0 F 1 F 0 UNEXTENDED UNEXTENDED } I I #
coedge $-1 -1 $-1 $253 $169 $229 $280 forward $207 0 $-1 #
intcurve-curve $-1 -1 $-1 forward { exact_int_cur 22140 full nurbs 2 open 2 
	0.1902148108885500788 2 0.3804296217771000466 2 
	-0.2415773563013670078 -0.2971000007402334608 5.099725266010755043 1 
	-0.2720340247947821144 -0.2971000007402334608 5.152477763270631783 1.037954849302031635 
	-0.3072023563013670522 -0.2767955550779567231 5.21339110025746244 1 
	0 
	
	null_surface 
	null_surface 
	nullbs 
	nullbs 
	I I 
	0 
	0 
	0 
	
	0 F 1 F 0 UNEXTENDED UNEXTENDED } I I #
ATTRIB_CUSTOM-attrib $282 -1 $-1 $-1 $171 @22 generic_tag_attrib_def 3 3 -1 @23 generic_tag_attrib_def  1 1 @1 5 0 5 384 -417 514 536 770 0 #
edge $-1 1505 $-1 $174 0.02900635094610964915 $201 0.2839936490538903513 $176 $283 forward @7 unknown #
point $-1 -1 $-1 -0.1759523563013674075 -0.2767955550779567231 5.440722768750877236 #
face $284 1458 $-1 $268 $177 $5 $-1 $285 forward single #
ATTRIB_CUSTOM-attrib $-1 -1 $-1 $-1 $179 @22 generic_tag_attrib_def 3 3 -1 @23 generic_tag_attrib_def  1 0 @0  0 17 387 388 418 422 424 427 428 438 449 487 491 492 498 516 530 539 776 0 #
ATTRIB_CUSTOM-attrib $-1 -1 $-1 $-1 $181 @22 generic_tag_attrib_def 3 3 -1 @23 generic_tag_attrib_def  1 0 @0  0 17 387 388 418 422 424 427 428 438 449 487 491 492 498 516 530 539 776 0 #
ATTRIB_CUSTOM-attrib $286 -1 $-1 $-1 $182 @22 generic_tag_attrib_def 3 3 -1 @23 generic_tag_attrib_def  1 1 @1 2 0 5 375 -417 514 536 770 0 #
face $287 1467 $-1 $288 $289 $5 $-1 $290 forward single #
loop $-1 -1 $-1 $291 $277 $182 #
plane-surface $-1 -1 $-1 -0.04470235630136709659 -0.07800000074023338836 5.21339110025746244 9.916112095558370959e-18 1 9.957992501029628319e-17 0.6999999999999998446 -6.941278466890896803e-18 3.955193370856954163e-16 forward_v I I I I #
edge $-1 1497 $-1 $219 0 $200 0.19021481088854994 $184 $292 forward @7 unknown #
ATTRIB_CUSTOM-attrib $293 -1 $-1 $-1 $185 @22 generic_tag_attrib_def 3 3 -1 @23 generic_tag_attrib_def  1 1 @1 7 0 5 375 -417 514 536 770 0 #
plane-surface $-1 -1 $-1 -0.1759523563013674075 -0.2971000007402334608 5.440722768750877236 -8.610870976415112785e-16 -9.957992501029628319e-17 1 0.6999999999999998446 -6.941278466890916833e-18 6.027609683490577766e-16 forward_v I I I I #
ATTRIB_CUSTOM-attrib $-1 -1 $-1 $-1 $188 @22 generic_tag_attrib_def 3 3 -1 @23 generic_tag_attrib_def  1 0 @0  0 17 387 388 418 422 424 427 428 438 449 487 491 492 498 516 530 539 776 0 #
ATTRIB_CUSTOM-attrib $294 -1 $-1 $-1 $189 @22 generic_tag_attrib_def 3 3 -1 @23 generic_tag_attrib_def  1 1 @1 3 0 5 383 -417 514 536 770 0 #
loop $-1 -1 $-1 $-1 $264 $189 #
coedge $-1 -1 $-1 $191 $213 $258 $261 reversed $136 0 $-1 #
coedge $-1 -1 $-1 $196 $277 $192 $252 forward $242 0 $-1 #
edge $-1 1495 $-1 $295 2.617993877991494411 $255 3.665191429188091821 $251 $259 forward @7 unknown #
coedge $-1 -1 $-1 $206 $232 $193 $254 forward $207 0 $-1 #
edge $-1 1496 $-1 $256 0 $295 0.1902148108885500788 $253 $296 forward @7 unknown #
vertex $-1 1773 $-1 $252 2 $297 #
vertex $-1 1774 $-1 $254 0 $298 #
intcurve-curve $-1 -1 $-1 forward { exact_int_cur 22140 full nurbs 2 open 2 
	0.1902148108885498567 2 0.3804296217770997135 2 
	-0.2415773563013672298 -0.07800000074023361041 5.327056934504169838 1 
	-0.2720340247947823364 -0.07800000074023338836 5.274304437244293098 1.037954849302042293 
	-0.3072023563013670522 -0.09830444640251023714 5.21339110025746244 1 
	0 
	
	null_surface 
	null_surface 
	nullbs 
	nullbs 
	I I 
	0 
	0 
	0 
	
	0 F 1 F 0 UNEXTENDED UNEXTENDED } I I #
coedge $-1 -1 $-1 $273 $196 $250 $261 forward $242 0 $-1 #
ellipse-curve $-1 -1 $-1 -0.04470235630136709659 -0.07800000074023338836 5.21339110025746244 9.916112095558370959e-18 1 9.957992501029628319e-17 0.2273316684934150733 -2.254246307651031611e-18 1.284486726015722896e-16 1 I I #
intcurve-curve $-1 -1 $-1 forward { exact_int_cur 22140 full nurbs 2 open 2 
	0 2 0.1902148108885498567 2 
	-0.1759523563013674075 -0.09830444640251023714 5.440722768750877236 1 
	-0.2111206878079521232 -0.07800000074023361041 5.379809431764047467 1.037954849302040961 
	-0.2415773563013672298 -0.07800000074023361041 5.327056934504169838 1 
	0 
	
	null_surface 
	null_surface 
	nullbs 
	nullbs 
	I I 
	0 
	0 
	0 
	
	0 F 1 F 0 UNEXTENDED UNEXTENDED } I I #
edge $-1 1498 $-1 $200 -1.570796326794897002 $216 -0.5235987755982987046 $258 $259 forward @7 unknown #
point $-1 -1 $-1 -0.04470235630136731864 -0.07800000074023338836 5.440722768750877236 #
point $-1 -1 $-1 -0.1759523563013674075 -0.09830444640251023714 5.440722768750877236 #
coedge $-1 -1 $-1 $265 $203 $206 $267 reversed $249 0 $-1 #
coedge $-1 -1 $-1 $203 $264 $277 $299 reversed $249 0 $-1 #
intcurve-curve $-1 -1 $-1 forward { exact_int_cur 22140 full nurbs 2 open 2 
	0 2 0.1902148108885499955 2 
	-0.1759523563013669634 -0.09830444640251018162 4.986059431764047645 1 
	-0.1056156932881973098 -0.0780000007402335549 4.986059431764047645 1.037954849302044291 
	-0.04470235630136709659 -0.0780000007402335549 4.986059431764047645 1 
	0 
	
	null_surface 
	null_surface 
	nullbs 
	nullbs 
	I I 
	0 
	0 
	0 
	
	0 F 1 F 0 UNEXTENDED UNEXTENDED } I I #
edge $-1 1500 $-1 $295 0.1902148108885500788 $208 0.3804296217770999911 $206 $300 forward @7 unknown #
face $301 1459 $-1 $211 $207 $5 $-1 $302 forward single #
point $-1 -1 $-1 -0.1759523563013669634 -0.09830444640251018162 4.986059431764047645 #
intcurve-curve $-1 -1 $-1 forward { exact_int_cur 22140 full nurbs 2 open 2 
	0 2 0.1902148108885500788 2 
	-0.1759523563013669634 -0.2767955550779565566 4.986059431764047645 1 
	-0.2111206878079519011 -0.2971000007402335163 5.046972768750878302 1.037954849302030746 
	-0.2415773563013670078 -0.2971000007402334608 5.099725266010755043 1 
	0 
	
	null_surface 
	null_surface 
	nullbs 
	nullbs 
	I I 
	0 
	0 
	0 
	
	0 F 1 F 0 UNEXTENDED UNEXTENDED } I I #
ATTRIB_CUSTOM-attrib $303 -1 $-1 $-1 $211 @22 generic_tag_attrib_def 3 3 -1 @23 generic_tag_attrib_def  1 1 @1 5 0 5 384 -417 514 536 770 0 #
intcurve-curve $-1 -1 $-1 forward { exact_int_cur 22140 full nurbs 2 open 2 
	0.1902148108885498567 2 0.3804296217770997135 2 
	0.1521726436986328146 -0.07800000074023361041 5.327056934504170727 1 
	0.121715975205217708 -0.07800000074023361041 5.379809431764047467 1.037954849302045179 
	0.08654764369863277018 -0.09830444640251034816 5.440722768750877236 1 
	0 
	
	null_surface 
	null_surface 
	nullbs 
	nullbs 
	I I 
	0 
	0 
	0 
	
	0 F 1 F 0 UNEXTENDED UNEXTENDED } I I #
coedge $-1 -1 $-1 $222 $258 $215 $274 forward $242 0 $-1 #
edge $-1 1499 $-1 $216 -0.5235987755982987046 $161 0.5235987755982988157 $273 $259 forward @7 unknown #
point $-1 -1 $-1 0.1521726436986328146 -0.07800000074023338836 5.327056934504169838 #
point $-1 -1 $-1 0.08654764369863277018 -0.09830444640251023714 5.440722768750877236 #
coedge $-1 -1 $-1 $251 $222 $265 $299 forward $242 0 $-1 #
ATTRIB_CUSTOM-attrib $304 -1 $-1 $-1 $224 @22 generic_tag_attrib_def 3 3 -1 @23 generic_tag_attrib_def  1 1 @1 3 0 5 383 -417 514 536 770 0 #
point $-1 -1 $-1 -0.04470235630136709659 -0.07800000074023333285 4.986059431764047645 #
edge $-1 1508 $-1 $230 0.02900635094610964915 $256 0.2839936490538903513 $232 $305 forward @7 unknown #
point $-1 -1 $-1 -0.3072023563013670522 -0.2767955550779567231 5.21339110025746244 #
ATTRIB_CUSTOM-attrib $-1 -1 $-1 $-1 $234 @22 generic_tag_attrib_def 3 3 -1 @23 generic_tag_attrib_def  1 0 @0  0 17 387 388 418 422 424 427 428 438 449 487 491 492 498 516 530 539 776 0 #
straight-curve $-1 -1 $-1 -0.1759523563013674075 -0.2971000007402334608 5.440722768750877236 6.941278466890858284e-18 0.6999999999999998446 6.970594750720737112e-17 I I #
ATTRIB_CUSTOM-attrib $306 -1 $-1 $-1 $237 @22 generic_tag_attrib_def 3 3 -1 @23 generic_tag_attrib_def  1 1 @1 6 0 5 375 -417 514 536 770 0 #
plane-surface $-1 -1 $-1 -0.3072023563013670522 -0.2971000007402334608 5.21339110025746244 -0.8660254037844391517 -4.120235752362038481e-17 0.4999999999999992784 0.3499999999999994227 -6.38377605695516221e-17 0.6062177826491073063 forward_v I I I I #
ATTRIB_CUSTOM-attrib $-1 -1 $-1 $-1 $240 @22 generic_tag_attrib_def 3 3 -1 @23 generic_tag_attrib_def  1 0 @0  0 17 387 388 418 422 424 427 428 438 449 487 491 492 498 516 530 539 776 0 #
ATTRIB_CUSTOM-attrib $307 -1 $-1 $-1 $241 @22 generic_tag_attrib_def 3 3 -1 @23 generic_tag_attrib_def  1 1 @1 1 0 5 381 -417 514 536 770 0 #
face $308 1468 $-1 $-1 $309 $5 $-1 $310 reversed single #
loop $-1 -1 $-1 $311 $312 $241 #
torus-surface $-1 -1 $-1 -0.04470235630136709659 -0.05700000074023348073 5.21339110025746244 -9.916112095558370959e-18 -1 -9.957992501029628319e-17 0.1577800000000000036 -0.02099999999999999437 -1 9.916112095558427966e-18 -5.650276244081363654e-16 forward_v I I I I #
loop $-1 -1 $-1 $-1 $313 $182 #
intcurve-curve $-1 -1 $-1 forward { exact_int_cur 22140 full nurbs 2 open 2 
	0 2 0.19021481088854994 2 
	0.08654764369863254814 -0.09830444640251023714 5.440722768750877236 1 
	0.01621098068546289461 -0.07800000074023361041 5.440722768750877236 1.037954849302060278 
	-0.04470235630136731864 -0.07800000074023338836 5.440722768750877236 1 
	0 
	
	null_surface 
	null_surface 
	nullbs 
	nullbs 
	I I 
	0 
	0 
	0 
	
	0 F 1 F 0 UNEXTENDED UNEXTENDED } I I #
ATTRIB_CUSTOM-attrib $-1 -1 $-1 $-1 $245 @22 generic_tag_attrib_def 3 3 -1 @23 generic_tag_attrib_def  1 0 @0  0 17 387 388 418 422 424 427 428 438 449 487 491 492 498 516 530 539 776 0 #
ATTRIB_CUSTOM-attrib $-1 -1 $-1 $-1 $248 @22 generic_tag_attrib_def 3 3 -1 @23 generic_tag_attrib_def  1 0 @0  0 17 387 388 418 422 424 427 428 438 449 487 491 492 498 516 530 539 776 0 #
vertex $-1 1775 $-1 $299 2 $314 #
intcurve-curve $-1 -1 $-1 forward { exact_int_cur 22140 full nurbs 2 open 2 
	0 2 0.1902148108885500788 2 
	-0.3072023563013670522 -0.09830444640251023714 5.21339110025746244 1 
	-0.2720340247947823364 -0.07800000074023338836 5.152477763270631783 1.037954849302034077 
	-0.2415773563013670078 -0.07800000074023344387 5.099725266010755043 1 
	0 
	
	null_surface 
	null_surface 
	nullbs 
	nullbs 
	I I 
	0 
	0 
	0 
	
	0 F 1 F 0 UNEXTENDED UNEXTENDED } I I #
point $-1 -1 $-1 -0.2415773563013672298 -0.07800000074023338836 5.327056934504169838 #
point $-1 -1 $-1 -0.3072023563013670522 -0.09830444640251023714 5.21339110025746244 #
edge $-1 1501 $-1 $226 1.570796326794896558 $295 2.617993877991494411 $277 $259 forward @7 unknown #
intcurve-curve $-1 -1 $-1 forward { exact_int_cur 22140 full nurbs 2 open 2 
	0.1902148108885500788 2 0.3804296217770999911 2 
	-0.2415773563013670078 -0.07800000074023344387 5.099725266010755043 1 
	-0.2111206878079519011 -0.07800000074023366592 5.046972768750878302 1.037954849302041405 
	-0.1759523563013669634 -0.09830444640251018162 4.986059431764047645 1 
	0 
	
	null_surface 
	null_surface 
	nullbs 
	nullbs 
	I I 
	0 
	0 
	0 
	
	0 F 1 F 0 UNEXTENDED UNEXTENDED } I I #
ATTRIB_CUSTOM-attrib $315 -1 $-1 $-1 $268 @22 generic_tag_attrib_def 3 3 -1 @23 generic_tag_attrib_def  1 1 @1 5 0 5 375 -417 514 536 770 0 #
plane-surface $-1 -1 $-1 -0.1759523563013669634 -0.2971000007402332943 4.986059431764047645 -0.8660254037844382635 5.837756748667593536e-17 -0.5000000000000007772 -0.3500000000000004774 -5.689648210266073608e-17 0.6062177826491066401 forward_v I I I I #
ATTRIB_CUSTOM-attrib $-1 -1 $-1 $-1 $271 @22 generic_tag_attrib_def 3 3 -1 @23 generic_tag_attrib_def  1 0 @0  0 17 387 388 418 422 424 427 428 438 449 487 491 492 498 516 530 539 776 0 #
ATTRIB_CUSTOM-attrib $-1 -1 $-1 $-1 $278 @22 generic_tag_attrib_def 3 3 -1 @23 generic_tag_attrib_def  1 0 @0  0 17 387 388 418 422 424 427 428 438 449 487 491 492 498 516 530 539 776 0 #
straight-curve $-1 -1 $-1 -0.3072023563013670522 -0.2971000007402334608 5.21339110025746244 6.941278466890858284e-18 0.6999999999999998446 6.970594750720737112e-17 I I #
ATTRIB_CUSTOM-attrib $-1 -1 $-1 $-1 $284 @22 generic_tag_attrib_def 3 3 -1 @23 generic_tag_attrib_def  1 0 @0  0 17 387 388 418 422 424 427 428 438 449 487 491 492 498 516 530 539 776 0 #
ATTRIB_CUSTOM-attrib $-1 -1 $-1 $-1 $287 @22 generic_tag_attrib_def 3 3 -1 @23 generic_tag_attrib_def  1 0 @0  0 17 387 388 418 422 424 427 428 438 449 487 491 492 498 516 530 539 776 0 #
ATTRIB_CUSTOM-attrib $316 -1 $-1 $-1 $288 @22 generic_tag_attrib_def 3 3 -1 @23 generic_tag_attrib_def  1 2 @2 11 0 4 456 514 536 770 0 #
loop $-1 -1 $-1 $-1 $317 $288 #
plane-surface $-1 -1 $-1 -1.082202371203109026 -0.07710000000000050147 5.488391042142933607 -6.798155367234489489e-32 -1 -9.957992501029628319e-17 5.55111512312578073e-16 9.957992501029628319e-17 -1 forward_v I I I I #
loop $-1 -1 $-1 $-1 $318 $241 #
coedge $-1 -1 $-1 $312 $312 $313 $319 forward $289 0 $-1 #
coedge $-1 -1 $-1 $313 $313 $312 $319 reversed $291 0 $-1 #
point $-1 -1 $-1 -0.2415773563013670078 -0.07800000074023344387 5.099725266010755043 #
ATTRIB_CUSTOM-attrib $-1 -1 $-1 $-1 $301 @22 generic_tag_attrib_def 3 3 -1 @23 generic_tag_attrib_def  1 0 @0  0 17 387 388 418 422 424 427 428 438 449 487 491 492 498 516 530 539 776 0 #
ATTRIB_CUSTOM-attrib $-1 -1 $-1 $-1 $308 @22 generic_tag_attrib_def 3 3 -1 @23 generic_tag_attrib_def  1 0 @0  0 8 487 491 492 498 516 530 539 776 0 #
coedge $-1 -1 $-1 $317 $317 $318 $320 reversed $309 0 $-1 #
coedge $-1 -1 $-1 $318 $318 $317 $320 forward $311 0 $-1 #
edge $-1 1511 $-1 $321 -3.141592653589793116 $321 3.141592653589793116 $313 $322 forward @7 tangent #
edge $-1 1512 $-1 $323 -3.141592653589793116 $323 3.141592653589793116 $318 $324 forward @7 unknown #
vertex $-1 1778 $-1 $319 0 $325 #
ellipse-curve $-1 -1 $-1 -0.04470235630136709659 -0.07800000074023338836 5.21339110025746244 9.916112095558370959e-18 1 9.957992501029628319e-17 0.1577800000000000036 -1.564564166437208328e-18 8.915005857911576087e-17 1 I I #
vertex $-1 1779 $-1 $320 0 $326 #
ellipse-curve $-1 -1 $-1 -0.04470235630136709659 -0.07710000000000050147 5.21339110025746244 -4.958056047779219376e-18 -1 -9.957992501029628319e-17 8.420933787712546992e-17 1.51060811476181839e-17 -0.1516980570738154233 1 I I #
point $-1 -1 $-1 -0.2024823563013671279 -0.07800000074023338836 5.21339110025746244 #
point $-1 -1 $-1 -0.04470235630136731864 -0.07710000000000050147 5.365089157331278003 #
End-of-ASM-data 