# WaveFront *.obj file
# Vertices: 84
# Triangles : 164

v -3.2470235630137068e-01 -3.3710000074023327e-01 5.2133911002574695e+00
v -3.2157498764440667e-01 -3.3710000074023327e-01 5.2551229347867983e+00
v -3.1226274192149012e-01 -3.3710000074023327e-01 5.2959225490925226e+00
v -2.9697363931404802e-01 -3.3710000074023327e-01 5.3348785472103861e+00
v -2.7604921310984931e-01 -3.3710000074023327e-01 5.3711207165152839e+00
v -2.4995688041372213e-01 -3.3710000074023327e-01 5.4038394668333272e+00
v -2.1927950082181605e-01 -3.3710000074023327e-01 5.4323039153485180e+00
v -1.8470235630137072e-01 -3.3710000074023327e-01 5.4558782133171126e+00
v -1.4699784312396141e-01 -3.3710000074023327e-01 5.4740357498778467e+00
v -1.0700821780913866e-01 -3.3710000074023327e-01 5.4863709156683802e+00
v -6.5626782505569511e-02 -3.3710000074023333e-01 5.4926081634681996e+00
v -2.3777930097172002e-02 -3.3710000074023333e-01 5.4926081634681996e+00
v 1.7603505206397405e-02 -3.3710000074023327e-01 5.4863709156683802e+00
v 5.7593130521219893e-02 -3.3710000074023327e-01 5.4740357498778467e+00
v 9.5297643698629225e-02 -3.3710000074023327e-01 5.4558782133171126e+00
v 1.2987478821907478e-01 -3.3710000074023327e-01 5.4323039153485180e+00
v 1.6055216781098069e-01 -3.3710000074023327e-01 5.4038394668333272e+00
v 1.8664450050710790e-01 -3.3710000074023327e-01 5.3711207165152839e+00
v 2.0756892671130672e-01 -3.3710000074023327e-01 5.3348785472103861e+00
v 2.2285802931874876e-01 -3.3710000074023327e-01 5.2959225490925226e+00
v 2.3217027504166537e-01 -3.3710000074023327e-01 5.2551229347867983e+00
v 2.3529764369862938e-01 -3.3710000074023327e-01 5.2133911002574695e+00
v 2.3217027504166537e-01 -3.3710000074023327e-01 5.1716592657281408e+00
v 2.2285802931874882e-01 -3.3710000074023327e-01 5.1308596514224165e+00
v 2.0756892671130672e-01 -3.3710000074023327e-01 5.0919036533045530e+00
v 1.8664450050710799e-01 -3.3710000074023327e-01 5.0556614839996552e+00
v 1.6055216781098078e-01 -3.3710000074023327e-01 5.0229427336816119e+00
v 1.2987478821907478e-01 -3.3710000074023327e-01 4.9944782851664211e+00
v 9.5297643698629447e-02 -3.3710000074023327e-01 4.9709039871978264e+00
v 5.7593130521220018e-02 -3.3710000074023327e-01 4.9527464506370924e+00
v 1.7603505206397405e-02 -3.3710000074023327e-01 4.9404112848465589e+00
v -2.3777930097171818e-02 -3.3710000074023322e-01 4.9341740370467395e+00
v -6.5626782505569387e-02 -3.3710000074023322e-01 4.9341740370467395e+00
v -1.0700821780913866e-01 -3.3710000074023327e-01 4.9404112848465589e+00
v -1.4699784312396122e-01 -3.3710000074023327e-01 4.9527464506370924e+00
v -1.8470235630137061e-01 -3.3710000074023327e-01 4.9709039871978264e+00
v -2.1927950082181605e-01 -3.3710000074023327e-01 4.9944782851664211e+00
v -2.4995688041372194e-01 -3.3710000074023327e-01 5.0229427336816119e+00
v -2.7604921310984920e-01 -3.3710000074023327e-01 5.0556614839996552e+00
v -2.9697363931404802e-01 -3.3710000074023327e-01 5.0919036533045530e+00
v -3.1226274192149012e-01 -3.3710000074023327e-01 5.1308596514224165e+00
v -3.2157498764440667e-01 -3.3710000074023327e-01 5.1716592657281408e+00
v -3.2470235630137068e-01 -2.9710000074023329e-01 5.2133911002574695e+00
v -3.2157498764440667e-01 -2.9710000074023329e-01 5.1716592657281408e+00
v -3.1226274192149012e-01 -2.9710000074023329e-01 5.1308596514224165e+00
v -2.9697363931404802e-01 -2.9710000074023329e-01 5.0919036533045530e+00
v -2.7604921310984931e-01 -2.9710000074023329e-01 5.0556614839996552e+00
v -2.4995688041372213e-01 -2.9710000074023329e-01 5.0229427336816119e+00
v -2.1927950082181605e-01 -2.9710000074023329e-01 4.9944782851664211e+00
v -1.8470235630137072e-01 -2.9710000074023329e-01 4.9709039871978264e+00
v -1.4699784312396141e-01 -2.9710000074023329e-01 4.9527464506370924e+00
v -1.0700821780913866e-01 -2.9710000074023329e-01 4.9404112848465589e+00
v -6.5626782505569511e-02 -2.9710000074023324e-01 4.9341740370467395e+00
v -2.3777930097172002e-02 -2.9710000074023324e-01 4.9341740370467395e+00
v 1.7603505206397405e-02 -2.9710000074023329e-01 4.9404112848465589e+00
v 5.7593130521219893e-02 -2.9710000074023329e-01 4.9527464506370924e+00
v 9.5297643698629225e-02 -2.9710000074023329e-01 4.9709039871978264e+00
v 1.2987478821907478e-01 -2.9710000074023329e-01 4.9944782851664211e+00
v 1.6055216781098069e-01 -2.9710000074023329e-01 5.0229427336816119e+00
v 1.8664450050710790e-01 -2.9710000074023329e-01 5.0556614839996552e+00
v 2.0756892671130672e-01 -2.9710000074023329e-01 5.0919036533045530e+00
v 2.2285802931874876e-01 -2.9710000074023329e-01 5.1308596514224165e+00
v 2.3217027504166537e-01 -2.9710000074023329e-01 5.1716592657281408e+00
v 2.3529764369862938e-01 -2.9710000074023329e-01 5.2133911002574695e+00
v 2.3217027504166537e-01 -2.9710000074023329e-01 5.2551229347867983e+00
v 2.2285802931874882e-01 -2.9710000074023329e-01 5.2959225490925226e+00
v 2.0756892671130672e-01 -2.9710000074023329e-01 5.3348785472103861e+00
v 1.8664450050710799e-01 -2.9710000074023329e-01 5.3711207165152839e+00
v 1.6055216781098078e-01 -2.9710000074023329e-01 5.4038394668333272e+00
v 1.2987478821907478e-01 -2.9710000074023329e-01 5.4323039153485180e+00
v 9.5297643698629447e-02 -2.9710000074023329e-01 5.4558782133171126e+00
v 5.7593130521220018e-02 -2.9710000074023329e-01 5.4740357498778467e+00
v 1.7603505206397405e-02 -2.9710000074023329e-01 5.4863709156683802e+00
v -2.3777930097171818e-02 -2.9710000074023335e-01 5.4926081634681996e+00
v -6.5626782505569387e-02 -2.9710000074023335e-01 5.4926081634681996e+00
v -1.0700821780913866e-01 -2.9710000074023329e-01 5.4863709156683802e+00
v -1.4699784312396122e-01 -2.9710000074023329e-01 5.4740357498778467e+00
v -1.8470235630137061e-01 -2.9710000074023329e-01 5.4558782133171126e+00
v -2.1927950082181605e-01 -2.9710000074023329e-01 5.4323039153485180e+00
v -2.4995688041372194e-01 -2.9710000074023329e-01 5.4038394668333272e+00
v -2.7604921310984920e-01 -2.9710000074023329e-01 5.3711207165152839e+00
v -2.9697363931404802e-01 -2.9710000074023329e-01 5.3348785472103861e+00
v -3.1226274192149012e-01 -2.9710000074023329e-01 5.2959225490925226e+00
v -3.2157498764440667e-01 -2.9710000074023329e-01 5.2551229347867983e+00

vn -9.8883082622512863e-01 -1.4841617689188045e-17 1.4904226617617386e-01
vn -1.0000000000000000e+00 3.7108782933993916e-32 1.2246467991473512e-16
vn -1.0000000000000000e+00 6.1498830218632620e-32 -1.2246467991473552e-16
vn -9.8883082622512863e-01 1.4841617689188141e-17 -1.4904226617617386e-01
vn -9.5557280578614090e-01 2.9351698164234812e-17 -2.9475517441090376e-01
vn -9.0096886790241870e-01 4.3206110204513775e-17 -4.3388373911755906e-01
vn -8.2623877431599457e-01 5.6095369138771643e-17 -5.6332005806362262e-01
vn -8.2623877431599468e-01 5.6095369138771606e-17 -5.6332005806362229e-01
vn -7.3305187182982579e-01 6.7731550221276554e-17 -6.8017273777092002e-01
vn -7.3305187182982590e-01 6.7731550221276529e-17 -6.8017273777091969e-01
vn -6.2348980185873337e-01 7.7854720394855647e-17 -7.8183148246802991e-01
vn -4.9999999999999933e-01 8.6238744765866504e-17 -8.6602540378443904e-01
vn -4.9999999999999983e-01 8.6238744765866479e-17 -8.6602540378443871e-01
vn -3.6534102436639487e-01 9.2696338084043822e-17 -9.3087374864420436e-01
vn -3.6534102436639554e-01 9.2696338084043760e-17 -9.3087374864420402e-01
vn -2.2252093395631434e-01 9.7083248385511292e-17 -9.7492791218182362e-01
vn -7.4730093586424268e-02 9.9301479343285202e-17 -9.9720379718118024e-01
vn -7.4730093586424698e-02 9.9301479343285190e-17 -9.9720379718118002e-01
vn 7.4730093586424587e-02 9.9301479343285190e-17 -9.9720379718118002e-01
vn 7.4730093586423935e-02 9.9301479343285202e-17 -9.9720379718118024e-01
vn 2.2252093395631445e-01 9.7083248385511255e-17 -9.7492791218182362e-01
vn 3.6534102436639521e-01 9.2696338084043760e-17 -9.3087374864420414e-01
vn 3.6534102436639476e-01 9.2696338084043785e-17 -9.3087374864420436e-01
vn 4.9999999999999994e-01 8.6238744765866442e-17 -8.6602540378443871e-01
vn 4.9999999999999911e-01 8.6238744765866479e-17 -8.6602540378443915e-01
vn 6.2348980185873348e-01 7.7854720394855598e-17 -7.8183148246802980e-01
vn 7.3305187182982590e-01 6.7731550221276455e-17 -6.8017273777091969e-01
vn 7.3305187182982590e-01 6.7731550221276468e-17 -6.8017273777091980e-01
vn 8.2623877431599468e-01 5.6095369138771544e-17 -5.6332005806362229e-01
vn 8.2623877431599457e-01 5.6095369138771556e-17 -5.6332005806362251e-01
vn 9.0096886790241870e-01 4.3206110204513682e-17 -4.3388373911755895e-01
vn 9.5557280578614090e-01 2.9351698164234719e-17 -2.9475517441090371e-01
vn 9.5557280578614090e-01 2.9351698164234725e-17 -2.9475517441090376e-01
vn 9.8883082622512863e-01 1.4841617689188061e-17 -1.4904226617617400e-01
vn 1.0000000000000000e+00 -5.0189178135693278e-32 8.8910647330622060e-18
vn 1.0000000000000000e+00 -4.8772583640685223e-32 -5.3346388398373350e-18
vn 9.8883082622512863e-01 -1.4841617689188159e-17 1.4904226617617400e-01
vn 9.5557280578614090e-01 -2.9351698164234812e-17 2.9475517441090376e-01
vn 9.5557280578614090e-01 -2.9351698164234812e-17 2.9475517441090371e-01
vn 9.0096886790241870e-01 -4.3206110204513775e-17 4.3388373911755895e-01
vn 8.2623877431599457e-01 -5.6095369138771630e-17 5.6332005806362251e-01
vn 8.2623877431599468e-01 -5.6095369138771618e-17 5.6332005806362229e-01
vn 7.3305187182982590e-01 -6.7731550221276529e-17 6.8017273777091980e-01
vn 7.3305187182982590e-01 -6.7731550221276529e-17 6.8017273777091969e-01
vn 6.2348980185873348e-01 -7.7854720394855660e-17 7.8183148246802980e-01
vn 4.9999999999999911e-01 -8.6238744765866516e-17 8.6602540378443915e-01
vn 4.9999999999999994e-01 -8.6238744765866479e-17 8.6602540378443871e-01
vn 3.6534102436639476e-01 -9.2696338084043822e-17 9.3087374864420436e-01
vn 3.6534102436639521e-01 -9.2696338084043797e-17 9.3087374864420414e-01
vn 2.2252093395631445e-01 -9.7083248385511292e-17 9.7492791218182362e-01
vn 7.4730093586423935e-02 -9.9301479343285202e-17 9.9720379718118024e-01
vn 7.4730093586424587e-02 -9.9301479343285190e-17 9.9720379718118002e-01
vn -7.4730093586424698e-02 -9.9301479343285190e-17 9.9720379718118002e-01
vn -7.4730093586424268e-02 -9.9301479343285202e-17 9.9720379718118024e-01
vn -2.2252093395631434e-01 -9.7083248385511255e-17 9.7492791218182362e-01
vn -3.6534102436639554e-01 -9.2696338084043723e-17 9.3087374864420402e-01
vn -3.6534102436639487e-01 -9.2696338084043785e-17 9.3087374864420436e-01
vn -4.9999999999999983e-01 -8.6238744765866442e-17 8.6602540378443871e-01
vn -4.9999999999999933e-01 -8.6238744765866467e-17 8.6602540378443904e-01
vn -6.2348980185873337e-01 -7.7854720394855598e-17 7.8183148246802991e-01
vn -7.3305187182982590e-01 -6.7731550221276455e-17 6.8017273777091969e-01
vn -7.3305187182982579e-01 -6.7731550221276480e-17 6.8017273777092002e-01
vn -8.2623877431599468e-01 -5.6095369138771532e-17 5.6332005806362229e-01
vn -8.2623877431599457e-01 -5.6095369138771569e-17 5.6332005806362262e-01
vn -9.0096886790241870e-01 -4.3206110204513682e-17 4.3388373911755906e-01
vn -9.5557280578614090e-01 -2.9351698164234725e-17 2.9475517441090376e-01
vn -4.9303806576313249e-32 -1.0000000000000000e+00 -9.9579925010296850e-17
vn 4.9303806576313249e-32 1.0000000000000000e+00 9.9579925010296850e-17

g face 0
f 2//1 84//1 1//2
f 1//2 84//1 43//2
f 1//3 43//3 42//4
f 42//4 43//3 44//4
f 42//4 44//4 41//5
f 41//5 44//4 45//5
f 41//5 45//5 40//6
f 40//6 45//5 46//6
f 40//6 46//6 39//7
f 39//7 46//6 47//8
f 39//7 47//8 38//9
f 38//9 47//8 48//10
f 38//9 48//10 37//11
f 37//11 48//10 49//11
f 37//11 49//11 36//12
f 36//12 49//11 50//13
f 36//12 50//13 35//14
f 35//14 50//13 51//15
f 35//14 51//15 34//16
f 34//16 51//15 52//16
f 34//16 52//16 33//17
f 33//17 52//16 53//18
f 33//17 53//18 32//19
f 32//19 53//18 54//20
f 32//19 54//20 31//21
f 31//21 54//20 55//21
f 31//21 55//21 30//22
f 30//22 55//21 56//23
f 30//22 56//23 29//24
f 29//24 56//23 57//25
f 29//24 57//25 28//26
f 28//26 57//25 58//26
f 28//26 58//26 27//27
f 27//27 58//26 59//28
f 27//27 59//28 26//29
f 26//29 59//28 60//30
f 26//29 60//30 25//31
f 25//31 60//30 61//31
f 25//31 61//31 24//32
f 24//32 61//31 62//33
f 24//32 62//33 23//34
f 23//34 62//33 63//34
f 23//34 63//34 22//35
f 22//35 63//34 64//36
f 22//35 64//36 21//37
f 21//37 64//36 65//37
f 21//37 65//37 20//38
f 20//38 65//37 66//39
f 20//38 66//39 19//40
f 19//40 66//39 67//40
f 19//40 67//40 18//41
f 18//41 67//40 68//42
f 18//41 68//42 17//43
f 17//43 68//42 69//44
f 17//43 69//44 16//45
f 16//45 69//44 70//45
f 16//45 70//45 15//46
f 15//46 70//45 71//47
f 15//46 71//47 14//48
f 14//48 71//47 72//49
f 14//48 72//49 13//50
f 13//50 72//49 73//50
f 13//50 73//50 12//51
f 12//51 73//50 74//52
f 12//51 74//52 11//53
f 11//53 74//52 75//54
f 11//53 75//54 10//55
f 10//55 75//54 76//55
f 10//55 76//55 9//56
f 9//56 76//55 77//57
f 9//56 77//57 8//58
f 8//58 77//57 78//59
f 8//58 78//59 7//60
f 7//60 78//59 79//60
f 7//60 79//60 6//61
f 6//61 79//60 80//62
f 6//61 80//62 5//63
f 5//63 80//62 81//64
f 5//63 81//64 4//65
f 4//65 81//64 82//65
f 4//65 82//65 3//66
f 3//66 82//65 83//66
f 3//66 83//66 2//1
f 2//1 83//66 84//1

g face 1
f 42//67 23//67 1//67
f 1//67 23//67 22//67
f 1//67 22//67 2//67
f 2//67 22//67 21//67
f 2//67 21//67 3//67
f 3//67 21//67 20//67
f 3//67 20//67 4//67
f 4//67 20//67 19//67
f 4//67 19//67 5//67
f 5//67 19//67 18//67
f 5//67 18//67 6//67
f 6//67 18//67 17//67
f 6//67 17//67 7//67
f 7//67 17//67 16//67
f 7//67 16//67 8//67
f 8//67 16//67 15//67
f 8//67 15//67 9//67
f 9//67 15//67 14//67
f 9//67 14//67 10//67
f 10//67 14//67 13//67
f 10//67 13//67 11//67
f 11//67 13//67 12//67
f 23//67 42//67 24//67
f 24//67 42//67 41//67
f 24//67 41//67 25//67
f 25//67 41//67 40//67
f 25//67 40//67 26//67
f 26//67 40//67 39//67
f 26//67 39//67 27//67
f 27//67 39//67 38//67
f 27//67 38//67 28//67
f 28//67 38//67 37//67
f 28//67 37//67 29//67
f 29//67 37//67 36//67
f 29//67 36//67 30//67
f 30//67 36//67 35//67
f 30//67 35//67 31//67
f 31//67 35//67 34//67
f 31//67 34//67 32//67
f 32//67 34//67 33//67

g face 2
f 84//68 65//68 43//68
f 43//68 65//68 64//68
f 43//68 64//68 44//68
f 44//68 64//68 63//68
f 44//68 63//68 45//68
f 45//68 63//68 62//68
f 45//68 62//68 46//68
f 46//68 62//68 61//68
f 46//68 61//68 47//68
f 47//68 61//68 60//68
f 47//68 60//68 48//68
f 48//68 60//68 59//68
f 48//68 59//68 49//68
f 49//68 59//68 58//68
f 49//68 58//68 50//68
f 50//68 58//68 57//68
f 50//68 57//68 51//68
f 51//68 57//68 56//68
f 51//68 56//68 52//68
f 52//68 56//68 55//68
f 52//68 55//68 53//68
f 53//68 55//68 54//68
f 65//68 84//68 66//68
f 66//68 84//68 83//68
f 66//68 83//68 67//68
f 67//68 83//68 82//68
f 67//68 82//68 68//68
f 68//68 82//68 81//68
f 68//68 81//68 69//68
f 69//68 81//68 80//68
f 69//68 80//68 70//68
f 70//68 80//68 79//68
f 70//68 79//68 71//68
f 71//68 79//68 78//68
f 71//68 78//68 72//68
f 72//68 78//68 77//68
f 72//68 77//68 73//68
f 73//68 77//68 76//68
f 73//68 76//68 74//68
f 74//68 76//68 75//68

g halfedge 0 edge 0
l 1 42 41 40 39 38 37 36 35 34 33 32 31 30 29 28 27 26 25 24 23 22 21 20 19 18 17 16 15 14 13 12 11 10 9 8 7 6 5 4 3 2 1

g halfedge 1 edge 0
l 1 2 3 4 5 6 7 8 9 10 11 12 13 14 15 16 17 18 19 20 21 22 23 24 25 26 27 28 29 30 31 32 33 34 35 36 37 38 39 40 41 42 1

g halfedge 2 edge 1
l 43 84 83 82 81 80 79 78 77 76 75 74 73 72 71 70 69 68 67 66 65 64 63 62 61 60 59 58 57 56 55 54 53 52 51 50 49 48 47 46 45 44 43

g halfedge 3 edge 1
l 43 44 45 46 47 48 49 50 51 52 53 54 55 56 57 58 59 60 61 62 63 64 65 66 67 68 69 70 71 72 73 74 75 76 77 78 79 80 81 82 83 84 43

g vertex 0
p 1

g vertex 1
p 43

# End of file
