22700 0 2 4           
16 Autodesk Neutron 20 ASM 227.1.1.65535 NT 24 Wed Aug 25 06:16:32 2021 
10 9.999999999999999547e-07 1.000000000000000036e-10 
asmheader $-1 -1 @13 227.1.1.65535 #
body $2 1721 $-1 $3 $-1 $-1 #
ATTRIB_CUSTOM-attrib $-1 -1 $4 $-1 $1 @20 Timestamp_attrib_def 1 1448291859001 #
lump $-1 -1 $-1 $-1 $5 $1 #
ATTRIB_CUSTOM-attrib $6 -1 $-1 $2 $1 @22 generic_tag_attrib_def 3 3 -1 @23 generic_tag_attrib_def  1 3 @3 770 3 0 0 #
shell $-1 -1 $-1 $-1 $-1 $7 $-1 $3 #
ATTRIB_CUSTOM-attrib $-1 -1 $-1 $-1 $4 @22 generic_tag_attrib_def 3 3 -1 @23 generic_tag_attrib_def  1 0 @0  0 1 776 0 #
face $8 1513 $-1 $9 $10 $5 $-1 $11 reversed single #
ATTRIB_CUSTOM-attrib $12 -1 $-1 $-1 $7 @22 generic_tag_attrib_def 3 3 -1 @23 generic_tag_attrib_def  2 1 @1 1 0 7 375 -417 514 536 540 541 770 0 1 @1 1 0 7 378 -417 514 536 540 541 770 0 #
face $13 1514 $-1 $14 $15 $5 $-1 $16 forward single #
loop $-1 -1 $-1 $-1 $17 $7 #
plane-surface $-1 -1 $-1 -0.04470235630136709659 -0.4470999992597666228 5.213391100257460664 9.916112095558370959e-18 -1 -3.445092848397680833e-16 0.6999999999999998446 6.941278466890721158e-18 3.955193370856956135e-16 reverse_v I I I I #
ATTRIB_CUSTOM-attrib $-1 -1 $-1 $-1 $8 @22 generic_tag_attrib_def 3 3 -1 @23 generic_tag_attrib_def  1 0 @0  0 2 542 776 0 #
ATTRIB_CUSTOM-attrib $18 -1 $-1 $-1 $9 @22 generic_tag_attrib_def 3 3 -1 @23 generic_tag_attrib_def  1 1 @1 3 0 7 375 -417 514 536 540 541 770 0 #
face $19 1515 $-1 $20 $21 $5 $-1 $22 forward single #
loop $-1 -1 $-1 $-1 $23 $9 #
plane-surface $-1 -1 $-1 0.217797643698632859 -0.4470999992597666228 5.213391100257460664 0.8660254037844390407 1.808422474014115519e-16 -0.4999999999999994449 -0.3499999999999995337 2.05377015524148562e-16 -0.6062177826491073063 reverse_v I I I I #
coedge $-1 -1 $-1 $24 $25 $26 $27 reversed $10 0 $-1 #
ATTRIB_CUSTOM-attrib $-1 -1 $-1 $-1 $13 @22 generic_tag_attrib_def 3 3 -1 @23 generic_tag_attrib_def  1 0 @0  0 2 542 776 0 #
ATTRIB_CUSTOM-attrib $28 -1 $-1 $-1 $14 @22 generic_tag_attrib_def 3 3 -1 @23 generic_tag_attrib_def  1 1 @1 8 0 7 375 -417 514 536 540 541 770 0 #
face $29 1516 $-1 $30 $31 $5 $-1 $32 forward single #
loop $-1 -1 $-1 $-1 $33 $14 #
plane-surface $-1 -1 $-1 0.08654764369863277018 -0.4470999992597668449 5.44072276875087546 0.8660254037844384856 -1.636670374383566053e-16 0.5000000000000004441 0.3500000000000001998 2.123182939910393125e-16 -0.6062177826491068622 reverse_v I I I I #
coedge $-1 -1 $-1 $34 $35 $36 $37 reversed $15 0 $-1 #
coedge $-1 -1 $-1 $38 $17 $39 $40 reversed $10 0 $-1 #
coedge $-1 -1 $-1 $17 $41 $42 $43 reversed $10 0 $-1 #
coedge $-1 -1 $-1 $44 $45 $17 $27 forward $46 0 $-1 #
edge $-1 1535 $-1 $47 0.5235987755982987046 $48 1.570796326794897002 $17 $49 forward @7 unknown #
ATTRIB_CUSTOM-attrib $-1 -1 $-1 $-1 $19 @22 generic_tag_attrib_def 3 3 -1 @23 generic_tag_attrib_def  1 0 @0  0 2 542 776 0 #
ATTRIB_CUSTOM-attrib $50 -1 $-1 $-1 $20 @22 generic_tag_attrib_def 3 3 -1 @23 generic_tag_attrib_def  1 1 @1 4 0 7 375 -417 514 536 540 541 770 0 #
face $51 1517 $-1 $52 $53 $5 $-1 $54 reversed single #
loop $-1 -1 $-1 $-1 $55 $20 #
plane-surface $-1 -1 $-1 0.08654764369863299223 -0.4470999992597666783 4.986059431764045868 5.650276244081366612e-16 3.445092848397680833e-16 -1 -0.6999999999999998446 -6.941278466890721158e-18 -3.955193370856956135e-16 reverse_v I I I I #
coedge $-1 -1 $-1 $56 $57 $58 $59 reversed $21 0 $-1 #
coedge $-1 -1 $-1 $60 $23 $61 $62 reversed $15 0 $-1 #
coedge $-1 -1 $-1 $23 $63 $64 $65 reversed $15 0 $-1 #
coedge $-1 -1 $-1 $66 $67 $23 $37 forward $68 0 $-1 #
edge $-1 1541 $-1 $69 0.1902148108885498567 $70 0.3804296217770998245 $36 $71 forward @7 unknown #
coedge $-1 -1 $-1 $72 $24 $67 $73 reversed $10 0 $-1 #
coedge $-1 -1 $-1 $58 $61 $24 $40 forward $74 0 $-1 #
edge $-1 1536 $-1 $69 -0.5235987755982988157 $47 0.5235987755982987046 $24 $49 forward @7 unknown #
coedge $-1 -1 $-1 $25 $72 $75 $76 reversed $10 0 $-1 #
coedge $-1 -1 $-1 $77 $78 $25 $43 forward $79 0 $-1 #
edge $-1 1540 $-1 $48 1.570796326794897002 $80 2.617993877991494855 $25 $49 forward @7 unknown #
coedge $-1 -1 $-1 $45 $26 $81 $82 forward $46 0 $-1 #
coedge $-1 -1 $-1 $26 $44 $56 $83 forward $46 0 $-1 #
loop $-1 -1 $-1 $-1 $44 $84 #
vertex $-1 1781 $-1 $27 0 $85 #
vertex $-1 1780 $-1 $27 1 $86 #
ellipse-curve $-1 -1 $-1 -0.04470235630136709659 -0.4470999992597666228 5.213391100257460664 9.916112095558370959e-18 -1 -3.445092848397680833e-16 0.2273316684934151011 2.254246307650974988e-18 1.284486726015723882e-16 1 I I #
ATTRIB_CUSTOM-attrib $-1 -1 $-1 $-1 $29 @22 generic_tag_attrib_def 3 3 -1 @23 generic_tag_attrib_def  1 0 @0  0 2 542 776 0 #
ATTRIB_CUSTOM-attrib $87 -1 $-1 $-1 $30 @22 generic_tag_attrib_def 3 3 -1 @23 generic_tag_attrib_def  1 1 @1 3 0 7 383 -417 514 536 540 541 770 0 #
face $88 1518 $-1 $89 $90 $5 $-1 $54 reversed single #
loop $-1 -1 $-1 $-1 $91 $30 #
cone-surface $-1 -1 $-1 -0.04470235630136709659 -0.6560477764286281044 5.213391100257460664 -9.916112095558370959e-18 1 3.445092848397680833e-16 0.2449158342467075145 2.428612866367497808e-18 1.383842120043541309e-16 1 I I -0.8660254037844388186 -0.4999999999999999445 0.2449158342467075145 reversed I I I I #
coedge $-1 -1 $-1 $92 $93 $94 $95 reversed $31 0 $-1 #
coedge $-1 -1 $-1 $96 $33 $45 $83 reversed $21 0 $-1 #
coedge $-1 -1 $-1 $33 $97 $60 $98 reversed $21 0 $-1 #
coedge $-1 -1 $-1 $61 $39 $33 $59 forward $74 0 $-1 #
edge $-1 1547 $-1 $47 0.1902148108885497457 $99 0.380429621777099547 $58 $100 forward @7 unknown #
coedge $-1 -1 $-1 $101 $34 $57 $98 forward $15 0 $-1 #
coedge $-1 -1 $-1 $39 $58 $34 $62 forward $74 0 $-1 #
edge $-1 1542 $-1 $99 0 $69 0.1902148108885498567 $61 $102 forward @7 unknown #
coedge $-1 -1 $-1 $35 $101 $103 $104 reversed $15 0 $-1 #
coedge $-1 -1 $-1 $105 $92 $35 $65 forward $31 0 $-1 #
edge $-1 1546 $-1 $70 0.02900635094610965956 $106 0.2839936490538903513 $64 $107 forward @7 unknown #
coedge $-1 -1 $-1 $67 $36 $92 $108 forward $68 0 $-1 #
coedge $-1 -1 $-1 $36 $66 $38 $73 forward $68 0 $-1 #
loop $-1 -1 $-1 $-1 $66 $109 #
vertex $-1 1782 $-1 $73 1 $110 #
vertex $-1 1786 $-1 $108 0 $111 #
intcurve-curve $-1 -1 $-1 forward { exact_int_cur 22140 full nurbs 2 open 2 
	0.1902148108885498567 2 0.3804296217770998245 2 
	0.1521726436986328146 -0.4470999992597666228 5.099725266010753266 1 
	0.12171597520521793 -0.4470999992597666783 5.046972768750875638 1.037954849302054283 
	0.08654764369863299223 -0.4674044449220434161 4.986059431764045868 1 
	0 
	
	null_surface 
	null_surface 
	nullbs 
	nullbs 
	I I 
	0 
	0 
	0 
	
	0 F 1 F 0 UNEXTENDED UNEXTENDED } I I #
coedge $-1 -1 $-1 $41 $38 $112 $113 reversed $10 0 $-1 #
edge $-1 1537 $-1 $114 -1.570796326794896558 $69 -0.5235987755982988157 $38 $49 forward @7 unknown #
loop $-1 -1 $-1 $-1 $61 $115 #
coedge $-1 -1 $-1 $116 $117 $41 $76 forward $118 0 $-1 #
edge $-1 1539 $-1 $80 2.617993877991494855 $119 3.665191429188091821 $41 $49 forward @7 unknown #
coedge $-1 -1 $-1 $78 $42 $120 $121 forward $79 0 $-1 #
coedge $-1 -1 $-1 $42 $77 $122 $123 forward $79 0 $-1 #
loop $-1 -1 $-1 $-1 $77 $124 #
vertex $-1 1785 $-1 $43 1 $125 #
coedge $-1 -1 $-1 $122 $126 $44 $82 reversed $127 0 $-1 #
edge $-1 1571 $-1 $48 0.1902148108885500788 $128 0.3804296217771001576 $44 $129 forward @7 unknown #
edge $-1 1548 $-1 $128 0 $47 0.1902148108885497457 $45 $130 forward @7 unknown #
face $131 1530 $-1 $115 $46 $5 $-1 $132 reversed single #
point $-1 -1 $-1 0.1521726436986328146 -0.4470999992597666228 5.327056934504168062 #
point $-1 -1 $-1 -0.04470235630136731864 -0.4470999992597668449 5.44072276875087546 #
ATTRIB_CUSTOM-attrib $-1 -1 $-1 $-1 $51 @22 generic_tag_attrib_def 3 3 -1 @23 generic_tag_attrib_def  1 0 @0  0 2 542 776 0 #
ATTRIB_CUSTOM-attrib $133 -1 $-1 $-1 $52 @22 generic_tag_attrib_def 3 3 -1 @23 generic_tag_attrib_def  1 1 @1 3 0 7 383 -417 514 536 540 541 770 0 #
face $134 1519 $-1 $135 $136 $5 $-1 $54 reversed single #
loop $-1 -1 $-1 $-1 $137 $52 #
coedge $-1 -1 $-1 $138 $139 $140 $141 forward $53 0 $-1 #
coedge $-1 -1 $-1 $64 $55 $66 $108 reversed $31 0 $-1 #
coedge $-1 -1 $-1 $55 $142 $143 $144 reversed $31 0 $-1 #
coedge $-1 -1 $-1 $145 $112 $55 $95 forward $146 0 $-1 #
edge $-1 1552 $-1 $114 0.1902148108885499678 $147 0.3804296217770999355 $94 $148 forward @7 unknown #
coedge $-1 -1 $-1 $149 $56 $126 $150 forward $21 0 $-1 #
coedge $-1 -1 $-1 $57 $149 $151 $152 reversed $21 0 $-1 #
edge $-1 1543 $-1 $99 0.02900635094610965609 $153 0.2839936490538903513 $57 $154 forward @7 unknown #
vertex $-1 1787 $-1 $62 0 $155 #
intcurve-curve $-1 -1 $-1 forward { exact_int_cur 22140 full nurbs 2 open 2 
	0.1902148108885497457 2 0.380429621777099547 2 
	0.1521726436986328146 -0.4470999992597668449 5.327056934504168062 1 
	0.1826293121920479212 -0.4470999992597668449 5.274304437244291321 1.037954849302040961 
	0.217797643698632859 -0.4674044449220433606 5.213391100257460664 1 
	0 
	
	null_surface 
	null_surface 
	nullbs 
	nullbs 
	I I 
	0 
	0 
	0 
	
	0 F 1 F 0 UNEXTENDED UNEXTENDED } I I #
coedge $-1 -1 $-1 $63 $60 $156 $157 reversed $15 0 $-1 #
intcurve-curve $-1 -1 $-1 forward { exact_int_cur 22140 full nurbs 2 open 2 
	0 2 0.1902148108885498567 2 
	0.217797643698632859 -0.4674044449220433606 5.213391100257460664 1 
	0.1826293121920481433 -0.4470999992597666228 5.152477763270630895 1.037954849302037186 
	0.1521726436986328146 -0.4470999992597666228 5.099725266010753266 1 
	0 
	
	null_surface 
	null_surface 
	nullbs 
	nullbs 
	I I 
	0 
	0 
	0 
	
	0 F 1 F 0 UNEXTENDED UNEXTENDED } I I #
coedge $-1 -1 $-1 $158 $159 $63 $104 forward $160 0 $-1 #
edge $-1 1545 $-1 $106 0 $161 0.1902148108885498012 $63 $162 forward @7 unknown #
coedge $-1 -1 $-1 $142 $64 $159 $163 reversed $31 0 $-1 #
vertex $-1 1790 $-1 $163 1 $164 #
straight-curve $-1 -1 $-1 0.08654764369863299223 -0.4470999992597666783 4.986059431764045868 6.941278466890859825e-18 -0.6999999999999998446 -2.411564993878376731e-16 I I #
edge $-1 1553 $-1 $70 0 $114 0.1902148108885499678 $66 $165 forward @7 unknown #
face $166 1528 $-1 $124 $68 $5 $-1 $132 reversed single #
point $-1 -1 $-1 0.1521726436986328146 -0.4470999992597666228 5.099725266010753266 #
point $-1 -1 $-1 0.08654764369863299223 -0.4674044449220434161 4.986059431764045868 #
coedge $-1 -1 $-1 $94 $145 $72 $113 forward $146 0 $-1 #
edge $-1 1538 $-1 $119 -2.617993877991494411 $114 -1.570796326794896558 $72 $49 forward @7 unknown #
vertex $-1 1783 $-1 $113 1 $167 #
face $168 1531 $-1 $169 $74 $5 $-1 $132 reversed single #
coedge $-1 -1 $-1 $117 $75 $170 $171 forward $118 0 $-1 #
coedge $-1 -1 $-1 $75 $116 $172 $173 forward $118 0 $-1 #
loop $-1 -1 $-1 $-1 $116 $174 #
vertex $-1 1784 $-1 $76 1 $175 #
coedge $-1 -1 $-1 $172 $176 $77 $121 reversed $177 0 $-1 #
edge $-1 1574 $-1 $80 0.1902148108885499123 $178 0.380429621777099769 $77 $179 forward @7 unknown #
coedge $-1 -1 $-1 $180 $81 $78 $123 reversed $127 0 $-1 #
edge $-1 1569 $-1 $178 0 $48 0.1902148108885500788 $78 $181 forward @7 unknown #
face $182 1529 $-1 $84 $79 $5 $-1 $132 reversed single #
point $-1 -1 $-1 -0.2415773563013672298 -0.4470999992597666228 5.327056934504168062 #
coedge $-1 -1 $-1 $81 $183 $96 $150 reversed $127 0 $-1 #
loop $-1 -1 $-1 $-1 $122 $184 #
vertex $-1 1791 $-1 $82 1 $185 #
intcurve-curve $-1 -1 $-1 forward { exact_int_cur 22140 full nurbs 2 open 2 
	0.1902148108885500788 2 0.3804296217771001576 2 
	-0.04470235630136731864 -0.4470999992597668449 5.44072276875087546 1 
	0.01621098068546267257 -0.4470999992597668449 5.44072276875087546 1.037954849302036742 
	0.08654764369863277018 -0.4674044449220435826 5.44072276875087546 1 
	0 
	
	null_surface 
	null_surface 
	nullbs 
	nullbs 
	I I 
	0 
	0 
	0 
	
	0 F 1 F 0 UNEXTENDED UNEXTENDED } I I #
intcurve-curve $-1 -1 $-1 forward { exact_int_cur 22140 full nurbs 2 open 2 
	0 2 0.1902148108885497457 2 
	0.08654764369863277018 -0.4674044449220435826 5.44072276875087546 1 
	0.121715975205217708 -0.4470999992597668449 5.379809431764045691 1.037954849302040961 
	0.1521726436986328146 -0.4470999992597668449 5.327056934504168062 1 
	0 
	
	null_surface 
	null_surface 
	nullbs 
	nullbs 
	I I 
	0 
	0 
	0 
	
	0 F 1 F 0 UNEXTENDED UNEXTENDED } I I #
ATTRIB_CUSTOM-attrib $186 -1 $-1 $-1 $84 @22 generic_tag_attrib_def 3 3 -1 @23 generic_tag_attrib_def  1 1 @1 5 0 7 384 -417 514 536 540 541 770 0 #
cone-surface $-1 -1 $-1 -0.04470235630136709659 -0.4572522220909049917 5.213391100257460664 -6.644080971683518284e-32 1 3.445092848397680833e-16 0.2449158342467075145 2.428612866367497808e-18 1.383842120043541309e-16 1 I I 0.8660254037844387076 -0.5 0.2449158342467075145 reversed I I I I #
ATTRIB_CUSTOM-attrib $-1 -1 $-1 $-1 $88 @22 generic_tag_attrib_def 3 3 -1 @23 generic_tag_attrib_def  1 0 @0  0 2 542 776 0 #
ATTRIB_CUSTOM-attrib $187 -1 $-1 $-1 $89 @22 generic_tag_attrib_def 3 3 -1 @23 generic_tag_attrib_def  1 1 @1 3 0 7 383 -417 514 536 540 541 770 0 #
face $188 1520 $-1 $189 $190 $5 $-1 $54 reversed single #
loop $-1 -1 $-1 $-1 $191 $89 #
coedge $-1 -1 $-1 $192 $193 $194 $195 forward $90 0 $-1 #
coedge $-1 -1 $-1 $139 $91 $196 $197 forward $53 0 $-1 #
coedge $-1 -1 $-1 $91 $138 $198 $199 forward $53 0 $-1 #
coedge $-1 -1 $-1 $183 $180 $91 $141 reversed $127 0 $-1 #
edge $-1 1557 $-1 $200 0.19021481088854994 $201 0.38042962177709988 $140 $202 forward @7 unknown #
coedge $-1 -1 $-1 $93 $105 $203 $204 reversed $31 0 $-1 #
coedge $-1 -1 $-1 $205 $206 $93 $144 forward $207 0 $-1 #
edge $-1 1556 $-1 $147 0.02900635094610964915 $208 0.2839936490538903513 $143 $209 forward @7 unknown #
coedge $-1 -1 $-1 $112 $94 $206 $210 forward $146 0 $-1 #
loop $-1 -1 $-1 $-1 $94 $211 #
vertex $-1 1794 $-1 $95 1 $212 #
intcurve-curve $-1 -1 $-1 forward { exact_int_cur 22140 full nurbs 2 open 2 
	0.1902148108885499678 2 0.3804296217770999355 2 
	-0.04470235630136709659 -0.4470999992597666783 4.986059431764045868 1 
	-0.1056156932881973098 -0.4470999992597666783 4.986059431764045868 1.037954849302035853 
	-0.1759523563013669634 -0.4674044449220434161 4.986059431764045868 1 
	0 
	
	null_surface 
	null_surface 
	nullbs 
	nullbs 
	I I 
	0 
	0 
	0 
	
	0 F 1 F 0 UNEXTENDED UNEXTENDED } I I #
coedge $-1 -1 $-1 $97 $96 $213 $214 reversed $21 0 $-1 #
edge $-1 1549 $-1 $128 0.02900635094610965609 $215 0.2839936490538903513 $96 $216 forward @7 unknown #
coedge $-1 -1 $-1 $217 $156 $97 $152 forward $190 0 $-1 #
edge $-1 1551 $-1 $153 0 $218 0.1902148108885498567 $97 $219 forward @7 unknown #
vertex $-1 1788 $-1 $98 1 $220 #
straight-curve $-1 -1 $-1 0.217797643698632859 -0.4470999992597666228 5.213391100257460664 6.941278466890859825e-18 -0.6999999999999998446 -2.411564993878376731e-16 I I #
point $-1 -1 $-1 0.217797643698632859 -0.4674044449220433606 5.213391100257460664 #
coedge $-1 -1 $-1 $151 $217 $101 $157 forward $190 0 $-1 #
edge $-1 1544 $-1 $161 0.1902148108885498012 $153 0.380429621777099547 $101 $221 forward @7 unknown #
coedge $-1 -1 $-1 $159 $103 $222 $223 forward $160 0 $-1 #
coedge $-1 -1 $-1 $103 $158 $105 $163 forward $160 0 $-1 #
loop $-1 -1 $-1 $-1 $103 $224 #
vertex $-1 1789 $-1 $104 1 $225 #
intcurve-curve $-1 -1 $-1 forward { exact_int_cur 22140 full nurbs 2 open 2 
	0 2 0.1902148108885498012 2 
	0.08654764369863299223 -0.6458955535974897355 4.986059431764045868 1 
	0.121715975205217708 -0.6661999992597662512 5.046972768750876526 1.03795484930203874 
	0.1521726436986328146 -0.6661999992597666953 5.099725266010753266 1 
	0 
	
	null_surface 
	null_surface 
	nullbs 
	nullbs 
	I I 
	0 
	0 
	0 
	
	0 F 1 F 0 UNEXTENDED UNEXTENDED } I I #
edge $-1 1554 $-1 $226 0.1902148108885499955 $106 0.3804296217770999911 $105 $227 forward @7 unknown #
point $-1 -1 $-1 0.08654764369863299223 -0.6458955535974897355 4.986059431764045868 #
intcurve-curve $-1 -1 $-1 forward { exact_int_cur 22140 full nurbs 2 open 2 
	0 2 0.1902148108885499678 2 
	0.08654764369863299223 -0.4674044449220434161 4.986059431764045868 1 
	0.01621098068546311666 -0.4470999992597666783 4.986059431764045868 1.037954849302052951 
	-0.04470235630136709659 -0.4470999992597666783 4.986059431764045868 1 
	0 
	
	null_surface 
	null_surface 
	nullbs 
	nullbs 
	I I 
	0 
	0 
	0 
	
	0 F 1 F 0 UNEXTENDED UNEXTENDED } I I #
ATTRIB_CUSTOM-attrib $228 -1 $-1 $-1 $109 @22 generic_tag_attrib_def 3 3 -1 @23 generic_tag_attrib_def  1 1 @1 5 0 7 384 -417 514 536 540 541 770 0 #
point $-1 -1 $-1 -0.04470235630136709659 -0.4470999992597666783 4.986059431764045868 #
ATTRIB_CUSTOM-attrib $229 -1 $-1 $-1 $115 @22 generic_tag_attrib_def 3 3 -1 @23 generic_tag_attrib_def  1 1 @1 5 0 7 384 -417 514 536 540 541 770 0 #
face $230 1532 $-1 $231 $232 $5 $-1 $233 forward single #
coedge $-1 -1 $-1 $206 $234 $116 $171 reversed $207 0 $-1 #
edge $-1 1576 $-1 $119 0.1902148108885500788 $235 0.3804296217771000466 $116 $236 forward @7 unknown #
coedge $-1 -1 $-1 $237 $120 $117 $173 reversed $177 0 $-1 #
edge $-1 1572 $-1 $235 0 $80 0.1902148108885499123 $117 $238 forward @7 unknown #
face $239 1527 $-1 $109 $118 $5 $-1 $132 reversed single #
point $-1 -1 $-1 -0.2415773563013670078 -0.4470999992597666228 5.099725266010753266 #
coedge $-1 -1 $-1 $120 $196 $180 $240 reversed $177 0 $-1 #
loop $-1 -1 $-1 $-1 $172 $241 #
vertex $-1 1802 $-1 $121 1 $242 #
intcurve-curve $-1 -1 $-1 forward { exact_int_cur 22140 full nurbs 2 open 2 
	0.1902148108885499123 2 0.380429621777099769 2 
	-0.2415773563013672298 -0.4470999992597668449 5.327056934504168062 1 
	-0.2111206878079521232 -0.4470999992597666228 5.379809431764045691 1.037954849302044291 
	-0.1759523563013674075 -0.4674044449220435826 5.44072276875087546 1 
	0 
	
	null_surface 
	null_surface 
	nullbs 
	nullbs 
	I I 
	0 
	0 
	0 
	
	0 F 1 F 0 UNEXTENDED UNEXTENDED } I I #
coedge $-1 -1 $-1 $140 $122 $176 $240 forward $127 0 $-1 #
intcurve-curve $-1 -1 $-1 forward { exact_int_cur 22140 full nurbs 2 open 2 
	0 2 0.1902148108885500788 2 
	-0.1759523563013674075 -0.4674044449220435826 5.44072276875087546 1 
	-0.1056156932881973098 -0.4470999992597668449 5.44072276875087546 1.037954849302036742 
	-0.04470235630136731864 -0.4470999992597668449 5.44072276875087546 1 
	0 
	
	null_surface 
	null_surface 
	nullbs 
	nullbs 
	I I 
	0 
	0 
	0 
	
	0 F 1 F 0 UNEXTENDED UNEXTENDED } I I #
ATTRIB_CUSTOM-attrib $243 -1 $-1 $-1 $124 @22 generic_tag_attrib_def 3 3 -1 @23 generic_tag_attrib_def  1 1 @1 5 0 7 384 -417 514 536 540 541 770 0 #
coedge $-1 -1 $-1 $126 $140 $191 $244 reversed $127 0 $-1 #
face $245 1523 $-1 $241 $127 $5 $-1 $246 forward single #
point $-1 -1 $-1 0.08654764369863277018 -0.4674044449220435826 5.44072276875087546 #
ATTRIB_CUSTOM-attrib $-1 -1 $-1 $-1 $131 @22 generic_tag_attrib_def 3 3 -1 @23 generic_tag_attrib_def  1 0 @0  0 2 542 776 0 #
ATTRIB_CUSTOM-attrib $-1 -1 $-1 $-1 $134 @22 generic_tag_attrib_def 3 3 -1 @23 generic_tag_attrib_def  1 0 @0  0 2 542 776 0 #
ATTRIB_CUSTOM-attrib $247 -1 $-1 $-1 $135 @22 generic_tag_attrib_def 3 3 -1 @23 generic_tag_attrib_def  1 1 @1 3 0 7 383 -417 514 536 540 541 770 0 #
face $248 1521 $-1 $224 $249 $5 $-1 $54 reversed single #
loop $-1 -1 $-1 $-1 $151 $135 #
coedge $-1 -1 $-1 $250 $213 $183 $244 forward $136 0 $-1 #
coedge $-1 -1 $-1 $193 $137 $251 $252 forward $90 0 $-1 #
coedge $-1 -1 $-1 $137 $192 $253 $254 forward $90 0 $-1 #
coedge $-1 -1 $-1 $196 $237 $137 $195 reversed $177 0 $-1 #
edge $-1 1560 $-1 $255 0.1902148108885498567 $256 0.3804296217770997135 $194 $257 forward @7 unknown #
coedge $-1 -1 $-1 $176 $194 $138 $197 reversed $177 0 $-1 #
edge $-1 1558 $-1 $201 0 $255 0.1902148108885498567 $196 $258 forward @7 unknown #
coedge $-1 -1 $-1 $253 $259 $139 $199 reversed $232 0 $-1 #
edge $-1 1559 $-1 $255 -2.617993877991494411 $200 -1.570796326794897002 $198 $260 forward @7 unknown #
vertex $-1 1797 $-1 $244 1 $261 #
vertex $-1 1798 $-1 $141 1 $262 #
intcurve-curve $-1 -1 $-1 forward { exact_int_cur 22140 full nurbs 2 open 2 
	0.19021481088854994 2 0.38042962177709988 2 
	-0.04470235630136731864 -0.6661999992597666953 5.44072276875087546 1 
	-0.1056156932881975319 -0.6661999992597666953 5.44072276875087546 1.03795484930205939 
	-0.1759523563013671854 -0.6458955535974899576 5.44072276875087546 1 
	0 
	
	null_surface 
	null_surface 
	nullbs 
	nullbs 
	I I 
	0 
	0 
	0 
	
	0 F 1 F 0 UNEXTENDED UNEXTENDED } I I #
coedge $-1 -1 $-1 $263 $264 $142 $204 forward $249 0 $-1 #
edge $-1 1555 $-1 $208 0 $226 0.1902148108885499955 $142 $265 forward @7 unknown #
coedge $-1 -1 $-1 $251 $143 $264 $266 reversed $207 0 $-1 #
coedge $-1 -1 $-1 $143 $170 $145 $210 reversed $207 0 $-1 #
loop $-1 -1 $-1 $-1 $206 $267 #
vertex $-1 1796 $-1 $266 1 $268 #
straight-curve $-1 -1 $-1 -0.1759523563013669634 -0.4470999992597666783 4.986059431764045868 6.941278466890859825e-18 -0.6999999999999998446 -2.411564993878376731e-16 I I #
edge $-1 1575 $-1 $147 0 $119 0.1902148108885500788 $145 $269 forward @7 unknown #
face $270 1526 $-1 $174 $146 $5 $-1 $132 reversed single #
point $-1 -1 $-1 -0.1759523563013669634 -0.4674044449220434161 4.986059431764045868 #
coedge $-1 -1 $-1 $191 $250 $149 $214 forward $136 0 $-1 #
edge $-1 1550 $-1 $218 0.1902148108885498567 $215 0.3804296217770997135 $149 $271 forward @7 unknown #
vertex $-1 1792 $-1 $214 1 $272 #
straight-curve $-1 -1 $-1 0.08654764369863277018 -0.4470999992597668449 5.44072276875087546 6.941278466890859825e-18 -0.6999999999999998446 -2.411564993878376731e-16 I I #
coedge $-1 -1 $-1 $156 $151 $273 $274 forward $190 0 $-1 #
vertex $-1 1793 $-1 $152 1 $275 #
intcurve-curve $-1 -1 $-1 forward { exact_int_cur 22140 full nurbs 2 open 2 
	0 2 0.1902148108885498567 2 
	0.217797643698632859 -0.6458955535974897355 5.213391100257460664 1 
	0.1826293121920481433 -0.6661999992597664733 5.274304437244291321 1.037954849302036742 
	0.1521726436986328146 -0.6661999992597664733 5.32705693450416895 1 
	0 
	
	null_surface 
	null_surface 
	nullbs 
	nullbs 
	I I 
	0 
	0 
	0 
	
	0 F 1 F 0 UNEXTENDED UNEXTENDED } I I #
point $-1 -1 $-1 0.217797643698632859 -0.6458955535974897355 5.213391100257460664 #
intcurve-curve $-1 -1 $-1 forward { exact_int_cur 22140 full nurbs 2 open 2 
	0.1902148108885498012 2 0.380429621777099547 2 
	0.1521726436986328146 -0.6661999992597666953 5.099725266010753266 1 
	0.1826293121920479212 -0.6661999992597666953 5.152477763270630007 1.03795484930202897 
	0.217797643698632637 -0.6458955535974897355 5.213391100257460664 1 
	0 
	
	null_surface 
	null_surface 
	nullbs 
	nullbs 
	I I 
	0 
	0 
	0 
	
	0 F 1 F 0 UNEXTENDED UNEXTENDED } I I #
coedge $-1 -1 $-1 $273 $276 $158 $223 reversed $232 0 $-1 #
edge $-1 1568 $-1 $161 0.5235987755982988157 $226 1.570796326794896558 $222 $260 forward @7 unknown #
face $277 1522 $-1 $184 $160 $5 $-1 $54 reversed single #
point $-1 -1 $-1 0.1521726436986328146 -0.6661999992597666953 5.099725266010753266 #
vertex $-1 1795 $-1 $204 1 $278 #
intcurve-curve $-1 -1 $-1 forward { exact_int_cur 22140 full nurbs 2 open 2 
	0.1902148108885499955 2 0.3804296217770999911 2 
	-0.04470235630136709659 -0.6661999992597664733 4.986059431764045868 1 
	0.0162109806854633387 -0.6661999992597664733 4.986059431764045868 1.037954849302044291 
	0.08654764369863299223 -0.6458955535974897355 4.986059431764045868 1 
	0 
	
	null_surface 
	null_surface 
	nullbs 
	nullbs 
	I I 
	0 
	0 
	0 
	
	0 F 1 F 0 UNEXTENDED UNEXTENDED } I I #
ATTRIB_CUSTOM-attrib $-1 -1 $-1 $-1 $166 @22 generic_tag_attrib_def 3 3 -1 @23 generic_tag_attrib_def  1 0 @0  0 2 542 776 0 #
ATTRIB_CUSTOM-attrib $-1 -1 $-1 $-1 $168 @22 generic_tag_attrib_def 3 3 -1 @23 generic_tag_attrib_def  1 0 @0  0 2 542 776 0 #
ATTRIB_CUSTOM-attrib $279 -1 $-1 $-1 $169 @22 generic_tag_attrib_def 3 3 -1 @23 generic_tag_attrib_def  1 1 @1 2 0 7 375 -417 514 536 540 541 770 0 #
face $280 1533 $-1 $281 $282 $5 $-1 $283 forward single #
loop $-1 -1 $-1 $284 $276 $169 #
plane-surface $-1 -1 $-1 -0.04470235630136709659 -0.6661999992597666953 5.213391100257460664 9.916112095558370959e-18 -1 -3.445092848397680833e-16 0.6999999999999998446 6.941278466890721158e-18 3.955193370856956135e-16 reverse_v I I I I #
coedge $-1 -1 $-1 $170 $251 $237 $285 reversed $207 0 $-1 #
vertex $-1 1803 $-1 $171 1 $286 #
intcurve-curve $-1 -1 $-1 forward { exact_int_cur 22140 full nurbs 2 open 2 
	0.1902148108885500788 2 0.3804296217771000466 2 
	-0.2415773563013670078 -0.4470999992597666228 5.099725266010753266 1 
	-0.2720340247947821144 -0.4470999992597666228 5.152477763270630007 1.037954849302031635 
	-0.3072023563013670522 -0.4674044449220433606 5.213391100257460664 1 
	0 
	
	null_surface 
	null_surface 
	nullbs 
	nullbs 
	I I 
	0 
	0 
	0 
	
	0 F 1 F 0 UNEXTENDED UNEXTENDED } I I #
coedge $-1 -1 $-1 $194 $172 $234 $285 forward $177 0 $-1 #
intcurve-curve $-1 -1 $-1 forward { exact_int_cur 22140 full nurbs 2 open 2 
	0 2 0.1902148108885499123 2 
	-0.3072023563013670522 -0.4674044449220433606 5.213391100257460664 1 
	-0.2720340247947823364 -0.4470999992597668449 5.274304437244291321 1.037954849302042737 
	-0.2415773563013672298 -0.4470999992597668449 5.327056934504168062 1 
	0 
	
	null_surface 
	null_surface 
	nullbs 
	nullbs 
	I I 
	0 
	0 
	0 
	
	0 F 1 F 0 UNEXTENDED UNEXTENDED } I I #
ATTRIB_CUSTOM-attrib $287 -1 $-1 $-1 $174 @22 generic_tag_attrib_def 3 3 -1 @23 generic_tag_attrib_def  1 1 @1 5 0 7 384 -417 514 536 540 541 770 0 #
edge $-1 1570 $-1 $178 0.02900635094610964915 $201 0.2839936490538903513 $180 $288 forward @7 unknown #
face $289 1524 $-1 $267 $177 $5 $-1 $290 forward single #
point $-1 -1 $-1 -0.1759523563013674075 -0.4674044449220435826 5.44072276875087546 #
ATTRIB_CUSTOM-attrib $-1 -1 $-1 $-1 $182 @22 generic_tag_attrib_def 3 3 -1 @23 generic_tag_attrib_def  1 0 @0  0 2 542 776 0 #
edge $-1 1563 $-1 $215 0 $200 0.19021481088854994 $183 $291 forward @7 unknown #
ATTRIB_CUSTOM-attrib $292 -1 $-1 $-1 $184 @22 generic_tag_attrib_def 3 3 -1 @23 generic_tag_attrib_def  1 1 @1 7 0 7 375 -417 514 536 540 541 770 0 #
plane-surface $-1 -1 $-1 -0.1759523563013674075 -0.4470999992597668449 5.44072276875087546 -8.610870976415115743e-16 -3.445092848397680833e-16 1 0.6999999999999998446 6.941278466890650284e-18 6.027609683490579738e-16 reverse_v I I I I #
ATTRIB_CUSTOM-attrib $-1 -1 $-1 $-1 $188 @22 generic_tag_attrib_def 3 3 -1 @23 generic_tag_attrib_def  1 0 @0  0 2 542 776 0 #
ATTRIB_CUSTOM-attrib $293 -1 $-1 $-1 $189 @22 generic_tag_attrib_def 3 3 -1 @23 generic_tag_attrib_def  1 1 @1 3 0 7 383 -417 514 536 540 541 770 0 #
loop $-1 -1 $-1 $-1 $264 $189 #
coedge $-1 -1 $-1 $213 $191 $259 $294 forward $136 0 $-1 #
coedge $-1 -1 $-1 $234 $205 $192 $252 reversed $207 0 $-1 #
edge $-1 1561 $-1 $256 0 $295 0.1902148108885500788 $251 $296 forward @7 unknown #
coedge $-1 -1 $-1 $276 $198 $193 $254 reversed $232 0 $-1 #
edge $-1 1562 $-1 $295 2.617993877991494411 $255 3.665191429188091821 $253 $260 forward @7 unknown #
vertex $-1 1799 $-1 $197 1 $297 #
vertex $-1 1800 $-1 $195 1 $298 #
intcurve-curve $-1 -1 $-1 forward { exact_int_cur 22140 full nurbs 2 open 2 
	0.1902148108885498567 2 0.3804296217770997135 2 
	-0.2415773563013672298 -0.6661999992597664733 5.327056934504168062 1 
	-0.2720340247947823364 -0.6661999992597666953 5.274304437244291321 1.037954849302042293 
	-0.3072023563013670522 -0.6458955535974897355 5.213391100257460664 1 
	0 
	
	null_surface 
	null_surface 
	nullbs 
	nullbs 
	I I 
	0 
	0 
	0 
	
	0 F 1 F 0 UNEXTENDED UNEXTENDED } I I #
intcurve-curve $-1 -1 $-1 forward { exact_int_cur 22140 full nurbs 2 open 2 
	0 2 0.1902148108885498567 2 
	-0.1759523563013674075 -0.6458955535974899576 5.44072276875087546 1 
	-0.2111206878079521232 -0.6661999992597666953 5.379809431764045691 1.037954849302040961 
	-0.2415773563013672298 -0.6661999992597664733 5.327056934504168062 1 
	0 
	
	null_surface 
	null_surface 
	nullbs 
	nullbs 
	I I 
	0 
	0 
	0 
	
	0 F 1 F 0 UNEXTENDED UNEXTENDED } I I #
coedge $-1 -1 $-1 $198 $273 $250 $294 reversed $232 0 $-1 #
ellipse-curve $-1 -1 $-1 -0.04470235630136709659 -0.6661999992597666953 5.213391100257460664 -9.916112095558370959e-18 1 3.445092848397680833e-16 0.2273316684934150733 2.254246307650974603e-18 1.284486726015723635e-16 1 I I #
point $-1 -1 $-1 -0.04470235630136731864 -0.6661999992597666953 5.44072276875087546 #
point $-1 -1 $-1 -0.1759523563013674075 -0.6458955535974899576 5.44072276875087546 #
coedge $-1 -1 $-1 $264 $203 $276 $299 forward $249 0 $-1 #
coedge $-1 -1 $-1 $203 $263 $205 $266 forward $249 0 $-1 #
intcurve-curve $-1 -1 $-1 forward { exact_int_cur 22140 full nurbs 2 open 2 
	0 2 0.1902148108885499955 2 
	-0.1759523563013669634 -0.6458955535974897355 4.986059431764045868 1 
	-0.1056156932881973098 -0.6661999992597664733 4.986059431764045868 1.037954849302044291 
	-0.04470235630136709659 -0.6661999992597664733 4.986059431764045868 1 
	0 
	
	null_surface 
	null_surface 
	nullbs 
	nullbs 
	I I 
	0 
	0 
	0 
	
	0 F 1 F 0 UNEXTENDED UNEXTENDED } I I #
edge $-1 1566 $-1 $295 0.1902148108885500788 $208 0.3804296217770999911 $205 $300 forward @7 unknown #
face $301 1525 $-1 $211 $207 $5 $-1 $302 forward single #
point $-1 -1 $-1 -0.1759523563013669634 -0.6458955535974897355 4.986059431764045868 #
intcurve-curve $-1 -1 $-1 forward { exact_int_cur 22140 full nurbs 2 open 2 
	0 2 0.1902148108885500788 2 
	-0.1759523563013669634 -0.4674044449220434161 4.986059431764045868 1 
	-0.2111206878079519011 -0.4470999992597664563 5.046972768750876526 1.037954849302030746 
	-0.2415773563013670078 -0.4470999992597666228 5.099725266010753266 1 
	0 
	
	null_surface 
	null_surface 
	nullbs 
	nullbs 
	I I 
	0 
	0 
	0 
	
	0 F 1 F 0 UNEXTENDED UNEXTENDED } I I #
ATTRIB_CUSTOM-attrib $303 -1 $-1 $-1 $211 @22 generic_tag_attrib_def 3 3 -1 @23 generic_tag_attrib_def  1 1 @1 5 0 7 384 -417 514 536 540 541 770 0 #
intcurve-curve $-1 -1 $-1 forward { exact_int_cur 22140 full nurbs 2 open 2 
	0.1902148108885498567 2 0.3804296217770997135 2 
	0.1521726436986328146 -0.6661999992597664733 5.32705693450416895 1 
	0.121715975205217708 -0.6661999992597666953 5.379809431764045691 1.037954849302045179 
	0.08654764369863277018 -0.6458955535974899576 5.44072276875087546 1 
	0 
	
	null_surface 
	null_surface 
	nullbs 
	nullbs 
	I I 
	0 
	0 
	0 
	
	0 F 1 F 0 UNEXTENDED UNEXTENDED } I I #
point $-1 -1 $-1 0.08654764369863277018 -0.6458955535974899576 5.44072276875087546 #
coedge $-1 -1 $-1 $259 $222 $217 $274 reversed $232 0 $-1 #
edge $-1 1565 $-1 $218 -0.5235987755982987046 $161 0.5235987755982988157 $217 $260 forward @7 unknown #
point $-1 -1 $-1 0.1521726436986328146 -0.6661999992597666953 5.327056934504168062 #
coedge $-1 -1 $-1 $222 $253 $263 $299 reversed $232 0 $-1 #
ATTRIB_CUSTOM-attrib $304 -1 $-1 $-1 $224 @22 generic_tag_attrib_def 3 3 -1 @23 generic_tag_attrib_def  1 1 @1 3 0 7 383 -417 514 536 540 541 770 0 #
point $-1 -1 $-1 -0.04470235630136709659 -0.6661999992597666953 4.986059431764045868 #
ATTRIB_CUSTOM-attrib $-1 -1 $-1 $-1 $230 @22 generic_tag_attrib_def 3 3 -1 @23 generic_tag_attrib_def  1 0 @0  0 2 542 776 0 #
ATTRIB_CUSTOM-attrib $305 -1 $-1 $-1 $231 @22 generic_tag_attrib_def 3 3 -1 @23 generic_tag_attrib_def  1 1 @1 1 0 7 381 -417 514 536 540 541 770 0 #
face $306 1534 $-1 $-1 $307 $5 $-1 $308 reversed single #
loop $-1 -1 $-1 $309 $310 $231 #
torus-surface $-1 -1 $-1 -0.04470235630136709659 -0.6871999992597666029 5.213391100257460664 -9.916112095558370959e-18 1 3.445092848397680833e-16 0.1577800000000000036 -0.02099999999999999437 -1 -9.916112095558176825e-18 -5.650276244081366612e-16 reverse_v I I I I #
loop $-1 -1 $-1 $-1 $311 $169 #
edge $-1 1573 $-1 $235 0.02900635094610964915 $256 0.2839936490538903513 $237 $312 forward @7 unknown #
point $-1 -1 $-1 -0.3072023563013670522 -0.4674044449220433606 5.213391100257460664 #
ATTRIB_CUSTOM-attrib $-1 -1 $-1 $-1 $239 @22 generic_tag_attrib_def 3 3 -1 @23 generic_tag_attrib_def  1 0 @0  0 2 542 776 0 #
straight-curve $-1 -1 $-1 -0.1759523563013674075 -0.4470999992597668449 5.44072276875087546 6.941278466890859825e-18 -0.6999999999999998446 -2.411564993878376731e-16 I I #
ATTRIB_CUSTOM-attrib $313 -1 $-1 $-1 $241 @22 generic_tag_attrib_def 3 3 -1 @23 generic_tag_attrib_def  1 1 @1 6 0 7 375 -417 514 536 540 541 770 0 #
plane-surface $-1 -1 $-1 -0.3072023563013670522 -0.4470999992597666228 5.213391100257460664 -0.8660254037844391517 -1.808422474014115026e-16 0.4999999999999992784 0.3499999999999994227 -2.05377015524148562e-16 0.6062177826491073063 reverse_v I I I I #
intcurve-curve $-1 -1 $-1 forward { exact_int_cur 22140 full nurbs 2 open 2 
	0 2 0.19021481088854994 2 
	0.08654764369863254814 -0.6458955535974899576 5.44072276875087546 1 
	0.01621098068546289461 -0.6661999992597666953 5.44072276875087546 1.037954849302060278 
	-0.04470235630136731864 -0.6661999992597666953 5.44072276875087546 1 
	0 
	
	null_surface 
	null_surface 
	nullbs 
	nullbs 
	I I 
	0 
	0 
	0 
	
	0 F 1 F 0 UNEXTENDED UNEXTENDED } I I #
ATTRIB_CUSTOM-attrib $-1 -1 $-1 $-1 $245 @22 generic_tag_attrib_def 3 3 -1 @23 generic_tag_attrib_def  1 0 @0  0 2 542 776 0 #
ATTRIB_CUSTOM-attrib $-1 -1 $-1 $-1 $248 @22 generic_tag_attrib_def 3 3 -1 @23 generic_tag_attrib_def  1 0 @0  0 2 542 776 0 #
edge $-1 1564 $-1 $200 -1.570796326794897002 $218 -0.5235987755982987046 $250 $260 forward @7 unknown #
vertex $-1 1801 $-1 $252 1 $314 #
intcurve-curve $-1 -1 $-1 forward { exact_int_cur 22140 full nurbs 2 open 2 
	0 2 0.1902148108885500788 2 
	-0.3072023563013670522 -0.6458955535974897355 5.213391100257460664 1 
	-0.2720340247947823364 -0.6661999992597666953 5.152477763270630007 1.037954849302034077 
	-0.2415773563013670078 -0.6661999992597666953 5.099725266010753266 1 
	0 
	
	null_surface 
	null_surface 
	nullbs 
	nullbs 
	I I 
	0 
	0 
	0 
	
	0 F 1 F 0 UNEXTENDED UNEXTENDED } I I #
point $-1 -1 $-1 -0.2415773563013672298 -0.6661999992597666953 5.327056934504168062 #
point $-1 -1 $-1 -0.3072023563013670522 -0.6458955535974897355 5.213391100257460664 #
edge $-1 1567 $-1 $226 1.570796326794896558 $295 2.617993877991494411 $276 $260 forward @7 unknown #
intcurve-curve $-1 -1 $-1 forward { exact_int_cur 22140 full nurbs 2 open 2 
	0.1902148108885500788 2 0.3804296217770999911 2 
	-0.2415773563013670078 -0.6661999992597666953 5.099725266010753266 1 
	-0.2111206878079519011 -0.6661999992597662512 5.046972768750876526 1.037954849302041405 
	-0.1759523563013669634 -0.6458955535974897355 4.986059431764045868 1 
	0 
	
	null_surface 
	null_surface 
	nullbs 
	nullbs 
	I I 
	0 
	0 
	0 
	
	0 F 1 F 0 UNEXTENDED UNEXTENDED } I I #
ATTRIB_CUSTOM-attrib $315 -1 $-1 $-1 $267 @22 generic_tag_attrib_def 3 3 -1 @23 generic_tag_attrib_def  1 1 @1 5 0 7 375 -417 514 536 540 541 770 0 #
plane-surface $-1 -1 $-1 -0.1759523563013669634 -0.4470999992597666783 4.986059431764045868 -0.8660254037844382635 1.636670374383566546e-16 -0.5000000000000007772 -0.3500000000000004774 -2.123182939910391399e-16 0.6062177826491066401 reverse_v I I I I #
ATTRIB_CUSTOM-attrib $-1 -1 $-1 $-1 $270 @22 generic_tag_attrib_def 3 3 -1 @23 generic_tag_attrib_def  1 0 @0  0 2 542 776 0 #
ATTRIB_CUSTOM-attrib $-1 -1 $-1 $-1 $277 @22 generic_tag_attrib_def 3 3 -1 @23 generic_tag_attrib_def  1 0 @0  0 2 542 776 0 #
ATTRIB_CUSTOM-attrib $-1 -1 $-1 $-1 $280 @22 generic_tag_attrib_def 3 3 -1 @23 generic_tag_attrib_def  1 0 @0  0 2 542 776 0 #
ATTRIB_CUSTOM-attrib $316 -1 $-1 $-1 $281 @22 generic_tag_attrib_def 3 3 -1 @23 generic_tag_attrib_def  1 2 @2 11 0 6 456 514 536 540 541 770 0 #
loop $-1 -1 $-1 $-1 $317 $281 #
plane-surface $-1 -1 $-1 -1.082202371203109026 -0.6670999999999998042 5.48839104214293183 -6.798155367234497152e-32 1 3.445092848397680833e-16 5.551115123125783688e-16 3.445092848397680833e-16 -1 reverse_v I I I I #
loop $-1 -1 $-1 $-1 $318 $231 #
coedge $-1 -1 $-1 $310 $310 $311 $319 reversed $282 0 $-1 #
coedge $-1 -1 $-1 $311 $311 $310 $319 forward $284 0 $-1 #
straight-curve $-1 -1 $-1 -0.3072023563013670522 -0.4470999992597666228 5.213391100257460664 6.941278466890859825e-18 -0.6999999999999998446 -2.411564993878376731e-16 I I #
ATTRIB_CUSTOM-attrib $-1 -1 $-1 $-1 $289 @22 generic_tag_attrib_def 3 3 -1 @23 generic_tag_attrib_def  1 0 @0  0 2 542 776 0 #
point $-1 -1 $-1 -0.2415773563013670078 -0.6661999992597666953 5.099725266010753266 #
ATTRIB_CUSTOM-attrib $-1 -1 $-1 $-1 $301 @22 generic_tag_attrib_def 3 3 -1 @23 generic_tag_attrib_def  1 0 @0  0 2 542 776 0 #
ATTRIB_CUSTOM-attrib $-1 -1 $-1 $-1 $306 @22 generic_tag_attrib_def 3 3 -1 @23 generic_tag_attrib_def  1 0 @0  0 2 542 776 0 #
coedge $-1 -1 $-1 $317 $317 $318 $320 forward $307 0 $-1 #
coedge $-1 -1 $-1 $318 $318 $317 $320 reversed $309 0 $-1 #
edge $-1 1577 $-1 $321 -3.141592653589793116 $321 3.141592653589793116 $311 $322 forward @7 tangent #
edge $-1 1578 $-1 $323 -3.141592653589793116 $323 3.141592653589793116 $318 $324 forward @7 unknown #
vertex $-1 1804 $-1 $319 0 $325 #
ellipse-curve $-1 -1 $-1 -0.04470235630136709659 -0.6661999992597666953 5.213391100257460664 -9.916112095558370959e-18 1 3.445092848397680833e-16 0.1577800000000000036 1.564564166437169039e-18 8.915005857911581017e-17 1 I I #
vertex $-1 1805 $-1 $320 0 $326 #
ellipse-curve $-1 -1 $-1 -0.04470235630136709659 -0.6670999999999995822 5.213391100257460664 4.958056047779219376e-18 -1 -3.445092848397680833e-16 8.420933787712551922e-17 5.226138915408249279e-17 -0.1516980570738154233 1 I I #
point $-1 -1 $-1 -0.2024823563013671279 -0.6661999992597666953 5.213391100257460664 #
point $-1 -1 $-1 -0.04470235630136731864 -0.6670999999999995822 5.365089157331276226 #
End-of-ASM-data 