22700 0 2 4           
16 Autodesk Neutron 20 ASM 227.1.1.65535 NT 24 Wed Aug 25 06:16:33 2021 
10 9.999999999999999547e-07 1.000000000000000036e-10 
asmheader $-1 -1 @13 227.1.1.65535 #
body $2 1722 $-1 $3 $-1 $-1 #
ATTRIB_CUSTOM-attrib $-1 -1 $4 $-1 $1 @20 Timestamp_attrib_def 1 1448291859001 #
lump $-1 -1 $-1 $-1 $5 $1 #
ATTRIB_CUSTOM-attrib $6 -1 $-1 $2 $1 @22 generic_tag_attrib_def 3 3 -1 @23 generic_tag_attrib_def  1 3 @3 770 4 0 0 #
shell $-1 -1 $-1 $-1 $-1 $7 $-1 $3 #
ATTRIB_CUSTOM-attrib $-1 -1 $-1 $-1 $4 @22 generic_tag_attrib_def 3 3 -1 @23 generic_tag_attrib_def  1 0 @0  0 1 776 0 #
face $8 1579 $-1 $9 $10 $5 $-1 $11 forward single #
ATTRIB_CUSTOM-attrib $12 -1 $-1 $-1 $7 @22 generic_tag_attrib_def 3 3 -1 @23 generic_tag_attrib_def  1 1 @1 3 0 7 519 522 -525 -529 540 541 770 0 #
face $13 1580 $-1 $14 $15 $5 $-1 $16 forward single #
loop $-1 -1 $-1 $17 $18 $7 #
cone-surface $-1 -1 $-1 -0.04470235630137064931 -0.4320999992597667205 5.21339110025746777 -4.930380657631331447e-32 1 3.445092848397674916e-16 0.2800000000000000266 1.380506584136768328e-32 1.380506584136770791e-31 1 I I -0 1 0.1500000000000000222 reversed I I I I #
ATTRIB_CUSTOM-attrib $-1 -1 $-1 $-1 $8 @22 generic_tag_attrib_def 3 3 -1 @23 generic_tag_attrib_def  1 0 @0  0 2 542 776 0 #
ATTRIB_CUSTOM-attrib $19 -1 $-1 $-1 $9 @22 generic_tag_attrib_def 3 3 -1 @23 generic_tag_attrib_def  1 1 @1 2 0 6 519 522 -526 540 541 770 0 #
face $20 1581 $-1 $-1 $21 $5 $-1 $22 forward single #
loop $-1 -1 $-1 $-1 $23 $9 #
plane-surface $-1 -1 $-1 -0.04470235630137064931 -0.4070999992597668093 5.21339110025746777 -4.930380657631331447e-32 1 3.445092848397674916e-16 -1 -4.930380657631314478e-32 -4.930380657631323784e-31 reverse_v I I I I #
loop $-1 -1 $-1 $-1 $24 $7 #
coedge $-1 -1 $-1 $18 $18 $23 $25 forward $10 0 $-1 #
ATTRIB_CUSTOM-attrib $-1 -1 $-1 $-1 $13 @22 generic_tag_attrib_def 3 3 -1 @23 generic_tag_attrib_def  1 0 @0  0 2 542 776 0 #
ATTRIB_CUSTOM-attrib $26 -1 $-1 $-1 $14 @22 generic_tag_attrib_def 3 3 -1 @23 generic_tag_attrib_def  1 1 @1 1 0 7 519 522 -526 -528 540 541 770 0 #
loop $-1 -1 $-1 $-1 $27 $14 #
plane-surface $-1 -1 $-1 -0.04470235630137064931 -0.4470999992597668449 5.21339110025746777 4.930380657631331447e-32 -1 -3.445092848397674916e-16 1 4.930380657631314478e-32 4.930380657631323784e-31 reverse_v I I I I #
coedge $-1 -1 $-1 $23 $23 $18 $25 reversed $15 0 $-1 #
coedge $-1 -1 $-1 $24 $24 $27 $28 forward $17 0 $-1 #
edge $-1 1582 $-1 $29 -3.141592653589793116 $29 3.141592653589793116 $18 $30 reversed @7 unknown #
ATTRIB_CUSTOM-attrib $-1 -1 $-1 $-1 $20 @22 generic_tag_attrib_def 3 3 -1 @23 generic_tag_attrib_def  1 0 @0  0 2 542 776 0 #
coedge $-1 -1 $-1 $27 $27 $24 $28 reversed $21 0 $-1 #
edge $-1 1583 $-1 $31 -3.141592653589793116 $31 3.141592653589793116 $24 $32 forward @7 unknown #
vertex $-1 1806 $-1 $25 0 $33 #
ellipse-curve $-1 -1 $-1 -0.04470235630137064931 -0.4070999992597668093 5.21339110025746777 -4.930380657631331447e-32 1 3.445092848397674916e-16 0.2800000000000000266 1.380506584136768328e-32 1.380506584136770791e-31 1 I I #
vertex $-1 1807 $-1 $28 0 $34 #
ellipse-curve $-1 -1 $-1 -0.04470235630137064931 -0.4470999992597668449 5.21339110025746777 -4.930380657631331447e-32 1 3.445092848397674916e-16 0.2800000000000000266 1.380506584136768328e-32 1.380506584136770791e-31 1 I I #
point $-1 -1 $-1 -0.324702356301370676 -0.4070999992597668093 5.21339110025746777 #
point $-1 -1 $-1 -0.324702356301370676 -0.4470999992597668449 5.21339110025746777 #
End-of-ASM-data 