22700 0 2 4           
16 Autodesk Neutron 20 ASM 227.1.1.65535 NT 24 Wed Aug 25 06:16:38 2021 
10 9.999999999999999547e-07 1.000000000000000036e-10 
asmheader $-1 -1 @13 227.1.1.65535 #
body $2 272 $-1 $3 $-1 $4 #
ATTRIB_CUSTOM-attrib $-1 -1 $5 $-1 $1 @20 Timestamp_attrib_def 1 1448199719000 #
lump $-1 -1 $-1 $-1 $6 $1 #
transform $-1 -1 1 0 0 0 1 0 0 0 1 0 0 0 1 no_rotate no_reflect no_shear #
ATTRIB_CUSTOM-attrib $7 -1 $-1 $2 $1 @22 generic_tag_attrib_def 3 3 -1 @23 generic_tag_attrib_def  1 3 @3 566 2 0 0 #
shell $-1 -1 $-1 $-1 $-1 $8 $-1 $3 #
ATTRIB_CUSTOM-attrib $-1 -1 $-1 $-1 $5 @22 generic_tag_attrib_def 3 3 -1 @23 generic_tag_attrib_def  1 0 @0  0 3 568 577 596 0 #
face $9 239 $-1 $10 $11 $6 $-1 $12 reversed single #
ATTRIB_CUSTOM-attrib $13 -1 $-1 $-1 $8 @22 generic_tag_attrib_def 3 3 -1 @23 generic_tag_attrib_def  1 1 @1 3 0 1 586 0 #
face $14 240 $-1 $15 $16 $6 $-1 $17 forward single #
loop $-1 -1 $-1 $18 $19 $8 #
cone-surface $-1 -1 $-1 1.25000001862645127 -0.4149999999999995914 -4.850000055879357674 -2.189528850507524729e-47 -1 -4.930380657631323784e-32 -0.2249999999999996447 1.108448980569433871e-47 -1.249000902703300368e-16 1 I I 0 1 0.2249999999999996447 forward I I I I #
ATTRIB_CUSTOM-attrib $-1 -1 $-1 $-1 $9 @22 generic_tag_attrib_def 3 3 -1 @23 generic_tag_attrib_def  1 0 @0  0 1 596 0 #
ATTRIB_CUSTOM-attrib $20 -1 $-1 $-1 $10 @22 generic_tag_attrib_def 3 3 -1 @23 generic_tag_attrib_def  1 1 @1 2 0 1 586 0 #
face $21 175 $-1 $22 $23 $6 $-1 $24 forward single #
loop $-1 -1 $-1 $-1 $25 $10 #
plane-surface $-1 -1 $-1 1.25000001862645127 -0.6649999999999995914 -4.850000055879357674 -9.860761315262642094e-32 1 2.22044610268813044e-16 -1 2.465190625455154402e-32 -5.551115123125787632e-16 forward_v I I I I #
loop $-1 -1 $-1 $-1 $26 $8 #
coedge $-1 -1 $-1 $19 $19 $25 $27 forward $11 0 $-1 #
ATTRIB_CUSTOM-attrib $-1 -1 $-1 $-1 $14 @22 generic_tag_attrib_def 3 3 -1 @23 generic_tag_attrib_def  1 0 @0  0 1 596 0 #
ATTRIB_CUSTOM-attrib $28 -1 $-1 $-1 $15 @22 generic_tag_attrib_def 3 3 -1 @23 generic_tag_attrib_def  1 1 @1 3 0 8 519 522 -525 -529 546 554 566 -581 0 #
face $29 176 $-1 $30 $31 $6 $-1 $32 forward single #
loop $-1 -1 $-1 $33 $34 $15 #
cone-surface $-1 -1 $-1 1.25000001862645238 -0.6550000000000000266 -4.850000055879361227 -3.065340390710544344e-46 1 2.220446049250317518e-16 0.2800000000000000266 -3.065340390710546872e-47 5.245925019719730538e-31 1 I I 0 1 0.1500000000000000222 forward I I I I #
coedge $-1 -1 $-1 $25 $25 $19 $27 reversed $16 0 $-1 #
coedge $35 -1 $-1 $26 $26 $36 $37 reversed $18 0 $-1 #
edge $-1 241 $-1 $38 -3.141592653589793116 $38 3.141592653589793116 $19 $39 forward @7 unknown #
ATTRIB_CUSTOM-attrib $-1 -1 $-1 $-1 $21 @22 generic_tag_attrib_def 3 3 -1 @23 generic_tag_attrib_def  1 0 @0  0 8 527 548 553 556 557 568 577 596 0 #
ATTRIB_CUSTOM-attrib $40 -1 $-1 $-1 $22 @22 generic_tag_attrib_def 3 3 -1 @23 generic_tag_attrib_def  1 1 @1 2 0 6 519 522 -526 546 554 566 0 #
face $41 177 $-1 $-1 $42 $6 $-1 $43 forward single #
loop $-1 -1 $-1 $-1 $44 $22 #
plane-surface $-1 -1 $-1 1.25000001862645238 -0.6799999999999999378 -4.850000055879361227 3.065340390710544344e-46 -1 -2.220446049250317518e-16 -1 1.094764425253766837e-46 -1.873544649899903388e-30 forward_v I I I I #
loop $-1 -1 $-1 $-1 $45 $15 #
coedge $-1 -1 $-1 $34 $34 $44 $46 reversed $23 0 $-1 #
ATTRIB_CUSTOM-attrib $-1 -1 $-1 $-1 $26 @17 sketch_attrib_def 1 1 3 @13 149 0 0 0 1 1 #
coedge $-1 -1 $-1 $36 $36 $26 $37 forward $42 0 $-1 #
edge $-1 242 $-1 $47 -3.14159265358979356 $47 3.141592653589792672 $36 $48 forward @7 unknown #
vertex $-1 1171 $-1 $27 0 $49 #
ellipse-curve $-1 -1 $-1 1.25000001862645127 -0.6649999999999995914 -4.850000055879357674 9.860761315262642094e-32 -1 -2.22044610268813044e-16 -0.2249999999999996447 5.546678907274090014e-33 -1.249000902703300368e-16 1 I I #
ATTRIB_CUSTOM-attrib $-1 -1 $-1 $-1 $29 @22 generic_tag_attrib_def 3 3 -1 @23 generic_tag_attrib_def  1 0 @0  0 8 527 548 553 556 557 568 577 596 0 #
ATTRIB_CUSTOM-attrib $50 -1 $-1 $-1 $30 @22 generic_tag_attrib_def 3 3 -1 @23 generic_tag_attrib_def  1 1 @1 1 0 8 519 522 -526 -528 546 554 566 -580 0 #
loop $-1 -1 $-1 $51 $36 $30 #
plane-surface $-1 -1 $-1 1.25000001862645238 -0.4150000000000000355 -4.850000055879361227 -3.065340390710544344e-46 1 2.220446049250317518e-16 1 -1.094764425253766837e-46 1.873544649899903388e-30 forward_v I I I I #
coedge $-1 -1 $-1 $44 $44 $34 $46 forward $31 0 $-1 #
coedge $-1 -1 $-1 $45 $45 $52 $53 reversed $33 0 $-1 #
edge $-1 178 $-1 $54 -3.141592653589793116 $54 3.141592653589793116 $44 $55 reversed @7 unknown #
vertex $-1 1172 $-1 $37 0 $56 #
ellipse-curve $-1 -1 $-1 1.25000001862645127 -0.4150000000000000355 -4.850000055879357674 3.065340390710544344e-46 -1 -2.220446049250317518e-16 -0.2249999999999996447 1.108448980569433871e-47 -1.249000902703300368e-16 1 I I #
point $-1 -1 $-1 1.475000018626450915 -0.6649999999999995914 -4.850000055879357674 #
ATTRIB_CUSTOM-attrib $-1 -1 $-1 $-1 $41 @22 generic_tag_attrib_def 3 3 -1 @23 generic_tag_attrib_def  1 0 @0  0 8 527 548 553 556 557 568 577 596 0 #
loop $-1 -1 $-1 $-1 $52 $30 #
coedge $-1 -1 $-1 $52 $52 $45 $53 forward $51 0 $-1 #
edge $-1 179 $-1 $57 -3.141592653589793116 $57 3.141592653589793116 $52 $58 forward @7 unknown #
vertex $-1 1173 $-1 $46 0 $59 #
ellipse-curve $-1 -1 $-1 1.25000001862645238 -0.6799999999999999378 -4.850000055879361227 -3.065340390710544344e-46 1 2.220446049250317518e-16 0.2800000000000000266 -3.065340390710546872e-47 5.245925019719730538e-31 1 I I #
point $-1 -1 $-1 1.475000018626450915 -0.4149999999999995914 -4.850000055879357674 #
vertex $-1 1174 $-1 $53 0 $60 #
ellipse-curve $-1 -1 $-1 1.25000001862645238 -0.4150000000000000355 -4.850000055879361227 -3.065340390710544344e-46 1 2.220446049250317518e-16 0.2800000000000000266 -3.065340390710546872e-47 5.245925019719730538e-31 1 I I #
point $-1 -1 $-1 0.9700000186264523538 -0.6799999999999999378 -4.850000055879361227 #
point $-1 -1 $-1 0.9700000186264524649 -0.4150000000000000355 -4.850000055879361227 #
End-of-ASM-data 