22700 0 2 4           
16 Autodesk Neutron 20 ASM 227.1.1.65535 NT 24 Wed Aug 25 06:16:40 2021 
10 9.999999999999999547e-07 1.000000000000000036e-10 
asmheader $-1 -1 @13 227.1.1.65535 #
body $2 453 $-1 $3 $-1 $4 #
ATTRIB_CUSTOM-attrib $-1 -1 $5 $-1 $1 @20 Timestamp_attrib_def 1 1448289544001 #
lump $-1 -1 $-1 $-1 $6 $1 #
transform $-1 -1 1 0 0 0 1 0 0 0 1 0 0 0 1 no_rotate no_reflect no_shear #
ATTRIB_CUSTOM-attrib $7 -1 $-1 $2 $1 @22 generic_tag_attrib_def 3 3 -1 @23 generic_tag_attrib_def  1 3 @3 639 1 0 0 #
shell $-1 -1 $-1 $-1 $-1 $8 $-1 $3 #
ATTRIB_CUSTOM-attrib $-1 -1 $-1 $-1 $5 @22 generic_tag_attrib_def 3 3 -1 @23 generic_tag_attrib_def  1 0 @0  0 4 641 644 645 648 0 #
face $9 448 $-1 $10 $11 $6 $-1 $12 forward single #
ATTRIB_CUSTOM-attrib $13 -1 $-1 $-1 $8 @22 generic_tag_attrib_def 3 3 -1 @23 generic_tag_attrib_def  1 1 @1 3 0 16 519 522 -525 -529 546 554 566 -581 594 595 -604 -609 -633 639 -642 -647 0 #
face $14 449 $-1 $15 $16 $6 $-1 $17 forward single #
loop $-1 -1 $-1 $18 $19 $8 #
cone-surface $-1 -1 $-1 1.250000018626452603 -0.7599999999999986766 -4.850000055879371885 -7.939748022999863537e-35 1 2.220446049250318997e-16 0.1050000000000000239 1.701148507525907706e-34 -7.285838599098655815e-19 1 I I -0 1 0.1500000000000000222 reversed I I I I #
ATTRIB_CUSTOM-attrib $-1 -1 $-1 $-1 $9 @22 generic_tag_attrib_def 3 3 -1 @23 generic_tag_attrib_def  1 0 @0  0 9 597 631 634 635 637 641 644 645 648 0 #
ATTRIB_CUSTOM-attrib $20 -1 $-1 $-1 $10 @22 generic_tag_attrib_def 3 3 -1 @23 generic_tag_attrib_def  1 1 @1 1 0 14 519 522 -526 -528 546 554 566 -580 594 595 -605 -608 639 -643 0 #
face $21 450 $-1 $-1 $22 $6 $-1 $23 forward single #
loop $-1 -1 $-1 $-1 $24 $10 #
plane-surface $-1 -1 $-1 1.250000018626452603 -0.899999999999998801 -4.850000055879371885 7.939748022999863537e-35 -1 -2.220446049250318997e-16 1 1.620141435738959402e-33 -6.938893903903481288e-18 reverse_v I I I I #
loop $-1 -1 $-1 $-1 $25 $8 #
coedge $-1 -1 $-1 $19 $19 $26 $27 forward $11 0 $-1 #
ATTRIB_CUSTOM-attrib $-1 -1 $-1 $-1 $14 @22 generic_tag_attrib_def 3 3 -1 @23 generic_tag_attrib_def  1 0 @0  0 9 597 631 634 635 637 641 644 645 648 0 #
ATTRIB_CUSTOM-attrib $28 -1 $-1 $-1 $15 @22 generic_tag_attrib_def 3 3 -1 @23 generic_tag_attrib_def  1 1 @1 2 0 13 519 522 -526 546 554 566 594 595 -605 -632 639 -643 -646 0 #
loop $-1 -1 $-1 $-1 $26 $15 #
plane-surface $-1 -1 $-1 1.250000018626452603 -0.809999999999998832 -4.850000055879371885 -7.939748022999863537e-35 1 2.220446049250318997e-16 -1 -1.620141435738959402e-33 6.938893903903481288e-18 reverse_v I I I I #
coedge $-1 -1 $-1 $24 $24 $25 $29 reversed $16 0 $-1 #
coedge $-1 -1 $-1 $25 $25 $24 $29 forward $18 0 $-1 #
coedge $-1 -1 $-1 $26 $26 $19 $27 reversed $22 0 $-1 #
edge $-1 451 $-1 $30 -3.141592653589793116 $30 3.141592653589793116 $19 $31 reversed @7 unknown #
ATTRIB_CUSTOM-attrib $-1 -1 $-1 $-1 $21 @22 generic_tag_attrib_def 3 3 -1 @23 generic_tag_attrib_def  1 0 @0  0 9 597 631 634 635 637 641 644 645 648 0 #
edge $-1 452 $-1 $32 -3.141592653589793116 $32 3.141592653589793116 $24 $33 forward @7 unknown #
vertex $-1 1179 $-1 $27 0 $34 #
ellipse-curve $-1 -1 $-1 1.250000018626452603 -0.809999999999998832 -4.850000055879371885 -7.939748022999863537e-35 1 2.220446049250318997e-16 0.1050000000000000239 1.701148507525907706e-34 -7.285838599098655815e-19 1 I I #
vertex $-1 1180 $-1 $29 0 $35 #
ellipse-curve $-1 -1 $-1 1.250000018626452603 -0.899999999999998801 -4.850000055879371885 -7.939748022999863537e-35 1 2.220446049250318997e-16 0.1050000000000000239 1.701148507525907706e-34 -7.285838599098655815e-19 1 I I #
point $-1 -1 $-1 1.14500001862645262 -0.809999999999998832 -4.850000055879371885 #
point $-1 -1 $-1 1.14500001862645262 -0.899999999999998801 -4.850000055879371885 #
End-of-ASM-data 