22700 0 2 4           
16 Autodesk Neutron 20 ASM 227.1.1.65535 NT 24 Wed Aug 25 06:16:44 2021 
10 9.999999999999999547e-07 1.000000000000000036e-10 
asmheader $-1 -1 @13 227.1.1.65535 #
body $2 1162 $-1 $3 $-1 $-1 #
ATTRIB_CUSTOM-attrib $-1 -1 $4 $-1 $1 @20 Timestamp_attrib_def 1 1448291910001 #
lump $-1 -1 $-1 $-1 $5 $1 #
ATTRIB_CUSTOM-attrib $6 -1 $-1 $2 $1 @22 generic_tag_attrib_def 3 3 -1 @23 generic_tag_attrib_def  1 3 @3 781 2 0 0 #
shell $-1 -1 $-1 $-1 $-1 $7 $-1 $3 #
ATTRIB_CUSTOM-attrib $-1 -1 $-1 $-1 $4 @22 generic_tag_attrib_def 3 3 -1 @23 generic_tag_attrib_def  1 0 @0  0 1 790 0 #
face $8 931 $-1 $9 $10 $5 $-1 $11 forward single #
ATTRIB_CUSTOM-attrib $12 -1 $-1 $-1 $7 @22 generic_tag_attrib_def 3 3 -1 @23 generic_tag_attrib_def  1 1 @1 1 0 9 679 683 -687 -688 -691 -692 695 700 781 0 #
face $13 932 $-1 $14 $15 $5 $-1 $16 forward single #
loop $-1 -1 $-1 $-1 $17 $7 #
cone-surface $-1 -1 $-1 0.8716372434933650215 -1.020468745343406258 -5.077469003909875767 -0.8660254037844385966 2.33486982377246069e-16 -0.500000000000000222 0.004143203796014931738 0.008286407592029853067 -0.007176239480810090582 1 I I 0 1 0.01171875 forward I I I I #
ATTRIB_CUSTOM-attrib $-1 -1 $-1 $-1 $8 @22 generic_tag_attrib_def 3 3 -1 @23 generic_tag_attrib_def  1 0 @0  0 11 689 693 697 699 702 706 709 712 713 742 790 0 #
ATTRIB_CUSTOM-attrib $18 -1 $-1 $-1 $9 @22 generic_tag_attrib_def 3 3 -1 @23 generic_tag_attrib_def  1 1 @1 2 0 9 679 683 -687 -688 -691 -692 695 700 781 0 #
face $19 933 $-1 $20 $21 $5 $-1 $22 forward single #
loop $-1 -1 $-1 $-1 $23 $9 #
torus-surface $-1 -1 $-1 0.9068961483183681782 -1.020468745343406258 -5.052601716739784976 1.060575238724902108e-16 1 2.832769448823894158e-16 0.003906250000000004337 0.01171875 -0.8660254037844385966 2.334869823772458718e-16 -0.500000000000000222 forward_v I I I I #
coedge $-1 -1 $-1 $24 $25 $26 $27 forward $10 0 $-1 #
ATTRIB_CUSTOM-attrib $-1 -1 $-1 $-1 $13 @22 generic_tag_attrib_def 3 3 -1 @23 generic_tag_attrib_def  1 0 @0  0 11 689 693 697 699 702 706 709 712 713 742 790 0 #
ATTRIB_CUSTOM-attrib $28 -1 $-1 $-1 $14 @22 generic_tag_attrib_def 3 3 -1 @23 generic_tag_attrib_def  1 1 @1 3 0 9 679 683 -687 -688 -691 -692 695 700 781 0 #
face $29 934 $-1 $30 $31 $5 $-1 $32 forward single #
loop $-1 -1 $-1 $-1 $33 $14 #
cone-surface $-1 -1 $-1 0.9180915600518997355 -1.020468745343406258 -5.064180238673918311 0.500000000000000222 1.922962686383490354e-16 -0.8660254037844385966 0.007176239480809888487 0.008286407592030083785 0.004143203796014814644 1 I I 0 1 0.01171874999999999653 forward I I I I #
coedge $-1 -1 $-1 $34 $35 $36 $37 forward $15 0 $-1 #
coedge $-1 -1 $-1 $38 $17 $39 $40 forward $10 0 $-1 #
coedge $-1 -1 $-1 $17 $38 $41 $42 forward $10 0 $-1 #
coedge $-1 -1 $-1 $43 $44 $17 $27 reversed $45 0 $-1 #
edge $-1 945 $-1 $46 0.01412638098522204719 $47 0.02825677078290862732 $26 $48 forward @7 unknown #
ATTRIB_CUSTOM-attrib $-1 -1 $-1 $-1 $19 @22 generic_tag_attrib_def 3 3 -1 @23 generic_tag_attrib_def  1 0 @0  0 11 689 693 697 699 702 706 709 712 713 742 790 0 #
ATTRIB_CUSTOM-attrib $49 -1 $-1 $-1 $20 @22 generic_tag_attrib_def 3 3 -1 @23 generic_tag_attrib_def  1 1 @1 4 0 9 679 683 -687 -688 -691 -692 695 700 781 0 #
face $50 935 $-1 $51 $52 $5 $-1 $53 forward single #
loop $-1 -1 $-1 $-1 $54 $20 #
torus-surface $-1 -1 $-1 0.9029898983183681782 -1.020468745343406258 -5.045835893272720085 1.060575238724902108e-16 1 2.832769448823894158e-16 0.003906250000000002602 0.01171875 -0.8660254037844385966 2.334869823772458718e-16 -0.500000000000000222 forward_v I I I I #
coedge $-1 -1 $-1 $55 $56 $57 $58 forward $21 0 $-1 #
coedge $-1 -1 $-1 $59 $23 $60 $61 forward $15 0 $-1 #
coedge $-1 -1 $-1 $23 $59 $62 $63 forward $15 0 $-1 #
coedge $-1 -1 $-1 $56 $55 $23 $37 reversed $21 0 $-1 #
edge $-1 949 $-1 $64 0 $65 1.570796326794896558 $23 $66 forward @7 tangent #
coedge $-1 -1 $-1 $25 $24 $59 $67 forward $10 0 $-1 #
coedge $-1 -1 $-1 $68 $62 $24 $40 reversed $69 0 $-1 #
edge $-1 946 $-1 $47 -0.06528265069197747295 $70 0.03437500069849219742 $39 $71 forward @7 tangent #
coedge $-1 -1 $-1 $72 $73 $25 $42 reversed $74 0 $-1 #
edge $-1 948 $-1 $75 -0.03437500069849219742 $46 0.06493817144591629287 $41 $76 forward @7 tangent #
coedge $77 -1 $-1 $78 $26 $73 $79 reversed $45 0 $-1 #
coedge $-1 -1 $-1 $26 $80 $68 $81 reversed $45 0 $-1 #
loop $-1 -1 $-1 $-1 $80 $82 #
vertex $-1 1196 $-1 $27 0 $83 #
vertex $-1 1197 $-1 $27 1 $84 #
intcurve-curve $-1 -1 $-1 forward { int_int_cur 22140 full nubs 3 open 5 
	0.01412638098522204719 3 0.01765964143034294553 2 0.02119290187546384041 2 0.02472483632918623386 2 0.02825677078290862732 3 
	0.8071989858090237169 -1.020468745343406258 -5.128204096264173728 
	0.8071784502692315177 -1.01899674446989108 -5.128215952463600402 
	0.8069984119837657621 -1.017426963086568437 -5.127980091623140169 
	0.8063206802370291859 -1.014539571037984533 -5.126990054092953386 
	0.8058232278769862367 -1.013221955178710498 -5.126235727525422448 
	0.8047012589647437597 -1.011141607588932123 -5.124480882276980509 
	0.8040018964851933791 -1.010239953452253703 -5.123363451208714281 
	0.802502403965950295 -1.009044152505992109 -5.120895651379772318 
	0.8017025207641756968 -1.008749995343406258 -5.119545137659622824 
	0.8009667010863170677 -1.008749995343406258 -5.11827066059236202 
	0.0001148411381161891065 
	
	cone 0.8716372434933650215 -1.020468745343406258 -5.077469003909875767 -0.8660254037844385966 2.33486982377246069e-16 -0.500000000000000222 0.004143203796014931738 0.008286407592029853067 -0.007176239480810090582 1 I I 0 1 0.01171875 forward I I I I 
	cone 0.5609621705327126895 -1.02504900160945045 -5.270368987848348397 -0.500000000000000222 -1.922962686383490354e-16 0.8660254037844385966 0.1643034176832501858 -0.2118259983905685651 0.09486062242820002266 1 I I 0 -1 0.2843666723510742678 forward I I I I 
	nullbs 
	nullbs 
	I I 
	0 
	0 
	0 
	
	0 } I I #
ATTRIB_CUSTOM-attrib $-1 -1 $-1 $-1 $29 @22 generic_tag_attrib_def 3 3 -1 @23 generic_tag_attrib_def  1 0 @0  0 11 689 693 697 699 702 706 709 712 713 742 790 0 #
ATTRIB_CUSTOM-attrib $85 -1 $-1 $-1 $30 @22 generic_tag_attrib_def 3 3 -1 @23 generic_tag_attrib_def  1 1 @1 5 0 9 679 683 -687 -688 -691 -692 695 700 781 0 #
face $86 936 $-1 $82 $69 $5 $-1 $87 forward single #
loop $-1 -1 $-1 $-1 $88 $30 #
cone-surface $-1 -1 $-1 0.8638247434933650215 -1.020468745343406258 -5.063937356975744208 -0.8660254037844385966 2.33486982377246069e-16 -0.500000000000000222 -0.004143203796014930003 0.008286407592029849598 0.007176239480810096653 1 I I 0 1 0.01171875 forward I I I I #
coedge $-1 -1 $-1 $89 $90 $91 $92 forward $31 0 $-1 #
coedge $-1 -1 $-1 $36 $33 $93 $94 forward $21 0 $-1 #
coedge $-1 -1 $-1 $33 $36 $95 $96 forward $21 0 $-1 #
coedge $-1 -1 $-1 $90 $89 $33 $58 reversed $31 0 $-1 #
edge $-1 952 $-1 $97 0 $98 1.570796326794896558 $33 $99 forward @7 tangent #
coedge $-1 -1 $-1 $35 $34 $38 $67 reversed $15 0 $-1 #
coedge $-1 -1 $-1 $100 $101 $34 $61 reversed $102 0 $-1 #
edge $-1 950 $-1 $65 -0.7853981633974495002 $75 0.7853981633974470578 $60 $103 forward @7 tangent #
coedge $-1 -1 $-1 $39 $95 $35 $63 reversed $69 0 $-1 #
edge $-1 951 $-1 $70 -0.7853981633974470578 $64 0.7853981633974495002 $62 $104 forward @7 tangent #
vertex $-1 1200 $-1 $37 0 $105 #
vertex $-1 1201 $-1 $37 1 $106 #
ellipse-curve $-1 -1 $-1 0.9102790600518997355 -1.020468745343406258 -5.050648591739786752 0.500000000000000222 1.922962686383490354e-16 -0.8660254037844385966 1.242861607880750772e-18 0.01171874999999999306 3.319651697840488641e-18 1 F 0 F 1.570796326794896558 #
edge $-1 947 $-1 $70 0 $75 1.570796326794896558 $38 $107 forward @7 tangent #
coedge $-1 -1 $-1 $108 $39 $44 $81 forward $69 0 $-1 #
loop $-1 -1 $-1 $-1 $108 $51 #
vertex $-1 1198 $-1 $40 1 $109 #
straight-curve $-1 -1 $-1 0.8716372434933650215 -1.008749995343406258 -5.077469003909875767 1.08253175473054819 -2.918587279715571919e-16 0.625000000000000222 F -0.1509385020954758794 F 0.05718850069849246154 #
coedge $-1 -1 $-1 $110 $41 $101 $111 reversed $74 0 $-1 #
coedge $112 -1 $-1 $41 $113 $43 $79 forward $74 0 $-1 #
loop $-1 -1 $-1 $-1 $41 $114 #
vertex $-1 1199 $-1 $67 1 $115 #
straight-curve $-1 -1 $-1 0.8774966184933650215 -1.020468745343406258 -5.087617739110475767 -1.08253175473054819 2.918587279715571919e-16 -0.625000000000000222 F -0.05718850069849246154 F 0.1509385020954758794 #
ATTRIB_CUSTOM-attrib $-1 -1 $-1 $-1 $43 @17 sketch_attrib_def 1 1 3 @13 192 0 1 0 1 1 #
coedge $-1 -1 $-1 $116 $43 $117 $118 forward $45 0 $-1 #
edge $-1 962 $-1 $119 6.703828348706799033e-17 $46 0.8564991701543941405 $43 $120 forward @7 unknown #
coedge $-1 -1 $-1 $44 $116 $88 $121 reversed $45 0 $-1 #
edge $-1 961 $-1 $47 0.009374999999999999653 $122 0.02187499999999999861 $44 $123 forward @7 unknown #
face $124 937 $-1 $125 $45 $5 $-1 $126 forward single #
point $-1 -1 $-1 0.8071989858090246051 -1.020468745343406258 -5.128204096264173728 #
point $-1 -1 $-1 0.8009667010863170677 -1.008749995343406258 -5.11827066059236202 #
ATTRIB_CUSTOM-attrib $-1 -1 $-1 $-1 $50 @22 generic_tag_attrib_def 3 3 -1 @23 generic_tag_attrib_def  1 0 @0  0 11 689 693 697 699 702 706 709 712 713 742 790 0 #
ATTRIB_CUSTOM-attrib $127 -1 $-1 $-1 $51 @22 generic_tag_attrib_def 3 3 -1 @23 generic_tag_attrib_def  1 1 @1 6 0 9 675 683 -686 -688 -690 -692 695 700 781 0 #
plane-surface $-1 -1 $-1 0.9282402952524988482 -1.008749995343406258 -5.058320863673918311 1.060575238724902108e-16 1 2.832769448823894158e-16 -1.353164693413185127 3.648234099644480675e-16 -0.7812500000000004441 forward_v I I I I #
coedge $-1 -1 $-1 $128 $129 $80 $121 forward $52 0 $-1 #
coedge $-1 -1 $-1 $57 $54 $130 $131 forward $31 0 $-1 #
coedge $-1 -1 $-1 $54 $57 $132 $133 forward $31 0 $-1 #
coedge $-1 -1 $-1 $129 $128 $54 $92 reversed $52 0 $-1 #
edge $-1 955 $-1 $134 0 $135 1.570796326794896558 $54 $136 forward @7 tangent #
coedge $-1 -1 $-1 $137 $138 $55 $94 reversed $139 0 $-1 #
edge $-1 953 $-1 $98 -0.01874999999999999931 $65 -0.01250000000000000243 $93 $140 forward @7 tangent #
coedge $-1 -1 $-1 $62 $132 $56 $96 reversed $69 0 $-1 #
edge $-1 954 $-1 $64 0.01250000000000000243 $97 0.01874999999999999931 $95 $141 forward @7 tangent #
vertex $-1 1202 $-1 $58 0 $142 #
vertex $-1 1203 $-1 $58 1 $143 #
ellipse-curve $-1 -1 $-1 0.9063728100518997355 -1.020468745343406258 -5.043882768272720085 0.500000000000000222 1.922962686383490354e-16 -0.8660254037844385966 1.242861607880750772e-18 0.01171874999999999306 3.319651697840488641e-18 1 F 0 F 1.570796326794896558 #
coedge $-1 -1 $-1 $144 $60 $138 $145 forward $102 0 $-1 #
coedge $-1 -1 $-1 $60 $144 $72 $111 forward $102 0 $-1 #
loop $-1 -1 $-1 $-1 $60 $125 #
ellipse-curve $-1 -1 $-1 0.9068961483183681782 -1.020468745343406258 -5.052601716739784976 1.060575238724902108e-16 1 2.832769448823894158e-16 0.01509259103576669064 -4.550973907294900167e-19 -0.004044047579726901299 1 I I #
ellipse-curve $-1 -1 $-1 0.9068961483183681782 -1.008749995343406258 -5.052601716739784976 -1.060575238724902108e-16 -1 -2.832769448823894158e-16 0.003773147758941675697 -1.137743476823740449e-19 -0.001011011894931725975 1 I I #
point $-1 -1 $-1 0.9102790600518997355 -1.008749995343406258 -5.050648591739786752 #
point $-1 -1 $-1 0.9204277952524997364 -1.020468745343406258 -5.044789216739784976 #
ellipse-curve $-1 -1 $-1 0.9088492733183681782 -1.020468745343406258 -5.05598462847331831 -0.8660254037844385966 2.33486982377246069e-16 -0.500000000000000222 1.242861607880750772e-18 0.01171874999999999306 3.319651697840488641e-18 1 F 0 F 1.570796326794896558 #
coedge $-1 -1 $-1 $132 $68 $129 $146 reversed $69 0 $-1 #
point $-1 -1 $-1 0.9088492733183681782 -1.008749995343406258 -5.05598462847331831 #
coedge $147 -1 $-1 $113 $72 $148 $149 forward $74 0 $-1 #
edge $-1 967 $-1 $150 -0.05000000074505810133 $75 0.1385000022351741966 $101 $151 forward @7 tangent #
ATTRIB_CUSTOM-attrib $-1 -1 $-1 $-1 $73 @17 sketch_attrib_def 1 1 3 @13 192 0 1 0 1 1 #
coedge $152 -1 $-1 $73 $110 $153 $154 forward $74 0 $-1 #
face $155 940 $-1 $156 $74 $5 $-1 $157 reversed single #
point $-1 -1 $-1 0.9147086483183681782 -1.020468745343406258 -5.066133363673918311 #
coedge $-1 -1 $-1 $80 $78 $158 $159 reversed $45 0 $-1 #
coedge $-1 -1 $-1 $153 $160 $78 $118 reversed $161 0 $-1 #
edge $-1 963 $-1 $119 0 $162 0.02500000000000000139 $117 $163 forward @7 unknown #
vertex $-1 1208 $-1 $79 0 $164 #
ellipse-curve $-1 -1 $-1 0.5609621705327126895 -1.02504900160945045 -5.270368987848348397 -0.500000000000000222 -1.922962686383490354e-16 0.8660254037844385966 0.1643034176832501858 -0.2118259983905685651 0.09486062242820002266 1 I I #
edge $-1 958 $-1 $122 0.02825677079048267634 $165 0.04238716058816924953 $80 $166 forward @7 unknown #
vertex $-1 1206 $-1 $121 0 $167 #
straight-curve $-1 -1 $-1 0.8068260760863171788 -1.008749995343406258 -5.128419395792962021 -0.625000000000000222 -2.403703357979339276e-16 1.08253175473054819 F -0.031251000000000001 F 0.062501000000000001 #
ATTRIB_CUSTOM-attrib $168 -1 $-1 $-1 $82 @22 generic_tag_attrib_def 3 3 -1 @23 generic_tag_attrib_def  1 1 @1 7 0 9 675 683 -687 -688 -691 -692 695 700 781 0 #
face $169 938 $-1 $170 $102 $5 $-1 $171 forward single #
cone-surface $-1 -1 $-1 0.5609621705327126895 -1.02504900160945045 -5.270368987848348397 -0.500000000000000222 -1.922962686383490354e-16 0.8660254037844385966 0.1643034176832501858 -0.2118259983905685651 0.09486062242820002266 1 I I 0 -1 0.2843666723510742678 forward I I I I #
ATTRIB_CUSTOM-attrib $-1 -1 $-1 $-1 $86 @22 generic_tag_attrib_def 3 3 -1 @23 generic_tag_attrib_def  1 0 @0  0 11 689 693 697 699 702 706 709 712 713 742 790 0 #
coedge $-1 -1 $-1 $91 $88 $172 $173 forward $52 0 $-1 #
coedge $-1 -1 $-1 $88 $91 $108 $146 forward $52 0 $-1 #
coedge $-1 -1 $-1 $174 $175 $89 $131 reversed $176 0 $-1 #
edge $-1 956 $-1 $135 -0.7853981633974472798 $98 0.7853981633974492782 $130 $177 forward @7 tangent #
coedge $-1 -1 $-1 $95 $108 $90 $133 reversed $69 0 $-1 #
edge $-1 957 $-1 $97 -0.7853981633974492782 $134 0.7853981633974472798 $132 $178 forward @7 tangent #
vertex $-1 1204 $-1 $92 0 $179 #
vertex $-1 1205 $-1 $92 1 $180 #
ellipse-curve $-1 -1 $-1 0.9010367733183681782 -1.020468745343406258 -5.042452981539186752 0.8660254037844385966 -2.33486982377246069e-16 0.500000000000000222 1.242861607880750772e-18 0.01171874999999999306 3.319651697840488641e-18 1 F 0 F 1.570796326794896558 #
coedge $-1 -1 $-1 $181 $93 $175 $182 reversed $139 0 $-1 #
coedge $-1 -1 $-1 $93 $181 $100 $145 reversed $139 0 $-1 #
loop $-1 -1 $-1 $-1 $93 $156 #
straight-curve $-1 -1 $-1 0.9282402952524988482 -1.020468745343406258 -5.058320863673918311 0.625000000000000222 2.403703357979339276e-16 -1.08253175473054819 F -0.02906349999999999906 F -0.00218650000000000181 #
straight-curve $-1 -1 $-1 0.9180915600518997355 -1.008749995343406258 -5.064180238673918311 -0.625000000000000222 -2.403703357979339276e-16 1.08253175473054819 F 0.00218650000000000181 F 0.02906349999999999906 #
point $-1 -1 $-1 0.9063728100518997355 -1.008749995343406258 -5.043882768272720085 #
point $-1 -1 $-1 0.9165215452524988482 -1.020468745343406258 -5.038023393272720085 #
coedge $-1 -1 $-1 $101 $100 $183 $184 forward $102 0 $-1 #
edge $-1 965 $-1 $65 -13.85000022351741755 $185 5.000000074505809522 $100 $186 forward @7 tangent #
edge $-1 960 $-1 $134 -0.03437500069849219742 $122 0.06528265069197747295 $108 $187 forward @7 tangent #
ATTRIB_CUSTOM-attrib $-1 -1 $-1 $-1 $110 @17 sketch_attrib_def 1 1 3 @13 185 0 1 0 1 1 #
coedge $188 -1 $-1 $183 $189 $110 $149 reversed $190 0 $-1 #
edge $-1 971 $-1 $150 0.009999999999999786837 $191 0.1500000022351741791 $148 $192 forward @7 unknown #
vertex $-1 1211 $-1 $184 1 $193 #
straight-curve $-1 -1 $-1 0.91470864831836729 -1.236874998835865824 -5.066133363673917422 1.657148810507682169e-16 1.5625 4.426202263787332157e-16 I I #
ATTRIB_CUSTOM-attrib $-1 -1 $194 $-1 $113 @17 sketch_attrib_def 1 1 3 @13 186 0 1 0 1 2 #
coedge $195 -1 $-1 $196 $117 $113 $154 reversed $161 0 $-1 #
edge $-1 972 $-1 $191 0 $119 0.0499999999999999889 $153 $197 forward @7 unknown #
ATTRIB_CUSTOM-attrib $198 -1 $-1 $-1 $114 @22 generic_tag_attrib_def 3 3 -1 @23 generic_tag_attrib_def  1 1 @1 1 0 9 675 683 -687 -688 -691 -692 695 700 781 0 #
face $199 941 $-1 $200 $139 $5 $-1 $201 forward single #
plane-surface $-1 -1 $-1 0.8267529417342303066 -1.158749997671712606 -5.116914614547033224 -0.500000000000000222 -1.922962686383490354e-16 0.8660254037844385966 1.353164693413185127 -3.648234099644480675e-16 0.7812500000000004441 forward_v I I I I #
coedge $-1 -1 $-1 $202 $172 $116 $159 forward $203 0 $-1 #
edge $-1 964 $-1 $165 -0.8564991701543941405 $162 -6.703828348706799033e-17 $116 $204 forward @7 unknown #
coedge $-1 -1 $-1 $117 $196 $202 $205 reversed $161 0 $-1 #
loop $-1 -1 $-1 $-1 $153 $206 #
vertex $-1 1209 $-1 $118 1 $207 #
straight-curve $-1 -1 $-1 0.7252655882159618761 -1.236875000000019043 -5.17550836542014725 -0.7812500000000005551 -3.00462919747420565e-16 1.353164693413185127 I I #
point $-1 -1 $-1 0.7252655882159618761 -1.236875000000019043 -5.17550836542014725 #
vertex $-1 1207 $-1 $121 1 $208 #
intcurve-curve $-1 -1 $-1 forward { int_int_cur 22140 full nubs 3 open 5 
	0.02825677079048267634 3 0.03178870524420506632 2 0.03532063969792745978 2 0.03885390014304835465 2 0.04238716058816924953 3 
	0.7931542010863170677 -1.008749995343406258 -5.104739013658230462 
	0.7924183814084575506 -1.008749995343406258 -5.103464536590969658 
	0.7916487438195354276 -1.009044152505992109 -5.102096560558097238 
	0.7902613127358393275 -1.010239953452253703 -5.099564062029177336 
	0.7896432702835183282 -1.011141607588932123 -5.09839968082130035 
	0.7886845141747775845 -1.013221955178710498 -5.09655060461682119 
	0.788279974384568094 -1.014539571037984533 -5.095742634952085126 
	0.7877614426060948194 -1.017426963086568437 -5.094660683277368207 
	0.7876472002692314067 -1.01899674446989108 -5.094386835128270619 
	0.7876677358090236059 -1.020468745343406258 -5.094374978928843944 
	0.0001148411381160020816 
	
	cone 0.8638247434933650215 -1.020468745343406258 -5.063937356975744208 -0.8660254037844385966 2.33486982377246069e-16 -0.500000000000000222 -0.004143203796014930003 0.008286407592029849598 0.007176239480810096653 1 I I 0 1 0.01171875 forward I I I I 
	cone 0.5609621705327126895 -1.02504900160945045 -5.270368987848348397 -0.500000000000000222 -1.922962686383490354e-16 0.8660254037844385966 0.1643034176832501858 -0.2118259983905685651 0.09486062242820002266 1 I I 0 -1 0.2843666723510742678 forward I I I I 
	nullbs 
	nullbs 
	I I 
	0 
	0 
	0 
	
	0 } I I #
point $-1 -1 $-1 0.7931542010863170677 -1.008749995343406258 -5.104739013658230462 #
ATTRIB_CUSTOM-attrib $-1 -1 $-1 $-1 $124 @22 generic_tag_attrib_def 3 3 -1 @23 generic_tag_attrib_def  1 0 @0  0 11 689 693 697 699 702 706 709 712 713 742 790 0 #
ATTRIB_CUSTOM-attrib $209 -1 $-1 $-1 $125 @22 generic_tag_attrib_def 3 3 -1 @23 generic_tag_attrib_def  1 1 @1 1 0 9 678 683 -687 -688 -691 -692 695 700 781 0 #
face $210 939 $-1 $114 $176 $5 $-1 $211 forward single #
cone-surface $-1 -1 $-1 0.90689614831836729 -1.236874998835865824 -5.052601716739785864 -1.060575238724902108e-16 -1 -2.832769448823894158e-16 0.01509259103576665074 -4.550973907294776908e-19 -0.004044047579727046149 1 I I 0 1 0.01562500000000000347 forward I I I I #
coedge $-1 -1 $-1 $158 $212 $128 $173 reversed $203 0 $-1 #
edge $-1 959 $-1 $165 -0.06493817144591629287 $135 0.03437500069849219742 $172 $213 forward @7 tangent #
coedge $-1 -1 $-1 $214 $130 $212 $215 reversed $176 0 $-1 #
coedge $-1 -1 $-1 $130 $214 $137 $182 forward $176 0 $-1 #
loop $-1 -1 $-1 $-1 $130 $170 #
ellipse-curve $-1 -1 $-1 0.9029898983183681782 -1.020468745343406258 -5.045835893272720085 1.060575238724902108e-16 1 2.832769448823894158e-16 0.004044047579726870074 -4.704284751699694621e-18 0.01509259103576669932 1 I I #
ellipse-curve $-1 -1 $-1 0.9029898983183681782 -1.008749995343406258 -5.045835893272720085 -1.060575238724902108e-16 -1 -2.832769448823894158e-16 0.001011011894931717519 -1.176071187924923655e-18 0.003773147758941676998 1 I I #
point $-1 -1 $-1 0.9010367733183681782 -1.008749995343406258 -5.042452981539186752 #
point $-1 -1 $-1 0.8951773983183681782 -1.020468745343406258 -5.032304246338588527 #
coedge $-1 -1 $-1 $138 $137 $216 $217 reversed $139 0 $-1 #
edge $-1 970 $-1 $218 -0.05000000074505810133 $98 0.1385000022351741966 $175 $219 forward @7 tangent #
coedge $-1 -1 $-1 $216 $148 $144 $184 reversed $190 0 $-1 #
edge $-1 966 $-1 $185 -0.7853981633974590482 $150 0.7853981633974376209 $183 $220 forward @7 unknown #
vertex $-1 1210 $-1 $145 1 $221 #
straight-curve $-1 -1 $-1 0.9204277952524997364 -1.236874998835865824 -5.044789216739785864 -1.657148810507659543e-18 -0.01562500000000000347 -4.426202263787334622e-18 I I #
straight-curve $-1 -1 $-1 0.8638247434933650215 -1.008749995343406258 -5.063937356975744208 -1.08253175473054819 2.918587279715571919e-16 -0.625000000000000222 F -0.05718850069849246154 F 0.1509385020954758794 #
ATTRIB_CUSTOM-attrib $-1 -1 $-1 $-1 $148 @17 sketch_attrib_def 1 1 3 @13 185 0 1 0 1 1 #
coedge $-1 -1 $-1 $148 $222 $196 $223 reversed $190 0 $-1 #
loop $-1 -1 $-1 $-1 $183 $224 #
vertex $-1 1214 $-1 $149 1 $225 #
straight-curve $-1 -1 $-1 0.9282402952524997364 -1.315000000000019043 -5.058320863673916534 -1.353164693413185127 3.648234099644480675e-16 -0.7812500000000005551 F 0 F 0.1500000022351741791 #
point $-1 -1 $-1 0.91470864831836729 -1.315000000000019265 -5.066133363673916534 #
ATTRIB_CUSTOM-attrib $-1 -1 $-1 $152 $113 @17 sketch_attrib_def 1 1 3 @13 189 0 1 0 1 1 #
ATTRIB_CUSTOM-attrib $-1 -1 $226 $-1 $153 @17 sketch_attrib_def 1 1 3 @13 189 0 1 0 1 1 #
coedge $-1 -1 $-1 $160 $153 $189 $223 forward $161 0 $-1 #
straight-curve $-1 -1 $-1 0.7252655882159627643 -1.315000000000019043 -5.175508365420146362 1.657148810507682169e-16 1.5625 4.426202263787332157e-16 F 0 F 0.0499999999999999889 #
ATTRIB_CUSTOM-attrib $-1 -1 $-1 $-1 $155 @22 generic_tag_attrib_def 3 3 -1 @23 generic_tag_attrib_def  1 0 @0  0 11 689 693 697 699 702 706 709 712 713 742 790 0 #
ATTRIB_CUSTOM-attrib $227 -1 $-1 $-1 $156 @22 generic_tag_attrib_def 3 3 -1 @23 generic_tag_attrib_def  1 1 @1 5 0 9 675 683 -687 -688 -691 -692 695 700 781 0 #
face $228 942 $-1 $224 $203 $5 $-1 $229 forward single #
plane-surface $-1 -1 $-1 0.9282402952524997364 -1.315000000000019043 -5.058320863673916534 0.8660254037844385966 -2.33486982377246069e-16 0.500000000000000222 1.657148810507682169e-16 1.5625 4.42620226378733265e-16 forward_v I I I I #
coedge $-1 -1 $-1 $230 $158 $160 $205 forward $203 0 $-1 #
loop $-1 -1 $-1 $-1 $172 $200 #
ellipse-curve $-1 -1 $-1 0.5414309205327126895 -1.02504900160945045 -5.236539870513018613 0.500000000000000222 1.922962686383490354e-16 -0.8660254037844385966 0.1643034176832501858 -0.2118259983905685651 0.09486062242820002266 1 I I #
edge $-1 974 $-1 $162 -0.0499999999999999889 $231 -0 $160 $232 forward @7 unknown #
face $233 944 $-1 $-1 $161 $5 $-1 $234 forward single #
point $-1 -1 $-1 0.7057343382159618761 -1.236875000000019043 -5.141679248084817466 #
point $-1 -1 $-1 0.787667735809024494 -1.020468745343406258 -5.094374978928843944 #
ATTRIB_CUSTOM-attrib $-1 -1 $-1 $-1 $169 @22 generic_tag_attrib_def 3 3 -1 @23 generic_tag_attrib_def  1 0 @0  0 11 689 693 697 699 702 706 709 712 713 742 790 0 #
ATTRIB_CUSTOM-attrib $235 -1 $-1 $-1 $170 @22 generic_tag_attrib_def 3 3 -1 @23 generic_tag_attrib_def  1 1 @1 1 0 9 677 683 -687 -688 -691 -692 695 700 781 0 #
cone-surface $-1 -1 $-1 0.90298989831836729 -1.236874998835865824 -5.045835893272719197 1.060575238724902108e-16 1 2.832769448823894158e-16 0.004044047579726720888 -4.704284751699694621e-18 0.01509259103576673922 1 I I 0 1 0.01562500000000000347 forward I I I I #
coedge $-1 -1 $-1 $172 $230 $174 $215 forward $203 0 $-1 #
straight-curve $-1 -1 $-1 0.8579653684933650215 -1.020468745343406258 -5.053788621775145984 1.08253175473054819 -2.918587279715571919e-16 0.625000000000000222 F -0.1509385020954758794 F 0.05718850069849246154 #
coedge $-1 -1 $-1 $175 $174 $236 $237 forward $176 0 $-1 #
edge $-1 968 $-1 $238 -5.000000074505809522 $135 13.85000022351741755 $212 $239 forward @7 tangent #
coedge $-1 -1 $-1 $236 $183 $181 $217 forward $190 0 $-1 #
edge $-1 973 $-1 $185 0.01000000000000000194 $218 0.01499999999999999944 $216 $240 forward @7 unknown #
vertex $-1 1213 $-1 $237 1 $241 #
straight-curve $-1 -1 $-1 0.9165215452524988482 -1.236874998835866046 -5.038023393272719197 1.657148810507682169e-16 1.5625 4.426202263787332157e-16 I I #
ellipse-curve $-1 -1 $-1 0.90689614831836729 -1.315000000000019043 -5.052601716739784976 1.060575238724902108e-16 1 2.832769448823894158e-16 0.01509259103576665074 -4.550973907294776908e-19 -0.004044047579727046149 1 I I #
point $-1 -1 $-1 0.9204277952524997364 -1.315000000000019043 -5.044789216739784976 #
coedge $-1 -1 $-1 $189 $236 $230 $242 reversed $190 0 $-1 #
edge $-1 976 $-1 $191 0 $231 0.02500000000000000139 $196 $243 forward @7 unknown #
face $244 943 $-1 $206 $190 $5 $-1 $245 forward single #
point $-1 -1 $-1 0.7252655882159627643 -1.315000000000019043 -5.175508365420146362 #
ATTRIB_CUSTOM-attrib $-1 -1 $-1 $195 $153 @17 sketch_attrib_def 1 1 3 @13 186 0 1 0 1 2 #
ATTRIB_CUSTOM-attrib $-1 -1 $-1 $-1 $199 @22 generic_tag_attrib_def 3 3 -1 @23 generic_tag_attrib_def  1 0 @0  0 11 689 693 697 699 702 706 709 712 713 742 790 0 #
ATTRIB_CUSTOM-attrib $246 -1 $-1 $-1 $200 @22 generic_tag_attrib_def 3 3 -1 @23 generic_tag_attrib_def  1 1 @1 2 0 9 675 683 -687 -688 -691 -692 695 700 781 0 #
plane-surface $-1 -1 $-1 0.8072216917342303066 -1.158749997671712606 -5.083085497211703441 -0.500000000000000222 -1.922962686383490354e-16 0.8660254037844385966 1.353164693413185127 -3.648234099644480675e-16 0.7812500000000004441 forward_v I I I I #
coedge $-1 -1 $-1 $212 $202 $222 $242 forward $203 0 $-1 #
vertex $-1 1215 $-1 $205 1 $247 #
straight-curve $-1 -1 $-1 0.7057343382159627643 -1.315000000000019043 -5.141679248084816578 -1.657148810507682169e-16 -1.5625 -4.426202263787332157e-16 I I #
ATTRIB_CUSTOM-attrib $248 -1 $-1 $-1 $206 @22 generic_tag_attrib_def 3 3 -1 @23 generic_tag_attrib_def  1 1 @1 3 0 7 675 683 -688 -692 695 700 781 0 #
plane-surface $-1 -1 $-1 0.7252655882159618761 -1.236875000000019043 -5.17550836542014725 -0.8660254037844385966 2.33486982377246069e-16 -0.500000000000000222 -1.657148810507682169e-16 -1.5625 -4.42620226378733265e-16 forward_v I I I I #
ATTRIB_CUSTOM-attrib $-1 -1 $-1 $-1 $210 @22 generic_tag_attrib_def 3 3 -1 @23 generic_tag_attrib_def  1 0 @0  0 11 689 693 697 699 702 706 709 712 713 742 790 0 #
coedge $-1 -1 $-1 $222 $216 $214 $237 reversed $190 0 $-1 #
edge $-1 969 $-1 $238 -0.7853981633974376209 $218 0.7853981633974590482 $236 $249 forward @7 unknown #
vertex $-1 1212 $-1 $215 0 $250 #
straight-curve $-1 -1 $-1 0.89517739831836729 -1.236874998835865824 -5.032304246338587639 1.657148810507659543e-18 0.01562500000000000347 4.426202263787334622e-18 I I #
straight-curve $-1 -1 $-1 0.9282402952524997364 -1.315000000000019043 -5.058320863673916534 -0.7812500000000005551 -3.00462919747420565e-16 1.353164693413185127 I I #
point $-1 -1 $-1 0.9165215452524997364 -1.315000000000019265 -5.038023393272720085 #
edge $-1 975 $-1 $231 -0.1500000022351741791 $238 -0.009999999999999786837 $222 $251 forward @7 unknown #
straight-curve $-1 -1 $-1 0.7252655882159627643 -1.315000000000019043 -5.175508365420146362 -0.7812500000000005551 -3.00462919747420565e-16 1.353164693413185127 I I #
ATTRIB_CUSTOM-attrib $252 -1 $-1 $-1 $224 @22 generic_tag_attrib_def 3 3 -1 @23 generic_tag_attrib_def  1 1 @1 4 0 7 675 683 -688 -692 695 700 781 0 #
plane-surface $-1 -1 $-1 0.7252655882159627643 -1.315000000000019043 -5.175508365420146362 -1.060575238724902108e-16 -1 -2.832769448823894158e-16 1.353164693413185127 -3.648234099644480675e-16 0.7812500000000004441 forward_v I I I I #
ATTRIB_CUSTOM-attrib $-1 -1 $-1 $-1 $228 @22 generic_tag_attrib_def 3 3 -1 @23 generic_tag_attrib_def  1 0 @0  0 11 689 693 697 699 702 706 709 712 713 742 790 0 #
point $-1 -1 $-1 0.7057343382159627643 -1.315000000000019043 -5.141679248084816578 #
ATTRIB_CUSTOM-attrib $-1 -1 $-1 $-1 $233 @22 generic_tag_attrib_def 3 3 -1 @23 generic_tag_attrib_def  1 0 @0  0 11 689 693 697 699 702 706 709 712 713 742 790 0 #
ellipse-curve $-1 -1 $-1 0.90298989831836729 -1.315000000000019265 -5.045835893272720085 1.060575238724902108e-16 1 2.832769448823894158e-16 0.004044047579726720888 -4.704284751699694621e-18 0.01509259103576673922 1 I I #
point $-1 -1 $-1 0.89517739831836729 -1.315000000000019265 -5.032304246338586751 #
straight-curve $-1 -1 $-1 0.9087090452524997364 -1.315000000000019265 -5.024491746338586751 1.353164693413185127 -3.648234099644480675e-16 0.7812500000000005551 I I #
ATTRIB_CUSTOM-attrib $-1 -1 $-1 $-1 $244 @22 generic_tag_attrib_def 3 3 -1 @23 generic_tag_attrib_def  1 0 @0  0 11 689 693 697 699 702 706 709 712 713 742 790 0 #
End-of-ASM-data 