22700 0 2 4           
16 Autodesk Neutron 20 ASM 227.1.1.65535 NT 24 Wed Aug 25 06:16:46 2021 
10 9.999999999999999547e-07 1.000000000000000036e-10 
asmheader $-1 -1 @13 227.1.1.65535 #
body $2 1165 $-1 $3 $-1 $-1 #
ATTRIB_CUSTOM-attrib $-1 -1 $4 $-1 $1 @20 Timestamp_attrib_def 1 1448291910001 #
lump $-1 -1 $-1 $-1 $5 $1 #
ATTRIB_CUSTOM-attrib $6 -1 $-1 $2 $1 @22 generic_tag_attrib_def 3 3 -1 @23 generic_tag_attrib_def  1 3 @3 781 5 0 0 #
shell $-1 -1 $-1 $-1 $-1 $7 $-1 $3 #
ATTRIB_CUSTOM-attrib $-1 -1 $-1 $-1 $4 @22 generic_tag_attrib_def 3 3 -1 @23 generic_tag_attrib_def  1 0 @0  0 1 790 0 #
face $8 1031 $-1 $9 $10 $5 $-1 $11 forward single #
ATTRIB_CUSTOM-attrib $12 -1 $-1 $-1 $7 @22 generic_tag_attrib_def 3 3 -1 @23 generic_tag_attrib_def  1 1 @1 7 0 3 623 626 781 0 #
face $13 1032 $-1 $14 $15 $5 $-1 $16 forward single #
loop $-1 -1 $-1 $17 $18 $7 #
torus-surface $-1 -1 $-1 1.250000018626453491 0.5558372756184930541 -4.85000005587936478 1.867774709603612369e-32 1 2.220446049250218418e-16 1.038439016161120554 -1.83450571842300203 -5.551115123125781716e-16 -2.220446049250218418e-16 1 forward_v I I I I #
ATTRIB_CUSTOM-attrib $-1 -1 $-1 $-1 $8 @22 generic_tag_attrib_def 3 3 -1 @23 generic_tag_attrib_def  1 0 @0  0 8 629 636 638 680 712 713 742 790 0 #
ATTRIB_CUSTOM-attrib $19 -1 $-1 $-1 $9 @22 generic_tag_attrib_def 3 3 -1 @23 generic_tag_attrib_def  1 1 @1 6 0 3 623 626 781 0 #
face $20 1033 $-1 $21 $22 $5 $-1 $23 forward single #
loop $-1 -1 $-1 $24 $25 $9 #
torus-surface $-1 -1 $-1 1.250000018626453491 -0.8617342715031103273 -4.850000055879365668 1.867774709603612369e-32 1 2.220446049250218418e-16 0.427041118753925697 -0.2907227164961155297 -5.551115123125781716e-16 -2.220446049250218418e-16 1 forward_v I I I I #
loop $-1 -1 $-1 $-1 $26 $7 #
coedge $-1 -1 $-1 $18 $18 $27 $28 forward $10 0 $-1 #
ATTRIB_CUSTOM-attrib $-1 -1 $-1 $-1 $13 @22 generic_tag_attrib_def 3 3 -1 @23 generic_tag_attrib_def  1 0 @0  0 8 629 636 638 680 712 713 742 790 0 #
ATTRIB_CUSTOM-attrib $29 -1 $-1 $-1 $14 @22 generic_tag_attrib_def 3 3 -1 @23 generic_tag_attrib_def  1 1 @1 5 0 3 623 626 781 0 #
face $30 1034 $-1 $31 $32 $5 $-1 $33 forward single #
loop $-1 -1 $-1 $-1 $34 $14 #
plane-surface $-1 -1 $-1 1.250000018626453491 -1.015000000000025882 -4.850000055879365668 1.867774709603612369e-32 1 2.220446049250218418e-16 -5.551115123125781716e-16 -2.220446049250218418e-16 1 forward_v I I I I #
loop $-1 -1 $-1 $-1 $35 $9 #
coedge $-1 -1 $-1 $25 $25 $26 $36 forward $15 0 $-1 #
coedge $-1 -1 $-1 $26 $26 $25 $36 reversed $17 0 $-1 #
coedge $-1 -1 $-1 $27 $27 $18 $28 reversed $37 0 $-1 #
edge $-1 1036 $-1 $38 -1.570796326794896558 $38 4.712388980384689674 $27 $39 forward @7 unknown #
ATTRIB_CUSTOM-attrib $-1 -1 $-1 $-1 $20 @22 generic_tag_attrib_def 3 3 -1 @23 generic_tag_attrib_def  1 0 @0  0 8 629 636 638 680 712 713 742 790 0 #
ATTRIB_CUSTOM-attrib $40 -1 $-1 $-1 $21 @22 generic_tag_attrib_def 3 3 -1 @23 generic_tag_attrib_def  1 1 @1 4 0 3 623 626 781 0 #
face $41 1035 $-1 $-1 $42 $5 $-1 $43 forward single #
loop $-1 -1 $-1 $-1 $44 $21 #
plane-surface $-1 -1 $-1 1.250000018626453047 -1.330000000000018279 -4.070000055879366307 -1.867774709603612369e-32 -1 -2.220446049250218418e-16 5.551115123125781716e-16 2.220446049250218418e-16 -1 forward_v I I I I #
coedge $-1 -1 $-1 $34 $34 $35 $45 forward $22 0 $-1 #
coedge $-1 -1 $-1 $35 $35 $34 $45 reversed $24 0 $-1 #
edge $-1 1037 $-1 $46 -1.570796326794896558 $46 4.712388980384689674 $25 $47 forward @7 tangent #
loop $-1 -1 $-1 $-1 $27 $31 #
vertex $-1 1240 $-1 $28 2 $48 #
ellipse-curve $-1 -1 $-1 1.250000018626453491 -1.189999988083918048 -4.850000055879365668 1.867774709603612369e-32 1 2.220446049250218418e-16 0.4750000402331391314 -6.742020589056849967e-32 2.636779906823533373e-16 1 I I #
ATTRIB_CUSTOM-attrib $-1 -1 $-1 $-1 $30 @22 generic_tag_attrib_def 3 3 -1 @23 generic_tag_attrib_def  1 0 @0  0 8 629 636 638 680 712 713 742 790 0 #
ATTRIB_CUSTOM-attrib $49 -1 $-1 $-1 $31 @22 generic_tag_attrib_def 3 3 -1 @23 generic_tag_attrib_def  1 1 @1 3 0 3 623 626 781 0 #
loop $-1 -1 $-1 $37 $50 $31 #
torus-surface $-1 -1 $-1 1.250000018626453491 -2.107220535109864734 -4.850000055879366556 1.867774709603612369e-32 1 2.220446049250218418e-16 0.2386118185058682117 0.947192125842459931 -5.551115123125781716e-16 -2.220446049250218418e-16 1 forward_v I I I I #
coedge $-1 -1 $-1 $44 $44 $50 $51 reversed $32 0 $-1 #
edge $-1 1038 $-1 $52 -1.570796326794896558 $52 4.712388980384689674 $34 $53 forward @7 unknown #
vertex $-1 1241 $-1 $36 2 $54 #
ellipse-curve $-1 -1 $-1 1.250000018626453491 -1.129999989425024776 -4.850000055879366556 1.867774709603612369e-32 1 2.220446049250218418e-16 0.3150000438094189836 -4.471024423228557609e-32 1.748601506975749498e-16 1 I I #
point $-1 -1 $-1 1.250000018626453047 -1.18999998808391827 -4.375000015646226537 #
ATTRIB_CUSTOM-attrib $-1 -1 $-1 $-1 $41 @22 generic_tag_attrib_def 3 3 -1 @23 generic_tag_attrib_def  1 0 @0  0 8 629 636 638 680 712 713 742 790 0 #
coedge $-1 -1 $-1 $50 $50 $44 $51 forward $42 0 $-1 #
edge $-1 1039 $-1 $55 -1.570796326794896558 $55 4.712388980384689674 $50 $56 forward @7 unknown #
vertex $-1 1242 $-1 $45 2 $57 #
ellipse-curve $-1 -1 $-1 1.250000018626453491 -1.015000000000024105 -4.850000055879365668 1.867774709603612369e-32 1 2.220446049250218418e-16 0.1800000000000001876 -2.554870743662661676e-32 9.992007221626417738e-17 1 I I #
point $-1 -1 $-1 1.250000018626453269 -1.129999989425024998 -4.535000012069946962 #
vertex $-1 1243 $-1 $51 2 $58 #
ellipse-curve $-1 -1 $-1 1.250000018626453491 -1.330000000000017835 -4.850000055879366556 1.867774709603612369e-32 1 2.220446049250218418e-16 0.7799999999999986944 -1.107110655587150255e-31 4.32986979603810252e-16 1 I I #
point $-1 -1 $-1 1.250000018626453269 -1.015000000000024105 -4.670000055879365952 #
point $-1 -1 $-1 1.250000018626453047 -1.330000000000018279 -4.070000055879366307 #
End-of-ASM-data 