22700 0 2 4           
16 Autodesk Neutron 20 ASM 227.1.1.65535 NT 24 Wed Aug 25 17:45:32 2021 
10 9.999999999999999547e-07 1.000000000000000036e-10 
asmheader $-1 -1 @13 227.1.1.65535 #
body $2 166 $-1 $3 $-1 $4 #
ATTRIB_CUSTOM-attrib $-1 -1 $5 $-1 $1 @20 Timestamp_attrib_def 1 1479662664000 #
lump $-1 -1 $-1 $-1 $6 $1 #
transform $-1 -1 1 0 0 0 1 0 0 0 1 0 0 0 1 no_rotate no_reflect no_shear #
ATTRIB_CUSTOM-attrib $-1 -1 $-1 $2 $1 @22 generic_tag_attrib_def 3 3 -1 @23 generic_tag_attrib_def  1 3 @3 351 2 0 0 #
shell $-1 -1 $-1 $-1 $-1 $7 $-1 $3 #
face $8 36 $-1 $9 $10 $6 $-1 $11 forward single #
ATTRIB_CUSTOM-attrib $-1 -1 $-1 $-1 $7 @22 generic_tag_attrib_def 3 3 -1 @23 generic_tag_attrib_def  1 1 @1 3 0 4 330 332 334 351 0 #
face $12 37 $-1 $13 $14 $6 $-1 $15 forward single #
loop $-1 -1 $-1 $-1 $16 $7 #
plane-surface $-1 -1 $-1 0 24.92000000000000171 5.080000000000000071 0 -1 0 1 0 0 forward_v I I I I #
ATTRIB_CUSTOM-attrib $-1 -1 $-1 $-1 $9 @22 generic_tag_attrib_def 3 3 -1 @23 generic_tag_attrib_def  1 1 @1 6 0 4 330 332 334 351 0 #
face $17 38 $-1 $18 $19 $6 $-1 $20 forward single #
loop $-1 -1 $-1 $-1 $21 $9 #
plane-surface $-1 -1 $-1 0 30 5.080000000000000071 -1 0 0 -0 -1 -0 forward_v I I I I #
coedge $-1 -1 $-1 $22 $23 $24 $25 reversed $10 0 $-1 #
ATTRIB_CUSTOM-attrib $-1 -1 $-1 $-1 $13 @22 generic_tag_attrib_def 3 3 -1 @23 generic_tag_attrib_def  1 1 @1 5 0 4 330 332 334 351 0 #
face $26 39 $-1 $27 $28 $6 $-1 $29 forward single #
loop $-1 -1 $-1 $-1 $30 $13 #
plane-surface $-1 -1 $-1 5.080000000000000071 30 5.080000000000000071 0 1 0 -1 -0 -0 forward_v I I I I #
coedge $-1 -1 $-1 $31 $32 $33 $34 forward $14 0 $-1 #
coedge $-1 -1 $-1 $35 $16 $32 $36 reversed $10 0 $-1 #
coedge $-1 -1 $-1 $16 $35 $37 $38 forward $10 0 $-1 #
coedge $-1 -1 $-1 $39 $33 $16 $25 forward $40 0 $-1 #
edge $-1 42 $-1 $41 -2.540000000000000036 $42 2.540000000000000036 $16 $43 forward @7 unknown #
ATTRIB_CUSTOM-attrib $-1 -1 $-1 $-1 $18 @22 generic_tag_attrib_def 3 3 -1 @23 generic_tag_attrib_def  1 1 @1 4 0 4 330 332 334 351 0 #
face $44 40 $-1 $45 $46 $6 $-1 $47 reversed single #
loop $-1 -1 $-1 $-1 $48 $18 #
plane-surface $-1 -1 $-1 5.080000000000000071 24.92000000000000171 5.080000000000000071 1 0 0 0 1 0 forward_v I I I I #
coedge $-1 -1 $-1 $49 $50 $51 $52 reversed $19 0 $-1 #
coedge $-1 -1 $-1 $53 $21 $50 $54 reversed $14 0 $-1 #
coedge $-1 -1 $-1 $21 $53 $22 $36 forward $14 0 $-1 #
coedge $-1 -1 $-1 $24 $51 $21 $34 reversed $40 0 $-1 #
edge $-1 46 $-1 $41 74.92000000000000171 $55 80 $33 $56 forward @7 unknown #
coedge $57 -1 $-1 $23 $22 $58 $59 reversed $10 0 $-1 #
edge $-1 43 $-1 $60 0 $41 64.92000000000000171 $22 $61 forward @7 unknown #
coedge $-1 -1 $-1 $62 $48 $23 $38 reversed $28 0 $-1 #
edge $-1 45 $-1 $63 0 $42 64.92000000000000171 $23 $64 forward @7 unknown #
coedge $-1 -1 $-1 $51 $24 $48 $65 forward $40 0 $-1 #
loop $-1 -1 $-1 $-1 $24 $45 #
vertex $-1 187 $-1 $25 0 $66 #
vertex $-1 186 $-1 $25 1 $67 #
straight-curve $-1 -1 $-1 2.540000000000000036 24.92000000000000171 70 1 0 0 I I #
ATTRIB_CUSTOM-attrib $-1 -1 $-1 $-1 $27 @22 generic_tag_attrib_def 3 3 -1 @23 generic_tag_attrib_def  1 1 @1 1 0 4 330 332 334 351 0 #
face $68 41 $-1 $-1 $40 $6 $-1 $69 reversed single #
loop $-1 -1 $-1 $-1 $58 $27 #
plane-surface $-1 -1 $-1 2.540000000000000036 27.46000000000000796 5.080000000000000071 0 0 1 1 0 0 forward_v I I I I #
coedge $-1 -1 $-1 $37 $70 $39 $65 reversed $28 0 $-1 #
coedge $-1 -1 $-1 $71 $30 $70 $72 reversed $19 0 $-1 #
coedge $-1 -1 $-1 $30 $71 $31 $54 forward $19 0 $-1 #
coedge $-1 -1 $-1 $33 $39 $30 $52 forward $40 0 $-1 #
edge $-1 49 $-1 $73 -5.080000000000000071 $55 -0 $51 $74 forward @7 unknown #
coedge $75 -1 $-1 $32 $31 $76 $77 reversed $14 0 $-1 #
edge $-1 47 $-1 $78 0 $55 64.92000000000000171 $31 $79 forward @7 unknown #
vertex $-1 190 $-1 $52 1 $80 #
straight-curve $-1 -1 $-1 0 -50 70 0 1 0 I I #
ATTRIB_CUSTOM-attrib $-1 -1 $-1 $-1 $35 @17 sketch_attrib_def 1 1 3 @13 145 0 1 0 1 1 #
coedge $81 -1 $-1 $76 $82 $35 $59 forward $46 0 $-1 #
edge $-1 44 $-1 $63 0 $60 5.080000000000000071 $35 $83 forward @7 unknown #
vertex $-1 188 $-1 $36 0 $84 #
straight-curve $-1 -1 $-1 0 24.92000000000000171 5.080000000000000071 0 0 1 I I #
coedge $85 -1 $-1 $70 $37 $82 $86 reversed $28 0 $-1 #
vertex $-1 189 $-1 $59 0 $87 #
straight-curve $-1 -1 $-1 5.080000000000000071 24.92000000000000171 5.080000000000000071 0 0 1 I I #
edge $-1 52 $-1 $42 74.92000000000000171 $73 80 $39 $88 forward @7 unknown #
point $-1 -1 $-1 0 24.92000000000000171 70 #
point $-1 -1 $-1 5.080000000000000071 24.92000000000000171 70 #
ATTRIB_CUSTOM-attrib $-1 -1 $-1 $-1 $45 @22 generic_tag_attrib_def 3 3 -1 @23 generic_tag_attrib_def  1 1 @1 2 0 4 330 332 334 351 0 #
plane-surface $-1 -1 $-1 5.080000000000000071 -50 70 0 0 -1 -1 -0 -0 forward_v I I I I #
coedge $-1 -1 $-1 $48 $62 $49 $72 forward $28 0 $-1 #
coedge $89 -1 $-1 $50 $49 $90 $91 reversed $19 0 $-1 #
edge $-1 50 $-1 $92 0 $73 64.92000000000000171 $70 $93 forward @7 unknown #
vertex $-1 192 $-1 $65 1 $94 #
straight-curve $-1 -1 $-1 0 30 70 -1 -0 -0 I I #
ATTRIB_CUSTOM-attrib $-1 -1 $95 $-1 $53 @17 sketch_attrib_def 1 1 3 @13 138 0 1 0 1 2 #
coedge $96 -1 $-1 $90 $58 $53 $77 forward $46 0 $-1 #
edge $-1 48 $-1 $60 0 $78 5.079999999999998295 $53 $97 forward @7 unknown #
vertex $-1 191 $-1 $54 0 $98 #
straight-curve $-1 -1 $-1 0 30 5.080000000000000071 0 0 1 I I #
point $-1 -1 $-1 0 30 70 #
ATTRIB_CUSTOM-attrib $-1 -1 $-1 $-1 $58 @17 sketch_attrib_def 1 1 3 @13 145 0 1 0 1 1 #
coedge $99 -1 $-1 $58 $90 $62 $86 forward $46 0 $-1 #
straight-curve $-1 -1 $-1 5.080000000000000071 24.92000000000000171 5.080000000000000071 -1 0 0 F 0 F 5.080000000000000071 #
point $-1 -1 $-1 0 24.92000000000000171 5.080000000000000071 #
ATTRIB_CUSTOM-attrib $-1 -1 $100 $-1 $62 @17 sketch_attrib_def 1 1 3 @13 135 0 1 0 2 2 #
edge $-1 53 $-1 $92 0 $63 5.079999999999998295 $82 $101 forward @7 unknown #
point $-1 -1 $-1 5.080000000000000071 24.92000000000000171 5.080000000000000071 #
straight-curve $-1 -1 $-1 5.080000000000000071 -50 70 0 1 0 I I #
ATTRIB_CUSTOM-attrib $-1 -1 $102 $-1 $71 @17 sketch_attrib_def 1 1 3 @13 137 0 1 0 1 1 #
coedge $103 -1 $-1 $82 $76 $71 $91 forward $46 0 $-1 #
edge $-1 51 $-1 $78 0 $92 5.080000000000000071 $90 $104 forward @7 unknown #
vertex $-1 193 $-1 $91 1 $105 #
straight-curve $-1 -1 $-1 5.080000000000000071 30 5.080000000000000071 0 0 1 I I #
point $-1 -1 $-1 5.080000000000000071 30 70 #
ATTRIB_CUSTOM-attrib $-1 -1 $-1 $75 $53 @17 sketch_attrib_def 1 1 3 @13 146 0 1 0 1 1 #
ATTRIB_CUSTOM-attrib $-1 -1 $106 $-1 $76 @17 sketch_attrib_def 1 1 3 @13 146 0 1 0 1 1 #
straight-curve $-1 -1 $-1 0 24.92000000000000171 5.080000000000000071 0 1 0 F 0 F 5.079999999999998295 #
point $-1 -1 $-1 0 30 5.080000000000000071 #
ATTRIB_CUSTOM-attrib $-1 -1 $107 $-1 $82 @17 sketch_attrib_def 1 1 3 @13 144 0 1 0 1 1 #
ATTRIB_CUSTOM-attrib $-1 -1 $-1 $85 $62 @17 sketch_attrib_def 1 1 3 @13 144 0 1 0 1 1 #
straight-curve $-1 -1 $-1 5.080000000000000071 30 5.080000000000000071 0 -1 0 F 0 F 5.079999999999998295 #
ATTRIB_CUSTOM-attrib $-1 -1 $-1 $89 $71 @17 sketch_attrib_def 1 1 3 @13 143 0 1 0 1 1 #
ATTRIB_CUSTOM-attrib $-1 -1 $108 $-1 $90 @17 sketch_attrib_def 1 1 3 @13 143 0 1 0 1 1 #
straight-curve $-1 -1 $-1 0 30 5.080000000000000071 1 0 0 F 0 F 5.080000000000000071 #
point $-1 -1 $-1 5.080000000000000071 30 5.080000000000000071 #
ATTRIB_CUSTOM-attrib $-1 -1 $-1 $96 $76 @17 sketch_attrib_def 1 1 3 @13 138 0 1 0 1 2 #
ATTRIB_CUSTOM-attrib $-1 -1 $-1 $99 $82 @17 sketch_attrib_def 1 1 3 @13 135 0 1 0 2 2 #
ATTRIB_CUSTOM-attrib $-1 -1 $-1 $103 $90 @17 sketch_attrib_def 1 1 3 @13 137 0 1 0 1 1 #
End-of-ASM-data 