22700 0 2 4           
16 Autodesk Neutron 20 ASM 227.1.1.65535 NT 24 Wed Aug 25 17:45:34 2021 
10 9.999999999999999547e-07 1.000000000000000036e-10 
asmheader $-1 -1 @13 227.1.1.65535 #
body $2 169 $-1 $3 $-1 $-1 #
ATTRIB_CUSTOM-attrib $-1 -1 $4 $-1 $1 @20 Timestamp_attrib_def 1 1479663282001 #
lump $-1 -1 $-1 $-1 $5 $1 #
ATTRIB_CUSTOM-attrib $-1 -1 $-1 $2 $1 @22 generic_tag_attrib_def 3 3 -1 @23 generic_tag_attrib_def  1 3 @3 361 2 0 0 #
shell $-1 -1 $-1 $-1 $-1 $6 $-1 $3 #
face $7 146 $-1 $8 $9 $5 $-1 $10 forward single #
ATTRIB_CUSTOM-attrib $-1 -1 $-1 $-1 $6 @22 generic_tag_attrib_def 3 3 -1 @23 generic_tag_attrib_def  1 1 @1 4 0 3 357 361 362 0 #
face $11 147 $-1 $12 $13 $5 $-1 $14 forward single #
loop $-1 -1 $-1 $-1 $15 $6 #
plane-surface $-1 -1 $-1 5.080000000000000071 24.92000000000000171 70 0 0 -1 0 1 0 forward_v I I I I #
ATTRIB_CUSTOM-attrib $-1 -1 $-1 $-1 $8 @22 generic_tag_attrib_def 3 3 -1 @23 generic_tag_attrib_def  1 1 @1 3 0 3 357 361 362 0 #
face $16 148 $-1 $17 $18 $5 $-1 $19 forward single #
loop $-1 -1 $-1 $-1 $20 $8 #
plane-surface $-1 -1 $-1 5.080000000000000071 24.92000000000000171 75.07999999999999829 0 -1 0 -0 -0 -1 forward_v I I I I #
coedge $-1 -1 $-1 $21 $22 $23 $24 reversed $9 0 $-1 #
ATTRIB_CUSTOM-attrib $-1 -1 $-1 $-1 $12 @22 generic_tag_attrib_def 3 3 -1 @23 generic_tag_attrib_def  1 1 @1 6 0 3 357 361 362 0 #
face $25 149 $-1 $26 $27 $5 $-1 $28 forward single #
loop $-1 -1 $-1 $-1 $29 $12 #
plane-surface $-1 -1 $-1 5.080000000000000071 30 75.07999999999999829 0 0 1 -0 -1 -0 forward_v I I I I #
coedge $-1 -1 $-1 $30 $31 $32 $33 reversed $13 0 $-1 #
coedge $-1 -1 $-1 $34 $15 $31 $35 reversed $9 0 $-1 #
coedge $-1 -1 $-1 $15 $34 $36 $37 forward $9 0 $-1 #
coedge $-1 -1 $-1 $38 $32 $15 $24 forward $39 0 $-1 #
edge $-1 152 $-1 $40 74.92000000000000171 $41 80 $15 $42 forward @7 unknown #
ATTRIB_CUSTOM-attrib $-1 -1 $-1 $-1 $17 @22 generic_tag_attrib_def 3 3 -1 @23 generic_tag_attrib_def  1 1 @1 5 0 3 357 361 362 0 #
face $43 150 $-1 $44 $45 $5 $-1 $46 reversed single #
loop $-1 -1 $-1 $-1 $47 $17 #
plane-surface $-1 -1 $-1 5.080000000000000071 30 70 0 1 0 0 0 1 forward_v I I I I #
coedge $-1 -1 $-1 $48 $49 $50 $51 forward $18 0 $-1 #
coedge $-1 -1 $-1 $52 $20 $49 $53 reversed $13 0 $-1 #
coedge $-1 -1 $-1 $20 $52 $21 $35 forward $13 0 $-1 #
coedge $-1 -1 $-1 $23 $50 $20 $33 forward $39 0 $-1 #
edge $-1 156 $-1 $54 -2.540000000000006253 $40 2.539999999999992042 $32 $55 forward @7 unknown #
coedge $56 -1 $-1 $22 $21 $57 $58 reversed $9 0 $-1 #
edge $-1 153 $-1 $59 0 $40 94.92000000000000171 $21 $60 forward @7 unknown #
coedge $-1 -1 $-1 $61 $47 $22 $37 reversed $27 0 $-1 #
edge $-1 155 $-1 $62 0 $41 94.92000000000000171 $22 $63 forward @7 unknown #
coedge $-1 -1 $-1 $50 $23 $47 $64 forward $39 0 $-1 #
loop $-1 -1 $-1 $-1 $32 $44 #
vertex $-1 227 $-1 $24 0 $65 #
vertex $-1 226 $-1 $24 1 $66 #
straight-curve $-1 -1 $-1 100 -50 70 0 1 0 I I #
ATTRIB_CUSTOM-attrib $-1 -1 $-1 $-1 $26 @22 generic_tag_attrib_def 3 3 -1 @23 generic_tag_attrib_def  1 1 @1 1 0 3 357 361 362 0 #
face $67 151 $-1 $-1 $39 $5 $-1 $68 reversed single #
loop $-1 -1 $-1 $-1 $69 $26 #
plane-surface $-1 -1 $-1 5.080000000000000071 27.46000000000000796 72.53999999999999204 1 0 0 0 0 -1 forward_v I I I I #
coedge $-1 -1 $-1 $36 $70 $38 $64 reversed $27 0 $-1 #
coedge $-1 -1 $-1 $71 $29 $70 $72 reversed $18 0 $-1 #
coedge $-1 -1 $-1 $29 $71 $30 $53 forward $18 0 $-1 #
coedge $-1 -1 $-1 $32 $38 $29 $51 reversed $39 0 $-1 #
edge $-1 159 $-1 $54 74.92000000000000171 $73 80 $50 $74 forward @7 unknown #
coedge $75 -1 $-1 $31 $30 $69 $76 reversed $13 0 $-1 #
edge $-1 157 $-1 $77 0 $54 94.92000000000000171 $30 $78 forward @7 unknown #
vertex $-1 230 $-1 $33 0 $79 #
straight-curve $-1 -1 $-1 100 24.92000000000000171 72.53999999999999204 -0 -0 -1 I I #
ATTRIB_CUSTOM-attrib $-1 -1 $80 $-1 $34 @17 sketch_attrib_def 1 1 3 @13 105 0 1 0 2 2 #
coedge $81 -1 $-1 $69 $82 $34 $58 forward $45 0 $-1 #
edge $-1 154 $-1 $62 0 $59 5.079999999999998295 $34 $83 forward @7 unknown #
vertex $-1 228 $-1 $35 0 $84 #
straight-curve $-1 -1 $-1 5.080000000000000071 24.92000000000000171 70 1 0 0 I I #
coedge $85 -1 $-1 $70 $36 $82 $86 reversed $27 0 $-1 #
vertex $-1 229 $-1 $58 0 $87 #
straight-curve $-1 -1 $-1 5.080000000000000071 30 70 1 0 0 I I #
edge $-1 162 $-1 $41 -5.080000000000000071 $73 -0 $38 $88 forward @7 unknown #
point $-1 -1 $-1 100 24.92000000000000171 70 #
point $-1 -1 $-1 100 30 70 #
ATTRIB_CUSTOM-attrib $-1 -1 $-1 $-1 $44 @22 generic_tag_attrib_def 3 3 -1 @23 generic_tag_attrib_def  1 1 @1 2 0 3 357 361 362 0 #
plane-surface $-1 -1 $-1 100 -50 70 -1 0 0 0 0 1 forward_v I I I I #
coedge $89 -1 $-1 $90 $57 $52 $76 forward $45 0 $-1 #
coedge $-1 -1 $-1 $47 $61 $48 $72 forward $27 0 $-1 #
coedge $91 -1 $-1 $49 $48 $90 $92 reversed $18 0 $-1 #
edge $-1 160 $-1 $93 0 $73 94.92000000000000171 $70 $94 forward @7 unknown #
vertex $-1 232 $-1 $64 1 $95 #
straight-curve $-1 -1 $-1 100 -50 75.07999999999999829 0 1 0 I I #
ATTRIB_CUSTOM-attrib $-1 -1 $-1 $-1 $52 @17 sketch_attrib_def 1 1 3 @13 115 0 1 0 1 1 #
edge $-1 158 $-1 $59 0 $77 5.079999999999998295 $52 $96 forward @7 unknown #
vertex $-1 231 $-1 $53 0 $97 #
straight-curve $-1 -1 $-1 5.080000000000000071 24.92000000000000171 75.07999999999999829 1 0 0 I I #
point $-1 -1 $-1 100 24.92000000000000171 75.07999999999999829 #
ATTRIB_CUSTOM-attrib $-1 -1 $-1 $56 $34 @17 sketch_attrib_def 1 1 3 @13 114 0 1 0 1 1 #
ATTRIB_CUSTOM-attrib $-1 -1 $98 $-1 $57 @17 sketch_attrib_def 1 1 3 @13 114 0 1 0 1 1 #
coedge $99 -1 $-1 $57 $90 $61 $86 forward $45 0 $-1 #
straight-curve $-1 -1 $-1 5.080000000000000071 30 70 0 -1 0 F 0 F 5.079999999999998295 #
point $-1 -1 $-1 5.080000000000000071 24.92000000000000171 70 #
ATTRIB_CUSTOM-attrib $-1 -1 $100 $-1 $61 @17 sketch_attrib_def 1 1 3 @13 107 0 1 0 1 1 #
edge $-1 163 $-1 $93 0 $62 5.079999999999998295 $82 $101 forward @7 unknown #
point $-1 -1 $-1 5.080000000000000071 30 70 #
straight-curve $-1 -1 $-1 100 30 75.07999999999999829 0 0 1 I I #
ATTRIB_CUSTOM-attrib $-1 -1 $-1 $-1 $69 @17 sketch_attrib_def 1 1 3 @13 115 0 1 0 1 1 #
coedge $102 -1 $-1 $82 $69 $71 $92 forward $45 0 $-1 #
ATTRIB_CUSTOM-attrib $-1 -1 $103 $-1 $71 @17 sketch_attrib_def 1 1 3 @13 108 0 1 0 1 2 #
edge $-1 161 $-1 $77 0 $93 5.079999999999998295 $90 $104 forward @7 unknown #
vertex $-1 233 $-1 $92 1 $105 #
straight-curve $-1 -1 $-1 5.080000000000000071 30 75.07999999999999829 1 0 0 I I #
point $-1 -1 $-1 100 30 75.07999999999999829 #
straight-curve $-1 -1 $-1 5.080000000000000071 24.92000000000000171 70 0 0 1 F 0 F 5.079999999999998295 #
point $-1 -1 $-1 5.080000000000000071 24.92000000000000171 75.07999999999999829 #
ATTRIB_CUSTOM-attrib $-1 -1 $-1 $81 $57 @17 sketch_attrib_def 1 1 3 @13 105 0 1 0 2 2 #
ATTRIB_CUSTOM-attrib $-1 -1 $106 $-1 $82 @17 sketch_attrib_def 1 1 3 @13 113 0 1 0 1 1 #
ATTRIB_CUSTOM-attrib $-1 -1 $-1 $85 $61 @17 sketch_attrib_def 1 1 3 @13 113 0 1 0 1 1 #
straight-curve $-1 -1 $-1 5.080000000000000071 30 75.07999999999999829 0 0 -1 F 0 F 5.079999999999998295 #
ATTRIB_CUSTOM-attrib $-1 -1 $107 $-1 $90 @17 sketch_attrib_def 1 1 3 @13 116 0 1 0 1 1 #
ATTRIB_CUSTOM-attrib $-1 -1 $-1 $91 $71 @17 sketch_attrib_def 1 1 3 @13 116 0 1 0 1 1 #
straight-curve $-1 -1 $-1 5.080000000000000071 24.92000000000000171 75.07999999999999829 0 1 0 F 0 F 5.079999999999998295 #
point $-1 -1 $-1 5.080000000000000071 30 75.07999999999999829 #
ATTRIB_CUSTOM-attrib $-1 -1 $-1 $99 $82 @17 sketch_attrib_def 1 1 3 @13 107 0 1 0 1 1 #
ATTRIB_CUSTOM-attrib $-1 -1 $-1 $102 $90 @17 sketch_attrib_def 1 1 3 @13 108 0 1 0 1 2 #
End-of-ASM-data 