22700 0 2 4           
16 Autodesk Neutron 20 ASM 227.1.1.65535 NT 24 Wed Aug 25 11:00:20 2021 
10 9.999999999999999547e-07 1.000000000000000036e-10 
asmheader $-1 -1 @13 227.1.1.65535 #
body $2 1420 $-1 $3 $-1 $4 #
ATTRIB_CUSTOM-attrib $-1 -1 $5 $-1 $1 @20 Timestamp_attrib_def 1 1469566317001 #
lump $-1 -1 $-1 $-1 $6 $1 #
transform $-1 -1 1 0 0 0 1 0 0 0 1 0 0 0 1 no_rotate no_reflect no_shear #
ATTRIB_CUSTOM-attrib $-1 -1 $-1 $2 $1 @22 generic_tag_attrib_def 3 3 -1 @23 generic_tag_attrib_def  3 3 @3 350 11 0 0 3 @3 353 5 0 0 3 @3 362 4 0 0 #
shell $-1 -1 $-1 $-1 $-1 $7 $-1 $3 #
face $8 1415 $-1 $9 $10 $6 $-1 $11 reversed single #
ATTRIB_CUSTOM-attrib $-1 -1 $-1 $-1 $7 @22 generic_tag_attrib_def 3 3 -1 @23 generic_tag_attrib_def  1 1 @1 3 0 1 365 0 #
face $12 1416 $-1 $13 $14 $6 $-1 $15 forward single #
loop $-1 -1 $-1 $16 $17 $7 #
cone-surface $-1 -1 $-1 -1 4.600000001490116119 -8.500000126659871924 1 0 0 0 0 0.6500000000000003553 1 I I 0 1 0.6500000000000003553 forward I I I I #
ATTRIB_CUSTOM-attrib $-1 -1 $-1 $-1 $9 @22 generic_tag_attrib_def 3 3 -1 @23 generic_tag_attrib_def  1 1 @1 2 0 1 365 0 #
face $18 1408 $-1 $19 $20 $6 $-1 $21 reversed single #
loop $-1 -1 $-1 $22 $23 $9 #
plane-surface $-1 -1 $-1 -0.5 4.600000001490116119 -8.500000126659871924 -1 0 0 0 0 1 forward_v I I I I #
loop $-1 -1 $-1 $-1 $24 $7 #
coedge $-1 -1 $-1 $17 $17 $25 $26 forward $10 0 $-1 #
ATTRIB_CUSTOM-attrib $-1 -1 $-1 $-1 $13 @22 generic_tag_attrib_def 3 3 -1 @23 generic_tag_attrib_def  1 1 @1 3 0 1 364 0 #
face $27 1407 $-1 $28 $29 $6 $-1 $30 reversed single #
loop $-1 -1 $-1 $31 $32 $13 #
cone-surface $-1 -1 $-1 0.6499999999999999112 4.600000001490116119 -8.500000126659871924 -1 0 0 0 0.25 0 1 I I 0 1 0.25 forward I I I I #
loop $-1 -1 $-1 $-1 $25 $9 #
coedge $-1 -1 $-1 $23 $23 $33 $34 reversed $14 0 $-1 #
coedge $35 -1 $-1 $24 $24 $36 $37 reversed $16 0 $-1 #
coedge $-1 -1 $-1 $25 $25 $17 $26 reversed $22 0 $-1 #
edge $-1 1417 $-1 $38 -3.141592653589793116 $38 3.141592653589793116 $17 $39 forward @7 unknown #
ATTRIB_CUSTOM-attrib $-1 -1 $-1 $-1 $19 @22 generic_tag_attrib_def 3 3 -1 @23 generic_tag_attrib_def  1 1 @1 2 0 1 362 0 #
face $40 730 $-1 $41 $42 $6 $-1 $43 forward single #
loop $-1 -1 $-1 $44 $45 $19 #
plane-surface $-1 -1 $-1 0.5 4.600000001490116119 -8.500000126659871924 1 0 0 0 0 -1 forward_v I I I I #
loop $-1 -1 $-1 $-1 $46 $13 #
coedge $-1 -1 $-1 $32 $32 $45 $47 reversed $20 0 $-1 #
coedge $-1 -1 $-1 $33 $33 $23 $34 forward $42 0 $-1 #
edge $-1 1419 $-1 $48 0 $48 6.283185307179586232 $33 $49 forward @7 unknown #
ATTRIB_CUSTOM-attrib $-1 -1 $-1 $-1 $24 @17 sketch_attrib_def 1 1 3 @13 142 0 0 0 1 1 #
coedge $-1 -1 $-1 $36 $36 $24 $37 forward $50 0 $-1 #
edge $-1 1418 $-1 $51 -3.141592653589793116 $51 3.141592653589793116 $36 $52 forward @7 unknown #
vertex $-1 1423 $-1 $26 0 $53 #
ellipse-curve $-1 -1 $-1 -0.5 4.600000001490116119 -8.500000126659871924 1 0 0 0 0 0.6500000000000003553 1 I I #
ATTRIB_CUSTOM-attrib $-1 -1 $-1 $-1 $28 @22 generic_tag_attrib_def 3 3 -1 @23 generic_tag_attrib_def  3 1 @1 4 0 1 353 0 1 @1 4 0 1 354 0 1 @1 3 0 1 356 0 #
face $54 728 $-1 $55 $56 $6 $-1 $57 forward single #
loop $-1 -1 $-1 $58 $33 $28 #
cone-surface $-1 -1 $-1 0 4.600000001490116119 -8.500000126659871924 1 0 0 0 0 -0.5000000000000017764 1 I I 0 -1 0.5000000000000017764 forward I I I I #
loop $-1 -1 $-1 $-1 $59 $19 #
coedge $-1 -1 $-1 $45 $45 $32 $47 forward $29 0 $-1 #
coedge $-1 -1 $-1 $46 $46 $60 $61 reversed $31 0 $-1 #
edge $-1 1413 $-1 $62 -3.141592653589793116 $62 3.141592653589793116 $45 $63 forward @7 unknown #
vertex $-1 1425 $-1 $34 0 $64 #
ellipse-curve $-1 -1 $-1 -0.5 4.600000001490116119 -8.500000126659871924 -1 0 0 0 0 -0.5000000000000017764 1 I I #
loop $-1 -1 $-1 $65 $36 $55 #
vertex $-1 1424 $-1 $37 0 $66 #
ellipse-curve $-1 -1 $-1 -1 4.600000001490116119 -8.500000126659871924 1 0 0 0 0 0.6500000000000003553 1 I I #
point $-1 -1 $-1 -0.5 4.600000001490116119 -9.150000126659872279 #
ATTRIB_CUSTOM-attrib $-1 -1 $-1 $-1 $41 @22 generic_tag_attrib_def 3 3 -1 @23 generic_tag_attrib_def  2 1 @1 3 0 1 353 0 1 @1 3 0 1 354 0 #
face $67 726 $-1 $68 $50 $6 $-1 $69 reversed single #
loop $-1 -1 $-1 $70 $71 $41 #
cone-surface $-1 -1 $-1 0 4.600000001490116119 -8.500000126659871924 1 0 0 0 0 -0.8000000119209325078 1 I I 0 1 0.8000000119209325078 forward I I I I #
loop $-1 -1 $-1 $72 $73 $28 #
coedge $-1 -1 $-1 $59 $59 $73 $74 reversed $44 0 $-1 #
coedge $-1 -1 $-1 $60 $60 $46 $61 forward $75 0 $-1 #
edge $-1 1414 $-1 $76 0 $76 6.283185307179586232 $60 $77 forward @7 unknown #
vertex $-1 1426 $-1 $47 0 $78 #
ellipse-curve $-1 -1 $-1 0.5 4.600000001490116119 -8.500000126659871924 1 0 0 0 0.25 0 1 I I #
point $-1 -1 $-1 -0.5 4.600000001490116119 -9.0000001266598737 #
loop $-1 -1 $-1 $-1 $79 $55 #
point $-1 -1 $-1 -1 4.600000001490116119 -9.150000126659872279 #
ATTRIB_CUSTOM-attrib $-1 -1 $-1 $-1 $55 @22 generic_tag_attrib_def 3 3 -1 @23 generic_tag_attrib_def  1 1 @1 1 0 1 353 0 #
face $80 727 $-1 $81 $75 $6 $-1 $82 forward single #
plane-surface $-1 -1 $-1 -1 4.600000001490116119 -8.500000126659871924 1 0 0 0 0 -1 forward_v I I I I #
loop $-1 -1 $-1 $83 $84 $41 #
coedge $-1 -1 $-1 $71 $71 $85 $86 reversed $56 0 $-1 #
loop $-1 -1 $-1 $-1 $87 $28 #
coedge $-1 -1 $-1 $73 $73 $59 $74 forward $58 0 $-1 #
edge $-1 1412 $-1 $88 -3.141592653589793116 $88 3.141592653589793116 $73 $89 forward @7 unknown #
loop $-1 -1 $-1 $90 $60 $68 #
vertex $-1 1422 $-1 $61 0 $91 #
ellipse-curve $-1 -1 $-1 1 4.600000001490116119 -8.500000126659871924 -1 -0 -0 0 0.25 0 1 I I #
point $-1 -1 $-1 0.5 4.350000001490116119 -8.500000126659871924 #
coedge $-1 -1 $-1 $79 $79 $84 $92 forward $65 0 $-1 #
ATTRIB_CUSTOM-attrib $-1 -1 $-1 $-1 $68 @22 generic_tag_attrib_def 3 3 -1 @23 generic_tag_attrib_def  2 1 @1 2 0 1 353 0 1 @1 1 0 1 362 0 #
face $93 732 $-1 $94 $95 $6 $-1 $96 forward single #
plane-surface $-1 -1 $-1 1 4.600000001490116119 -8.500000126659871924 1 0 0 0 0 -1 forward_v I I I I #
loop $-1 -1 $-1 $-1 $97 $41 #
coedge $-1 -1 $-1 $84 $84 $79 $92 reversed $70 0 $-1 #
coedge $-1 -1 $-1 $85 $85 $71 $86 forward $90 0 $-1 #
edge $-1 746 $-1 $98 -3.141592653589793116 $98 3.141592653589793116 $71 $99 forward @7 unknown #
coedge $-1 -1 $-1 $87 $87 $100 $101 forward $72 0 $-1 #
vertex $-1 1427 $-1 $74 0 $102 #
ellipse-curve $-1 -1 $-1 0.5 4.600000001490116119 -8.500000126659871924 1 0 0 0 0 -0.5000000000000017764 1 I I #
loop $-1 -1 $-1 $-1 $85 $68 #
point $-1 -1 $-1 1 4.850000001490116119 -8.500000126659871924 #
edge $-1 744 $-1 $103 -3.141592653589793116 $103 3.141592653589793116 $84 $104 forward @7 unknown #
ATTRIB_CUSTOM-attrib $-1 -1 $-1 $-1 $81 @22 generic_tag_attrib_def 3 3 -1 @23 generic_tag_attrib_def  2 1 @1 3 0 1 350 0 1 @1 3 0 1 359 0 #
face $105 719 $-1 $106 $107 $6 $-1 $108 forward single #
loop $-1 -1 $-1 $109 $100 $81 #
cone-surface $-1 -1 $-1 0 2.725000001490115675 -8.500000126659871924 0 -1 0 0 0 -0.3000000119209271787 1 I I 0 -1 0.3000000119209271787 forward I I I I #
coedge $-1 -1 $-1 $110 $110 $111 $112 reversed $83 0 $-1 #
vertex $-1 1429 $-1 $86 0 $113 #
ellipse-curve $-1 -1 $-1 1 4.600000001490116119 -8.500000126659871924 1 0 0 0 0 -0.8000000119209325078 1 I I #
coedge $-1 -1 $-1 $100 $100 $87 $101 reversed $95 0 $-1 #
edge $-1 1411 $-1 $114 0 $114 1.865321526308395095 $87 $115 forward @7 unknown #
point $-1 -1 $-1 0.5 4.600000001490116119 -8.000000126659870148 #
vertex $-1 1430 $-1 $92 0 $116 #
ellipse-curve $-1 -1 $-1 -1 4.600000001490116119 -8.500000126659871924 -1 -0 -0 0 0 -0.8000000119209325078 1 I I #
ATTRIB_CUSTOM-attrib $-1 -1 $-1 $-1 $94 @22 generic_tag_attrib_def 3 3 -1 @23 generic_tag_attrib_def  1 1 @1 9 0 1 350 0 #
face $117 720 $-1 $118 $119 $6 $-1 $120 forward single #
loop $-1 -1 $-1 $121 $111 $94 #
cone-surface $-1 -1 $-1 0 3.350000001490116119 -8.500000126659871924 0 -1 0 0 0 -0.8000000119209271787 1 I I 0 1 0.8000000119209271787 forward I I I I #
loop $-1 -1 $-1 $-1 $122 $81 #
coedge $-1 -1 $-1 $97 $97 $123 $124 reversed $83 0 $-1 #
coedge $-1 -1 $-1 $123 $123 $97 $112 forward $107 0 $-1 #
edge $-1 752 $-1 $125 1.570796326794896558 $126 4.712388980384689674 $111 $127 forward @7 unknown #
point $-1 -1 $-1 1 4.600000001490116119 -7.700000114738939416 #
vertex $-1 1428 $-1 $101 0 $128 #
intcurve-curve $-1 -1 $-1 forward { int_int_cur 22210 full nubs 3 periodic 17 
	0 3 0.1169599145103484839 2 0.2339198290206969677 2 0.3501251052988978429 2 0.4663303815770987182 2 
	0.5825356578552995934 2 0.6987409341335004687 2 0.8157008486438490635 2 0.9326607631541975474 2 1.049620677664546031 2 
	1.166580592174894626 2 1.282785868453095501 2 1.398991144731296377 2 1.515196421009497252 2 1.631401697287698127 2 
	1.7483616117980465 2 1.865321526308395095 3 
	0 4.200000010430809283 -8.200000114738944745 
	-0.03898663817011616128 4.200000010430809283 -8.200000114738944745 
	-0.0795158090602950951 4.193699564352034059 -8.208002004124226758 
	-0.1529374218780213679 4.173213122697667643 -8.238856744662534481 
	-0.1859630493907982185 4.159491479556512772 -8.26169909048000406 
	-0.2381321909563133277 4.135049125093702926 -8.313868232045519946 
	-0.2610921060414012618 4.122499240235390161 -8.346940379699596235 
	-0.2920503835623749489 4.104892627268460714 -8.42060898675334002 
	-0.3000000119209271787 4.100000001490114343 -8.461265034567137633 
	-0.3000000119209271787 4.100000001490114343 -8.538735218752606215 
	-0.2920503835623749489 4.104892627268460714 -8.579391266566403829 
	-0.2610921060414012618 4.122499240235390161 -8.653059873620147613 
	-0.2381321909563134109 4.135049125093702926 -8.686132021274223902 
	-0.185963049390798274 4.159491479556512772 -8.738301162839739789 
	-0.1529374218780213956 4.173213122697667643 -8.761143508657209367 
	-0.0795158090602950951 4.193699564352034059 -8.79199824919551709 
	-0.03898663817011616128 4.200000010430809283 -8.800000138580799103 
	0.03898663817011614741 4.200000010430809283 -8.800000138580799103 
	0.07951580906029506735 4.193699564352034059 -8.79199824919551709 
	0.1529374218780213124 4.173213122697667643 -8.761143508657209367 
	0.185963049390798163 4.159491479556512772 -8.738301162839739789 
	0.2381321909563133277 4.135049125093702926 -8.686132021274223902 
	0.2610921060414012618 4.122499240235390161 -8.653059873620147613 
	0.2920503835623749489 4.104892627268460714 -8.579391266566403829 
	0.3000000119209271787 4.100000001490114343 -8.538735218752606215 
	0.3000000119209271787 4.100000001490114343 -8.461265034567137633 
	0.2920503835623749489 4.104892627268460714 -8.42060898675334002 
	0.2610921060414012618 4.122499240235390161 -8.346940379699596235 
	0.2381321909563134109 4.135049125093702926 -8.313868232045519946 
	0.1859630493907983018 4.159491479556512772 -8.26169909048000406 
	0.1529374218780210071 4.173213122697667643 -8.238856744662534481 
	0.07951580906029492857 4.193699564352034059 -8.208002004124226758 
	0.03898663817011620986 4.200000010430809283 -8.200000114738944745 
	0 4.200000010430809283 -8.200000114738944745 
	0.0002306190546243467893 
	
	cone 0 0.8500000014901161194 -8.500000126659871924 0 1 0 0.3000000119209271787 0 0 1 I I 0 1 0.3000000119209271787 forward I I I I 
	cone 0 4.600000001490116119 -8.500000126659871924 1 0 0 0 0 -0.5000000000000017764 1 I I 0 -1 0.5000000000000017764 forward I I I I 
	nullbs 
	nullbs 
	I I 
	0 
	0 
	0 
	
	0 } I I #
point $-1 -1 $-1 -1 4.600000001490116119 -7.700000114738939416 #
ATTRIB_CUSTOM-attrib $-1 -1 $-1 $-1 $106 @22 generic_tag_attrib_def 3 3 -1 @23 generic_tag_attrib_def  1 1 @1 8 0 1 350 0 #
face $129 721 $-1 $130 $131 $6 $-1 $132 forward single #
loop $-1 -1 $-1 $133 $134 $106 #
plane-surface $-1 -1 $-1 0 2.100000001490116119 -9.050000138580799103 0 -1 0 0 0 -1 forward_v I I I I #
loop $-1 -1 $-1 $-1 $135 $94 #
coedge $-1 -1 $-1 $122 $122 $136 $137 forward $109 0 $-1 #
coedge $-1 -1 $-1 $111 $111 $110 $124 forward $107 0 $-1 #
edge $-1 753 $-1 $126 1.570796326794896558 $125 4.712388980384689674 $123 $138 forward @7 unknown #
vertex $-1 1421 $-1 $112 0 $139 #
vertex $-1 1431 $-1 $112 1 $140 #
ellipse-curve $-1 -1 $-1 0 4.600000001490116119 -8.500000126659871924 -0.7071067811865499042 -0.7071067811865452413 0 -0.8000000119209272897 0.8000000119209325078 0 0.7071067811865497932 I I #
point $-1 -1 $-1 3.469446951953614189e-17 4.200000010430810171 -8.200000114738944745 #
ATTRIB_CUSTOM-attrib $-1 -1 $-1 $-1 $118 @22 generic_tag_attrib_def 3 3 -1 @23 generic_tag_attrib_def  1 1 @1 7 0 1 350 0 #
face $141 722 $-1 $142 $143 $6 $-1 $144 forward single #
loop $-1 -1 $-1 $145 $146 $118 #
cone-surface $-1 -1 $-1 0 1.850000001490116119 -8.500000126659871924 0 -1 0 0 0 -0.5500000119209271787 1 I I 0 1 0.5500000119209271787 forward I I I I #
loop $-1 -1 $-1 $-1 $147 $106 #
coedge $-1 -1 $-1 $134 $134 $135 $148 forward $119 0 $-1 #
coedge $-1 -1 $-1 $135 $135 $134 $148 reversed $121 0 $-1 #
coedge $-1 -1 $-1 $136 $136 $122 $137 reversed $149 0 $-1 #
edge $-1 1410 $-1 $150 -1.570796326794896558 $150 4.712388980384689674 $122 $151 forward @7 unknown #
ellipse-curve $-1 -1 $-1 0 4.600000001490116119 -8.500000126659871924 0.7071067811865499042 -0.7071067811865452413 0 0.8000000119209272897 0.8000000119209325078 0 0.7071067811865497932 I I #
point $-1 -1 $-1 0 4.600000001490116119 -9.300000138580799103 #
point $-1 -1 $-1 -0 4.600000001490116119 -7.700000114738944745 #
ATTRIB_CUSTOM-attrib $-1 -1 $-1 $-1 $130 @22 generic_tag_attrib_def 3 3 -1 @23 generic_tag_attrib_def  1 1 @1 6 0 1 350 0 #
face $152 723 $-1 $153 $154 $6 $-1 $155 forward single #
loop $-1 -1 $-1 $156 $157 $130 #
plane-surface $-1 -1 $-1 0 1.600000001490116341 -9.300000138580799103 -0 1 -0 -0 0 1 forward_v I I I I #
loop $-1 -1 $-1 $-1 $158 $118 #
coedge $-1 -1 $-1 $146 $146 $147 $159 forward $131 0 $-1 #
coedge $-1 -1 $-1 $147 $147 $146 $159 reversed $133 0 $-1 #
edge $-1 737 $-1 $160 -1.570796326794896558 $160 4.712388980384689674 $134 $161 forward @7 unknown #
loop $-1 -1 $-1 $-1 $136 $153 #
vertex $-1 1432 $-1 $137 1 $162 #
ellipse-curve $-1 -1 $-1 0 0.8500000014901161194 -8.500000126659871924 0 -1 0 0.3000000119209271787 0 0 1 I I #
ATTRIB_CUSTOM-attrib $-1 -1 $-1 $-1 $142 @22 generic_tag_attrib_def 3 3 -1 @23 generic_tag_attrib_def  1 1 @1 5 0 1 350 0 #
face $163 725 $-1 $-1 $164 $6 $-1 $165 forward single #
loop $-1 -1 $-1 $166 $167 $142 #
cone-surface $-1 -1 $-1 0 1.225000001490116341 -8.500000126659871924 0 -1 0 0 0 -0.8000000119209271787 1 I I 0 1 0.8000000119209271787 forward I I I I #
loop $-1 -1 $-1 $-1 $168 $130 #
coedge $-1 -1 $-1 $157 $157 $158 $169 forward $143 0 $-1 #
coedge $-1 -1 $-1 $158 $158 $157 $169 reversed $145 0 $-1 #
edge $-1 738 $-1 $170 -1.570796326794896558 $170 4.712388980384689674 $146 $171 forward @7 unknown #
vertex $-1 1433 $-1 $148 0 $172 #
ellipse-curve $-1 -1 $-1 0 2.100000001490116119 -8.500000126659871924 0 -1 0 0.8000000119209271787 0 0 1 I I #
point $-1 -1 $-1 0 0.8500000014901161194 -8.800000138580799103 #
ATTRIB_CUSTOM-attrib $-1 -1 $-1 $-1 $153 @22 generic_tag_attrib_def 3 3 -1 @23 generic_tag_attrib_def  1 1 @1 4 0 1 350 0 #
loop $-1 -1 $-1 $149 $173 $153 #
plane-surface $-1 -1 $-1 0 0.8500000014901163414 -8.800000138580799103 0 -1 0 0 0 -1 forward_v I I I I #
loop $-1 -1 $-1 $-1 $174 $142 #
coedge $-1 -1 $-1 $167 $167 $168 $175 forward $154 0 $-1 #
coedge $-1 -1 $-1 $168 $168 $167 $175 reversed $156 0 $-1 #
edge $-1 739 $-1 $176 -1.570796326794896558 $176 4.712388980384689674 $157 $177 forward @7 unknown #
vertex $-1 1434 $-1 $159 0 $178 #
ellipse-curve $-1 -1 $-1 0 2.100000001490116119 -8.500000126659871924 0 -1 0 0.5500000119209271787 0 0 1 I I #
point $-1 -1 $-1 0 2.100000001490116119 -9.300000138580799103 #
coedge $-1 -1 $-1 $173 $173 $174 $179 forward $164 0 $-1 #
coedge $-1 -1 $-1 $174 $174 $173 $179 reversed $166 0 $-1 #
edge $-1 740 $-1 $180 -1.570796326794896558 $180 4.712388980384689674 $167 $181 forward @7 unknown #
vertex $-1 1435 $-1 $169 0 $182 #
ellipse-curve $-1 -1 $-1 0 1.600000001490116341 -8.500000126659871924 0 -1 0 0.5500000119209271787 0 0 1 I I #
point $-1 -1 $-1 0 2.100000001490116119 -9.050000138580799103 #
edge $-1 742 $-1 $183 -1.570796326794896558 $183 4.712388980384689674 $173 $184 forward @7 unknown #
vertex $-1 1436 $-1 $175 0 $185 #
ellipse-curve $-1 -1 $-1 0 1.600000001490116341 -8.500000126659871924 0 -1 0 0.8000000119209271787 0 0 1 I I #
point $-1 -1 $-1 0 1.600000001490116341 -9.050000138580799103 #
vertex $-1 1437 $-1 $179 0 $186 #
ellipse-curve $-1 -1 $-1 0 0.8500000014901161194 -8.500000126659871924 0 -1 0 0.8000000119209271787 0 0 1 I I #
point $-1 -1 $-1 0 1.600000001490116341 -9.300000138580799103 #
point $-1 -1 $-1 0 0.8500000014901163414 -9.300000138580799103 #
End-of-ASM-data 