22700 0 2 4           
16 Autodesk Neutron 20 ASM 227.1.1.65535 NT 24 Wed Aug 25 11:00:22 2021 
10 9.999999999999999547e-07 1.000000000000000036e-10 
asmheader $-1 -1 @13 227.1.1.65535 #
body $2 31 $-1 $3 $-1 $4 #
ATTRIB_CUSTOM-attrib $-1 -1 $5 $-1 $1 @20 Timestamp_attrib_def 1 1469569158002 #
lump $-1 -1 $-1 $-1 $6 $1 #
transform $-1 -1 1 0 0 0 1 0 0 0 1 0 0 0 1 no_rotate no_reflect no_shear #
ATTRIB_CUSTOM-attrib $-1 -1 $-1 $2 $1 @22 generic_tag_attrib_def 3 3 -1 @23 generic_tag_attrib_def  1 3 @3 422 1 0 0 #
shell $-1 -1 $-1 $-1 $-1 $7 $-1 $3 #
face $8 1 $-1 $9 $10 $6 $-1 $11 reversed single #
ATTRIB_CUSTOM-attrib $-1 -1 $-1 $-1 $7 @22 generic_tag_attrib_def 3 3 -1 @23 generic_tag_attrib_def  1 1 @1 3 0 2 412 422 0 #
face $12 2 $-1 $13 $14 $6 $-1 $15 forward single #
loop $-1 -1 $-1 $16 $17 $7 #
cone-surface $-1 -1 $-1 -2 7 8.500000126659871924 -0 1 -0 0.6000000000000000888 0 -0 1 I I -0 1 0.6000000000000000888 reversed I I I I #
ATTRIB_CUSTOM-attrib $-1 -1 $-1 $-1 $9 @22 generic_tag_attrib_def 3 3 -1 @23 generic_tag_attrib_def  1 1 @1 2 0 2 412 422 0 #
face $18 3 $-1 $19 $20 $6 $-1 $21 forward single #
loop $-1 -1 $-1 $22 $23 $9 #
plane-surface $-1 -1 $-1 -2 5.5 8.500000126659871924 0 1 -0 1 0 -0 reverse_v I I I I #
loop $-1 -1 $-1 $-1 $24 $7 #
coedge $-1 -1 $-1 $17 $17 $25 $26 reversed $10 0 $-1 #
ATTRIB_CUSTOM-attrib $-1 -1 $-1 $-1 $13 @22 generic_tag_attrib_def 3 3 -1 @23 generic_tag_attrib_def  1 1 @1 4 0 2 410 422 0 #
face $27 4 $-1 $28 $29 $6 $-1 $30 forward single #
loop $-1 -1 $-1 $31 $32 $13 #
cone-surface $-1 -1 $-1 -2 7 8.500000126659871924 -0 1 -0 0.25 0 -0 1 I I -0 -1 0.25 reversed I I I I #
loop $-1 -1 $-1 $-1 $25 $9 #
coedge $-1 -1 $-1 $23 $23 $32 $33 forward $14 0 $-1 #
coedge $34 -1 $-1 $24 $24 $35 $36 forward $16 0 $-1 #
coedge $-1 -1 $-1 $25 $25 $17 $26 forward $22 0 $-1 #
edge $-1 15 $-1 $37 -3.141592653589793116 $37 3.141592653589793116 $17 $38 forward @7 unknown #
ATTRIB_CUSTOM-attrib $-1 -1 $-1 $-1 $19 @22 generic_tag_attrib_def 3 3 -1 @23 generic_tag_attrib_def  1 1 @1 3 0 2 410 422 0 #
face $39 5 $-1 $40 $41 $6 $-1 $42 forward single #
loop $-1 -1 $-1 $43 $44 $19 #
cone-surface $-1 -1 $-1 -2 7 8.500000126659871924 -0 1 -0 0.8000000000000000444 0 -0 1 I I -0 1 0.8000000000000000444 reversed I I I I #
loop $-1 -1 $-1 $-1 $45 $13 #
coedge $-1 -1 $-1 $32 $32 $23 $33 reversed $20 0 $-1 #
edge $-1 17 $-1 $46 -3.141592653589793116 $46 3.141592653589793116 $32 $47 forward @7 unknown #
ATTRIB_CUSTOM-attrib $-1 -1 $-1 $-1 $24 @17 sketch_attrib_def 1 1 3 @13 119 0 0 0 1 1 #
coedge $-1 -1 $-1 $35 $35 $24 $36 reversed $41 0 $-1 #
edge $-1 16 $-1 $48 -3.141592653589793116 $48 3.141592653589793116 $35 $49 forward @7 unknown #
vertex $-1 33 $-1 $26 0 $50 #
ellipse-curve $-1 -1 $-1 -2 5.5 8.500000126659871924 -0 1 -0 0.6000000000000000888 0 -0 1 I I #
ATTRIB_CUSTOM-attrib $-1 -1 $-1 $-1 $28 @22 generic_tag_attrib_def 3 3 -1 @23 generic_tag_attrib_def  1 1 @1 1 0 2 410 422 0 #
face $51 6 $-1 $52 $53 $6 $-1 $54 forward single #
loop $-1 -1 $-1 $55 $35 $28 #
plane-surface $-1 -1 $-1 -2 7 8.500000126659871924 0 1 -0 1 0 -0 reverse_v I I I I #
loop $-1 -1 $-1 $-1 $56 $19 #
coedge $-1 -1 $-1 $57 $57 $58 $59 forward $29 0 $-1 #
coedge $-1 -1 $-1 $45 $45 $60 $61 forward $31 0 $-1 #
vertex $-1 35 $-1 $33 0 $62 #
ellipse-curve $-1 -1 $-1 -2 5.5 8.500000126659871924 -0 -1 0 0.25 0 -0 1 I I #
vertex $-1 34 $-1 $36 0 $63 #
ellipse-curve $-1 -1 $-1 -2 7 8.500000126659871924 -0 1 -0 0.6000000000000000888 0 -0 1 I I #
point $-1 -1 $-1 -2.600000000000000089 5.5 8.500000126659871924 #
ATTRIB_CUSTOM-attrib $-1 -1 $-1 $-1 $40 @22 generic_tag_attrib_def 3 3 -1 @23 generic_tag_attrib_def  1 1 @1 7 0 2 371 422 0 #
face $64 7 $-1 $65 $66 $6 $-1 $67 forward single #
loop $-1 -1 $-1 $68 $69 $40 #
cone-surface $-1 -1 $-1 -1 4.600000001490116119 8.500000126659871924 1 -0 -0 0 0 0.8000000119209325078 1 I I -0 1 0.8000000119209325078 reversed I I I I #
loop $-1 -1 $-1 $-1 $70 $28 #
coedge $71 -1 $-1 $56 $56 $70 $72 forward $43 0 $-1 #
coedge $-1 -1 $-1 $44 $44 $73 $74 forward $29 0 $-1 #
coedge $-1 -1 $-1 $73 $73 $44 $59 reversed $75 0 $-1 #
edge $-1 19 $-1 $76 -1.570796326794896558 $77 1.570796326794896558 $58 $78 forward @7 unknown #
coedge $-1 -1 $-1 $60 $60 $45 $61 reversed $79 0 $-1 #
edge $-1 18 $-1 $80 0 $80 1.517789385852659212 $60 $81 forward @7 unknown #
point $-1 -1 $-1 -2.25 5.5 8.500000126659871924 #
point $-1 -1 $-1 -2.600000000000000089 7 8.500000126659871924 #
ATTRIB_CUSTOM-attrib $-1 -1 $-1 $-1 $52 @22 generic_tag_attrib_def 3 3 -1 @23 generic_tag_attrib_def  1 1 @1 1 0 2 379 422 0 #
face $82 0 $-1 $83 $84 $6 $-1 $85 reversed single #
loop $-1 -1 $-1 $86 $87 $52 #
cone-surface $-1 -1 $-1 -2.51499999999999968 4.600000001490116119 8.500000126659871924 -1 -0 0 0 0.2267000000000001236 -0 1 I I 0.7071067811865527908 -0.7071067811865423547 0.2267000000000001236 reversed I I I I #
loop $-1 -1 $-1 $75 $88 $40 #
coedge $-1 -1 $-1 $69 $69 $89 $90 reversed $53 0 $-1 #
coedge $91 -1 $-1 $70 $70 $56 $72 reversed $55 0 $-1 #
ATTRIB_CUSTOM-attrib $-1 -1 $-1 $-1 $56 @17 sketch_attrib_def 1 1 3 @13 123 0 0 0 1 1 #
edge $-1 21 $-1 $92 -3.141592653589793116 $92 3.141592653589793116 $70 $93 forward @7 unknown #
coedge $-1 -1 $-1 $58 $58 $57 $74 reversed $75 0 $-1 #
edge $-1 20 $-1 $77 1.570796326794896558 $76 4.712388980384689674 $73 $94 forward @7 unknown #
loop $-1 -1 $-1 $-1 $58 $40 #
vertex $-1 37 $-1 $59 0 $95 #
vertex $-1 38 $-1 $59 1 $96 #
ellipse-curve $-1 -1 $-1 -2 4.600000001490116119 8.500000126659871924 -0.7071067864549051007 0.7071067759181899337 -0 0.8000000000000000444 0.8000000119209323968 -0 0.7071067759181899337 I I #
loop $-1 -1 $-1 $-1 $60 $97 #
vertex $-1 36 $-1 $61 0 $98 #
intcurve-curve $-1 -1 $-1 forward { int_int_cur 22210 full nubs 3 periodic 17 
	0 3 0.09487860375254597578 2 0.1897572075050919516 2 0.2846022769841283773 2 0.379447346463164803 2 
	0.4742924159422012287 2 0.5691374854212376544 2 0.6640160891737836302 2 0.758894692926329606 2 0.8537732966788755817 2 
	0.9486519004314215575 2 1.043496969910457928 2 1.13834203938949452 2 1.23318710886853089 2 1.32803217834756726 2 
	1.422910782100113236 2 1.517789385852659212 3 
	-2 5.359934221718085645 8.250000126659871924 
	-1.968373798749151415 5.359934221718085645 8.250000126659871924 
	-1.934797405823651228 5.362115444691950117 8.256364208720437858 
	-1.873273079533430696 5.369823530599221684 8.281940190807059565 
	-1.845304814623873968 5.375221296873890608 8.301141921442724225 
	-1.801149599360110543 5.385225615689488876 8.345297136706488317 
	-1.781941837676991991 5.390505923384481868 8.373268550396836929 
	-1.7563613869585466 5.397941116382280136 8.434804405182177334 
	-1.75 5.400000013411048627 8.468385103500192912 
	-1.75 5.400000013411048627 8.531615149819550936 
	-1.7563613869585466 5.397941116382280136 8.565195848137566514 
	-1.781941837676991991 5.390505923384481868 8.626731702922906919 
	-1.801149599360110543 5.385225615689488876 8.654703116613255531 
	-1.845304814623873968 5.375221296873890608 8.698858331877019623 
	-1.873273079533430696 5.369823530599221684 8.718060062512684283 
	-1.934797405823651228 5.362115444691950117 8.74363604459930599 
	-1.968373798749151415 5.359934221718085645 8.750000126659871924 
	-2.031626201250848585 5.359934221718085645 8.750000126659871924 
	-2.065202594176348327 5.362115444691950117 8.74363604459930599 
	-2.12672692046656886 5.369823530599221684 8.718060062512684283 
	-2.154695185376126254 5.375221296873890608 8.698858331877019623 
	-2.198850400639889457 5.385225615689488876 8.654703116613257308 
	-2.218058162323007565 5.39050592338448098 8.626731702922906919 
	-2.243638613041452956 5.397941116382280136 8.565195848137566514 
	-2.25 5.400000013411048627 8.531615149819550936 
	-2.25 5.400000013411048627 8.468385103500192912 
	-2.243638613041452956 5.397941116382280136 8.434804405182177334 
	-2.218058162323007565 5.390505923384481868 8.373268550396836929 
	-2.198850400639889457 5.385225615689488876 8.345297136706488317 
	-2.154695185376126254 5.375221296873890608 8.301141921442724225 
	-2.12672692046656886 5.369823530599221684 8.281940190807059565 
	-2.065202594176348327 5.362115444691950117 8.256364208720437858 
	-2.031626201250848585 5.359934221718085645 8.250000126659871924 
	-2 5.359934221718085645 8.250000126659871924 
	0.0001767033798408191496 
	
	cone -2 7 8.500000126659871924 -0 1 -0 0.25 0 -0 1 I I 0 1 0.25 reversed I I I I 
	cone -1 4.600000001490116119 8.500000126659871924 1 -0 -0 0 0 0.8000000119209325078 1 I I -0 1 0.8000000119209325078 reversed I I I I 
	nullbs 
	nullbs 
	I I 
	0 
	0 
	0 
	
	0 } I I #
ATTRIB_CUSTOM-attrib $-1 -1 $99 $-1 $65 @22 generic_tag_attrib_def 3 3 -1 @23 generic_tag_attrib_def  1 1 @1 3 0 3 376 -377 422 0 #
face $100 8 $-1 $97 $101 $6 $-1 $102 reversed single #
loop $-1 -1 $-1 $103 $104 $65 #
cone-surface $-1 -1 $-1 -2.75 4.600000001490116119 8.500000126659871924 1 -0 -0 0 0.2116999999999999993 -0 1 I I -0 1 0.25 reversed I I I I #
loop $-1 -1 $-1 $-1 $105 $52 #
coedge $-1 -1 $-1 $87 $87 $106 $107 reversed $66 0 $-1 #
coedge $-1 -1 $-1 $88 $88 $108 $109 forward $68 0 $-1 #
coedge $-1 -1 $-1 $89 $89 $69 $90 forward $110 0 $-1 #
edge $-1 22 $-1 $111 -3.141592653589793116 $111 3.141592653589793116 $69 $112 forward @7 unknown #
ATTRIB_CUSTOM-attrib $-1 -1 $-1 $-1 $70 @17 sketch_attrib_def 1 1 3 @13 123 0 0 0 1 1 #
vertex $-1 39 $-1 $72 0 $113 #
ellipse-curve $-1 -1 $-1 -2 7 8.500000126659871924 -0 -1 0 0.8000000000000000444 0 -0 1 I I #
ellipse-curve $-1 -1 $-1 -2 4.600000001490116119 8.500000126659871924 0.7071067864549051007 0.7071067759181899337 -0 0.8000000000000000444 -0.8000000119209323968 0 0.7071067759181899337 I I #
point $-1 -1 $-1 -2 4.600000001490116119 9.300000126659872635 #
point $-1 -1 $-1 -2 4.600000001490116119 7.700000126659872102 #
face $114 9 $-1 $115 $79 $6 $-1 $54 forward single #
point $-1 -1 $-1 -1.999999999999999556 5.359934221718085645 8.250000126659871924 #
ATTRIB_CUSTOM-attrib $-1 -1 $-1 $82 $65 @22 FDM_feature_attrib_def 2 2 @16 thread_face_data 3 377 2097152 6 1901 -2.5 4.600000001490116119 8.500000126659871924 -3 4.600000001490116119 8.500000126659871924 0 0 0 0 #
ATTRIB_CUSTOM-attrib $-1 -1 $-1 $-1 $83 @22 generic_tag_attrib_def 3 3 -1 @23 generic_tag_attrib_def  1 1 @1 2 0 2 374 422 0 #
loop $-1 -1 $-1 $116 $117 $83 #
plane-surface $-1 -1 $-1 -2.5 4.600000001490116119 8.500000126659871924 -1 0 0 0 0 -1 reverse_v I I I I #
loop $-1 -1 $-1 $-1 $106 $65 #
coedge $-1 -1 $-1 $104 $104 $118 $119 forward $84 0 $-1 #
coedge $-1 -1 $-1 $105 $105 $120 $121 reversed $86 0 $-1 #
coedge $-1 -1 $-1 $106 $106 $87 $107 forward $103 0 $-1 #
edge $-1 24 $-1 $122 -3.141592653589793116 $122 3.141592653589793116 $106 $123 forward @7 unknown #
coedge $-1 -1 $-1 $108 $108 $88 $109 reversed $124 0 $-1 #
edge $-1 23 $-1 $125 -3.141592653589793116 $125 3.141592653589793116 $88 $126 forward @7 unknown #
loop $-1 -1 $-1 $-1 $89 $115 #
vertex $-1 40 $-1 $90 0 $127 #
ellipse-curve $-1 -1 $-1 -1 4.600000001490116119 8.500000126659871924 1 -0 -0 0 0 0.8000000119209325078 1 I I #
point $-1 -1 $-1 -2.799999999999999822 7 8.500000126659871924 #
ATTRIB_CUSTOM-attrib $-1 -1 $-1 $-1 $97 @22 generic_tag_attrib_def 3 3 -1 @23 generic_tag_attrib_def  1 1 @1 7 0 2 371 422 0 #
face $128 10 $-1 $129 $130 $6 $-1 $131 forward single #
loop $-1 -1 $-1 $-1 $120 $83 #
coedge $-1 -1 $-1 $117 $117 $132 $133 forward $101 0 $-1 #
coedge $-1 -1 $-1 $118 $118 $104 $119 reversed $134 0 $-1 #
edge $-1 26 $-1 $135 -3.141592653589793116 $135 3.141592653589793116 $118 $136 forward @7 unknown #
coedge $-1 -1 $-1 $120 $120 $105 $121 forward $116 0 $-1 #
edge $-1 25 $-1 $137 -3.141592653589793116 $137 3.141592653589793116 $120 $138 forward @7 unknown #
vertex $-1 41 $-1 $107 0 $139 #
ellipse-curve $-1 -1 $-1 -2.529999999999999805 4.600000001490116119 8.500000126659871924 1 -0 -0 0 0.2116999999999999993 -0 1 I I #
loop $-1 -1 $-1 $-1 $108 $140 #
vertex $-1 32 $-1 $109 0 $141 #
ellipse-curve $-1 -1 $-1 -3 4.600000001490116119 8.500000126659871924 1 -0 -0 0 0 0.8000000119209325078 1 I I #
point $-1 -1 $-1 -1 4.600000001490116119 7.700000114738939416 #
ATTRIB_CUSTOM-attrib $-1 -1 $-1 $-1 $115 @22 generic_tag_attrib_def 3 3 -1 @23 generic_tag_attrib_def  1 1 @1 1 0 2 371 422 0 #
face $142 11 $-1 $143 $144 $6 $-1 $145 forward single #
loop $-1 -1 $-1 $110 $146 $115 #
plane-surface $-1 -1 $-1 -1 4.600000001490116119 8.500000126659871924 1 0 -0 0 0 1 reverse_v I I I I #
coedge $-1 -1 $-1 $132 $132 $117 $133 reversed $144 0 $-1 #
edge $-1 27 $-1 $147 0 $147 6.283185307179586232 $132 $148 forward @7 unknown #
loop $-1 -1 $-1 $124 $118 $140 #
vertex $-1 43 $-1 $119 0 $149 #
ellipse-curve $-1 -1 $-1 -3 4.600000001490116119 8.500000126659871924 -1 -0 -0 0 0.2116999999999999993 -0 1 I I #
vertex $-1 42 $-1 $121 0 $150 #
ellipse-curve $-1 -1 $-1 -2.5 4.600000001490116119 8.500000126659871924 -1 -0 -0 0 0.241700000000000248 -0 1 I I #
point $-1 -1 $-1 -2.529999999999999805 4.388300001490115676 8.500000126659871924 #
face $151 13 $-1 $152 $134 $6 $-1 $153 forward single #
point $-1 -1 $-1 -3 4.600000001490116119 7.700000114738939416 #
ATTRIB_CUSTOM-attrib $-1 -1 $-1 $-1 $129 @22 generic_tag_attrib_def 3 3 -1 @23 generic_tag_attrib_def  1 1 @1 8 0 2 369 422 0 #
face $154 12 $-1 $140 $155 $6 $-1 $156 forward single #
loop $-1 -1 $-1 $157 $132 $129 #
cone-surface $-1 -1 $-1 -0.5 4.600000001490116119 8.500000126659871924 1 -0 -0 0 0 0.5000000000000017764 1 I I -0 -1 0.5000000000000017764 reversed I I I I #
coedge $-1 -1 $-1 $146 $146 $158 $159 forward $130 0 $-1 #
vertex $-1 44 $-1 $133 0 $160 #
ellipse-curve $-1 -1 $-1 -2.5 4.600000001490116119 8.500000126659871924 1 -0 -0 0 0 0.5000000000000017764 1 I I #
point $-1 -1 $-1 -3 4.388300001490115676 8.500000126659871924 #
point $-1 -1 $-1 -2.5 4.358300001490116315 8.500000126659871924 #
ATTRIB_CUSTOM-attrib $-1 -1 $-1 $-1 $140 @22 generic_tag_attrib_def 3 3 -1 @23 generic_tag_attrib_def  3 1 @1 2 0 2 369 422 0 1 @1 2 0 2 371 422 0 1 @1 1 0 2 374 422 0 #
face $161 14 $-1 $-1 $162 $6 $-1 $163 reversed single #
plane-surface $-1 -1 $-1 -3 4.600000001490116119 8.500000126659871924 -1 0 0 0 0 -1 reverse_v I I I I #
ATTRIB_CUSTOM-attrib $-1 -1 $-1 $-1 $143 @22 generic_tag_attrib_def 3 3 -1 @23 generic_tag_attrib_def  1 1 @1 7 0 2 369 422 0 #
loop $-1 -1 $-1 $164 $158 $143 #
cone-surface $-1 -1 $-1 -0.5 4.600000001490116119 8.500000126659871924 1 -0 -0 0 0 -0.6500000000000003553 1 I I -0 1 0.6500000000000003553 reversed I I I I #
loop $-1 -1 $-1 $-1 $165 $129 #
coedge $-1 -1 $-1 $158 $158 $146 $159 reversed $155 0 $-1 #
edge $-1 28 $-1 $166 -3.141592653589793116 $166 3.141592653589793116 $158 $167 forward @7 unknown #
point $-1 -1 $-1 -2.5 4.600000001490116119 9.0000001266598737 #
ATTRIB_CUSTOM-attrib $-1 -1 $-1 $-1 $152 @22 generic_tag_attrib_def 3 3 -1 @23 generic_tag_attrib_def  1 1 @1 1 0 2 369 422 0 #
loop $-1 -1 $-1 $168 $169 $152 #
plane-surface $-1 -1 $-1 -0.5 4.600000001490116119 8.500000126659871924 -1 0 0 0 0 -1 reverse_v I I I I #
loop $-1 -1 $-1 $-1 $170 $143 #
coedge $-1 -1 $-1 $165 $165 $169 $171 forward $157 0 $-1 #
vertex $-1 45 $-1 $159 0 $172 #
ellipse-curve $-1 -1 $-1 -1 4.600000001490116119 8.500000126659871924 -1 -0 0 0 0 -0.6500000000000003553 1 I I #
loop $-1 -1 $-1 $-1 $173 $152 #
coedge $-1 -1 $-1 $169 $169 $165 $171 reversed $162 0 $-1 #
coedge $-1 -1 $-1 $170 $170 $173 $174 forward $164 0 $-1 #
edge $-1 29 $-1 $175 0 $175 6.283185307179586232 $165 $176 forward @7 unknown #
point $-1 -1 $-1 -1 4.600000001490116119 9.150000126659872279 #
coedge $-1 -1 $-1 $173 $173 $170 $174 reversed $168 0 $-1 #
edge $-1 30 $-1 $177 -3.141592653589793116 $177 3.141592653589793116 $170 $178 forward @7 unknown #
vertex $-1 46 $-1 $171 0 $179 #
ellipse-curve $-1 -1 $-1 -0.5 4.600000001490116119 8.500000126659871924 1 -0 -0 0 0 0.5000000000000017764 1 I I #
vertex $-1 47 $-1 $174 0 $180 #
ellipse-curve $-1 -1 $-1 -0.5 4.600000001490116119 8.500000126659871924 -1 -0 0 0 0 -0.6500000000000003553 1 I I #
point $-1 -1 $-1 -0.5 4.600000001490116119 9.0000001266598737 #
point $-1 -1 $-1 -0.5 4.600000001490116119 9.150000126659872279 #
End-of-ASM-data 