22700 0 2 4           
16 Autodesk Neutron 20 ASM 227.1.1.65535 NT 24 Thu Aug 26 00:43:39 2021 
10 9.999999999999999547e-07 1.000000000000000036e-10 
asmheader $-1 -1 @13 227.1.1.65535 #
body $2 120 $-1 $3 $-1 $4 #
ATTRIB_CUSTOM-attrib $-1 -1 $5 $-1 $1 @20 Timestamp_attrib_def 1 1455851548001 #
lump $-1 -1 $-1 $-1 $6 $1 #
transform $-1 -1 1 0 0 0 1 0 0 0 1 0 0 0 1 no_rotate no_reflect no_shear #
ATTRIB_CUSTOM-attrib $-1 -1 $-1 $2 $1 @22 generic_tag_attrib_def 3 3 -1 @23 generic_tag_attrib_def  1 3 @3 591 1 0 0 #
shell $-1 -1 $-1 $-1 $-1 $7 $-1 $3 #
face $8 0 $-1 $9 $10 $6 $-1 $11 forward single #
ATTRIB_CUSTOM-attrib $12 -1 $-1 $-1 $7 @22 generic_tag_attrib_def 3 3 -1 @23 generic_tag_attrib_def  1 1 @1 1 0 4 376 377 380 591 0 #
face $13 1 $-1 $14 $15 $6 $-1 $16 forward single #
loop $-1 -1 $-1 $17 $18 $7 #
torus-surface $-1 -1 $-1 4.950000000000000178 1.650000000000000577 -2.459957692256354633 0 0 1 0.3972407240241775384 -0.09000000000000001055 0 1 0 forward_v F 0.2236109772856700317 F 1.540132899874400829 I I #
ATTRIB_CUSTOM-attrib $-1 -1 $-1 $-1 $8 @22 generic_tag_attrib_def 3 3 -1 @23 generic_tag_attrib_def  1 0 @0  0 3 379 382 386 0 #
ATTRIB_CUSTOM-attrib $19 -1 $-1 $-1 $9 @22 generic_tag_attrib_def 3 3 -1 @23 generic_tag_attrib_def  1 1 @1 4 0 4 373 377 380 591 0 #
face $20 2 $-1 $21 $22 $6 $-1 $23 forward single #
loop $-1 -1 $-1 $24 $25 $9 #
cone-surface $-1 -1 $-1 4.950000000000000178 1.650000000000000577 -2.437499999999998224 0 0 -1 0 -0.4875000000000000999 0 1 I I -0.7071067811865475727 0.7071067811865475727 0.4875000000000000999 forward I I I I #
loop $-1 -1 $-1 $-1 $26 $7 #
coedge $-1 -1 $-1 $18 $18 $27 $28 reversed $10 0 $-1 #
ATTRIB_CUSTOM-attrib $-1 -1 $-1 $-1 $13 @22 generic_tag_attrib_def 3 3 -1 @23 generic_tag_attrib_def  1 0 @0  0 3 379 382 386 0 #
ATTRIB_CUSTOM-attrib $29 -1 $-1 $-1 $14 @22 generic_tag_attrib_def 3 3 -1 @23 generic_tag_attrib_def  1 1 @1 3 0 4 350 377 380 591 0 #
face $30 3 $-1 $31 $32 $6 $-1 $33 forward single #
loop $-1 -1 $-1 $34 $35 $14 #
cone-surface $-1 -1 $-1 4.950000000000000178 1.650000000000000577 -2.049999999999998934 0 0 -1 0 0.4900000000000000466 0 1 I I 0 1 0.4900000000000000466 forward I I I I #
loop $-1 -1 $-1 $-1 $36 $9 #
coedge $-1 -1 $-1 $25 $25 $37 $38 forward $15 0 $-1 #
coedge $-1 -1 $-1 $26 $26 $36 $39 reversed $17 0 $-1 #
coedge $-1 -1 $-1 $27 $27 $18 $28 forward $40 0 $-1 #
edge $-1 36 $-1 $41 0 $41 6.283185307179586232 $27 $42 forward @7 unknown #
ATTRIB_CUSTOM-attrib $-1 -1 $-1 $-1 $20 @22 generic_tag_attrib_def 3 3 -1 @23 generic_tag_attrib_def  1 0 @0  0 3 379 382 386 0 #
ATTRIB_CUSTOM-attrib $43 -1 $-1 $-1 $21 @22 generic_tag_attrib_def 3 3 -1 @23 generic_tag_attrib_def  1 1 @1 3 0 4 373 377 380 591 0 #
face $44 4 $-1 $45 $46 $6 $-1 $47 forward single #
loop $-1 -1 $-1 $-1 $48 $21 #
cone-surface $-1 -1 $-1 4.950000000000000178 1.650000000000000577 -1.992499999999999938 0 0 1 0.3074999999999996625 0 0 1 I I -0.7071067811865475727 -0.7071067811865475727 0.3074999999999996625 forward I I I I #
loop $-1 -1 $-1 $49 $50 $14 #
coedge $-1 -1 $-1 $35 $35 $51 $52 reversed $22 0 $-1 #
coedge $-1 -1 $-1 $36 $36 $26 $39 forward $24 0 $-1 #
coedge $-1 -1 $-1 $37 $37 $25 $38 reversed $49 0 $-1 #
edge $-1 38 $-1 $53 -3.141592653589793116 $53 3.141592653589793116 $37 $54 forward @7 unknown #
edge $-1 37 $-1 $55 -3.141592653589793116 $55 3.141592653589793116 $36 $56 forward @7 unknown #
loop $-1 -1 $-1 $57 $27 $58 #
vertex $-1 121 $-1 $28 0 $59 #
ellipse-curve $-1 -1 $-1 4.950000000000000178 1.650000000000000577 -2.36999999999999833 0 0 -1 0.4000000000000000222 0 0 1 I I #
ATTRIB_CUSTOM-attrib $-1 -1 $-1 $-1 $30 @22 generic_tag_attrib_def 3 3 -1 @23 generic_tag_attrib_def  1 0 @0  0 3 379 382 386 0 #
ATTRIB_CUSTOM-attrib $60 -1 $-1 $-1 $31 @22 generic_tag_attrib_def 3 3 -1 @23 generic_tag_attrib_def  1 1 @1 4 0 5 354 372 377 380 591 0 #
face $61 5 $-1 $62 $63 $6 $-1 $64 reversed single #
loop $-1 -1 $-1 $-1 $65 $31 #
cone-surface $-1 -1 $-1 4.950000000000000178 1.650000000000000577 -1.989999999999999547 0 0 -1 0.3049999999999997158 0 0 1 I I 0 -1 0.3049999999999997158 forward I I I I #
coedge $-1 -1 $-1 $66 $67 $68 $69 forward $32 0 $-1 #
loop $-1 -1 $-1 $-1 $37 $14 #
coedge $-1 -1 $-1 $70 $71 $72 $73 forward $34 0 $-1 #
coedge $-1 -1 $-1 $51 $51 $35 $52 forward $74 0 $-1 #
edge $-1 39 $-1 $75 -3.141592653589793116 $75 3.141592653589793116 $35 $76 forward @7 unknown #
vertex $-1 123 $-1 $38 0 $77 #
ellipse-curve $-1 -1 $-1 4.950000000000000178 1.650000000000000577 -2.434999999999998721 0 0 -1 -0 -0.4900000000000000466 -0 1 I I #
vertex $-1 122 $-1 $39 0 $78 #
ellipse-curve $-1 -1 $-1 4.950000000000000178 1.650000000000000577 -2.439999999999998614 0 0 1 0 -0.4850000000000001532 0 1 I I #
loop $-1 -1 $-1 $79 $80 $58 #
face $81 8 $-1 $82 $40 $6 $-1 $83 reversed single #
point $-1 -1 $-1 5.350000000000000533 1.650000000000000577 -2.369999999999997442 #
ATTRIB_CUSTOM-attrib $-1 -1 $-1 $-1 $44 @22 generic_tag_attrib_def 3 3 -1 @23 generic_tag_attrib_def  1 0 @0  0 4 356 379 382 386 0 #
ATTRIB_CUSTOM-attrib $84 -1 $-1 $-1 $45 @22 generic_tag_attrib_def 3 3 -1 @23 generic_tag_attrib_def  1 1 @1 6 0 5 358 372 377 380 591 0 #
face $85 6 $-1 $86 $87 $6 $-1 $88 forward single #
loop $-1 -1 $-1 $-1 $89 $45 #
plane-surface $-1 -1 $-1 4.661859409315522562 1.750000000000000666 -2.189999999999999503 0 1 0 -1 0 0 forward_v I I I I #
coedge $-1 -1 $-1 $90 $91 $67 $92 reversed $46 0 $-1 #
coedge $-1 -1 $-1 $93 $48 $94 $95 forward $32 0 $-1 #
coedge $-1 -1 $-1 $48 $93 $65 $92 forward $32 0 $-1 #
coedge $-1 -1 $-1 $96 $97 $48 $69 reversed $98 0 $-1 #
edge $-1 44 $-1 $99 0.3153494680659056359 $100 0.3191192083975928906 $68 $101 forward @7 unknown #
coedge $-1 -1 $-1 $102 $50 $103 $104 forward $34 0 $-1 #
coedge $-1 -1 $-1 $50 $102 $105 $106 forward $34 0 $-1 #
coedge $-1 -1 $-1 $107 $108 $50 $73 reversed $109 0 $-1 #
edge $-1 40 $-1 $110 0 $111 0.2263947214117494333 $50 $112 forward @7 unknown #
loop $-1 -1 $-1 $113 $51 $82 #
vertex $-1 124 $-1 $52 0 $114 #
ellipse-curve $-1 -1 $-1 4.950000000000000178 1.650000000000000577 -1.664999999999999369 0 0 1 -0 -0.4900000000000000466 -0 1 I I #
point $-1 -1 $-1 4.950000000000000178 2.140000000000000568 -2.434999999999998721 #
point $-1 -1 $-1 4.950000000000000178 2.135000000000000675 -2.439999999999998614 #
loop $-1 -1 $-1 $-1 $115 $58 #
coedge $-1 -1 $-1 $116 $117 $118 $119 forward $57 0 $-1 #
ATTRIB_CUSTOM-attrib $120 -1 $-1 $-1 $58 @22 generic_tag_attrib_def 3 3 -1 @23 generic_tag_attrib_def  1 1 @1 3 0 4 352 377 380 591 0 #
face $121 9 $-1 $122 $74 $6 $-1 $123 forward single #
cone-surface $-1 -1 $-1 4.950000000000000178 1.650000000000000577 -1.589999999999998304 0 0 1 0.4000000000000000222 0 0 1 I I 0 1 0.4000000000000000222 forward I I I I #
ATTRIB_CUSTOM-attrib $-1 -1 $-1 $-1 $61 @22 generic_tag_attrib_def 3 3 -1 @23 generic_tag_attrib_def  1 0 @0  0 3 379 382 386 0 #
ATTRIB_CUSTOM-attrib $124 -1 $-1 $-1 $62 @22 generic_tag_attrib_def 3 3 -1 @23 generic_tag_attrib_def  1 1 @1 2 0 4 373 377 380 591 0 #
face $125 7 $-1 $58 $126 $6 $-1 $127 forward single #
loop $-1 -1 $-1 $128 $129 $62 #
cone-surface $-1 -1 $-1 4.950000000000000178 1.650000000000000577 -1.662499999999999867 0 0 1 0.4024999999999999689 0 0 1 I I -0.7071067811865475727 -0.7071067811865475727 0.4024999999999999689 forward I I I I #
coedge $-1 -1 $-1 $130 $131 $93 $132 reversed $63 0 $-1 #
coedge $-1 -1 $-1 $133 $65 $131 $134 forward $46 0 $-1 #
coedge $-1 -1 $-1 $65 $135 $96 $136 forward $46 0 $-1 #
edge $-1 47 $-1 $137 -2.80754580731787895 $99 2.80754580731787895 $65 $138 forward @7 unknown #
coedge $-1 -1 $-1 $67 $66 $89 $132 forward $32 0 $-1 #
coedge $-1 -1 $-1 $139 $140 $66 $95 reversed $141 0 $-1 #
edge $-1 45 $-1 $100 -2.813138035659497049 $142 2.813138035659495717 $94 $143 forward @7 unknown #
coedge $-1 -1 $-1 $144 $68 $91 $136 reversed $98 0 $-1 #
coedge $-1 -1 $-1 $68 $145 $139 $146 reversed $98 0 $-1 #
loop $-1 -1 $-1 $-1 $68 $147 #
vertex $-1 129 $-1 $92 1 $148 #
vertex $-1 130 $-1 $146 0 $149 #
intcurve-curve $-1 -1 $-1 forward { exact_int_cur 22140 full nurbs 2 open 2 
	0.3153494680659056359 2 0.3191192083975928906 2 
	4.661859409315522562 1.550000000000000488 -1.99499999999999944 1.00555680557029703 
	4.659237190741419177 1.550000000000000488 -1.992522729151323668 1.002811616277154982 
	4.656571984977576406 1.550000000000000488 -1.989999999999999547 1 
	0 
	
	null_surface 
	null_surface 
	nullbs 
	nullbs 
	I I 
	0 
	0 
	0 
	
	0 F 1 F 0 UNEXTENDED UNEXTENDED } I I #
coedge $-1 -1 $-1 $71 $70 $150 $151 forward $34 0 $-1 #
coedge $-1 -1 $-1 $152 $153 $70 $104 reversed $154 0 $-1 #
edge $-1 41 $-1 $111 -0.03500000000000014211 $155 0.1449999999999995737 $70 $156 forward @7 unknown #
coedge $-1 -1 $-1 $157 $158 $71 $106 reversed $159 0 $-1 #
edge $-1 43 $-1 $160 -0.1449999999999995737 $110 0.03500000000000014211 $71 $161 forward @7 unknown #
coedge $-1 -1 $-1 $162 $72 $158 $163 forward $109 0 $-1 #
coedge $164 -1 $-1 $72 $162 $152 $165 forward $109 0 $-1 #
loop $-1 -1 $-1 $-1 $72 $166 #
vertex $-1 125 $-1 $106 1 $167 #
vertex $-1 126 $-1 $104 0 $168 #
intcurve-curve $-1 -1 $-1 forward { int_int_cur 22140 full nubs 3 open 9 
	0 3 0.02829960789379436931 2 0.05659921578758873861 2 0.08489828824673173457 2 0.1131973607058747167 2 
	0.1414964331650176987 2 0.1697955056241606808 2 0.1980951135179550571 2 0.2263947214117494333 3 
	4.46577381318231037 1.725000000000000533 -2.014999999999998792 
	4.46577381318231037 1.725000000000000533 -2.005566797368734555 
	4.465469673325182853 1.723111731266406599 -1.995515136051229321 
	4.464375814907125317 1.715453139089651691 -1.97704118106536364 
	4.463602404198895535 1.709683612329322422 -1.968617595151339161 
	4.462154313398169592 1.696382530679509948 -1.955316513501525799 
	4.461384875114857707 1.687958890520604882 -1.949546888035042835 
	4.46030013054066643 1.669484750039195164 -1.941888224063164303 
	4.459999999999999964 1.659433024153048386 -1.939999999999998836 
	4.459999999999999964 1.640566975846952769 -1.939999999999998836 
	4.46030013054066643 1.63051524996080599 -1.941888224063164303 
	4.461384875114857707 1.612041109479396273 -1.949546888035042835 
	4.462154313398169592 1.603617469320491207 -1.955316513501525799 
	4.463602404198895535 1.590316387670678733 -1.968617595151339161 
	4.464375814907125317 1.584546860910349464 -1.97704118106536364 
	4.465469673325182853 1.576888268733594556 -1.995515136051229321 
	4.46577381318231037 1.575000000000000622 -2.005566797368734555 
	4.46577381318231037 1.575000000000000622 -2.014999999999998792 
	0.0001172172630628992357 
	
	cone 4.449867227606477016 1.650000000000000577 -2.014999999999998792 -1 -0 -0 0 -0.07499999999999995559 0 1 I I -0 1 0.07499999999999995559 reversed I I I I 
	cone 4.950000000000000178 1.650000000000000577 -2.049999999999998934 0 0 -1 0 0.4900000000000000466 0 1 I I 0 1 0.4900000000000000466 forward I I I I 
	nullbs 
	nullbs 
	I I 
	0 
	0 
	0 
	
	0 } I I #
loop $-1 -1 $-1 $-1 $169 $82 #
point $-1 -1 $-1 4.950000000000000178 2.140000000000000568 -1.664999999999999369 #
coedge $-1 -1 $-1 $115 $115 $129 $170 reversed $79 0 $-1 #
coedge $-1 -1 $-1 $171 $80 $172 $173 forward $57 0 $-1 #
coedge $-1 -1 $-1 $80 $174 $175 $176 forward $57 0 $-1 #
coedge $-1 -1 $-1 $177 $178 $80 $119 reversed $179 0 $-1 #
edge $-1 73 $-1 $180 0.5000000000000017764 $181 0.6000000000000014211 $80 $182 forward @7 unknown #
ATTRIB_CUSTOM-attrib $-1 -1 $-1 $-1 $81 @22 generic_tag_attrib_def 3 3 -1 @23 generic_tag_attrib_def  1 0 @0  0 3 379 382 386 0 #
ATTRIB_CUSTOM-attrib $183 -1 $-1 $-1 $82 @22 generic_tag_attrib_def 3 3 -1 @23 generic_tag_attrib_def  1 1 @1 1 0 4 373 377 380 591 0 #
face $184 10 $-1 $166 $185 $6 $-1 $186 forward single #
cone-surface $-1 -1 $-1 4.950000000000000178 1.650000000000000577 -1.662499999999999867 0 0 1 0 -0.4875000000000000999 0 1 I I -0.7071067811865475727 0.7071067811865475727 0.4875000000000000999 forward I I I I #
ATTRIB_CUSTOM-attrib $-1 -1 $-1 $-1 $85 @22 generic_tag_attrib_def 3 3 -1 @23 generic_tag_attrib_def  1 0 @0  0 3 379 382 386 0 #
ATTRIB_CUSTOM-attrib $187 -1 $-1 $-1 $86 @22 generic_tag_attrib_def 3 3 -1 @23 generic_tag_attrib_def  1 1 @1 2 0 4 350 377 380 591 0 #
loop $-1 -1 $-1 $188 $189 $86 #
plane-surface $-1 -1 $-1 4.950000000000000178 1.650000000000000577 -1.659999999999999476 0 0 1 0 -1 0 forward_v I I I I #
loop $-1 -1 $-1 $-1 $190 $62 #
coedge $-1 -1 $-1 $129 $129 $115 $170 forward $87 0 $-1 #
coedge $-1 -1 $-1 $191 $89 $140 $192 reversed $63 0 $-1 #
coedge $-1 -1 $-1 $89 $193 $90 $134 reversed $63 0 $-1 #
edge $-1 46 $-1 $142 0 $137 0.003769740331687549545 $89 $194 forward @7 unknown #
coedge $-1 -1 $-1 $195 $90 $196 $197 reversed $46 0 $-1 #
edge $-1 48 $-1 $137 0.00499999999999900524 $198 0.1999999999999992895 $90 $199 forward @7 unknown #
coedge $-1 -1 $-1 $91 $200 $201 $202 reversed $46 0 $-1 #
edge $-1 66 $-1 $203 -0.1999999999999992895 $99 -0.00499999999999900524 $91 $204 forward @7 unknown #
vertex $-1 132 $-1 $134 0 $205 #
ellipse-curve $-1 -1 $-1 4.950000000000000178 1.650000000000000577 -1.99499999999999944 -0 -0 -1 0.3049999999999997158 0 0 1 I I #
coedge $-1 -1 $-1 $206 $94 $97 $146 forward $141 0 $-1 #
coedge $-1 -1 $-1 $94 $206 $130 $192 forward $141 0 $-1 #
loop $-1 -1 $-1 $-1 $94 $207 #
vertex $-1 131 $-1 $132 0 $208 #
ellipse-curve $-1 -1 $-1 4.950000000000000178 1.650000000000000577 -1.989999999999999547 0 0 1 0.3099999999999996092 0 0 1 I I #
coedge $209 -1 $-1 $145 $96 $210 $211 reversed $98 0 $-1 #
coedge $-1 -1 $-1 $97 $144 $212 $213 reversed $98 0 $-1 #
edge $-1 119 $-1 $100 0.09977884771205225434 $214 0.193649167310370629 $139 $215 forward @7 unknown #
face $216 33 $-1 $217 $98 $6 $-1 $218 reversed single #
point $-1 -1 $-1 4.661859409315522562 1.550000000000000488 -1.99499999999999944 #
point $-1 -1 $-1 4.656571984977576406 1.550000000000000711 -1.989999999999999547 #
coedge $-1 -1 $-1 $219 $220 $102 $151 reversed $221 0 $-1 #
edge $-1 42 $-1 $155 0 $160 0.2263947214117494333 $102 $222 forward @7 unknown #
coedge $-1 -1 $-1 $223 $103 $108 $165 reversed $154 0 $-1 #
coedge $224 -1 $-1 $103 $223 $219 $225 reversed $154 0 $-1 #
loop $-1 -1 $-1 $-1 $153 $226 #
vertex $-1 127 $-1 $104 1 $227 #
straight-curve $-1 -1 $-1 4.46577381318231037 1.575000000000000622 -2.049999999999998934 0 0 -1 I I #
coedge $228 -1 $-1 $229 $105 $220 $230 forward $159 0 $-1 #
coedge $-1 -1 $-1 $105 $229 $107 $163 reversed $159 0 $-1 #
loop $-1 -1 $-1 $-1 $157 $231 #
vertex $-1 128 $-1 $106 0 $232 #
straight-curve $-1 -1 $-1 4.46577381318231037 1.725000000000000533 -2.049999999999998934 0 0 1 I I #
coedge $-1 -1 $-1 $108 $107 $233 $234 reversed $109 0 $-1 #
edge $-1 94 $-1 $110 0 $235 0.03181317115166848453 $158 $236 forward @7 tangent #
ATTRIB_CUSTOM-attrib $-1 -1 $-1 $-1 $108 @17 sketch_attrib_def 1 1 3 @13 552 0 0 0 1 1 #
edge $-1 95 $-1 $237 -0.03181317115166759635 $111 -0 $152 $238 forward @7 tangent #
face $239 11 $-1 $240 $109 $6 $-1 $241 forward single #
point $-1 -1 $-1 4.46577381318231037 1.725000000000000533 -2.014999999999998792 #
point $-1 -1 $-1 4.46577381318231037 1.575000000000000622 -2.014999999999998792 #
coedge $-1 -1 $-1 $169 $169 $189 $242 forward $113 0 $-1 #
edge $-1 70 $-1 $243 -3.141592653589793116 $243 3.141592653589793116 $115 $244 forward @7 unknown #
coedge $-1 -1 $-1 $245 $116 $191 $246 forward $57 0 $-1 #
coedge $-1 -1 $-1 $247 $248 $116 $173 reversed $249 0 $-1 #
edge $-1 74 $-1 $181 2.198619962337415856 $250 2.888912398447714747 $116 $251 forward @7 unknown #
coedge $-1 -1 $-1 $117 $252 $253 $254 forward $57 0 $-1 #
coedge $-1 -1 $-1 $255 $256 $117 $176 reversed $257 0 $-1 #
edge $-1 91 $-1 $258 1.570671596927789349 $180 2.198619962337415856 $117 $259 forward @7 unknown #
coedge $-1 -1 $-1 $260 $118 $256 $261 forward $179 0 $-1 #
coedge $262 -1 $-1 $118 $260 $247 $263 reversed $179 0 $-1 #
loop $-1 -1 $-1 $-1 $178 $264 #
vertex $-1 156 $-1 $119 0 $265 #
vertex $-1 157 $-1 $119 1 $266 #
straight-curve $-1 -1 $-1 4.71504607931163644 1.97372311495036401 -1.589999999999998304 0 0 -1 I I #
ATTRIB_CUSTOM-attrib $-1 -1 $-1 $-1 $121 @22 generic_tag_attrib_def 3 3 -1 @23 generic_tag_attrib_def  1 0 @0  0 3 379 382 386 0 #
ATTRIB_CUSTOM-attrib $267 -1 $-1 $-1 $122 @22 generic_tag_attrib_def 3 3 -1 @23 generic_tag_attrib_def  1 1 @1 4 0 7 368 370 371 372 377 380 591 0 #
loop $-1 -1 $-1 $-1 $268 $122 #
sphere-surface $-1 -1 $-1 4.43949999999999978 1.650000000000000577 -2.014999999999998792 0.07520428502893085343 1 0 0 0 0 -1 reverse_v I I I I #
ATTRIB_CUSTOM-attrib $-1 -1 $-1 $-1 $125 @22 generic_tag_attrib_def 3 3 -1 @23 generic_tag_attrib_def  1 0 @0  0 3 379 382 386 0 #
loop $-1 -1 $-1 $-1 $269 $86 #
coedge $-1 -1 $-1 $189 $189 $169 $242 reversed $126 0 $-1 #
coedge $-1 -1 $-1 $190 $190 $269 $270 forward $128 0 $-1 #
coedge $-1 -1 $-1 $193 $130 $171 $246 reversed $63 0 $-1 #
edge $-1 67 $-1 $271 -0.2432280392785033385 $142 -0.1493577196801849638 $140 $272 forward @7 unknown #
coedge $273 -1 $-1 $131 $191 $248 $274 reversed $63 0 $-1 #
intcurve-curve $-1 -1 $-1 forward { exact_int_cur 22140 full nurbs 2 open 2 
	0 2 0.003769740331687549545 2 
	4.656571984977576406 1.750000000000000666 -1.989999999999999547 1 
	4.659237190741419177 1.750000000000000666 -1.992522729151324556 1.002811616277155204 
	4.661859409315522562 1.750000000000000666 -1.99499999999999944 1.005556805570297474 
	0 
	
	null_surface 
	null_surface 
	nullbs 
	nullbs 
	I I 
	0 
	0 
	0 
	
	0 F 1 F 0 UNEXTENDED UNEXTENDED } I I #
coedge $-1 -1 $-1 $275 $133 $260 $276 forward $46 0 $-1 #
coedge $-1 -1 $-1 $248 $247 $133 $197 forward $249 0 $-1 #
edge $-1 49 $-1 $277 2.198642649984669628 $198 2.80754580731787895 $133 $278 forward @7 unknown #
vertex $-1 133 $-1 $274 0 $279 #
straight-curve $-1 -1 $-1 4.661859409315522562 1.750000000000000666 -1.990000000000000435 0 0 -1 I I #
coedge $-1 -1 $-1 $135 $280 $281 $282 forward $46 0 $-1 #
coedge $-1 -1 $-1 $283 $210 $135 $202 forward $284 0 $-1 #
edge $-1 65 $-1 $203 -2.80754580731787895 $285 -2.199191515598101443 $135 $278 forward @7 unknown #
vertex $-1 150 $-1 $202 0 $286 #
straight-curve $-1 -1 $-1 4.661859409315522562 1.550000000000000488 -1.990000000000000435 0 0 1 I I #
point $-1 -1 $-1 4.661859409315522562 1.750000000000000666 -1.99499999999999944 #
coedge $287 -1 $-1 $140 $139 $245 $288 reversed $141 0 $-1 #
face $289 35 $-1 $-1 $141 $6 $-1 $290 forward single #
point $-1 -1 $-1 4.656571984977576406 1.750000000000000888 -1.989999999999999547 #
ATTRIB_CUSTOM-attrib $-1 -1 $-1 $-1 $144 @17 sketch_attrib_def 1 1 3 @15 403 402 0 0 2 3 #
coedge $-1 -1 $-1 $201 $291 $144 $211 forward $284 0 $-1 #
edge $-1 118 $-1 $292 -0.193649167310370629 $203 -0.09449142337410609827 $210 $293 forward @7 unknown #
coedge $-1 -1 $-1 $294 $245 $145 $213 forward $57 0 $-1 #
edge $-1 76 $-1 $214 0.4000000000000021316 $292 0.6000000000000014211 $212 $295 forward @7 unknown #
vertex $-1 158 $-1 $213 0 $296 #
straight-curve $-1 -1 $-1 4.75635083268962866 1.550000000000000711 -1.989999999999999547 -1 0 0 I I #
ATTRIB_CUSTOM-attrib $297 -1 $-1 $-1 $147 @22 generic_tag_attrib_def 3 3 -1 @23 generic_tag_attrib_def  1 1 @1 4 0 5 358 372 377 380 591 0 #
face $298 34 $-1 $207 $299 $6 $-1 $300 reversed single #
plane-surface $-1 -1 $-1 4.562701665379258031 1.550000000000000488 -2.189999999999999503 0 -1 0 1 0 0 forward_v I I I I #
coedge $301 -1 $-1 $302 $150 $153 $225 forward $221 0 $-1 #
coedge $-1 -1 $-1 $150 $302 $157 $230 reversed $221 0 $-1 #
loop $-1 -1 $-1 $-1 $150 $240 #
intcurve-curve $-1 -1 $-1 forward { int_int_cur 22140 full nubs 3 open 9 
	0 3 0.02829960789379436931 2 0.05659921578758873861 2 0.08489828824673173457 2 0.1131973607058747167 2 
	0.1414964331650176987 2 0.1697955056241606808 2 0.1980951135179550571 2 0.2263947214117494333 3 
	4.46577381318231037 1.575000000000000622 -2.194999999999998508 
	4.46577381318231037 1.575000000000000622 -2.204433202631262745 
	4.465469673325182853 1.576888268733594556 -2.214484863948768201 
	4.464375814907125317 1.584546860910349464 -2.232958818934633882 
	4.463602404198895535 1.590316387670678733 -2.241382404848658361 
	4.462154313398169592 1.603617469320491207 -2.254683486498471723 
	4.461384875114857707 1.612041109479396273 -2.260453111964954687 
	4.46030013054066643 1.63051524996080599 -2.268111775936833219 
	4.459999999999999964 1.640566975846952769 -2.269999999999998685 
	4.459999999999999964 1.659433024153048386 -2.269999999999998685 
	4.46030013054066643 1.669484750039195164 -2.268111775936833219 
	4.461384875114857707 1.687958890520604882 -2.260453111964954687 
	4.462154313398169592 1.696382530679509948 -2.254683486498471723 
	4.463602404198895535 1.709683612329322422 -2.241382404848658361 
	4.464375814907125317 1.715453139089651691 -2.232958818934633882 
	4.465469673325182853 1.723111731266406599 -2.214484863948768201 
	4.46577381318231037 1.725000000000000533 -2.204433202631262745 
	4.46577381318231037 1.725000000000000533 -2.194999999999998508 
	0.0001172172630628992357 
	
	cone 4.449867227606477016 1.650000000000000577 -2.194999999999998508 1 0 0 0 -0.07499999999999995559 0 1 I I 0 1 0.07499999999999995559 forward I I I I 
	cone 4.950000000000000178 1.650000000000000577 -2.049999999999998934 0 0 -1 0 0.4900000000000000466 0 1 I I 0 1 0.4900000000000000466 forward I I I I 
	nullbs 
	nullbs 
	I I 
	0 
	0 
	0 
	
	0 } I I #
coedge $-1 -1 $-1 $153 $152 $303 $304 reversed $154 0 $-1 #
ATTRIB_CUSTOM-attrib $-1 -1 $305 $-1 $153 @17 sketch_attrib_def 1 1 3 @15 492 491 0 0 1 2 #
edge $-1 96 $-1 $155 0 $306 0.03181317115166759635 $153 $307 forward @7 tangent #
face $308 14 $-1 $309 $154 $6 $-1 $310 forward single #
point $-1 -1 $-1 4.46577381318231037 1.575000000000000622 -2.194999999999998508 #
ATTRIB_CUSTOM-attrib $-1 -1 $311 $-1 $157 @17 sketch_attrib_def 1 1 3 @13 500 0 1 0 1 2 #
coedge $-1 -1 $-1 $158 $157 $312 $313 forward $159 0 $-1 #
edge $-1 98 $-1 $160 0 $314 0.03181317115166848453 $157 $315 forward @7 tangent #
face $316 16 $-1 $317 $159 $6 $-1 $318 forward single #
point $-1 -1 $-1 4.46577381318231037 1.725000000000000533 -2.194999999999998508 #
coedge $-1 -1 $-1 $268 $268 $162 $234 forward $185 0 $-1 #
edge $-1 93 $-1 $237 -6.283185307179586232 $235 -3.141592653589793116 $162 $319 forward @7 unknown #
vertex $-1 174 $-1 $313 1 $320 #
straight-curve $-1 -1 $-1 4.46577381318231037 1.725000000000000533 -2.014999999999998792 -1 0 0 I I #
vertex $-1 175 $-1 $304 1 $321 #
straight-curve $-1 -1 $-1 4.46577381318231037 1.575000000000000622 -2.014999999999998792 1 0 0 I I #
ATTRIB_CUSTOM-attrib $322 -1 $-1 $-1 $166 @22 generic_tag_attrib_def 3 3 -1 @23 generic_tag_attrib_def  1 1 @1 3 0 7 368 370 371 372 377 380 591 0 #
face $323 12 $-1 $324 $221 $6 $-1 $325 forward single #
cone-surface $-1 -1 $-1 4.449867227606477016 1.650000000000000577 -2.014999999999998792 -1 -0 -0 0 -0.07499999999999995559 0 1 I I -0 1 0.07499999999999995559 reversed I I I I #
edge $-1 72 $-1 $326 -3.141592653589793116 $326 3.141592653589793116 $189 $327 forward @7 unknown #
vertex $-1 153 $-1 $170 0 $328 #
ellipse-curve $-1 -1 $-1 4.950000000000000178 1.650000000000000577 -1.664999999999999369 -0 -0 -1 0.4000000000000000222 0 0 1 I I #
coedge $-1 -1 $-1 $212 $171 $206 $288 forward $57 0 $-1 #
edge $-1 68 $-1 $250 -0.6000000000000014211 $271 -0.4000000000000021316 $171 $329 forward @7 unknown #
coedge $-1 -1 $-1 $196 $172 $178 $263 forward $249 0 $-1 #
coedge $-1 -1 $-1 $172 $196 $193 $274 forward $249 0 $-1 #
loop $-1 -1 $-1 $-1 $247 $330 #
vertex $-1 152 $-1 $173 1 $331 #
ellipse-curve $-1 -1 $-1 4.950000000000000178 1.650000000000000577 -2.189999999999999503 0 0 1 0.4000000000000000222 0 0 1 I I #
coedge $-1 -1 $-1 $174 $332 $333 $334 forward $57 0 $-1 #
coedge $-1 -1 $-1 $335 $336 $174 $254 reversed $337 0 $-1 #
edge $-1 90 $-1 $338 -0.6000000000000014211 $258 -0.5000000000000017764 $174 $339 forward @7 unknown #
coedge $-1 -1 $-1 $340 $175 $336 $341 reversed $257 0 $-1 #
coedge $-1 -1 $-1 $175 $340 $177 $261 reversed $257 0 $-1 #
loop $-1 -1 $-1 $-1 $256 $342 #
vertex $-1 173 $-1 $254 1 $343 #
ellipse-curve $-1 -1 $-1 4.950000000000000178 1.650000000000000577 -2.089999999999999858 0 0 1 0.4000000000000000222 0 0 1 I I #
coedge $-1 -1 $-1 $178 $177 $195 $276 reversed $179 0 $-1 #
edge $-1 117 $-1 $180 0.0002755887159686574669 $344 0.09527558904647988325 $177 $345 forward @7 unknown #
ATTRIB_CUSTOM-attrib $-1 -1 $-1 $-1 $178 @17 sketch_attrib_def 1 1 3 @13 466 0 1 0 2 2 #
edge $-1 116 $-1 $181 -0.1999999994694440508 $277 -0.1049999991389328341 $247 $346 forward @7 unknown #
face $347 27 $-1 $342 $179 $6 $-1 $348 reversed single #
point $-1 -1 $-1 4.71504607931163644 1.973723114950364455 -2.089999999999999858 #
point $-1 -1 $-1 4.71504607931163644 1.973723114950364455 -2.189999999999999503 #
ATTRIB_CUSTOM-attrib $-1 -1 $-1 $-1 $184 @22 generic_tag_attrib_def 3 3 -1 @23 generic_tag_attrib_def  1 0 @0  0 3 379 382 386 0 #
coedge $349 -1 $-1 $233 $233 $350 $351 forward $185 0 $-1 #
coedge $-1 -1 $-1 $269 $269 $190 $270 reversed $188 0 $-1 #
edge $-1 71 $-1 $352 -3.141592653589793116 $352 3.141592653589793116 $269 $353 forward @7 unknown #
vertex $-1 151 $-1 $246 1 $354 #
straight-curve $-1 -1 $-1 4.80592970465776137 1.750000000000000888 -1.989999999999999547 1 0 0 I I #
ATTRIB_CUSTOM-attrib $-1 -1 $-1 $-1 $193 @17 sketch_attrib_def 1 1 3 @15 410 409 1 0 2 3 #
edge $-1 69 $-1 $198 0.1440702953422388077 $250 0.2432280392785033385 $248 $355 forward @7 unknown #
coedge $-1 -1 $-1 $356 $195 $340 $357 forward $46 0 $-1 #
edge $-1 50 $-1 $277 -0.1999999999999992895 $344 -0.09999999999999964473 $195 $358 forward @7 unknown #
vertex $-1 134 $-1 $197 0 $359 #
ellipse-curve $-1 -1 $-1 4.950000000000000178 1.650000000000000577 -2.189999999999999503 0 0 1 0.3049999999999997158 0 0 1 I I #
point $-1 -1 $-1 4.661859409315522562 1.750000000000000666 -2.189999999999999503 #
coedge $-1 -1 $-1 $200 $360 $361 $362 forward $46 0 $-1 #
coedge $-1 -1 $-1 $363 $364 $200 $282 reversed $365 0 $-1 #
edge $-1 64 $-1 $366 0.09999999999999964473 $285 0.1999999999999992895 $200 $367 forward @7 unknown #
coedge $-1 -1 $-1 $291 $201 $364 $368 forward $284 0 $-1 #
loop $-1 -1 $-1 $-1 $283 $369 #
vertex $-1 149 $-1 $282 1 $370 #
point $-1 -1 $-1 4.661859409315522562 1.550000000000000488 -2.189999999999999503 #
ATTRIB_CUSTOM-attrib $-1 -1 $-1 $-1 $206 @17 sketch_attrib_def 1 1 3 @13 389 0 0 0 1 1 #
edge $-1 75 $-1 $271 -2.888912398447714747 $214 2.888912398447714747 $245 $371 forward @7 unknown #
ATTRIB_CUSTOM-attrib $372 -1 $-1 $-1 $207 @22 generic_tag_attrib_def 3 3 -1 @23 generic_tag_attrib_def  1 1 @1 1 0 5 354 372 377 380 591 0 #
plane-surface $-1 -1 $-1 4.950000000000000178 1.650000000000000355 -1.989999999999999547 0 0 1 1 0 0 forward_v I I I I #
coedge $-1 -1 $-1 $210 $283 $294 $373 reversed $284 0 $-1 #
vertex $-1 159 $-1 $373 0 $374 #
straight-curve $-1 -1 $-1 4.75635083268962866 1.550000000000000711 -2.189999999999999503 1 0 0 I I #
coedge $-1 -1 $-1 $375 $212 $291 $373 forward $57 0 $-1 #
straight-curve $-1 -1 $-1 4.562701665379258031 1.550000000000000488 -1.589999999999998304 0 0 -1 I I #
point $-1 -1 $-1 4.562701665379258031 1.550000000000000488 -1.990000000000000435 #
ATTRIB_CUSTOM-attrib $-1 -1 $-1 $-1 $216 @22 generic_tag_attrib_def 3 3 -1 @23 generic_tag_attrib_def  1 0 @0  0 3 379 382 386 0 #
ATTRIB_CUSTOM-attrib $376 -1 $-1 $-1 $217 @22 generic_tag_attrib_def 3 3 -1 @23 generic_tag_attrib_def  1 1 @1 2 0 5 354 372 377 380 591 0 #
loop $-1 -1 $-1 $-1 $377 $217 #
plane-surface $-1 -1 $-1 4.950000000000000178 1.650000000000000355 -2.189999999999999503 0 0 1 1 0 0 forward_v I I I I #
ATTRIB_CUSTOM-attrib $-1 -1 $-1 $-1 $219 @17 sketch_attrib_def 1 1 3 @13 552 0 0 0 1 1 #
coedge $-1 -1 $-1 $220 $219 $378 $379 forward $221 0 $-1 #
coedge $-1 -1 $-1 $350 $380 $223 $304 forward $381 0 $-1 #
edge $-1 100 $-1 $306 0 $237 0.1799999999999997158 $303 $382 forward @7 unknown #
ATTRIB_CUSTOM-attrib $-1 -1 $-1 $224 $153 @17 sketch_attrib_def 1 1 3 @15 492 491 0 0 2 2 #
vertex $-1 176 $-1 $225 1 $383 #
straight-curve $-1 -1 $-1 4.46577381318231037 1.575000000000000622 -2.194999999999998508 -1 0 0 F 0 F 0.03181317115166759635 #
ATTRIB_CUSTOM-attrib $384 -1 $-1 $-1 $226 @22 generic_tag_attrib_def 3 3 -1 @23 generic_tag_attrib_def  1 1 @1 6 0 5 364 372 377 380 591 0 #
face $385 15 $-1 $231 $381 $6 $-1 $386 forward single #
plane-surface $-1 -1 $-1 4.433960642030642774 1.575000000000000622 -2.194999999999998508 0 -1 0 1 0 0 forward_v I I I I #
ATTRIB_CUSTOM-attrib $-1 -1 $-1 $228 $157 @17 sketch_attrib_def 1 1 3 @13 500 0 1 0 2 2 #
coedge $-1 -1 $-1 $380 $350 $229 $313 reversed $381 0 $-1 #
edge $-1 101 $-1 $314 0 $235 0.1799999999999997158 $229 $387 forward @7 unknown #
vertex $-1 177 $-1 $388 1 $389 #
straight-curve $-1 -1 $-1 4.46577381318231037 1.725000000000000533 -2.194999999999998508 -1 0 0 F 0 F 0.03181317115166848453 #
ATTRIB_CUSTOM-attrib $390 -1 $-1 $-1 $231 @22 generic_tag_attrib_def 3 3 -1 @23 generic_tag_attrib_def  1 1 @1 4 0 5 364 372 377 380 591 0 #
face $391 17 $-1 $392 $393 $6 $-1 $394 reversed single #
plane-surface $-1 -1 $-1 4.46577381318231037 1.725000000000000533 -2.194999999999998508 0 1 0 -1 0 0 forward_v I I I I #
ellipse-curve $-1 -1 $-1 4.433960642030642774 1.650000000000000577 -2.014999999999998792 -1 -0 -0 0 -0.07499999999999995559 0 1 I I #
point $-1 -1 $-1 4.433960642030640997 1.725000000000000533 -2.014999999999998792 #
point $-1 -1 $-1 4.433960642030642774 1.575000000000000622 -2.014999999999998792 #
ATTRIB_CUSTOM-attrib $-1 -1 $-1 $-1 $239 @22 generic_tag_attrib_def 3 3 -1 @23 generic_tag_attrib_def  1 0 @0  0 3 379 382 386 0 #
ATTRIB_CUSTOM-attrib $395 -1 $-1 $-1 $240 @22 generic_tag_attrib_def 3 3 -1 @23 generic_tag_attrib_def  1 1 @1 3 0 5 368 372 377 380 591 0 #
face $396 13 $-1 $226 $397 $6 $-1 $398 forward single #
cone-surface $-1 -1 $-1 4.449867227606477016 1.650000000000000577 -2.194999999999998508 1 0 0 0 -0.07499999999999995559 0 1 I I 0 1 0.07499999999999995559 forward I I I I #
vertex $-1 155 $-1 $242 0 $399 #
ellipse-curve $-1 -1 $-1 4.950000000000000178 1.650000000000000577 -1.659999999999999476 -0 -0 -1 0 -0.4850000000000001532 0 1 I I #
point $-1 -1 $-1 4.549999999999999822 1.650000000000000577 -1.664999999999999369 #
straight-curve $-1 -1 $-1 4.562701665379258031 1.750000000000000666 -1.589999999999998304 0 0 1 I I #
face $400 30 $-1 $369 $249 $6 $-1 $300 reversed single #
point $-1 -1 $-1 4.562701665379258031 1.750000000000000666 -2.189999999999999503 #
coedge $-1 -1 $-1 $252 $401 $402 $403 forward $57 0 $-1 #
coedge $-1 -1 $-1 $404 $405 $252 $334 reversed $406 0 $-1 #
edge $-1 89 $-1 $407 0.9426099964391927433 $338 1.570671596927789349 $252 $408 forward @7 unknown #
coedge $409 -1 $-1 $410 $253 $405 $411 reversed $337 0 $-1 #
coedge $-1 -1 $-1 $253 $410 $255 $341 forward $337 0 $-1 #
loop $-1 -1 $-1 $-1 $335 $412 #
vertex $-1 172 $-1 $254 0 $413 #
straight-curve $-1 -1 $-1 4.950049891946714631 2.04999999688849277 -1.589999999999998304 0 0 1 I I #
coedge $-1 -1 $-1 $256 $255 $275 $357 reversed $257 0 $-1 #
edge $-1 115 $-1 $414 -0.09513619211135225517 $258 -0.000136186631637935288 $336 $415 forward @7 unknown #
face $416 28 $-1 $417 $257 $6 $-1 $418 forward single #
point $-1 -1 $-1 4.950049891946713743 2.049999996888493214 -2.089999999999999858 #
vertex $-1 135 $-1 $276 1 $419 #
straight-curve $-1 -1 $-1 4.714884218934570548 1.97394616283469726 -2.089999999999999858 0.5873258507594627531 -0.8093505699199039505 0 I I #
straight-curve $-1 -1 $-1 4.832511249151919763 1.81185300139578942 -2.189999999999999503 0.5873258507594627531 -0.8093505699199039505 0 I I #
ATTRIB_CUSTOM-attrib $420 -1 $-1 $-1 $264 @22 generic_tag_attrib_def 3 3 -1 @23 generic_tag_attrib_def  1 2 @2 15 0 5 361 372 377 380 591 0 #
plane-surface $-1 -1 $-1 4.71504607931163644 1.973723114950364455 -2.189999999999999503 -0.8093505699199039505 -0.5873258507594627531 0 0.5873258507594627531 -0.8093505699199039505 0 forward_v I I I I #
ATTRIB_CUSTOM-attrib $-1 -1 $-1 $-1 $268 @17 sketch_attrib_def 1 1 3 @13 555 0 0 0 1 2 #
coedge $-1 -1 $-1 $312 $303 $268 $351 reversed $381 0 $-1 #
edge $-1 92 $-1 $235 -3.141592653589734052 $237 -0.1474484899395906712 $350 $421 forward @7 tangent #
vertex $-1 154 $-1 $270 0 $422 #
ellipse-curve $-1 -1 $-1 4.950000000000000178 1.650000000000000577 -1.659999999999999476 0 0 1 0.4049999999999999156 0 0 1 I I #
point $-1 -1 $-1 4.562701665379258031 1.750000000000000666 -1.990000000000000435 #
straight-curve $-1 -1 $-1 4.80592970465776137 1.750000000000000888 -2.189999999999999503 -1 0 0 I I #
coedge $-1 -1 $-1 $423 $275 $410 $424 forward $46 0 $-1 #
edge $-1 51 $-1 $344 -2.198642649984669628 $414 -1.570763976468506851 $275 $425 forward @7 unknown #
straight-curve $-1 -1 $-1 4.770842035327903297 1.896834810540474203 -1.990000000000000435 0 0 1 I I #
point $-1 -1 $-1 4.770842035327903297 1.896834810540474203 -2.189999999999999503 #
coedge $-1 -1 $-1 $280 $426 $427 $428 forward $46 0 $-1 #
coedge $-1 -1 $-1 $429 $430 $280 $362 reversed $431 0 $-1 #
edge $-1 63 $-1 $432 1.57087424859529845 $366 2.199191515598101443 $280 $433 forward @7 unknown #
coedge $-1 -1 $-1 $434 $281 $430 $435 forward $365 0 $-1 #
coedge $436 -1 $-1 $281 $434 $283 $368 reversed $365 0 $-1 #
loop $-1 -1 $-1 $-1 $364 $437 #
vertex $-1 148 $-1 $282 0 $438 #
straight-curve $-1 -1 $-1 4.770706583180979621 1.403263560280690214 -1.990000000000000435 0 0 -1 I I #
edge $-1 112 $-1 $285 0.1524999782692919026 $439 0.2474999885913800046 $283 $440 forward @7 unknown #
face $441 31 $-1 $442 $284 $6 $-1 $300 reversed single #
point $-1 -1 $-1 4.770706583180979621 1.403263560280690214 -2.189999999999999503 #
ellipse-curve $-1 -1 $-1 4.950000000000000178 1.650000000000000577 -1.989999999999999547 -0 -0 -1 0.4000000000000000222 0 0 1 I I #
ATTRIB_CUSTOM-attrib $-1 -1 $-1 $-1 $289 @22 generic_tag_attrib_def 3 3 -1 @23 generic_tag_attrib_def  1 0 @0  0 4 356 379 382 386 0 #
edge $-1 77 $-1 $292 -2.888912398447714747 $439 -2.199064726864599972 $294 $443 forward @7 unknown #
point $-1 -1 $-1 4.562701665379258031 1.550000000000000488 -2.189999999999999503 #
coedge $-1 -1 $-1 $444 $294 $434 $445 forward $57 0 $-1 #
ATTRIB_CUSTOM-attrib $-1 -1 $-1 $-1 $298 @22 generic_tag_attrib_def 3 3 -1 @23 generic_tag_attrib_def  1 0 @0  0 4 356 379 382 386 0 #
coedge $-1 -1 $-1 $446 $447 $448 $449 forward $299 0 $-1 #
coedge $-1 -1 $-1 $450 $450 $302 $379 reversed $397 0 $-1 #
edge $-1 97 $-1 $306 -6.283185307179586232 $314 -3.141592653589793116 $302 $451 forward @7 unknown #
coedge $452 -1 $-1 $303 $312 $450 $388 reversed $381 0 $-1 #
loop $-1 -1 $-1 $-1 $380 $309 #
straight-curve $-1 -1 $-1 4.433960642030642774 1.575000000000000622 -2.194999999999998508 0 0 1 I I #
point $-1 -1 $-1 4.433960642030642774 1.575000000000000622 -2.194999999999998508 #
ATTRIB_CUSTOM-attrib $-1 -1 $-1 $-1 $308 @22 generic_tag_attrib_def 3 3 -1 @23 generic_tag_attrib_def  1 0 @0  0 4 366 379 382 386 0 #
ATTRIB_CUSTOM-attrib $453 -1 $-1 $-1 $309 @22 generic_tag_attrib_def 3 3 -1 @23 generic_tag_attrib_def  1 1 @1 5 0 5 364 372 377 380 591 0 #
cone-surface $-1 -1 $-1 4.43949999999999978 1.650000000000000577 -2.194999999999998508 0 0 1 0.005539357969354341549 -0.07500000000000017764 0 1 I I 0 1 0.07520428502893088119 forward I I I I #
straight-curve $-1 -1 $-1 4.433960642030640997 1.725000000000000533 -2.194999999999998508 0 0 1 I I #
edge $-1 99 $-1 $306 0.1474484899395906712 $314 3.141592653589734052 $380 $454 forward @7 tangent #
point $-1 -1 $-1 4.433960642030640997 1.725000000000000533 -2.194999999999998508 #
ATTRIB_CUSTOM-attrib $-1 -1 $-1 $-1 $316 @22 generic_tag_attrib_def 3 3 -1 @23 generic_tag_attrib_def  1 0 @0  0 4 366 379 382 386 0 #
ATTRIB_CUSTOM-attrib $455 -1 $-1 $-1 $317 @22 generic_tag_attrib_def 3 3 -1 @23 generic_tag_attrib_def  1 2 @2 13 0 5 361 372 377 380 591 0 #
face $456 18 $-1 $457 $458 $6 $-1 $459 reversed single #
loop $-1 -1 $-1 $-1 $460 $317 #
plane-surface $-1 -1 $-1 5.330446940406399214 1.526468119356137132 -2.189999999999999503 0.308999935995247943 0.9510620587295725015 0 -0.9510620587295725015 0.308999935995247943 0 forward_v I I I I #
ATTRIB_CUSTOM-attrib $-1 -1 $-1 $-1 $323 @22 generic_tag_attrib_def 3 3 -1 @23 generic_tag_attrib_def  1 0 @0  0 3 379 382 386 0 #
ATTRIB_CUSTOM-attrib $461 -1 $-1 $-1 $324 @22 generic_tag_attrib_def 3 3 -1 @23 generic_tag_attrib_def  1 1 @1 4 0 5 368 372 377 380 591 0 #
loop $-1 -1 $-1 $-1 $450 $324 #
sphere-surface $-1 -1 $-1 4.43949999999999978 1.650000000000000577 -2.194999999999998508 0.07520428502893085343 1 0 0 0 0 1 forward_v I I I I #
point $-1 -1 $-1 4.950000000000000178 2.135000000000000675 -1.659999999999999476 #
ATTRIB_CUSTOM-attrib $462 -1 $-1 $-1 $330 @22 generic_tag_attrib_def 3 3 -1 @23 generic_tag_attrib_def  1 1 @1 2 0 5 354 372 377 380 591 0 #
coedge $-1 -1 $-1 $332 $463 $464 $465 forward $57 0 $-1 #
coedge $-1 -1 $-1 $466 $467 $332 $403 reversed $468 0 $-1 #
edge $-1 88 $-1 $469 0.5000000000000017764 $407 0.6000000000000014211 $332 $470 forward @7 unknown #
coedge $-1 -1 $-1 $471 $333 $467 $472 forward $406 0 $-1 #
coedge $-1 -1 $-1 $333 $471 $335 $411 forward $406 0 $-1 #
loop $-1 -1 $-1 $-1 $404 $442 #
vertex $-1 171 $-1 $403 1 $473 #
ellipse-curve $-1 -1 $-1 4.950000000000000178 1.650000000000000577 -2.189999999999999503 0 0 1 0.4000000000000000222 0 0 1 I I #
ATTRIB_CUSTOM-attrib $-1 -1 $-1 $-1 $335 @17 sketch_attrib_def 1 1 3 @13 463 0 0 0 2 2 #
coedge $-1 -1 $-1 $336 $335 $356 $424 reversed $337 0 $-1 #
edge $-1 114 $-1 $474 0.1524999884637623648 $338 0.2474999939434766594 $405 $475 forward @7 unknown #
face $476 26 $-1 $264 $337 $6 $-1 $477 reversed single #
point $-1 -1 $-1 4.950049891946713743 2.049999996888493214 -2.189999999999999503 #
vertex $-1 136 $-1 $424 0 $478 #
straight-curve $-1 -1 $-1 4.950049949324427878 2.050136183508044052 -2.089999999999999858 0.0004213167879749282296 0.9999999112460781214 0 I I #
ATTRIB_CUSTOM-attrib $479 -1 $-1 $-1 $342 @22 generic_tag_attrib_def 3 3 -1 @23 generic_tag_attrib_def  1 1 @1 2 0 5 361 372 377 380 591 0 #
face $480 29 $-1 $330 $481 $6 $-1 $300 reversed single #
plane-surface $-1 -1 $-1 4.832547985629174647 1.973417405270237568 -2.089999999999999858 0 0 -1 -1 0 0 forward_v I I I I #
point $-1 -1 $-1 4.770842035327903297 1.896834810540474203 -2.089999999999999858 #
ATTRIB_CUSTOM-attrib $-1 -1 $-1 $-1 $347 @22 generic_tag_attrib_def 3 3 -1 @23 generic_tag_attrib_def  1 0 @0  0 3 379 382 386 0 #
ellipse-curve $-1 -1 $-1 4.43949999999999978 1.650000000000000577 -2.014999999999998792 0 0 1 0.005539357969354341549 -0.07500000000000017764 0 1 I I #
point $-1 -1 $-1 4.544999999999999929 1.650000000000000577 -1.659999999999999476 #
coedge $-1 -1 $-1 $482 $356 $471 $483 reversed $46 0 $-1 #
edge $-1 52 $-1 $414 0.09999999999999964473 $474 0.1999999999999992895 $356 $484 forward @7 unknown #
ellipse-curve $-1 -1 $-1 4.950000000000000178 1.650000000000000577 -2.089999999999999858 0 0 -1 0.3049999999999997158 0 0 1 I I #
coedge $-1 -1 $-1 $360 $485 $447 $486 reversed $46 0 $-1 #
coedge $-1 -1 $-1 $487 $488 $360 $428 reversed $489 0 $-1 #
edge $-1 62 $-1 $490 -0.1999999999999992895 $432 -0.09999999999999964473 $360 $491 forward @7 unknown #
coedge $-1 -1 $-1 $492 $361 $488 $493 reversed $431 0 $-1 #
coedge $-1 -1 $-1 $361 $492 $363 $435 reversed $431 0 $-1 #
loop $-1 -1 $-1 $-1 $430 $494 #
vertex $-1 147 $-1 $428 1 $495 #
ellipse-curve $-1 -1 $-1 4.950000000000000178 1.650000000000000577 -2.089999999999999858 0 0 -1 0.3049999999999997158 0 0 1 I I #
coedge $-1 -1 $-1 $364 $363 $375 $445 reversed $365 0 $-1 #
edge $-1 113 $-1 $366 -0.09500001032208811591 $496 -0 $363 $497 forward @7 unknown #
ATTRIB_CUSTOM-attrib $-1 -1 $-1 $-1 $364 @17 sketch_attrib_def 1 1 3 @13 437 0 0 0 1 1 #
face $498 24 $-1 $494 $365 $6 $-1 $499 reversed single #
point $-1 -1 $-1 4.770706583180979621 1.403263560280690214 -2.089999999999999858 #
vertex $-1 160 $-1 $445 0 $500 #
straight-curve $-1 -1 $-1 4.860287406267585375 1.526679602622278642 -2.189999999999999503 -0.5874153170593855444 -0.80928563887172833 0 I I #
ATTRIB_CUSTOM-attrib $501 -1 $-1 $-1 $369 @22 generic_tag_attrib_def 3 3 -1 @23 generic_tag_attrib_def  1 1 @1 2 0 5 354 372 377 380 591 0 #
face $502 32 $-1 $147 $406 $6 $-1 $300 reversed single #
ellipse-curve $-1 -1 $-1 4.950000000000000178 1.650000000000000577 -2.189999999999999503 0 0 1 0.4000000000000000222 0 0 1 I I #
coedge $-1 -1 $-1 $503 $375 $492 $504 forward $57 0 $-1 #
edge $-1 78 $-1 $439 -0.6000000000000014211 $496 -0.5000000000000017764 $375 $505 forward @7 unknown #
coedge $-1 -1 $-1 $506 $377 $507 $508 reversed $299 0 $-1 #
coedge $-1 -1 $-1 $377 $506 $426 $486 forward $299 0 $-1 #
coedge $509 -1 $-1 $510 $511 $377 $449 reversed $458 0 $-1 #
edge $-1 104 $-1 $512 0.1524999993098335449 $513 0.2474999996376633926 $377 $514 forward @7 unknown #
coedge $515 -1 $-1 $378 $378 $380 $388 forward $397 0 $-1 #
ellipse-curve $-1 -1 $-1 4.433960642030642774 1.650000000000000577 -2.194999999999998508 1 0 0 0 -0.07499999999999995559 0 1 I I #
ATTRIB_CUSTOM-attrib $-1 -1 $-1 $-1 $380 @17 sketch_attrib_def 1 1 3 @13 521 0 0 0 2 3 #
ATTRIB_CUSTOM-attrib $-1 -1 $-1 $-1 $385 @22 generic_tag_attrib_def 3 3 -1 @23 generic_tag_attrib_def  1 0 @0  0 4 366 379 382 386 0 #
ellipse-curve $-1 -1 $-1 4.43949999999999978 1.650000000000000577 -2.194999999999998508 0 0 -1 0.005539357969354341549 -0.07500000000000017764 0 1 F 0.1474484899395875348 F 3.141592653589739825 #
ATTRIB_CUSTOM-attrib $-1 -1 $-1 $-1 $391 @22 generic_tag_attrib_def 3 3 -1 @23 generic_tag_attrib_def  1 0 @0  0 3 379 382 386 0 #
ATTRIB_CUSTOM-attrib $516 -1 $-1 $-1 $392 @22 generic_tag_attrib_def 3 3 -1 @23 generic_tag_attrib_def  1 2 @2 11 0 5 361 372 377 380 591 0 #
face $517 19 $-1 $518 $519 $6 $-1 $520 forward single #
loop $-1 -1 $-1 $-1 $448 $392 #
plane-surface $-1 -1 $-1 5.129291580386436955 1.403262225829660537 -2.189999999999999503 -0.8089203786778051963 -0.5879182094133131864 0 0.5879182094133131864 -0.8089203786778051963 0 forward_v I I I I #
coedge $521 -1 $-1 $522 $523 $524 $525 reversed $393 0 $-1 #
ATTRIB_CUSTOM-attrib $-1 -1 $-1 $-1 $396 @22 generic_tag_attrib_def 3 3 -1 @23 generic_tag_attrib_def  1 0 @0  0 3 379 382 386 0 #
ATTRIB_CUSTOM-attrib $-1 -1 $-1 $-1 $400 @22 generic_tag_attrib_def 3 3 -1 @23 generic_tag_attrib_def  1 0 @0  0 4 356 379 382 386 0 #
coedge $-1 -1 $-1 $401 $526 $527 $528 forward $57 0 $-1 #
coedge $-1 -1 $-1 $529 $530 $401 $465 reversed $531 0 $-1 #
edge $-1 87 $-1 $532 0.3143929678373666992 $469 0.9426099964391927433 $401 $533 forward @7 unknown #
coedge $-1 -1 $-1 $534 $402 $530 $535 forward $468 0 $-1 #
coedge $536 -1 $-1 $402 $534 $404 $472 reversed $468 0 $-1 #
loop $-1 -1 $-1 $-1 $467 $537 #
vertex $-1 170 $-1 $403 0 $538 #
straight-curve $-1 -1 $-1 5.185071317926686518 1.973637877091373838 -1.589999999999998304 -0 -0 -1 I I #
coedge $-1 -1 $-1 $405 $404 $423 $483 forward $406 0 $-1 #
edge $-1 108 $-1 $407 -0.1999999834269999832 $539 -0.1049999731028337102 $404 $540 forward @7 unknown #
point $-1 -1 $-1 5.185071317926686518 1.97363787709137406 -2.189999999999999503 #
vertex $-1 137 $-1 $411 0 $541 #
straight-curve $-1 -1 $-1 4.949945616044241881 1.802500024911611654 -2.189999999999999503 0.0004213167879749282296 0.9999999112460781214 0 I I #
ATTRIB_CUSTOM-attrib $542 -1 $-1 $-1 $412 @22 generic_tag_attrib_def 3 3 -1 @23 generic_tag_attrib_def  1 2 @2 17 0 5 361 372 377 380 591 0 #
plane-surface $-1 -1 $-1 4.950009866849547358 1.954999999840401959 -2.189999999999999503 0.9999999112460781214 -0.0004213167879749282296 0 0.0004213167879749282296 0.9999999112460781214 0 forward_v I I I I #
point $-1 -1 $-1 4.950009866849547358 1.954999999840401959 -2.089999999999999858 #
ATTRIB_CUSTOM-attrib $-1 -1 $-1 $-1 $416 @22 generic_tag_attrib_def 3 3 -1 @23 generic_tag_attrib_def  1 0 @0  0 3 379 382 386 0 #
ATTRIB_CUSTOM-attrib $543 -1 $-1 $-1 $417 @22 generic_tag_attrib_def 3 3 -1 @23 generic_tag_attrib_def  1 1 @1 2 0 5 354 372 377 380 591 0 #
loop $-1 -1 $-1 $-1 $524 $417 #
coedge $-1 -1 $-1 $544 $423 $534 $545 forward $46 0 $-1 #
edge $-1 53 $-1 $539 0.942736797933214743 $474 1.570763976468506851 $423 $278 forward @7 unknown #
straight-curve $-1 -1 $-1 4.950009866849548246 1.954999999840402403 -1.990000000000000435 -0 -0 -1 I I #
coedge $-1 -1 $-1 $426 $546 $510 $547 forward $46 0 $-1 #
edge $-1 61 $-1 $490 -1.57087424859529845 $512 -0.9424085808632014505 $426 $278 forward @7 unknown #
coedge $548 -1 $-1 $549 $427 $506 $550 reversed $489 0 $-1 #
coedge $-1 -1 $-1 $427 $549 $429 $493 forward $489 0 $-1 #
loop $-1 -1 $-1 $-1 $487 $551 #
vertex $-1 146 $-1 $486 0 $552 #
straight-curve $-1 -1 $-1 4.949976233850901686 1.345000000925951289 -1.990000000000000435 0 0 1 I I #
coedge $-1 -1 $-1 $430 $429 $444 $504 reversed $431 0 $-1 #
edge $-1 111 $-1 $553 0 $432 0.09500000547202097634 $488 $554 forward @7 unknown #
face $555 25 $-1 $412 $431 $6 $-1 $556 forward single #
point $-1 -1 $-1 4.949976233850901686 1.345000000925951733 -2.089999999999999858 #
vertex $-1 161 $-1 $445 1 $557 #
straight-curve $-1 -1 $-1 4.714902121996985329 1.326381416234358346 -2.089999999999999858 -0.5874153170593855444 -0.80928563887172833 -0 I I #
ATTRIB_CUSTOM-attrib $558 -1 $-1 $-1 $437 @22 generic_tag_attrib_def 3 3 -1 @23 generic_tag_attrib_def  1 1 @1 7 0 5 361 372 377 380 591 0 #
plane-surface $-1 -1 $-1 4.770706583180979621 1.403263560280690214 -2.189999999999999503 -0.80928563887172833 0.5874153170593855444 0 -0.5874153170593855444 -0.80928563887172833 -0 forward_v I I I I #
point $-1 -1 $-1 4.714902121996985329 1.326381416234358346 -2.189999999999999503 #
ATTRIB_CUSTOM-attrib $-1 -1 $-1 $-1 $441 @22 generic_tag_attrib_def 3 3 -1 @23 generic_tag_attrib_def  1 0 @0  0 4 356 379 382 386 0 #
ATTRIB_CUSTOM-attrib $559 -1 $-1 $-1 $442 @22 generic_tag_attrib_def 3 3 -1 @23 generic_tag_attrib_def  1 1 @1 2 0 5 354 372 377 380 591 0 #
coedge $-1 -1 $-1 $507 $444 $549 $560 forward $57 0 $-1 #
edge $-1 79 $-1 $496 -2.199064726864599972 $553 -1.570781933929461083 $444 $561 forward @7 unknown #
straight-curve $-1 -1 $-1 4.714902121996985329 1.326381416234358568 -1.589999999999998304 0 0 1 I I #
coedge $-1 -1 $-1 $447 $446 $487 $550 forward $299 0 $-1 #
coedge $-1 -1 $-1 $562 $503 $446 $508 forward $57 0 $-1 #
edge $-1 81 $-1 $563 -1.570781933929461083 $513 -0.9423859854363444422 $507 $564 forward @7 unknown #
ATTRIB_CUSTOM-attrib $-1 -1 $-1 $-1 $448 @17 sketch_attrib_def 1 1 3 @13 451 0 0 0 1 2 #
coedge $-1 -1 $-1 $565 $448 $485 $547 reversed $458 0 $-1 #
coedge $-1 -1 $-1 $448 $565 $562 $566 reversed $458 0 $-1 #
vertex $-1 145 $-1 $547 1 $567 #
vertex $-1 164 $-1 $566 0 $568 #
straight-curve $-1 -1 $-1 5.039634053856667961 1.52662258301973619 -2.189999999999999503 0.5879182094133131864 -0.8089203786778051963 0 I I #
ATTRIB_CUSTOM-attrib $-1 -1 $-1 $-1 $450 @17 sketch_attrib_def 1 1 3 @13 555 0 0 0 1 2 #
ATTRIB_CUSTOM-attrib $-1 -1 $-1 $-1 $456 @22 generic_tag_attrib_def 3 3 -1 @23 generic_tag_attrib_def  1 0 @0  0 3 379 382 386 0 #
ATTRIB_CUSTOM-attrib $569 -1 $-1 $-1 $457 @22 generic_tag_attrib_def 3 3 -1 @23 generic_tag_attrib_def  1 1 @1 2 0 5 361 372 377 380 591 0 #
face $570 20 $-1 $537 $571 $6 $-1 $572 reversed single #
loop $-1 -1 $-1 $-1 $573 $457 #
plane-surface $-1 -1 $-1 5.229869260396418085 1.441118951741226173 -2.089999999999999858 0 0 -1 -1 0 0 forward_v I I I I #
ATTRIB_CUSTOM-attrib $-1 -1 $-1 $-1 $460 @17 sketch_attrib_def 1 1 3 @13 454 0 1 0 1 2 #
coedge $-1 -1 $-1 $574 $460 $575 $576 reversed $393 0 $-1 #
coedge $-1 -1 $-1 $460 $574 $577 $578 reversed $393 0 $-1 #
coedge $-1 -1 $-1 $579 $580 $460 $525 forward $481 0 $-1 #
edge $-1 102 $-1 $581 -0.1999999967963019543 $582 -0.1049999948005552464 $524 $583 forward @7 unknown #
coedge $-1 -1 $-1 $463 $575 $580 $584 forward $57 0 $-1 #
coedge $-1 -1 $-1 $585 $586 $463 $528 reversed $571 0 $-1 #
edge $-1 86 $-1 $587 -0.6000000000000014211 $532 -0.5000000000000017764 $463 $588 forward @7 unknown #
coedge $-1 -1 $-1 $589 $464 $586 $590 reversed $531 0 $-1 #
coedge $-1 -1 $-1 $464 $589 $466 $535 reversed $531 0 $-1 #
loop $-1 -1 $-1 $-1 $530 $591 #
vertex $-1 169 $-1 $528 1 $592 #
ellipse-curve $-1 -1 $-1 4.950000000000000178 1.650000000000000577 -2.089999999999999858 0 0 1 0.4000000000000000222 0 0 1 I I #
coedge $-1 -1 $-1 $467 $466 $482 $545 reversed $468 0 $-1 #
edge $-1 109 $-1 $469 0.0001361853696637401682 $593 0.09513619569383001406 $466 $594 forward @7 unknown #
ATTRIB_CUSTOM-attrib $-1 -1 $-1 $-1 $467 @17 sketch_attrib_def 1 1 3 @13 460 0 1 0 2 2 #
face $595 21 $-1 $591 $468 $6 $-1 $596 reversed single #
point $-1 -1 $-1 5.185071317926686518 1.97363787709137406 -2.089999999999999858 #
vertex $-1 138 $-1 $483 0 $597 #
straight-curve $-1 -1 $-1 5.067469802040938553 1.811866814066572129 -2.189999999999999503 -0.5880076281539938776 -0.8088553821498095653 0 I I #
point $-1 -1 $-1 4.950009866849547358 1.954999999840401959 -2.189999999999999503 #
ATTRIB_CUSTOM-attrib $-1 -1 $-1 $-1 $476 @22 generic_tag_attrib_def 3 3 -1 @23 generic_tag_attrib_def  1 0 @0  0 3 379 382 386 0 #
ATTRIB_CUSTOM-attrib $-1 -1 $-1 $-1 $480 @22 generic_tag_attrib_def 3 3 -1 @23 generic_tag_attrib_def  1 0 @0  0 4 356 379 382 386 0 #
coedge $-1 -1 $-1 $598 $482 $589 $599 forward $46 0 $-1 #
edge $-1 54 $-1 $539 -0.1999999999999992895 $593 -0.09999999999999964473 $482 $600 forward @7 unknown #
coedge $-1 -1 $-1 $485 $577 $601 $602 forward $46 0 $-1 #
edge $-1 60 $-1 $603 0.09999999999999964473 $512 0.1999999999999992895 $485 $604 forward @7 unknown #
ATTRIB_CUSTOM-attrib $-1 -1 $-1 $-1 $487 @17 sketch_attrib_def 1 1 3 @13 448 0 1 0 1 1 #
coedge $-1 -1 $-1 $488 $487 $503 $560 reversed $489 0 $-1 #
edge $-1 110 $-1 $563 -0.1999999912159701465 $490 -0.1049999857439491424 $506 $605 forward @7 unknown #
face $606 23 $-1 $437 $489 $6 $-1 $607 reversed single #
point $-1 -1 $-1 4.949976233850901686 1.345000000925951733 -2.189999999999999503 #
vertex $-1 162 $-1 $560 0 $608 #
straight-curve $-1 -1 $-1 4.95000575714617419 1.250000000041430415 -2.089999999999999858 -0.0003107715112837493299 0.9999999517105326863 0 I I #
ATTRIB_CUSTOM-attrib $609 -1 $-1 $-1 $494 @22 generic_tag_attrib_def 3 3 -1 @23 generic_tag_attrib_def  1 1 @1 2 0 5 361 372 377 380 591 0 #
plane-surface $-1 -1 $-1 4.832453939571580648 1.326631780140345329 -2.089999999999999858 0 0 -1 -1 0 0 forward_v I I I I #
point $-1 -1 $-1 4.714902121996985329 1.326381416234358346 -2.089999999999999858 #
ATTRIB_CUSTOM-attrib $-1 -1 $-1 $-1 $498 @22 generic_tag_attrib_def 3 3 -1 @23 generic_tag_attrib_def  1 0 @0  0 3 379 382 386 0 #
ATTRIB_CUSTOM-attrib $-1 -1 $-1 $-1 $502 @22 generic_tag_attrib_def 3 3 -1 @23 generic_tag_attrib_def  1 0 @0  0 4 356 379 382 386 0 #
edge $-1 80 $-1 $553 0.5000000000000017764 $563 0.6000000000000014211 $503 $610 forward @7 unknown #
ellipse-curve $-1 -1 $-1 4.950000000000000178 1.650000000000000577 -2.089999999999999858 0 0 1 0.4000000000000000222 0 0 1 I I #
coedge $-1 -1 $-1 $611 $507 $511 $566 forward $57 0 $-1 #
vertex $-1 163 $-1 $560 1 $612 #
ellipse-curve $-1 -1 $-1 4.950000000000000178 1.650000000000000577 -2.189999999999999503 0 0 1 0.4000000000000000222 0 0 1 I I #
coedge $-1 -1 $-1 $511 $510 $573 $613 forward $458 0 $-1 #
edge $-1 82 $-1 $513 -0.6000000000000014211 $614 -0.5000000000000017764 $562 $615 forward @7 unknown #
point $-1 -1 $-1 5.129291580386436955 1.403262225829660759 -2.189999999999999503 #
point $-1 -1 $-1 5.185143810473438641 1.326414789590080856 -2.189999999999999503 #
ATTRIB_CUSTOM-attrib $-1 -1 $-1 $-1 $517 @22 generic_tag_attrib_def 3 3 -1 @23 generic_tag_attrib_def  1 0 @0  0 3 379 382 386 0 #
ATTRIB_CUSTOM-attrib $616 -1 $-1 $-1 $518 @22 generic_tag_attrib_def 3 3 -1 @23 generic_tag_attrib_def  1 1 @1 5 0 5 361 372 377 380 591 0 #
loop $-1 -1 $-1 $-1 $585 $518 #
plane-surface $-1 -1 $-1 5.240039561059141704 1.744350691680665477 -2.189999999999999503 0.3088947986819070013 -0.9510962114041167093 0 0.9510962114041167093 0.3088947986819070013 0 forward_v I I I I #
coedge $-1 -1 $-1 $601 $617 $565 $613 reversed $519 0 $-1 #
coedge $-1 -1 $-1 $523 $522 $618 $619 forward $393 0 $-1 #
coedge $-1 -1 $-1 $526 $611 $522 $576 forward $57 0 $-1 #
edge $-1 84 $-1 $620 0.5000000000000017764 $581 0.6000000000000014211 $575 $621 forward @7 unknown #
coedge $-1 -1 $-1 $546 $622 $523 $578 forward $46 0 $-1 #
edge $-1 58 $-1 $582 -0.1999999999999992895 $623 -0.09999999999999964473 $577 $624 forward @7 unknown #
coedge $-1 -1 $-1 $625 $524 $622 $626 forward $481 0 $-1 #
coedge $-1 -1 $-1 $524 $625 $526 $584 reversed $481 0 $-1 #
vertex $-1 167 $-1 $576 1 $627 #
vertex $-1 142 $-1 $626 0 $628 #
straight-curve $-1 -1 $-1 5.140234531707400301 1.588268105565243893 -2.189999999999999503 -0.9510620587295725015 0.308999935995247943 0 I I #
edge $-1 85 $-1 $581 -0.3139623403902347953 $587 0.3143929678373666992 $526 $629 forward @7 unknown #
coedge $630 -1 $-1 $631 $527 $625 $632 reversed $571 0 $-1 #
coedge $-1 -1 $-1 $527 $631 $529 $590 forward $571 0 $-1 #
vertex $-1 168 $-1 $528 0 $633 #
straight-curve $-1 -1 $-1 5.330393708914602513 1.773695700079641169 -1.589999999999998304 0 0 1 I I #
coedge $-1 -1 $-1 $530 $529 $544 $599 reversed $531 0 $-1 #
edge $-1 107 $-1 $634 -0.09500000817169747258 $532 -0 $586 $635 forward @7 unknown #
face $636 22 $-1 $551 $531 $6 $-1 $637 forward single #
point $-1 -1 $-1 5.330393708914603401 1.773695700079641391 -2.089999999999999858 #
vertex $-1 139 $-1 $545 1 $638 #
straight-curve $-1 -1 $-1 5.185151395962892096 1.9737480313605964 -2.089999999999999858 -0.5880076281539938776 -0.8088553821498095653 0 I I #
ATTRIB_CUSTOM-attrib $639 -1 $-1 $-1 $537 @22 generic_tag_attrib_def 3 3 -1 @23 generic_tag_attrib_def  1 1 @1 3 0 5 361 372 377 380 591 0 #
plane-surface $-1 -1 $-1 5.185071317926686518 1.973637877091373838 -2.189999999999999503 -0.8088553821498095653 0.5880076281539938776 0 -0.5880076281539938776 -0.8088553821498095653 0 forward_v I I I I #
point $-1 -1 $-1 5.129210587181368908 1.896796607436384452 -2.189999999999999503 #
coedge $-1 -1 $-1 $622 $544 $631 $640 forward $46 0 $-1 #
edge $-1 55 $-1 $593 -0.9427367979332138548 $634 -0.3145057792397705776 $544 $641 forward @7 unknown #
straight-curve $-1 -1 $-1 5.129210587181368908 1.896796607436384896 -1.990000000000000435 0 0 1 I I #
coedge $-1 -1 $-1 $618 $573 $546 $602 reversed $519 0 $-1 #
edge $-1 59 $-1 $623 0.3139065897859915077 $603 0.9424085808632010064 $546 $642 forward @7 unknown #
vertex $-1 144 $-1 $547 0 $643 #
straight-curve $-1 -1 $-1 5.129291580386436955 1.403262225829660537 -1.990000000000000435 0 0 -1 I I #
straight-curve $-1 -1 $-1 4.949943602846647472 1.449999981599507493 -2.189999999999999503 -0.0003107715112837493841 0.9999999517105327973 0 I I #
ATTRIB_CUSTOM-attrib $644 -1 $-1 $-1 $551 @22 generic_tag_attrib_def 3 3 -1 @23 generic_tag_attrib_def  1 1 @1 9 0 5 361 372 377 380 591 0 #
plane-surface $-1 -1 $-1 4.95000575714617419 1.250000000041430415 -2.189999999999999503 0.9999999517105327973 0.0003107715112837493841 0 -0.0003107715112837493841 0.9999999517105327973 0 forward_v I I I I #
point $-1 -1 $-1 4.95000575714617419 1.250000000041430415 -2.089999999999999858 #
ATTRIB_CUSTOM-attrib $-1 -1 $-1 $-1 $555 @22 generic_tag_attrib_def 3 3 -1 @23 generic_tag_attrib_def  1 0 @0  0 3 379 382 386 0 #
straight-curve $-1 -1 $-1 4.95000575714617419 1.250000000041431303 -1.589999999999998304 0 0 -1 I I #
coedge $-1 -1 $-1 $575 $562 $617 $645 forward $57 0 $-1 #
point $-1 -1 $-1 4.95000575714617419 1.250000000041430415 -2.189999999999999503 #
edge $-1 105 $-1 $603 -0.09500000032782988935 $614 -0 $565 $646 forward @7 unknown #
vertex $-1 165 $-1 $566 1 $647 #
straight-curve $-1 -1 $-1 5.185143810473438641 1.3264147895900813 -1.589999999999998304 0 0 1 I I #
ATTRIB_CUSTOM-attrib $-1 -1 $-1 $-1 $570 @22 generic_tag_attrib_def 3 3 -1 @23 generic_tag_attrib_def  1 0 @0  0 3 379 382 386 0 #
coedge $-1 -1 $-1 $573 $618 $611 $645 reversed $519 0 $-1 #
coedge $-1 -1 $-1 $617 $601 $574 $619 reversed $519 0 $-1 #
edge $-1 103 $-1 $620 0 $623 0.09500000199574670789 $574 $648 forward @7 unknown #
vertex $-1 166 $-1 $576 0 $649 #
straight-curve $-1 -1 $-1 5.330446940406399214 1.526468119356137132 -1.589999999999998304 0 0 -1 I I #
coedge $-1 -1 $-1 $577 $598 $579 $626 reversed $46 0 $-1 #
vertex $-1 143 $-1 $578 1 $650 #
straight-curve $-1 -1 $-1 5.240096042929010878 1.555823113892371268 -1.990000000000000435 0 0 1 I I #
coedge $-1 -1 $-1 $580 $579 $585 $632 forward $481 0 $-1 #
edge $-1 57 $-1 $582 -0.3139065897859915077 $651 0.3145057792397703555 $622 $278 forward @7 unknown #
point $-1 -1 $-1 5.330446940406399214 1.526468119356137132 -2.189999999999999503 #
point $-1 -1 $-1 5.240096042929010878 1.555823113892371268 -2.189999999999999503 #
ellipse-curve $-1 -1 $-1 4.950000000000000178 1.650000000000000577 -2.189999999999999503 0 0 1 0.4000000000000000222 0 0 1 I I #
ATTRIB_CUSTOM-attrib $-1 -1 $-1 $-1 $585 @17 sketch_attrib_def 1 1 3 @13 457 0 0 0 1 2 #
coedge $-1 -1 $-1 $586 $585 $598 $640 reversed $571 0 $-1 #
edge $-1 106 $-1 $651 0.1524999827964302057 $587 0.2474999909681277754 $625 $652 forward @7 unknown #
point $-1 -1 $-1 5.330393708914603401 1.773695700079641391 -2.189999999999999503 #
vertex $-1 140 $-1 $640 0 $653 #
straight-curve $-1 -1 $-1 5.330393708914603401 1.773695700079641391 -2.089999999999999858 0.9510962114041165982 0.3088947986819069458 0 I I #
ATTRIB_CUSTOM-attrib $654 -1 $-1 $-1 $591 @22 generic_tag_attrib_def 3 3 -1 @23 generic_tag_attrib_def  1 1 @1 2 0 5 361 372 377 380 591 0 #
plane-surface $-1 -1 $-1 5.22980214804798571 1.85899428438601988 -2.089999999999999858 0 0 -1 -1 0 0 forward_v I I I I #
point $-1 -1 $-1 5.129210587181368908 1.896796607436384452 -2.089999999999999858 #
ATTRIB_CUSTOM-attrib $-1 -1 $-1 $-1 $595 @22 generic_tag_attrib_def 3 3 -1 @23 generic_tag_attrib_def  1 0 @0  0 3 379 382 386 0 #
edge $-1 56 $-1 $634 0.09999999999999964473 $651 0.1999999999999992895 $598 $655 forward @7 unknown #
ellipse-curve $-1 -1 $-1 4.950000000000000178 1.650000000000000577 -2.089999999999999858 0 0 -1 0.3049999999999997158 0 0 1 I I #
ellipse-curve $-1 -1 $-1 4.950000000000000178 1.650000000000000577 -2.089999999999999858 0 0 -1 0.3049999999999997158 0 0 1 I I #
point $-1 -1 $-1 5.129291580386436955 1.403262225829660759 -2.089999999999999858 #
ATTRIB_CUSTOM-attrib $-1 -1 $-1 $-1 $606 @22 generic_tag_attrib_def 3 3 -1 @23 generic_tag_attrib_def  1 0 @0  0 3 379 382 386 0 #
edge $-1 83 $-1 $614 -0.9423859854363444422 $620 -0.3139623403902347953 $611 $656 forward @7 unknown #
straight-curve $-1 -1 $-1 5.185143810473438641 1.326414789590080856 -2.089999999999999858 0.5879182094133130754 -0.8089203786778050853 0 I I #
point $-1 -1 $-1 5.185143810473438641 1.326414789590080856 -2.089999999999999858 #
straight-curve $-1 -1 $-1 5.330446940406399214 1.526468119356137132 -2.089999999999999858 -0.9510620587295723904 0.3089999359952478875 0 I I #
point $-1 -1 $-1 5.330446940406399214 1.526468119356137132 -2.089999999999999858 #
point $-1 -1 $-1 5.240096042929010878 1.555823113892371268 -2.089999999999999858 #
vertex $-1 141 $-1 $632 0 $657 #
straight-curve $-1 -1 $-1 5.094997405182263961 1.697244240195767917 -2.189999999999999503 0.9510962114041167093 0.3088947986819070013 0 I I #
point $-1 -1 $-1 5.240039561059141704 1.744350691680665477 -2.089999999999999858 #
ATTRIB_CUSTOM-attrib $-1 -1 $-1 $-1 $636 @22 generic_tag_attrib_def 3 3 -1 @23 generic_tag_attrib_def  1 0 @0  0 3 379 382 386 0 #
straight-curve $-1 -1 $-1 5.240039561059141704 1.744350691680665477 -1.990000000000000435 -0 -0 -1 I I #
ellipse-curve $-1 -1 $-1 4.950000000000000178 1.650000000000000577 -2.089999999999999858 0 0 1 0.4000000000000000222 0 0 1 I I #
point $-1 -1 $-1 5.240039561059141704 1.744350691680665477 -2.189999999999999503 #
End-of-ASM-data 