22700 0 2 4           
16 Autodesk Neutron 20 ASM 227.1.1.65535 NT 24 Thu Aug 26 00:43:58 2021 
10 9.999999999999999547e-07 1.000000000000000036e-10 
asmheader $-1 -1 @13 227.1.1.65535 #
body $2 0 $-1 $3 $-1 $4 #
ATTRIB_CUSTOM-attrib $-1 -1 $5 $-1 $1 @20 Timestamp_attrib_def 1 1455851549001 #
lump $-1 -1 $-1 $-1 $6 $1 #
transform $-1 -1 1 0 0 0 1 0 0 0 1 0 0 0 1 no_rotate no_reflect no_shear #
ATTRIB_CUSTOM-attrib $-1 -1 $-1 $2 $1 @22 generic_tag_attrib_def 3 3 -1 @23 generic_tag_attrib_def  1 3 @3 651 1 0 0 #
shell $-1 -1 $-1 $-1 $-1 $7 $-1 $3 #
face $8 1 $-1 $9 $10 $6 $-1 $11 forward single #
ATTRIB_CUSTOM-attrib $12 -1 $-1 $-1 $7 @22 generic_tag_attrib_def 3 3 -1 @23 generic_tag_attrib_def  1 1 @1 3 0 3 466 480 651 0 #
face $13 2 $-1 $14 $15 $6 $-1 $16 forward single #
loop $-1 -1 $-1 $17 $18 $7 #
torus-surface $-1 -1 $-1 3.530799999999999272 1.649999999999999911 -1.234999999999999876 1 0 0 0.04219223593595586991 0.01000000000000000194 0 0 -1 forward_v I I I I #
ATTRIB_CUSTOM-attrib $-1 -1 $-1 $-1 $8 @22 generic_tag_attrib_def 3 3 -1 @23 generic_tag_attrib_def  1 0 @0  0 2 467 482 0 #
ATTRIB_CUSTOM-attrib $19 -1 $-1 $-1 $9 @22 generic_tag_attrib_def 3 3 -1 @23 generic_tag_attrib_def  1 1 @1 4 0 3 465 480 651 0 #
face $20 3 $-1 $21 $22 $6 $-1 $23 forward single #
loop $-1 -1 $-1 $-1 $24 $9 #
plane-surface $-1 -1 $-1 3.520799999999999486 1.699999999999999956 -1.234999999999999876 -1 0 0 0 0 1 forward_v I I I I #
loop $-1 -1 $-1 $-1 $25 $7 #
coedge $-1 -1 $-1 $18 $18 $24 $26 forward $10 0 $-1 #
ATTRIB_CUSTOM-attrib $-1 -1 $-1 $-1 $13 @22 generic_tag_attrib_def 3 3 -1 @23 generic_tag_attrib_def  1 0 @0  0 2 467 482 0 #
ATTRIB_CUSTOM-attrib $27 -1 $-1 $-1 $14 @22 generic_tag_attrib_def 3 3 -1 @23 generic_tag_attrib_def  1 1 @1 3 0 3 465 480 651 0 #
face $28 4 $-1 $29 $30 $6 $-1 $31 forward single #
loop $-1 -1 $-1 $32 $33 $14 #
cone-surface $-1 -1 $-1 3.570799999999999308 1.649999999999999911 -1.234999999999999876 1 0 0 0 0.0625 0 1 I I 0.2425356250363319699 0.9701425001453322094 0.0625 forward I I I I #
coedge $-1 -1 $-1 $24 $24 $18 $26 reversed $15 0 $-1 #
coedge $-1 -1 $-1 $25 $25 $34 $35 forward $17 0 $-1 #
edge $-1 9 $-1 $36 -3.141592653589793116 $36 3.141592653589793116 $24 $37 forward @7 tangent #
ATTRIB_CUSTOM-attrib $-1 -1 $-1 $-1 $20 @22 generic_tag_attrib_def 3 3 -1 @23 generic_tag_attrib_def  1 0 @0  0 2 467 482 0 #
ATTRIB_CUSTOM-attrib $38 -1 $-1 $-1 $21 @22 generic_tag_attrib_def 3 3 -1 @23 generic_tag_attrib_def  1 1 @1 2 0 3 466 480 651 0 #
face $39 5 $-1 $40 $41 $6 $-1 $42 forward single #
loop $-1 -1 $-1 $43 $44 $21 #
torus-surface $-1 -1 $-1 3.630799999999999361 1.649999999999999911 -1.234999999999999876 -1 0 -2.220446049250313081e-16 0.1079999999999999849 0.01000000000000000194 -2.220446049250313081e-16 0 1 forward_v I I I I #
loop $-1 -1 $-1 $-1 $34 $14 #
coedge $-1 -1 $-1 $33 $33 $45 $46 reversed $22 0 $-1 #
coedge $-1 -1 $-1 $34 $34 $25 $35 reversed $32 0 $-1 #
edge $-1 10 $-1 $47 -3.141592653589793116 $47 3.141592653589793116 $34 $48 forward @7 tangent #
vertex $-1 17 $-1 $26 0 $49 #
ellipse-curve $-1 -1 $-1 3.520799999999999486 1.649999999999999911 -1.234999999999999876 1 0 0 0 -0.04219223593595586991 0 1 I I #
ATTRIB_CUSTOM-attrib $-1 -1 $-1 $-1 $28 @22 generic_tag_attrib_def 3 3 -1 @23 generic_tag_attrib_def  1 0 @0  0 2 467 482 0 #
ATTRIB_CUSTOM-attrib $50 -1 $-1 $-1 $29 @22 generic_tag_attrib_def 3 3 -1 @23 generic_tag_attrib_def  1 1 @1 3 0 3 460 480 651 0 #
face $51 6 $-1 $52 $53 $6 $-1 $54 forward single #
loop $-1 -1 $-1 $55 $56 $29 #
cone-surface $-1 -1 $-1 3.847899999999999654 1.649999999999999911 -1.234999999999999876 -1 0 -2.220446049250313081e-16 0 0.1179999999999999938 0 1 I I 0 1 0.1179999999999999938 forward I I I I #
loop $-1 -1 $-1 $-1 $57 $21 #
coedge $-1 -1 $-1 $44 $44 $58 $59 forward $30 0 $-1 #
coedge $-1 -1 $-1 $45 $45 $33 $46 forward $53 0 $-1 #
edge $-1 11 $-1 $60 0 $60 6.283185307179586232 $45 $61 forward @7 unknown #
vertex $-1 18 $-1 $35 0 $62 #
ellipse-curve $-1 -1 $-1 3.528374643749636164 1.649999999999999911 -1.234999999999999876 -1 0 8.557677408531578344e-15 0 -0.05189366093740921393 0 1 I I #
point $-1 -1 $-1 3.520799999999999486 1.692192235935955802 -1.234999999999999876 #
ATTRIB_CUSTOM-attrib $-1 -1 $-1 $-1 $39 @22 generic_tag_attrib_def 3 3 -1 @23 generic_tag_attrib_def  1 0 @0  0 2 467 482 0 #
ATTRIB_CUSTOM-attrib $63 -1 $-1 $-1 $40 @22 generic_tag_attrib_def 3 3 -1 @23 generic_tag_attrib_def  1 1 @1 1 0 3 460 480 651 0 #
face $64 7 $-1 $65 $66 $6 $-1 $67 forward single #
loop $-1 -1 $-1 $68 $45 $40 #
plane-surface $-1 -1 $-1 3.620799999999999574 1.649999999999999911 -1.234999999999999876 -1 0 -2.220446049250313081e-16 0 1 0 forward_v I I I I #
loop $-1 -1 $-1 $-1 $58 $29 #
coedge $-1 -1 $-1 $56 $56 $69 $70 reversed $41 0 $-1 #
coedge $-1 -1 $-1 $57 $57 $71 $72 forward $43 0 $-1 #
coedge $-1 -1 $-1 $58 $58 $44 $59 reversed $55 0 $-1 #
edge $-1 12 $-1 $73 -3.141592653589793116 $73 3.141592653589793116 $58 $74 forward @7 tangent #
vertex $-1 19 $-1 $46 0 $75 #
ellipse-curve $-1 -1 $-1 3.620799999999999574 1.649999999999999911 -1.234999999999999876 1 0 2.220446049250313081e-16 0 0.0750000000000000111 0 1 I I #
point $-1 -1 $-1 3.528374643749636164 1.701893660937409125 -1.234999999999999876 #
ATTRIB_CUSTOM-attrib $-1 -1 $-1 $-1 $51 @22 generic_tag_attrib_def 3 3 -1 @23 generic_tag_attrib_def  1 0 @0  0 2 467 482 0 #
ATTRIB_CUSTOM-attrib $76 -1 $-1 $-1 $52 @22 generic_tag_attrib_def 3 3 -1 @23 generic_tag_attrib_def  1 1 @1 1 0 3 466 480 651 0 #
face $77 8 $-1 $-1 $78 $6 $-1 $79 forward single #
loop $-1 -1 $-1 $80 $69 $52 #
torus-surface $-1 -1 $-1 4.070220375733713425 1.649999999999999911 -1.234999999999999876 1 0 2.220446049250313081e-16 0.1079999999999999849 0.01000000000000000194 2.220446049250313081e-16 0 -1 forward_v I I I I #
loop $-1 -1 $-1 $-1 $71 $40 #
coedge $-1 -1 $-1 $69 $69 $56 $70 forward $66 0 $-1 #
edge $-1 14 $-1 $81 -3.141592653589793116 $81 3.141592653589793116 $56 $82 forward @7 tangent #
coedge $-1 -1 $-1 $71 $71 $57 $72 reversed $68 0 $-1 #
edge $-1 13 $-1 $83 -3.141592653589793116 $83 3.141592653589793116 $71 $84 forward @7 tangent #
vertex $-1 20 $-1 $59 0 $85 #
ellipse-curve $-1 -1 $-1 3.630799999999999361 1.649999999999999911 -1.234999999999999876 -1 0 -2.220446049250313081e-16 0 -0.1179999999999999938 2.220446049250267675e-18 1 I I #
point $-1 -1 $-1 3.620799999999999574 1.724999999999999867 -1.234999999999999876 #
ATTRIB_CUSTOM-attrib $-1 -1 $-1 $-1 $64 @22 generic_tag_attrib_def 3 3 -1 @23 generic_tag_attrib_def  1 0 @0  0 2 467 482 0 #
ATTRIB_CUSTOM-attrib $86 -1 $-1 $-1 $65 @22 generic_tag_attrib_def 3 3 -1 @23 generic_tag_attrib_def  1 1 @1 6 0 3 465 480 651 0 #
loop $-1 -1 $-1 $87 $88 $65 #
torus-surface $-1 -1 $-1 3.936210810702600593 1.649999999999999911 -1.234999999999999876 1 0 0 0.002864698067084336941 0.1803290792329759751 0 0 -1 forward_v I I I I #
loop $-1 -1 $-1 $-1 $89 $52 #
vertex $-1 22 $-1 $70 0 $90 #
ellipse-curve $-1 -1 $-1 4.070220375733713425 1.649999999999999911 -1.234999999999999876 1 0 2.220446049250313081e-16 0 -0.1179999999999999938 -1.061289781897637006e-18 1 I I #
vertex $-1 21 $-1 $72 0 $91 #
ellipse-curve $-1 -1 $-1 3.620799999999999574 1.649999999999999911 -1.234999999999999876 1 0 2.220446049250313081e-16 -4.512551788340441109e-34 -0.1079999999999999849 2.032272655246007592e-18 1 I I #
point $-1 -1 $-1 3.630799999999999361 1.767999999999999794 -1.234999999999999876 #
ATTRIB_CUSTOM-attrib $-1 -1 $-1 $-1 $77 @22 generic_tag_attrib_def 3 3 -1 @23 generic_tag_attrib_def  1 0 @0  0 2 467 482 0 #
loop $-1 -1 $-1 $-1 $92 $65 #
coedge $-1 -1 $-1 $88 $88 $-1 $93 forward $78 0 $-1 #
coedge $-1 -1 $-1 $89 $89 $92 $94 forward $80 0 $-1 #
point $-1 -1 $-1 4.070220375733713425 1.767999999999999794 -1.234999999999999876 #
point $-1 -1 $-1 3.620799999999999574 1.758000000000000007 -1.234999999999999876 #
coedge $-1 -1 $-1 $92 $92 $89 $94 reversed $87 0 $-1 #
edge $-1 16 $-1 $95 1 $95 0 $88 $-1 forward @7 unknown #
edge $-1 15 $-1 $96 -3.141592653589793116 $96 3.141592653589793116 $92 $97 forward @7 tangent #
vertex $-1 24 $-1 $93 0 $98 #
vertex $-1 23 $-1 $94 0 $99 #
ellipse-curve $-1 -1 $-1 4.078088061371103024 1.649999999999999911 -1.234999999999999876 -1 0 -2.220446049250313081e-16 0 -0.1141724810822886127 0 1 I I #
point $-1 -1 $-1 4.116517134279998658 1.649999999999999911 -1.234999999999999876 #
point $-1 -1 $-1 4.078088061371103024 1.764172481082288524 -1.234999999999999876 #
End-of-ASM-data 