# WaveFront *.obj file
# Vertices: 116
# Triangles : 236

v 1.1499999999999964e+00 1.0500000000000000e+01 1.8500000000000010e+00
v 1.1499999999999964e+00 1.0626434583165503e+01 1.8263652802915273e+00
v 1.1499999999999964e+00 1.0735793475276294e+01 1.7586531210272336e+00
v 1.1499999999999964e+00 1.0813307151974271e+01 1.6560084245217914e+00
v 1.1499999999999964e+00 1.0848506961703261e+01 1.5322939258121586e+00
v 1.1499999999999964e+00 1.0836638975110485e+01 1.4042179534747741e+00
v 1.1499999999999964e+00 1.0779306029548083e+01 1.2890778772672635e+00
v 1.1499999999999964e+00 1.0684251257007075e+01 1.2024240024946384e+00
v 1.1499999999999964e+00 1.0564312331235799e+01 1.1559594151106378e+00
v 1.1499999999999964e+00 1.0435687668764201e+01 1.1559594151106378e+00
v 1.1499999999999964e+00 1.0315748742992925e+01 1.2024240024946384e+00
v 1.1499999999999964e+00 1.0220693970451917e+01 1.2890778772672635e+00
v 1.1499999999999964e+00 1.0163361024889515e+01 1.4042179534747741e+00
v 1.1499999999999964e+00 1.0151493038296739e+01 1.5322939258121588e+00
v 1.1499999999999964e+00 1.0186692848025729e+01 1.6560084245217914e+00
v 1.1499999999999964e+00 1.0264206524723706e+01 1.7586531210272334e+00
v 1.1499999999999964e+00 1.0373565416834497e+01 1.8263652802915273e+00
v 1.9499999999999971e+00 1.0500000000000000e+01 1.8500000000000010e+00
v 1.9499999999999971e+00 1.0373565416834497e+01 1.8263652802915273e+00
v 1.9499999999999971e+00 1.0264206524723706e+01 1.7586531210272336e+00
v 1.9499999999999971e+00 1.0186692848025729e+01 1.6560084245217914e+00
v 1.9499999999999971e+00 1.0151493038296739e+01 1.5322939258121586e+00
v 1.9499999999999971e+00 1.0163361024889515e+01 1.4042179534747741e+00
v 1.9499999999999971e+00 1.0220693970451917e+01 1.2890778772672635e+00
v 1.9499999999999971e+00 1.0315748742992925e+01 1.2024240024946384e+00
v 1.9499999999999971e+00 1.0435687668764201e+01 1.1559594151106378e+00
v 1.9499999999999971e+00 1.0564312331235799e+01 1.1559594151106378e+00
v 1.9499999999999971e+00 1.0684251257007075e+01 1.2024240024946384e+00
v 1.9499999999999971e+00 1.0779306029548083e+01 1.2890778772672635e+00
v 1.9499999999999971e+00 1.0836638975110485e+01 1.4042179534747741e+00
v 1.9499999999999971e+00 1.0848506961703261e+01 1.5322939258121588e+00
v 1.9499999999999971e+00 1.0813307151974271e+01 1.6560084245217914e+00
v 1.9499999999999971e+00 1.0735793475276294e+01 1.7586531210272334e+00
v 1.9499999999999971e+00 1.0626434583165503e+01 1.8263652802915273e+00
v 1.1499999999999981e+00 1.0500000000000000e+01 -1.1499999999999990e+00
v 1.1499999999999981e+00 1.0626434583165503e+01 -1.1736347197084727e+00
v 1.1499999999999981e+00 1.0735793475276294e+01 -1.2413468789727664e+00
v 1.1499999999999981e+00 1.0813307151974271e+01 -1.3439915754782086e+00
v 1.1499999999999981e+00 1.0848506961703261e+01 -1.4677060741878414e+00
v 1.1499999999999981e+00 1.0836638975110485e+01 -1.5957820465252259e+00
v 1.1499999999999981e+00 1.0779306029548083e+01 -1.7109221227327365e+00
v 1.1499999999999981e+00 1.0684251257007075e+01 -1.7975759975053616e+00
v 1.1499999999999981e+00 1.0564312331235799e+01 -1.8440405848893622e+00
v 1.1499999999999981e+00 1.0435687668764201e+01 -1.8440405848893622e+00
v 1.1499999999999981e+00 1.0315748742992925e+01 -1.7975759975053616e+00
v 1.1499999999999981e+00 1.0220693970451917e+01 -1.7109221227327365e+00
v 1.1499999999999981e+00 1.0163361024889515e+01 -1.5957820465252259e+00
v 1.1499999999999981e+00 1.0151493038296739e+01 -1.4677060741878412e+00
v 1.1499999999999981e+00 1.0186692848025729e+01 -1.3439915754782086e+00
v 1.1499999999999981e+00 1.0264206524723706e+01 -1.2413468789727666e+00
v 1.1499999999999981e+00 1.0373565416834497e+01 -1.1736347197084727e+00
v 1.9499999999999971e+00 1.0500000000000000e+01 -1.1499999999999990e+00
v 1.9499999999999971e+00 1.0373565416834497e+01 -1.1736347197084727e+00
v 1.9499999999999971e+00 1.0264206524723706e+01 -1.2413468789727664e+00
v 1.9499999999999971e+00 1.0186692848025729e+01 -1.3439915754782086e+00
v 1.9499999999999971e+00 1.0151493038296739e+01 -1.4677060741878414e+00
v 1.9499999999999971e+00 1.0163361024889515e+01 -1.5957820465252259e+00
v 1.9499999999999971e+00 1.0220693970451917e+01 -1.7109221227327365e+00
v 1.9499999999999971e+00 1.0315748742992925e+01 -1.7975759975053616e+00
v 1.9499999999999971e+00 1.0435687668764201e+01 -1.8440405848893622e+00
v 1.9499999999999971e+00 1.0564312331235799e+01 -1.8440405848893622e+00
v 1.9499999999999971e+00 1.0684251257007075e+01 -1.7975759975053616e+00
v 1.9499999999999971e+00 1.0779306029548083e+01 -1.7109221227327365e+00
v 1.9499999999999971e+00 1.0836638975110485e+01 -1.5957820465252259e+00
v 1.9499999999999971e+00 1.0848506961703261e+01 -1.4677060741878412e+00
v 1.9499999999999971e+00 1.0813307151974271e+01 -1.3439915754782086e+00
v 1.9499999999999971e+00 1.0735793475276294e+01 -1.2413468789727666e+00
v 1.9499999999999971e+00 1.0626434583165503e+01 -1.1736347197084727e+00
v 1.9500000000000006e+00 7.5999999999999979e+00 -2.4999999999999969e+00
v 1.9500000000000006e+00 7.5999999999999979e+00 -2.2499999999999969e+00
v 1.1499999999999981e+00 7.5999999999999979e+00 -2.2499999999999969e+00
v 1.1499999999999981e+00 7.5999999999999979e+00 -2.4999999999999969e+00
v 1.9500000000000006e+00 1.1299999999999997e+01 -2.4999999999999969e+00
v 1.1499999999999981e+00 1.1299999999999997e+01 -2.4999999999999969e+00
v 1.9499999999999971e+00 1.1300000000000001e+01 2.5000000000000031e+00
v 1.1499999999999964e+00 1.1300000000000001e+01 2.5000000000000031e+00
v 1.9499999999999971e+00 7.5999999999999996e+00 2.5000000000000031e+00
v 1.1499999999999964e+00 7.5999999999999996e+00 2.5000000000000031e+00
v 1.9499999999999971e+00 7.5999999999999996e+00 2.2500000000000031e+00
v 1.1499999999999964e+00 7.5999999999999996e+00 2.2500000000000031e+00
v 1.9499999999999971e+00 7.8999999999999986e+00 2.2500000000000031e+00
v 1.1499999999999964e+00 7.8999999999999986e+00 2.2500000000000031e+00
v 1.9499999999999971e+00 7.8999999999999986e+00 1.8000000000000038e+00
v 1.1499999999999964e+00 7.8999999999999986e+00 1.8000000000000038e+00
v 1.9499999999999971e+00 8.1999999999999993e+00 1.8000000000000038e+00
v 1.1499999999999964e+00 8.1999999999999993e+00 1.8000000000000038e+00
v 1.9499999999999971e+00 8.1999999999999993e+00 1.3500000000000045e+00
v 1.1499999999999964e+00 8.1999999999999993e+00 1.3500000000000045e+00
v 1.9499999999999971e+00 8.5000000000000000e+00 1.3500000000000045e+00
v 1.1499999999999964e+00 8.5000000000000000e+00 1.3500000000000045e+00
v 1.9499999999999971e+00 8.5000000000000000e+00 9.0000000000000169e-01
v 1.1499999999999964e+00 8.5000000000000000e+00 9.0000000000000169e-01
v 1.9499999999999971e+00 8.7999999999999989e+00 9.0000000000000169e-01
v 1.1499999999999964e+00 8.7999999999999989e+00 9.0000000000000169e-01
v 1.9499999999999971e+00 8.7999999999999989e+00 4.5000000000000240e-01
v 1.1499999999999981e+00 8.7999999999999989e+00 4.5000000000000240e-01
v 1.9499999999999971e+00 9.0999999999999996e+00 4.5000000000000240e-01
v 1.1499999999999981e+00 9.0999999999999996e+00 4.5000000000000240e-01
v 1.9499999999999971e+00 9.0999999999999996e+00 -4.4999999999999618e-01
v 1.1499999999999981e+00 9.0999999999999996e+00 -4.4999999999999618e-01
v 1.9499999999999971e+00 8.7999999999999989e+00 -4.4999999999999618e-01
v 1.1499999999999981e+00 8.7999999999999989e+00 -4.4999999999999618e-01
v 1.9499999999999971e+00 8.7999999999999989e+00 -8.9999999999999547e-01
v 1.1499999999999981e+00 8.7999999999999989e+00 -8.9999999999999547e-01
v 1.9499999999999971e+00 8.4999999999999982e+00 -8.9999999999999547e-01
v 1.1499999999999981e+00 8.4999999999999982e+00 -8.9999999999999547e-01
v 1.9499999999999971e+00 8.4999999999999982e+00 -1.3499999999999983e+00
v 1.1499999999999981e+00 8.4999999999999982e+00 -1.3499999999999983e+00
v 1.9499999999999971e+00 8.1999999999999993e+00 -1.3499999999999983e+00
v 1.1499999999999981e+00 8.1999999999999993e+00 -1.3499999999999983e+00
v 1.9500000000000006e+00 8.1999999999999993e+00 -1.7999999999999976e+00
v 1.1499999999999981e+00 8.1999999999999993e+00 -1.7999999999999976e+00
v 1.9500000000000006e+00 7.8999999999999986e+00 -1.7999999999999976e+00
v 1.1499999999999981e+00 7.8999999999999986e+00 -1.7999999999999976e+00
v 1.9500000000000006e+00 7.8999999999999986e+00 -2.2499999999999969e+00
v 1.1499999999999981e+00 7.8999999999999986e+00 -2.2499999999999969e+00

vn 4.1410085556330694e-16 -3.6124166618715176e-01 -9.3247222940435637e-01
vn 4.1410085556330684e-16 -3.6124166618715214e-01 -9.3247222940435615e-01
vn 4.4408920985006262e-16 -2.4492935982947064e-16 -1.0000000000000000e+00
vn 4.4408920985006262e-16 1.2075949781892446e-47 -1.0000000000000000e+00
vn 4.1410085556330689e-16 3.6124166618715203e-01 -9.3247222940435626e-01
vn 4.1410085556330684e-16 3.6124166618715242e-01 -9.3247222940435615e-01
vn 3.2818588612067347e-16 6.7369564364655565e-01 -7.3900891722066053e-01
vn 3.2818588612067337e-16 6.7369564364655599e-01 -7.3900891722066031e-01
vn 1.9794759421666951e-16 8.9516329135506167e-01 -4.4573835577653953e-01
vn 1.9794759421666916e-16 8.9516329135506212e-01 -4.4573835577653875e-01
vn 4.0975382848219907e-17 9.9573417629503436e-01 -9.2268359463303348e-02
vn 4.0975382848219118e-17 9.9573417629503447e-01 -9.2268359463301572e-02
vn -1.2153078102631685e-16 9.6182564317281904e-01 2.7366299007208289e-01
vn -1.2153078102631734e-16 9.6182564317281871e-01 2.7366299007208400e-01
vn -2.6762353949794378e-16 7.9801722728023949e-01 6.0263463637925641e-01
vn -2.6762353949794407e-16 7.9801722728023905e-01 6.0263463637925707e-01
vn -3.7757225600714737e-16 5.2643216287735739e-01 8.5021713572961322e-01
vn -3.7757225600714742e-16 5.2643216287735695e-01 8.5021713572961333e-01
vn -4.3652774714249093e-16 1.8374951781656881e-01 9.8297309968390212e-01
vn -4.3652774714249098e-16 1.8374951781656862e-01 9.8297309968390223e-01
vn -4.3652774714249093e-16 -1.8374951781656884e-01 9.8297309968390212e-01
vn -4.3652774714249093e-16 -1.8374951781656865e-01 9.8297309968390212e-01
vn -3.7757225600714732e-16 -5.2643216287735739e-01 8.5021713572961310e-01
vn -3.7757225600714752e-16 -5.2643216287735684e-01 8.5021713572961355e-01
vn -2.6762353949794378e-16 -7.9801722728023949e-01 6.0263463637925641e-01
vn -2.6762353949794407e-16 -7.9801722728023894e-01 6.0263463637925707e-01
vn -1.2153078102631680e-16 -9.6182564317281904e-01 2.7366299007208289e-01
vn -1.2153078102631722e-16 -9.6182564317281882e-01 2.7366299007208383e-01
vn 4.0975382848219648e-17 -9.9573417629503436e-01 -9.2268359463302654e-02
vn 4.0975382848219451e-17 -9.9573417629503447e-01 -9.2268359463302210e-02
vn 1.9794759421666951e-16 -8.9516329135506179e-01 -4.4573835577653942e-01
vn 1.9794759421666914e-16 -8.9516329135506212e-01 -4.4573835577653859e-01
vn 3.2818588612067352e-16 -6.7369564364655554e-01 -7.3900891722066064e-01
vn 3.2818588612067327e-16 -6.7369564364655632e-01 -7.3900891722066009e-01
vn -2.7192621468937821e-32 -1.0000000000000000e+00 1.2246467991473532e-16
vn 4.4408920985006262e-16 -1.2246467991473532e-16 -1.0000000000000000e+00
vn 2.6385089303524136e-31 1.0000000000000000e+00 -6.5537173173481047e-16
vn -4.4408920985006262e-16 1.2246467991473532e-16 1.0000000000000000e+00
vn 1.0000000000000000e+00 1.2415761705468618e-48 2.2204460492503131e-16
vn -1.0000000000000000e+00 -1.2415761705468618e-48 -2.2204460492503131e-16

g face 0
f 2//1 34//2 1//3
f 1//3 34//2 18//3
f 1//4 18//4 17//5
f 17//5 18//4 19//6
f 17//5 19//6 16//7
f 16//7 19//6 20//8
f 16//7 20//8 15//9
f 15//9 20//8 21//10
f 15//9 21//10 14//11
f 14//11 21//10 22//12
f 14//11 22//12 13//13
f 13//13 22//12 23//14
f 13//13 23//14 12//15
f 12//15 23//14 24//16
f 12//15 24//16 11//17
f 11//17 24//16 25//18
f 11//17 25//18 10//19
f 10//19 25//18 26//20
f 10//19 26//20 9//21
f 9//21 26//20 27//22
f 9//21 27//22 8//23
f 8//23 27//22 28//24
f 8//23 28//24 7//25
f 7//25 28//24 29//26
f 7//25 29//26 6//27
f 6//27 29//26 30//28
f 6//27 30//28 5//29
f 5//29 30//28 31//30
f 5//29 31//30 4//31
f 4//31 31//30 32//32
f 4//31 32//32 3//33
f 3//33 32//32 33//34
f 3//33 33//34 2//1
f 2//1 33//34 34//2

g face 1
f 36//1 68//2 35//3
f 35//3 68//2 52//3
f 35//4 52//4 51//5
f 51//5 52//4 53//6
f 51//5 53//6 50//7
f 50//7 53//6 54//8
f 50//7 54//8 49//9
f 49//9 54//8 55//10
f 49//9 55//10 48//11
f 48//11 55//10 56//12
f 48//11 56//12 47//13
f 47//13 56//12 57//14
f 47//13 57//14 46//15
f 46//15 57//14 58//16
f 46//15 58//16 45//17
f 45//17 58//16 59//18
f 45//17 59//18 44//19
f 44//19 59//18 60//20
f 44//19 60//20 43//21
f 43//21 60//20 61//22
f 43//21 61//22 42//23
f 42//23 61//22 62//24
f 42//23 62//24 41//25
f 41//25 62//24 63//26
f 41//25 63//26 40//27
f 40//27 63//26 64//28
f 40//27 64//28 39//29
f 39//29 64//28 65//30
f 39//29 65//30 38//31
f 38//31 65//30 66//32
f 38//31 66//32 37//33
f 37//33 66//32 67//34
f 37//33 67//34 36//1
f 36//1 67//34 68//2

g face 2
f 69//35 70//35 72//35
f 72//35 70//35 71//35

g face 3
f 73//36 69//36 74//36
f 74//36 69//36 72//36

g face 4
f 75//37 73//37 76//37
f 76//37 73//37 74//37

g face 5
f 77//38 75//38 78//38
f 78//38 75//38 76//38

g face 6
f 79//35 77//35 80//35
f 80//35 77//35 78//35

g face 7
f 81//36 79//36 82//36
f 82//36 79//36 80//36

g face 8
f 83//35 81//35 84//35
f 84//35 81//35 82//35

g face 9
f 85//36 83//36 86//36
f 86//36 83//36 84//36

g face 10
f 87//35 85//35 88//35
f 88//35 85//35 86//35

g face 11
f 89//36 87//36 90//36
f 90//36 87//36 88//36

g face 12
f 91//35 89//35 92//35
f 92//35 89//35 90//35

g face 13
f 93//36 91//36 94//36
f 94//36 91//36 92//36

g face 14
f 95//35 93//35 96//35
f 96//35 93//35 94//35

g face 15
f 97//36 95//36 98//36
f 98//36 95//36 96//36

g face 16
f 99//35 97//35 100//35
f 100//35 97//35 98//35

g face 17
f 101//38 99//38 102//38
f 102//38 99//38 100//38

g face 18
f 103//35 101//35 104//35
f 104//35 101//35 102//35

g face 19
f 105//38 103//38 106//38
f 106//38 103//38 104//38

g face 20
f 107//35 105//35 108//35
f 108//35 105//35 106//35

g face 21
f 109//38 107//38 110//38
f 110//38 107//38 108//38

g face 22
f 111//35 109//35 112//35
f 112//35 109//35 110//35

g face 23
f 113//38 111//38 114//38
f 114//38 111//38 112//38

g face 24
f 115//35 113//35 116//35
f 116//35 113//35 114//35

g face 25
f 70//38 115//38 71//38
f 71//38 115//38 116//38

g face 26
f 70//39 69//39 115//39
f 115//39 69//39 73//39
f 115//39 73//39 59//39
f 59//39 73//39 60//39
f 60//39 73//39 61//39
f 61//39 73//39 62//39
f 62//39 73//39 63//39
f 63//39 73//39 64//39
f 64//39 73//39 65//39
f 65//39 73//39 75//39
f 65//39 75//39 30//39
f 30//39 75//39 31//39
f 31//39 75//39 32//39
f 32//39 75//39 33//39
f 33//39 75//39 34//39
f 34//39 75//39 18//39
f 18//39 75//39 19//39
f 19//39 75//39 81//39
f 19//39 81//39 20//39
f 20//39 81//39 85//39
f 20//39 85//39 21//39
f 21//39 85//39 89//39
f 21//39 89//39 22//39
f 22//39 89//39 93//39
f 22//39 93//39 23//39
f 23//39 93//39 97//39
f 23//39 97//39 24//39
f 24//39 97//39 25//39
f 25//39 97//39 53//39
f 25//39 53//39 26//39
f 26//39 53//39 52//39
f 26//39 52//39 27//39
f 27//39 52//39 68//39
f 27//39 68//39 28//39
f 28//39 68//39 67//39
f 28//39 67//39 29//39
f 29//39 67//39 66//39
f 29//39 66//39 30//39
f 30//39 66//39 65//39
f 75//39 77//39 81//39
f 81//39 77//39 79//39
f 81//39 83//39 85//39
f 85//39 87//39 89//39
f 89//39 91//39 93//39
f 93//39 95//39 97//39
f 97//39 99//39 53//39
f 53//39 99//39 54//39
f 54//39 99//39 55//39
f 55//39 99//39 56//39
f 56//39 99//39 103//39
f 56//39 103//39 57//39
f 57//39 103//39 107//39
f 57//39 107//39 58//39
f 58//39 107//39 111//39
f 58//39 111//39 115//39
f 115//39 111//39 113//39
f 99//39 101//39 103//39
f 103//39 105//39 107//39
f 107//39 109//39 111//39
f 59//39 58//39 115//39

g face 27
f 71//40 116//40 72//40
f 72//40 116//40 74//40
f 74//40 116//40 45//40
f 74//40 45//40 44//40
f 114//40 112//40 116//40
f 116//40 112//40 46//40
f 116//40 46//40 45//40
f 110//40 108//40 112//40
f 112//40 108//40 46//40
f 106//40 104//40 108//40
f 108//40 104//40 47//40
f 108//40 47//40 46//40
f 102//40 100//40 104//40
f 104//40 100//40 48//40
f 104//40 48//40 47//40
f 98//40 51//40 100//40
f 100//40 51//40 50//40
f 100//40 50//40 49//40
f 96//40 94//40 98//40
f 98//40 94//40 13//40
f 98//40 13//40 12//40
f 92//40 90//40 94//40
f 94//40 90//40 14//40
f 94//40 14//40 13//40
f 88//40 86//40 90//40
f 90//40 86//40 15//40
f 90//40 15//40 14//40
f 84//40 82//40 86//40
f 86//40 82//40 16//40
f 86//40 16//40 15//40
f 80//40 78//40 82//40
f 82//40 78//40 76//40
f 82//40 76//40 17//40
f 17//40 76//40 1//40
f 1//40 76//40 2//40
f 2//40 76//40 3//40
f 3//40 76//40 4//40
f 4//40 76//40 5//40
f 5//40 76//40 6//40
f 6//40 76//40 39//40
f 6//40 39//40 38//40
f 76//40 74//40 39//40
f 39//40 74//40 40//40
f 40//40 74//40 41//40
f 41//40 74//40 42//40
f 42//40 74//40 43//40
f 43//40 74//40 44//40
f 51//40 10//40 35//40
f 35//40 10//40 9//40
f 35//40 9//40 36//40
f 36//40 9//40 8//40
f 36//40 8//40 37//40
f 37//40 8//40 7//40
f 37//40 7//40 38//40
f 38//40 7//40 6//40
f 49//40 48//40 100//40
f 17//40 16//40 82//40
f 12//40 11//40 98//40
f 98//40 11//40 51//40
f 11//40 10//40 51//40

g halfedge 0 edge 0
l 1 2 3 4 5 6 7 8 9 10 11 12 13 14 15 16 17 1

g halfedge 1 edge 0
l 1 17 16 15 14 13 12 11 10 9 8 7 6 5 4 3 2 1

g halfedge 2 edge 1
l 18 34 33 32 31 30 29 28 27 26 25 24 23 22 21 20 19 18

g halfedge 3 edge 1
l 18 19 20 21 22 23 24 25 26 27 28 29 30 31 32 33 34 18

g halfedge 4 edge 2
l 35 36 37 38 39 40 41 42 43 44 45 46 47 48 49 50 51 35

g halfedge 5 edge 2
l 35 51 50 49 48 47 46 45 44 43 42 41 40 39 38 37 36 35

g halfedge 6 edge 3
l 52 68 67 66 65 64 63 62 61 60 59 58 57 56 55 54 53 52

g halfedge 7 edge 3
l 52 53 54 55 56 57 58 59 60 61 62 63 64 65 66 67 68 52

g halfedge 8 edge 4
l 70 69

g halfedge 9 edge 4
l 69 70

g halfedge 10 edge 5
l 71 70

g halfedge 11 edge 5
l 70 71

g halfedge 12 edge 6
l 71 72

g halfedge 13 edge 6
l 72 71

g halfedge 14 edge 7
l 69 72

g halfedge 15 edge 7
l 72 69

g halfedge 16 edge 8
l 69 73

g halfedge 17 edge 8
l 73 69

g halfedge 18 edge 9
l 72 74

g halfedge 19 edge 9
l 74 72

g halfedge 20 edge 10
l 73 74

g halfedge 21 edge 10
l 74 73

g halfedge 22 edge 11
l 73 75

g halfedge 23 edge 11
l 75 73

g halfedge 24 edge 12
l 74 76

g halfedge 25 edge 12
l 76 74

g halfedge 26 edge 13
l 75 76

g halfedge 27 edge 13
l 76 75

g halfedge 28 edge 14
l 75 77

g halfedge 29 edge 14
l 77 75

g halfedge 30 edge 15
l 76 78

g halfedge 31 edge 15
l 78 76

g halfedge 32 edge 16
l 77 78

g halfedge 33 edge 16
l 78 77

g halfedge 34 edge 17
l 77 79

g halfedge 35 edge 17
l 79 77

g halfedge 36 edge 18
l 78 80

g halfedge 37 edge 18
l 80 78

g halfedge 38 edge 19
l 79 80

g halfedge 39 edge 19
l 80 79

g halfedge 40 edge 20
l 79 81

g halfedge 41 edge 20
l 81 79

g halfedge 42 edge 21
l 80 82

g halfedge 43 edge 21
l 82 80

g halfedge 44 edge 22
l 81 82

g halfedge 45 edge 22
l 82 81

g halfedge 46 edge 23
l 81 83

g halfedge 47 edge 23
l 83 81

g halfedge 48 edge 24
l 82 84

g halfedge 49 edge 24
l 84 82

g halfedge 50 edge 25
l 83 84

g halfedge 51 edge 25
l 84 83

g halfedge 52 edge 26
l 83 85

g halfedge 53 edge 26
l 85 83

g halfedge 54 edge 27
l 84 86

g halfedge 55 edge 27
l 86 84

g halfedge 56 edge 28
l 85 86

g halfedge 57 edge 28
l 86 85

g halfedge 58 edge 29
l 85 87

g halfedge 59 edge 29
l 87 85

g halfedge 60 edge 30
l 86 88

g halfedge 61 edge 30
l 88 86

g halfedge 62 edge 31
l 87 88

g halfedge 63 edge 31
l 88 87

g halfedge 64 edge 32
l 87 89

g halfedge 65 edge 32
l 89 87

g halfedge 66 edge 33
l 88 90

g halfedge 67 edge 33
l 90 88

g halfedge 68 edge 34
l 89 90

g halfedge 69 edge 34
l 90 89

g halfedge 70 edge 35
l 89 91

g halfedge 71 edge 35
l 91 89

g halfedge 72 edge 36
l 90 92

g halfedge 73 edge 36
l 92 90

g halfedge 74 edge 37
l 91 92

g halfedge 75 edge 37
l 92 91

g halfedge 76 edge 38
l 91 93

g halfedge 77 edge 38
l 93 91

g halfedge 78 edge 39
l 92 94

g halfedge 79 edge 39
l 94 92

g halfedge 80 edge 40
l 93 94

g halfedge 81 edge 40
l 94 93

g halfedge 82 edge 41
l 93 95

g halfedge 83 edge 41
l 95 93

g halfedge 84 edge 42
l 94 96

g halfedge 85 edge 42
l 96 94

g halfedge 86 edge 43
l 95 96

g halfedge 87 edge 43
l 96 95

g halfedge 88 edge 44
l 95 97

g halfedge 89 edge 44
l 97 95

g halfedge 90 edge 45
l 96 98

g halfedge 91 edge 45
l 98 96

g halfedge 92 edge 46
l 97 98

g halfedge 93 edge 46
l 98 97

g halfedge 94 edge 47
l 97 99

g halfedge 95 edge 47
l 99 97

g halfedge 96 edge 48
l 98 100

g halfedge 97 edge 48
l 100 98

g halfedge 98 edge 49
l 99 100

g halfedge 99 edge 49
l 100 99

g halfedge 100 edge 50
l 99 101

g halfedge 101 edge 50
l 101 99

g halfedge 102 edge 51
l 100 102

g halfedge 103 edge 51
l 102 100

g halfedge 104 edge 52
l 101 102

g halfedge 105 edge 52
l 102 101

g halfedge 106 edge 53
l 101 103

g halfedge 107 edge 53
l 103 101

g halfedge 108 edge 54
l 102 104

g halfedge 109 edge 54
l 104 102

g halfedge 110 edge 55
l 103 104

g halfedge 111 edge 55
l 104 103

g halfedge 112 edge 56
l 103 105

g halfedge 113 edge 56
l 105 103

g halfedge 114 edge 57
l 104 106

g halfedge 115 edge 57
l 106 104

g halfedge 116 edge 58
l 105 106

g halfedge 117 edge 58
l 106 105

g halfedge 118 edge 59
l 105 107

g halfedge 119 edge 59
l 107 105

g halfedge 120 edge 60
l 106 108

g halfedge 121 edge 60
l 108 106

g halfedge 122 edge 61
l 107 108

g halfedge 123 edge 61
l 108 107

g halfedge 124 edge 62
l 107 109

g halfedge 125 edge 62
l 109 107

g halfedge 126 edge 63
l 108 110

g halfedge 127 edge 63
l 110 108

g halfedge 128 edge 64
l 109 110

g halfedge 129 edge 64
l 110 109

g halfedge 130 edge 65
l 109 111

g halfedge 131 edge 65
l 111 109

g halfedge 132 edge 66
l 110 112

g halfedge 133 edge 66
l 112 110

g halfedge 134 edge 67
l 111 112

g halfedge 135 edge 67
l 112 111

g halfedge 136 edge 68
l 111 113

g halfedge 137 edge 68
l 113 111

g halfedge 138 edge 69
l 112 114

g halfedge 139 edge 69
l 114 112

g halfedge 140 edge 70
l 113 114

g halfedge 141 edge 70
l 114 113

g halfedge 142 edge 71
l 113 115

g halfedge 143 edge 71
l 115 113

g halfedge 144 edge 72
l 114 116

g halfedge 145 edge 72
l 116 114

g halfedge 146 edge 73
l 115 116

g halfedge 147 edge 73
l 116 115

g halfedge 148 edge 74
l 115 70

g halfedge 149 edge 74
l 70 115

g halfedge 150 edge 75
l 116 71

g halfedge 151 edge 75
l 71 116

g vertex 0
p 1

g vertex 1
p 18

g vertex 2
p 35

g vertex 3
p 52

g vertex 4
p 69

g vertex 5
p 70

g vertex 6
p 71

g vertex 7
p 72

g vertex 8
p 73

g vertex 9
p 74

g vertex 10
p 75

g vertex 11
p 76

g vertex 12
p 77

g vertex 13
p 78

g vertex 14
p 79

g vertex 15
p 80

g vertex 16
p 81

g vertex 17
p 82

g vertex 18
p 83

g vertex 19
p 84

g vertex 20
p 85

g vertex 21
p 86

g vertex 22
p 87

g vertex 23
p 88

g vertex 24
p 89

g vertex 25
p 90

g vertex 26
p 91

g vertex 27
p 92

g vertex 28
p 93

g vertex 29
p 94

g vertex 30
p 95

g vertex 31
p 96

g vertex 32
p 97

g vertex 33
p 98

g vertex 34
p 99

g vertex 35
p 100

g vertex 36
p 101

g vertex 37
p 102

g vertex 38
p 103

g vertex 39
p 104

g vertex 40
p 105

g vertex 41
p 106

g vertex 42
p 107

g vertex 43
p 108

g vertex 44
p 109

g vertex 45
p 110

g vertex 46
p 111

g vertex 47
p 112

g vertex 48
p 113

g vertex 49
p 114

g vertex 50
p 115

g vertex 51
p 116

# End of file
