22700 0 2 4           
16 Autodesk Neutron 20 ASM 227.1.1.65535 NT 24 Wed Aug 25 15:39:46 2021 
10 9.999999999999999547e-07 1.000000000000000036e-10 
asmheader $-1 -1 @13 227.1.1.65535 #
body $2 -1 $-1 $3 $-1 $4 #
ATTRIB_CUSTOM-attrib $-1 -1 $5 $-1 $1 @20 Timestamp_attrib_def 1 1629905923913953 #
lump $-1 -1 $-1 $-1 $6 $1 #
transform $-1 -1 1 0 0 0 1 0 0 0 1 0 0 0 1 no_rotate no_reflect no_shear #
ATTRIB_CUSTOM-attrib $-1 -1 $-1 $2 $1 @22 generic_tag_attrib_def 3 3 -1 @23 generic_tag_attrib_def  1 3 @3 300 10 0 0 #
shell $-1 -1 $-1 $-1 $-1 $7 $-1 $3 #
face $8 2849 $-1 $9 $10 $6 $-1 $11 reversed single #
ATTRIB_CUSTOM-attrib $-1 -1 $-1 $-1 $7 @22 generic_tag_attrib_def 3 3 -1 @23 generic_tag_attrib_def  1 4 @4 9071 0 1 -300 0 #
face $12 2850 $-1 $13 $14 $6 $-1 $15 reversed single #
loop $-1 -1 $-1 $16 $17 $7 #
cone-surface $-1 -1 $-1 7.06678549623361274 30.26679563740387024 7.686687816722991506 -1.334253232995629964e-16 -1 3.512142734218271199e-17 0.08603646545265815349 -7.163974867718094617e-18 0.12287280664335061 1 I I 0 1 0.1500000000000022149 forward I I I I #
ATTRIB_CUSTOM-attrib $-1 -1 $-1 $-1 $9 @22 generic_tag_attrib_def 3 3 -1 @23 generic_tag_attrib_def  1 4 @4 9052 0 1 -300 0 #
face $18 2851 $-1 $19 $20 $6 $-1 $21 forward single #
loop $-1 -1 $-1 $22 $23 $9 #
cone-surface $-1 -1 $-1 -3.256647452546728161 30.39179563740387024 -7.05670237181352622 -1.334253232995629964e-16 -1 3.512142734218271199e-17 0.08603646545265526691 -7.163974867717854261e-18 0.1228728066433464605 1 I I 0 1 0.1499999999999971911 forward I I I I #
loop $-1 -1 $-1 $-1 $24 $7 #
coedge $-1 -1 $-1 $25 $25 $26 $27 reversed $10 0 $-1 #
ATTRIB_CUSTOM-attrib $-1 -1 $-1 $-1 $13 @22 generic_tag_attrib_def 3 3 -1 @23 generic_tag_attrib_def  1 4 @4 8998 0 1 -300 0 #
face $28 2852 $-1 $29 $30 $6 $-1 $31 forward single #
loop $-1 -1 $-1 $-1 $32 $13 #
sphere-surface $-1 -1 $-1 -3.554975290646092745 30.54054563740406181 -7.482758679150816938 0.4762500000000000622 0.8191520442889919096 -6.820810951788038359e-17 -0.5735764363510459374 0.5735764363510459374 -4.775983245145326975e-17 0.8191520442889919096 forward_v I I I I #
loop $-1 -1 $-1 $-1 $33 $9 #
coedge $-1 -1 $-1 $34 $34 $35 $36 reversed $14 0 $-1 #
coedge $-1 -1 $-1 $24 $24 $37 $38 reversed $16 0 $-1 #
coedge $-1 -1 $-1 $17 $17 $39 $40 reversed $10 0 $-1 #
coedge $-1 -1 $-1 $39 $39 $17 $27 forward $41 0 $-1 #
edge $-1 2841 $-1 $42 0.2276959585627404414 $43 0.6830878756882281522 $26 $44 forward @7 unknown #
ATTRIB_CUSTOM-attrib $-1 -1 $-1 $-1 $19 @22 generic_tag_attrib_def 3 3 -1 @23 generic_tag_attrib_def  1 4 @4 8978 0 1 -300 0 #
face $45 2853 $-1 $-1 $46 $6 $-1 $47 forward single #
loop $-1 -1 $-1 $-1 $48 $19 #
sphere-surface $-1 -1 $-1 7.371655821841335943 30.54054563740406181 8.122087764554482447 0.4762500000000000622 0.8191520442889919096 -6.820810951788038359e-17 -0.5735764363510459374 0.5735764363510459374 -4.775983245145326975e-17 0.8191520442889919096 forward_v I I I I #
coedge $-1 -1 $-1 $32 $32 $49 $50 reversed $20 0 $-1 #
coedge $-1 -1 $-1 $33 $33 $51 $52 reversed $22 0 $-1 #
coedge $-1 -1 $-1 $23 $23 $53 $54 reversed $14 0 $-1 #
coedge $-1 -1 $-1 $53 $53 $23 $36 forward $55 0 $-1 #
edge $-1 2844 $-1 $56 0.2276959585627372773 $57 0.6830878756882119429 $35 $58 forward @7 unknown #
coedge $-1 -1 $-1 $37 $37 $24 $38 forward $46 0 $-1 #
edge $-1 2843 $-1 $59 0 $59 0.9107838342509753105 $37 $60 forward @7 unknown #
coedge $-1 -1 $-1 $26 $26 $25 $40 forward $41 0 $-1 #
edge $-1 2842 $-1 $43 0.6830878756882281522 $42 1.138479792813716029 $39 $61 forward @7 unknown #
loop $-1 -1 $-1 $62 $26 $29 #
vertex $-1 2833 $-1 $27 0 $63 #
vertex $-1 2834 $-1 $27 1 $64 #
intcurve-curve $-1 -1 $-1 forward { int_int_cur 22140 full nubs 3 open 9 
	0.2276959585627404414 3 0.2846095498708749449 2 0.3415231411790094485 2 0.3984575291522451379 2 0.4553919171254808274 2 
	0.512326305098720014 2 0.5692606930719592562 2 0.6261742843800937042 2 0.6830878756882281522 3 
	7.152821961686268715 31.01679563740387024 7.809560623366343712 
	7.137281666796975621 31.01679563740387024 7.820442054993828052 
	7.118586524357873202 31.01555036158334389 7.828871995248610105 
	7.079538850185413956 31.01105343913097201 7.837475875371449519 
	7.059182160757901947 31.00785974790161603 7.837661135318113814 
	7.022287638869193493 31.0018079626122578 7.831155635668792137 
	7.003226150731897803 30.99854205493861059 7.824018603422230989 
	6.969482410025114483 30.99387730494078497 7.802582775287324246 
	6.954798097376772681 30.99255676835087669 7.788270255608527037 
	6.933027281803760822 30.99255676835087669 7.757178308742780359 
	6.92460024339337199 30.99387730494078497 7.738484398473923775 
	6.915998192907438558 30.99854205493860704 7.699444169323037102 
	6.915810989275746223 31.0018079626122578 7.679091220787331196 
	6.922316488925064348 31.00785974790161603 7.642196698898616525 
	6.929452974165509538 31.01105343913097201 7.623131030693472532 
	6.950893067944065251 31.01555036158334389 7.589380919727525487 
	6.965208735891660119 31.01679563740387024 7.574696441707128969 
	6.980749030780952324 31.01679563740387024 7.563815010079640189 
	0.0001442229656867383949 
	
	cone 7.06678549623361274 30.26679563740387024 7.686687816722991506 -1.334253232995629964e-16 -1 3.512142734218271199e-17 0.08603646545265815349 -7.163974867718094617e-18 0.12287280664335061 1 I I 0 1 0.1500000000000022149 forward I I I I 
	cone -3.554975290646092745 30.54054563740406181 -7.482758679150816938 0.5735764363510459374 -4.775983245145326975e-17 0.8191520442889919096 0.3901211610924754658 -3.248411215787746459e-17 -0.2731657778120757385 1 I I 0 1 0.4762499999998084377 forward I I I I 
	nullbs 
	nullbs 
	I I 
	0 
	0 
	0 
	
	0 } I I #
ATTRIB_CUSTOM-attrib $-1 -1 $-1 $-1 $29 @22 generic_tag_attrib_def 3 3 -1 @23 generic_tag_attrib_def  1 4 @4 8990 0 1 -300 0 #
loop $-1 -1 $-1 $41 $37 $29 #
cone-surface $-1 -1 $-1 -3.554975290646092745 30.54054563740406181 -7.482758679150816938 0.5735764363510459374 -4.775983245145326975e-17 0.8191520442889919096 0.3901211610924754658 -3.248411215787746459e-17 -0.2731657778120757385 1 I I 0 1 0.4762499999998084377 forward I I I I #
coedge $-1 -1 $-1 $48 $48 $65 $66 forward $30 0 $-1 #
coedge $67 -1 $-1 $49 $49 $32 $50 forward $68 0 $-1 #
edge $-1 2847 $-1 $69 -3.141592653589793116 $69 3.141592653589793116 $49 $70 forward @7 tangent #
coedge $-1 -1 $-1 $51 $51 $33 $52 forward $62 0 $-1 #
edge $-1 2846 $-1 $71 0 $71 0.9107838342509491092 $51 $72 forward @7 unknown #
coedge $-1 -1 $-1 $35 $35 $34 $54 forward $55 0 $-1 #
edge $-1 2845 $-1 $57 0.6830878756882119429 $56 1.138479792813686498 $53 $73 forward @7 unknown #
loop $-1 -1 $-1 $74 $35 $29 #
vertex $-1 2836 $-1 $36 0 $75 #
vertex $-1 2837 $-1 $36 1 $76 #
intcurve-curve $-1 -1 $-1 forward { int_int_cur 22140 full nubs 3 open 9 
	0.2276959585627372773 3 0.28460954987087006 2 0.3415231411790028981 2 0.3984575291522387541 2 0.4553919171254745546 2 
	0.5123263050987103551 2 0.5692606930719462666 2 0.6261742843800790492 2 0.6830878756882119429 3 
	-3.170610987094068633 31.01679563740387024 -6.933829565170172238 
	-3.18615128198336528 31.01679563740387024 -6.922948133542690563 
	-3.204846424422468587 31.01555036158334389 -6.914518193287915615 
	-3.243894098594926945 31.01105343913097201 -6.905914313165074425 
	-3.264250788022431848 31.00785974790161603 -6.905729053218412794 
	-3.301145309911147407 31.00180796261226135 -6.912234552867730919 
	-3.320206798048433328 30.99854205493861059 -6.919371585114292067 
	-3.353950538755221089 30.99387730494078497 -6.940807413249207691 
	-3.36863485140356822 30.99255676835087669 -6.955119932928000459 
	-3.390405666976578303 30.99255676835087669 -6.986211879793743584 
	-3.398832705386968911 30.99387730494078852 -7.004905790062601945 
	-3.407434755872902343 30.99854205493861059 -7.043946019213479737 
	-3.407621959504586684 31.00180796261226135 -7.064298967749185643 
	-3.401116459855268559 31.00785974790161603 -7.101193489637897649 
	-3.39397997461482781 31.01105343913097201 -7.120259157843055853 
	-3.372539880836276538 31.01555036158334389 -7.154009268808995792 
	-3.358224212888670124 31.01679563740387024 -7.168693746829380764 
	-3.342683917999380583 31.01679563740387024 -7.179575178456865991 
	0.0001442229656861118616 
	
	cone -3.256647452546728161 30.39179563740387024 -7.05670237181352622 -1.334253232995629964e-16 -1 3.512142734218271199e-17 0.08603646545265526691 -7.163974867717854261e-18 0.1228728066433464605 1 I I 0 1 0.1499999999999971911 forward I I I I 
	cone -3.554975290646092745 30.54054563740406181 -7.482758679150816938 0.5735764363510459374 -4.775983245145326975e-17 0.8191520442889919096 0.3901211610924754658 -3.248411215787746459e-17 -0.2731657778120757385 1 I I 0 1 0.4762499999998084377 forward I I I I 
	nullbs 
	nullbs 
	I I 
	0 
	0 
	0 
	
	0 } I I #
vertex $-1 2835 $-1 $38 0 $77 #
intcurve-curve $-1 -1 $-1 forward { int_int_cur 22140 full nubs 3 periodic 17 
	0 3 0.05693438797323921441 2 0.1138687759464784288 2 0.1707823672546128213 2 0.2276959585627472415 2 
	0.2846095498708816618 2 0.3415231411790160543 2 0.3984575291522552964 2 0.4553919171254944831 2 0.5123263050987302281 2 
	0.5692606930719659175 2 0.6261742843801003655 2 0.6830878756882349245 2 0.7400014669963694836 2 0.7969150583045039316 2 
	0.853849446277739621 2 0.9107838342509753105 3 
	7.189658302876964946 30.08853450645725047 7.600651351270339084 
	7.178772895090459905 30.08853450645725047 7.585105377837463969 
	7.164088582442111885 30.08721396986733865 7.570792858158670313 
	7.130344841735324124 30.08254921986951658 7.549357030023760906 
	7.111283353598031098 30.07928331219586582 7.542219997777191764 
	7.07438883170931998 30.07323152690650758 7.53571449812787364 
	7.054032142281811524 30.07003783567715516 7.535899758074541488 
	7.01498446810935139 30.06554091322477973 7.544503638197377349 
	6.996289325670248971 30.06429563740425337 7.552933578452155849 
	6.965208735891660119 30.06429563740425337 7.574696441707128969 
	6.950893067944065251 30.06554091322477973 7.589380919727525487 
	6.929452974165509538 30.07003783567715516 7.623131030693472532 
	6.922316488925064348 30.07323152690650758 7.642196698898616525 
	6.915810989275746223 30.07928331219586582 7.679091220787331196 
	6.915998192907438558 30.08254921986951658 7.699444169323037102 
	6.92460024339337199 30.08721396986733865 7.738484398473923775 
	6.933027281803760822 30.08853450645725047 7.757178308742780359 
	6.954798097376772681 30.08853450645725047 7.788270255608527037 
	6.969482410025114483 30.08721396986733865 7.802582775287324246 
	7.003226150731897803 30.08254921986951658 7.824018603422230989 
	7.022287638869193493 30.07928331219586582 7.831155635668792137 
	7.059182160757901947 30.07323152690650758 7.837661135318113814 
	7.079538850185417509 30.07003783567715516 7.83747587537144863 
	7.118586524357880307 30.06554091322477973 7.828871995248609217 
	7.137281666796975621 30.06429563740425337 7.820442054993828052 
	7.168362256575565361 30.06429563740425337 7.798679191738854932 
	7.182677924523163782 30.06554091322477973 7.783994713718461966 
	7.204118018301723048 30.07003783567715516 7.750244602752517586 
	7.211254503542163796 30.07323152690650758 7.731178934547362935 
	7.217760003191478368 30.07928331219586582 7.694284412658652705 
	7.217572799559794028 30.08254921986951658 7.673931464122949464 
	7.208970749073864148 30.08721396986733865 7.634891234972067231 
	7.200543710663471764 30.08853450645725047 7.616197324703210647 
	7.189658302876964946 30.08853450645725047 7.600651351270339084 
	0.0001442229656867383949 
	
	cone 7.06678549623361274 30.26679563740387024 7.686687816722991506 -1.334253232995629964e-16 -1 3.512142734218271199e-17 0.08603646545265815349 -7.163974867718094617e-18 0.12287280664335061 1 I I 0 1 0.1500000000000022149 forward I I I I 
	cone -3.554975290646092745 30.54054563740406181 -7.482758679150816938 0.5735764363510459374 -4.775983245145326975e-17 0.8191520442889919096 0.3901211610924754658 -3.248411215787746459e-17 -0.2731657778120757385 1 I I 0 1 0.4762499999998084377 forward I I I I 
	nullbs 
	nullbs 
	I I 
	0 
	0 
	0 
	
	0 } I I #
intcurve-curve $-1 -1 $-1 forward { int_int_cur 22140 full nubs 3 open 9 
	0.6830878756882281522 3 0.7400014669963626002 2 0.7969150583044970482 2 0.8538494462777362903 2 0.9107838342509755325 3 
	0.9677182222242112219 2 1.024652610197446911 2 1.081566201505581581 2 1.138479792813716029 3 
	6.980749030780952324 31.01679563740387024 7.563815010079640189 
	6.996289325670248971 31.01679563740387024 7.552933578452155849 
	7.01498446810935139 31.01555036158334389 7.544503638197377349 
	7.054032142281811524 31.01105343913097201 7.535899758074541488 
	7.07438883170931998 31.00785974790161603 7.53571449812787364 
	7.111283353598031098 31.0018079626122578 7.542219997777191764 
	7.130344841735324124 30.99854205493860704 7.549357030023760906 
	7.164088582442111885 30.99387730494078497 7.570792858158670313 
	7.178772895090459905 30.99255676835087669 7.585105377837463969 
	7.189658302876964946 30.99255676835087669 7.600651351270339084 
	7.200543710663471764 30.99255676835087669 7.616197324703210647 
	7.208970749073864148 30.99387730494078497 7.634891234972067231 
	7.217572799559794028 30.99854205493861059 7.673931464122949464 
	7.217760003191478368 31.0018079626122578 7.694284412658652705 
	7.211254503542163796 31.00785974790161603 7.731178934547362935 
	7.204118018301723048 31.01105343913096846 7.750244602752514034 
	7.182677924523166446 31.01555036158334389 7.783994713718458414 
	7.168362256575565361 31.01679563740387024 7.798679191738854932 
	7.152821961686268715 31.01679563740387024 7.809560623366343712 
	0.0001442229656867383949 
	
	cone 7.06678549623361274 30.26679563740387024 7.686687816722991506 -1.334253232995629964e-16 -1 3.512142734218271199e-17 0.08603646545265815349 -7.163974867718094617e-18 0.12287280664335061 1 I I 0 1 0.1500000000000022149 forward I I I I 
	cone -3.554975290646092745 30.54054563740406181 -7.482758679150816938 0.5735764363510459374 -4.775983245145326975e-17 0.8191520442889919096 0.3901211610924754658 -3.248411215787746459e-17 -0.2731657778120757385 1 I I 0 1 0.4762499999998084377 forward I I I I 
	nullbs 
	nullbs 
	I I 
	0 
	0 
	0 
	
	0 } I I #
loop $-1 -1 $-1 $55 $51 $29 #
point $-1 -1 $-1 7.152821961686272267 31.01679563740387024 7.809560623366343712 #
point $-1 -1 $-1 6.980749030780952324 31.01679563740387024 7.563815010079640189 #
coedge $-1 -1 $-1 $65 $65 $48 $66 reversed $74 0 $-1 #
edge $-1 2848 $-1 $78 -3.141592653589793116 $78 3.141592653589793116 $65 $79 forward @7 tangent #
ATTRIB_CUSTOM-attrib $-1 -1 $-1 $-1 $49 @17 sketch_attrib_def 1 1 3 @13 719 0 0 0 1 1 #
loop $-1 -1 $-1 $-1 $49 $29 #
vertex $-1 2839 $-1 $50 0 $80 #
ellipse-curve $-1 -1 $-1 -3.554975290646092745 30.54054563740406181 -7.482758679150816938 0.5735764363510459374 -4.775983245145326975e-17 0.8191520442889919096 0.3901211610924754658 -3.248411215787746459e-17 -0.2731657778120757385 1 I I #
vertex $-1 2838 $-1 $52 0 $81 #
intcurve-curve $-1 -1 $-1 forward { int_int_cur 22140 full nubs 3 periodic 17 
	0 3 0.05693438797323583517 2 0.1138687759464716703 2 0.1707823672546044391 2 0.2276959585627372218 2 
	0.28460954987087006 2 0.3415231411790028426 2 0.3984575291522386986 2 0.4553919171254745546 2 0.5123263050987103551 2 
	0.5692606930719462666 2 0.6261742843800790492 2 0.6830878756882118319 2 0.7400014669963446146 2 0.7969150583044773972 2 
	0.8538494462777133087 2 0.9107838342509491092 3 
	-3.13377464590338306 30.08853450645724692 -7.142738837266183971 
	-3.144660053689888102 30.08853450645724692 -7.158284810699055534 
	-3.159344366338228127 30.08721396986733865 -7.172597330377844749 
	-3.193088107045015889 30.08254921986951302 -7.19403315851275682 
	-3.212149595182308914 30.07928331219586582 -7.201170190759321521 
	-3.249044117071017368 30.07323152690650758 -7.207675690408643199 
	-3.269400806498522272 30.07003783567715516 -7.207490430461974462 
	-3.308448480670973524 30.06554091322477973 -7.198886550339133272 
	-3.327143623110076831 30.06429563740425337 -7.190456610084358324 
	-3.358224212888677229 30.06429563740425337 -7.168693746829387869 
	-3.372539880836272985 30.06554091322477973 -7.154009268808978028 
	-3.39397997461482781 30.07003783567715516 -7.120259157843041642 
	-3.401116459855268559 30.07323152690650758 -7.101193489637897649 
	-3.407621959504593789 30.07928331219586582 -7.064298967749185643 
	-3.407434755872895238 30.08254921986951302 -7.043946019213486842 
	-3.398832705386961806 30.08721396986733865 -7.004905790062594839 
	-3.390405666976578303 30.08853450645724692 -6.986211879793743584 
	-3.36863485140356822 30.08853450645724692 -6.955119932927993354 
	-3.353950538755212207 30.08721396986733865 -6.940807413249186375 
	-3.320206798048426222 30.08254921986951302 -6.919371585114284962 
	-3.301145309911147407 30.07928331219586582 -6.912234552867730919 
	-3.264250788022431848 30.07323152690650758 -6.905729053218412794 
	-3.243894098594926945 30.07003783567715516 -6.905914313165074425 
	-3.204846424422468587 30.06554091322477973 -6.914518193287915615 
	-3.18615128198336528 30.06429563740425337 -6.922948133542690563 
	-3.155070692204771987 30.06429563740425337 -6.944710996797661018 
	-3.14075502425718156 30.06554091322477973 -6.959395474818070859 
	-3.119314930478621406 30.07003783567715516 -6.993145585784003693 
	-3.112178445238187763 30.07323152690650758 -7.012211253989154791 
	-3.105672945588862532 30.07928331219586582 -7.049105775877863245 
	-3.105860149220552202 30.08254921986951302 -7.069458724413547834 
	-3.114462199706480305 30.08721396986733865 -7.10849895356444339 
	-3.122889238116879795 30.08853450645724692 -7.127192863833308856 
	-3.13377464590338306 30.08853450645724692 -7.142738837266183971 
	0.0001442229656896807028 
	
	cone -3.256647452546728161 30.39179563740387024 -7.05670237181352622 -1.334253232995629964e-16 -1 3.512142734218271199e-17 0.08603646545265526691 -7.163974867717854261e-18 0.1228728066433464605 1 I I 0 1 0.1499999999999971911 forward I I I I 
	cone -3.554975290646092745 30.54054563740406181 -7.482758679150816938 0.5735764363510459374 -4.775983245145326975e-17 0.8191520442889919096 0.3901211610924754658 -3.248411215787746459e-17 -0.2731657778120757385 1 I I 0 1 0.4762499999998084377 forward I I I I 
	nullbs 
	nullbs 
	I I 
	0 
	0 
	0 
	
	0 } I I #
intcurve-curve $-1 -1 $-1 forward { int_int_cur 22140 full nubs 3 open 9 
	0.6830878756882119429 3 0.7400014669963447256 2 0.7969150583044775082 2 0.8538494462777133087 2 0.9107838342509492202 3 
	0.9677182222241850207 2 1.024652610197420932 2 1.081566201505553604 2 1.138479792813686498 3 
	-3.342683917999380583 31.01679563740387024 -7.179575178456865991 
	-3.327143623110091042 31.01679563740387024 -7.19045661008436543 
	-3.308448480670980629 31.01555036158334389 -7.19888655033912972 
	-3.269400806498522272 31.01105343913097201 -7.207490430461974462 
	-3.249044117071024473 31.00785974790161603 -7.207675690408639646 
	-3.212149595182308914 31.00180796261226135 -7.201170190759314416 
	-3.193088107045008783 30.99854205493861059 -7.19403315851275682 
	-3.159344366338235233 30.99387730494078852 -7.172597330377851854 
	-3.144660053689888102 30.99255676835087669 -7.158284810699055534 
	-3.13377464590338306 30.99255676835087669 -7.142738837266183971 
	-3.122889238116879795 30.99255676835087669 -7.127192863833308856 
	-3.114462199706487411 30.99387730494078497 -7.108498953564454048 
	-3.105860149220552202 30.99854205493861059 -7.069458724413562045 
	-3.105672945588862532 31.00180796261226135 -7.049105775877863245 
	-3.112178445238180657 31.00785974790161603 -7.012211253989154791 
	-3.119314930478621406 31.01105343913097201 -6.993145585784003693 
	-3.14075502425718156 31.01555036158334389 -6.959395474818070859 
	-3.155070692204771987 31.01679563740387024 -6.944710996797661018 
	-3.170610987094068633 31.01679563740387024 -6.933829565170172238 
	0.0001442229656861118616 
	
	cone -3.256647452546728161 30.39179563740387024 -7.05670237181352622 -1.334253232995629964e-16 -1 3.512142734218271199e-17 0.08603646545265526691 -7.163974867717854261e-18 0.1228728066433464605 1 I I 0 1 0.1499999999999971911 forward I I I I 
	cone -3.554975290646092745 30.54054563740406181 -7.482758679150816938 0.5735764363510459374 -4.775983245145326975e-17 0.8191520442889919096 0.3901211610924754658 -3.248411215787746459e-17 -0.2731657778120757385 1 I I 0 1 0.4762499999998084377 forward I I I I 
	nullbs 
	nullbs 
	I I 
	0 
	0 
	0 
	
	0 } I I #
loop $-1 -1 $-1 $68 $65 $29 #
point $-1 -1 $-1 -3.170610987094075739 31.01679563740387024 -6.933829565170179343 #
point $-1 -1 $-1 -3.342683917999380583 31.01679563740387024 -7.179575178456873097 #
point $-1 -1 $-1 7.189658302876964058 30.08853450645725047 7.600651351270335532 #
vertex $-1 2840 $-1 $66 0 $82 #
ellipse-curve $-1 -1 $-1 7.371655821841335943 30.54054563740406181 8.122087764554482447 0.5735764363510459374 -4.775983245145326975e-17 0.8191520442889919096 0.3901211610924754658 -3.248411215787746459e-17 -0.2731657778120757385 1 I I #
point $-1 -1 $-1 -3.945096451738566046 30.54054563740406181 -7.209592901338742088 #
point $-1 -1 $-1 -3.13377464590338306 30.08853450645724692 -7.142738837266183971 #
point $-1 -1 $-1 6.98153466074886353 30.54054563740406181 8.395253542366557298 #
End-of-ASM-data 