22700 0 2 4           
16 Autodesk Neutron 20 ASM 227.1.1.65535 NT 24 Wed Aug 25 15:39:54 2021 
10 9.999999999999999547e-07 1.000000000000000036e-10 
asmheader $-1 -1 @13 227.1.1.65535 #
body $2 -1 $-1 $3 $-1 $4 #
ATTRIB_CUSTOM-attrib $-1 -1 $5 $-1 $1 @20 Timestamp_attrib_def 1 1629905923913953 #
lump $-1 -1 $-1 $-1 $6 $1 #
transform $-1 -1 1 0 0 0 1 0 0 0 1 0 0 0 1 no_rotate no_reflect no_shear #
ATTRIB_CUSTOM-attrib $-1 -1 $7 $2 $1 @22 generic_tag_attrib_def 3 3 -1 @23 generic_tag_attrib_def  1 3 @3 300 21 0 0 #
shell $-1 -1 $-1 $-1 $-1 $8 $-1 $3 #
DXID-attrib $-1 -1 $-1 $5 $1 @18 ASM_BODY_FROM_STEP @40 98621A156_Shoulder Bolt M8 DIA10x20-2858 #
face $9 4230 $-1 $10 $11 $6 $-1 $12 forward single #
ATTRIB_CUSTOM-attrib $-1 -1 $13 $-1 $8 @22 generic_tag_attrib_def 3 3 -1 @23 generic_tag_attrib_def  1 5 @5 12902 0 1 -300 0 #
face $14 4231 $-1 $15 $16 $6 $-1 $17 forward single #
loop $-1 -1 $-1 $18 $19 $8 #
cone-surface $-1 -1 $-1 0.1000000000000191847 2.599999999999999645 2.400000000000002132 -1 1.448299318179201361e-31 9.957992501029601202e-17 8.529656874745911796e-32 0.6000000000000005329 -1.334402673828313955e-17 1 I I 0 1 0.7999999999999997113 forward I I I I #
DXID-attrib $-1 -1 $20 $9 $8 @18 ASM_FACE_FROM_STEP @40 98621A156_Shoulder Bolt M8 DIA10x20-3049 #
ATTRIB_CUSTOM-attrib $-1 -1 $21 $-1 $10 @22 generic_tag_attrib_def 3 3 -1 @23 generic_tag_attrib_def  1 5 @5 12903 0 1 -300 0 #
face $22 4232 $-1 $23 $24 $6 $-1 $25 reversed single #
loop $-1 -1 $-1 $26 $27 $10 #
cone-surface $-1 -1 $-1 0.1000000000000191847 2.599999999999999645 2.400000000000002132 -1 1.448299318179201361e-31 9.957992501029601202e-17 4.287581728733376365e-32 0.3100000000000000533 -6.894413814779618868e-18 1 I I 0 1 0.4999999999999999445 forward I I I I #
loop $-1 -1 $-1 $-1 $28 $8 #
coedge $-1 -1 $-1 $19 $19 $29 $30 reversed $11 0 $-1 #
DXID-attrib $-1 -1 $-1 $13 $8 @18 ASM_FACE_FROM_STEP @40 98621A156_Shoulder Bolt M8 DIA10x20-2152 #
DXID-attrib $-1 -1 $31 $14 $10 @18 ASM_FACE_FROM_STEP @40 98621A156_Shoulder Bolt M8 DIA10x20-2127 #
ATTRIB_CUSTOM-attrib $-1 -1 $32 $-1 $15 @22 generic_tag_attrib_def 3 3 -1 @23 generic_tag_attrib_def  1 5 @5 12842 0 1 -300 0 #
face $33 4233 $-1 $34 $35 $6 $-1 $36 forward single #
loop $-1 -1 $-1 $-1 $37 $15 #
cone-surface $-1 -1 $-1 4.000000000000018652 2.599999999999999645 2.400000000000002132 1 2.224004456380507544e-17 -9.957992501029601202e-17 -2.874624825528857777e-17 -6.420147857851108163e-18 -0.288675134594812921 1 I I 0.707106781186548794 0.7071067811865463515 0.288675134594812921 forward I I I I #
loop $-1 -1 $-1 $-1 $38 $10 #
coedge $-1 -1 $-1 $27 $27 $39 $40 forward $16 0 $-1 #
coedge $-1 -1 $-1 $28 $28 $41 $42 reversed $18 0 $-1 #
coedge $-1 -1 $-1 $29 $29 $19 $30 forward $43 0 $-1 #
edge $44 4202 $-1 $45 -3.141592653589793116 $45 3.141592653589793116 $19 $46 forward @7 unknown #
DXID-attrib $-1 -1 $-1 $21 $10 @18 ASM_FACE_FROM_STEP @40 98621A156_Shoulder Bolt M8 DIA10x20-1905 #
DXID-attrib $-1 -1 $47 $22 $15 @18 ASM_FACE_FROM_STEP @40 98621A156_Shoulder Bolt M8 DIA10x20-2112 #
ATTRIB_CUSTOM-attrib $-1 -1 $48 $-1 $23 @22 generic_tag_attrib_def 3 3 -1 @23 generic_tag_attrib_def  1 5 @5 12904 0 1 -300 0 #
face $49 4234 $-1 $50 $43 $6 $-1 $51 forward single #
loop $-1 -1 $-1 $52 $41 $23 #
plane-surface $-1 -1 $-1 4.000000000000018652 2.599999999999999645 2.400000000000002132 1 -1.448299318179201361e-31 -9.957992501029601202e-17 -1.421609479124317447e-32 -0.1000000000000000056 2.224004456380521718e-18 forward_v I I I I #
coedge $-1 -1 $-1 $53 $53 $54 $55 reversed $24 0 $-1 #
coedge $-1 -1 $-1 $38 $38 $56 $57 reversed $26 0 $-1 #
coedge $-1 -1 $-1 $39 $39 $27 $40 reversed $58 0 $-1 #
edge $59 4204 $-1 $60 -3.141592653589793116 $60 3.141592653589793116 $27 $61 reversed @7 unknown #
coedge $-1 -1 $-1 $41 $41 $28 $42 forward $35 0 $-1 #
edge $-1 4203 $-1 $62 -3.141592653589793116 $62 3.141592653589793116 $28 $63 reversed @7 unknown #
loop $-1 -1 $-1 $58 $29 $34 #
DXID-attrib $-1 -1 $64 $-1 $30 @18 ASM_EDGE_FROM_STEP @4 1738 #
vertex $-1 4186 $-1 $30 0 $65 #
ellipse-curve $-1 -1 $-1 3.400000000000018119 2.599999999999999645 2.400000000000001688 -1 1.448299318179201361e-31 9.957992501029601202e-17 8.529656874745911796e-32 0.6000000000000005329 -1.334402673828313955e-17 1 I I #
DXID-attrib $-1 -1 $-1 $32 $15 @18 ASM_FACE_FROM_STEP @40 98621A156_Shoulder Bolt M8 DIA10x20-2327 #
DXID-attrib $-1 -1 $-1 $33 $23 @18 ASM_FACE_FROM_STEP @40 98621A156_Shoulder Bolt M8 DIA10x20-1188 #
ATTRIB_CUSTOM-attrib $-1 -1 $66 $-1 $34 @22 generic_tag_attrib_def 3 3 -1 @23 generic_tag_attrib_def  1 5 @5 12833 0 1 -300 0 #
face $67 4235 $-1 $68 $69 $6 $-1 $70 forward single #
plane-surface $-1 -1 $-1 3.400000000000018119 1.800000000000000711 2.400000000000009237 -1 1.448299318179201361e-31 9.957992501029601202e-17 1.421609479124317447e-32 0.1000000000000000056 -2.224004456380521718e-18 forward_v I I I I #
loop $-1 -1 $-1 $-1 $71 $23 #
coedge $-1 -1 $-1 $37 $37 $72 $73 forward $24 0 $-1 #
coedge $-1 -1 $-1 $74 $75 $37 $55 forward $76 0 $-1 #
edge $77 4206 $-1 $78 -0.5171273107635272481 $79 -0.1395283165091456001 $37 $80 reversed @7 unknown #
coedge $-1 -1 $-1 $56 $56 $38 $57 forward $69 0 $-1 #
edge $-1 4205 $-1 $81 -3.141592653589792672 $81 3.14159265358979356 $38 $82 forward @7 unknown #
loop $-1 -1 $-1 $-1 $39 $34 #
DXID-attrib $-1 -1 $83 $-1 $40 @18 ASM_EDGE_FROM_STEP @3 462 #
vertex $-1 4188 $-1 $40 0 $84 #
ellipse-curve $-1 -1 $-1 3.400000000000018119 2.599999999999999645 2.400000000000001688 1 -1.448299318179201361e-31 -9.957992501029601202e-17 4.287581728733376365e-32 0.3100000000000000533 -6.894413814779618868e-18 1 I I #
vertex $-1 4187 $-1 $42 0 $85 #
ellipse-curve $-1 -1 $-1 4.000000000000018652 2.599999999999999645 2.400000000000002132 -1 1.448299318179201361e-31 9.957992501029601202e-17 8.529656874745911796e-32 0.6000000000000005329 -1.334402673828313955e-17 1 I I #
DXID-attrib $-1 -1 $-1 $44 $30 @18 ASM_EDGE_FROM_STEP @3 673 #
point $-1 -1 $-1 3.400000000000018119 1.999999999999998224 2.400000000000001688 #
DXID-attrib $-1 -1 $-1 $49 $34 @18 ASM_FACE_FROM_STEP @39 98621A156_Shoulder Bolt M8 DIA10x20-930 #
ATTRIB_CUSTOM-attrib $-1 -1 $86 $-1 $50 @22 generic_tag_attrib_def 3 3 -1 @23 generic_tag_attrib_def  1 5 @5 12905 0 1 -300 0 #
face $87 4236 $-1 $88 $89 $6 $-1 $90 reversed single #
loop $-1 -1 $-1 $-1 $56 $50 #
plane-surface $-1 -1 $-1 -0.5999999999999814371 2.099999999999999645 2.400000000000006128 -1 1.448299318179201361e-31 9.957992501029601202e-17 1.421609479124317447e-32 0.1000000000000000056 -2.224004456380521718e-18 forward_v I I I I #
coedge $-1 -1 $-1 $91 $72 $92 $93 reversed $52 0 $-1 #
coedge $-1 -1 $-1 $71 $94 $53 $73 reversed $52 0 $-1 #
edge $95 4207 $-1 $78 -0.5235987755982999259 $79 0.5235987755982989267 $53 $96 forward @7 unknown #
coedge $-1 -1 $-1 $97 $54 $98 $99 reversed $76 0 $-1 #
coedge $-1 -1 $-1 $54 $97 $100 $101 forward $76 0 $-1 #
loop $-1 -1 $-1 $-1 $75 $102 #
DXID-attrib $-1 -1 $103 $-1 $55 @18 ASM_EDGE_FROM_STEP @3 949 #
vertex $-1 4191 $-1 $55 2 $104 #
vertex $-1 4190 $-1 $55 2 $105 #
intcurve-curve $-1 -1 $-1 forward { exact_int_cur 22140 full nurbs 2 open 2 
	0 2 0.6566556272726726817 2 
	4.100000000000048495 2.897604368671428787 2.150000000000002132 1 
	3.872127536934862668 2.599999999999999645 2.150000000000002132 1.554700538379370167 
	4.100000000000048495 2.302395631328572279 2.150000000000002132 1 
	0 
	
	null_surface 
	null_surface 
	nullbs 
	nullbs 
	I I 
	0 
	0 
	0 
	
	0 F 1 F 0 UNEXTENDED UNEXTENDED } F 0.1395283165091456001 F 0.5171273107635272481 #
vertex $-1 4189 $-1 $57 0 $106 #
ellipse-curve $-1 -1 $-1 -0.5999999999999814371 2.599999999999999645 2.400000000000002132 -1 1.448299318179201361e-31 9.957992501029601202e-17 4.287581728733376365e-32 0.3100000000000000533 -6.894413814779618868e-18 1 I I #
DXID-attrib $-1 -1 $-1 $59 $40 @18 ASM_EDGE_FROM_STEP @3 163 #
point $-1 -1 $-1 3.400000000000018119 2.289999999999999147 2.400000000000001688 #
point $-1 -1 $-1 4.000000000000018652 2 2.400000000000002132 #
DXID-attrib $-1 -1 $-1 $67 $50 @18 ASM_FACE_FROM_STEP @39 98621A156_Shoulder Bolt M8 DIA10x20-179 #
ATTRIB_CUSTOM-attrib $-1 -1 $107 $-1 $68 @22 generic_tag_attrib_def 3 3 -1 @23 generic_tag_attrib_def  1 5 @5 12858 0 1 -300 0 #
face $108 4237 $-1 $109 $110 $6 $-1 $111 reversed single #
loop $-1 -1 $-1 $-1 $112 $68 #
cone-surface $-1 -1 $-1 4.000000000000018652 2.599999999999999645 2.400000000000002132 1 2.224004456380507544e-17 -9.957992501029601202e-17 -2.874624825528857777e-17 -6.420147857851108163e-18 -0.288675134594812921 1 I I 0.707106781186548794 0.7071067811865463515 0.288675134594812921 forward I I I I #
coedge $-1 -1 $-1 $113 $71 $114 $115 reversed $52 0 $-1 #
coedge $-1 -1 $-1 $116 $116 $71 $93 forward $117 0 $-1 #
edge $118 4208 $-1 $119 -1.570796326794896558 $78 -0.5235987755982999259 $71 $120 forward @7 unknown #
coedge $-1 -1 $-1 $72 $121 $112 $122 reversed $52 0 $-1 #
DXID-attrib $-1 -1 $123 $-1 $73 @18 ASM_EDGE_FROM_STEP @3 906 #
ellipse-curve $-1 -1 $-1 4.000000000000018652 2.599999999999999645 2.400000000000002132 1 2.224004456380507544e-17 -9.957992501029601202e-17 -2.874624825528857777e-17 -6.420147857851108163e-18 -0.288675134594812921 1 F -0.5235987755982999259 F 0.5235987755982989267 #
coedge $-1 -1 $-1 $75 $74 $124 $125 reversed $76 0 $-1 #
coedge $-1 -1 $-1 $126 $127 $74 $99 forward $128 0 $-1 #
edge $129 4224 $-1 $130 0 $79 0.003500000000000000507 $98 $131 forward @7 unknown #
coedge $-1 -1 $-1 $132 $133 $75 $101 reversed $134 0 $-1 #
edge $135 4229 $-1 $136 0 $78 0.003500000000000000507 $100 $137 forward @7 unknown #
face $138 4247 $-1 $-1 $76 $6 $-1 $139 reversed single #
DXID-attrib $-1 -1 $-1 $77 $55 @18 ASM_EDGE_FROM_STEP @3 972 #
point $-1 -1 $-1 4.000000000000018652 2.455662432702593989 2.150000000000002132 #
point $-1 -1 $-1 4.000000000000018652 2.744337567297407077 2.150000000000002132 #
point $-1 -1 $-1 -0.5999999999999814371 2.289999999999999591 2.400000000000002132 #
DXID-attrib $-1 -1 $-1 $87 $68 @18 ASM_FACE_FROM_STEP @39 98621A156_Shoulder Bolt M8 DIA10x20-674 #
ATTRIB_CUSTOM-attrib $-1 -1 $140 $-1 $88 @22 generic_tag_attrib_def 3 3 -1 @23 generic_tag_attrib_def  1 5 @5 12906 0 1 -300 0 #
face $141 4238 $-1 $142 $143 $6 $-1 $144 reversed single #
loop $-1 -1 $-1 $-1 $145 $88 #
cone-surface $-1 -1 $-1 4.000000000000018652 2.599999999999999645 2.400000000000002132 1 2.224004456380507544e-17 -9.957992501029601202e-17 -2.874624825528857777e-17 -6.420147857851108163e-18 -0.288675134594812921 1 I I 0.707106781186548794 0.7071067811865463515 0.288675134594812921 forward I I I I #
coedge $-1 -1 $-1 $146 $146 $94 $122 forward $89 0 $-1 #
coedge $-1 -1 $-1 $121 $91 $147 $148 reversed $52 0 $-1 #
coedge $-1 -1 $-1 $149 $149 $91 $115 forward $150 0 $-1 #
edge $151 4209 $-1 $152 -2.617993877991494411 $119 -1.570796326794896558 $91 $153 forward @7 unknown #
coedge $-1 -1 $-1 $92 $92 $133 $154 reversed $117 0 $-1 #
loop $-1 -1 $-1 $-1 $92 $155 #
DXID-attrib $-1 -1 $-1 $-1 $93 @18 ASM_EDGE_FROM_STEP @4 1504 #
vertex $-1 4192 $-1 $93 2 $156 #
ellipse-curve $-1 -1 $-1 4.000000000000018652 2.599999999999999645 2.400000000000002132 1 2.224004456380507544e-17 -9.957992501029601202e-17 -2.874624825528857777e-17 -6.420147857851108163e-18 -0.288675134594812921 1 F -1.570796326794896558 F -0.5235987755982999259 #
coedge $-1 -1 $-1 $94 $113 $145 $157 reversed $52 0 $-1 #
edge $158 4212 $-1 $79 0.5235987755982989267 $159 1.570796326794896114 $94 $160 forward @7 unknown #
DXID-attrib $-1 -1 $-1 $95 $73 @18 ASM_EDGE_FROM_STEP @4 1237 #
coedge $-1 -1 $-1 $161 $162 $97 $125 forward $163 0 $-1 #
edge $164 4218 $-1 $136 0 $130 0.002886751345948129852 $124 $165 forward @7 unknown #
coedge $-1 -1 $-1 $166 $98 $146 $167 forward $128 0 $-1 #
coedge $-1 -1 $-1 $98 $166 $161 $168 reversed $128 0 $-1 #
loop $-1 -1 $-1 $-1 $98 $169 #
DXID-attrib $-1 -1 $-1 $-1 $99 @18 ASM_EDGE_FROM_STEP @4 1254 #
vertex $-1 4197 $-1 $125 1 $170 #
straight-curve $-1 -1 $-1 3.650000000000017231 2.744337567297407077 2.150000000000002132 100 2.224004456380507605e-15 -9.957992501029600216e-15 F 0 F 0.003500000000000000507 #
coedge $-1 -1 $-1 $171 $100 $162 $172 reversed $134 0 $-1 #
coedge $-1 -1 $-1 $100 $171 $116 $154 forward $134 0 $-1 #
loop $-1 -1 $-1 $-1 $171 $173 #
DXID-attrib $-1 -1 $-1 $-1 $101 @18 ASM_EDGE_FROM_STEP @4 1158 #
vertex $-1 4196 $-1 $125 0 $174 #
straight-curve $-1 -1 $-1 3.650000000000017231 2.455662432702593989 2.150000000000002132 100 2.224004456380507605e-15 -9.957992501029600216e-15 F 0 F 0.003500000000000000507 #
ATTRIB_CUSTOM-attrib $-1 -1 $175 $-1 $102 @22 generic_tag_attrib_def 3 3 -1 @23 generic_tag_attrib_def  1 5 @5 12869 0 1 -300 0 #
plane-surface $-1 -1 $-1 3.650000000000017231 2.455662432702593989 2.150000000000002132 -9.957992501029601202e-17 -2.224004456380521718e-17 -1 -0.1000000000000000056 -2.224004456380507852e-18 9.957992501029600894e-18 forward_v I I I I #
DXID-attrib $-1 -1 $-1 $108 $88 @18 ASM_FACE_FROM_STEP @40 98621A156_Shoulder Bolt M8 DIA10x20-1893 #
ATTRIB_CUSTOM-attrib $-1 -1 $176 $-1 $109 @22 generic_tag_attrib_def 3 3 -1 @23 generic_tag_attrib_def  1 5 @5 12907 0 1 -300 0 #
face $177 4239 $-1 $155 $150 $6 $-1 $178 reversed single #
loop $-1 -1 $-1 $-1 $147 $109 #
cone-surface $-1 -1 $-1 4.000000000000018652 2.599999999999999645 2.400000000000002132 1 2.224004456380507544e-17 -9.957992501029601202e-17 -2.874624825528857777e-17 -6.420147857851108163e-18 -0.288675134594812921 1 I I 0.707106781186548794 0.7071067811865463515 0.288675134594812921 forward I I I I #
coedge $-1 -1 $-1 $179 $179 $121 $157 forward $110 0 $-1 #
coedge $-1 -1 $-1 $112 $112 $126 $167 reversed $89 0 $-1 #
coedge $-1 -1 $-1 $180 $180 $113 $148 forward $143 0 $-1 #
edge $181 4210 $-1 $182 2.617993877991494411 $152 3.665191429188091821 $113 $183 forward @7 unknown #
coedge $-1 -1 $-1 $114 $114 $184 $185 reversed $150 0 $-1 #
loop $-1 -1 $-1 $-1 $114 $142 #
DXID-attrib $-1 -1 $-1 $-1 $115 @18 ASM_EDGE_FROM_STEP @4 1528 #
vertex $-1 4193 $-1 $115 2 $186 #
ellipse-curve $-1 -1 $-1 4.000000000000018652 2.599999999999999645 2.400000000000002132 1 2.224004456380507544e-17 -9.957992501029601202e-17 -2.874624825528857777e-17 -6.420147857851108163e-18 -0.288675134594812921 1 F -2.617993877991494411 F -1.570796326794896558 #
edge $187 4217 $-1 $119 -0.5171273107634678512 $78 -0.1395283165091096844 $116 $188 forward @7 unknown #
face $189 4240 $-1 $190 $117 $6 $-1 $191 reversed single #
point $-1 -1 $-1 4.000000000000018652 2.311324865405186557 2.400000000000002132 #
edge $192 4211 $-1 $159 1.570796326794896114 $182 2.617993877991494411 $121 $193 forward @7 unknown #
DXID-attrib $-1 -1 $-1 $-1 $122 @18 ASM_EDGE_FROM_STEP @4 1547 #
vertex $-1 4195 $-1 $157 2 $194 #
ellipse-curve $-1 -1 $-1 4.000000000000018652 2.599999999999999645 2.400000000000002132 1 2.224004456380507544e-17 -9.957992501029601202e-17 -2.874624825528857777e-17 -6.420147857851108163e-18 -0.288675134594812921 1 F 0.5235987755982989267 F 1.570796326794896114 #
coedge $-1 -1 $-1 $195 $124 $127 $168 forward $163 0 $-1 #
coedge $-1 -1 $-1 $124 $196 $132 $172 forward $163 0 $-1 #
loop $-1 -1 $-1 $-1 $124 $190 #
DXID-attrib $-1 -1 $-1 $-1 $125 @18 ASM_EDGE_FROM_STEP @4 1177 #
straight-curve $-1 -1 $-1 3.650000000000017231 2.455662432702593989 2.150000000000002132 -2.224004456380508e-15 100 -2.22400445638052141e-15 F 0 F 0.002886751345948129852 #
coedge $-1 -1 $-1 $127 $126 $197 $198 reversed $128 0 $-1 #
edge $199 4213 $-1 $79 -0.5171273107634679622 $159 -0.1395283165091096844 $146 $200 forward @7 unknown #
edge $201 4219 $-1 $130 0 $202 0.002886751345948128118 $161 $203 forward @7 unknown #
face $204 4242 $-1 $205 $128 $6 $-1 $206 reversed single #
point $-1 -1 $-1 3.650000000000017231 2.744337567297407077 2.150000000000002132 #
coedge $-1 -1 $-1 $133 $132 $207 $208 forward $134 0 $-1 #
edge $209 4223 $-1 $210 0 $136 0.00288675134594812725 $162 $211 forward @7 unknown #
face $212 4246 $-1 $102 $134 $6 $-1 $213 reversed single #
point $-1 -1 $-1 3.650000000000017231 2.455662432702593989 2.150000000000002132 #
DXID-attrib $-1 -1 $-1 $138 $102 @18 ASM_FACE_FROM_STEP @39 98621A156_Shoulder Bolt M8 DIA10x20-193 #
DXID-attrib $-1 -1 $-1 $141 $109 @18 ASM_FACE_FROM_STEP @40 98621A156_Shoulder Bolt M8 DIA10x20-1220 #
ATTRIB_CUSTOM-attrib $-1 -1 $214 $-1 $142 @22 generic_tag_attrib_def 3 3 -1 @23 generic_tag_attrib_def  1 5 @5 12852 0 1 -300 0 #
cone-surface $-1 -1 $-1 4.000000000000018652 2.599999999999999645 2.400000000000002132 1 2.224004456380507544e-17 -9.957992501029601202e-17 -2.874624825528857777e-17 -6.420147857851108163e-18 -0.288675134594812921 1 I I 0.707106781186548794 0.7071067811865463515 0.288675134594812921 forward I I I I #
coedge $-1 -1 $-1 $145 $145 $215 $216 reversed $110 0 $-1 #
coedge $-1 -1 $-1 $147 $147 $217 $218 reversed $143 0 $-1 #
DXID-attrib $-1 -1 $-1 $-1 $148 @18 ASM_EDGE_FROM_STEP @3 950 #
vertex $-1 4194 $-1 $148 2 $219 #
ellipse-curve $-1 -1 $-1 4.000000000000018652 2.599999999999999645 2.400000000000002132 1 2.224004456380507544e-17 -9.957992501029601202e-17 -2.874624825528857777e-17 -6.420147857851108163e-18 -0.288675134594812921 1 F 2.617993877991494411 F 3.665191429188091821 #
coedge $-1 -1 $-1 $207 $220 $149 $185 forward $221 0 $-1 #
edge $222 4216 $-1 $152 -0.5171273107634682953 $119 -0.1395283165091095456 $149 $223 forward @7 unknown #
point $-1 -1 $-1 4.000000000000018652 2.455662432702593989 2.650000000000002132 #
DXID-attrib $-1 -1 $-1 $-1 $154 @18 ASM_EDGE_FROM_STEP @3 467 #
intcurve-curve $-1 -1 $-1 reversed { exact_int_cur 22140 full nurbs 2 open 2 
	0 2 0.6566556272725776466 2 
	4.100000000000020073 2.532295833389584416 2.017267056453349028 1 
	3.872127536934876879 2.383493649053889385 2.275000000000002132 1.554700538379252706 
	4.100000000000020073 2.23469146471819613 2.532732943546655235 1 
	0 
	
	null_surface 
	null_surface 
	nullbs 
	nullbs 
	I I 
	0 
	0 
	0 
	
	0 F 1 F 0 UNEXTENDED UNEXTENDED } F -0.5171273107634678512 F -0.1395283165091096844 #
ATTRIB_CUSTOM-attrib $-1 -1 $224 $-1 $155 @22 generic_tag_attrib_def 3 3 -1 @23 generic_tag_attrib_def  1 5 @5 12908 0 1 -300 0 #
face $225 4241 $-1 $169 $163 $6 $-1 $226 forward single #
cone-surface $-1 -1 $-1 4.000000000000018652 2.599999999999999645 2.400000000000002132 1 2.224004456380507544e-17 -9.957992501029601202e-17 -2.874624825528857777e-17 -6.420147857851108163e-18 -0.288675134594812921 1 I I 0.707106781186548794 0.7071067811865463515 0.288675134594812921 forward I I I I #
DXID-attrib $-1 -1 $-1 $-1 $157 @18 ASM_EDGE_FROM_STEP @4 1027 #
ellipse-curve $-1 -1 $-1 4.000000000000018652 2.599999999999999645 2.400000000000002132 1 2.224004456380507544e-17 -9.957992501029601202e-17 -2.874624825528857777e-17 -6.420147857851108163e-18 -0.288675134594812921 1 F 1.570796326794896114 F 2.617993877991494411 #
point $-1 -1 $-1 4.000000000000018652 2.888675134594812732 2.400000000000002132 #
coedge $-1 -1 $-1 $227 $161 $228 $229 forward $163 0 $-1 #
coedge $-1 -1 $-1 $162 $227 $230 $231 forward $163 0 $-1 #
coedge $-1 -1 $-1 $215 $228 $166 $198 forward $232 0 $-1 #
edge $233 4225 $-1 $202 0 $159 0.003500000000000000507 $166 $234 forward @7 unknown #
DXID-attrib $-1 -1 $-1 $-1 $167 @18 ASM_EDGE_FROM_STEP @3 917 #
intcurve-curve $-1 -1 $-1 reversed { exact_int_cur 22140 full nurbs 2 open 2 
	0 2 0.6566556272725776466 2 
	4.100000000000020073 2.965308535281804936 2.532732943546655235 1 
	3.872127536934876879 2.816506350946109904 2.275000000000002132 1.554700538379252039 
	4.100000000000020073 2.667704166610414873 2.017267056453349028 1 
	0 
	
	null_surface 
	null_surface 
	nullbs 
	nullbs 
	I I 
	0 
	0 
	0 
	
	0 F 1 F 0 UNEXTENDED UNEXTENDED } F -0.5171273107634679622 F -0.1395283165091096844 #
DXID-attrib $-1 -1 $-1 $-1 $168 @18 ASM_EDGE_FROM_STEP @4 1162 #
vertex $-1 4198 $-1 $168 1 $235 #
straight-curve $-1 -1 $-1 3.650000000000017231 2.744337567297407077 2.150000000000002132 7.51187224839631827e-15 50.00000000000002842 86.60254037844386232 F 0 F 0.002886751345948128118 #
ATTRIB_CUSTOM-attrib $-1 -1 $236 $-1 $169 @22 generic_tag_attrib_def 3 3 -1 @23 generic_tag_attrib_def  1 5 @5 12910 0 1 -300 0 #
face $237 4243 $-1 $238 $232 $6 $-1 $239 reversed single #
plane-surface $-1 -1 $-1 3.650000000000017231 2.744337567297407077 2.150000000000002132 -6.905040607870124191e-17 0.8660254037844385966 -0.5000000000000003331 7.511872248396314474e-18 0.05000000000000003747 0.08660254037844386521 forward_v I I I I #
coedge $-1 -1 $-1 $230 $184 $171 $208 reversed $221 0 $-1 #
edge $240 4228 $-1 $210 0 $119 0.003500000000000000507 $207 $241 forward @7 unknown #
DXID-attrib $-1 -1 $-1 $-1 $172 @18 ASM_EDGE_FROM_STEP @3 742 #
vertex $-1 4201 $-1 $231 1 $242 #
straight-curve $-1 -1 $-1 3.650000000000017231 2.311324865405186557 2.400000000000002132 -9.735876704776827847e-15 49.99999999999997868 -86.60254037844389075 F 0 F 0.00288675134594812725 #
ATTRIB_CUSTOM-attrib $-1 -1 $243 $-1 $173 @22 generic_tag_attrib_def 3 3 -1 @23 generic_tag_attrib_def  1 5 @5 12914 0 1 -300 0 #
plane-surface $-1 -1 $-1 3.650000000000017231 2.311324865405186557 2.400000000000002132 -3.052951893159478244e-17 -0.8660254037844388186 -0.4999999999999997224 -9.735876704776828488e-18 0.04999999999999997502 -0.08660254037844389297 forward_v I I I I #
DXID-attrib $-1 -1 $-1 $177 $142 @18 ASM_FACE_FROM_STEP @40 98621A156_Shoulder Bolt M8 DIA10x20-3038 #
coedge $-1 -1 $-1 $244 $197 $179 $216 forward $232 0 $-1 #
edge $245 4214 $-1 $159 -0.5171273107634680732 $182 -0.1395283165091095179 $179 $246 forward @7 unknown #
coedge $-1 -1 $-1 $247 $248 $180 $218 forward $249 0 $-1 #
edge $250 4215 $-1 $182 -0.5171273107634685173 $152 -0.1395283165091097122 $180 $251 forward @7 unknown #
point $-1 -1 $-1 4.000000000000018652 2.744337567297407077 2.650000000000002132 #
coedge $-1 -1 $-1 $184 $230 $247 $252 forward $221 0 $-1 #
loop $-1 -1 $-1 $-1 $220 $253 #
DXID-attrib $-1 -1 $-1 $-1 $185 @18 ASM_EDGE_FROM_STEP @3 176 #
intcurve-curve $-1 -1 $-1 reversed { exact_int_cur 22140 full nurbs 2 open 2 
	0 2 0.6566556272725777577 2 
	4.100000000000020073 2.23469146471819613 2.267267056453349028 1 
	3.872127536934876879 2.383493649053891161 2.525000000000002132 1.554700538379252706 
	4.100000000000019185 2.532295833389584416 2.782732943546655235 1 
	0 
	
	null_surface 
	null_surface 
	nullbs 
	nullbs 
	I I 
	0 
	0 
	0 
	
	0 F 1 F 0 UNEXTENDED UNEXTENDED } F -0.5171273107634682953 F -0.1395283165091095456 #
DXID-attrib $-1 -1 $-1 $189 $155 @18 ASM_FACE_FROM_STEP @40 98621A156_Shoulder Bolt M8 DIA10x20-1171 #
ATTRIB_CUSTOM-attrib $-1 -1 $254 $-1 $190 @22 generic_tag_attrib_def 3 3 -1 @23 generic_tag_attrib_def  1 5 @5 12909 0 1 -300 0 #
plane-surface $-1 -1 $-1 3.650000000000017231 2.744337567297407077 2.150000000000002132 1 2.224004456380507544e-17 -9.957992501029601202e-17 -9.957992501029600894e-18 -2.224004456380521718e-18 -0.1000000000000000056 forward_v I I I I #
coedge $-1 -1 $-1 $196 $195 $255 $256 forward $163 0 $-1 #
coedge $-1 -1 $-1 $197 $244 $195 $229 reversed $232 0 $-1 #
edge $257 4220 $-1 $202 0 $258 0.002886751345948128118 $195 $259 forward @7 unknown #
coedge $-1 -1 $-1 $220 $207 $196 $231 reversed $221 0 $-1 #
edge $260 4222 $-1 $261 0 $210 0.002886751345948128985 $196 $262 forward @7 unknown #
loop $-1 -1 $-1 $-1 $197 $205 #
DXID-attrib $-1 -1 $-1 $-1 $198 @18 ASM_EDGE_FROM_STEP @4 1654 #
straight-curve $-1 -1 $-1 3.650000000000017231 2.888675134594812732 2.400000000000002132 100 2.224004456380507605e-15 -9.957992501029600216e-15 F 0 F 0.003500000000000000507 #
point $-1 -1 $-1 3.650000000000017231 2.888675134594812732 2.400000000000002132 #
DXID-attrib $-1 -1 $-1 $204 $169 @18 ASM_FACE_FROM_STEP @40 98621A156_Shoulder Bolt M8 DIA10x20-3063 #
ATTRIB_CUSTOM-attrib $-1 -1 $263 $-1 $205 @22 generic_tag_attrib_def 3 3 -1 @23 generic_tag_attrib_def  1 5 @5 12911 0 1 -300 0 #
face $264 4244 $-1 $253 $249 $6 $-1 $265 reversed single #
plane-surface $-1 -1 $-1 3.650000000000017231 2.888675134594812732 2.400000000000002132 3.052951893159477011e-17 0.8660254037844388186 0.4999999999999996114 9.735876704776828488e-18 -0.04999999999999996114 0.08660254037844389297 forward_v I I I I #
DXID-attrib $-1 -1 $-1 $-1 $208 @18 ASM_EDGE_FROM_STEP @4 1209 #
straight-curve $-1 -1 $-1 3.650000000000017231 2.311324865405186557 2.400000000000002132 100 2.224004456380507605e-15 -9.957992501029600216e-15 F 0 F 0.003500000000000000507 #
point $-1 -1 $-1 3.650000000000017231 2.311324865405186557 2.400000000000002132 #
DXID-attrib $-1 -1 $-1 $212 $173 @18 ASM_FACE_FROM_STEP @39 98621A156_Shoulder Bolt M8 DIA10x20-959 #
coedge $-1 -1 $-1 $228 $215 $248 $266 reversed $232 0 $-1 #
DXID-attrib $-1 -1 $-1 $-1 $216 @18 ASM_EDGE_FROM_STEP @4 1523 #
intcurve-curve $-1 -1 $-1 reversed { exact_int_cur 22140 full nurbs 2 open 2 
	0 2 0.6566556272725776466 2 
	4.100000000000019185 2.667704166610414873 2.782732943546655235 1 
	3.872127536934876879 2.816506350946109904 2.525000000000002132 1.554700538379252039 
	4.100000000000020073 2.965308535281804936 2.267267056453349028 1 
	0 
	
	null_surface 
	null_surface 
	nullbs 
	nullbs 
	I I 
	0 
	0 
	0 
	
	0 F 1 F 0 UNEXTENDED UNEXTENDED } F -0.5171273107634680732 F -0.1395283165091095179 #
coedge $-1 -1 $-1 $255 $217 $220 $252 reversed $249 0 $-1 #
coedge $-1 -1 $-1 $217 $255 $244 $266 forward $249 0 $-1 #
loop $-1 -1 $-1 $-1 $248 $238 #
DXID-attrib $-1 -1 $-1 $-1 $218 @18 ASM_EDGE_FROM_STEP @4 1173 #
intcurve-curve $-1 -1 $-1 reversed { exact_int_cur 22140 full nurbs 2 open 2 
	0 2 0.6566556272725780907 2 
	4.100000000000020073 2.302395631328611358 2.650000000000002132 1 
	3.872127536934876879 2.599999999999999645 2.650000000000002132 1.554700538379252039 
	4.100000000000020073 2.897604368671389707 2.650000000000002132 1 
	0 
	
	null_surface 
	null_surface 
	nullbs 
	nullbs 
	I I 
	0 
	0 
	0 
	
	0 F 1 F 0 UNEXTENDED UNEXTENDED } F -0.5171273107634685173 F -0.1395283165091097122 #
edge $267 4227 $-1 $261 0 $152 0.003500000000000000507 $247 $268 forward @7 unknown #
face $269 4245 $-1 $173 $221 $6 $-1 $270 reversed single #
DXID-attrib $-1 -1 $-1 $225 $190 @18 ASM_FACE_FROM_STEP @39 98621A156_Shoulder Bolt M8 DIA10x20-414 #
coedge $-1 -1 $-1 $248 $247 $227 $256 reversed $249 0 $-1 #
edge $271 4221 $-1 $258 0 $261 0.002886751345948129852 $227 $272 forward @7 unknown #
DXID-attrib $-1 -1 $-1 $-1 $229 @18 ASM_EDGE_FROM_STEP @4 1633 #
vertex $-1 4199 $-1 $229 1 $273 #
straight-curve $-1 -1 $-1 3.650000000000017231 2.888675134594812732 2.400000000000002132 9.735876704776829425e-15 -49.99999999999997158 86.60254037844390496 F 0 F 0.002886751345948128118 #
DXID-attrib $-1 -1 $-1 $-1 $231 @18 ASM_EDGE_FROM_STEP @4 1090 #
vertex $-1 4200 $-1 $256 1 $274 #
straight-curve $-1 -1 $-1 3.650000000000017231 2.455662432702593989 2.650000000000002132 -7.511872248396319848e-15 -50.00000000000001421 -86.60254037844389075 F 0 F 0.002886751345948128985 #
DXID-attrib $-1 -1 $-1 $237 $205 @18 ASM_FACE_FROM_STEP @39 98621A156_Shoulder Bolt M8 DIA10x20-421 #
ATTRIB_CUSTOM-attrib $-1 -1 $275 $-1 $238 @22 generic_tag_attrib_def 3 3 -1 @23 generic_tag_attrib_def  1 5 @5 12912 0 1 -300 0 #
plane-surface $-1 -1 $-1 3.650000000000017231 2.744337567297407077 2.650000000000002132 9.957992501029601202e-17 1.724715044375210926e-16 1 2.224004456380509778e-18 -0.1000000000000000056 1.724715044375210864e-17 forward_v I I I I #
edge $276 4226 $-1 $258 0 $182 0.003500000000000000507 $244 $277 forward @7 unknown #
DXID-attrib $-1 -1 $-1 $-1 $252 @18 ASM_EDGE_FROM_STEP @4 1030 #
straight-curve $-1 -1 $-1 3.650000000000017231 2.455662432702593989 2.650000000000002132 100 2.224004456380507605e-15 -9.957992501029600216e-15 F 0 F 0.003500000000000000507 #
ATTRIB_CUSTOM-attrib $-1 -1 $278 $-1 $253 @22 generic_tag_attrib_def 3 3 -1 @23 generic_tag_attrib_def  1 5 @5 12913 0 1 -300 0 #
plane-surface $-1 -1 $-1 3.650000000000017231 2.455662432702593989 2.650000000000002132 6.905040607870121725e-17 -0.8660254037844387076 0.500000000000000111 -7.511872248396319096e-18 -0.05000000000000001665 -0.08660254037844387909 forward_v I I I I #
DXID-attrib $-1 -1 $-1 $-1 $256 @18 ASM_EDGE_FROM_STEP @3 970 #
straight-curve $-1 -1 $-1 3.650000000000017231 2.744337567297407077 2.650000000000002132 2.224004456380509577e-15 -100 1.724715044375211054e-14 F 0 F 0.002886751345948129852 #
point $-1 -1 $-1 3.650000000000017231 2.744337567297407077 2.650000000000002132 #
point $-1 -1 $-1 3.650000000000017231 2.455662432702593989 2.650000000000002132 #
DXID-attrib $-1 -1 $-1 $264 $238 @18 ASM_FACE_FROM_STEP @39 98621A156_Shoulder Bolt M8 DIA10x20-442 #
DXID-attrib $-1 -1 $-1 $-1 $266 @18 ASM_EDGE_FROM_STEP @3 724 #
straight-curve $-1 -1 $-1 3.650000000000017231 2.744337567297407077 2.650000000000002132 100 2.224004456380507605e-15 -9.957992501029600216e-15 F 0 F 0.003500000000000000507 #
DXID-attrib $-1 -1 $-1 $269 $253 @18 ASM_FACE_FROM_STEP @40 98621A156_Shoulder Bolt M8 DIA10x20-2343 #
End-of-ASM-data 