22700 0 2 4           
16 Autodesk Neutron 20 ASM 227.1.1.65535 NT 24 Wed Aug 25 06:16:30 2021 
10 9.999999999999999547e-07 1.000000000000000036e-10 
asmheader $-1 -1 @13 227.1.1.65535 #
body $2 912 $-1 $3 $-1 $4 #
ATTRIB_CUSTOM-attrib $-1 -1 $5 $-1 $1 @20 Timestamp_attrib_def 1 1448290278001 #
lump $-1 -1 $-1 $-1 $6 $1 #
transform $-1 -1 1 0 0 0 1 0 0 0 1 0 0 0 1 no_rotate no_reflect no_shear #
ATTRIB_CUSTOM-attrib $7 -1 $-1 $2 $1 @22 generic_tag_attrib_def 3 3 -1 @23 generic_tag_attrib_def  1 3 @3 531 1 0 0 #
shell $-1 -1 $-1 $-1 $-1 $8 $-1 $3 #
ATTRIB_CUSTOM-attrib $-1 -1 $-1 $-1 $5 @22 generic_tag_attrib_def 3 3 -1 @23 generic_tag_attrib_def  1 0 @0  0 3 533 534 662 0 #
face $9 846 $-1 $10 $11 $6 $-1 $12 reversed single #
ATTRIB_CUSTOM-attrib $13 -1 $-1 $-1 $8 @22 generic_tag_attrib_def 3 3 -1 @23 generic_tag_attrib_def  2 1 @1 1 0 3 375 -417 531 0 1 @1 1 0 3 378 -417 531 0 #
face $14 847 $-1 $15 $16 $6 $-1 $17 forward single #
loop $-1 -1 $-1 $-1 $18 $8 #
plane-surface $-1 -1 $-1 -0.04470235630136869254 -1.252100000740233643 5.213391100257465993 9.916112095558303166e-18 1 9.957992501029598737e-17 0.6999999999999998446 -6.941278466890810521e-18 6.941278466890812062e-18 forward_v I I I I #
ATTRIB_CUSTOM-attrib $-1 -1 $-1 $-1 $9 @22 generic_tag_attrib_def 3 3 -1 @23 generic_tag_attrib_def  1 0 @0  0 16 387 388 418 422 424 427 428 438 449 487 491 492 498 533 534 662 0 #
ATTRIB_CUSTOM-attrib $19 -1 $-1 $-1 $10 @22 generic_tag_attrib_def 3 3 -1 @23 generic_tag_attrib_def  1 1 @1 3 0 3 375 -417 531 0 #
face $20 848 $-1 $21 $22 $6 $-1 $23 forward single #
loop $-1 -1 $-1 $-1 $24 $10 #
plane-surface $-1 -1 $-1 0.2177976436986312492 -1.252100000740233643 5.213391100257465993 0.8660254037844388186 4.120235752362036016e-17 -0.4999999999999999445 -0.3499999999999998668 6.383776056955138791e-17 -0.6062177826491070842 forward_v I I I I #
coedge $-1 -1 $-1 $25 $26 $27 $28 forward $11 0 $-1 #
ATTRIB_CUSTOM-attrib $-1 -1 $-1 $-1 $14 @22 generic_tag_attrib_def 3 3 -1 @23 generic_tag_attrib_def  1 0 @0  0 16 387 388 418 422 424 427 428 438 449 487 491 492 498 533 534 662 0 #
ATTRIB_CUSTOM-attrib $29 -1 $-1 $-1 $15 @22 generic_tag_attrib_def 3 3 -1 @23 generic_tag_attrib_def  1 1 @1 8 0 3 375 -417 531 0 #
face $30 849 $-1 $31 $32 $6 $-1 $33 forward single #
loop $-1 -1 $-1 $-1 $34 $15 #
plane-surface $-1 -1 $-1 0.08654764369863131301 -1.252100000740233643 5.440722768750880789 0.8660254037844388186 -5.837756748667563953e-17 0.4999999999999999445 0.3499999999999998668 5.689648210266058817e-17 -0.6062177826491070842 forward_v I I I I #
coedge $-1 -1 $-1 $35 $36 $37 $38 forward $16 0 $-1 #
coedge $-1 -1 $-1 $39 $18 $40 $41 forward $11 0 $-1 #
coedge $-1 -1 $-1 $18 $42 $43 $44 forward $11 0 $-1 #
coedge $-1 -1 $-1 $45 $46 $18 $28 reversed $47 0 $-1 #
edge $-1 868 $-1 $48 0.5235987755982987046 $49 1.570796326794897002 $18 $50 forward @7 unknown #
ATTRIB_CUSTOM-attrib $-1 -1 $-1 $-1 $20 @22 generic_tag_attrib_def 3 3 -1 @23 generic_tag_attrib_def  1 0 @0  0 16 387 388 418 422 424 427 428 438 449 487 491 492 498 533 534 662 0 #
ATTRIB_CUSTOM-attrib $51 -1 $-1 $-1 $21 @22 generic_tag_attrib_def 3 3 -1 @23 generic_tag_attrib_def  1 1 @1 4 0 3 375 -417 531 0 #
face $52 850 $-1 $53 $54 $6 $-1 $55 reversed single #
loop $-1 -1 $-1 $-1 $56 $21 #
plane-surface $-1 -1 $-1 0.08654764369863134077 -1.252100000740233643 4.986059431764051197 9.916112095558304707e-18 9.957992501029598737e-17 -1 -0.6999999999999998446 6.941278466890810521e-18 -6.941278466890812062e-18 forward_v I I I I #
coedge $-1 -1 $-1 $57 $58 $59 $60 forward $22 0 $-1 #
coedge $-1 -1 $-1 $61 $24 $62 $63 forward $16 0 $-1 #
coedge $-1 -1 $-1 $24 $64 $65 $66 forward $16 0 $-1 #
coedge $-1 -1 $-1 $67 $68 $24 $38 reversed $69 0 $-1 #
edge $-1 874 $-1 $70 0.1902148108885498567 $71 0.3804296217770998245 $24 $72 forward @7 unknown #
coedge $-1 -1 $-1 $73 $25 $74 $75 forward $11 0 $-1 #
coedge $-1 -1 $-1 $76 $77 $25 $41 reversed $78 0 $-1 #
edge $-1 869 $-1 $49 1.570796326794897002 $79 2.617993877991494855 $25 $50 forward @7 unknown #
coedge $-1 -1 $-1 $26 $73 $67 $80 forward $11 0 $-1 #
coedge $-1 -1 $-1 $65 $59 $26 $44 reversed $81 0 $-1 #
edge $-1 873 $-1 $70 -0.5235987755982988157 $48 0.5235987755982987046 $26 $50 forward @7 unknown #
coedge $-1 -1 $-1 $46 $27 $58 $82 reversed $47 0 $-1 #
coedge $-1 -1 $-1 $27 $45 $83 $84 reversed $47 0 $-1 #
loop $-1 -1 $-1 $-1 $46 $85 #
vertex $-1 1726 $-1 $82 1 $86 #
vertex $-1 1727 $-1 $84 0 $87 #
ellipse-curve $-1 -1 $-1 -0.04470235630136869254 -1.252100000740233643 5.213391100257465993 -9.916112095558303166e-18 -1 -9.957992501029598737e-17 0.2273316684934151011 -2.254246307651003877e-18 2.254246307651004263e-18 1 I I #
ATTRIB_CUSTOM-attrib $-1 -1 $-1 $-1 $30 @22 generic_tag_attrib_def 3 3 -1 @23 generic_tag_attrib_def  1 0 @0  0 16 387 388 418 422 424 427 428 438 449 487 491 492 498 533 534 662 0 #
ATTRIB_CUSTOM-attrib $88 -1 $-1 $-1 $31 @22 generic_tag_attrib_def 3 3 -1 @23 generic_tag_attrib_def  1 1 @1 3 0 3 383 -417 531 0 #
face $89 851 $-1 $90 $91 $6 $-1 $55 reversed single #
loop $-1 -1 $-1 $-1 $92 $31 #
cone-surface $-1 -1 $-1 -0.04470235630136869254 -1.043152223571371939 5.213391100257465993 9.916112095558303166e-18 1 9.957992501029598737e-17 0.2449158342467075145 -2.428612866367529008e-18 2.428612866367529393e-18 1 I I 0.8660254037844388186 -0.4999999999999999445 0.2449158342467075145 forward I I I I #
coedge $-1 -1 $-1 $93 $94 $95 $96 forward $32 0 $-1 #
coedge $-1 -1 $-1 $97 $34 $64 $98 forward $22 0 $-1 #
coedge $-1 -1 $-1 $34 $99 $45 $82 forward $22 0 $-1 #
coedge $-1 -1 $-1 $43 $65 $34 $60 reversed $81 0 $-1 #
edge $-1 880 $-1 $48 0.1902148108885497457 $100 0.380429621777099547 $34 $101 forward @7 unknown #
coedge $-1 -1 $-1 $102 $35 $103 $104 forward $16 0 $-1 #
coedge $-1 -1 $-1 $94 $105 $35 $63 reversed $32 0 $-1 #
edge $-1 875 $-1 $71 0.02900635094610965956 $106 0.2839936490538903513 $35 $107 forward @7 unknown #
coedge $-1 -1 $-1 $36 $102 $57 $98 reversed $16 0 $-1 #
coedge $-1 -1 $-1 $59 $43 $36 $66 reversed $81 0 $-1 #
edge $-1 879 $-1 $100 0 $70 0.1902148108885498567 $36 $108 forward @7 unknown #
coedge $-1 -1 $-1 $68 $37 $42 $80 reversed $69 0 $-1 #
coedge $-1 -1 $-1 $37 $67 $94 $109 reversed $69 0 $-1 #
loop $-1 -1 $-1 $-1 $68 $110 #
vertex $-1 1731 $-1 $66 1 $111 #
vertex $-1 1732 $-1 $63 0 $112 #
intcurve-curve $-1 -1 $-1 forward { exact_int_cur 22140 full nurbs 2 open 2 
	0.1902148108885498567 2 0.3804296217770998245 2 
	0.1521726436986313158 -1.252100000740233421 5.099725266010758595 1 
	0.121715975205216223 -1.252100000740233421 5.046972768750880967 1.037954849302054283 
	0.08654764369863136853 -1.231795555077956905 4.986059431764051197 1 
	0 
	
	null_surface 
	null_surface 
	nullbs 
	nullbs 
	I I 
	0 
	0 
	0 
	
	0 F 1 F 0 UNEXTENDED UNEXTENDED } I I #
coedge $-1 -1 $-1 $42 $39 $113 $114 forward $11 0 $-1 #
coedge $-1 -1 $-1 $115 $116 $39 $75 reversed $117 0 $-1 #
edge $-1 870 $-1 $79 2.617993877991494855 $118 3.665191429188091821 $39 $50 forward @7 unknown #
coedge $-1 -1 $-1 $77 $40 $119 $120 reversed $78 0 $-1 #
coedge $-1 -1 $-1 $40 $76 $121 $122 reversed $78 0 $-1 #
loop $-1 -1 $-1 $-1 $77 $123 #
vertex $-1 1728 $-1 $41 1 $124 #
edge $-1 872 $-1 $125 -1.570796326794896558 $70 -0.5235987755982988157 $42 $50 forward @7 unknown #
loop $-1 -1 $-1 $-1 $65 $126 #
edge $-1 884 $-1 $127 0 $48 0.1902148108885497457 $58 $128 forward @7 unknown #
coedge $-1 -1 $-1 $129 $119 $46 $84 forward $130 0 $-1 #
edge $-1 903 $-1 $49 0.1902148108885500788 $127 0.3804296217771001576 $83 $131 forward @7 unknown #
face $132 863 $-1 $126 $47 $6 $-1 $133 reversed single #
point $-1 -1 $-1 0.1521726436986313158 -1.252100000740233643 5.327056934504173391 #
point $-1 -1 $-1 -0.04470235630136876193 -1.252100000740233643 5.440722768750880789 #
ATTRIB_CUSTOM-attrib $-1 -1 $-1 $-1 $52 @22 generic_tag_attrib_def 3 3 -1 @23 generic_tag_attrib_def  1 0 @0  0 16 387 388 418 422 424 427 428 438 449 487 491 492 498 533 534 662 0 #
ATTRIB_CUSTOM-attrib $134 -1 $-1 $-1 $53 @22 generic_tag_attrib_def 3 3 -1 @23 generic_tag_attrib_def  1 1 @1 3 0 3 383 -417 531 0 #
face $135 852 $-1 $136 $137 $6 $-1 $55 reversed single #
loop $-1 -1 $-1 $-1 $138 $53 #
coedge $-1 -1 $-1 $139 $140 $141 $142 reversed $54 0 $-1 #
coedge $-1 -1 $-1 $143 $56 $144 $145 forward $32 0 $-1 #
coedge $-1 -1 $-1 $56 $62 $68 $109 forward $32 0 $-1 #
coedge $-1 -1 $-1 $113 $146 $56 $96 reversed $147 0 $-1 #
edge $-1 885 $-1 $125 0.1902148108885499678 $148 0.3804296217770999355 $56 $149 forward @7 unknown #
coedge $-1 -1 $-1 $150 $57 $151 $152 forward $22 0 $-1 #
edge $-1 878 $-1 $100 0.02900635094610965609 $153 0.2839936490538903513 $64 $154 forward @7 unknown #
coedge $-1 -1 $-1 $58 $150 $129 $155 reversed $22 0 $-1 #
vertex $-1 1736 $-1 $98 0 $156 #
intcurve-curve $-1 -1 $-1 forward { exact_int_cur 22140 full nurbs 2 open 2 
	0.1902148108885497457 2 0.380429621777099547 2 
	0.1521726436986313158 -1.252100000740233643 5.327056934504173391 1 
	0.1826293121920464779 -1.252100000740233643 5.274304437244296651 1.037954849302040961 
	0.2177976436986312492 -1.231795555077956905 5.213391100257465993 1 
	0 
	
	null_surface 
	null_surface 
	nullbs 
	nullbs 
	I I 
	0 
	0 
	0 
	
	0 F 1 F 0 UNEXTENDED UNEXTENDED } I I #
coedge $-1 -1 $-1 $64 $61 $157 $158 forward $16 0 $-1 #
coedge $-1 -1 $-1 $159 $160 $61 $104 reversed $161 0 $-1 #
edge $-1 876 $-1 $106 0 $162 0.1902148108885498012 $61 $163 forward @7 unknown #
coedge $-1 -1 $-1 $62 $143 $159 $164 forward $32 0 $-1 #
vertex $-1 1733 $-1 $164 1 $165 #
straight-curve $-1 -1 $-1 0.08654764369863134077 -1.252100000740233643 4.986059431764051197 6.941278466890810521e-18 0.6999999999999998446 6.97059475072071739e-17 I I #
intcurve-curve $-1 -1 $-1 forward { exact_int_cur 22140 full nurbs 2 open 2 
	0 2 0.1902148108885498567 2 
	0.2177976436986312492 -1.231795555077956905 5.213391100257465993 1 
	0.1826293121920465889 -1.252100000740233421 5.152477763270636224 1.037954849302037186 
	0.1521726436986313158 -1.252100000740233421 5.099725266010758595 1 
	0 
	
	null_surface 
	null_surface 
	nullbs 
	nullbs 
	I I 
	0 
	0 
	0 
	
	0 F 1 F 0 UNEXTENDED UNEXTENDED } I I #
edge $-1 889 $-1 $71 0 $125 0.1902148108885499678 $94 $166 forward @7 unknown #
face $167 861 $-1 $123 $69 $6 $-1 $133 reversed single #
point $-1 -1 $-1 0.1521726436986312603 -1.252100000740233643 5.099725266010758595 #
point $-1 -1 $-1 0.08654764369863128526 -1.231795555077956905 4.986059431764051197 #
coedge $-1 -1 $-1 $146 $95 $73 $114 reversed $147 0 $-1 #
edge $-1 871 $-1 $118 -2.617993877991494411 $125 -1.570796326794896558 $73 $50 forward @7 unknown #
coedge $-1 -1 $-1 $116 $74 $168 $169 reversed $117 0 $-1 #
coedge $-1 -1 $-1 $74 $115 $170 $171 reversed $117 0 $-1 #
loop $-1 -1 $-1 $-1 $116 $172 #
vertex $-1 1729 $-1 $75 1 $173 #
coedge $-1 -1 $-1 $83 $174 $76 $120 forward $130 0 $-1 #
edge $-1 902 $-1 $175 0 $49 0.1902148108885500788 $119 $176 forward @7 unknown #
coedge $-1 -1 $-1 $177 $168 $77 $122 forward $178 0 $-1 #
edge $-1 906 $-1 $79 0.1902148108885499123 $175 0.380429621777099769 $121 $179 forward @7 unknown #
face $180 862 $-1 $85 $78 $6 $-1 $133 reversed single #
point $-1 -1 $-1 -0.2415773563013687286 -1.252100000740233643 5.327056934504173391 #
vertex $-1 1730 $-1 $80 0 $181 #
face $182 864 $-1 $183 $81 $6 $-1 $133 reversed single #
vertex $-1 1739 $-1 $155 0 $184 #
intcurve-curve $-1 -1 $-1 forward { exact_int_cur 22140 full nurbs 2 open 2 
	0 2 0.1902148108885497457 2 
	0.08654764369863142404 -1.231795555077956905 5.440722768750880789 1 
	0.1217159752052161953 -1.252100000740233643 5.37980943176405102 1.037954849302040961 
	0.1521726436986313158 -1.252100000740233643 5.327056934504173391 1 
	0 
	
	null_surface 
	null_surface 
	nullbs 
	nullbs 
	I I 
	0 
	0 
	0 
	
	0 F 1 F 0 UNEXTENDED UNEXTENDED } I I #
coedge $-1 -1 $-1 $185 $83 $99 $155 forward $130 0 $-1 #
loop $-1 -1 $-1 $-1 $119 $186 #
intcurve-curve $-1 -1 $-1 forward { exact_int_cur 22140 full nurbs 2 open 2 
	0.1902148108885500788 2 0.3804296217771001576 2 
	-0.04470235630136876193 -1.252100000740233643 5.440722768750880789 1 
	0.0162109806854613403 -1.252100000740233643 5.440722768750880789 1.037954849302036742 
	0.08654764369863128526 -1.231795555077956905 5.440722768750880789 1 
	0 
	
	null_surface 
	null_surface 
	nullbs 
	nullbs 
	I I 
	0 
	0 
	0 
	
	0 F 1 F 0 UNEXTENDED UNEXTENDED } I I #
ATTRIB_CUSTOM-attrib $187 -1 $-1 $-1 $85 @22 generic_tag_attrib_def 3 3 -1 @23 generic_tag_attrib_def  1 1 @1 5 0 3 384 -417 531 0 #
cone-surface $-1 -1 $-1 -0.04470235630136869254 -1.241947777909095052 5.213391100257465993 -1.540743955509788682e-33 1 9.957992501029598737e-17 0.2449158342467075145 -2.428612866367529008e-18 2.428612866367529393e-18 1 I I -0.8660254037844387076 -0.5 0.2449158342467075145 forward I I I I #
ATTRIB_CUSTOM-attrib $-1 -1 $-1 $-1 $89 @22 generic_tag_attrib_def 3 3 -1 @23 generic_tag_attrib_def  1 0 @0  0 16 387 388 418 422 424 427 428 438 449 487 491 492 498 533 534 662 0 #
ATTRIB_CUSTOM-attrib $188 -1 $-1 $-1 $90 @22 generic_tag_attrib_def 3 3 -1 @23 generic_tag_attrib_def  1 1 @1 3 0 3 383 -417 531 0 #
face $189 853 $-1 $190 $191 $6 $-1 $55 reversed single #
loop $-1 -1 $-1 $-1 $192 $90 #
coedge $-1 -1 $-1 $193 $194 $195 $196 reversed $91 0 $-1 #
coedge $-1 -1 $-1 $140 $92 $197 $198 reversed $54 0 $-1 #
coedge $-1 -1 $-1 $92 $139 $199 $200 reversed $54 0 $-1 #
coedge $-1 -1 $-1 $174 $185 $92 $142 forward $130 0 $-1 #
edge $-1 890 $-1 $201 0.19021481088854994 $202 0.38042962177709988 $141 $203 forward @7 unknown #
coedge $-1 -1 $-1 $105 $93 $204 $205 forward $32 0 $-1 #
coedge $-1 -1 $-1 $206 $207 $93 $145 reversed $208 0 $-1 #
edge $-1 886 $-1 $148 0.02900635094610964915 $209 0.2839936490538903513 $93 $210 forward @7 unknown #
coedge $-1 -1 $-1 $95 $113 $206 $211 reversed $147 0 $-1 #
loop $-1 -1 $-1 $-1 $95 $212 #
vertex $-1 1740 $-1 $145 0 $213 #
intcurve-curve $-1 -1 $-1 forward { exact_int_cur 22140 full nurbs 2 open 2 
	0.1902148108885499678 2 0.3804296217770999355 2 
	-0.04470235630136869254 -1.252100000740233643 4.986059431764051197 1 
	-0.1056156932881989058 -1.252100000740233643 4.986059431764051197 1.037954849302035853 
	-0.1759523563013686842 -1.231795555077956905 4.986059431764051197 1 
	0 
	
	null_surface 
	null_surface 
	nullbs 
	nullbs 
	I I 
	0 
	0 
	0 
	
	0 F 1 F 0 UNEXTENDED UNEXTENDED } I I #
coedge $-1 -1 $-1 $99 $97 $214 $215 forward $22 0 $-1 #
coedge $-1 -1 $-1 $157 $216 $97 $152 reversed $191 0 $-1 #
edge $-1 881 $-1 $153 0 $217 0.1902148108885498567 $97 $218 forward @7 unknown #
vertex $-1 1735 $-1 $158 1 $219 #
straight-curve $-1 -1 $-1 0.2177976436986312492 -1.252100000740233643 5.213391100257465993 6.941278466890810521e-18 0.6999999999999998446 6.97059475072071739e-17 I I #
edge $-1 883 $-1 $127 0.02900635094610965609 $220 0.2839936490538903513 $129 $221 forward @7 unknown #
point $-1 -1 $-1 0.2177976436986312492 -1.231795555077956905 5.213391100257465993 #
coedge $-1 -1 $-1 $216 $151 $102 $158 reversed $191 0 $-1 #
edge $-1 877 $-1 $162 0.1902148108885498012 $153 0.380429621777099547 $102 $222 forward @7 unknown #
coedge $-1 -1 $-1 $160 $103 $105 $164 reversed $161 0 $-1 #
coedge $-1 -1 $-1 $103 $159 $223 $224 reversed $161 0 $-1 #
loop $-1 -1 $-1 $-1 $103 $225 #
vertex $-1 1734 $-1 $104 2 $226 #
intcurve-curve $-1 -1 $-1 forward { exact_int_cur 22140 full nurbs 2 open 2 
	0 2 0.1902148108885498012 2 
	0.08654764369863142404 -1.053304446402510308 4.986059431764051197 1 
	0.1217159752052161675 -1.03300000074023357 5.046972768750881855 1.03795484930203874 
	0.1521726436986313158 -1.03300000074023357 5.099725266010758595 1 
	0 
	
	null_surface 
	null_surface 
	nullbs 
	nullbs 
	I I 
	0 
	0 
	0 
	
	0 F 1 F 0 UNEXTENDED UNEXTENDED } I I #
edge $-1 888 $-1 $227 0.1902148108885499955 $106 0.3804296217770999911 $105 $228 forward @7 unknown #
point $-1 -1 $-1 0.08654764369863128526 -1.053304446402510308 4.986059431764051197 #
intcurve-curve $-1 -1 $-1 forward { exact_int_cur 22140 full nurbs 2 open 2 
	0 2 0.1902148108885499678 2 
	0.08654764369863128526 -1.231795555077956905 4.986059431764051197 1 
	0.01621098068546150683 -1.252100000740233643 4.986059431764051197 1.037954849302052951 
	-0.04470235630136869254 -1.252100000740233643 4.986059431764051197 1 
	0 
	
	null_surface 
	null_surface 
	nullbs 
	nullbs 
	I I 
	0 
	0 
	0 
	
	0 F 1 F 0 UNEXTENDED UNEXTENDED } I I #
ATTRIB_CUSTOM-attrib $229 -1 $-1 $-1 $110 @22 generic_tag_attrib_def 3 3 -1 @23 generic_tag_attrib_def  1 1 @1 5 0 3 384 -417 531 0 #
coedge $-1 -1 $-1 $121 $230 $115 $169 forward $178 0 $-1 #
edge $-1 905 $-1 $231 0 $79 0.1902148108885499123 $168 $232 forward @7 unknown #
coedge $-1 -1 $-1 $233 $206 $116 $171 forward $208 0 $-1 #
edge $-1 909 $-1 $118 0.1902148108885500788 $231 0.3804296217771000466 $170 $234 forward @7 unknown #
face $235 860 $-1 $110 $117 $6 $-1 $133 reversed single #
point $-1 -1 $-1 -0.2415773563013686731 -1.252100000740233643 5.099725266010758595 #
coedge $-1 -1 $-1 $119 $141 $177 $236 reversed $130 0 $-1 #
vertex $-1 1748 $-1 $236 0 $237 #
intcurve-curve $-1 -1 $-1 forward { exact_int_cur 22140 full nurbs 2 open 2 
	0 2 0.1902148108885500788 2 
	-0.1759523563013687952 -1.231795555077956905 5.440722768750880789 1 
	-0.1056156932881988364 -1.252100000740233643 5.440722768750880789 1.037954849302036742 
	-0.04470235630136876193 -1.252100000740233643 5.440722768750880789 1 
	0 
	
	null_surface 
	null_surface 
	nullbs 
	nullbs 
	I I 
	0 
	0 
	0 
	
	0 F 1 F 0 UNEXTENDED UNEXTENDED } I I #
coedge $-1 -1 $-1 $199 $121 $174 $236 forward $178 0 $-1 #
loop $-1 -1 $-1 $-1 $168 $238 #
intcurve-curve $-1 -1 $-1 forward { exact_int_cur 22140 full nurbs 2 open 2 
	0.1902148108885499123 2 0.380429621777099769 2 
	-0.2415773563013687286 -1.252100000740233643 5.327056934504173391 1 
	-0.2111206878079536775 -1.252100000740233643 5.37980943176405102 1.037954849302044291 
	-0.1759523563013687952 -1.231795555077956905 5.440722768750880789 1 
	0 
	
	null_surface 
	null_surface 
	nullbs 
	nullbs 
	I I 
	0 
	0 
	0 
	
	0 F 1 F 0 UNEXTENDED UNEXTENDED } I I #
ATTRIB_CUSTOM-attrib $239 -1 $-1 $-1 $123 @22 generic_tag_attrib_def 3 3 -1 @23 generic_tag_attrib_def  1 1 @1 5 0 3 384 -417 531 0 #
point $-1 -1 $-1 -0.04470235630136869254 -1.252100000740233643 4.986059431764051197 #
ATTRIB_CUSTOM-attrib $240 -1 $-1 $-1 $126 @22 generic_tag_attrib_def 3 3 -1 @23 generic_tag_attrib_def  1 1 @1 5 0 3 384 -417 531 0 #
face $241 865 $-1 $242 $243 $6 $-1 $244 forward single #
point $-1 -1 $-1 0.08654764369863131301 -1.231795555077956905 5.440722768750880789 #
coedge $-1 -1 $-1 $141 $129 $192 $245 forward $130 0 $-1 #
face $246 856 $-1 $238 $130 $6 $-1 $247 forward single #
ATTRIB_CUSTOM-attrib $-1 -1 $-1 $-1 $132 @22 generic_tag_attrib_def 3 3 -1 @23 generic_tag_attrib_def  1 0 @0  0 16 387 388 418 422 424 427 428 438 449 487 491 492 498 533 534 662 0 #
ATTRIB_CUSTOM-attrib $-1 -1 $-1 $-1 $135 @22 generic_tag_attrib_def 3 3 -1 @23 generic_tag_attrib_def  1 0 @0  0 16 387 388 418 422 424 427 428 438 449 487 491 492 498 533 534 662 0 #
ATTRIB_CUSTOM-attrib $248 -1 $-1 $-1 $136 @22 generic_tag_attrib_def 3 3 -1 @23 generic_tag_attrib_def  1 1 @1 3 0 3 383 -417 531 0 #
face $249 854 $-1 $225 $250 $6 $-1 $55 reversed single #
loop $-1 -1 $-1 $-1 $151 $136 #
coedge $-1 -1 $-1 $214 $251 $185 $245 reversed $137 0 $-1 #
coedge $-1 -1 $-1 $194 $138 $252 $253 reversed $91 0 $-1 #
coedge $-1 -1 $-1 $138 $193 $254 $255 reversed $91 0 $-1 #
coedge $-1 -1 $-1 $230 $199 $138 $196 forward $178 0 $-1 #
edge $-1 893 $-1 $256 0.1902148108885498567 $257 0.3804296217770997135 $195 $258 forward @7 unknown #
coedge $-1 -1 $-1 $259 $252 $139 $198 forward $243 0 $-1 #
edge $-1 891 $-1 $256 -2.617993877991494411 $201 -1.570796326794897002 $197 $260 forward @7 unknown #
coedge $-1 -1 $-1 $195 $177 $140 $200 forward $178 0 $-1 #
edge $-1 892 $-1 $202 0 $256 0.1902148108885498567 $199 $261 forward @7 unknown #
vertex $-1 1744 $-1 $262 2 $263 #
vertex $-1 1743 $-1 $200 0 $264 #
intcurve-curve $-1 -1 $-1 forward { exact_int_cur 22140 full nurbs 2 open 2 
	0.19021481088854994 2 0.38042962177709988 2 
	-0.04470235630136876193 -1.03300000074023357 5.440722768750880789 1 
	-0.1056156932881990029 -1.03300000074023357 5.440722768750880789 1.03795484930205939 
	-0.1759523563013686842 -1.053304446402510308 5.440722768750880789 1 
	0 
	
	null_surface 
	null_surface 
	nullbs 
	nullbs 
	I I 
	0 
	0 
	0 
	
	0 F 1 F 0 UNEXTENDED UNEXTENDED } I I #
coedge $-1 -1 $-1 $265 $266 $143 $205 reversed $250 0 $-1 #
edge $-1 887 $-1 $209 0 $227 0.1902148108885499955 $143 $267 forward @7 unknown #
coedge $-1 -1 $-1 $170 $144 $146 $211 forward $208 0 $-1 #
coedge $-1 -1 $-1 $144 $254 $265 $268 forward $208 0 $-1 #
loop $-1 -1 $-1 $-1 $206 $269 #
vertex $-1 1741 $-1 $205 0 $270 #
straight-curve $-1 -1 $-1 -0.1759523563013686287 -1.252100000740233643 4.986059431764051197 6.941278466890810521e-18 0.6999999999999998446 6.97059475072071739e-17 I I #
edge $-1 908 $-1 $148 0 $118 0.1902148108885500788 $206 $271 forward @7 unknown #
face $272 859 $-1 $172 $147 $6 $-1 $133 reversed single #
point $-1 -1 $-1 -0.1759523563013686842 -1.231795555077956905 4.986059431764051197 #
coedge $-1 -1 $-1 $251 $192 $150 $215 reversed $137 0 $-1 #
edge $-1 882 $-1 $217 0.1902148108885498567 $220 0.3804296217770997135 $150 $273 forward @7 unknown #
coedge $-1 -1 $-1 $151 $157 $274 $275 reversed $191 0 $-1 #
vertex $-1 1737 $-1 $275 2 $276 #
intcurve-curve $-1 -1 $-1 forward { exact_int_cur 22140 full nurbs 2 open 2 
	0 2 0.1902148108885498567 2 
	0.2177976436986312492 -1.053304446402510308 5.213391100257465993 1 
	0.1826293121920465889 -1.03300000074023357 5.274304437244296651 1.037954849302036742 
	0.1521726436986313158 -1.03300000074023357 5.327056934504174279 1 
	0 
	
	null_surface 
	null_surface 
	nullbs 
	nullbs 
	I I 
	0 
	0 
	0 
	
	0 F 1 F 0 UNEXTENDED UNEXTENDED } I I #
point $-1 -1 $-1 0.2177976436986312492 -1.053304446402510308 5.213391100257465993 #
vertex $-1 1738 $-1 $215 1 $277 #
straight-curve $-1 -1 $-1 0.08654764369863131301 -1.252100000740233643 5.440722768750880789 6.941278466890810521e-18 0.6999999999999998446 6.97059475072071739e-17 I I #
intcurve-curve $-1 -1 $-1 forward { exact_int_cur 22140 full nurbs 2 open 2 
	0.1902148108885498012 2 0.380429621777099547 2 
	0.1521726436986313158 -1.03300000074023357 5.099725266010758595 1 
	0.1826293121920464224 -1.03300000074023357 5.152477763270635336 1.03795484930202897 
	0.2177976436986311937 -1.053304446402510308 5.213391100257465993 1 
	0 
	
	null_surface 
	null_surface 
	nullbs 
	nullbs 
	I I 
	0 
	0 
	0 
	
	0 F 1 F 0 UNEXTENDED UNEXTENDED } I I #
coedge $-1 -1 $-1 $278 $274 $160 $224 forward $243 0 $-1 #
edge $-1 901 $-1 $162 0.5235987755982988157 $227 1.570796326794896558 $223 $260 forward @7 unknown #
face $279 855 $-1 $186 $161 $6 $-1 $55 reversed single #
point $-1 -1 $-1 0.1521726436986312603 -1.03300000074023357 5.099725266010758595 #
vertex $-1 1742 $-1 $164 2 $280 #
intcurve-curve $-1 -1 $-1 forward { exact_int_cur 22140 full nurbs 2 open 2 
	0.1902148108885499955 2 0.3804296217770999911 2 
	-0.0447023563013686856 -1.03300000074023357 4.986059431764051197 1 
	0.01621098068546170112 -1.03300000074023357 4.986059431764051197 1.037954849302044291 
	0.08654764369863128526 -1.053304446402510308 4.986059431764051197 1 
	0 
	
	null_surface 
	null_surface 
	nullbs 
	nullbs 
	I I 
	0 
	0 
	0 
	
	0 F 1 F 0 UNEXTENDED UNEXTENDED } I I #
ATTRIB_CUSTOM-attrib $-1 -1 $-1 $-1 $167 @22 generic_tag_attrib_def 3 3 -1 @23 generic_tag_attrib_def  1 0 @0  0 16 387 388 418 422 424 427 428 438 449 487 491 492 498 533 534 662 0 #
coedge $-1 -1 $-1 $168 $195 $233 $281 reversed $178 0 $-1 #
vertex $-1 1749 $-1 $281 0 $282 #
intcurve-curve $-1 -1 $-1 forward { exact_int_cur 22140 full nurbs 2 open 2 
	0 2 0.1902148108885499123 2 
	-0.307202356301368662 -1.231795555077956905 5.213391100257465993 1 
	-0.2720340247947837797 -1.252100000740233643 5.274304437244296651 1.037954849302042737 
	-0.2415773563013687286 -1.252100000740233643 5.327056934504173391 1 
	0 
	
	null_surface 
	null_surface 
	nullbs 
	nullbs 
	I I 
	0 
	0 
	0 
	
	0 F 1 F 0 UNEXTENDED UNEXTENDED } I I #
coedge $-1 -1 $-1 $254 $170 $230 $281 forward $208 0 $-1 #
intcurve-curve $-1 -1 $-1 forward { exact_int_cur 22140 full nurbs 2 open 2 
	0.1902148108885500788 2 0.3804296217771000466 2 
	-0.2415773563013686731 -1.252100000740233643 5.099725266010758595 1 
	-0.2720340247947836687 -1.252100000740233643 5.152477763270635336 1.037954849302031635 
	-0.307202356301368662 -1.231795555077956905 5.213391100257465993 1 
	0 
	
	null_surface 
	null_surface 
	nullbs 
	nullbs 
	I I 
	0 
	0 
	0 
	
	0 F 1 F 0 UNEXTENDED UNEXTENDED } I I #
ATTRIB_CUSTOM-attrib $283 -1 $-1 $-1 $172 @22 generic_tag_attrib_def 3 3 -1 @23 generic_tag_attrib_def  1 1 @1 5 0 3 384 -417 531 0 #
edge $-1 904 $-1 $175 0.02900635094610964915 $202 0.2839936490538903513 $177 $284 forward @7 unknown #
point $-1 -1 $-1 -0.1759523563013687952 -1.231795555077956905 5.440722768750880789 #
face $285 857 $-1 $269 $178 $6 $-1 $286 forward single #
ATTRIB_CUSTOM-attrib $-1 -1 $-1 $-1 $180 @22 generic_tag_attrib_def 3 3 -1 @23 generic_tag_attrib_def  1 0 @0  0 16 387 388 418 422 424 427 428 438 449 487 491 492 498 533 534 662 0 #
ATTRIB_CUSTOM-attrib $-1 -1 $-1 $-1 $182 @22 generic_tag_attrib_def 3 3 -1 @23 generic_tag_attrib_def  1 0 @0  0 16 387 388 418 422 424 427 428 438 449 487 491 492 498 533 534 662 0 #
ATTRIB_CUSTOM-attrib $287 -1 $-1 $-1 $183 @22 generic_tag_attrib_def 3 3 -1 @23 generic_tag_attrib_def  1 1 @1 2 0 3 375 -417 531 0 #
face $288 866 $-1 $289 $290 $6 $-1 $291 forward single #
loop $-1 -1 $-1 $292 $278 $183 #
plane-surface $-1 -1 $-1 -0.04470235630136869254 -1.03300000074023357 5.213391100257465993 9.916112095558303166e-18 1 9.957992501029598737e-17 0.6999999999999998446 -6.941278466890810521e-18 6.941278466890812062e-18 forward_v I I I I #
edge $-1 896 $-1 $220 0 $201 0.19021481088854994 $185 $293 forward @7 unknown #
ATTRIB_CUSTOM-attrib $294 -1 $-1 $-1 $186 @22 generic_tag_attrib_def 3 3 -1 @23 generic_tag_attrib_def  1 1 @1 7 0 3 375 -417 531 0 #
plane-surface $-1 -1 $-1 -0.1759523563013687952 -1.252100000740233643 5.440722768750880789 -3.059755853289332055e-16 -9.957992501029598737e-17 1 0.6999999999999998446 -6.941278466890832092e-18 2.141829097302531847e-16 forward_v I I I I #
ATTRIB_CUSTOM-attrib $-1 -1 $-1 $-1 $189 @22 generic_tag_attrib_def 3 3 -1 @23 generic_tag_attrib_def  1 0 @0  0 16 387 388 418 422 424 427 428 438 449 487 491 492 498 533 534 662 0 #
ATTRIB_CUSTOM-attrib $295 -1 $-1 $-1 $190 @22 generic_tag_attrib_def 3 3 -1 @23 generic_tag_attrib_def  1 1 @1 3 0 3 383 -417 531 0 #
loop $-1 -1 $-1 $-1 $265 $190 #
coedge $-1 -1 $-1 $192 $214 $259 $262 reversed $137 0 $-1 #
coedge $-1 -1 $-1 $197 $278 $193 $253 forward $243 0 $-1 #
edge $-1 894 $-1 $296 2.617993877991494411 $256 3.665191429188091821 $252 $260 forward @7 unknown #
coedge $-1 -1 $-1 $207 $233 $194 $255 forward $208 0 $-1 #
edge $-1 895 $-1 $257 0 $296 0.1902148108885500788 $254 $297 forward @7 unknown #
vertex $-1 1745 $-1 $253 2 $298 #
vertex $-1 1746 $-1 $255 0 $299 #
intcurve-curve $-1 -1 $-1 forward { exact_int_cur 22140 full nurbs 2 open 2 
	0.1902148108885498567 2 0.3804296217770997135 2 
	-0.2415773563013687286 -1.03300000074023357 5.327056934504173391 1 
	-0.2720340247947838352 -1.03300000074023357 5.274304437244296651 1.037954849302042293 
	-0.307202356301368662 -1.053304446402510308 5.213391100257465993 1 
	0 
	
	null_surface 
	null_surface 
	nullbs 
	nullbs 
	I I 
	0 
	0 
	0 
	
	0 F 1 F 0 UNEXTENDED UNEXTENDED } I I #
coedge $-1 -1 $-1 $274 $197 $251 $262 forward $243 0 $-1 #
ellipse-curve $-1 -1 $-1 -0.04470235630136869254 -1.03300000074023357 5.213391100257465993 9.916112095558303166e-18 1 9.957992501029598737e-17 0.2273316684934150733 -2.254246307651003492e-18 2.254246307651003877e-18 1 I I #
intcurve-curve $-1 -1 $-1 forward { exact_int_cur 22140 full nurbs 2 open 2 
	0 2 0.1902148108885498567 2 
	-0.1759523563013687952 -1.053304446402510308 5.440722768750880789 1 
	-0.211120687807953622 -1.03300000074023357 5.37980943176405102 1.037954849302040961 
	-0.2415773563013687286 -1.03300000074023357 5.327056934504173391 1 
	0 
	
	null_surface 
	null_surface 
	nullbs 
	nullbs 
	I I 
	0 
	0 
	0 
	
	0 F 1 F 0 UNEXTENDED UNEXTENDED } I I #
edge $-1 897 $-1 $201 -1.570796326794897002 $217 -0.5235987755982987046 $259 $260 forward @7 unknown #
point $-1 -1 $-1 -0.04470235630136876193 -1.03300000074023357 5.440722768750880789 #
point $-1 -1 $-1 -0.1759523563013688507 -1.053304446402510308 5.440722768750880789 #
coedge $-1 -1 $-1 $266 $204 $207 $268 reversed $250 0 $-1 #
coedge $-1 -1 $-1 $204 $265 $278 $300 reversed $250 0 $-1 #
intcurve-curve $-1 -1 $-1 forward { exact_int_cur 22140 full nurbs 2 open 2 
	0 2 0.1902148108885499955 2 
	-0.1759523563013686842 -1.053304446402510308 4.986059431764051197 1 
	-0.1056156932881990862 -1.03300000074023357 4.986059431764051197 1.037954849302044291 
	-0.0447023563013686856 -1.03300000074023357 4.986059431764051197 1 
	0 
	
	null_surface 
	null_surface 
	nullbs 
	nullbs 
	I I 
	0 
	0 
	0 
	
	0 F 1 F 0 UNEXTENDED UNEXTENDED } I I #
edge $-1 899 $-1 $296 0.1902148108885500788 $209 0.3804296217770999911 $207 $301 forward @7 unknown #
face $302 858 $-1 $212 $208 $6 $-1 $303 forward single #
point $-1 -1 $-1 -0.1759523563013686842 -1.053304446402510308 4.986059431764051197 #
intcurve-curve $-1 -1 $-1 forward { exact_int_cur 22140 full nurbs 2 open 2 
	0 2 0.1902148108885500788 2 
	-0.1759523563013685732 -1.231795555077956905 4.986059431764051197 1 
	-0.2111206878079535665 -1.252100000740233643 5.046972768750881855 1.037954849302030746 
	-0.2415773563013686731 -1.252100000740233643 5.099725266010758595 1 
	0 
	
	null_surface 
	null_surface 
	nullbs 
	nullbs 
	I I 
	0 
	0 
	0 
	
	0 F 1 F 0 UNEXTENDED UNEXTENDED } I I #
ATTRIB_CUSTOM-attrib $304 -1 $-1 $-1 $212 @22 generic_tag_attrib_def 3 3 -1 @23 generic_tag_attrib_def  1 1 @1 5 0 3 384 -417 531 0 #
intcurve-curve $-1 -1 $-1 forward { exact_int_cur 22140 full nurbs 2 open 2 
	0.1902148108885498567 2 0.3804296217770997135 2 
	0.1521726436986313158 -1.03300000074023357 5.327056934504174279 1 
	0.1217159752052161675 -1.03300000074023357 5.37980943176405102 1.037954849302045179 
	0.08654764369863136853 -1.053304446402510308 5.440722768750880789 1 
	0 
	
	null_surface 
	null_surface 
	nullbs 
	nullbs 
	I I 
	0 
	0 
	0 
	
	0 F 1 F 0 UNEXTENDED UNEXTENDED } I I #
coedge $-1 -1 $-1 $223 $259 $216 $275 forward $243 0 $-1 #
edge $-1 898 $-1 $217 -0.5235987755982987046 $162 0.5235987755982988157 $274 $260 forward @7 unknown #
point $-1 -1 $-1 0.1521726436986313158 -1.03300000074023357 5.327056934504173391 #
point $-1 -1 $-1 0.08654764369863131301 -1.053304446402510308 5.440722768750880789 #
coedge $-1 -1 $-1 $252 $223 $266 $300 forward $243 0 $-1 #
ATTRIB_CUSTOM-attrib $305 -1 $-1 $-1 $225 @22 generic_tag_attrib_def 3 3 -1 @23 generic_tag_attrib_def  1 1 @1 3 0 3 383 -417 531 0 #
point $-1 -1 $-1 -0.0447023563013686856 -1.03300000074023357 4.986059431764051197 #
edge $-1 907 $-1 $231 0.02900635094610964915 $257 0.2839936490538903513 $233 $306 forward @7 unknown #
point $-1 -1 $-1 -0.307202356301368662 -1.231795555077956905 5.213391100257465993 #
ATTRIB_CUSTOM-attrib $-1 -1 $-1 $-1 $235 @22 generic_tag_attrib_def 3 3 -1 @23 generic_tag_attrib_def  1 0 @0  0 16 387 388 418 422 424 427 428 438 449 487 491 492 498 533 534 662 0 #
straight-curve $-1 -1 $-1 -0.1759523563013687952 -1.252100000740233643 5.440722768750880789 6.941278466890810521e-18 0.6999999999999998446 6.97059475072071739e-17 I I #
ATTRIB_CUSTOM-attrib $307 -1 $-1 $-1 $238 @22 generic_tag_attrib_def 3 3 -1 @23 generic_tag_attrib_def  1 1 @1 6 0 3 375 -417 531 0 #
plane-surface $-1 -1 $-1 -0.307202356301368662 -1.252100000740233643 5.213391100257465993 -0.8660254037844388186 -4.120235752362033551e-17 0.4999999999999997224 0.3499999999999997558 -6.383776056955138791e-17 0.6062177826491070842 forward_v I I I I #
ATTRIB_CUSTOM-attrib $-1 -1 $-1 $-1 $241 @22 generic_tag_attrib_def 3 3 -1 @23 generic_tag_attrib_def  1 0 @0  0 16 387 388 418 422 424 427 428 438 449 487 491 492 498 533 534 662 0 #
ATTRIB_CUSTOM-attrib $308 -1 $-1 $-1 $242 @22 generic_tag_attrib_def 3 3 -1 @23 generic_tag_attrib_def  1 1 @1 1 0 3 381 -417 531 0 #
face $309 867 $-1 $-1 $310 $6 $-1 $311 reversed single #
loop $-1 -1 $-1 $312 $313 $242 #
torus-surface $-1 -1 $-1 -0.04470235630136869254 -1.012000000740233663 5.213391100257465993 -9.916112095558303166e-18 -1 -9.957992501029598737e-17 0.1577800000000000036 -0.02099999999999999437 -1 9.916112095558304707e-18 -9.916112095558304707e-18 forward_v I I I I #
loop $-1 -1 $-1 $-1 $314 $183 #
intcurve-curve $-1 -1 $-1 forward { exact_int_cur 22140 full nurbs 2 open 2 
	0 2 0.19021481088854994 2 
	0.08654764369863117424 -1.053304446402510308 5.440722768750880789 1 
	0.01621098068546145826 -1.03300000074023357 5.440722768750880789 1.037954849302060278 
	-0.04470235630136876193 -1.03300000074023357 5.440722768750880789 1 
	0 
	
	null_surface 
	null_surface 
	nullbs 
	nullbs 
	I I 
	0 
	0 
	0 
	
	0 F 1 F 0 UNEXTENDED UNEXTENDED } I I #
ATTRIB_CUSTOM-attrib $-1 -1 $-1 $-1 $246 @22 generic_tag_attrib_def 3 3 -1 @23 generic_tag_attrib_def  1 0 @0  0 16 387 388 418 422 424 427 428 438 449 487 491 492 498 533 534 662 0 #
ATTRIB_CUSTOM-attrib $-1 -1 $-1 $-1 $249 @22 generic_tag_attrib_def 3 3 -1 @23 generic_tag_attrib_def  1 0 @0  0 16 387 388 418 422 424 427 428 438 449 487 491 492 498 533 534 662 0 #
vertex $-1 1747 $-1 $300 2 $315 #
intcurve-curve $-1 -1 $-1 forward { exact_int_cur 22140 full nurbs 2 open 2 
	0 2 0.1902148108885500788 2 
	-0.307202356301368662 -1.053304446402510308 5.213391100257465993 1 
	-0.2720340247947838352 -1.03300000074023357 5.152477763270635336 1.037954849302034077 
	-0.2415773563013686176 -1.03300000074023357 5.099725266010758595 1 
	0 
	
	null_surface 
	null_surface 
	nullbs 
	nullbs 
	I I 
	0 
	0 
	0 
	
	0 F 1 F 0 UNEXTENDED UNEXTENDED } I I #
point $-1 -1 $-1 -0.2415773563013687286 -1.03300000074023357 5.327056934504173391 #
point $-1 -1 $-1 -0.307202356301368662 -1.053304446402510308 5.213391100257465993 #
edge $-1 900 $-1 $227 1.570796326794896558 $296 2.617993877991494411 $278 $260 forward @7 unknown #
intcurve-curve $-1 -1 $-1 forward { exact_int_cur 22140 full nurbs 2 open 2 
	0.1902148108885500788 2 0.3804296217770999911 2 
	-0.2415773563013686176 -1.03300000074023357 5.099725266010758595 1 
	-0.211120687807953511 -1.03300000074023357 5.046972768750881855 1.037954849302041405 
	-0.1759523563013685732 -1.053304446402510308 4.986059431764051197 1 
	0 
	
	null_surface 
	null_surface 
	nullbs 
	nullbs 
	I I 
	0 
	0 
	0 
	
	0 F 1 F 0 UNEXTENDED UNEXTENDED } I I #
ATTRIB_CUSTOM-attrib $316 -1 $-1 $-1 $269 @22 generic_tag_attrib_def 3 3 -1 @23 generic_tag_attrib_def  1 1 @1 5 0 3 375 -417 531 0 #
plane-surface $-1 -1 $-1 -0.1759523563013686287 -1.252100000740233643 4.986059431764051197 -0.8660254037844385966 5.837756748667566419e-17 -0.5000000000000003331 -0.3500000000000001443 -5.689648210266058817e-17 0.6062177826491068622 forward_v I I I I #
ATTRIB_CUSTOM-attrib $-1 -1 $-1 $-1 $272 @22 generic_tag_attrib_def 3 3 -1 @23 generic_tag_attrib_def  1 0 @0  0 16 387 388 418 422 424 427 428 438 449 487 491 492 498 533 534 662 0 #
ATTRIB_CUSTOM-attrib $-1 -1 $-1 $-1 $279 @22 generic_tag_attrib_def 3 3 -1 @23 generic_tag_attrib_def  1 0 @0  0 16 387 388 418 422 424 427 428 438 449 487 491 492 498 533 534 662 0 #
straight-curve $-1 -1 $-1 -0.307202356301368662 -1.252100000740233643 5.213391100257465993 6.941278466890810521e-18 0.6999999999999998446 6.97059475072071739e-17 I I #
ATTRIB_CUSTOM-attrib $-1 -1 $-1 $-1 $285 @22 generic_tag_attrib_def 3 3 -1 @23 generic_tag_attrib_def  1 0 @0  0 16 387 388 418 422 424 427 428 438 449 487 491 492 498 533 534 662 0 #
ATTRIB_CUSTOM-attrib $-1 -1 $-1 $-1 $288 @22 generic_tag_attrib_def 3 3 -1 @23 generic_tag_attrib_def  1 0 @0  0 16 387 388 418 422 424 427 428 438 449 487 491 492 498 533 534 662 0 #
ATTRIB_CUSTOM-attrib $317 -1 $-1 $-1 $289 @22 generic_tag_attrib_def 3 3 -1 @23 generic_tag_attrib_def  1 2 @2 11 0 2 456 531 0 #
loop $-1 -1 $-1 $-1 $318 $289 #
plane-surface $-1 -1 $-1 -1.082202371203110358 -1.032100000000000684 5.488391042142938048 0 -1 -9.957992501029598737e-17 0 9.957992501029598737e-17 -1 forward_v I I I I #
loop $-1 -1 $-1 $-1 $319 $242 #
coedge $-1 -1 $-1 $313 $313 $314 $320 forward $290 0 $-1 #
coedge $-1 -1 $-1 $314 $314 $313 $320 reversed $292 0 $-1 #
point $-1 -1 $-1 -0.2415773563013686731 -1.03300000074023357 5.099725266010758595 #
ATTRIB_CUSTOM-attrib $-1 -1 $-1 $-1 $302 @22 generic_tag_attrib_def 3 3 -1 @23 generic_tag_attrib_def  1 0 @0  0 16 387 388 418 422 424 427 428 438 449 487 491 492 498 533 534 662 0 #
ATTRIB_CUSTOM-attrib $-1 -1 $-1 $-1 $309 @22 generic_tag_attrib_def 3 3 -1 @23 generic_tag_attrib_def  1 0 @0  0 7 487 491 492 498 533 534 662 0 #
coedge $-1 -1 $-1 $318 $318 $319 $321 reversed $310 0 $-1 #
coedge $-1 -1 $-1 $319 $319 $318 $321 forward $312 0 $-1 #
edge $-1 910 $-1 $322 -3.141592653589793116 $322 3.141592653589793116 $314 $323 forward @7 tangent #
edge $-1 911 $-1 $324 -3.141592653589793116 $324 3.141592653589793116 $319 $325 forward @7 unknown #
vertex $-1 1750 $-1 $320 0 $326 #
ellipse-curve $-1 -1 $-1 -0.04470235630136869254 -1.03300000074023357 5.213391100257465993 9.916112095558303166e-18 1 9.957992501029598737e-17 0.1577800000000000036 -1.564564166437189069e-18 1.564564166437189262e-18 1 I I #
vertex $-1 1751 $-1 $321 0 $327 #
ellipse-curve $-1 -1 $-1 -0.04470235630136869254 -1.032100000000000684 5.213391100257465993 -4.958056047779151583e-18 -1 -9.957992501029598737e-17 0 1.510608114761814076e-17 -0.1516980570738154233 1 I I #
point $-1 -1 $-1 -0.2024823563013686822 -1.03300000074023357 5.213391100257465993 #
point $-1 -1 $-1 -0.04470235630136871335 -1.032100000000000684 5.365089157331281555 #
End-of-ASM-data 