22700 0 2 4           
16 Autodesk Neutron 20 ASM 227.1.1.65535 NT 24 Wed Aug 25 06:16:37 2021 
10 9.999999999999999547e-07 1.000000000000000036e-10 
asmheader $-1 -1 @13 227.1.1.65535 #
body $2 169 $-1 $3 $-1 $4 #
ATTRIB_CUSTOM-attrib $-1 -1 $5 $-1 $1 @20 Timestamp_attrib_def 1 1448199719000 #
lump $-1 -1 $-1 $-1 $6 $1 #
transform $-1 -1 1 0 0 0 1 0 0 0 1 0 0 0 1 no_rotate no_reflect no_shear #
ATTRIB_CUSTOM-attrib $7 -1 $-1 $2 $1 @22 generic_tag_attrib_def 3 3 -1 @23 generic_tag_attrib_def  4 3 @3 554 2 0 0 3 @3 573 6 0 0 3 @3 546 1 0 0 3 @3 549 1 0 0 #
shell $-1 -1 $-1 $-1 $-1 $8 $-1 $3 #
ATTRIB_CUSTOM-attrib $-1 -1 $-1 $-1 $5 @22 generic_tag_attrib_def 3 3 -1 @23 generic_tag_attrib_def  3 0 @0  0 3 556 557 596 0 0 @0  0 3 548 553 596 0 0 @0  0 3 551 552 596 0 #
face $9 190 $-1 $10 $11 $6 $-1 $12 forward single #
ATTRIB_CUSTOM-attrib $13 -1 $-1 $-1 $8 @22 generic_tag_attrib_def 3 3 -1 @23 generic_tag_attrib_def  1 1 @1 2 0 1 573 0 #
face $14 162 $-1 $15 $16 $6 $-1 $17 forward single #
loop $-1 -1 $-1 $-1 $18 $8 #
plane-surface $-1 -1 $-1 1.250000018626451936 -0.6800000000000001599 -4.850000055879359451 -1.970575965456777895e-46 1 2.220446049250316039e-16 1 -1.094764425253764892e-46 1.38050658413677101e-30 forward_v I I I I #
ATTRIB_CUSTOM-attrib $-1 -1 $-1 $-1 $9 @22 generic_tag_attrib_def 3 3 -1 @23 generic_tag_attrib_def  1 0 @0  0 1 596 0 #
ATTRIB_CUSTOM-attrib $19 -1 $-1 $-1 $10 @22 generic_tag_attrib_def 3 3 -1 @23 generic_tag_attrib_def  2 1 @1 3 0 8 519 522 -525 -529 546 554 -569 -591 0 1 @1 5 0 2 573 -591 0 #
face $20 163 $-1 $-1 $21 $6 $-1 $22 forward single #
loop $-1 -1 $-1 $23 $24 $10 #
cone-surface $-1 -1 $-1 1.250000018626451936 -0.7050000000000000711 -4.850000055879359451 -1.970575965456777895e-46 1 2.220446049250316039e-16 0.3800000000000000044 -4.160104815964305833e-47 5.245925019719729662e-31 1 I I 0 1 0.1500000000000000222 forward I I I I #
coedge $-1 -1 $-1 $18 $18 $24 $25 forward $11 0 $-1 #
ATTRIB_CUSTOM-attrib $-1 -1 $-1 $-1 $14 @22 generic_tag_attrib_def 3 3 -1 @23 generic_tag_attrib_def  1 0 @0  0 6 527 548 553 556 557 596 0 #
ATTRIB_CUSTOM-attrib $26 -1 $-1 $-1 $15 @22 generic_tag_attrib_def 3 3 -1 @23 generic_tag_attrib_def  1 1 @1 2 0 7 519 522 -526 546 554 -570 -590 0 #
loop $-1 -1 $-1 $-1 $27 $15 #
plane-surface $-1 -1 $-1 1.250000018626451936 -0.75 -4.850000055879359451 1.970575965456777895e-46 -1 -2.220446049250316039e-16 -1 1.094764425253764892e-46 -1.38050658413677101e-30 forward_v I I I I #
loop $-1 -1 $-1 $-1 $28 $10 #
coedge $-1 -1 $-1 $24 $24 $18 $25 reversed $16 0 $-1 #
edge $-1 191 $-1 $29 -3.141592653589793116 $29 3.141592653589793116 $24 $30 forward @7 unknown #
ATTRIB_CUSTOM-attrib $-1 -1 $-1 $-1 $20 @22 generic_tag_attrib_def 3 3 -1 @23 generic_tag_attrib_def  1 0 @0  0 6 527 548 553 556 557 596 0 #
coedge $-1 -1 $-1 $27 $27 $28 $31 forward $21 0 $-1 #
coedge $-1 -1 $-1 $28 $28 $27 $31 reversed $23 0 $-1 #
vertex $-1 1169 $-1 $25 0 $32 #
ellipse-curve $-1 -1 $-1 1.250000018626451936 -0.6800000000000001599 -4.850000055879359451 -1.970575965456777895e-46 1 2.220446049250316039e-16 0.3800000000000000044 -4.160104815964305833e-47 5.245925019719729662e-31 1 I I #
edge $-1 165 $-1 $33 -3.141592653589793116 $33 3.141592653589793116 $27 $34 forward @7 unknown #
point $-1 -1 $-1 0.870000018626452043 -0.6800000000000001599 -4.850000055879359451 #
vertex $-1 1170 $-1 $31 0 $35 #
ellipse-curve $-1 -1 $-1 1.250000018626451936 -0.75 -4.850000055879359451 1.970575965456777895e-46 -1 -2.220446049250316039e-16 0.3800000000000000044 -4.160104815964305833e-47 5.245925019719729662e-31 1 I I #
point $-1 -1 $-1 0.870000018626452043 -0.75 -4.850000055879359451 #
End-of-ASM-data 