22700 0 2 4           
16 Autodesk Neutron 20 ASM 227.1.1.65535 NT 24 Wed Aug 25 06:16:39 2021 
10 9.999999999999999547e-07 1.000000000000000036e-10 
asmheader $-1 -1 @13 227.1.1.65535 #
body $2 390 $-1 $3 $-1 $4 #
ATTRIB_CUSTOM-attrib $-1 -1 $5 $-1 $1 @20 Timestamp_attrib_def 1 1448199754001 #
lump $-1 -1 $-1 $-1 $6 $1 #
transform $-1 -1 1 0 0 0 1 0 0 0 1 0 0 0 1 no_rotate no_reflect no_shear #
ATTRIB_CUSTOM-attrib $7 -1 $-1 $2 $1 @22 generic_tag_attrib_def 3 3 -1 @23 generic_tag_attrib_def  1 3 @3 594 8 0 0 #
shell $-1 -1 $-1 $-1 $-1 $8 $-1 $3 #
ATTRIB_CUSTOM-attrib $-1 -1 $-1 $-1 $5 @22 generic_tag_attrib_def 3 3 -1 @23 generic_tag_attrib_def  1 0 @0  0 1 597 0 #
face $9 383 $-1 $10 $11 $6 $-1 $12 forward single #
ATTRIB_CUSTOM-attrib $13 -1 $-1 $-1 $8 @22 generic_tag_attrib_def 3 3 -1 @23 generic_tag_attrib_def  1 1 @1 2 0 3 573 594 595 0 #
face $14 384 $-1 $15 $16 $6 $-1 $17 forward single #
loop $-1 -1 $-1 $-1 $18 $8 #
plane-surface $-1 -1 $-1 1.250000018626451936 -0.8199999999999985079 -4.850000055879360339 4.598010586065813015e-46 -1 -2.220446049250318011e-16 1 1.53267019535526731e-46 1.38050658413677101e-30 reverse_v I I I I #
ATTRIB_CUSTOM-attrib $-1 -1 $-1 $-1 $9 @22 generic_tag_attrib_def 3 3 -1 @23 generic_tag_attrib_def  1 0 @0  0 1 597 0 #
ATTRIB_CUSTOM-attrib $19 -1 $-1 $-1 $10 @22 generic_tag_attrib_def 3 3 -1 @23 generic_tag_attrib_def  2 1 @1 3 0 10 519 522 -525 -529 546 554 -569 -591 594 595 0 1 @1 5 0 4 573 -591 594 595 0 #
face $20 385 $-1 $-1 $21 $6 $-1 $22 forward single #
loop $-1 -1 $-1 $23 $24 $10 #
cone-surface $-1 -1 $-1 1.250000018626451936 -0.7949999999999985967 -4.850000055879360339 -4.598010586065813015e-46 1 2.220446049250318011e-16 0.3800000000000000044 5.824146742350021262e-47 5.245925019719729662e-31 1 I I -0 1 0.1500000000000000222 reversed I I I I #
coedge $-1 -1 $-1 $18 $18 $24 $25 reversed $11 0 $-1 #
ATTRIB_CUSTOM-attrib $-1 -1 $-1 $-1 $14 @22 generic_tag_attrib_def 3 3 -1 @23 generic_tag_attrib_def  1 0 @0  0 1 597 0 #
ATTRIB_CUSTOM-attrib $26 -1 $-1 $-1 $15 @22 generic_tag_attrib_def 3 3 -1 @23 generic_tag_attrib_def  1 1 @1 2 0 9 519 522 -526 546 554 -570 -590 594 595 0 #
loop $-1 -1 $-1 $-1 $27 $15 #
plane-surface $-1 -1 $-1 1.250000018626451936 -0.7499999999999986677 -4.850000055879358563 -4.598010586065813015e-46 1 2.220446049250318011e-16 -1 -1.53267019535526731e-46 -1.38050658413677101e-30 reverse_v I I I I #
loop $-1 -1 $-1 $-1 $28 $10 #
coedge $-1 -1 $-1 $24 $24 $18 $25 forward $16 0 $-1 #
edge $-1 386 $-1 $29 -3.141592653589793116 $29 3.141592653589793116 $18 $30 forward @7 unknown #
ATTRIB_CUSTOM-attrib $-1 -1 $-1 $-1 $20 @22 generic_tag_attrib_def 3 3 -1 @23 generic_tag_attrib_def  1 0 @0  0 1 597 0 #
coedge $-1 -1 $-1 $27 $27 $28 $31 reversed $21 0 $-1 #
coedge $-1 -1 $-1 $28 $28 $27 $31 forward $23 0 $-1 #
vertex $-1 1177 $-1 $25 0 $32 #
ellipse-curve $-1 -1 $-1 1.250000018626451936 -0.8199999999999985079 -4.850000055879360339 -4.598010586065813015e-46 1 2.220446049250318011e-16 0.3800000000000000044 5.824146742350021262e-47 5.245925019719729662e-31 1 I I #
edge $-1 387 $-1 $33 -3.141592653589793116 $33 3.141592653589793116 $28 $34 forward @7 unknown #
point $-1 -1 $-1 0.870000018626451932 -0.8199999999999985079 -4.850000055879360339 #
vertex $-1 1178 $-1 $31 0 $35 #
ellipse-curve $-1 -1 $-1 1.250000018626451936 -0.7499999999999986677 -4.850000055879358563 4.598010586065813015e-46 -1 -2.220446049250318011e-16 0.3800000000000000044 5.824146742350021262e-47 5.245925019719729662e-31 1 I I #
point $-1 -1 $-1 0.870000018626451932 -0.7499999999999986677 -4.850000055879358563 #
End-of-ASM-data 