22700 0 2 4           
16 Autodesk Neutron 20 ASM 227.1.1.65535 NT 24 Wed Aug 25 06:16:46 2021 
10 9.999999999999999547e-07 1.000000000000000036e-10 
asmheader $-1 -1 @13 227.1.1.65535 #
body $2 1164 $-1 $3 $-1 $-1 #
ATTRIB_CUSTOM-attrib $-1 -1 $4 $-1 $1 @20 Timestamp_attrib_def 1 1448291910001 #
lump $-1 -1 $-1 $-1 $5 $1 #
ATTRIB_CUSTOM-attrib $6 -1 $-1 $2 $1 @22 generic_tag_attrib_def 3 3 -1 @23 generic_tag_attrib_def  1 3 @3 781 4 0 0 #
shell $-1 -1 $-1 $-1 $-1 $7 $-1 $3 #
ATTRIB_CUSTOM-attrib $-1 -1 $-1 $-1 $4 @22 generic_tag_attrib_def 3 3 -1 @23 generic_tag_attrib_def  1 0 @0  0 1 790 0 #
face $8 1023 $-1 $9 $10 $5 $-1 $11 reversed single #
ATTRIB_CUSTOM-attrib $12 -1 $-1 $-1 $7 @22 generic_tag_attrib_def 3 3 -1 @23 generic_tag_attrib_def  1 1 @1 3 0 5 722 725 -756 -763 781 0 #
face $13 1024 $-1 $14 $15 $5 $-1 $16 forward single #
loop $-1 -1 $-1 $17 $18 $7 #
cone-surface $-1 -1 $-1 1.250000018626453269 -0.5050000000000240963 -4.44500005587936986 4.930380657630763264e-32 -1 -3.445092848397554122e-16 -0.02999999999999981154 4.258117906104404424e-33 -1.665334536937723964e-17 1 I I 0 1 0.03999999999999981348 forward I I I I #
ATTRIB_CUSTOM-attrib $-1 -1 $-1 $-1 $8 @22 generic_tag_attrib_def 3 3 -1 @23 generic_tag_attrib_def  1 0 @0  0 6 724 728 741 742 743 790 0 #
ATTRIB_CUSTOM-attrib $19 -1 $-1 $-1 $9 @22 generic_tag_attrib_def 3 3 -1 @23 generic_tag_attrib_def  1 1 @1 3 0 7 715 -717 -720 725 -754 -763 781 0 #
face $20 1025 $-1 $21 $22 $5 $-1 $23 forward single #
loop $-1 -1 $-1 $24 $25 $9 #
cone-surface $-1 -1 $-1 1.250000018626453269 -0.5350000000000241229 -4.44500005587936986 8.665930076838058067e-32 1 9.95799250102866936e-17 0.06000000000000000472 -8.516235812208863587e-33 3.330669073875469498e-17 1 I I 0 1 0.1000000000000000056 forward I I I I #
loop $-1 -1 $-1 $-1 $26 $7 #
coedge $-1 -1 $-1 $18 $18 $27 $28 reversed $10 0 $-1 #
ATTRIB_CUSTOM-attrib $-1 -1 $-1 $-1 $13 @22 generic_tag_attrib_def 3 3 -1 @23 generic_tag_attrib_def  1 0 @0  0 7 716 724 728 741 742 743 790 0 #
ATTRIB_CUSTOM-attrib $29 -1 $-1 $-1 $14 @22 generic_tag_attrib_def 3 3 -1 @23 generic_tag_attrib_def  1 1 @1 2 0 6 715 -718 725 -755 -757 781 0 #
face $30 1026 $-1 $-1 $31 $5 $-1 $32 forward single #
loop $-1 -1 $-1 $33 $27 $14 #
plane-surface $-1 -1 $-1 1.250000018626453269 -0.5850000000000240563 -4.44500005587936986 -8.665930076838058067e-32 -1 -9.95799250102866936e-17 -1 1.419372635368143794e-31 -5.551115123125781716e-16 forward_v I I I I #
loop $-1 -1 $-1 $-1 $34 $9 #
coedge $-1 -1 $-1 $25 $25 $35 $36 reversed $15 0 $-1 #
coedge $37 -1 $-1 $26 $26 $38 $39 reversed $17 0 $-1 #
coedge $-1 -1 $-1 $27 $27 $18 $28 forward $22 0 $-1 #
edge $-1 1027 $-1 $40 -3.141592653589793116 $40 3.141592653589793116 $27 $41 forward @7 unknown #
ATTRIB_CUSTOM-attrib $-1 -1 $-1 $-1 $20 @22 generic_tag_attrib_def 3 3 -1 @23 generic_tag_attrib_def  1 0 @0  0 7 716 724 728 741 742 743 790 0 #
ATTRIB_CUSTOM-attrib $42 -1 $-1 $-1 $21 @22 generic_tag_attrib_def 3 3 -1 @23 generic_tag_attrib_def  1 1 @1 1 0 8 715 -718 -719 725 -755 -757 -762 781 0 #
loop $-1 -1 $-1 $43 $38 $21 #
plane-surface $-1 -1 $-1 1.250000018626453269 -0.5200000000000241096 -4.44500005587936986 8.665930076838058067e-32 1 9.95799250102866936e-17 1 -1.419372635368143794e-31 5.551115123125781716e-16 forward_v I I I I #
loop $-1 -1 $-1 $-1 $35 $14 #
coedge $-1 -1 $-1 $34 $34 $44 $45 reversed $24 0 $-1 #
coedge $-1 -1 $-1 $35 $35 $25 $36 forward $33 0 $-1 #
edge $-1 1029 $-1 $46 -3.141592653589793116 $46 3.141592653589793116 $35 $47 reversed @7 unknown #
ATTRIB_CUSTOM-attrib $-1 -1 $-1 $-1 $26 @17 sketch_attrib_def 1 1 3 @13 195 0 0 0 1 1 #
coedge $-1 -1 $-1 $38 $38 $26 $39 forward $31 0 $-1 #
edge $-1 1028 $-1 $48 -3.141592653589793116 $48 3.141592653589793116 $38 $49 reversed @7 unknown #
vertex $-1 1236 $-1 $28 0 $50 #
ellipse-curve $-1 -1 $-1 1.250000018626453269 -0.5850000000000240563 -4.44500005587936986 8.665930076838058067e-32 1 9.95799250102866936e-17 -0.02999999999999981154 4.258117906104404424e-33 -1.665334536937723964e-17 1 I I #
ATTRIB_CUSTOM-attrib $-1 -1 $-1 $-1 $30 @22 generic_tag_attrib_def 3 3 -1 @23 generic_tag_attrib_def  1 0 @0  0 7 716 724 728 741 742 743 790 0 #
loop $-1 -1 $-1 $-1 $44 $21 #
coedge $-1 -1 $-1 $44 $44 $34 $45 forward $43 0 $-1 #
edge $-1 1030 $-1 $51 -3.141592653589793116 $51 3.141592653589793116 $44 $52 forward @7 unknown #
vertex $-1 1238 $-1 $36 0 $53 #
ellipse-curve $-1 -1 $-1 1.250000018626453269 -0.5850000000000240563 -4.44500005587936986 8.665930076838058067e-32 1 9.95799250102866936e-17 0.06000000000000000472 -8.516235812208863587e-33 3.330669073875469498e-17 1 I I #
vertex $-1 1237 $-1 $39 0 $54 #
ellipse-curve $-1 -1 $-1 1.250000018626453269 -0.5200000000000241096 -4.44500005587936986 8.665930076838058067e-32 1 9.95799250102866936e-17 -0.02999999999999981154 4.258117906104404424e-33 -1.665334536937723964e-17 1 I I #
point $-1 -1 $-1 1.280000018626453073 -0.5850000000000240563 -4.44500005587936986 #
vertex $-1 1239 $-1 $45 0 $55 #
ellipse-curve $-1 -1 $-1 1.250000018626453269 -0.5200000000000241096 -4.44500005587936986 8.665930076838058067e-32 1 9.95799250102866936e-17 0.06000000000000000472 -8.516235812208863587e-33 3.330669073875469498e-17 1 I I #
point $-1 -1 $-1 1.190000018626453215 -0.5850000000000240563 -4.44500005587936986 #
point $-1 -1 $-1 1.280000018626453073 -0.5200000000000241096 -4.44500005587936986 #
point $-1 -1 $-1 1.190000018626453215 -0.5200000000000241096 -4.44500005587936986 #
End-of-ASM-data 