22700 0 2 4           
16 Autodesk Neutron 20 ASM 227.1.1.65535 NT 24 Wed Aug 25 06:16:45 2021 
10 9.999999999999999547e-07 1.000000000000000036e-10 
asmheader $-1 -1 @13 227.1.1.65535 #
body $2 1163 $-1 $3 $-1 $-1 #
ATTRIB_CUSTOM-attrib $-1 -1 $4 $-1 $1 @20 Timestamp_attrib_def 1 1448291910001 #
lump $-1 -1 $-1 $-1 $5 $1 #
ATTRIB_CUSTOM-attrib $6 -1 $-1 $2 $1 @22 generic_tag_attrib_def 3 3 -1 @23 generic_tag_attrib_def  1 3 @3 781 3 0 0 #
shell $-1 -1 $-1 $-1 $-1 $7 $-1 $3 #
ATTRIB_CUSTOM-attrib $-1 -1 $-1 $-1 $4 @22 generic_tag_attrib_def 3 3 -1 @23 generic_tag_attrib_def  1 0 @0  0 1 790 0 #
face $8 977 $-1 $9 $10 $5 $-1 $11 forward single #
ATTRIB_CUSTOM-attrib $12 -1 $-1 $-1 $7 @22 generic_tag_attrib_def 3 3 -1 @23 generic_tag_attrib_def  1 1 @1 1 0 10 679 683 -687 -688 -691 -692 695 700 703 781 0 #
face $13 978 $-1 $14 $15 $5 $-1 $16 forward single #
loop $-1 -1 $-1 $-1 $17 $7 #
cone-surface $-1 -1 $-1 1.63617529375954196 -1.020468745343406258 -5.063937356975745097 0.8660254037844390407 2.33486982377246069e-16 -0.4999999999999992784 0.004143203796014921329 0.008286407592029849598 0.00717623948081010099 1 I I 0 1 0.01171875 forward I I I I #
ATTRIB_CUSTOM-attrib $-1 -1 $-1 $-1 $8 @22 generic_tag_attrib_def 3 3 -1 @23 generic_tag_attrib_def  1 0 @0  0 13 689 693 697 699 702 705 707 708 709 712 713 742 790 0 #
ATTRIB_CUSTOM-attrib $18 -1 $-1 $-1 $9 @22 generic_tag_attrib_def 3 3 -1 @23 generic_tag_attrib_def  1 1 @1 2 0 10 679 683 -687 -688 -691 -692 695 700 703 781 0 #
face $19 979 $-1 $20 $21 $5 $-1 $22 forward single #
loop $-1 -1 $-1 $-1 $23 $9 #
torus-surface $-1 -1 $-1 1.597010138934538803 -1.020468745343406258 -5.045835893272719197 -1.060575238724902354e-16 1 2.832769448823894158e-16 0.003906250000000004337 0.01171875 0.8660254037844390407 2.334869823772456746e-16 -0.4999999999999992784 forward_v I I I I #
coedge $-1 -1 $-1 $24 $25 $26 $27 forward $10 0 $-1 #
ATTRIB_CUSTOM-attrib $-1 -1 $-1 $-1 $13 @22 generic_tag_attrib_def 3 3 -1 @23 generic_tag_attrib_def  1 0 @0  0 13 689 693 697 699 702 705 707 708 709 712 713 742 790 0 #
ATTRIB_CUSTOM-attrib $28 -1 $-1 $-1 $14 @22 generic_tag_attrib_def 3 3 -1 @23 generic_tag_attrib_def  1 1 @1 3 0 10 679 683 -687 -688 -691 -692 695 700 703 781 0 #
face $29 980 $-1 $30 $31 $5 $-1 $32 forward single #
loop $-1 -1 $-1 $-1 $33 $14 #
cone-surface $-1 -1 $-1 1.601439727201007246 -1.020468745343406258 -5.030351121338589415 0.4999999999999992784 -1.922962686383490354e-16 0.8660254037844391517 -0.007176239480809893691 0.008286407592030083785 0.004143203796014806838 1 I I 0 1 0.01171874999999999653 forward I I I I #
coedge $-1 -1 $-1 $34 $35 $36 $37 forward $15 0 $-1 #
coedge $-1 -1 $-1 $38 $17 $39 $40 forward $10 0 $-1 #
coedge $-1 -1 $-1 $17 $38 $41 $42 forward $10 0 $-1 #
coedge $-1 -1 $-1 $43 $44 $17 $27 reversed $45 0 $-1 #
edge $-1 991 $-1 $46 0.01412638098522204719 $47 0.02825677078290862732 $26 $48 forward @7 unknown #
ATTRIB_CUSTOM-attrib $-1 -1 $-1 $-1 $19 @22 generic_tag_attrib_def 3 3 -1 @23 generic_tag_attrib_def  1 0 @0  0 13 689 693 697 699 702 705 707 708 709 712 713 742 790 0 #
ATTRIB_CUSTOM-attrib $49 -1 $-1 $-1 $20 @22 generic_tag_attrib_def 3 3 -1 @23 generic_tag_attrib_def  1 1 @1 4 0 10 679 683 -687 -688 -691 -692 695 700 703 781 0 #
face $50 981 $-1 $51 $52 $5 $-1 $53 forward single #
loop $-1 -1 $-1 $-1 $54 $20 #
torus-surface $-1 -1 $-1 1.593103888934538803 -1.020468745343406258 -5.052601716739785864 -1.060575238724902354e-16 1 2.832769448823894158e-16 0.003906250000000002602 0.01171875 0.8660254037844390407 2.334869823772456746e-16 -0.4999999999999992784 forward_v I I I I #
coedge $-1 -1 $-1 $55 $56 $57 $58 forward $21 0 $-1 #
coedge $-1 -1 $-1 $59 $23 $60 $61 forward $15 0 $-1 #
coedge $-1 -1 $-1 $23 $59 $62 $63 forward $15 0 $-1 #
coedge $-1 -1 $-1 $56 $55 $23 $37 reversed $21 0 $-1 #
edge $-1 995 $-1 $64 0 $65 1.570796326794896558 $23 $66 forward @7 tangent #
coedge $-1 -1 $-1 $25 $24 $59 $67 forward $10 0 $-1 #
coedge $-1 -1 $-1 $68 $62 $24 $40 reversed $69 0 $-1 #
edge $-1 992 $-1 $47 -0.06528265069197747295 $70 0.03437500069849219742 $39 $71 forward @7 tangent #
coedge $-1 -1 $-1 $72 $73 $25 $42 reversed $74 0 $-1 #
edge $-1 994 $-1 $75 -0.03437500069849219742 $46 0.06493817144591629287 $41 $76 forward @7 tangent #
coedge $77 -1 $-1 $78 $26 $73 $79 reversed $45 0 $-1 #
coedge $-1 -1 $-1 $26 $80 $68 $81 reversed $45 0 $-1 #
loop $-1 -1 $-1 $-1 $80 $82 #
vertex $-1 1216 $-1 $27 0 $83 #
vertex $-1 1217 $-1 $27 1 $84 #
intcurve-curve $-1 -1 $-1 forward { int_int_cur 22140 full nubs 3 open 5 
	0.01412638098522204719 3 0.01765964143034294553 2 0.02119290187546384041 2 0.02472483632918623386 2 0.02825677078290862732 3 
	1.712332301443883376 -1.020468745343406258 -5.094374978928843056 
	1.712352836983675575 -1.01899674446989108 -5.094386835128271507 
	1.712238594646812162 -1.017426963086568437 -5.094660683277367319 
	1.711720062868338887 -1.014539571037984533 -5.095742634952086014 
	1.711315523078129397 -1.013221955178710498 -5.096550604616820301 
	1.710356766969388653 -1.011141607588932123 -5.098399680821301239 
	1.709738724517067654 -1.010239953452253481 -5.099564062029178224 
	1.708351293433371554 -1.009044152505992109 -5.102096560558098126 
	1.707581655844448543 -1.008749995343406036 -5.103464536590970546 
	1.706845836166589914 -1.008749995343406036 -5.10473901365823135 
	0.0001148411381161891065 
	
	cone 1.63617529375954196 -1.020468745343406258 -5.063937356975745097 0.8660254037844390407 2.33486982377246069e-16 -0.4999999999999992784 0.004143203796014921329 0.008286407592029849598 0.00717623948081010099 1 I I 0 1 0.01171875 forward I I I I 
	cone 1.958569116720194625 -1.02504900160945045 -5.236539870513016837 -0.4999999999999992784 1.922962686383490354e-16 -0.8660254037844391517 -0.1643034176832502968 -0.2118259983905685651 0.09486062242819984225 1 I I 0 -1 0.2843666723510742678 forward I I I I 
	nullbs 
	nullbs 
	I I 
	0 
	0 
	0 
	
	0 } I I #
ATTRIB_CUSTOM-attrib $-1 -1 $-1 $-1 $29 @22 generic_tag_attrib_def 3 3 -1 @23 generic_tag_attrib_def  1 0 @0  0 13 689 693 697 699 702 705 707 708 709 712 713 742 790 0 #
ATTRIB_CUSTOM-attrib $85 -1 $-1 $-1 $30 @22 generic_tag_attrib_def 3 3 -1 @23 generic_tag_attrib_def  1 1 @1 5 0 10 679 683 -687 -688 -691 -692 695 700 703 781 0 #
face $86 982 $-1 $82 $69 $5 $-1 $87 forward single #
loop $-1 -1 $-1 $-1 $88 $30 #
cone-surface $-1 -1 $-1 1.62836279375954196 -1.020468745343406258 -5.077469003909876655 0.8660254037844390407 2.33486982377246069e-16 -0.4999999999999992784 -0.004143203796014923064 0.008286407592029853067 -0.007176239480810094919 1 I I 0 1 0.01171875 forward I I I I #
coedge $-1 -1 $-1 $89 $90 $91 $92 forward $31 0 $-1 #
coedge $-1 -1 $-1 $36 $33 $93 $94 forward $21 0 $-1 #
coedge $-1 -1 $-1 $33 $36 $95 $96 forward $21 0 $-1 #
coedge $-1 -1 $-1 $90 $89 $33 $58 reversed $31 0 $-1 #
edge $-1 998 $-1 $97 0 $98 1.570796326794896558 $33 $99 forward @7 tangent #
coedge $-1 -1 $-1 $35 $34 $38 $67 reversed $15 0 $-1 #
coedge $-1 -1 $-1 $100 $101 $34 $61 reversed $102 0 $-1 #
edge $-1 996 $-1 $65 -0.7853981633974495002 $75 0.7853981633974470578 $60 $103 forward @7 tangent #
coedge $-1 -1 $-1 $39 $95 $35 $63 reversed $69 0 $-1 #
edge $-1 997 $-1 $70 -0.7853981633974470578 $64 0.7853981633974495002 $62 $104 forward @7 tangent #
vertex $-1 1220 $-1 $37 0 $105 #
vertex $-1 1221 $-1 $37 1 $106 #
ellipse-curve $-1 -1 $-1 1.593627227201007246 -1.020468745343406036 -5.043882768272719197 0.4999999999999992784 -1.922962686383490354e-16 0.8660254037844391517 -1.242861607880751157e-18 0.01171874999999999306 3.319651697840488641e-18 1 F 0 F 1.570796326794896558 #
edge $-1 993 $-1 $70 0 $75 1.570796326794896558 $38 $107 forward @7 tangent #
coedge $-1 -1 $-1 $108 $39 $44 $81 forward $69 0 $-1 #
loop $-1 -1 $-1 $-1 $108 $51 #
vertex $-1 1218 $-1 $40 1 $109 #
straight-curve $-1 -1 $-1 1.63617529375954196 -1.008749995343406258 -5.063937356975745097 -1.082531754730549078 -2.918587279715571919e-16 0.6249999999999992228 F -0.1509385020954758794 F 0.05718850069849246154 #
coedge $-1 -1 $-1 $110 $41 $101 $111 reversed $74 0 $-1 #
coedge $112 -1 $-1 $41 $113 $43 $79 forward $74 0 $-1 #
loop $-1 -1 $-1 $-1 $41 $114 #
vertex $-1 1219 $-1 $67 1 $115 #
straight-curve $-1 -1 $-1 1.64203466875954196 -1.020468745343406258 -5.053788621775146872 1.082531754730549078 2.918587279715571919e-16 -0.6249999999999992228 F -0.05718850069849246154 F 0.1509385020954758794 #
ATTRIB_CUSTOM-attrib $-1 -1 $-1 $-1 $43 @17 sketch_attrib_def 1 1 3 @13 192 0 1 0 1 1 #
coedge $-1 -1 $-1 $116 $43 $117 $118 forward $45 0 $-1 #
edge $-1 1008 $-1 $119 6.703828348706799033e-17 $46 0.8564991701543941405 $43 $120 forward @7 unknown #
coedge $-1 -1 $-1 $44 $116 $88 $121 reversed $45 0 $-1 #
edge $-1 1007 $-1 $47 0.009374999999999999653 $122 0.02187499999999999861 $44 $123 forward @7 unknown #
face $124 983 $-1 $125 $45 $5 $-1 $126 forward single #
point $-1 -1 $-1 1.712332301443882487 -1.020468745343406258 -5.094374978928843056 #
point $-1 -1 $-1 1.706845836166589914 -1.008749995343406036 -5.10473901365823135 #
ATTRIB_CUSTOM-attrib $-1 -1 $-1 $-1 $50 @22 generic_tag_attrib_def 3 3 -1 @23 generic_tag_attrib_def  1 0 @0  0 13 689 693 697 699 702 705 707 708 709 712 713 742 790 0 #
ATTRIB_CUSTOM-attrib $127 -1 $-1 $-1 $51 @22 generic_tag_attrib_def 3 3 -1 @23 generic_tag_attrib_def  1 1 @1 6 0 10 675 683 -686 -688 -690 -692 695 700 703 781 0 #
plane-surface $-1 -1 $-1 1.591290992000408133 -1.008749995343406258 -5.024491746338587639 -1.060575238724902354e-16 1 2.832769448823894158e-16 1.353164693413186015 3.648234099644480675e-16 -0.7812499999999988898 forward_v I I I I #
coedge $-1 -1 $-1 $128 $129 $80 $121 forward $52 0 $-1 #
coedge $-1 -1 $-1 $57 $54 $130 $131 forward $31 0 $-1 #
coedge $-1 -1 $-1 $54 $57 $132 $133 forward $31 0 $-1 #
coedge $-1 -1 $-1 $129 $128 $54 $92 reversed $52 0 $-1 #
edge $-1 1001 $-1 $134 0 $135 1.570796326794896558 $54 $136 forward @7 tangent #
coedge $-1 -1 $-1 $137 $138 $55 $94 reversed $139 0 $-1 #
edge $-1 999 $-1 $98 -0.01874999999999999931 $65 -0.01250000000000000243 $93 $140 forward @7 tangent #
coedge $-1 -1 $-1 $62 $132 $56 $96 reversed $69 0 $-1 #
edge $-1 1000 $-1 $64 0.01250000000000000243 $97 0.01874999999999999931 $95 $141 forward @7 tangent #
vertex $-1 1222 $-1 $58 0 $142 #
vertex $-1 1223 $-1 $58 1 $143 #
ellipse-curve $-1 -1 $-1 1.589720977201007246 -1.020468745343406036 -5.050648591739785864 0.4999999999999992784 -1.922962686383490354e-16 0.8660254037844391517 -1.242861607880751157e-18 0.01171874999999999306 3.319651697840488641e-18 1 F 0 F 1.570796326794896558 #
coedge $-1 -1 $-1 $144 $60 $138 $145 forward $102 0 $-1 #
coedge $-1 -1 $-1 $60 $144 $72 $111 forward $102 0 $-1 #
loop $-1 -1 $-1 $-1 $60 $125 #
ellipse-curve $-1 -1 $-1 1.597010138934538803 -1.020468745343406258 -5.045835893272719197 -1.060575238724902354e-16 1 2.832769448823894158e-16 -0.004044047579726883085 -4.704284751699694621e-18 0.01509259103576669585 1 I I #
ellipse-curve $-1 -1 $-1 1.597010138934538803 -1.008749995343406258 -5.045835893272719197 1.060575238724902354e-16 -1 -2.832769448823894158e-16 -0.001011011894931721422 -1.176071187924929818e-18 0.003773147758941676998 1 I I #
point $-1 -1 $-1 1.593627227201007246 -1.008749995343406258 -5.043882768272719197 #
point $-1 -1 $-1 1.583478492000407245 -1.020468745343406258 -5.038023393272719197 #
ellipse-curve $-1 -1 $-1 1.598963263934538803 -1.020468745343406258 -5.04245298153918764 0.8660254037844390407 2.33486982377246069e-16 -0.4999999999999992784 -1.242861607880751157e-18 0.01171874999999999306 3.319651697840488641e-18 1 F 0 F 1.570796326794896558 #
coedge $-1 -1 $-1 $132 $68 $129 $146 reversed $69 0 $-1 #
point $-1 -1 $-1 1.598963263934538803 -1.008749995343406258 -5.04245298153918764 #
coedge $147 -1 $-1 $113 $72 $148 $149 forward $74 0 $-1 #
edge $-1 1013 $-1 $150 -0.05000000074505810133 $75 0.1385000022351741966 $101 $151 forward @7 tangent #
ATTRIB_CUSTOM-attrib $-1 -1 $-1 $-1 $73 @17 sketch_attrib_def 1 1 3 @13 192 0 1 0 1 1 #
coedge $152 -1 $-1 $73 $110 $153 $154 forward $74 0 $-1 #
face $155 986 $-1 $156 $74 $5 $-1 $157 reversed single #
point $-1 -1 $-1 1.604822638934538803 -1.020468745343406258 -5.032304246338587639 #
coedge $-1 -1 $-1 $80 $78 $158 $159 reversed $45 0 $-1 #
coedge $-1 -1 $-1 $153 $160 $78 $118 reversed $161 0 $-1 #
edge $-1 1009 $-1 $119 0 $162 0.02500000000000000139 $117 $163 forward @7 unknown #
vertex $-1 1228 $-1 $79 0 $164 #
ellipse-curve $-1 -1 $-1 1.958569116720194625 -1.02504900160945045 -5.236539870513016837 -0.4999999999999992784 1.922962686383490354e-16 -0.8660254037844391517 -0.1643034176832502968 -0.2118259983905685651 0.09486062242819984225 1 I I #
edge $-1 1004 $-1 $122 0.02825677079048267634 $165 0.04238716058816924953 $80 $166 forward @7 unknown #
vertex $-1 1226 $-1 $121 0 $167 #
straight-curve $-1 -1 $-1 1.712705211166589914 -1.008749995343406036 -5.094590278457631349 -0.6249999999999992228 2.403703357979339276e-16 -1.082531754730549078 F -0.031251000000000001 F 0.062501000000000001 #
ATTRIB_CUSTOM-attrib $168 -1 $-1 $-1 $82 @22 generic_tag_attrib_def 3 3 -1 @23 generic_tag_attrib_def  1 1 @1 7 0 10 675 683 -687 -688 -691 -692 695 700 703 781 0 #
face $169 984 $-1 $170 $102 $5 $-1 $171 forward single #
cone-surface $-1 -1 $-1 1.958569116720194625 -1.02504900160945045 -5.236539870513016837 -0.4999999999999992784 1.922962686383490354e-16 -0.8660254037844391517 -0.1643034176832502968 -0.2118259983905685651 0.09486062242819984225 1 I I 0 -1 0.2843666723510742678 forward I I I I #
ATTRIB_CUSTOM-attrib $-1 -1 $-1 $-1 $86 @22 generic_tag_attrib_def 3 3 -1 @23 generic_tag_attrib_def  1 0 @0  0 13 689 693 697 699 702 705 707 708 709 712 713 742 790 0 #
coedge $-1 -1 $-1 $91 $88 $172 $173 forward $52 0 $-1 #
coedge $-1 -1 $-1 $88 $91 $108 $146 forward $52 0 $-1 #
coedge $-1 -1 $-1 $174 $175 $89 $131 reversed $176 0 $-1 #
edge $-1 1002 $-1 $135 -0.7853981633974472798 $98 0.7853981633974492782 $130 $177 forward @7 tangent #
coedge $-1 -1 $-1 $95 $108 $90 $133 reversed $69 0 $-1 #
edge $-1 1003 $-1 $97 -0.7853981633974492782 $134 0.7853981633974472798 $132 $178 forward @7 tangent #
vertex $-1 1224 $-1 $92 0 $179 #
vertex $-1 1225 $-1 $92 1 $180 #
ellipse-curve $-1 -1 $-1 1.591150763934538803 -1.020468745343406258 -5.055984628473319198 -0.8660254037844390407 -2.33486982377246069e-16 0.4999999999999992784 -1.242861607880751157e-18 0.01171874999999999306 3.319651697840488641e-18 1 F 0 F 1.570796326794896558 #
coedge $-1 -1 $-1 $181 $93 $175 $182 reversed $139 0 $-1 #
coedge $-1 -1 $-1 $93 $181 $100 $145 reversed $139 0 $-1 #
loop $-1 -1 $-1 $-1 $93 $156 #
straight-curve $-1 -1 $-1 1.591290992000408133 -1.020468745343406258 -5.024491746338589415 0.6249999999999992228 -2.403703357979339276e-16 1.082531754730549078 F -0.02906349999999999906 F -0.00218650000000000181 #
straight-curve $-1 -1 $-1 1.601439727201007246 -1.008749995343406258 -5.030351121338587639 -0.6249999999999992228 2.403703357979339276e-16 -1.082531754730549078 F 0.00218650000000000181 F 0.02906349999999999906 #
point $-1 -1 $-1 1.589720977201007246 -1.008749995343406258 -5.050648591739785864 #
point $-1 -1 $-1 1.579572242000408133 -1.020468745343406258 -5.044789216739785864 #
coedge $-1 -1 $-1 $101 $100 $183 $184 forward $102 0 $-1 #
edge $-1 1011 $-1 $65 -13.85000022351741755 $185 5.000000074505809522 $100 $186 forward @7 tangent #
edge $-1 1006 $-1 $134 -0.03437500069849219742 $122 0.06528265069197747295 $108 $187 forward @7 tangent #
ATTRIB_CUSTOM-attrib $-1 -1 $-1 $-1 $110 @17 sketch_attrib_def 1 1 3 @13 185 0 1 0 1 1 #
coedge $188 -1 $-1 $183 $189 $110 $149 reversed $190 0 $-1 #
edge $-1 1017 $-1 $150 0.009999999999999786837 $191 0.1500000022351741791 $148 $192 forward @7 unknown #
vertex $-1 1231 $-1 $184 1 $193 #
straight-curve $-1 -1 $-1 1.604822638934538803 -1.236874998835865824 -5.032304246338586751 -1.657148810507682662e-16 1.5625 4.426202263787332157e-16 I I #
ATTRIB_CUSTOM-attrib $-1 -1 $194 $-1 $113 @17 sketch_attrib_def 1 1 3 @13 186 0 1 0 1 2 #
coedge $195 -1 $-1 $196 $117 $113 $154 reversed $161 0 $-1 #
edge $-1 1018 $-1 $191 0 $119 0.0499999999999999889 $153 $197 forward @7 unknown #
ATTRIB_CUSTOM-attrib $198 -1 $-1 $-1 $114 @22 generic_tag_attrib_def 3 3 -1 @23 generic_tag_attrib_def  1 1 @1 1 0 10 675 683 -687 -688 -691 -692 695 700 703 781 0 #
face $199 987 $-1 $200 $139 $5 $-1 $201 forward single #
plane-surface $-1 -1 $-1 1.692778345518676675 -1.158749997671712606 -5.083085497211703441 -0.4999999999999992784 1.922962686383490354e-16 -0.8660254037844391517 -1.353164693413186015 -3.648234099644480675e-16 0.7812499999999988898 forward_v I I I I #
coedge $-1 -1 $-1 $202 $172 $116 $159 forward $203 0 $-1 #
edge $-1 1010 $-1 $165 -0.8564991701543941405 $162 -6.703828348706799033e-17 $116 $204 forward @7 unknown #
coedge $-1 -1 $-1 $117 $196 $202 $205 reversed $161 0 $-1 #
loop $-1 -1 $-1 $-1 $153 $206 #
vertex $-1 1229 $-1 $118 1 $207 #
straight-curve $-1 -1 $-1 1.79426569903694455 -1.236875000000019043 -5.141679248084816578 -0.7812499999999988898 3.00462919747420565e-16 -1.353164693413186015 I I #
point $-1 -1 $-1 1.79426569903694455 -1.236875000000019043 -5.141679248084816578 #
vertex $-1 1227 $-1 $121 1 $208 #
intcurve-curve $-1 -1 $-1 forward { int_int_cur 22140 full nubs 3 open 5 
	0.02825677079048267634 3 0.03178870524420506632 2 0.03532063969792745978 2 0.03885390014304835465 2 0.04238716058816924953 3 
	1.699033336166589914 -1.008749995343406036 -5.118270660592361132 
	1.698297516488731285 -1.008749995343406036 -5.119545137659623713 
	1.697497633286956686 -1.009044152505992109 -5.120895651379773206 
	1.695998140767713602 -1.010239953452253481 -5.123363451208713393 
	1.695298778288163222 -1.011141607588932123 -5.124480882276979621 
	1.694176809375921078 -1.013221955178710498 -5.126235727525423336 
	1.693679357015878129 -1.014539571037984533 -5.126990054092952498 
	1.693001625269141552 -1.017426963086568437 -5.12798009162313928 
	1.692821586983675797 -1.018996744469890858 -5.128215952463599514 
	1.692801051443883598 -1.020468745343406036 -5.12820409626417284 
	0.0001148411381160020816 
	
	cone 1.62836279375954196 -1.020468745343406258 -5.077469003909876655 0.8660254037844390407 2.33486982377246069e-16 -0.4999999999999992784 -0.004143203796014923064 0.008286407592029853067 -0.007176239480810094919 1 I I 0 1 0.01171875 forward I I I I 
	cone 1.958569116720194625 -1.02504900160945045 -5.236539870513016837 -0.4999999999999992784 1.922962686383490354e-16 -0.8660254037844391517 -0.1643034176832502968 -0.2118259983905685651 0.09486062242819984225 1 I I 0 -1 0.2843666723510742678 forward I I I I 
	nullbs 
	nullbs 
	I I 
	0 
	0 
	0 
	
	0 } I I #
point $-1 -1 $-1 1.699033336166589914 -1.008749995343406036 -5.118270660592361132 #
ATTRIB_CUSTOM-attrib $-1 -1 $-1 $-1 $124 @22 generic_tag_attrib_def 3 3 -1 @23 generic_tag_attrib_def  1 0 @0  0 13 689 693 697 699 702 705 707 708 709 712 713 742 790 0 #
ATTRIB_CUSTOM-attrib $209 -1 $-1 $-1 $125 @22 generic_tag_attrib_def 3 3 -1 @23 generic_tag_attrib_def  1 1 @1 1 0 10 678 683 -687 -688 -691 -692 695 700 703 781 0 #
face $210 985 $-1 $114 $176 $5 $-1 $211 forward single #
cone-surface $-1 -1 $-1 1.597010138934538803 -1.236874998835865824 -5.045835893272720085 1.060575238724902354e-16 -1 -2.832769448823894158e-16 -0.004044047579726738235 -4.704284751699694621e-18 0.01509259103576673575 1 I I 0 1 0.01562500000000000347 forward I I I I #
coedge $-1 -1 $-1 $158 $212 $128 $173 reversed $203 0 $-1 #
edge $-1 1005 $-1 $165 -0.06493817144591629287 $135 0.03437500069849219742 $172 $213 forward @7 tangent #
coedge $-1 -1 $-1 $214 $130 $212 $215 reversed $176 0 $-1 #
coedge $-1 -1 $-1 $130 $214 $137 $182 forward $176 0 $-1 #
loop $-1 -1 $-1 $-1 $130 $170 #
ellipse-curve $-1 -1 $-1 1.593103888934538803 -1.020468745343406258 -5.052601716739785864 -1.060575238724902354e-16 1 2.832769448823894158e-16 -0.01509259103576668891 -4.550973907295085056e-19 -0.004044047579726915177 1 I I #
ellipse-curve $-1 -1 $-1 1.593103888934538803 -1.008749995343406258 -5.052601716739785864 1.060575238724902354e-16 -1 -2.832769448823894158e-16 -0.003773147758941673962 -1.137743476823709634e-19 -0.001011011894931729445 1 I I #
point $-1 -1 $-1 1.591150763934538803 -1.008749995343406258 -5.055984628473317422 #
point $-1 -1 $-1 1.585291388934538803 -1.020468745343406258 -5.066133363673917422 #
coedge $-1 -1 $-1 $138 $137 $216 $217 reversed $139 0 $-1 #
edge $-1 1016 $-1 $218 -0.05000000074505810133 $98 0.1385000022351741966 $175 $219 forward @7 tangent #
coedge $-1 -1 $-1 $216 $148 $144 $184 reversed $190 0 $-1 #
edge $-1 1012 $-1 $185 -0.7853981633974590482 $150 0.7853981633974376209 $183 $220 forward @7 unknown #
vertex $-1 1230 $-1 $145 1 $221 #
straight-curve $-1 -1 $-1 1.583478492000406357 -1.236874998835865824 -5.038023393272720085 1.657148810507659928e-18 -0.01562500000000000347 -4.426202263787334622e-18 I I #
straight-curve $-1 -1 $-1 1.62836279375954196 -1.008749995343406258 -5.077469003909876655 1.082531754730549078 2.918587279715571919e-16 -0.6249999999999992228 F -0.05718850069849246154 F 0.1509385020954758794 #
ATTRIB_CUSTOM-attrib $-1 -1 $-1 $-1 $148 @17 sketch_attrib_def 1 1 3 @13 185 0 1 0 1 1 #
coedge $-1 -1 $-1 $148 $222 $196 $223 reversed $190 0 $-1 #
loop $-1 -1 $-1 $-1 $183 $224 #
vertex $-1 1234 $-1 $149 1 $225 #
straight-curve $-1 -1 $-1 1.591290992000407245 -1.315000000000019043 -5.024491746338588527 1.353164693413186015 3.648234099644480675e-16 -0.7812499999999988898 F 0 F 0.1500000022351741791 #
point $-1 -1 $-1 1.604822638934539691 -1.315000000000019043 -5.032304246338588527 #
ATTRIB_CUSTOM-attrib $-1 -1 $-1 $152 $113 @17 sketch_attrib_def 1 1 3 @13 189 0 1 0 1 1 #
ATTRIB_CUSTOM-attrib $-1 -1 $226 $-1 $153 @17 sketch_attrib_def 1 1 3 @13 189 0 1 0 1 1 #
coedge $-1 -1 $-1 $160 $153 $189 $223 forward $161 0 $-1 #
straight-curve $-1 -1 $-1 1.79426569903694455 -1.315000000000019043 -5.141679248084818354 -1.657148810507682662e-16 1.5625 4.426202263787332157e-16 F 0 F 0.0499999999999999889 #
ATTRIB_CUSTOM-attrib $-1 -1 $-1 $-1 $155 @22 generic_tag_attrib_def 3 3 -1 @23 generic_tag_attrib_def  1 0 @0  0 13 689 693 697 699 702 705 707 708 709 712 713 742 790 0 #
ATTRIB_CUSTOM-attrib $227 -1 $-1 $-1 $156 @22 generic_tag_attrib_def 3 3 -1 @23 generic_tag_attrib_def  1 1 @1 5 0 10 675 683 -687 -688 -691 -692 695 700 703 781 0 #
face $228 988 $-1 $224 $203 $5 $-1 $229 forward single #
plane-surface $-1 -1 $-1 1.591290992000407245 -1.315000000000019043 -5.024491746338588527 -0.8660254037844390407 -2.33486982377246069e-16 0.4999999999999992784 -1.657148810507682662e-16 1.5625 4.42620226378733265e-16 forward_v I I I I #
coedge $-1 -1 $-1 $230 $158 $160 $205 forward $203 0 $-1 #
loop $-1 -1 $-1 $-1 $172 $200 #
ellipse-curve $-1 -1 $-1 1.939037866720194625 -1.02504900160945045 -5.27036898784834662 0.4999999999999992784 -1.922962686383490354e-16 0.8660254037844391517 -0.1643034176832502968 -0.2118259983905685651 0.09486062242819984225 1 I I #
edge $-1 1020 $-1 $162 -0.0499999999999999889 $231 -0 $160 $232 forward @7 unknown #
face $233 990 $-1 $-1 $161 $5 $-1 $234 forward single #
point $-1 -1 $-1 1.77473444903694455 -1.236875000000019043 -5.175508365420146362 #
point $-1 -1 $-1 1.692801051443882709 -1.020468745343406036 -5.12820409626417284 #
ATTRIB_CUSTOM-attrib $-1 -1 $-1 $-1 $169 @22 generic_tag_attrib_def 3 3 -1 @23 generic_tag_attrib_def  1 0 @0  0 13 689 693 697 699 702 705 707 708 709 712 713 742 790 0 #
ATTRIB_CUSTOM-attrib $235 -1 $-1 $-1 $170 @22 generic_tag_attrib_def 3 3 -1 @23 generic_tag_attrib_def  1 1 @1 1 0 10 677 683 -687 -688 -691 -692 695 700 703 781 0 #
cone-surface $-1 -1 $-1 1.593103888934538803 -1.236874998835865824 -5.052601716739784976 -1.060575238724902354e-16 1 2.832769448823894158e-16 -0.01509259103576664728 -4.550973907294776908e-19 -0.004044047579727063496 1 I I 0 1 0.01562500000000000347 forward I I I I #
coedge $-1 -1 $-1 $172 $230 $174 $215 forward $203 0 $-1 #
straight-curve $-1 -1 $-1 1.62250341875954196 -1.020468745343406258 -5.087617739110474879 -1.082531754730549078 -2.918587279715571919e-16 0.6249999999999992228 F -0.1509385020954758794 F 0.05718850069849246154 #
coedge $-1 -1 $-1 $175 $174 $236 $237 forward $176 0 $-1 #
edge $-1 1014 $-1 $238 -5.000000074505809522 $135 13.85000022351741755 $212 $239 forward @7 tangent #
coedge $-1 -1 $-1 $236 $183 $181 $217 forward $190 0 $-1 #
edge $-1 1019 $-1 $185 0.01000000000000000194 $218 0.01499999999999999944 $216 $240 forward @7 unknown #
vertex $-1 1233 $-1 $237 1 $241 #
straight-curve $-1 -1 $-1 1.579572242000407245 -1.236874998835865824 -5.044789216739784976 -1.657148810507682662e-16 1.5625 4.426202263787332157e-16 I I #
ellipse-curve $-1 -1 $-1 1.597010138934539691 -1.315000000000019043 -5.045835893272720085 -1.060575238724902354e-16 1 2.832769448823894158e-16 -0.004044047579726738235 -4.704284751699694621e-18 0.01509259103576673575 1 I I #
point $-1 -1 $-1 1.583478492000407245 -1.315000000000019043 -5.038023393272720085 #
coedge $-1 -1 $-1 $189 $236 $230 $242 reversed $190 0 $-1 #
edge $-1 1022 $-1 $191 0 $231 0.02500000000000000139 $196 $243 forward @7 unknown #
face $244 989 $-1 $206 $190 $5 $-1 $245 forward single #
point $-1 -1 $-1 1.79426569903694455 -1.315000000000019043 -5.141679248084818354 #
ATTRIB_CUSTOM-attrib $-1 -1 $-1 $195 $153 @17 sketch_attrib_def 1 1 3 @13 186 0 1 0 1 2 #
ATTRIB_CUSTOM-attrib $-1 -1 $-1 $-1 $199 @22 generic_tag_attrib_def 3 3 -1 @23 generic_tag_attrib_def  1 0 @0  0 13 689 693 697 699 702 705 707 708 709 712 713 742 790 0 #
ATTRIB_CUSTOM-attrib $246 -1 $-1 $-1 $200 @22 generic_tag_attrib_def 3 3 -1 @23 generic_tag_attrib_def  1 1 @1 2 0 10 675 683 -687 -688 -691 -692 695 700 703 781 0 #
plane-surface $-1 -1 $-1 1.673247095518676675 -1.158749997671712606 -5.116914614547033224 -0.4999999999999992784 1.922962686383490354e-16 -0.8660254037844391517 -1.353164693413186015 -3.648234099644480675e-16 0.7812499999999988898 forward_v I I I I #
coedge $-1 -1 $-1 $212 $202 $222 $242 forward $203 0 $-1 #
vertex $-1 1235 $-1 $205 1 $247 #
straight-curve $-1 -1 $-1 1.77473444903694455 -1.315000000000019043 -5.175508365420148138 1.657148810507682662e-16 -1.5625 -4.426202263787332157e-16 I I #
ATTRIB_CUSTOM-attrib $248 -1 $-1 $-1 $206 @22 generic_tag_attrib_def 3 3 -1 @23 generic_tag_attrib_def  1 1 @1 3 0 8 675 683 -688 -692 695 700 703 781 0 #
plane-surface $-1 -1 $-1 1.79426569903694455 -1.236875000000019043 -5.141679248084816578 0.8660254037844390407 2.33486982377246069e-16 -0.4999999999999992784 1.657148810507682662e-16 -1.5625 -4.42620226378733265e-16 forward_v I I I I #
ATTRIB_CUSTOM-attrib $-1 -1 $-1 $-1 $210 @22 generic_tag_attrib_def 3 3 -1 @23 generic_tag_attrib_def  1 0 @0  0 13 689 693 697 699 702 705 707 708 709 712 713 742 790 0 #
coedge $-1 -1 $-1 $222 $216 $214 $237 reversed $190 0 $-1 #
edge $-1 1015 $-1 $238 -0.7853981633974376209 $218 0.7853981633974590482 $236 $249 forward @7 unknown #
vertex $-1 1232 $-1 $215 0 $250 #
straight-curve $-1 -1 $-1 1.585291388934538803 -1.236874998835865824 -5.066133363673916534 -1.657148810507659928e-18 0.01562500000000000347 4.426202263787334622e-18 I I #
straight-curve $-1 -1 $-1 1.591290992000407245 -1.315000000000019043 -5.024491746338588527 -0.7812499999999988898 3.00462919747420565e-16 -1.353164693413186015 I I #
point $-1 -1 $-1 1.579572242000407245 -1.315000000000019043 -5.044789216739786752 #
edge $-1 1021 $-1 $231 -0.1500000022351741791 $238 -0.009999999999999786837 $222 $251 forward @7 unknown #
straight-curve $-1 -1 $-1 1.79426569903694455 -1.315000000000019043 -5.141679248084818354 -0.7812499999999988898 3.00462919747420565e-16 -1.353164693413186015 I I #
ATTRIB_CUSTOM-attrib $252 -1 $-1 $-1 $224 @22 generic_tag_attrib_def 3 3 -1 @23 generic_tag_attrib_def  1 1 @1 4 0 8 675 683 -688 -692 695 700 703 781 0 #
plane-surface $-1 -1 $-1 1.79426569903694455 -1.315000000000019043 -5.141679248084818354 1.060575238724902354e-16 -1 -2.832769448823894158e-16 -1.353164693413186015 -3.648234099644480675e-16 0.7812499999999988898 forward_v I I I I #
ATTRIB_CUSTOM-attrib $-1 -1 $-1 $-1 $228 @22 generic_tag_attrib_def 3 3 -1 @23 generic_tag_attrib_def  1 0 @0  0 13 689 693 697 699 702 705 707 708 709 712 713 742 790 0 #
point $-1 -1 $-1 1.77473444903694455 -1.315000000000019043 -5.175508365420148138 #
ATTRIB_CUSTOM-attrib $-1 -1 $-1 $-1 $233 @22 generic_tag_attrib_def 3 3 -1 @23 generic_tag_attrib_def  1 0 @0  0 13 689 693 697 699 702 705 707 708 709 712 713 742 790 0 #
ellipse-curve $-1 -1 $-1 1.593103888934539691 -1.315000000000019043 -5.052601716739786752 -1.060575238724902354e-16 1 2.832769448823894158e-16 -0.01509259103576664728 -4.550973907294776908e-19 -0.004044047579727063496 1 I I #
point $-1 -1 $-1 1.585291388934539691 -1.315000000000019043 -5.066133363673918311 #
straight-curve $-1 -1 $-1 1.571759742000407245 -1.315000000000019043 -5.058320863673918311 -1.353164693413186015 -3.648234099644480675e-16 0.7812499999999988898 I I #
ATTRIB_CUSTOM-attrib $-1 -1 $-1 $-1 $244 @22 generic_tag_attrib_def 3 3 -1 @23 generic_tag_attrib_def  1 0 @0  0 13 689 693 697 699 702 705 707 708 709 712 713 742 790 0 #
End-of-ASM-data 