22700 0 2 4           
16 Autodesk Neutron 20 ASM 227.1.1.65535 NT 24 Wed Aug 25 06:16:48 2021 
10 9.999999999999999547e-07 1.000000000000000036e-10 
asmheader $-1 -1 @13 227.1.1.65535 #
body $2 1167 $-1 $3 $-1 $-1 #
ATTRIB_CUSTOM-attrib $-1 -1 $4 $-1 $1 @20 Timestamp_attrib_def 1 1448291910001 #
lump $-1 -1 $-1 $-1 $5 $1 #
ATTRIB_CUSTOM-attrib $6 -1 $-1 $2 $1 @22 generic_tag_attrib_def 3 3 -1 @23 generic_tag_attrib_def  1 3 @3 781 7 0 0 #
shell $-1 -1 $-1 $-1 $-1 $7 $-1 $3 #
ATTRIB_CUSTOM-attrib $-1 -1 $-1 $-1 $4 @22 generic_tag_attrib_def 3 3 -1 @23 generic_tag_attrib_def  1 0 @0  0 1 790 0 #
face $8 1086 $-1 $9 $10 $5 $-1 $11 reversed single #
ATTRIB_CUSTOM-attrib $12 -1 $-1 $-1 $7 @22 generic_tag_attrib_def 3 3 -1 @23 generic_tag_attrib_def  1 1 @1 3 0 6 722 725 729 -752 -761 781 0 #
face $13 1087 $-1 $14 $15 $5 $-1 $16 forward single #
loop $-1 -1 $-1 $17 $18 $7 #
cone-surface $-1 -1 $-1 0.9126571763051340991 -0.5050000000000238742 -5.102500048137000199 1.060571894989380896e-16 -1 -1.608128441196334233e-16 0.01499999999999991097 5.768898090356921175e-18 -0.0259807621135329965 1 I I 0 1 0.03999999999999981348 forward I I I I #
ATTRIB_CUSTOM-attrib $-1 -1 $-1 $-1 $8 @22 generic_tag_attrib_def 3 3 -1 @23 generic_tag_attrib_def  1 0 @0  0 9 724 728 731 735 738 741 742 745 790 0 #
ATTRIB_CUSTOM-attrib $19 -1 $-1 $-1 $9 @22 generic_tag_attrib_def 3 3 -1 @23 generic_tag_attrib_def  1 1 @1 3 0 8 715 -717 -720 725 729 -750 -761 781 0 #
face $20 1088 $-1 $21 $22 $5 $-1 $23 forward single #
loop $-1 -1 $-1 $24 $25 $9 #
cone-surface $-1 -1 $-1 0.9126571763051340991 -0.5350000000000239009 -5.102500048136999311 1.060578582460407173e-16 1 2.832775240343669937e-16 -0.03000000000000001624 -1.153779618071394096e-17 0.05196152422706631913 1 I I 0 1 0.1000000000000000056 forward I I I I #
loop $-1 -1 $-1 $-1 $26 $7 #
coedge $-1 -1 $-1 $18 $18 $27 $28 reversed $10 0 $-1 #
ATTRIB_CUSTOM-attrib $-1 -1 $-1 $-1 $13 @22 generic_tag_attrib_def 3 3 -1 @23 generic_tag_attrib_def  1 0 @0  0 10 716 724 728 731 735 738 741 742 745 790 0 #
ATTRIB_CUSTOM-attrib $29 -1 $-1 $-1 $14 @22 generic_tag_attrib_def 3 3 -1 @23 generic_tag_attrib_def  1 1 @1 2 0 7 715 -718 725 729 -751 -753 781 0 #
face $30 1089 $-1 $-1 $31 $5 $-1 $32 forward single #
loop $-1 -1 $-1 $33 $27 $14 #
plane-surface $-1 -1 $-1 0.9126571763051349873 -0.5850000000000239453 -5.102500048136999311 -1.060578582460407173e-16 -1 -2.832775240343669937e-16 0.500000000000000222 1.922966030118995419e-16 -0.8660254037844385966 forward_v I I I I #
loop $-1 -1 $-1 $-1 $34 $9 #
coedge $-1 -1 $-1 $25 $25 $35 $36 reversed $15 0 $-1 #
coedge $37 -1 $-1 $26 $26 $38 $39 reversed $17 0 $-1 #
coedge $-1 -1 $-1 $27 $27 $18 $28 forward $22 0 $-1 #
edge $-1 1090 $-1 $40 -3.141592653589836193 $40 3.141592653589750039 $27 $41 forward @7 unknown #
ATTRIB_CUSTOM-attrib $-1 -1 $-1 $-1 $20 @22 generic_tag_attrib_def 3 3 -1 @23 generic_tag_attrib_def  1 0 @0  0 10 716 724 728 731 735 738 741 742 745 790 0 #
ATTRIB_CUSTOM-attrib $42 -1 $-1 $-1 $21 @22 generic_tag_attrib_def 3 3 -1 @23 generic_tag_attrib_def  1 1 @1 1 0 9 715 -718 -719 725 729 -751 -753 -760 781 0 #
loop $-1 -1 $-1 $43 $38 $21 #
plane-surface $-1 -1 $-1 0.9126571763051340991 -0.5200000000000239986 -5.102500048136999311 1.060578582460407173e-16 1 2.832775240343669937e-16 -0.500000000000000222 -1.922966030118995419e-16 0.8660254037844385966 forward_v I I I I #
loop $-1 -1 $-1 $-1 $35 $14 #
coedge $-1 -1 $-1 $34 $34 $44 $45 reversed $24 0 $-1 #
coedge $-1 -1 $-1 $35 $35 $25 $36 forward $33 0 $-1 #
edge $-1 1092 $-1 $46 -3.141592653589808215 $46 3.141592653589778017 $35 $47 reversed @7 unknown #
ATTRIB_CUSTOM-attrib $-1 -1 $-1 $-1 $26 @17 sketch_attrib_def 1 1 3 @13 195 0 0 0 1 1 #
coedge $-1 -1 $-1 $38 $38 $26 $39 forward $31 0 $-1 #
edge $-1 1091 $-1 $48 -3.141592653589789563 $48 3.141592653589795781 $38 $49 reversed @7 unknown #
vertex $-1 1264 $-1 $28 0 $50 #
ellipse-curve $-1 -1 $-1 0.9126571763051340991 -0.5850000000000239453 -5.102500048137000199 1.060578582460407173e-16 1 2.832775240343669937e-16 0.01499999999999991097 5.768898090356921175e-18 -0.0259807621135329965 1 I I #
ATTRIB_CUSTOM-attrib $-1 -1 $-1 $-1 $30 @22 generic_tag_attrib_def 3 3 -1 @23 generic_tag_attrib_def  1 0 @0  0 10 716 724 728 731 735 738 741 742 745 790 0 #
loop $-1 -1 $-1 $-1 $44 $21 #
coedge $-1 -1 $-1 $44 $44 $34 $45 forward $43 0 $-1 #
edge $-1 1093 $-1 $51 -3.141592653589794448 $51 3.14159265358979134 $44 $52 forward @7 unknown #
vertex $-1 1266 $-1 $36 0 $53 #
ellipse-curve $-1 -1 $-1 0.9126571763051340991 -0.5850000000000239453 -5.102500048136999311 1.060578582460407173e-16 1 2.832775240343669937e-16 -0.03000000000000001624 -1.153779618071394096e-17 0.05196152422706631913 1 I I #
vertex $-1 1265 $-1 $39 0 $54 #
ellipse-curve $-1 -1 $-1 0.9126571763051340991 -0.5200000000000239986 -5.102500048136999311 1.060578582460407173e-16 1 2.832775240343669937e-16 0.01499999999999991097 5.768898090356921175e-18 -0.0259807621135329965 1 I I #
point $-1 -1 $-1 0.8976571763051341968 -0.5850000000000239453 -5.076519286023467359 #
vertex $-1 1267 $-1 $45 0 $55 #
ellipse-curve $-1 -1 $-1 0.9126571763051340991 -0.5200000000000239986 -5.102500048136999311 1.060578582460407173e-16 1 2.832775240343669937e-16 -0.03000000000000001624 -1.153779618071394096e-17 0.05196152422706631913 1 I I #
point $-1 -1 $-1 0.9426571763051341257 -0.5850000000000239453 -5.15446157236406588 #
point $-1 -1 $-1 0.8976571763051341968 -0.5200000000000239986 -5.076519286023467359 #
point $-1 -1 $-1 0.9426571763051341257 -0.5200000000000239986 -5.15446157236406588 #
End-of-ASM-data 