22700 0 2 4           
16 Autodesk Neutron 20 ASM 227.1.1.65535 NT 24 Wed Aug 25 06:16:31 2021 
10 9.999999999999999547e-07 1.000000000000000036e-10 
asmheader $-1 -1 @13 227.1.1.65535 #
body $2 1719 $-1 $3 $-1 $-1 #
ATTRIB_CUSTOM-attrib $-1 -1 $4 $-1 $1 @20 Timestamp_attrib_def 1 1448291859001 #
lump $-1 -1 $-1 $-1 $5 $1 #
ATTRIB_CUSTOM-attrib $6 -1 $-1 $2 $1 @22 generic_tag_attrib_def 3 3 -1 @23 generic_tag_attrib_def  1 3 @3 770 1 0 0 #
shell $-1 -1 $-1 $-1 $-1 $7 $-1 $3 #
ATTRIB_CUSTOM-attrib $-1 -1 $-1 $-1 $4 @22 generic_tag_attrib_def 3 3 -1 @23 generic_tag_attrib_def  1 0 @0  0 1 776 0 #
face $8 1442 $-1 $9 $10 $5 $-1 $11 forward single #
ATTRIB_CUSTOM-attrib $12 -1 $-1 $-1 $7 @22 generic_tag_attrib_def 3 3 -1 @23 generic_tag_attrib_def  1 1 @1 3 0 5 519 522 -525 -529 770 0 #
face $13 1443 $-1 $14 $15 $5 $-1 $16 forward single #
loop $-1 -1 $-1 $17 $18 $7 #
cone-surface $-1 -1 $-1 -0.04470235630137064931 -0.3121000007402333076 5.213391100257469546 4.930380657631324879e-32 1 9.957992501029685018e-17 0.2800000000000000266 -1.380506584136771338e-32 5.522026336547080974e-32 1 I I 0 1 0.1500000000000000222 forward I I I I #
ATTRIB_CUSTOM-attrib $-1 -1 $-1 $-1 $8 @22 generic_tag_attrib_def 3 3 -1 @23 generic_tag_attrib_def  1 0 @0  0 2 527 776 0 #
ATTRIB_CUSTOM-attrib $19 -1 $-1 $-1 $9 @22 generic_tag_attrib_def 3 3 -1 @23 generic_tag_attrib_def  1 1 @1 2 0 4 519 522 -526 770 0 #
face $20 1444 $-1 $-1 $21 $5 $-1 $22 forward single #
loop $-1 -1 $-1 $-1 $23 $9 #
plane-surface $-1 -1 $-1 -0.04470235630137064931 -0.3371000007402332743 5.213391100257469546 -4.930380657631324879e-32 -1 -9.957992501029685018e-17 -1 4.930380657631327068e-32 -1.972152263052529076e-31 forward_v I I I I #
loop $-1 -1 $-1 $-1 $24 $7 #
coedge $-1 -1 $-1 $18 $18 $23 $25 reversed $10 0 $-1 #
ATTRIB_CUSTOM-attrib $-1 -1 $-1 $-1 $13 @22 generic_tag_attrib_def 3 3 -1 @23 generic_tag_attrib_def  1 0 @0  0 2 527 776 0 #
ATTRIB_CUSTOM-attrib $26 -1 $-1 $-1 $14 @22 generic_tag_attrib_def 3 3 -1 @23 generic_tag_attrib_def  1 1 @1 1 0 5 519 522 -526 -528 770 0 #
loop $-1 -1 $-1 $-1 $27 $14 #
plane-surface $-1 -1 $-1 -0.04470235630137064931 -0.2971000007402332943 5.213391100257469546 4.930380657631324879e-32 1 9.957992501029685018e-17 1 -4.930380657631327068e-32 1.972152263052529076e-31 forward_v I I I I #
coedge $-1 -1 $-1 $23 $23 $18 $25 forward $15 0 $-1 #
coedge $-1 -1 $-1 $24 $24 $27 $28 reversed $17 0 $-1 #
edge $-1 1445 $-1 $29 -3.141592653589793116 $29 3.141592653589793116 $23 $30 reversed @7 unknown #
ATTRIB_CUSTOM-attrib $-1 -1 $-1 $-1 $20 @22 generic_tag_attrib_def 3 3 -1 @23 generic_tag_attrib_def  1 0 @0  0 2 527 776 0 #
coedge $-1 -1 $-1 $27 $27 $24 $28 forward $21 0 $-1 #
edge $-1 1446 $-1 $31 -3.141592653589793116 $31 3.141592653589793116 $27 $32 forward @7 unknown #
vertex $-1 1752 $-1 $25 0 $33 #
ellipse-curve $-1 -1 $-1 -0.04470235630137064931 -0.3371000007402332743 5.213391100257469546 4.930380657631324879e-32 1 9.957992501029685018e-17 0.2800000000000000266 -1.380506584136771338e-32 5.522026336547080974e-32 1 I I #
vertex $-1 1753 $-1 $28 0 $34 #
ellipse-curve $-1 -1 $-1 -0.04470235630137064931 -0.2971000007402332943 5.213391100257469546 4.930380657631324879e-32 1 9.957992501029685018e-17 0.2800000000000000266 -1.380506584136771338e-32 5.522026336547080974e-32 1 I I #
point $-1 -1 $-1 -0.324702356301370676 -0.3371000007402332743 5.213391100257469546 #
point $-1 -1 $-1 -0.324702356301370676 -0.2971000007402332943 5.213391100257469546 #
End-of-ASM-data 