# WaveFront *.obj file
# Vertices: 84
# Triangles : 164

v -3.2470235630137068e-01 -4.0709999925976681e-01 5.2133911002574678e+00
v -3.2157498764440667e-01 -4.0709999925976681e-01 5.1716592657281391e+00
v -3.1226274192149012e-01 -4.0709999925976675e-01 5.1308596514224147e+00
v -2.9697363931404802e-01 -4.0709999925976675e-01 5.0919036533045512e+00
v -2.7604921310984920e-01 -4.0709999925976675e-01 5.0556614839996534e+00
v -2.4995688041372194e-01 -4.0709999925976675e-01 5.0229427336816102e+00
v -2.1927950082181605e-01 -4.0709999925976675e-01 4.9944782851664193e+00
v -1.8470235630137061e-01 -4.0709999925976670e-01 4.9709039871978247e+00
v -1.4699784312396122e-01 -4.0709999925976670e-01 4.9527464506370906e+00
v -1.0700821780913866e-01 -4.0709999925976670e-01 4.9404112848465571e+00
v -6.5626782505569387e-02 -4.0709999925976670e-01 4.9341740370467377e+00
v -2.3777930097171818e-02 -4.0709999925976670e-01 4.9341740370467377e+00
v 1.7603505206397405e-02 -4.0709999925976670e-01 4.9404112848465571e+00
v 5.7593130521220018e-02 -4.0709999925976670e-01 4.9527464506370906e+00
v 9.5297643698629447e-02 -4.0709999925976670e-01 4.9709039871978247e+00
v 1.2987478821907478e-01 -4.0709999925976675e-01 4.9944782851664193e+00
v 1.6055216781098078e-01 -4.0709999925976675e-01 5.0229427336816102e+00
v 1.8664450050710799e-01 -4.0709999925976675e-01 5.0556614839996534e+00
v 2.0756892671130672e-01 -4.0709999925976675e-01 5.0919036533045512e+00
v 2.2285802931874882e-01 -4.0709999925976675e-01 5.1308596514224147e+00
v 2.3217027504166537e-01 -4.0709999925976681e-01 5.1716592657281391e+00
v 2.3529764369862938e-01 -4.0709999925976681e-01 5.2133911002574678e+00
v 2.3217027504166537e-01 -4.0709999925976681e-01 5.2551229347867965e+00
v 2.2285802931874876e-01 -4.0709999925976686e-01 5.2959225490925208e+00
v 2.0756892671130672e-01 -4.0709999925976686e-01 5.3348785472103843e+00
v 1.8664450050710790e-01 -4.0709999925976686e-01 5.3711207165152821e+00
v 1.6055216781098069e-01 -4.0709999925976686e-01 5.4038394668333254e+00
v 1.2987478821907478e-01 -4.0709999925976686e-01 5.4323039153485162e+00
v 9.5297643698629225e-02 -4.0709999925976692e-01 5.4558782133171109e+00
v 5.7593130521219893e-02 -4.0709999925976692e-01 5.4740357498778449e+00
v 1.7603505206397405e-02 -4.0709999925976692e-01 5.4863709156683784e+00
v -2.3777930097172002e-02 -4.0709999925976692e-01 5.4926081634681978e+00
v -6.5626782505569511e-02 -4.0709999925976692e-01 5.4926081634681978e+00
v -1.0700821780913866e-01 -4.0709999925976692e-01 5.4863709156683784e+00
v -1.4699784312396141e-01 -4.0709999925976692e-01 5.4740357498778449e+00
v -1.8470235630137072e-01 -4.0709999925976692e-01 5.4558782133171109e+00
v -2.1927950082181605e-01 -4.0709999925976686e-01 5.4323039153485162e+00
v -2.4995688041372213e-01 -4.0709999925976686e-01 5.4038394668333254e+00
v -2.7604921310984931e-01 -4.0709999925976686e-01 5.3711207165152821e+00
v -2.9697363931404802e-01 -4.0709999925976686e-01 5.3348785472103843e+00
v -3.1226274192149012e-01 -4.0709999925976686e-01 5.2959225490925208e+00
v -3.2157498764440667e-01 -4.0709999925976681e-01 5.2551229347867965e+00
v -3.2470235630137068e-01 -4.4709999925976684e-01 5.2133911002574678e+00
v -3.2157498764440667e-01 -4.4709999925976684e-01 5.2551229347867965e+00
v -3.1226274192149012e-01 -4.4709999925976690e-01 5.2959225490925208e+00
v -2.9697363931404802e-01 -4.4709999925976690e-01 5.3348785472103843e+00
v -2.7604921310984920e-01 -4.4709999925976690e-01 5.3711207165152821e+00
v -2.4995688041372194e-01 -4.4709999925976690e-01 5.4038394668333254e+00
v -2.1927950082181605e-01 -4.4709999925976690e-01 5.4323039153485162e+00
v -1.8470235630137061e-01 -4.4709999925976696e-01 5.4558782133171109e+00
v -1.4699784312396122e-01 -4.4709999925976696e-01 5.4740357498778449e+00
v -1.0700821780913866e-01 -4.4709999925976696e-01 5.4863709156683784e+00
v -6.5626782505569387e-02 -4.4709999925976696e-01 5.4926081634681978e+00
v -2.3777930097171818e-02 -4.4709999925976696e-01 5.4926081634681978e+00
v 1.7603505206397405e-02 -4.4709999925976696e-01 5.4863709156683784e+00
v 5.7593130521220018e-02 -4.4709999925976696e-01 5.4740357498778449e+00
v 9.5297643698629447e-02 -4.4709999925976696e-01 5.4558782133171109e+00
v 1.2987478821907478e-01 -4.4709999925976690e-01 5.4323039153485162e+00
v 1.6055216781098078e-01 -4.4709999925976690e-01 5.4038394668333254e+00
v 1.8664450050710799e-01 -4.4709999925976690e-01 5.3711207165152821e+00
v 2.0756892671130672e-01 -4.4709999925976690e-01 5.3348785472103843e+00
v 2.2285802931874882e-01 -4.4709999925976690e-01 5.2959225490925208e+00
v 2.3217027504166537e-01 -4.4709999925976684e-01 5.2551229347867965e+00
v 2.3529764369862938e-01 -4.4709999925976684e-01 5.2133911002574678e+00
v 2.3217027504166537e-01 -4.4709999925976684e-01 5.1716592657281391e+00
v 2.2285802931874876e-01 -4.4709999925976679e-01 5.1308596514224147e+00
v 2.0756892671130672e-01 -4.4709999925976679e-01 5.0919036533045512e+00
v 1.8664450050710790e-01 -4.4709999925976679e-01 5.0556614839996534e+00
v 1.6055216781098069e-01 -4.4709999925976679e-01 5.0229427336816102e+00
v 1.2987478821907478e-01 -4.4709999925976679e-01 4.9944782851664193e+00
v 9.5297643698629225e-02 -4.4709999925976673e-01 4.9709039871978247e+00
v 5.7593130521219893e-02 -4.4709999925976673e-01 4.9527464506370906e+00
v 1.7603505206397405e-02 -4.4709999925976673e-01 4.9404112848465571e+00
v -2.3777930097172002e-02 -4.4709999925976673e-01 4.9341740370467377e+00
v -6.5626782505569511e-02 -4.4709999925976673e-01 4.9341740370467377e+00
v -1.0700821780913866e-01 -4.4709999925976673e-01 4.9404112848465571e+00
v -1.4699784312396141e-01 -4.4709999925976673e-01 4.9527464506370906e+00
v -1.8470235630137072e-01 -4.4709999925976673e-01 4.9709039871978247e+00
v -2.1927950082181605e-01 -4.4709999925976679e-01 4.9944782851664193e+00
v -2.4995688041372213e-01 -4.4709999925976679e-01 5.0229427336816102e+00
v -2.7604921310984931e-01 -4.4709999925976679e-01 5.0556614839996534e+00
v -2.9697363931404802e-01 -4.4709999925976679e-01 5.0919036533045512e+00
v -3.1226274192149012e-01 -4.4709999925976679e-01 5.1308596514224147e+00
v -3.2157498764440667e-01 -4.4709999925976684e-01 5.1716592657281391e+00

vn -9.8883082622512863e-01 5.1346444531251878e-17 -1.4904226617617386e-01
vn -1.0000000000000000e+00 -7.1135872807566409e-33 -1.2246467991473581e-16
vn -1.0000000000000000e+00 -9.1494025871869651e-32 1.2246467991473483e-16
vn -9.8883082622512863e-01 -5.1346444531251964e-17 1.4904226617617386e-01
vn -9.5557280578614090e-01 -1.0154589433912144e-16 2.9475517441090376e-01
vn -9.0096886790241870e-01 -1.4947697666699455e-16 4.3388373911755906e-01
vn -8.2623877431599468e-01 -1.9406899033939481e-16 5.6332005806362229e-01
vn -8.2623877431599457e-01 -1.9406899033939496e-16 5.6332005806362262e-01
vn -7.3305187182982590e-01 -2.3432582345696629e-16 6.8017273777091969e-01
vn -7.3305187182982579e-01 -2.3432582345696639e-16 6.8017273777092002e-01
vn -6.2348980185873337e-01 -2.6934820489027621e-16 7.8183148246802991e-01
vn -4.9999999999999983e-01 -2.9835379251084789e-16 8.6602540378443871e-01
vn -4.9999999999999933e-01 -2.9835379251084794e-16 8.6602540378443904e-01
vn -3.6534102436639554e-01 -3.2069464942152819e-16 9.3087374864420402e-01
vn -3.6534102436639487e-01 -3.2069464942152834e-16 9.3087374864420436e-01
vn -2.2252093395631434e-01 -3.3587171779608771e-16 9.7492791218182362e-01
vn -7.4730093586424698e-02 -3.4354596700638889e-16 9.9720379718118002e-01
vn -7.4730093586424268e-02 -3.4354596700638894e-16 9.9720379718118024e-01
vn 7.4730093586423935e-02 -3.4354596700638894e-16 9.9720379718118024e-01
vn 7.4730093586424587e-02 -3.4354596700638889e-16 9.9720379718118002e-01
vn 2.2252093395631445e-01 -3.3587171779608771e-16 9.7492791218182362e-01
vn 3.6534102436639476e-01 -3.2069464942152834e-16 9.3087374864420436e-01
vn 3.6534102436639521e-01 -3.2069464942152829e-16 9.3087374864420414e-01
vn 4.9999999999999911e-01 -2.9835379251084794e-16 8.6602540378443915e-01
vn 4.9999999999999994e-01 -2.9835379251084784e-16 8.6602540378443871e-01
vn 6.2348980185873348e-01 -2.6934820489027616e-16 7.8183148246802980e-01
vn 7.3305187182982590e-01 -2.3432582345696624e-16 6.8017273777091980e-01
vn 7.3305187182982590e-01 -2.3432582345696619e-16 6.8017273777091969e-01
vn 8.2623877431599457e-01 -1.9406899033939486e-16 5.6332005806362251e-01
vn 8.2623877431599468e-01 -1.9406899033939478e-16 5.6332005806362229e-01
vn 9.0096886790241870e-01 -1.4947697666699446e-16 4.3388373911755895e-01
vn 9.5557280578614090e-01 -1.0154589433912133e-16 2.9475517441090371e-01
vn 9.8883082622512863e-01 -5.1346444531251921e-17 1.4904226617617397e-01
vn 9.8883082622512863e-01 -5.1346444531251927e-17 1.4904226617617403e-01
vn 1.0000000000000000e+00 5.9900828660313998e-32 -3.0759757574979128e-17
vn 1.0000000000000000e+00 4.2945593325912823e-32 1.8455854544987698e-17
vn 9.8883082622512863e-01 5.1346444531252019e-17 -1.4904226617617403e-01
vn 9.8883082622512863e-01 5.1346444531252013e-17 -1.4904226617617397e-01
vn 9.5557280578614090e-01 1.0154589433912144e-16 -2.9475517441090376e-01
vn 9.0096886790241870e-01 1.4947697666699455e-16 -4.3388373911755906e-01
vn 9.0096886790241870e-01 1.4947697666699453e-16 -4.3388373911755895e-01
vn 8.2623877431599468e-01 1.9406899033939486e-16 -5.6332005806362229e-01
vn 8.2623877431599457e-01 1.9406899033939493e-16 -5.6332005806362251e-01
vn 7.3305187182982590e-01 2.3432582345696629e-16 -6.8017273777091969e-01
vn 7.3305187182982590e-01 2.3432582345696634e-16 -6.8017273777091980e-01
vn 6.2348980185873348e-01 2.6934820489027621e-16 -7.8183148246802980e-01
vn 4.9999999999999994e-01 2.9835379251084789e-16 -8.6602540378443871e-01
vn 4.9999999999999911e-01 2.9835379251084803e-16 -8.6602540378443915e-01
vn 3.6534102436639521e-01 3.2069464942152829e-16 -9.3087374864420414e-01
vn 3.6534102436639476e-01 3.2069464942152834e-16 -9.3087374864420436e-01
vn 2.2252093395631445e-01 3.3587171779608771e-16 -9.7492791218182362e-01
vn 7.4730093586424587e-02 3.4354596700638889e-16 -9.9720379718118002e-01
vn 7.4730093586423935e-02 3.4354596700638894e-16 -9.9720379718118024e-01
vn -7.4730093586424268e-02 3.4354596700638894e-16 -9.9720379718118024e-01
vn -7.4730093586424698e-02 3.4354596700638889e-16 -9.9720379718118002e-01
vn -2.2252093395631434e-01 3.3587171779608771e-16 -9.7492791218182362e-01
vn -3.6534102436639487e-01 3.2069464942152834e-16 -9.3087374864420436e-01
vn -3.6534102436639554e-01 3.2069464942152819e-16 -9.3087374864420402e-01
vn -4.9999999999999933e-01 2.9835379251084789e-16 -8.6602540378443904e-01
vn -4.9999999999999983e-01 2.9835379251084784e-16 -8.6602540378443871e-01
vn -6.2348980185873337e-01 2.6934820489027611e-16 -7.8183148246802991e-01
vn -7.3305187182982579e-01 2.3432582345696634e-16 -6.8017273777092002e-01
vn -7.3305187182982590e-01 2.3432582345696619e-16 -6.8017273777091969e-01
vn -8.2623877431599457e-01 1.9406899033939488e-16 -5.6332005806362262e-01
vn -8.2623877431599468e-01 1.9406899033939473e-16 -5.6332005806362229e-01
vn -9.0096886790241870e-01 1.4947697666699448e-16 -4.3388373911755906e-01
vn -9.5557280578614090e-01 1.0154589433912133e-16 -2.9475517441090376e-01
vn -4.9303806576313314e-32 1.0000000000000000e+00 3.4450928483976749e-16
vn 4.9303806576313314e-32 -1.0000000000000000e+00 -3.4450928483976749e-16

g face 0
f 2//1 84//1 1//2
f 1//2 84//1 43//2
f 1//3 43//3 42//4
f 42//4 43//3 44//4
f 42//4 44//4 41//5
f 41//5 44//4 45//5
f 41//5 45//5 40//6
f 40//6 45//5 46//6
f 40//6 46//6 39//7
f 39//7 46//6 47//8
f 39//7 47//8 38//9
f 38//9 47//8 48//10
f 38//9 48//10 37//11
f 37//11 48//10 49//11
f 37//11 49//11 36//12
f 36//12 49//11 50//13
f 36//12 50//13 35//14
f 35//14 50//13 51//15
f 35//14 51//15 34//16
f 34//16 51//15 52//16
f 34//16 52//16 33//17
f 33//17 52//16 53//18
f 33//17 53//18 32//19
f 32//19 53//18 54//20
f 32//19 54//20 31//21
f 31//21 54//20 55//21
f 31//21 55//21 30//22
f 30//22 55//21 56//23
f 30//22 56//23 29//24
f 29//24 56//23 57//25
f 29//24 57//25 28//26
f 28//26 57//25 58//26
f 28//26 58//26 27//27
f 27//27 58//26 59//28
f 27//27 59//28 26//29
f 26//29 59//28 60//30
f 26//29 60//30 25//31
f 25//31 60//30 61//31
f 25//31 61//31 24//32
f 24//32 61//31 62//32
f 24//32 62//32 23//33
f 23//33 62//32 63//34
f 23//33 63//34 22//35
f 22//35 63//34 64//36
f 22//35 64//36 21//37
f 21//37 64//36 65//38
f 21//37 65//38 20//39
f 20//39 65//38 66//39
f 20//39 66//39 19//40
f 19//40 66//39 67//41
f 19//40 67//41 18//42
f 18//42 67//41 68//43
f 18//42 68//43 17//44
f 17//44 68//43 69//45
f 17//44 69//45 16//46
f 16//46 69//45 70//46
f 16//46 70//46 15//47
f 15//47 70//46 71//48
f 15//47 71//48 14//49
f 14//49 71//48 72//50
f 14//49 72//50 13//51
f 13//51 72//50 73//51
f 13//51 73//51 12//52
f 12//52 73//51 74//53
f 12//52 74//53 11//54
f 11//54 74//53 75//55
f 11//54 75//55 10//56
f 10//56 75//55 76//56
f 10//56 76//56 9//57
f 9//57 76//56 77//58
f 9//57 77//58 8//59
f 8//59 77//58 78//60
f 8//59 78//60 7//61
f 7//61 78//60 79//61
f 7//61 79//61 6//62
f 6//62 79//61 80//63
f 6//62 80//63 5//64
f 5//64 80//63 81//65
f 5//64 81//65 4//66
f 4//66 81//65 82//66
f 4//66 82//66 3//67
f 3//67 82//66 83//67
f 3//67 83//67 2//1
f 2//1 83//67 84//1

g face 1
f 42//68 23//68 1//68
f 1//68 23//68 22//68
f 1//68 22//68 2//68
f 2//68 22//68 21//68
f 2//68 21//68 3//68
f 3//68 21//68 20//68
f 3//68 20//68 4//68
f 4//68 20//68 19//68
f 4//68 19//68 5//68
f 5//68 19//68 18//68
f 5//68 18//68 6//68
f 6//68 18//68 17//68
f 6//68 17//68 7//68
f 7//68 17//68 16//68
f 7//68 16//68 8//68
f 8//68 16//68 15//68
f 8//68 15//68 9//68
f 9//68 15//68 14//68
f 9//68 14//68 10//68
f 10//68 14//68 13//68
f 10//68 13//68 11//68
f 11//68 13//68 12//68
f 23//68 42//68 24//68
f 24//68 42//68 41//68
f 24//68 41//68 25//68
f 25//68 41//68 40//68
f 25//68 40//68 26//68
f 26//68 40//68 39//68
f 26//68 39//68 27//68
f 27//68 39//68 38//68
f 27//68 38//68 28//68
f 28//68 38//68 37//68
f 28//68 37//68 29//68
f 29//68 37//68 36//68
f 29//68 36//68 30//68
f 30//68 36//68 35//68
f 30//68 35//68 31//68
f 31//68 35//68 34//68
f 31//68 34//68 32//68
f 32//68 34//68 33//68

g face 2
f 84//69 65//69 43//69
f 43//69 65//69 64//69
f 43//69 64//69 44//69
f 44//69 64//69 63//69
f 44//69 63//69 45//69
f 45//69 63//69 62//69
f 45//69 62//69 46//69
f 46//69 62//69 61//69
f 46//69 61//69 47//69
f 47//69 61//69 60//69
f 47//69 60//69 48//69
f 48//69 60//69 59//69
f 48//69 59//69 49//69
f 49//69 59//69 58//69
f 49//69 58//69 50//69
f 50//69 58//69 57//69
f 50//69 57//69 51//69
f 51//69 57//69 56//69
f 51//69 56//69 52//69
f 52//69 56//69 55//69
f 52//69 55//69 53//69
f 53//69 55//69 54//69
f 65//69 84//69 66//69
f 66//69 84//69 83//69
f 66//69 83//69 67//69
f 67//69 83//69 82//69
f 67//69 82//69 68//69
f 68//69 82//69 81//69
f 68//69 81//69 69//69
f 69//69 81//69 80//69
f 69//69 80//69 70//69
f 70//69 80//69 79//69
f 70//69 79//69 71//69
f 71//69 79//69 78//69
f 71//69 78//69 72//69
f 72//69 78//69 77//69
f 72//69 77//69 73//69
f 73//69 77//69 76//69
f 73//69 76//69 74//69
f 74//69 76//69 75//69

g halfedge 0 edge 0
l 1 2 3 4 5 6 7 8 9 10 11 12 13 14 15 16 17 18 19 20 21 22 23 24 25 26 27 28 29 30 31 32 33 34 35 36 37 38 39 40 41 42 1

g halfedge 1 edge 0
l 1 42 41 40 39 38 37 36 35 34 33 32 31 30 29 28 27 26 25 24 23 22 21 20 19 18 17 16 15 14 13 12 11 10 9 8 7 6 5 4 3 2 1

g halfedge 2 edge 1
l 43 44 45 46 47 48 49 50 51 52 53 54 55 56 57 58 59 60 61 62 63 64 65 66 67 68 69 70 71 72 73 74 75 76 77 78 79 80 81 82 83 84 43

g halfedge 3 edge 1
l 43 84 83 82 81 80 79 78 77 76 75 74 73 72 71 70 69 68 67 66 65 64 63 62 61 60 59 58 57 56 55 54 53 52 51 50 49 48 47 46 45 44 43

g vertex 0
p 1

g vertex 1
p 43

# End of file
