22700 0 2 4           
16 Autodesk Neutron 20 ASM 227.1.1.65535 NT 24 Wed Aug 25 06:16:34 2021 
10 9.999999999999999547e-07 1.000000000000000036e-10 
asmheader $-1 -1 @13 227.1.1.65535 #
body $2 1723 $-1 $3 $-1 $-1 #
ATTRIB_CUSTOM-attrib $-1 -1 $4 $-1 $1 @20 Timestamp_attrib_def 1 1448291934001 #
lump $-1 -1 $-1 $-1 $5 $1 #
ATTRIB_CUSTOM-attrib $6 -1 $-1 $2 $1 @22 generic_tag_attrib_def 3 3 -1 @23 generic_tag_attrib_def  1 3 @3 792 1 0 0 #
shell $-1 -1 $-1 $-1 $-1 $7 $-1 $3 #
ATTRIB_CUSTOM-attrib $-1 -1 $-1 $-1 $4 @22 generic_tag_attrib_def 3 3 -1 @23 generic_tag_attrib_def  1 0 @0  0 1 795 0 #
face $8 1584 $-1 $9 $10 $5 $-1 $11 reversed single #
ATTRIB_CUSTOM-attrib $12 -1 $-1 $-1 $7 @22 generic_tag_attrib_def 3 3 -1 @23 generic_tag_attrib_def  1 2 @2 16 0 3 484 -507 792 0 #
face $13 1585 $-1 $14 $15 $5 $-1 $16 reversed single #
loop $-1 -1 $-1 $-1 $17 $7 #
plane-surface $-1 -1 $-1 -0.5547023644963685607 -0.2371000000000001995 5.053391097277470934 5.551115123125779744e-16 2.22044604925031456e-16 -1 1 -1.232595164407831165e-31 5.551115123125779744e-16 forward_v I I I I #
ATTRIB_CUSTOM-attrib $-1 -1 $-1 $-1 $8 @22 generic_tag_attrib_def 3 3 -1 @23 generic_tag_attrib_def  1 0 @0  0 3 486 505 795 0 #
ATTRIB_CUSTOM-attrib $18 -1 $-1 $-1 $9 @22 generic_tag_attrib_def 3 3 -1 @23 generic_tag_attrib_def  1 2 @2 17 0 3 484 -507 792 0 #
face $19 1586 $-1 $20 $21 $5 $-1 $22 reversed single #
loop $-1 -1 $-1 $-1 $23 $9 #
cone-surface $-1 -1 $-1 0.4652976518936313699 -0.2371000000000003105 5.213391103237472457 0 -1 -2.22044604925031456e-16 0.113137084989847328 -2.51214793389404691e-17 0.1131370849898478415 1 I I 0 1 0.1399999999999999856 forward I I I I #
coedge $-1 -1 $-1 $24 $25 $26 $27 reversed $10 0 $-1 #
ATTRIB_CUSTOM-attrib $-1 -1 $-1 $-1 $13 @22 generic_tag_attrib_def 3 3 -1 @23 generic_tag_attrib_def  1 0 @0  0 3 486 505 795 0 #
ATTRIB_CUSTOM-attrib $28 -1 $-1 $-1 $14 @22 generic_tag_attrib_def 3 3 -1 @23 generic_tag_attrib_def  1 2 @2 18 0 3 484 -506 792 0 #
face $29 1587 $-1 $30 $31 $5 $-1 $32 reversed single #
loop $-1 -1 $-1 $-1 $33 $14 #
plane-surface $-1 -1 $-1 0.4652976518936313699 -0.2371000000000001995 5.373391103237471711 -5.551115123125779744e-16 -2.22044604925031456e-16 1 -1 1.232595164407831165e-31 -5.551115123125779744e-16 forward_v I I I I #
coedge $-1 -1 $-1 $34 $35 $36 $37 reversed $15 0 $-1 #
coedge $-1 -1 $-1 $38 $17 $39 $40 forward $10 0 $-1 #
coedge $-1 -1 $-1 $17 $38 $34 $41 reversed $10 0 $-1 #
coedge $-1 -1 $-1 $36 $42 $17 $27 forward $43 0 $-1 #
edge $-1 1597 $-1 $44 0.2450000033525000509 $45 1.265000019742500204 $26 $46 reversed @7 unknown #
ATTRIB_CUSTOM-attrib $-1 -1 $-1 $-1 $19 @22 generic_tag_attrib_def 3 3 -1 @23 generic_tag_attrib_def  1 0 @0  0 3 486 505 795 0 #
ATTRIB_CUSTOM-attrib $47 -1 $-1 $-1 $20 @22 generic_tag_attrib_def 3 3 -1 @23 generic_tag_attrib_def  1 2 @2 15 0 3 484 -507 792 0 #
face $48 1588 $-1 $49 $50 $5 $-1 $51 forward single #
loop $-1 -1 $-1 $-1 $52 $20 #
cone-surface $-1 -1 $-1 -0.5547023644963686717 -0.2371000000000003105 5.213391097277471964 0 -1 -2.22044604925031456e-16 -0.1131370849898472586 2.512147933894049067e-17 -0.1131370849898479386 1 I I 0 1 0.1399999999999999856 forward I I I I #
coedge $-1 -1 $-1 $53 $54 $55 $56 reversed $21 0 $-1 #
coedge $-1 -1 $-1 $57 $23 $25 $41 forward $15 0 $-1 #
coedge $-1 -1 $-1 $23 $57 $53 $58 reversed $15 0 $-1 #
coedge $-1 -1 $-1 $55 $26 $23 $37 forward $43 0 $-1 #
edge $-1 1601 $-1 $45 -2.356194490192346613 $59 0.7853981633974467247 $36 $60 reversed @7 unknown #
coedge $-1 -1 $-1 $25 $24 $61 $62 reversed $10 0 $-1 #
coedge $-1 -1 $-1 $52 $63 $24 $40 reversed $31 0 $-1 #
edge $-1 1598 $-1 $44 0.0999999999999999778 $64 0.1699999999999999289 $39 $65 forward @7 tangent #
edge $-1 1600 $-1 $45 0.0999999999999999778 $66 0.1699999999999999289 $25 $67 forward @7 tangent #
coedge $-1 -1 $-1 $26 $55 $52 $68 forward $43 0 $-1 #
loop $-1 -1 $-1 $69 $55 $49 #
vertex $-1 1809 $-1 $27 0 $70 #
vertex $-1 1808 $-1 $37 0 $71 #
straight-curve $-1 -1 $-1 -0.7997023678488686116 -0.3371000000000001773 5.053391097277470934 -1 1.232595164407831165e-31 -5.551115123125779744e-16 F -9999.655000995157025 F 10000.34500100484365 #
ATTRIB_CUSTOM-attrib $-1 -1 $-1 $-1 $29 @22 generic_tag_attrib_def 3 3 -1 @23 generic_tag_attrib_def  1 0 @0  0 3 486 505 795 0 #
ATTRIB_CUSTOM-attrib $72 -1 $-1 $-1 $30 @22 generic_tag_attrib_def 3 3 -1 @23 generic_tag_attrib_def  1 1 @1 1 0 5 437 439 440 445 792 0 #
face $73 1589 $-1 $74 $43 $5 $-1 $75 reversed single #
loop $-1 -1 $-1 $-1 $76 $30 #
cone-surface $-1 -1 $-1 -1.044702371201368996 -0.2671000000000003372 5.508391106217471744 -1 1.232595164407831165e-31 -5.551115123125779744e-16 -2.747661802696601242e-17 -0.04949747468305839421 0.04949747468305824849 1 I I -0 -1 0.06999999999999999278 reversed I I I I #
coedge $-1 -1 $-1 $77 $39 $42 $68 reversed $31 0 $-1 #
coedge $-1 -1 $-1 $78 $33 $35 $58 forward $21 0 $-1 #
coedge $-1 -1 $-1 $33 $78 $77 $79 reversed $21 0 $-1 #
coedge $-1 -1 $-1 $42 $36 $33 $56 forward $43 0 $-1 #
edge $-1 1604 $-1 $59 -0.7550000115475000717 $80 0.2650000048424999699 $55 $81 reversed @7 unknown #
coedge $-1 -1 $-1 $35 $34 $82 $83 reversed $15 0 $-1 #
edge $-1 1603 $-1 $59 0.1000000000000000888 $84 0.17000000000000004 $35 $85 forward @7 tangent #
vertex $-1 1812 $-1 $56 0 $86 #
ellipse-curve $-1 -1 $-1 0.4652976518936313699 -0.3371000000000002883 5.213391103237472457 0 1 2.22044604925031456e-16 0.113137084989847328 -2.51214793389404691e-17 0.1131370849898478415 1 I I #
coedge $-1 -1 $-1 $87 $82 $38 $62 forward $88 0 $-1 #
edge $-1 1599 $-1 $66 -0.7650000122925000312 $64 0.2550000040975000104 $61 $89 reversed @7 unknown #
coedge $-1 -1 $-1 $39 $77 $87 $90 reversed $31 0 $-1 #
vertex $-1 1810 $-1 $62 1 $91 #
straight-curve $-1 -1 $-1 -0.5547023644963685607 -0.2371000000000001995 5.053391097277470934 0 -1 -2.22044604925031456e-16 I I #
vertex $-1 1811 $-1 $83 1 $92 #
straight-curve $-1 -1 $-1 0.4652976518936313699 -0.2371000000000001995 5.053391097277471822 0 -1 -2.22044604925031456e-16 I I #
edge $-1 1607 $-1 $80 -2.356194490192347502 $44 0.7853981633974459475 $42 $93 reversed @7 unknown #
loop $-1 -1 $-1 $-1 $94 $49 #
point $-1 -1 $-1 -0.5547023644963685607 -0.3371000000000001773 5.053391097277470934 #
point $-1 -1 $-1 0.4652976518936313699 -0.3371000000000001773 5.053391097277471822 #
ATTRIB_CUSTOM-attrib $-1 -1 $-1 $-1 $48 @22 generic_tag_attrib_def 3 3 -1 @23 generic_tag_attrib_def  1 0 @0  0 6 442 448 462 486 505 795 0 #
ATTRIB_CUSTOM-attrib $95 -1 $-1 $-1 $49 @22 generic_tag_attrib_def 3 3 -1 @23 generic_tag_attrib_def  1 1 @1 6 0 6 433 439 440 445 -507 792 0 #
face $96 1590 $-1 $97 $98 $5 $-1 $99 forward single #
plane-surface $-1 -1 $-1 -1.044702371201368551 -0.3371000000000001773 4.718391094297471611 0 -1 -2.22044604925031456e-16 -5.551115123125779744e-16 -2.22044604925031456e-16 1 reverse_v I I I I #
coedge $-1 -1 $-1 $100 $101 $102 $103 reversed $50 0 $-1 #
coedge $-1 -1 $-1 $63 $52 $54 $79 forward $31 0 $-1 #
coedge $-1 -1 $-1 $54 $53 $104 $105 reversed $21 0 $-1 #
edge $-1 1606 $-1 $80 0.1000000000000000888 $106 0.17000000000000004 $77 $107 forward @7 tangent #
vertex $-1 1814 $-1 $56 1 $108 #
straight-curve $-1 -1 $-1 -0.2897023596538688128 -0.3371000000000002883 5.373391103237470823 1 -1.232595164407831165e-31 5.551115123125779744e-16 F -10000.85500101303842 F 9999.145000986962259 #
coedge $-1 -1 $-1 $61 $104 $57 $83 forward $88 0 $-1 #
edge $-1 1602 $-1 $84 -0.7853981633974467247 $66 2.356194490192346613 $82 $109 reversed @7 unknown #
vertex $-1 1813 $-1 $105 1 $110 #
straight-curve $-1 -1 $-1 0.4652976518936313699 -0.2371000000000001995 5.373391103237471711 0 -1 -2.22044604925031456e-16 I I #
point $-1 -1 $-1 0.4652976518936313699 -0.3371000000000002883 5.373391103237471711 #
coedge $-1 -1 $-1 $104 $61 $63 $90 forward $88 0 $-1 #
loop $-1 -1 $-1 $111 $104 $112 #
straight-curve $-1 -1 $-1 -0.2997023603988685503 -0.4071000000000001284 5.053391097277470934 1 -1.232595164407831165e-31 5.551115123125779744e-16 F -10000.84500101229241 F 9999.155000987708263 #
edge $-1 1608 $-1 $64 -0.7853981633974459475 $106 2.356194490192347502 $87 $113 reversed @7 unknown #
point $-1 -1 $-1 -0.5547023644963685607 -0.4071000000000001284 5.053391097277470934 #
point $-1 -1 $-1 0.4652976518936313699 -0.4071000000000001284 5.053391097277471822 #
ellipse-curve $-1 -1 $-1 -0.5547023644963686717 -0.3371000000000002883 5.213391097277471076 0 1 2.22044604925031456e-16 -0.1131370849898472586 2.512147933894049067e-17 -0.1131370849898479386 1 I I #
coedge $-1 -1 $-1 $114 $115 $101 $116 forward $69 0 $-1 #
ATTRIB_CUSTOM-attrib $-1 -1 $-1 $-1 $73 @22 generic_tag_attrib_def 3 3 -1 @23 generic_tag_attrib_def  1 0 @0  0 6 442 448 462 486 505 795 0 #
ATTRIB_CUSTOM-attrib $117 -1 $-1 $-1 $74 @22 generic_tag_attrib_def 3 3 -1 @23 generic_tag_attrib_def  1 1 @1 1 0 5 436 439 440 445 792 0 #
face $118 1591 $-1 $119 $120 $5 $-1 $121 reversed single #
loop $-1 -1 $-1 $-1 $122 $74 #
cone-surface $-1 -1 $-1 -0.5447023637513686012 -0.4071000000000001284 4.918391094297472677 1 -1.232595164407831165e-31 5.551115123125779744e-16 2.74766180269660155e-17 0.04949747468305838727 -0.04949747468305825543 1 I I -0 1 0.06999999999999999278 reversed I I I I #
coedge $-1 -1 $-1 $123 $76 $124 $125 reversed $50 0 $-1 #
coedge $-1 -1 $-1 $76 $123 $94 $116 reversed $50 0 $-1 #
coedge $-1 -1 $-1 $126 $127 $76 $103 forward $128 0 $-1 #
edge $-1 1609 $-1 $129 -0.7853981633974495002 $130 0.7853981633974470578 $102 $131 forward @7 unknown #
coedge $-1 -1 $-1 $82 $87 $78 $105 forward $88 0 $-1 #
edge $-1 1605 $-1 $106 -0.7650000122925000312 $84 0.2550000040975000104 $104 $132 reversed @7 unknown #
vertex $-1 1815 $-1 $105 0 $133 #
straight-curve $-1 -1 $-1 -0.5547023644963687827 -0.2371000000000001995 5.373391103237470823 0 -1 -2.22044604925031456e-16 I I #
point $-1 -1 $-1 -0.5547023644963687827 -0.3371000000000002883 5.373391103237470823 #
ellipse-curve $-1 -1 $-1 0.4652976518936313699 -0.4071000000000002395 5.213391103237472457 0 -1 -2.22044604925031456e-16 0.113137084989847328 -2.51214793389404691e-17 0.1131370849898478415 1 I I #
point $-1 -1 $-1 0.4652976518936313699 -0.4071000000000002395 5.373391103237471711 #
loop $-1 -1 $-1 $-1 $134 $112 #
face $135 1595 $-1 $136 $88 $5 $-1 $137 reversed single #
ellipse-curve $-1 -1 $-1 -0.5547023644963686717 -0.4071000000000002395 5.213391097277471076 0 -1 -2.22044604925031456e-16 -0.1131370849898472586 2.512147933894049067e-17 -0.1131370849898479386 1 I I #
coedge $-1 -1 $-1 $138 $94 $139 $140 forward $69 0 $-1 #
coedge $141 -1 $-1 $94 $138 $126 $142 forward $69 0 $-1 #
edge $-1 1612 $-1 $130 0 $143 2.000000029800000245 $94 $144 forward @7 tangent #
ATTRIB_CUSTOM-attrib $-1 -1 $-1 $-1 $96 @22 generic_tag_attrib_def 3 3 -1 @23 generic_tag_attrib_def  1 0 @0  0 6 442 448 462 486 505 795 0 #
ATTRIB_CUSTOM-attrib $145 -1 $-1 $-1 $97 @22 generic_tag_attrib_def 3 3 -1 @23 generic_tag_attrib_def  1 1 @1 5 0 5 431 439 440 445 792 0 #
face $146 1592 $-1 $147 $148 $5 $-1 $149 forward single #
loop $-1 -1 $-1 $-1 $150 $97 #
plane-surface $-1 -1 $-1 0.9552976585986314717 -0.007100000000000328271 5.248391100257473241 -1 1.232595164407831165e-31 -5.551115123125779744e-16 0 -1 -2.22044604925031456e-16 reverse_v I I I I #
coedge $-1 -1 $-1 $151 $152 $153 $154 reversed $98 0 $-1 #
coedge $-1 -1 $-1 $101 $100 $155 $156 reversed $50 0 $-1 #
coedge $-1 -1 $-1 $157 $158 $100 $125 forward $159 0 $-1 #
edge $-1 1610 $-1 $160 -2.000000029800000245 $129 -0 $100 $161 forward @7 tangent #
coedge $-1 -1 $-1 $153 $102 $115 $142 reversed $128 0 $-1 #
coedge $-1 -1 $-1 $102 $162 $157 $163 reversed $128 0 $-1 #
loop $-1 -1 $-1 $-1 $153 $164 #
vertex $-1 1817 $-1 $103 0 $165 #
vertex $-1 1816 $-1 $142 1 $166 #
ellipse-curve $-1 -1 $-1 -1.044702371201368996 -0.2671000000000003372 5.508391106217471744 1 -1.232595164407831165e-31 5.551115123125779744e-16 -2.747661802696601242e-17 -0.04949747468305839421 0.04949747468305824849 1 I I #
straight-curve $-1 -1 $-1 0.2102976477961313595 -0.4071000000000002395 5.373391103237471711 -1 1.232595164407831165e-31 -5.551115123125779744e-16 F -9998.645000979513497 F 10001.35500102048718 #
point $-1 -1 $-1 -0.5547023644963687827 -0.4071000000000002395 5.373391103237470823 #
coedge $-1 -1 $-1 $167 $168 $152 $169 reversed $111 0 $-1 #
ATTRIB_CUSTOM-attrib $170 -1 $-1 $-1 $112 @22 generic_tag_attrib_def 3 3 -1 @23 generic_tag_attrib_def  1 1 @1 1 0 6 431 439 440 445 -507 792 0 #
face $171 1596 $-1 $-1 $172 $5 $-1 $173 reversed single #
plane-surface $-1 -1 $-1 -0.0447023563013686509 -0.4071000000000002395 5.248391100257472353 0 1 2.22044604925031456e-16 5.551115123125779744e-16 2.22044604925031456e-16 -1 reverse_v I I I I #
coedge $-1 -1 $-1 $115 $114 $151 $174 forward $69 0 $-1 #
coedge $-1 -1 $-1 $155 $150 $114 $140 reversed $120 0 $-1 #
edge $-1 1613 $-1 $143 -0.5250000089399999847 $175 0.06500000297999997123 $139 $176 forward @7 unknown #
ATTRIB_CUSTOM-attrib $-1 -1 $-1 $-1 $115 @17 sketch_attrib_def 1 1 3 @13 133 0 0 0 1 1 #
edge $-1 1615 $-1 $177 -0.06500000297999997123 $130 0.5250000089399999847 $126 $178 forward @7 unknown #
vertex $-1 1819 $-1 $156 0 $179 #
straight-curve $-1 -1 $-1 -1.044702371201368996 -0.3371000000000002883 5.508391106217471744 1 -1.232595164407831165e-31 5.551115123125779744e-16 F -0.2170009999999999994 F 2.217001029800000467 #
ATTRIB_CUSTOM-attrib $-1 -1 $-1 $-1 $118 @22 generic_tag_attrib_def 3 3 -1 @23 generic_tag_attrib_def  1 0 @0  0 6 442 448 462 486 505 795 0 #
ATTRIB_CUSTOM-attrib $180 -1 $-1 $-1 $119 @22 generic_tag_attrib_def 3 3 -1 @23 generic_tag_attrib_def  1 1 @1 1 0 5 435 439 440 445 792 0 #
face $181 1593 $-1 $164 $159 $5 $-1 $182 reversed single #
loop $-1 -1 $-1 $-1 $183 $119 #
cone-surface $-1 -1 $-1 -0.5447023637513689343 0.3228999999999997428 5.648391106217472313 -1 1.232595164407831165e-31 -5.551115123125779744e-16 2.747661802696600625e-17 0.04949747468305841502 -0.04949747468305823461 1 I I -0 1 0.06999999999999999278 reversed I I I I #
coedge $-1 -1 $-1 $139 $184 $185 $186 forward $120 0 $-1 #
coedge $-1 -1 $-1 $185 $122 $138 $174 reversed $98 0 $-1 #
coedge $-1 -1 $-1 $122 $185 $134 $169 forward $98 0 $-1 #
coedge $-1 -1 $-1 $187 $126 $122 $154 forward $128 0 $-1 #
edge $-1 1616 $-1 $177 5.497787143782138841 $188 7.068583470577035399 $122 $189 forward @7 unknown #
coedge $-1 -1 $-1 $190 $139 $123 $156 forward $120 0 $-1 #
edge $-1 1611 $-1 $143 -0.7853981633974470578 $160 0.7853981633974495002 $155 $191 forward @7 unknown #
coedge $192 -1 $-1 $193 $124 $127 $163 forward $159 0 $-1 #
coedge $-1 -1 $-1 $124 $193 $190 $194 forward $159 0 $-1 #
loop $-1 -1 $-1 $-1 $124 $147 #
vertex $-1 1818 $-1 $194 1 $195 #
straight-curve $-1 -1 $-1 -1.044702371201368996 -0.2671000000000003372 5.578391106217472029 -1 1.232595164407831165e-31 -5.551115123125779744e-16 F -2.217001029800000467 F 0.2170009999999999994 #
coedge $-1 -1 $-1 $127 $196 $197 $198 forward $128 0 $-1 #
edge $-1 1626 $-1 $129 -0.09499999999999997335 $199 0.4950000000000001621 $127 $200 forward @7 unknown #
face $201 1594 $-1 $112 $128 $5 $-1 $202 reversed single #
point $-1 -1 $-1 -1.044702371201368996 -0.2671000000000003372 5.578391106217472029 #
point $-1 -1 $-1 -1.044702371201368996 -0.3371000000000002883 5.508391106217471744 #
coedge $-1 -1 $-1 $203 $134 $184 $204 reversed $111 0 $-1 #
coedge $-1 -1 $-1 $134 $203 $187 $205 reversed $111 0 $-1 #
edge $-1 1618 $-1 $206 -1.000000014900000123 $188 1.000000014900000123 $152 $207 forward @7 unknown #
ATTRIB_CUSTOM-attrib $-1 -1 $-1 $-1 $135 @22 generic_tag_attrib_def 3 3 -1 @23 generic_tag_attrib_def  1 0 @0  0 6 442 448 462 486 505 795 0 #
ATTRIB_CUSTOM-attrib $208 -1 $-1 $-1 $136 @22 generic_tag_attrib_def 3 3 -1 @23 generic_tag_attrib_def  1 1 @1 4 0 5 431 439 440 445 792 0 #
loop $-1 -1 $-1 $-1 $209 $136 #
plane-surface $-1 -1 $-1 -0.04470235630136887295 -0.007100000000000328271 5.648391106217472313 5.551115123125779744e-16 2.22044604925031456e-16 -1 0 -1 -2.22044604925031456e-16 reverse_v I I I I #
edge $-1 1614 $-1 $175 -1.500000022350000073 $177 0.5000000074500000613 $151 $210 forward @7 tangent #
vertex $-1 1820 $-1 $186 1 $211 #
straight-curve $-1 -1 $-1 0.9552976585986314717 -0.3371000000000001773 4.983391097277472426 5.551115123125779744e-16 2.22044604925031456e-16 -1 I I #
vertex $-1 1821 $-1 $154 0 $212 #
straight-curve $-1 -1 $-1 -1.044702371201368551 -0.3371000000000001773 4.983391097277471538 -5.551115123125779744e-16 -2.22044604925031456e-16 1 I I #
point $-1 -1 $-1 0.9552976585986314717 -0.3371000000000002883 5.508391106217473521 #
ATTRIB_CUSTOM-attrib $-1 -1 $-1 $-1 $146 @22 generic_tag_attrib_def 3 3 -1 @23 generic_tag_attrib_def  1 0 @0  0 6 442 448 462 486 505 795 0 #
ATTRIB_CUSTOM-attrib $213 -1 $-1 $-1 $147 @22 generic_tag_attrib_def 3 3 -1 @23 generic_tag_attrib_def  1 1 @1 3 0 5 433 439 440 445 792 0 #
plane-surface $-1 -1 $-1 -1.044702371201368996 -0.3371000000000003993 5.578391106217472029 -5.551115123125779744e-16 -2.22044604925031456e-16 1 0 1 2.22044604925031456e-16 reverse_v I I I I #
coedge $-1 -1 $-1 $214 $215 $216 $217 reversed $148 0 $-1 #
coedge $-1 -1 $-1 $150 $218 $167 $204 forward $120 0 $-1 #
coedge $-1 -1 $-1 $152 $151 $150 $186 reversed $98 0 $-1 #
edge $-1 1617 $-1 $206 -0.7853981633974489451 $175 0.7853981633974472798 $185 $219 forward @7 unknown #
coedge $-1 -1 $-1 $196 $153 $168 $205 forward $128 0 $-1 #
vertex $-1 1822 $-1 $154 1 $220 #
ellipse-curve $-1 -1 $-1 -1.044702371201368551 -0.4071000000000001284 4.918391094297471788 -1 1.232595164407831165e-31 -5.551115123125779744e-16 2.74766180269660155e-17 0.04949747468305838727 -0.04949747468305825543 1 F 2.356194490192346169 F 8.639379797371931957 #
coedge $-1 -1 $-1 $216 $155 $158 $194 reversed $120 0 $-1 #
ellipse-curve $-1 -1 $-1 0.9552976585986314717 -0.2671000000000003372 5.508391106217473521 -1 1.232595164407831165e-31 -5.551115123125779744e-16 -2.747661802696601242e-17 -0.04949747468305839421 0.04949747468305824849 1 I I #
ATTRIB_CUSTOM-attrib $-1 -1 $-1 $-1 $157 @17 sketch_attrib_def 1 1 3 @13 136 0 0 0 1 1 #
coedge $-1 -1 $-1 $158 $157 $214 $221 forward $159 0 $-1 #
edge $-1 1619 $-1 $222 -0.4950000000000001621 $160 0.09499999999999997335 $190 $223 forward @7 unknown #
point $-1 -1 $-1 0.9552976585986314717 -0.2671000000000003372 5.578391106217472917 #
coedge $-1 -1 $-1 $162 $187 $224 $225 reversed $128 0 $-1 #
coedge $-1 -1 $-1 $215 $214 $162 $198 reversed $148 0 $-1 #
edge $-1 1624 $-1 $226 -0.7853981633974436161 $199 0.7853981633974498333 $162 $227 forward @7 unknown #
vertex $-1 1827 $-1 $163 1 $228 #
straight-curve $-1 -1 $-1 -1.044702371201368996 -0.1721000000000003638 5.578391106217472029 0 1 2.22044604925031456e-16 I I #
ATTRIB_CUSTOM-attrib $229 -1 $-1 $-1 $164 @22 generic_tag_attrib_def 3 3 -1 @23 generic_tag_attrib_def  1 1 @1 6 0 5 431 439 440 445 792 0 #
plane-surface $-1 -1 $-1 -1.044702371201368774 -0.007100000000000328271 5.248391100257471464 1 -1.232595164407831165e-31 5.551115123125779744e-16 0 1 2.22044604925031456e-16 reverse_v I I I I #
coedge $-1 -1 $-1 $168 $167 $230 $231 reversed $111 0 $-1 #
edge $-1 1622 $-1 $232 -0.4000000059599999602 $206 0.4000000059599999602 $167 $233 forward @7 unknown #
edge $-1 1627 $-1 $188 -0.4000000059599999602 $234 0.4000000059599999602 $187 $235 forward @7 unknown #
vertex $-1 1823 $-1 $169 0 $236 #
straight-curve $-1 -1 $-1 -0.04470235630136842886 -0.4071000000000001284 4.848391094297472392 -1 1.232595164407831165e-31 -5.551115123125779744e-16 I I #
ATTRIB_CUSTOM-attrib $-1 -1 $-1 $-1 $171 @22 generic_tag_attrib_def 3 3 -1 @23 generic_tag_attrib_def  1 0 @0  0 6 442 448 462 486 505 795 0 #
coedge $-1 -1 $-1 $237 $230 $218 $238 reversed $172 0 $-1 #
straight-curve $-1 -1 $-1 -0.5447023637513686012 -0.3371000000000001773 4.918391094297472677 -1 1.232595164407831165e-31 -5.551115123125779744e-16 F -1.717001022350000294 F 0.7170010074500000608 #
point $-1 -1 $-1 0.9552976585986314717 -0.3371000000000001773 4.918391094297472677 #
point $-1 -1 $-1 -1.044702371201368551 -0.3371000000000001773 4.918391094297471788 #
ATTRIB_CUSTOM-attrib $-1 -1 $-1 $-1 $181 @22 generic_tag_attrib_def 3 3 -1 @23 generic_tag_attrib_def  1 0 @0  0 6 442 448 462 486 505 795 0 #
coedge $-1 -1 $-1 $197 $183 $193 $221 reversed $148 0 $-1 #
coedge $-1 -1 $-1 $183 $197 $237 $239 reversed $148 0 $-1 #
coedge $-1 -1 $-1 $218 $190 $183 $217 forward $120 0 $-1 #
edge $-1 1620 $-1 $222 5.497787143782136177 $240 7.06858347057703007 $216 $241 forward @7 unknown #
coedge $-1 -1 $-1 $184 $216 $209 $238 forward $120 0 $-1 #
ellipse-curve $-1 -1 $-1 0.9552976585986314717 -0.4071000000000001284 4.918391094297472677 1 -1.232595164407831165e-31 5.551115123125779744e-16 2.74766180269660155e-17 0.04949747468305838727 -0.04949747468305825543 1 F -2.356194490192346169 F 3.926990816987240063 #
point $-1 -1 $-1 -1.044702371201368551 -0.4071000000000001284 4.848391094297471504 #
edge $-1 1623 $-1 $199 -0.5000000074500000613 $222 1.500000022350000073 $193 $242 forward @7 tangent #
vertex $-1 1824 $-1 $217 0 $243 #
straight-curve $-1 -1 $-1 0.9552976585986314717 -0.1721000000000003638 5.578391106217472917 0 -1 -2.22044604925031456e-16 I I #
coedge $-1 -1 $-1 $230 $237 $196 $225 forward $172 0 $-1 #
edge $-1 1628 $-1 $226 -0.4000000000000000222 $234 0.4000000000000000222 $196 $244 forward @7 unknown #
vertex $-1 1828 $-1 $198 0 $245 #
ellipse-curve $-1 -1 $-1 -1.044702371201368996 0.3228999999999997428 5.648391106217472313 -1 1.232595164407831165e-31 -5.551115123125779744e-16 2.747661802696600625e-17 0.04949747468305841502 -0.04949747468305823461 1 F -2.356194490192343505 F 3.926990816987242727 #
point $-1 -1 $-1 -1.044702371201368996 0.3228999999999997428 5.578391106217472029 #
ATTRIB_CUSTOM-attrib $-1 -1 $-1 $-1 $201 @22 generic_tag_attrib_def 3 3 -1 @23 generic_tag_attrib_def  1 0 @0  0 6 442 448 462 486 505 795 0 #
coedge $-1 -1 $-1 $209 $224 $203 $231 forward $172 0 $-1 #
edge $-1 1629 $-1 $234 -1.000000014900000123 $232 1.000000014900000123 $203 $246 forward @7 unknown #
vertex $-1 1826 $-1 $231 1 $247 #
straight-curve $-1 -1 $-1 0.9552976585986314717 -0.4071000000000002395 5.248391100257473241 5.551115123125779744e-16 2.22044604925031456e-16 -1 I I #
vertex $-1 1829 $-1 $225 1 $248 #
straight-curve $-1 -1 $-1 -1.044702371201368774 -0.4071000000000002395 5.248391100257471464 -5.551115123125779744e-16 -2.22044604925031456e-16 1 I I #
point $-1 -1 $-1 0.9552976585986314717 -0.4071000000000001284 4.848391094297472392 #
coedge $-1 -1 $-1 $224 $209 $215 $239 forward $172 0 $-1 #
edge $-1 1621 $-1 $240 -0.4000000000000000222 $232 0.4000000000000000222 $218 $249 forward @7 unknown #
edge $-1 1625 $-1 $240 -1.000000014900000123 $226 1.000000014900000123 $215 $250 forward @7 unknown #
vertex $-1 1825 $-1 $238 0 $251 #
ellipse-curve $-1 -1 $-1 0.9552976585986310276 0.3228999999999997428 5.648391106217473201 1 -1.232595164407831165e-31 5.551115123125779744e-16 2.747661802696600625e-17 0.04949747468305841502 -0.04949747468305823461 1 F 2.356194490192343505 F 8.639379797371930181 #
straight-curve $-1 -1 $-1 -0.5447023637513689343 0.3228999999999997428 5.578391106217472029 1 -1.232595164407831165e-31 5.551115123125779744e-16 F -0.7170010074500000608 F 1.717001022350000294 #
point $-1 -1 $-1 0.9552976585986314717 0.3228999999999997428 5.578391106217472917 #
straight-curve $-1 -1 $-1 -1.044702371201368996 -0.007100000000000328271 5.648391106217471425 0 -1 -2.22044604925031456e-16 I I #
point $-1 -1 $-1 -1.044702371201368996 0.392899999999999805 5.648391106217472313 #
straight-curve $-1 -1 $-1 -0.04470235630136887295 -0.4071000000000002395 5.648391106217472313 1 -1.232595164407831165e-31 5.551115123125779744e-16 I I #
point $-1 -1 $-1 0.9552976585986310276 -0.4071000000000002395 5.648391106217472313 #
point $-1 -1 $-1 -1.044702371201368996 -0.4071000000000002395 5.648391106217471425 #
straight-curve $-1 -1 $-1 0.9552976585986310276 -0.007100000000000328271 5.648391106217472313 0 -1 -2.22044604925031456e-16 I I #
straight-curve $-1 -1 $-1 -0.04470235630136887295 0.392899999999999805 5.648391106217472313 -1 1.232595164407831165e-31 -5.551115123125779744e-16 I I #
point $-1 -1 $-1 0.9552976585986310276 0.392899999999999805 5.648391106217473201 #
End-of-ASM-data 