22700 0 2 4           
16 Autodesk Neutron 20 ASM 227.1.1.65535 NT 24 Wed Aug 25 06:16:36 2021 
10 9.999999999999999547e-07 1.000000000000000036e-10 
asmheader $-1 -1 @13 227.1.1.65535 #
body $2 1725 $-1 $3 $-1 $-1 #
ATTRIB_CUSTOM-attrib $-1 -1 $4 $-1 $1 @20 Timestamp_attrib_def 1 1448291973001 #
lump $-1 -1 $-1 $-1 $5 $1 #
ATTRIB_CUSTOM-attrib $6 -1 $-1 $2 $1 @22 generic_tag_attrib_def 3 3 -1 @23 generic_tag_attrib_def  1 3 @3 802 1 0 0 #
shell $-1 -1 $-1 $-1 $-1 $7 $-1 $3 #
ATTRIB_CUSTOM-attrib $-1 -1 $-1 $-1 $4 @22 generic_tag_attrib_def 3 3 -1 @23 generic_tag_attrib_def  1 0 @0  0 1 805 0 #
face $8 1652 $-1 $9 $10 $5 $-1 $11 reversed single #
ATTRIB_CUSTOM-attrib $12 -1 $-1 $-1 $7 @22 generic_tag_attrib_def 3 3 -1 @23 generic_tag_attrib_def  1 1 @1 5 0 2 562 802 0 #
face $13 1653 $-1 $14 $15 $5 $-1 $16 reversed single #
loop $-1 -1 $-1 $17 $18 $7 #
cone-surface $-1 -1 $-1 -0.04470235630137087135 -0.2971000007402332388 6.313391100257466526 -6.67655714054241361e-32 -1 -1.01770443923972839e-16 0.2800000000000000266 -1.869435999351878504e-32 2.218671295934095703e-31 1 I I 0 1 0.2800000000000000266 forward I I I I #
ATTRIB_CUSTOM-attrib $-1 -1 $-1 $-1 $8 @22 generic_tag_attrib_def 3 3 -1 @23 generic_tag_attrib_def  1 0 @0  0 1 805 0 #
ATTRIB_CUSTOM-attrib $19 -1 $-1 $-1 $9 @22 generic_tag_attrib_def 3 3 -1 @23 generic_tag_attrib_def  1 1 @1 5 0 2 558 802 0 #
face $20 1654 $-1 $21 $22 $5 $-1 $23 reversed single #
loop $-1 -1 $-1 $24 $25 $9 #
cone-surface $-1 -1 $-1 -0.04470235630137020522 -0.2971000007402333498 4.113391100257467237 0 -1 -2.22044604925031456e-16 0.2800000000000000266 -4.379057701015053347e-47 1.972152263052529514e-31 1 I I 0 1 0.2800000000000000266 forward I I I I #
loop $-1 -1 $-1 $-1 $26 $7 #
coedge $-1 -1 $-1 $18 $18 $27 $28 reversed $10 0 $-1 #
ATTRIB_CUSTOM-attrib $-1 -1 $-1 $-1 $13 @22 generic_tag_attrib_def 3 3 -1 @23 generic_tag_attrib_def  1 0 @0  0 1 805 0 #
ATTRIB_CUSTOM-attrib $29 -1 $-1 $-1 $14 @22 generic_tag_attrib_def 3 3 -1 @23 generic_tag_attrib_def  1 2 @2 10 0 2 496 802 0 #
face $30 1655 $-1 $31 $32 $5 $-1 $33 forward single #
loop $-1 -1 $-1 $34 $35 $14 #
cone-surface $-1 -1 $-1 -0.0447023563013686509 -1.252100000740233199 5.213391100257471322 0 1 2.22044604925031456e-16 0.2273316684934151011 -2.852133476096083435e-32 1.284486726015722896e-16 1 I I 0 1 0.2273316684934151011 forward I I I I #
loop $-1 -1 $-1 $-1 $36 $9 #
coedge $-1 -1 $-1 $25 $25 $37 $38 reversed $15 0 $-1 #
coedge $-1 -1 $-1 $26 $26 $39 $40 reversed $17 0 $-1 #
coedge $-1 -1 $-1 $27 $27 $18 $28 forward $41 0 $-1 #
edge $-1 1671 $-1 $42 -3.141592653589793116 $42 3.141592653589793116 $27 $43 forward @7 unknown #
ATTRIB_CUSTOM-attrib $-1 -1 $-1 $-1 $20 @22 generic_tag_attrib_def 3 3 -1 @23 generic_tag_attrib_def  1 0 @0  0 1 805 0 #
ATTRIB_CUSTOM-attrib $44 -1 $-1 $-1 $21 @22 generic_tag_attrib_def 3 3 -1 @23 generic_tag_attrib_def  1 1 @1 1 0 4 322 391 -423 802 0 #
face $45 1656 $-1 $46 $47 $5 $-1 $48 reversed single #
loop $-1 -1 $-1 $-1 $49 $21 #
cone-surface $-1 -1 $-1 0.4115476530111308318 -0.8633500000000005059 6.80714110025747221 5.551115123125779744e-16 2.22044604925031456e-16 -1 0.04861359120657524069 -0.04861359120657506722 1.619157848017647848e-17 1 I I 0 -1 0.06875000000000001943 forward I I I I #
loop $-1 -1 $-1 $-1 $50 $14 #
coedge $-1 -1 $-1 $35 $35 $51 $52 reversed $22 0 $-1 #
coedge $-1 -1 $-1 $36 $36 $53 $54 reversed $24 0 $-1 #
coedge $-1 -1 $-1 $37 $37 $25 $38 forward $55 0 $-1 #
edge $-1 1673 $-1 $56 -3.141592653589792672 $56 3.14159265358979356 $37 $57 forward @7 unknown #
coedge $-1 -1 $-1 $39 $39 $26 $40 forward $58 0 $-1 #
edge $-1 1672 $-1 $59 -3.141592653589793116 $59 3.141592653589793116 $39 $60 forward @7 unknown #
loop $-1 -1 $-1 $55 $27 $61 #
vertex $-1 1839 $-1 $28 0 $62 #
ellipse-curve $-1 -1 $-1 -0.04470235630137087135 -0.9321000000000004837 6.313391100257466526 0 -1 -2.22044604925031456e-16 0.2800000000000000266 -1.869435999351878504e-32 2.218671295934095703e-31 1 I I #
ATTRIB_CUSTOM-attrib $-1 -1 $-1 $-1 $30 @22 generic_tag_attrib_def 3 3 -1 @23 generic_tag_attrib_def  1 0 @0  0 1 805 0 #
ATTRIB_CUSTOM-attrib $63 -1 $-1 $-1 $31 @22 generic_tag_attrib_def 3 3 -1 @23 generic_tag_attrib_def  2 1 @1 5 0 6 307 -313 -316 391 -423 802 0 2 @2 20 0 6 309 -313 -316 391 -423 802 0 #
face $64 1657 $-1 $61 $65 $5 $-1 $66 forward single #
loop $-1 -1 $-1 $-1 $67 $31 #
plane-surface $-1 -1 $-1 0.4802976530111304765 0.04290000931249959848 6.80714110025747221 1 -1.232595164407831165e-31 5.551115123125779744e-16 0 -1.25 -2.775557561562893323e-16 forward_v I I I I #
coedge $-1 -1 $-1 $68 $69 $70 $71 forward $32 0 $-1 #
coedge $-1 -1 $-1 $50 $50 $72 $73 reversed $34 0 $-1 #
coedge $-1 -1 $-1 $51 $51 $35 $52 forward $74 0 $-1 #
edge $-1 1675 $-1 $75 -3.141592653589793116 $75 3.141592653589793116 $51 $76 forward @7 unknown #
coedge $-1 -1 $-1 $53 $53 $36 $54 forward $77 0 $-1 #
edge $-1 1674 $-1 $78 -3.14159265358979356 $78 3.141592653589792672 $53 $79 forward @7 unknown #
loop $-1 -1 $-1 $74 $37 $61 #
vertex $-1 1841 $-1 $38 0 $80 #
ellipse-curve $-1 -1 $-1 -0.04470235630137020522 -0.9320999999999999286 4.113391100257466348 0 -1 -2.22044604925031456e-16 0.2800000000000000266 -4.379057701015053347e-47 1.972152263052529514e-31 1 I I #
loop $-1 -1 $-1 $77 $39 $81 #
vertex $-1 1840 $-1 $40 0 $82 #
ellipse-curve $-1 -1 $-1 -0.04470235630137087135 -1.032100000000000461 6.313391100257466526 0 1 2.22044604925031456e-16 0.2800000000000000266 -1.869435999351878504e-32 2.218671295934095703e-31 1 I I #
face $83 1658 $-1 $84 $41 $5 $-1 $85 reversed single #
point $-1 -1 $-1 -0.324702356301370898 -0.9321000000000004837 6.313391100257466526 #
ATTRIB_CUSTOM-attrib $-1 -1 $-1 $-1 $45 @22 generic_tag_attrib_def 3 3 -1 @23 generic_tag_attrib_def  1 0 @0  0 1 805 0 #
ATTRIB_CUSTOM-attrib $86 -1 $-1 $-1 $46 @22 generic_tag_attrib_def 3 3 -1 @23 generic_tag_attrib_def  1 1 @1 1 0 4 321 391 -423 802 0 #
loop $-1 -1 $-1 $-1 $87 $46 #
cone-surface $-1 -1 $-1 -0.5009523656138694658 -0.8633500000000005059 6.807141100257471322 5.551115123125779744e-16 2.22044604925031456e-16 -1 -0.04861359120657518518 -0.04861359120657510191 -3.778034978707834295e-17 1 I I 0 -1 0.06875000000000000555 forward I I I I #
coedge $-1 -1 $-1 $88 $89 $68 $90 reversed $47 0 $-1 #
coedge $-1 -1 $-1 $91 $49 $67 $90 forward $32 0 $-1 #
coedge $-1 -1 $-1 $49 $91 $92 $93 forward $32 0 $-1 #
coedge $-1 -1 $-1 $94 $95 $49 $71 reversed $96 0 $-1 #
edge $-1 1677 $-1 $97 -0.7853981633974500554 $98 0.7853981633974465026 $49 $99 forward @7 unknown #
coedge $-1 -1 $-1 $72 $72 $50 $73 forward $100 0 $-1 #
edge $-1 1676 $-1 $101 -3.141592653589793116 $101 3.141592653589793116 $72 $102 forward @7 unknown #
loop $-1 -1 $-1 $103 $51 $61 #
vertex $-1 1843 $-1 $52 0 $104 #
ellipse-curve $-1 -1 $-1 -0.0447023563013686509 -0.9321000000000001506 5.213391100257471322 0 -1 -2.22044604925031456e-16 0.2273316684934151011 -2.852133476096083435e-32 1.284486726015722896e-16 1 I I #
loop $-1 -1 $-1 $100 $53 $81 #
vertex $-1 1842 $-1 $54 0 $105 #
ellipse-curve $-1 -1 $-1 -0.04470235630137020522 -1.032100000000000017 4.113391100257466348 0 1 2.22044604925031456e-16 0.2800000000000000266 -4.379057701015053347e-47 1.972152263052529514e-31 1 I I #
point $-1 -1 $-1 -0.3247023563013703429 -0.9320999999999999286 4.113391100257466348 #
face $106 1670 $-1 $-1 $58 $5 $-1 $107 reversed single #
point $-1 -1 $-1 -0.324702356301370898 -1.032100000000000461 6.313391100257466526 #
ATTRIB_CUSTOM-attrib $108 -1 $-1 $-1 $61 @22 generic_tag_attrib_def 3 3 -1 @23 generic_tag_attrib_def  2 1 @1 6 0 7 307 -312 -314 -315 391 -423 802 0 2 @2 19 0 7 309 -312 -314 -315 391 -423 802 0 #
face $109 1659 $-1 $110 $111 $5 $-1 $112 forward single #
plane-surface $-1 -1 $-1 0.5052976530111303877 -0.9321000000000004837 6.80714110025747221 0 -1 -2.22044604925031456e-16 -1.25 1.540743955509788901e-31 -6.938893903907224433e-16 forward_v I I I I #
ATTRIB_CUSTOM-attrib $-1 -1 $-1 $-1 $64 @22 generic_tag_attrib_def 3 3 -1 @23 generic_tag_attrib_def  1 0 @0  0 1 805 0 #
coedge $-1 -1 $-1 $113 $114 $115 $116 forward $65 0 $-1 #
coedge $117 -1 $-1 $118 $67 $95 $119 reversed $47 0 $-1 #
coedge $-1 -1 $-1 $67 $120 $121 $122 reversed $47 0 $-1 #
edge $-1 1678 $-1 $98 0 $123 2.550000000000000266 $67 $124 forward @7 tangent #
coedge $-1 -1 $-1 $69 $68 $125 $126 forward $32 0 $-1 #
coedge $-1 -1 $-1 $127 $128 $69 $93 reversed $103 0 $-1 #
edge $-1 1680 $-1 $129 -2.550000000000000266 $97 0 $92 $130 forward @7 tangent #
coedge $-1 -1 $-1 $115 $70 $128 $131 forward $96 0 $-1 #
coedge $-1 -1 $-1 $70 $132 $88 $119 forward $96 0 $-1 #
loop $-1 -1 $-1 $-1 $132 $133 #
vertex $-1 1845 $-1 $71 0 $134 #
vertex $-1 1846 $-1 $71 1 $135 #
ellipse-curve $-1 -1 $-1 0.4115476530111308318 -0.8633500000000005059 6.80714110025747221 -5.551115123125779744e-16 -2.22044604925031456e-16 1 0.04861359120657524069 -0.04861359120657506722 1.619157848017647848e-17 1 I I #
loop $-1 -1 $-1 $136 $72 $81 #
vertex $-1 1844 $-1 $73 0 $137 #
ellipse-curve $-1 -1 $-1 -0.0447023563013686509 -1.032100000000000239 5.213391100257471322 0 1 2.22044604925031456e-16 0.2273316684934151011 -2.852133476096083435e-32 1.284486726015722896e-16 1 I I #
loop $-1 -1 $-1 $-1 $92 $61 #
point $-1 -1 $-1 -0.2720340247947837797 -0.9321000000000001506 5.213391100257471322 #
point $-1 -1 $-1 -0.3247023563013703429 -1.032100000000000017 4.113391100257466348 #
ATTRIB_CUSTOM-attrib $138 -1 $-1 $-1 $81 @22 generic_tag_attrib_def 3 3 -1 @23 generic_tag_attrib_def  2 1 @1 4 0 5 301 -303 391 -423 802 0 2 @2 23 0 4 309 391 -423 802 0 #
plane-surface $-1 -1 $-1 -0.04470235630136953908 -1.032100000000000461 6.744641100257471322 0 1 2.22044604925031456e-16 6.938893903907224433e-16 2.775557561562893323e-16 -1.25 forward_v I I I I #
ATTRIB_CUSTOM-attrib $-1 -1 $-1 $-1 $83 @22 generic_tag_attrib_def 3 3 -1 @23 generic_tag_attrib_def  1 0 @0  0 1 805 0 #
ATTRIB_CUSTOM-attrib $139 -1 $-1 $-1 $84 @22 generic_tag_attrib_def 3 3 -1 @23 generic_tag_attrib_def  1 1 @1 1 0 4 320 391 -423 802 0 #
face $140 1660 $-1 $141 $142 $5 $-1 $143 forward single #
loop $-1 -1 $-1 $-1 $144 $84 #
cone-surface $-1 -1 $-1 -0.04470235630136776273 -0.563349990687499802 3.77589110025747221 1 -1.232595164407831165e-31 5.551115123125779744e-16 6.133173666733492855e-17 0.1104854345603980686 -0.1104854345603980131 1 I I 0 1 0.1562499999999999722 forward I I I I #
coedge $-1 -1 $-1 $145 $87 $146 $147 forward $65 0 $-1 #
coedge $-1 -1 $-1 $87 $145 $148 $149 forward $65 0 $-1 #
coedge $-1 -1 $-1 $150 $94 $87 $116 reversed $96 0 $-1 #
edge $-1 1686 $-1 $151 -0.7853981633974469467 $152 0.7853981633974491672 $87 $153 forward @7 unknown #
ATTRIB_CUSTOM-attrib $-1 -1 $-1 $-1 $88 @17 sketch_attrib_def 1 1 3 @13 109 0 0 0 1 1 #
coedge $-1 -1 $-1 $154 $88 $155 $156 reversed $47 0 $-1 #
edge $-1 1681 $-1 $157 0.1799999981375000058 $98 0.4200000055875000582 $95 $158 forward @7 unknown #
coedge $-1 -1 $-1 $89 $154 $159 $160 reversed $47 0 $-1 #
coedge $-1 -1 $-1 $161 $125 $89 $122 forward $142 0 $-1 #
edge $-1 1685 $-1 $123 -0.4200000055875000582 $162 -0.1799999981375000058 $89 $163 forward @7 unknown #
vertex $-1 1847 $-1 $90 1 $164 #
straight-curve $-1 -1 $-1 0.4802976530111304765 -0.8633500000000005059 6.80714110025747221 6.938893903907224433e-16 2.775557561562893323e-16 -1.25 F -0.1705009999999999859 F 2.720501000000000502 #
coedge $-1 -1 $-1 $121 $165 $91 $126 reversed $142 0 $-1 #
edge $-1 1679 $-1 $123 -0.7853981633974465026 $129 0.7853981633974500554 $91 $166 forward @7 unknown #
coedge $-1 -1 $-1 $146 $92 $165 $167 reversed $103 0 $-1 #
coedge $168 -1 $-1 $92 $146 $94 $131 reversed $103 0 $-1 #
vertex $-1 1848 $-1 $126 1 $169 #
straight-curve $-1 -1 $-1 0.4115476530111308318 -0.9321000000000004837 6.80714110025747221 -6.938893903907224433e-16 -2.775557561562893323e-16 1.25 F -2.720501000000000502 F 0.1705009999999999859 #
edge $-1 1691 $-1 $97 -0.1450000037250001039 $152 0.5850000111750000009 $94 $170 forward @7 unknown #
coedge $-1 -1 $-1 $95 $171 $172 $173 reversed $96 0 $-1 #
face $174 1666 $-1 $175 $96 $5 $-1 $176 forward single #
point $-1 -1 $-1 0.4115476530111308318 -0.9321000000000004837 6.80714110025747221 #
point $-1 -1 $-1 0.4802976530111304765 -0.8633500000000005059 6.80714110025747221 #
loop $-1 -1 $-1 $-1 $177 $81 #
point $-1 -1 $-1 -0.2720340247947837797 -1.032100000000000239 5.213391100257471322 #
ATTRIB_CUSTOM-attrib $-1 -1 $-1 $-1 $106 @22 generic_tag_attrib_def 3 3 -1 @23 generic_tag_attrib_def  1 0 @0  0 1 805 0 #
ATTRIB_CUSTOM-attrib $-1 -1 $-1 $-1 $109 @22 generic_tag_attrib_def 3 3 -1 @23 generic_tag_attrib_def  1 0 @0  0 1 805 0 #
ATTRIB_CUSTOM-attrib $178 -1 $-1 $-1 $110 @22 generic_tag_attrib_def 3 3 -1 @23 generic_tag_attrib_def  1 1 @1 2 0 7 309 -312 -314 -316 391 -423 802 0 #
face $179 1661 $-1 $180 $181 $5 $-1 $182 reversed single #
loop $-1 -1 $-1 $-1 $161 $110 #
plane-surface $-1 -1 $-1 -0.04470235630136776273 -0.7195999953437497432 3.619641100257471766 5.551115123125779744e-16 2.22044604925031456e-16 -1 -1.25 1.540743955509788901e-31 -6.938893903907224433e-16 forward_v I I I I #
coedge $-1 -1 $-1 $183 $184 $185 $186 forward $111 0 $-1 #
coedge $-1 -1 $-1 $114 $113 $187 $188 forward $65 0 $-1 #
coedge $-1 -1 $-1 $128 $127 $113 $147 reversed $103 0 $-1 #
edge $-1 1687 $-1 $152 0 $189 2.550000000000000266 $146 $190 forward @7 tangent #
coedge $-1 -1 $-1 $191 $192 $114 $149 reversed $193 0 $-1 #
edge $-1 1689 $-1 $194 -2.550000000000000266 $151 0 $148 $195 forward @7 tangent #
coedge $-1 -1 $-1 $196 $115 $192 $197 forward $96 0 $-1 #
vertex $-1 1853 $-1 $116 0 $198 #
vertex $-1 1854 $-1 $116 1 $199 #
ellipse-curve $-1 -1 $-1 -0.5009523656138694658 -0.8633500000000005059 6.807141100257471322 -5.551115123125779744e-16 -2.22044604925031456e-16 1 -0.04861359120657518518 -0.04861359120657510191 -3.778034978707834295e-17 1 I I #
coedge $-1 -1 $-1 $120 $118 $200 $201 reversed $47 0 $-1 #
coedge $-1 -1 $-1 $172 $202 $118 $156 forward $203 0 $-1 #
edge $-1 1682 $-1 $204 -0.785398163397448279 $157 0.785398163397448279 $118 $205 forward @7 unknown #
vertex $-1 1849 $-1 $119 0 $206 #
straight-curve $-1 -1 $-1 0.4802976530111304765 -0.3383499930156255164 6.80714110025747221 0 -1.25 -2.775557561562893323e-16 I I #
coedge $-1 -1 $-1 $184 $183 $120 $160 forward $111 0 $-1 #
edge $-1 1684 $-1 $162 -0.785398163397448279 $207 0.785398163397448279 $120 $208 forward @7 unknown #
coedge $-1 -1 $-1 $209 $121 $183 $210 reversed $142 0 $-1 #
vertex $-1 1852 $-1 $160 0 $211 #
straight-curve $-1 -1 $-1 0.4802976530111322528 -0.3383499930156247393 3.61964110025747221 0 1.25 2.775557561562893323e-16 I I #
point $-1 -1 $-1 0.4802976530111322528 -0.8633499999999998398 3.61964110025747221 #
coedge $-1 -1 $-1 $125 $187 $127 $167 forward $142 0 $-1 #
ellipse-curve $-1 -1 $-1 0.4115476530111326081 -0.8633499999999998398 3.61964110025747221 5.551115123125779744e-16 2.22044604925031456e-16 -1 0.04861359120657524069 -0.04861359120657506722 1.619157848017647848e-17 1 I I #
edge $-1 1690 $-1 $189 -0.5850000111750000009 $129 0.1450000037250001039 $127 $212 forward @7 unknown #
ATTRIB_CUSTOM-attrib $-1 -1 $-1 $-1 $128 @17 sketch_attrib_def 1 1 3 @13 108 0 0 0 1 1 #
point $-1 -1 $-1 0.4115476530111326081 -0.9320999999999998176 3.61964110025747221 #
straight-curve $-1 -1 $-1 0.2302976483548804243 -0.9321000000000004837 6.80714110025747221 -1.25 1.540743955509788901e-31 -6.938893903907224433e-16 F -9998.780000981372723 F 10001.22000101862795 #
coedge $-1 -1 $-1 $132 $213 $214 $215 forward $96 0 $-1 #
coedge $-1 -1 $-1 $216 $155 $132 $173 forward $203 0 $-1 #
edge $-1 1714 $-1 $157 0.4200000074500001013 $217 0.5000000074500001723 $132 $218 forward @7 tangent #
ATTRIB_CUSTOM-attrib $219 -1 $-1 $-1 $133 @22 generic_tag_attrib_def 3 3 -1 @23 generic_tag_attrib_def  1 1 @1 2 0 7 301 -312 -314 -316 391 -423 802 0 #
face $220 1667 $-1 $221 $222 $5 $-1 $223 forward single #
plane-surface $-1 -1 $-1 -0.04470235630136953908 -0.7195999953437505203 6.807141100257471322 -5.551115123125779744e-16 -2.22044604925031456e-16 1 0 1.25 2.775557561562893323e-16 forward_v I I I I #
coedge $-1 -1 $-1 $224 $225 $226 $227 reversed $136 0 $-1 #
ATTRIB_CUSTOM-attrib $-1 -1 $-1 $-1 $140 @22 generic_tag_attrib_def 3 3 -1 @23 generic_tag_attrib_def  1 0 @0  0 1 805 0 #
ATTRIB_CUSTOM-attrib $228 -1 $-1 $-1 $141 @22 generic_tag_attrib_def 3 3 -1 @23 generic_tag_attrib_def  2 1 @1 6 0 5 301 -303 391 -423 802 0 2 @2 22 0 4 309 391 -423 802 0 #
face $229 1662 $-1 $230 $231 $5 $-1 $232 forward single #
loop $-1 -1 $-1 $-1 $185 $141 #
plane-surface $-1 -1 $-1 0.5802976530111305653 -0.7195999953437504093 6.74464110025747221 -1 1.232595164407831165e-31 -5.551115123125779744e-16 -6.938893903907224433e-16 -2.775557561562893323e-16 1.25 forward_v I I I I #
coedge $-1 -1 $-1 $159 $144 $161 $210 forward $111 0 $-1 #
coedge $-1 -1 $-1 $144 $159 $233 $234 forward $111 0 $-1 #
coedge $-1 -1 $-1 $235 $236 $144 $186 reversed $181 0 $-1 #
edge $-1 1692 $-1 $237 -0.785398163397448279 $238 0.785398163397448279 $185 $239 forward @7 unknown #
coedge $-1 -1 $-1 $165 $240 $145 $188 reversed $142 0 $-1 #
edge $-1 1688 $-1 $189 -0.7853981633974491672 $194 0.7853981633974469467 $145 $241 forward @7 unknown #
vertex $-1 1855 $-1 $147 1 $242 #
straight-curve $-1 -1 $-1 -0.5009523656138694658 -0.9321000000000004837 6.807141100257471322 6.938893903907224433e-16 2.775557561562893323e-16 -1.25 F -0.1705009999999999859 F 2.720501000000000502 #
coedge $-1 -1 $-1 $243 $148 $240 $244 reversed $193 0 $-1 #
coedge $245 -1 $-1 $148 $246 $150 $197 reversed $193 0 $-1 #
loop $-1 -1 $-1 $-1 $148 $221 #
vertex $-1 1856 $-1 $188 1 $247 #
straight-curve $-1 -1 $-1 -0.5697023656138695547 -0.8633500000000005059 6.807141100257471322 -6.938893903907224433e-16 -2.775557561562893323e-16 1.25 F -2.720501000000000502 F 0.1705009999999999859 #
coedge $-1 -1 $-1 $248 $150 $249 $250 reversed $96 0 $-1 #
edge $-1 1715 $-1 $151 -0.02000000186249994982 $251 0.2200000055875000748 $150 $252 forward @7 unknown #
point $-1 -1 $-1 -0.5697023656138696657 -0.8633500000000005059 6.807141100257471322 #
point $-1 -1 $-1 -0.5009523656138694658 -0.9321000000000004837 6.807141100257471322 #
coedge $-1 -1 $-1 $253 $233 $154 $201 forward $254 0 $-1 #
edge $-1 1683 $-1 $207 -2.400000000000000355 $204 -0.1000000000000000056 $200 $255 reversed @7 unknown #
coedge $-1 -1 $-1 $155 $216 $253 $256 forward $203 0 $-1 #
loop $-1 -1 $-1 $-1 $216 $257 #
vertex $-1 1850 $-1 $156 0 $258 #
ellipse-curve $-1 -1 $-1 0.4802976530111304765 -0.5633499906875003571 6.65089110025747221 1 -1.232595164407831165e-31 5.551115123125779744e-16 -6.133173666733492855e-17 0.1104854345603980131 0.1104854345603980686 1 I I #
point $-1 -1 $-1 0.4802976530111304765 -0.5633499906875004681 6.80714110025747221 #
vertex $-1 1851 $-1 $201 0 $259 #
ellipse-curve $-1 -1 $-1 0.4802976530111322528 -0.563349990687499802 3.77589110025747221 1 -1.232595164407831165e-31 5.551115123125779744e-16 6.133173666733492855e-17 0.1104854345603980686 -0.1104854345603980131 1 I I #
coedge $-1 -1 $-1 $260 $161 $236 $261 forward $142 0 $-1 #
edge $-1 1693 $-1 $238 -0.5000000074500001723 $162 -0.4200000074500001013 $161 $262 forward @7 tangent #
point $-1 -1 $-1 0.4802976530111322528 -0.563349990687499691 3.61964110025747221 #
straight-curve $-1 -1 $-1 0.2302976483548822006 -0.9320999999999998176 3.61964110025747221 1.25 -1.540743955509788901e-31 6.938893903907224433e-16 F -10001.22000101862795 F 9998.780000981372723 #
coedge $-1 -1 $-1 $171 $248 $224 $263 forward $96 0 $-1 #
coedge $-1 -1 $-1 $226 $264 $171 $215 reversed $181 0 $-1 #
edge $-1 1702 $-1 $265 -0.2500000037250000307 $217 0.1250000037250000307 $214 $266 forward @7 unknown #
coedge $-1 -1 $-1 $202 $172 $264 $267 forward $203 0 $-1 #
vertex $-1 1864 $-1 $267 0 $268 #
straight-curve $-1 -1 $-1 -0.04470235630136953908 -0.5633499906875004681 6.807141100257471322 1.25 -1.540743955509788901e-31 6.938893903907224433e-16 F -0.6375010074500000457 F 0.8875010074500000457 #
ATTRIB_CUSTOM-attrib $-1 -1 $-1 $-1 $174 @22 generic_tag_attrib_def 3 3 -1 @23 generic_tag_attrib_def  1 0 @0  0 1 805 0 #
ATTRIB_CUSTOM-attrib $269 -1 $-1 $-1 $175 @22 generic_tag_attrib_def 3 3 -1 @23 generic_tag_attrib_def  1 1 @1 1 0 4 317 391 -423 802 0 #
face $270 1668 $-1 $271 $193 $5 $-1 $272 reversed single #
loop $-1 -1 $-1 $-1 $273 $175 #
cone-surface $-1 -1 $-1 -0.04470235630136953908 -0.5633499906875003571 6.650891100257471322 -1 1.232595164407831165e-31 -5.551115123125779744e-16 -6.133173666733492855e-17 0.1104854345603980131 0.1104854345603980686 1 I I 0 1 0.1562499999999999722 forward I I I I #
coedge $-1 -1 $-1 $274 $177 $213 $263 reversed $136 0 $-1 #
coedge $-1 -1 $-1 $177 $274 $260 $275 reversed $136 0 $-1 #
coedge $-1 -1 $-1 $236 $214 $177 $227 forward $181 0 $-1 #
edge $-1 1703 $-1 $265 -0.05000000000000000278 $276 2.5 $177 $277 forward @7 unknown #
ATTRIB_CUSTOM-attrib $-1 -1 $-1 $-1 $179 @22 generic_tag_attrib_def 3 3 -1 @23 generic_tag_attrib_def  1 0 @0  0 1 805 0 #
ATTRIB_CUSTOM-attrib $278 -1 $-1 $-1 $180 @22 generic_tag_attrib_def 3 3 -1 @23 generic_tag_attrib_def  1 1 @1 1 0 4 319 391 -423 802 0 #
face $279 1663 $-1 $280 $281 $5 $-1 $282 reversed single #
loop $-1 -1 $-1 $-1 $283 $180 #
cone-surface $-1 -1 $-1 -0.04470235630136776273 -0.563349990687499802 3.77589110025747221 1 -1.232595164407831165e-31 5.551115123125779744e-16 6.133173666733492855e-17 0.1104854345603980686 -0.1104854345603980131 1 I I 0 1 0.1562499999999999722 forward I I I I #
coedge $-1 -1 $-1 $200 $284 $184 $234 reversed $254 0 $-1 #
edge $-1 1694 $-1 $207 0.4200000074500001013 $237 0.5000000074500001723 $233 $285 forward @7 tangent #
coedge $-1 -1 $-1 $264 $185 $284 $286 reversed $181 0 $-1 #
coedge $-1 -1 $-1 $185 $226 $209 $261 reversed $181 0 $-1 #
vertex $-1 1857 $-1 $186 0 $287 #
vertex $-1 1858 $-1 $186 1 $288 #
ellipse-curve $-1 -1 $-1 0.5802976530111323417 -0.563349990687499802 3.77589110025747221 -1 1.232595164407831165e-31 -5.551115123125779744e-16 6.133173666733492855e-17 0.1104854345603980686 -0.1104854345603980131 1 I I #
coedge $-1 -1 $-1 $187 $289 $191 $244 forward $142 0 $-1 #
ellipse-curve $-1 -1 $-1 -0.5009523656138676895 -0.8633499999999998398 3.619641100257471766 5.551115123125779744e-16 2.22044604925031456e-16 -1 -0.04861359120657518518 -0.04861359120657510191 -3.778034978707834295e-17 1 I I #
point $-1 -1 $-1 -0.5009523656138676895 -0.9320999999999998176 3.619641100257471766 #
coedge $-1 -1 $-1 $290 $191 $291 $292 reversed $193 0 $-1 #
edge $-1 1699 $-1 $293 -0.2200000055875000748 $194 0.02000000186249994982 $191 $294 forward @7 unknown #
ATTRIB_CUSTOM-attrib $-1 -1 $-1 $-1 $192 @17 sketch_attrib_def 1 1 3 @13 111 0 0 0 1 1 #
coedge $-1 -1 $-1 $192 $290 $295 $296 reversed $193 0 $-1 #
point $-1 -1 $-1 -0.5697023656138678893 -0.8633499999999998398 3.619641100257471766 #
coedge $-1 -1 $-1 $213 $196 $297 $298 forward $96 0 $-1 #
coedge $-1 -1 $-1 $295 $273 $196 $250 forward $222 0 $-1 #
edge $-1 1716 $-1 $299 -0.5000000074500000613 $251 -0.4200000074500002123 $196 $300 forward @7 tangent #
vertex $-1 1872 $-1 $197 1 $301 #
straight-curve $-1 -1 $-1 -0.5697023656138696657 -0.8383499976718755686 6.807141100257471322 -3.469446919644389949e-16 1.25 2.775557561562891351e-16 I I #
coedge $-1 -1 $-1 $284 $200 $202 $256 reversed $254 0 $-1 #
loop $-1 -1 $-1 $-1 $233 $271 #
straight-curve $-1 -1 $-1 0.4802976530111304765 -0.4070999906875004681 6.77589110025747221 6.938893903907224433e-16 2.775557561562893323e-16 -1.25 F -9999.925000999999611 F 10000.07500100000107 #
edge $-1 1713 $-1 $302 -0.5000000074500001723 $204 -0.4200000074500001013 $253 $303 forward @7 tangent #
face $304 1665 $-1 $133 $203 $5 $-1 $305 forward single #
point $-1 -1 $-1 0.4802976530111304765 -0.4070999906875004681 6.65089110025747221 #
point $-1 -1 $-1 0.4802976530111322528 -0.407099990687499802 3.77589110025747221 #
coedge $-1 -1 $-1 $306 $209 $225 $275 forward $142 0 $-1 #
edge $-1 1695 $-1 $238 -0.1250000037250000307 $276 0.2500000037250000307 $236 $307 forward @7 unknown #
straight-curve $-1 -1 $-1 -0.04470235630136776273 -0.563349990687499691 3.61964110025747221 -1.25 1.540743955509788901e-31 -6.938893903907224433e-16 F -0.8875010074500000457 F 0.6375010074500000457 #
edge $-1 1717 $-1 $308 -0.5000000074500000613 $265 0.5000000074500001723 $224 $309 forward @7 unknown #
coedge $-1 -1 $-1 $214 $235 $216 $267 reversed $181 0 $-1 #
vertex $-1 1865 $-1 $215 0 $310 #
straight-curve $-1 -1 $-1 0.5802976530111305653 -0.7195999953437505203 6.80714110025747221 0 1.25 2.775557561562893323e-16 I I #
edge $-1 1701 $-1 $217 -0.785398163397448279 $302 0.785398163397448279 $264 $311 forward @7 unknown #
point $-1 -1 $-1 0.5802976530111305653 -0.5633499906875004681 6.80714110025747221 #
ATTRIB_CUSTOM-attrib $-1 -1 $-1 $-1 $220 @22 generic_tag_attrib_def 3 3 -1 @23 generic_tag_attrib_def  1 0 @0  0 1 805 0 #
ATTRIB_CUSTOM-attrib $312 -1 $-1 $-1 $221 @22 generic_tag_attrib_def 3 3 -1 @23 generic_tag_attrib_def  2 1 @1 3 0 6 307 -311 -316 391 -423 802 0 2 @2 18 0 6 309 -311 -316 391 -423 802 0 #
face $313 1669 $-1 $81 $254 $5 $-1 $314 reversed single #
plane-surface $-1 -1 $-1 -0.5697023656138695547 -0.9571000000000005059 6.807141100257471322 -1 -2.775557535715510283e-16 -5.55111512312578073e-16 -3.469446919644389949e-16 1.25 2.775557561562891351e-16 forward_v I I I I #
coedge $-1 -1 $-1 $249 $315 $316 $317 forward $222 0 $-1 #
coedge $-1 -1 $-1 $225 $224 $318 $319 forward $136 0 $-1 #
edge $-1 1696 $-1 $276 -0.5000000074500001723 $320 0.5000000074500000613 $225 $321 forward @7 unknown #
vertex $-1 1859 $-1 $261 1 $322 #
straight-curve $-1 -1 $-1 0.5802976530111305653 -1.032100000000000461 6.74464110025747221 6.938893903907224433e-16 2.775557561562893323e-16 -1.25 I I #
ATTRIB_CUSTOM-attrib $-1 -1 $-1 $-1 $229 @22 generic_tag_attrib_def 3 3 -1 @23 generic_tag_attrib_def  1 0 @0  0 1 805 0 #
ATTRIB_CUSTOM-attrib $323 -1 $-1 $-1 $230 @22 generic_tag_attrib_def 3 3 -1 @23 generic_tag_attrib_def  2 1 @1 3 0 6 301 -303 -312 391 -423 802 0 2 @2 25 0 5 309 -312 391 -423 802 0 #
face $324 1664 $-1 $257 $325 $5 $-1 $326 reversed single #
loop $-1 -1 $-1 $-1 $327 $230 #
plane-surface $-1 -1 $-1 -0.04470235630136953908 -0.4070999906875004681 6.74464110025747221 0 -1 -2.22044604925031456e-16 -6.938893903907224433e-16 -2.775557561562893323e-16 1.25 forward_v I I I I #
coedge $-1 -1 $-1 $328 $329 $330 $331 forward $231 0 $-1 #
coedge $-1 -1 $-1 $233 $253 $235 $286 forward $254 0 $-1 #
straight-curve $-1 -1 $-1 -0.04470235630136776273 -0.407099990687499802 3.77589110025747221 1.25 -1.540743955509788901e-31 6.938893903907224433e-16 F -0.6375010074500000457 F 0.8875010074500000457 #
edge $-1 1700 $-1 $302 0.07499999999999999722 $237 2.375 $284 $332 forward @7 unknown #
point $-1 -1 $-1 0.5802976530111323417 -0.407099990687499802 3.77589110025747221 #
point $-1 -1 $-1 0.5802976530111323417 -0.563349990687499691 3.61964110025747221 #
coedge $-1 -1 $-1 $240 $306 $329 $333 reversed $142 0 $-1 #
coedge $-1 -1 $-1 $246 $243 $334 $335 reversed $193 0 $-1 #
coedge $-1 -1 $-1 $329 $328 $243 $292 forward $231 0 $-1 #
edge $-1 1706 $-1 $336 -0.785398163397448279 $293 0.785398163397448279 $243 $337 forward @7 unknown #
vertex $-1 1862 $-1 $333 0 $338 #
straight-curve $-1 -1 $-1 -0.5697023656138678893 -0.8383499976718749025 3.619641100257471766 3.469446919644389949e-16 -1.25 -2.775557561562891351e-16 I I #
coedge $-1 -1 $-1 $315 $249 $246 $296 forward $222 0 $-1 #
edge $-1 1718 $-1 $251 -0.785398163397448279 $339 0.785398163397448279 $246 $340 forward @7 unknown #
coedge $-1 -1 $-1 $316 $318 $248 $298 reversed $325 0 $-1 #
edge $-1 1711 $-1 $299 -0.1250000037250000307 $308 0.2500000037250000307 $297 $341 forward @7 unknown #
vertex $-1 1871 $-1 $298 0 $342 #
straight-curve $-1 -1 $-1 -0.04470235630136953908 -0.5633499906875004681 6.807141100257471322 1.25 -1.540743955509788901e-31 6.938893903907224433e-16 F -0.8875010074500000457 F 0.6375010074500000457 #
point $-1 -1 $-1 -0.5697023656138697767 -0.5633499906875004681 6.807141100257471322 #
vertex $-1 1863 $-1 $286 0 $343 #
straight-curve $-1 -1 $-1 -0.04470235630136953908 -0.4070999906875004681 6.65089110025747221 -1.25 1.540743955509788901e-31 -6.938893903907224433e-16 F -0.8875010074500000457 F 0.6375010074500000457 #
ATTRIB_CUSTOM-attrib $344 -1 $-1 $-1 $257 @22 generic_tag_attrib_def 3 3 -1 @23 generic_tag_attrib_def  1 1 @1 1 0 4 318 391 -423 802 0 #
cone-surface $-1 -1 $-1 -0.04470235630136953908 -0.5633499906875003571 6.650891100257471322 -1 1.232595164407831165e-31 -5.551115123125779744e-16 -6.133173666733492855e-17 0.1104854345603980131 0.1104854345603980686 1 I I 0 1 0.1562499999999999722 forward I I I I #
coedge $-1 -1 $-1 $289 $260 $345 $346 forward $142 0 $-1 #
straight-curve $-1 -1 $-1 0.5802976530111323417 -0.7195999953437497432 3.61964110025747221 0 -1.25 -2.775557561562893323e-16 I I #
vertex $-1 1870 $-1 $319 0 $347 #
straight-curve $-1 -1 $-1 -0.04470235630136953908 -1.032100000000000461 6.807141100257471322 1.25 -1.540743955509788901e-31 6.938893903907224433e-16 I I #
point $-1 -1 $-1 0.5802976530111305653 -1.032100000000000461 6.80714110025747221 #
ellipse-curve $-1 -1 $-1 0.5802976530111305653 -0.5633499906875003571 6.65089110025747221 -1 1.232595164407831165e-31 -5.551115123125779744e-16 -6.133173666733492855e-17 0.1104854345603980131 0.1104854345603980686 1 I I #
ATTRIB_CUSTOM-attrib $-1 -1 $-1 $-1 $270 @22 generic_tag_attrib_def 3 3 -1 @23 generic_tag_attrib_def  1 0 @0  0 1 805 0 #
ATTRIB_CUSTOM-attrib $348 -1 $-1 $-1 $271 @22 generic_tag_attrib_def 3 3 -1 @23 generic_tag_attrib_def  2 1 @1 3 0 6 301 -303 -314 391 -423 802 0 2 @2 21 0 5 309 -314 391 -423 802 0 #
plane-surface $-1 -1 $-1 -0.04470235630136953908 -0.4070999906875004681 6.74464110025747221 0 -1 -2.22044604925031456e-16 -6.938893903907224433e-16 -2.775557561562893323e-16 1.25 forward_v I I I I #
coedge $-1 -1 $-1 $273 $295 $349 $350 forward $222 0 $-1 #
coedge $-1 -1 $-1 $351 $297 $273 $317 reversed $325 0 $-1 #
edge $-1 1712 $-1 $352 -0.785398163397448279 $299 0.785398163397448279 $316 $353 forward @7 unknown #
coedge $-1 -1 $-1 $297 $345 $274 $319 reversed $325 0 $-1 #
edge $-1 1710 $-1 $308 -1.900000000000000133 $320 0.6500000000000001332 $274 $354 forward @7 unknown #
vertex $-1 1860 $-1 $275 1 $355 #
straight-curve $-1 -1 $-1 -0.04470235630136776273 -1.032099999999999795 3.619641100257471766 -1.25 1.540743955509788901e-31 -6.938893903907224433e-16 I I #
point $-1 -1 $-1 0.5802976530111323417 -1.032099999999999795 3.61964110025747221 #
ATTRIB_CUSTOM-attrib $-1 -1 $-1 $-1 $279 @22 generic_tag_attrib_def 3 3 -1 @23 generic_tag_attrib_def  1 0 @0  0 1 805 0 #
ATTRIB_CUSTOM-attrib $356 -1 $-1 $-1 $280 @22 generic_tag_attrib_def 3 3 -1 @23 generic_tag_attrib_def  2 1 @1 5 0 5 301 -303 391 -423 802 0 2 @2 24 0 4 309 391 -423 802 0 #
loop $-1 -1 $-1 $-1 $330 $280 #
plane-surface $-1 -1 $-1 -0.6697023656138696435 -0.7195999953437504093 6.744641100257471322 1 -1.232595164407831165e-31 5.551115123125779744e-16 6.938893903907224433e-16 2.775557561562893323e-16 -1.25 forward_v I I I I #
coedge $-1 -1 $-1 $357 $334 $328 $358 reversed $281 0 $-1 #
coedge $-1 -1 $-1 $291 $283 $327 $358 forward $231 0 $-1 #
coedge $-1 -1 $-1 $283 $291 $289 $333 forward $231 0 $-1 #
coedge $-1 -1 $-1 $345 $351 $283 $331 reversed $325 0 $-1 #
edge $-1 1704 $-1 $359 -0.785398163397448279 $360 0.785398163397448279 $330 $361 forward @7 unknown #
straight-curve $-1 -1 $-1 0.5802976530111305653 -0.4070999906875004681 6.74464110025747221 6.938893903907224433e-16 2.775557561562893323e-16 -1.25 I I #
edge $-1 1698 $-1 $293 0.4200000074500002123 $359 0.5000000074500000613 $289 $362 forward @7 tangent #
coedge $-1 -1 $-1 $327 $349 $290 $335 forward $281 0 $-1 #
edge $-1 1709 $-1 $339 0.1000000000000000056 $336 2.400000000000000355 $290 $363 reversed @7 unknown #
vertex $-1 1867 $-1 $358 1 $364 #
ellipse-curve $-1 -1 $-1 -0.5697023656138678893 -0.563349990687499802 3.775891100257471766 -1 -2.775557535715510283e-16 -5.55111512312578073e-16 6.133173666733492855e-17 0.1104854345603980686 -0.1104854345603980131 1 I I #
point $-1 -1 $-1 -0.5697023656138680003 -0.563349990687499691 3.619641100257471766 #
vertex $-1 1869 $-1 $350 0 $365 #
ellipse-curve $-1 -1 $-1 -0.5697023656138694436 -0.5633499906875003571 6.650891100257471322 -1 -2.775557535715510283e-16 -5.55111512312578073e-16 -6.133173666733492855e-17 0.1104854345603980131 0.1104854345603980686 1 I I #
straight-curve $-1 -1 $-1 -0.6697023656138696435 -0.7195999953437505203 6.807141100257471322 0 -1.25 -2.775557561562893323e-16 I I #
point $-1 -1 $-1 -0.6697023656138696435 -0.5633499906875004681 6.807141100257471322 #
point $-1 -1 $-1 0.5802976530111305653 -0.4070999906875004681 6.65089110025747221 #
ATTRIB_CUSTOM-attrib $-1 -1 $-1 $-1 $304 @22 generic_tag_attrib_def 3 3 -1 @23 generic_tag_attrib_def  1 0 @0  0 1 805 0 #
coedge $-1 -1 $-1 $318 $330 $306 $346 reversed $325 0 $-1 #
edge $-1 1697 $-1 $320 -0.2500000037250000307 $359 0.1250000037250000307 $345 $366 forward @7 unknown #
point $-1 -1 $-1 -0.6697023656138696435 -1.032100000000000461 6.807141100257471322 #
ATTRIB_CUSTOM-attrib $-1 -1 $-1 $-1 $313 @22 generic_tag_attrib_def 3 3 -1 @23 generic_tag_attrib_def  1 0 @0  0 1 805 0 #
coedge $-1 -1 $-1 $334 $357 $315 $350 reversed $281 0 $-1 #
edge $-1 1708 $-1 $339 0.4200000074500002123 $352 0.5000000074500000613 $349 $367 forward @7 tangent #
coedge $-1 -1 $-1 $330 $316 $357 $368 forward $325 0 $-1 #
vertex $-1 1868 $-1 $368 0 $369 #
ellipse-curve $-1 -1 $-1 -0.6697023656138696435 -0.5633499906875003571 6.650891100257471322 1 -1.232595164407831165e-31 5.551115123125779744e-16 -6.133173666733492855e-17 0.1104854345603980131 0.1104854345603980686 1 I I #
straight-curve $-1 -1 $-1 -0.6697023656138683112 -1.032100000000000017 4.432141100257471322 6.938893903907224433e-16 2.775557561562893323e-16 -1.25 I I #
point $-1 -1 $-1 -0.6697023656138678671 -1.032099999999999795 3.619641100257471766 #
ATTRIB_CUSTOM-attrib $-1 -1 $-1 $-1 $324 @22 generic_tag_attrib_def 3 3 -1 @23 generic_tag_attrib_def  1 0 @0  0 1 805 0 #
coedge $-1 -1 $-1 $349 $327 $351 $368 reversed $281 0 $-1 #
edge $-1 1705 $-1 $360 -0.5000000074500000613 $336 -0.4200000074500002123 $327 $370 forward @7 tangent #
vertex $-1 1861 $-1 $346 1 $371 #
vertex $-1 1866 $-1 $331 1 $372 #
ellipse-curve $-1 -1 $-1 -0.6697023656138679781 -0.563349990687499802 3.775891100257471766 1 -1.232595164407831165e-31 5.551115123125779744e-16 6.133173666733492855e-17 0.1104854345603980686 -0.1104854345603980131 1 I I #
straight-curve $-1 -1 $-1 -0.04470235630136776273 -0.563349990687499691 3.61964110025747221 -1.25 1.540743955509788901e-31 -6.938893903907224433e-16 F -0.6375010074500000457 F 0.8875010074500000457 #
straight-curve $-1 -1 $-1 -0.5697023656138697767 -0.4070999906875004681 6.775891100257471322 -6.938893903907224433e-16 -2.775557561562893323e-16 1.25 F -10000.07500100000107 F 9999.925000999999611 #
point $-1 -1 $-1 -0.5697023656138681114 -0.407099990687499802 3.775891100257471766 #
point $-1 -1 $-1 -0.5697023656138696657 -0.4070999906875004681 6.650891100257471322 #
straight-curve $-1 -1 $-1 -0.6697023656138678671 -0.7195999953437497432 3.619641100257471766 0 1.25 2.775557561562893323e-16 I I #
straight-curve $-1 -1 $-1 -0.04470235630136953908 -0.4070999906875004681 6.65089110025747221 -1.25 1.540743955509788901e-31 -6.938893903907224433e-16 F -0.6375010074500000457 F 0.8875010074500000457 #
edge $-1 1707 $-1 $352 0.07499999999999999722 $360 2.375 $357 $373 forward @7 unknown #
point $-1 -1 $-1 -0.6697023656138696435 -0.4070999906875004681 6.650891100257471322 #
straight-curve $-1 -1 $-1 -0.04470235630136776273 -0.407099990687499802 3.77589110025747221 1.25 -1.540743955509788901e-31 6.938893903907224433e-16 F -0.8875010074500000457 F 0.6375010074500000457 #
point $-1 -1 $-1 -0.6697023656138678671 -0.563349990687499691 3.619641100257471766 #
point $-1 -1 $-1 -0.6697023656138679781 -0.407099990687499802 3.775891100257471766 #
straight-curve $-1 -1 $-1 -0.6697023656138696435 -0.4070999906875004681 6.744641100257471322 6.938893903907224433e-16 2.775557561562893323e-16 -1.25 I I #
End-of-ASM-data 