# WaveFront *.obj file
# Vertices: 84
# Triangles : 164

v 8.7000001862645204e-01 -6.8000000000000016e-01 -4.8500000558793595e+00
v 8.7424430466090308e-01 -6.8000000000000016e-01 -4.7933639947324131e+00
v 8.8688235242771851e-01 -6.8000000000000016e-01 -4.7379930896032159e+00
v 9.0763184882353265e-01 -6.8000000000000016e-01 -4.6851242350146869e+00
v 9.3602928438637401e-01 -6.8000000000000016e-01 -4.6359384338151832e+00
v 9.7144030733111797e-01 -6.8000000000000027e-01 -4.5915344155264100e+00
v 1.0130738939201331e+00 -6.8000000000000027e-01 -4.5529040925415085e+00
v 1.0600000186264520e+00 -6.8000000000000027e-01 -4.5209104024412730e+00
v 1.1111704293672218e+00 -6.8000000000000027e-01 -4.4962680313945622e+00
v 1.1654420637230525e+00 -6.8000000000000027e-01 -4.4795274492502664e+00
v 1.2216025830636108e+00 -6.8000000000000027e-01 -4.4710626129505107e+00
v 1.2783974541892933e+00 -6.8000000000000027e-01 -4.4710626129505107e+00
v 1.3345579735298514e+00 -6.8000000000000027e-01 -4.4795274492502664e+00
v 1.3888296078856821e+00 -6.8000000000000027e-01 -4.4962680313945622e+00
v 1.4400000186264521e+00 -6.8000000000000027e-01 -4.5209104024412730e+00
v 1.4869261433327707e+00 -6.8000000000000027e-01 -4.5529040925415085e+00
v 1.5285597299217861e+00 -6.8000000000000027e-01 -4.5915344155264100e+00
v 1.5639707528665301e+00 -6.8000000000000016e-01 -4.6359384338151832e+00
v 1.5923681884293712e+00 -6.8000000000000016e-01 -4.6851242350146878e+00
v 1.6131176848251854e+00 -6.8000000000000016e-01 -4.7379930896032159e+00
v 1.6257557325920009e+00 -6.8000000000000016e-01 -4.7933639947324131e+00
v 1.6300000186264518e+00 -6.8000000000000016e-01 -4.8500000558793595e+00
v 1.6257557325920007e+00 -6.8000000000000016e-01 -4.9066361170263058e+00
v 1.6131176848251854e+00 -6.8000000000000016e-01 -4.9620070221555030e+00
v 1.5923681884293712e+00 -6.8000000000000016e-01 -5.0148758767440311e+00
v 1.5639707528665299e+00 -6.8000000000000016e-01 -5.0640616779435357e+00
v 1.5285597299217859e+00 -6.8000000000000005e-01 -5.1084656962323090e+00
v 1.4869261433327707e+00 -6.8000000000000005e-01 -5.1470960192172104e+00
v 1.4400000186264517e+00 -6.8000000000000005e-01 -5.1790897093174459e+00
v 1.3888296078856819e+00 -6.8000000000000005e-01 -5.2037320803641567e+00
v 1.3345579735298514e+00 -6.8000000000000005e-01 -5.2204726625084525e+00
v 1.2783974541892928e+00 -6.8000000000000005e-01 -5.2289374988082082e+00
v 1.2216025830636106e+00 -6.8000000000000005e-01 -5.2289374988082082e+00
v 1.1654420637230525e+00 -6.8000000000000005e-01 -5.2204726625084525e+00
v 1.1111704293672218e+00 -6.8000000000000005e-01 -5.2037320803641567e+00
v 1.0600000186264518e+00 -6.8000000000000005e-01 -5.1790897093174459e+00
v 1.0130738939201331e+00 -6.8000000000000005e-01 -5.1470960192172104e+00
v 9.7144030733111775e-01 -6.8000000000000005e-01 -5.1084656962323090e+00
v 9.3602928438637378e-01 -6.8000000000000016e-01 -5.0640616779435357e+00
v 9.0763184882353265e-01 -6.8000000000000016e-01 -5.0148758767440320e+00
v 8.8688235242771840e-01 -6.8000000000000016e-01 -4.9620070221555030e+00
v 8.7424430466090308e-01 -6.8000000000000016e-01 -4.9066361170263058e+00
v 8.7000001862645204e-01 -7.5000000000000000e-01 -4.8500000558793595e+00
v 8.7424430466090308e-01 -7.5000000000000000e-01 -4.7933639947324131e+00
v 8.8688235242771840e-01 -7.5000000000000000e-01 -4.7379930896032159e+00
v 9.0763184882353265e-01 -7.5000000000000000e-01 -4.6851242350146869e+00
v 9.3602928438637378e-01 -7.5000000000000000e-01 -4.6359384338151832e+00
v 9.7144030733111775e-01 -7.5000000000000011e-01 -4.5915344155264100e+00
v 1.0130738939201331e+00 -7.5000000000000011e-01 -4.5529040925415085e+00
v 1.0600000186264518e+00 -7.5000000000000011e-01 -4.5209104024412730e+00
v 1.1111704293672218e+00 -7.5000000000000011e-01 -4.4962680313945622e+00
v 1.1654420637230525e+00 -7.5000000000000011e-01 -4.4795274492502664e+00
v 1.2216025830636106e+00 -7.5000000000000011e-01 -4.4710626129505107e+00
v 1.2783974541892928e+00 -7.5000000000000011e-01 -4.4710626129505107e+00
v 1.3345579735298514e+00 -7.5000000000000011e-01 -4.4795274492502664e+00
v 1.3888296078856819e+00 -7.5000000000000011e-01 -4.4962680313945622e+00
v 1.4400000186264517e+00 -7.5000000000000011e-01 -4.5209104024412730e+00
v 1.4869261433327707e+00 -7.5000000000000011e-01 -4.5529040925415085e+00
v 1.5285597299217859e+00 -7.5000000000000011e-01 -4.5915344155264100e+00
v 1.5639707528665299e+00 -7.5000000000000000e-01 -4.6359384338151832e+00
v 1.5923681884293712e+00 -7.5000000000000000e-01 -4.6851242350146878e+00
v 1.6131176848251854e+00 -7.5000000000000000e-01 -4.7379930896032159e+00
v 1.6257557325920007e+00 -7.5000000000000000e-01 -4.7933639947324131e+00
v 1.6300000186264518e+00 -7.5000000000000000e-01 -4.8500000558793595e+00
v 1.6257557325920009e+00 -7.5000000000000000e-01 -4.9066361170263058e+00
v 1.6131176848251854e+00 -7.5000000000000000e-01 -4.9620070221555030e+00
v 1.5923681884293712e+00 -7.5000000000000000e-01 -5.0148758767440311e+00
v 1.5639707528665301e+00 -7.5000000000000000e-01 -5.0640616779435357e+00
v 1.5285597299217861e+00 -7.4999999999999989e-01 -5.1084656962323090e+00
v 1.4869261433327707e+00 -7.4999999999999989e-01 -5.1470960192172104e+00
v 1.4400000186264521e+00 -7.4999999999999989e-01 -5.1790897093174459e+00
v 1.3888296078856821e+00 -7.4999999999999989e-01 -5.2037320803641567e+00
v 1.3345579735298514e+00 -7.4999999999999989e-01 -5.2204726625084525e+00
v 1.2783974541892933e+00 -7.4999999999999989e-01 -5.2289374988082082e+00
v 1.2216025830636108e+00 -7.4999999999999989e-01 -5.2289374988082082e+00
v 1.1654420637230525e+00 -7.4999999999999989e-01 -5.2204726625084525e+00
v 1.1111704293672218e+00 -7.4999999999999989e-01 -5.2037320803641567e+00
v 1.0600000186264520e+00 -7.4999999999999989e-01 -5.1790897093174459e+00
v 1.0130738939201331e+00 -7.4999999999999989e-01 -5.1470960192172104e+00
v 9.7144030733111797e-01 -7.4999999999999989e-01 -5.1084656962323090e+00
v 9.3602928438637401e-01 -7.5000000000000000e-01 -5.0640616779435357e+00
v 9.0763184882353265e-01 -7.5000000000000000e-01 -5.0148758767440320e+00
v 8.8688235242771851e-01 -7.5000000000000000e-01 -4.9620070221555030e+00
v 8.7424430466090308e-01 -7.5000000000000000e-01 -4.9066361170263058e+00

vn -1.9705759654567779e-46 1.0000000000000000e+00 2.2204460492503160e-16
vn -9.8883082622512852e-01 3.3094031110220109e-17 -1.4904226617617472e-01
vn -9.8883082622512852e-01 3.3094031110220011e-17 -1.4904226617617425e-01
vn -1.0000000000000000e+00 2.7192621468937969e-32 -1.2246467991473670e-16
vn -1.0000000000000000e+00 -2.7192621468937750e-32 1.2246467991473394e-16
vn -9.8883082622512852e-01 -3.3094031110220011e-17 1.4904226617617425e-01
vn -9.8883082622512852e-01 -3.3094031110220109e-17 1.4904226617617472e-01
vn -9.5557280578614079e-01 -6.5448796251678009e-17 2.9475517441090426e-01
vn -9.0096886790241870e-01 -9.6341543435753866e-17 4.3388373911755895e-01
vn -8.2623877431599502e-01 -1.2508217973908281e-16 5.6332005806362195e-01
vn -8.2623877431599524e-01 -1.2508217973908268e-16 5.6332005806362140e-01
vn -7.3305187182982601e-01 -1.5102868683912095e-16 6.8017273777091969e-01
vn -7.3305187182982645e-01 -1.5102868683912091e-16 6.8017273777091936e-01
vn -6.2348980185873426e-01 -1.7360146264256532e-16 7.8183148246802936e-01
vn -5.0000000000000022e-01 -1.9229626863835660e-16 8.6602540378443849e-01
vn -5.0000000000000056e-01 -1.9229626863835655e-16 8.6602540378443826e-01
vn -3.6534102436639554e-01 -2.0669549375278548e-16 9.3087374864420414e-01
vn -2.2252093395631428e-01 -2.1647748309079889e-16 9.7492791218182351e-01
vn -7.4730093586424046e-02 -2.2142372317483646e-16 9.9720379718118013e-01
vn -7.4730093586424476e-02 -2.2142372317483644e-16 9.9720379718118002e-01
vn 7.4730093586424601e-02 -2.2142372317483644e-16 9.9720379718118002e-01
vn 7.4730093586423504e-02 -2.2142372317483646e-16 9.9720379718118013e-01
vn 2.2252093395631420e-01 -2.1647748309079891e-16 9.7492791218182362e-01
vn 3.6534102436639532e-01 -2.0669549375278543e-16 9.3087374864420402e-01
vn 3.6534102436639493e-01 -2.0669549375278548e-16 9.3087374864420414e-01
vn 5.0000000000000033e-01 -1.9229626863835655e-16 8.6602540378443826e-01
vn 4.9999999999999961e-01 -1.9229626863835668e-16 8.6602540378443882e-01
vn 6.2348980185873415e-01 -1.7360146264256534e-16 7.8183148246802936e-01
vn 7.3305187182982645e-01 -1.5102868683912091e-16 6.8017273777091936e-01
vn 7.3305187182982612e-01 -1.5102868683912095e-16 6.8017273777091958e-01
vn 8.2623877431599513e-01 -1.2508217973908271e-16 5.6332005806362162e-01
vn 8.2623877431599491e-01 -1.2508217973908281e-16 5.6332005806362195e-01
vn 9.0096886790241959e-01 -9.6341543435753483e-17 4.3388373911755729e-01
vn 9.5557280578614079e-01 -6.5448796251678009e-17 2.9475517441090426e-01
vn 9.5557280578614079e-01 -6.5448796251678021e-17 2.9475517441090432e-01
vn 9.8883082622512852e-01 -3.3094031110220042e-17 1.4904226617617439e-01
vn 9.8883082622512852e-01 -3.3094031110220066e-17 1.4904226617617450e-01
vn 1.0000000000000000e+00 3.2436714852839605e-33 -1.4608197692436242e-17
vn 1.0000000000000000e+00 -5.8386086735105890e-33 2.6294755846385288e-17
vn 9.8883082622512852e-01 3.3094031110220066e-17 -1.4904226617617450e-01
vn 9.8883082622512852e-01 3.3094031110220042e-17 -1.4904226617617439e-01
vn 9.5557280578614079e-01 6.5448796251678009e-17 -2.9475517441090426e-01
vn 9.0096886790241959e-01 9.6341543435753483e-17 -4.3388373911755729e-01
vn 8.2623877431599491e-01 1.2508217973908281e-16 -5.6332005806362195e-01
vn 8.2623877431599513e-01 1.2508217973908271e-16 -5.6332005806362162e-01
vn 7.3305187182982612e-01 1.5102868683912095e-16 -6.8017273777091958e-01
vn 7.3305187182982645e-01 1.5102868683912091e-16 -6.8017273777091936e-01
vn 6.2348980185873415e-01 1.7360146264256534e-16 -7.8183148246802936e-01
vn 4.9999999999999961e-01 1.9229626863835668e-16 -8.6602540378443882e-01
vn 5.0000000000000033e-01 1.9229626863835655e-16 -8.6602540378443826e-01
vn 3.6534102436639493e-01 2.0669549375278548e-16 -9.3087374864420414e-01
vn 3.6534102436639532e-01 2.0669549375278543e-16 -9.3087374864420402e-01
vn 2.2252093395631420e-01 2.1647748309079891e-16 -9.7492791218182362e-01
vn 7.4730093586423504e-02 2.2142372317483646e-16 -9.9720379718118013e-01
vn 7.4730093586424601e-02 2.2142372317483644e-16 -9.9720379718118002e-01
vn -7.4730093586424476e-02 2.2142372317483644e-16 -9.9720379718118002e-01
vn -7.4730093586424046e-02 2.2142372317483646e-16 -9.9720379718118013e-01
vn -2.2252093395631428e-01 2.1647748309079889e-16 -9.7492791218182351e-01
vn -3.6534102436639554e-01 2.0669549375278548e-16 -9.3087374864420414e-01
vn -5.0000000000000056e-01 1.9229626863835655e-16 -8.6602540378443826e-01
vn -5.0000000000000022e-01 1.9229626863835660e-16 -8.6602540378443849e-01
vn -6.2348980185873426e-01 1.7360146264256532e-16 -7.8183148246802936e-01
vn -7.3305187182982645e-01 1.5102868683912091e-16 -6.8017273777091936e-01
vn -7.3305187182982601e-01 1.5102868683912095e-16 -6.8017273777091969e-01
vn -8.2623877431599524e-01 1.2508217973908268e-16 -5.6332005806362140e-01
vn -8.2623877431599502e-01 1.2508217973908281e-16 -5.6332005806362195e-01
vn -9.0096886790241870e-01 9.6341543435753866e-17 -4.3388373911755895e-01
vn -9.5557280578614079e-01 6.5448796251678009e-17 -2.9475517441090426e-01
vn 1.9705759654567779e-46 -1.0000000000000000e+00 -2.2204460492503160e-16

g face 0
f 2//1 21//1 1//1
f 1//1 21//1 22//1
f 1//1 22//1 42//1
f 42//1 22//1 23//1
f 42//1 23//1 41//1
f 41//1 23//1 24//1
f 41//1 24//1 40//1
f 40//1 24//1 25//1
f 40//1 25//1 39//1
f 39//1 25//1 26//1
f 39//1 26//1 38//1
f 38//1 26//1 27//1
f 38//1 27//1 37//1
f 37//1 27//1 28//1
f 37//1 28//1 36//1
f 36//1 28//1 29//1
f 36//1 29//1 35//1
f 35//1 29//1 30//1
f 35//1 30//1 34//1
f 34//1 30//1 31//1
f 34//1 31//1 33//1
f 33//1 31//1 32//1
f 21//1 2//1 20//1
f 20//1 2//1 3//1
f 20//1 3//1 19//1
f 19//1 3//1 4//1
f 19//1 4//1 18//1
f 18//1 4//1 5//1
f 18//1 5//1 17//1
f 17//1 5//1 6//1
f 17//1 6//1 16//1
f 16//1 6//1 7//1
f 16//1 7//1 15//1
f 15//1 7//1 8//1
f 15//1 8//1 14//1
f 14//1 8//1 9//1
f 14//1 9//1 13//1
f 13//1 9//1 10//1
f 13//1 10//1 12//1
f 12//1 10//1 11//1

g face 1
f 42//2 84//3 1//4
f 1//4 84//3 43//4
f 1//5 43//5 2//6
f 2//6 43//5 44//7
f 2//6 44//7 3//8
f 3//8 44//7 45//8
f 3//8 45//8 4//9
f 4//9 45//8 46//9
f 4//9 46//9 5//10
f 5//10 46//9 47//11
f 5//10 47//11 6//12
f 6//12 47//11 48//13
f 6//12 48//13 7//14
f 7//14 48//13 49//14
f 7//14 49//14 8//15
f 8//15 49//14 50//16
f 8//15 50//16 9//17
f 9//17 50//16 51//17
f 9//17 51//17 10//18
f 10//18 51//17 52//18
f 10//18 52//18 11//19
f 11//19 52//18 53//20
f 11//19 53//20 12//21
f 12//21 53//20 54//22
f 12//21 54//22 13//23
f 13//23 54//22 55//23
f 13//23 55//23 14//24
f 14//24 55//23 56//25
f 14//24 56//25 15//26
f 15//26 56//25 57//27
f 15//26 57//27 16//28
f 16//28 57//27 58//28
f 16//28 58//28 17//29
f 17//29 58//28 59//30
f 17//29 59//30 18//31
f 18//31 59//30 60//32
f 18//31 60//32 19//33
f 19//33 60//32 61//33
f 19//33 61//33 20//34
f 20//34 61//33 62//35
f 20//34 62//35 21//36
f 21//36 62//35 63//37
f 21//36 63//37 22//38
f 22//38 63//37 64//39
f 22//38 64//39 23//40
f 23//40 64//39 65//41
f 23//40 65//41 24//42
f 24//42 65//41 66//42
f 24//42 66//42 25//43
f 25//43 66//42 67//43
f 25//43 67//43 26//44
f 26//44 67//43 68//45
f 26//44 68//45 27//46
f 27//46 68//45 69//47
f 27//46 69//47 28//48
f 28//48 69//47 70//48
f 28//48 70//48 29//49
f 29//49 70//48 71//50
f 29//49 71//50 30//51
f 30//51 71//50 72//52
f 30//51 72//52 31//53
f 31//53 72//52 73//53
f 31//53 73//53 32//54
f 32//54 73//53 74//55
f 32//54 74//55 33//56
f 33//56 74//55 75//57
f 33//56 75//57 34//58
f 34//58 75//57 76//58
f 34//58 76//58 35//59
f 35//59 76//58 77//59
f 35//59 77//59 36//60
f 36//60 77//59 78//61
f 36//60 78//61 37//62
f 37//62 78//61 79//62
f 37//62 79//62 38//63
f 38//63 79//62 80//64
f 38//63 80//64 39//65
f 39//65 80//64 81//66
f 39//65 81//66 40//67
f 40//67 81//66 82//67
f 40//67 82//67 41//68
f 41//68 82//67 83//68
f 41//68 83//68 42//2
f 42//2 83//68 84//3

g face 2
f 84//69 65//69 43//69
f 43//69 65//69 64//69
f 43//69 64//69 44//69
f 44//69 64//69 63//69
f 44//69 63//69 45//69
f 45//69 63//69 62//69
f 45//69 62//69 46//69
f 46//69 62//69 61//69
f 46//69 61//69 47//69
f 47//69 61//69 60//69
f 47//69 60//69 48//69
f 48//69 60//69 59//69
f 48//69 59//69 49//69
f 49//69 59//69 58//69
f 49//69 58//69 50//69
f 50//69 58//69 57//69
f 50//69 57//69 51//69
f 51//69 57//69 56//69
f 51//69 56//69 52//69
f 52//69 56//69 55//69
f 52//69 55//69 53//69
f 53//69 55//69 54//69
f 65//69 84//69 66//69
f 66//69 84//69 83//69
f 66//69 83//69 67//69
f 67//69 83//69 82//69
f 67//69 82//69 68//69
f 68//69 82//69 81//69
f 68//69 81//69 69//69
f 69//69 81//69 80//69
f 69//69 80//69 70//69
f 70//69 80//69 79//69
f 70//69 79//69 71//69
f 71//69 79//69 78//69
f 71//69 78//69 72//69
f 72//69 78//69 77//69
f 72//69 77//69 73//69
f 73//69 77//69 76//69
f 73//69 76//69 74//69
f 74//69 76//69 75//69

g halfedge 0 edge 0
l 1 42 41 40 39 38 37 36 35 34 33 32 31 30 29 28 27 26 25 24 23 22 21 20 19 18 17 16 15 14 13 12 11 10 9 8 7 6 5 4 3 2 1

g halfedge 1 edge 0
l 1 2 3 4 5 6 7 8 9 10 11 12 13 14 15 16 17 18 19 20 21 22 23 24 25 26 27 28 29 30 31 32 33 34 35 36 37 38 39 40 41 42 1

g halfedge 2 edge 1
l 43 84 83 82 81 80 79 78 77 76 75 74 73 72 71 70 69 68 67 66 65 64 63 62 61 60 59 58 57 56 55 54 53 52 51 50 49 48 47 46 45 44 43

g halfedge 3 edge 1
l 43 44 45 46 47 48 49 50 51 52 53 54 55 56 57 58 59 60 61 62 63 64 65 66 67 68 69 70 71 72 73 74 75 76 77 78 79 80 81 82 83 84 43

g vertex 0
p 1

g vertex 1
p 43

# End of file
