22700 0 2 4           
16 Autodesk Neutron 20 ASM 227.1.1.65535 NT 24 Wed Aug 25 06:16:42 2021 
10 9.999999999999999547e-07 1.000000000000000036e-10 
asmheader $-1 -1 @13 227.1.1.65535 #
body $2 1160 $-1 $3 $-1 $-1 #
ATTRIB_CUSTOM-attrib $-1 -1 $4 $-1 $1 @20 Timestamp_attrib_def 1 1448291889001 #
lump $-1 -1 $-1 $-1 $5 $1 #
ATTRIB_CUSTOM-attrib $6 -1 $-1 $2 $1 @22 generic_tag_attrib_def 3 3 -1 @23 generic_tag_attrib_def  1 3 @3 777 1 0 0 #
shell $-1 -1 $-1 $-1 $-1 $7 $-1 $3 #
ATTRIB_CUSTOM-attrib $-1 -1 $-1 $-1 $4 @22 generic_tag_attrib_def 3 3 -1 @23 generic_tag_attrib_def  1 0 @0  0 1 780 0 #
face $8 901 $-1 $9 $10 $5 $-1 $11 reversed single #
ATTRIB_CUSTOM-attrib $-1 -1 $12 $-1 $7 @22 FDM_feature_attrib_def 2 2 @12 feature_data 3 510 2097152 2 1902 #
face $13 902 $-1 $14 $15 $5 $-1 $16 reversed single #
loop $-1 -1 $-1 $-1 $17 $7 #
plane-surface $-1 -1 $-1 1.250000018626451048 -0.2248087499999984473 -4.850000055879363003 -4.930380657631330352e-32 1 3.445092848397672451e-16 -5.423418723394443463e-32 -1.894801066618719996e-16 0.5500000000000000444 forward_v I I I I #
ATTRIB_CUSTOM-attrib $18 -1 $-1 $8 $7 @22 generic_tag_attrib_def 3 3 -1 @23 generic_tag_attrib_def  1 3 @3 102 0 4 510 651 -654 777 0 #
ATTRIB_CUSTOM-attrib $-1 -1 $19 $-1 $9 @22 FDM_feature_attrib_def 2 2 @12 feature_data 3 510 2097152 2 1902 #
face $20 903 $-1 $21 $22 $5 $-1 $23 reversed single #
loop $-1 -1 $-1 $-1 $24 $9 #
cone-surface $-1 -1 $-1 1.250000018626451048 -0.9530372695126504423 -4.850000055879363003 -4.930380657631329258e-32 1 2.220446049250318997e-16 0.06975649999999999906 6.98756314151487502e-30 -2.027267242965536095e-14 1 I I 1.224646799147353207e-16 -1 0.06975649999999999906 forward I I I I #
coedge $-1 -1 $-1 $25 $26 $27 $28 reversed $10 0 $-1 #
ATTRIB_CUSTOM-attrib $-1 -1 $-1 $-1 $12 @22 generic_tag_attrib_def 3 3 -1 @23 generic_tag_attrib_def  1 0 @0  0 6 512 653 655 764 765 780 0 #
ATTRIB_CUSTOM-attrib $29 -1 $-1 $13 $9 @22 generic_tag_attrib_def 3 3 -1 @23 generic_tag_attrib_def  1 1 @1 4 0 4 510 651 -654 777 0 #
ATTRIB_CUSTOM-attrib $-1 -1 $30 $-1 $14 @22 FDM_feature_attrib_def 2 2 @12 feature_data 3 510 2097152 2 1902 #
face $31 904 $-1 $32 $33 $5 $-1 $34 reversed single #
loop $-1 -1 $-1 $-1 $35 $14 #
spline-surface $-1 -1 $-1 forward { helix_spl_line 22140 F 0 F 0.02320370731873103512 
	F 0 F 251.3274122871834493 
	F 0 F 251.3274122871834493 
	1.250000018626451048 -0.9466562499999994218 -4.850000055879363003 
	0.08080874999999998476 6.988108059511108367e-30 -2.027267242965536095e-14 
	2.027267242965536095e-14 -1.794314696823566347e-17 0.08080874999999998476 
	-9.490982765940308424e-34 0.01924999999999999975 4.27435864480686341e-18 
	0 
	-4.930380657631329258e-32 1 2.220446049250318997e-16 
	null_surface 
	null_surface 
	nullbs 
	nullbs 
	
	-5.89433659203293292 -1.479142205607577485e-12 -0.2750000000000003553 
	} F 0 F 0.02320370731873103512 F 7.068583470577285865 F 237.6932329387551874 #
coedge $-1 -1 $-1 $36 $37 $38 $39 reversed $15 0 $-1 #
coedge $-1 -1 $-1 $38 $17 $40 $41 forward $10 0 $-1 #
coedge $-1 -1 $-1 $17 $38 $35 $42 forward $10 0 $-1 #
coedge $-1 -1 $-1 $43 $43 $17 $28 forward $44 0 $-1 #
edge $-1 909 $-1 $45 -8.630403818361649826 $46 -3.13261667457956916 $27 $47 reversed @7 unknown #
ATTRIB_CUSTOM-attrib $-1 -1 $-1 $-1 $19 @22 generic_tag_attrib_def 3 3 -1 @23 generic_tag_attrib_def  1 0 @0  0 6 512 653 655 764 765 780 0 #
ATTRIB_CUSTOM-attrib $48 -1 $-1 $20 $14 @22 generic_tag_attrib_def 3 3 -1 @23 generic_tag_attrib_def  1 1 @1 3 0 4 510 651 -654 777 0 #
ATTRIB_CUSTOM-attrib $-1 -1 $49 $-1 $21 @22 FDM_feature_attrib_def 2 2 @12 feature_data 3 510 2097152 2 1902 #
face $50 905 $-1 $51 $52 $5 $-1 $53 forward single #
loop $-1 -1 $-1 $-1 $40 $21 #
spline-surface $-1 -1 $-1 forward { helix_spl_line 22140 F 0 F 0.02320370731873103512 
	F 0 F 251.3274122871834493 
	F 0 F 251.3274122871834493 
	1.250000018626451048 -0.9571189804873484475 -4.850000055879363003 
	0.06975649999999999906 6.98756314151487502e-30 -2.027267242965536095e-14 
	2.027267242965536095e-14 -1.548905448345298629e-17 0.06975649999999999906 
	-9.490982765940308424e-34 0.01924999999999999975 4.27435864480686341e-18 
	0 
	-4.930380657631329258e-32 1 2.220446049250318997e-16 
	null_surface 
	null_surface 
	nullbs 
	nullbs 
	
	6.828237828466754422 1.983943445862552939e-12 -0.2750000000000003553 
	} F 0 F 0.02320370731873103512 F 10.48361071582876036 F 241.1082601840066673 #
coedge $-1 -1 $-1 $54 $55 $26 $42 reversed $22 0 $56 #
coedge $-1 -1 $-1 $57 $24 $58 $59 reversed $15 0 $-1 #
coedge $-1 -1 $-1 $24 $57 $54 $60 forward $15 0 $-1 #
coedge $-1 -1 $-1 $26 $25 $24 $39 forward $10 0 $-1 #
edge $-1 911 $-1 $61 -0.2644586126517144975 $62 1.06780873406908694 $24 $63 forward @7 unknown #
coedge $-1 -1 $-1 $64 $58 $25 $41 reversed $33 0 $65 #
edge $-1 910 $-1 $45 -0.286118219339725921 $61 -0 $40 $66 forward @7 unknown #
edge $-1 912 $-1 $62 -0.2870038872450880185 $46 -0 $35 $67 forward @7 unknown #
coedge $-1 -1 $-1 $27 $27 $68 $69 forward $44 0 $-1 #
loop $-1 -1 $-1 $70 $27 $71 #
vertex $-1 1184 $-1 $28 0 $72 #
vertex $-1 1183 $-1 $69 0 $73 #
ellipse-curve $-1 -1 $-1 1.250000018626451048 -0.2248087499999984473 -4.850000055879363003 4.930380657631329258e-32 -1 -2.220446049250318997e-16 0.08080875000000001251 3.984178979673655028e-33 7.968357959347289529e-33 1 I I #
ATTRIB_CUSTOM-attrib $-1 -1 $-1 $-1 $30 @22 generic_tag_attrib_def 3 3 -1 @23 generic_tag_attrib_def  1 0 @0  0 6 512 653 655 764 765 780 0 #
ATTRIB_CUSTOM-attrib $74 -1 $-1 $31 $21 @22 generic_tag_attrib_def 3 3 -1 @23 generic_tag_attrib_def  1 1 @1 1 0 4 510 651 -654 777 0 #
ATTRIB_CUSTOM-attrib $75 -1 $-1 $-1 $32 @22 generic_tag_attrib_def 3 3 -1 @23 generic_tag_attrib_def  2 1 @1 3 0 11 324 326 334 -338 401 -502 -504 -510 651 -654 777 0 1 @1 5 0 10 331 334 -338 401 -502 -504 -510 651 -654 777 0 #
face $76 906 $-1 $71 $77 $5 $-1 $78 forward single #
loop $-1 -1 $-1 $-1 $79 $32 #
cone-surface $-1 -1 $-1 1.250000018626451048 -1.021249999999998881 -4.850000055879363003 -4.930380657631329258e-32 1 2.220446049250318997e-16 0.08080875000000001251 3.984178979673655028e-33 7.968357959347289529e-33 1 I I 0 1 0.08250000000000001776 forward I I I I #
coedge $-1 -1 $-1 $80 $35 $37 $60 reversed $22 0 $81 #
coedge $-1 -1 $-1 $35 $80 $79 $82 reversed $22 0 $83 #
pcurve $-1 -1 $-1 -2 $67 0 0 #
coedge $-1 -1 $-1 $37 $36 $84 $85 reversed $15 0 $-1 #
coedge $-1 -1 $-1 $40 $86 $36 $59 forward $33 0 $87 #
edge $-1 913 $-1 $88 10.48361071582876036 $61 239.0255002854760278 $58 $89 forward @7 unknown #
edge $-1 915 $-1 $90 9.151343369107953762 $62 237.693232938755159 $54 $91 forward @7 unknown #
vertex $-1 1185 $-1 $41 1 $92 #
vertex $-1 1186 $-1 $42 0 $93 #
ellipse-curve $-1 -1 $-1 1.250000018626451048 -0.2248087499999984473 -4.850000055879363003 -4.930380657631330352e-32 1 3.445092848397672451e-16 0.0697564999999999158 6.987563141514865211e-30 -2.027267242965533255e-14 1 I I #
coedge $-1 -1 $-1 $86 $40 $94 $95 reversed $33 0 $96 #
pcurve $-1 -1 $-1 -2 $66 0 0 #
intcurve-curve $-1 -1 $-1 forward { int_int_cur 22140 full nubs 3 open 7 
	-0.286118219339725921 3 -0.2472443355281561395 2 -0.2090471269624770978 2 -0.154638925320051468 2 -0.1016612343266865282 2 
	-0.05011470609132801651 2 -0 3 
	1.193374789636479472 -0.2248087499999985583 -4.792349058330353628 
	1.198790485579098508 -0.2248087499999985583 -4.78768611706749958 
	1.204801871721858486 -0.2248087499999990024 -4.783763970991641301 
	1.217600268155845988 -0.2248087499999990024 -4.777691172556751908 
	1.22431505425595244 -0.2248087499999990024 -4.775538117137655192 
	1.241072810993246289 -0.2248087499999990024 -4.7725720061477519 
	1.251160767988090061 -0.2248087499999985583 -4.772743901464000515 
	1.27043326954884872 -0.2248087499999985583 -4.77693606485899025 
	1.279452243920895516 -0.2248087499999985583 -4.780816781030431173 
	1.295248832145778906 -0.2248087499999985583 -4.791706304877486389 
	1.301930520215686116 -0.2248087499999990024 -4.798526122382407166 
	1.312117910605819837 -0.2248087499999988914 -4.814147281985233562 
	1.315609438888497351 -0.2248087499999984473 -4.822741738535205158 
	1.317331374876296035 -0.2248087499999984473 -4.831766631686237545 
	1.561902470142733724e-07 
	
	plane 1.250000018626451048 -0.2248087499999984473 -4.850000055879363003 4.930380657631330352e-32 -1 -3.445092848397672451e-16 -5.423418723394443463e-32 -1.894801066618719996e-16 0.5500000000000000444 reverse_v I I I I 
	spline forward { ref 1 } F 0 F 0.02320370731873103512 F 10.48361071582876036 F 251.3274122871834493 
	nullbs 
	nubs 3 open 7 
	-0.286118219339725921 3 -0.2472443355281561395 3 -0.2090471269624770978 3 -0.154638925320051468 3 -0.1016612343266865282 3 
	-0.05011470609132801651 3 -0 3 
	0.02320370731873103512 241.1082601840066673 
	0.02222055645989929815 241.0200127692787646 
	0.0212334650851374665 240.9314116546679543 
	0.02023305082966166124 240.8416146810808414 
	0.01925005072209035051 240.7533807977544313 
	0.01826296542655217112 240.6647802288136404 
	0.01726239434059228736 240.574969178155186 
	0.01583717832490152619 240.44704208773598 
	0.01440773123270549551 240.3187352167777817 
	0.01294493373894731701 240.1874348207754792 
	0.01152059639143680758 240.0595865994276892 
	0.01009156505303432198 239.9313170464427003 
	0.008628645668822779169 239.8000057095788975 
	0.007205246235394132358 239.6722416752022298 
	0.005776665905701210482 239.5440126046643456 
	0.004313630429990886368 239.4126908474519837 
	0.002891234094555140098 239.2850168509406217 
	0.001463144108042928977 239.1568317935036987 
	0 239.0255002854759709 
	
	I I 
	0 
	0 
	0 
	
	0 } I I #
intcurve-curve $-1 -1 $-1 forward { int_int_cur 22140 full nubs 3 open 7 
	-0.2870038872450880185 3 -0.2526692765727107104 2 -0.21765745412654669 2 -0.1653949915863242026 2 -0.1116975156765300237 2 
	-0.05656564670565981251 2 -0 3 
	1.283625808413375591 -0.2248087499999988914 -4.911116956598030825 
	1.278371047112426773 -0.2248087499999988914 -4.914551557740274745 
	1.272675600502414461 -0.2248087499999988914 -4.917259192910492516 
	1.260603245487716073 -0.2248087499999988914 -4.921143119335141591 
	1.254270838491849727 -0.2248087499999984473 -4.922270464965013304 
	1.238322539330248606 -0.2248087499999984473 -4.922967377461006322 
	1.228784348520910896 -0.2248087499999984473 -4.921490282145107642 
	1.210539382734141967 -0.2248087499999984473 -4.91491699874459087 
	1.202044098728721977 -0.2248087499999984473 -4.909789483025447154 
	1.18726324778636716 -0.2248087499999984473 -4.896420846927270532 
	1.181189093142504865 -0.2248087499999988914 -4.888234523203216497 
	1.172359530614856649 -0.2248087499999988914 -4.86977052240197672 
	1.169781150320369445 -0.2248087499999984473 -4.859628491232420799 
	1.169194523912328254 -0.2248087499999984473 -4.849274727975338095 
	1.554816268979816701e-07 
	
	plane 1.250000018626451048 -0.2248087499999984473 -4.850000055879363003 4.930380657631330352e-32 -1 -3.445092848397672451e-16 -5.423418723394443463e-32 -1.894801066618719996e-16 0.5500000000000000444 reverse_v I I I I 
	spline forward { ref 0 } F 0 F 0.02320370731873103512 F 7.068583470577285865 F 251.3274122871834493 
	nullbs 
	nubs 3 open 7 
	-0.2870038872450880185 3 -0.2526692765727107104 3 -0.21765745412654669 3 -0.1653949915863242026 3 -0.1116975156765300237 3 
	-0.05656564670565981251 3 -0 3 
	0.02320370731873103512 237.693232938755159 
	0.02220398774556911481 237.6034983197067163 
	0.02121876873915495149 237.5150652684859267 
	0.02023857615809964913 237.4270833881503222 
	0.01923905037525554251 237.3373661636801444 
	0.01825382318196401218 237.2489323776069625 
	0.01727344499746826662 237.1609338375454854 
	0.01581002565615163488 237.0295776246368575 
	0.01438086894286580431 236.9012968180286407 
	0.01295670608181925983 236.7734642585492395 
	0.01149343881109289242 236.6421216954648798 
	0.01006387607660717658 236.5138044444789784 
	0.00863882925420845528 236.3858925408141545 
	0.007175715888846133025 236.2545637922429762 
	0.005745777852789926872 236.1262128542668961 
	0.004319901182728613613 235.9982264636500418 
	0.002856942689390639528 235.8669116163592605 
	0.001426657058273871634 235.7385294783235281 
	0 235.6104730402245195 
	
	I I 
	0 
	0 
	0 
	
	0 } I I #
coedge $-1 -1 $-1 $79 $94 $43 $69 reversed $52 0 $-1 #
edge $-1 921 $-1 $46 -3.13261667457956916 $45 -2.347218511182063594 $68 $47 reversed @7 unknown #
loop $-1 -1 $-1 $-1 $97 $71 #
face $98 907 $-1 $99 $44 $5 $-1 $100 forward single #
point $-1 -1 $-1 1.193374789636483468 -0.2248087499999985583 -4.792349058330350076 #
point $-1 -1 $-1 1.169194523912328254 -0.2248087499999984473 -4.849274727975338095 #
ATTRIB_CUSTOM-attrib $-1 -1 $-1 $-1 $49 @22 generic_tag_attrib_def 3 3 -1 @23 generic_tag_attrib_def  1 0 @0  0 6 512 653 655 764 765 780 0 #
ATTRIB_CUSTOM-attrib $-1 -1 $-1 $-1 $50 @22 generic_tag_attrib_def 3 3 -1 @23 generic_tag_attrib_def  1 0 @0  0 13 325 328 333 336 342 500 508 512 653 655 764 765 780 0 #
ATTRIB_CUSTOM-attrib $101 -1 $-1 $-1 $51 @22 generic_tag_attrib_def 3 3 -1 @23 generic_tag_attrib_def  1 1 @1 2 0 9 324 326 334 -337 401 -501 651 -654 777 0 #
loop $-1 -1 $-1 $-1 $102 $51 #
plane-surface $-1 -1 $-1 1.250000018626451048 -0.9249999999999987121 -4.850000055879363003 4.930380657631329258e-32 -1 -2.220446049250318997e-16 -0.5500000000000000444 -2.711709361697229395e-32 -5.423418723394443463e-32 forward_v I I I I #
coedge $-1 -1 $-1 $103 $68 $55 $82 forward $52 0 $-1 #
coedge $-1 -1 $-1 $55 $54 $102 $104 reversed $22 0 $105 #
pcurve $-1 -1 $-1 0 reversed { exp_par_cur nubs 1 open 2 
	9.151343369107953762 1 237.693232938755159 1 
	0.02320370731873102471 9.151343369107951986 
	0.02320370731873100736 237.6932329387551306 
	0 
	spline forward { ref 0 } I I I I 
	} 0 0 #
edge $-1 917 $-1 $46 -228.5418895696472248 $106 -0 $79 $107 forward @7 unknown #
pcurve $-1 -1 $-1 0 forward { exp_par_cur nubs 1 open 2 
	0 1 228.5418895696472248 1 
	0 7.068583470577285865 
	0 235.6104730402245195 
	5.969140829698314789e-15 
	spline reversed { ref 0 } F 0 F 0.02320370731873103512 F 7.068583470577285865 F 237.6932329387551874 
	} 0 0 #
coedge $-1 -1 $-1 $108 $102 $57 $85 forward $77 0 $-1 #
edge $-1 914 $-1 $90 2.868158061928405722 $88 4.200425408649172354 $84 $109 forward @7 unknown #
coedge $-1 -1 $-1 $58 $64 $108 $110 reversed $33 0 $111 #
pcurve $-1 -1 $-1 0 reversed { exp_par_cur nubs 1 open 2 
	-239.0255002854760278 1 -10.48361071582876036 1 
	0 239.0255002854759994 
	-1.625929050093516402e-16 10.48361071582878701 
	0 
	spline forward { ref 1 } I I I I 
	} 0 0 #
vertex $-1 1187 $-1 $85 1 $112 #
intcurve-curve $-1 -1 $-1 forward { helix_int_cur 22140 F 10.48361071582876036 F 239.0255002854760278 
	1.250000018626451048 -0.9571189804873484475 -4.850000055879363003 
	0.06975649999999999906 6.98756314151487502e-30 -2.027267242965536095e-14 
	2.027267242965536095e-14 -1.548905448345298629e-17 0.06975649999999999906 
	-9.490982765940308424e-34 0.01924999999999999975 4.27435864480686341e-18 
	0 
	-4.930380657631329258e-32 1 2.220446049250318997e-16 
	null_surface 
	null_surface 
	nullbs 
	nullbs 
	} I I #
vertex $-1 1188 $-1 $85 0 $113 #
intcurve-curve $-1 -1 $-1 forward { helix_int_cur 22140 F 9.151343369107953762 F 237.693232938755159 
	1.250000018626451048 -0.9530372695126504423 -4.850000055879363003 
	0.06975649999999999906 6.032341297858049754e-30 -1.749996967332441636e-14 
	1.749996967332441636e-14 -1.548905448345298937e-17 0.06975649999999999906 
	-9.490982765940308424e-34 0.01924999999999999975 4.27435864480686341e-18 
	0 
	-4.930380657631329258e-32 1 2.220446049250318997e-16 
	null_surface 
	null_surface 
	nullbs 
	nullbs 
	} I I #
point $-1 -1 $-1 1.317331374876295591 -0.2248087499999984473 -4.831766631686235769 #
point $-1 -1 $-1 1.283625808413378255 -0.2248087499999984473 -4.911116956598029049 #
coedge $-1 -1 $-1 $68 $103 $64 $95 forward $52 0 $-1 #
edge $-1 918 $-1 $114 2.082759898530675891 $45 230.6246494681779211 $94 $115 forward @7 unknown #
pcurve $-1 -1 $-1 0 forward { exp_par_cur nubs 1 open 2 
	-230.6246494681779495 1 -2.082759898530675891 1 
	0.02320370731873077144 241.1082601840066673 
	0.02320370731873078879 12.56637061435939273 
	2.504046651792373175e-15 
	spline reversed { ref 1 } F 0 F 0.02320370731873103512 F 10.48361071582876036 F 241.1082601840066673 
	} 0 0 #
coedge $-1 -1 $-1 $97 $97 $116 $117 forward $70 0 $-1 #
ATTRIB_CUSTOM-attrib $118 -1 $-1 $-1 $71 @22 generic_tag_attrib_def 3 3 -1 @23 generic_tag_attrib_def  1 1 @1 1 0 4 509 651 -654 777 0 #
face $119 908 $-1 $-1 $120 $5 $-1 $121 forward single #
cone-surface $-1 -1 $-1 1.250000018626451048 -0.2182499999999985008 -4.850000055879363003 -4.930380657631330352e-32 1 3.445092848397672451e-16 0.07425000000000001044 3.660807638291260477e-33 7.321615276582500427e-33 1 I I -0.7071067811865475727 0.7071067811865475727 0.07425000000000001044 forward I I I I #
ATTRIB_CUSTOM-attrib $-1 -1 $-1 $-1 $76 @22 generic_tag_attrib_def 3 3 -1 @23 generic_tag_attrib_def  1 0 @0  0 13 325 328 333 336 342 500 508 512 653 655 764 765 780 0 #
coedge $-1 -1 $-1 $84 $122 $80 $104 forward $77 0 $-1 #
coedge $-1 -1 $-1 $94 $79 $122 $123 reversed $52 0 $-1 #
edge $-1 916 $-1 $106 0 $90 0.2870038872450709211 $102 $124 forward @7 unknown #
pcurve $-1 -1 $-1 -1 $124 0 0 #
vertex $-1 1189 $-1 $82 1 $125 #
intcurve-curve $-1 -1 $-1 forward { helix_int_cur 22140 F -228.5418895696472248 F -0 
	1.250000018626451048 -0.9249999999999986011 -4.850000055879363003 
	0.05714041510420848208 -1.205262024870029912e-17 0.05714041510420835718 
	0.05714041510420835718 1.26877208970662995e-17 -0.05714041510420848208 
	9.490982765940308424e-34 -0.01924999999999999975 -4.27435864480686341e-18 
	-0 
	4.930380657631329258e-32 -1 -2.220446049250318997e-16 
	null_surface 
	null_surface 
	nullbs 
	nullbs 
	} I I #
coedge $-1 -1 $-1 $122 $84 $86 $110 forward $77 0 $-1 #
ellipse-curve $-1 -1 $-1 1.250000018626451048 -0.9249999999999987121 -4.850000055879363003 4.930380657631329258e-32 -1 -2.220446049250318997e-16 0.06975649999999999906 6.98756314151487502e-30 -2.027267242965536095e-14 1 I I #
edge $-1 919 $-1 $88 0 $114 0.2861182193397446838 $108 $126 forward @7 unknown #
pcurve $-1 -1 $-1 -1 $126 0 0 #
point $-1 -1 $-1 1.215827006763444018 -0.9249999999999987121 -4.910812674244803944 #
point $-1 -1 $-1 1.182835035376638366 -0.9249999999999987121 -4.831163009473346648 #
vertex $-1 1190 $-1 $123 0 $127 #
intcurve-curve $-1 -1 $-1 forward { helix_int_cur 22140 F 2.082759898530675891 F 230.6246494681779495 
	1.250000018626451048 -0.9313810195126497327 -4.850000055879363003 
	-0.03958739862786637975 1.663713648797090094e-17 -0.07044779589483894655 
	0.07044779589483894655 8.790168288334344527e-18 -0.03958739862786637975 
	-9.490982765940308424e-34 0.01924999999999999975 4.27435864480686341e-18 
	0 
	-4.930380657631329258e-32 1 2.220446049250318997e-16 
	null_surface 
	null_surface 
	nullbs 
	nullbs 
	} I I #
coedge $-1 -1 $-1 $116 $116 $97 $117 reversed $120 0 $-1 #
edge $-1 922 $-1 $128 -3.141592653589793116 $128 3.141592653589793116 $116 $129 forward @7 unknown #
ATTRIB_CUSTOM-attrib $-1 -1 $-1 $-1 $98 @22 generic_tag_attrib_def 3 3 -1 @23 generic_tag_attrib_def  1 0 @0  0 6 512 653 655 764 765 780 0 #
ATTRIB_CUSTOM-attrib $130 -1 $-1 $-1 $99 @22 generic_tag_attrib_def 3 3 -1 @23 generic_tag_attrib_def  1 1 @1 2 0 7 331 334 401 -503 651 -654 777 0 #
loop $-1 -1 $-1 $-1 $116 $99 #
plane-surface $-1 -1 $-1 1.250000018626451048 -0.2099999999999986322 -4.850000055879363003 -4.930380657631329258e-32 1 2.220446049250318997e-16 0.5500000000000000444 2.711709361697229395e-32 5.423418723394443463e-32 forward_v I I I I #
coedge $-1 -1 $-1 $102 $108 $103 $123 forward $77 0 $-1 #
edge $-1 920 $-1 $114 -3.929324300187724809e-14 $106 0.7853981633974514986 $122 $131 reversed @7 unknown #
intcurve-curve $-1 -1 $-1 forward { int_int_cur 22140 full nubs 3 open 7 
	0 3 0.05656564670565941699 2 0.1116975156765237093 2 0.165394991586316209 2 0.2176574541265379747 2 
	0.2526692765727032164 2 0.2870038872450709211 3 
	1.307140433730659357 -0.9249999999999987121 -4.792859640775153807 
	1.299342730699193371 -0.9249999999999987121 -4.786022947747133216 
	1.290300398170888929 -0.9249999999999987121 -4.780755589430594199 
	1.270940563190807282 -0.9249999999999987121 -4.774116516486129669 
	1.260843882737514132 -0.9249999999999987121 -4.772713557264820494 
	1.240948954574325747 -0.9249999999999987121 -4.773890765439766426 
	1.231337943411566993 -0.9249999999999987121 -4.776358503718460824 
	1.21386357694998992 -0.9249999999999987121 -4.784768815721610835 
	1.206126070093798131 -0.9249999999999987121 -4.790538554202509403 
	1.195447790929377696 -0.9249999999999987121 -4.802404820981141853 
	1.191814751239318682 -0.9249999999999987121 -4.807712486111965333 
	1.186126163872635697 -0.9249999999999987121 -4.819046797464869414 
	1.18406688068943633 -0.9249999999999987121 -4.825007397524755604 
	1.18283503537663881 -0.9249999999999987121 -4.831163009473344871 
	1.554816267823539966e-07 
	
	spline forward { ref 0 } F 0 F 0.02320370731873103512 F 7.068583470577285865 F 237.6932329387551874 
	plane 1.250000018626451048 -0.9249999999999987121 -4.850000055879363003 4.930380657631329258e-32 -1 -2.220446049250318997e-16 -0.5500000000000000444 -2.711709361697229395e-32 -5.423418723394443463e-32 forward_v I I I I 
	nubs 3 open 7 
	0 3 0.05656564670565941699 3 0.1116975156765237093 3 0.165394991586316209 3 0.2176574541265379747 3 
	0.2526692765727032164 3 0.2870038872450709211 3 
	0 7.068583470577285865 
	0.001426657058273865563 7.196639908676291775 
	0.002856942689390499883 7.325022046712036605 
	0.004319901182728625756 7.456336894002832061 
	0.005745777852789943352 7.584323284619681083 
	0.007175715888846171189 7.712674222595762963 
	0.008638829254208476097 7.844002971166942118 
	0.0100638760766072876 7.971914874831787401 
	0.01149343881109300691 8.1002321258176746 
	0.01295670608181928758 8.231574688902020043 
	0.01438086894286577308 8.35940724838142124 
	0.01581002565615171815 8.487688054989641628 
	0.0172734449974682909 8.619044267898251732 
	0.01825382318196404341 8.707042807959725295 
	0.01923905037525548353 8.795476594032905382 
	0.02023857615809966301 8.885193818503100971 
	0.02121876873915472944 8.97317569883869659 
	0.02220398774556892746 9.061608750059495065 
	0.02320370731873103512 9.151343369107951986 
	
	nullbs 
	I I 
	0 
	0 
	0 
	
	0 } I I #
point $-1 -1 $-1 1.307140433730659357 -0.9249999999999987121 -4.792859640775153807 #
intcurve-curve $-1 -1 $-1 forward { int_int_cur 22140 full nubs 3 open 7 
	0 3 0.05011470609133197168 2 0.101661234326695743 2 0.1546389253200576852 2 0.2090471269624936124 2 
	0.2472443355281889465 2 0.2861182193397446838 3 
	1.215827006763444018 -0.9249999999999987121 -4.910812674244803944 
	1.223472207469376016 -0.9249999999999987121 -4.915908227806454533 
	1.232050332759386357 -0.9249999999999987121 -4.9194396892103196 
	1.250333485853905024 -0.9249999999999987121 -4.923117985449112055 
	1.25988098410451288 -0.9249999999999987121 -4.923129961198574378 
	1.278719010161232461 -0.9249999999999987121 -4.919490908650375971 
	1.287807489410818462 -0.9249999999999987121 -4.915775884874303614 
	1.304303131475534894 -0.9249999999999987121 -4.904963977400942809 
	1.311494714210445611 -0.9249999999999987121 -4.897887427245921188 
	1.32112130236084413 -0.9249999999999987121 -4.883853574394569463 
	1.324290519900379604 -0.9249999999999987121 -4.877554363317377906 
	1.328926270869095649 -0.9249999999999987121 -4.864168264368537109 
	1.330340480135725478 -0.9249999999999987121 -4.857131219154256385 
	1.330808768626451144 -0.9249999999999987121 -4.850000055879363003 
	1.561902472975068168e-07 
	
	spline forward { ref 1 } F 0 F 0.02320370731873103512 F 10.48361071582876036 F 241.1082601840066673 
	plane 1.250000018626451048 -0.9249999999999987121 -4.850000055879363003 4.930380657631329258e-32 -1 -2.220446049250318997e-16 -0.5500000000000000444 -2.711709361697229395e-32 -5.423418723394443463e-32 forward_v I I I I 
	nubs 3 open 7 
	0 3 0.05011470609133197168 3 0.101661234326695743 3 0.1546389253200576852 3 0.2090471269624936124 3 
	0.2472443355281889465 3 0.2861182193397446838 3 
	0 10.48361071582876036 
	0.001463144108043040867 10.61494222385650943 
	0.002891234094555261529 10.74312728129342354 
	0.004313630429990875093 10.870801277804782 
	0.005776665905701096858 11.00212303501713862 
	0.007205246235393807097 11.13035210555501209 
	0.008628645668822758352 11.25811613993170468 
	0.0100915650530343827 11.38942747679551459 
	0.01152059639143690299 11.51769702978051235 
	0.01294493373894728752 11.64554525112828998 
	0.01440773123270569674 11.77684564713060311 
	0.01583717832490149843 11.90515251808882269 
	0.01726239434059225614 12.03307960850803937 
	0.01826296542655237234 12.12289065916651509 
	0.01925005072209035745 12.21149122810733445 
	0.02023305082966164736 12.29972511143373204 
	0.0212334650851366373 12.38952208502078101 
	0.02222055645989917325 12.47812319963152028 
	0.02320370731873103512 12.56637061435942471 
	
	nullbs 
	I I 
	0 
	0 
	0 
	
	0 } I I #
point $-1 -1 $-1 1.330808768626451144 -0.9249999999999987121 -4.85000005587936478 #
vertex $-1 1191 $-1 $117 0 $132 #
ellipse-curve $-1 -1 $-1 1.250000018626451048 -0.2099999999999986322 -4.850000055879363003 4.930380657631329258e-32 -1 -2.220446049250318997e-16 0.06600000000000000311 3.254051234036675219e-33 6.508102468073334017e-33 1 I I #
ATTRIB_CUSTOM-attrib $-1 -1 $-1 $-1 $119 @22 generic_tag_attrib_def 3 3 -1 @23 generic_tag_attrib_def  1 0 @0  0 11 333 336 342 500 508 512 653 655 764 765 780 0 #
ellipse-curve $-1 -1 $-1 1.250000018626451048 -0.9249999999999987121 -4.850000055879363003 -4.930380657631329258e-32 1 2.220446049250318997e-16 0.08080875000000001251 3.984178979673655028e-33 7.968357959347289529e-33 1 I I #
point $-1 -1 $-1 1.184000018626451212 -0.2099999999999986322 -4.850000055879363003 #
End-of-ASM-data 