22700 0 2 4           
16 Autodesk Neutron 20 ASM 227.1.1.65535 NT 24 Wed Aug 25 06:16:41 2021 
10 9.999999999999999547e-07 1.000000000000000036e-10 
asmheader $-1 -1 @13 227.1.1.65535 #
body $2 900 $-1 $3 $-1 $4 #
ATTRIB_CUSTOM-attrib $-1 -1 $5 $-1 $1 @20 Timestamp_attrib_def 1 1448290090000 #
lump $-1 -1 $-1 $-1 $6 $1 #
transform $-1 -1 1 0 0 0 1 0 0 0 1 0 0 0 1 no_rotate no_reflect no_shear #
ATTRIB_CUSTOM-attrib $7 -1 $-1 $2 $1 @22 generic_tag_attrib_def 3 3 -1 @23 generic_tag_attrib_def  1 3 @3 656 1 0 0 #
shell $-1 -1 $-1 $-1 $-1 $8 $-1 $3 #
ATTRIB_CUSTOM-attrib $-1 -1 $-1 $-1 $5 @22 generic_tag_attrib_def 3 3 -1 @23 generic_tag_attrib_def  1 0 @0  0 1 658 0 #
face $9 454 $-1 $10 $11 $6 $-1 $12 forward single #
ATTRIB_CUSTOM-attrib $13 -1 $-1 $-1 $8 @22 generic_tag_attrib_def 3 3 -1 @23 generic_tag_attrib_def  1 1 @1 3 0 15 519 522 -525 -529 546 554 566 -581 594 595 -604 -609 -633 656 -660 0 #
face $14 455 $-1 $15 $16 $6 $-1 $17 forward single #
loop $-1 -1 $-1 $18 $19 $8 #
cone-surface $-1 -1 $-1 1.25000001862645238 -0.4449999999999985634 -4.850000055879367444 -5.692775011319579463e-46 1 2.220446049250318011e-16 0.1800000000000000211 -2.364691158548139659e-47 5.679798517591287416e-31 1 I I -0 1 0.1500000000000000222 reversed I I I I #
ATTRIB_CUSTOM-attrib $-1 -1 $-1 $-1 $9 @22 generic_tag_attrib_def 3 3 -1 @23 generic_tag_attrib_def  1 0 @0  0 6 597 631 634 635 637 658 0 #
ATTRIB_CUSTOM-attrib $20 -1 $-1 $-1 $10 @22 generic_tag_attrib_def 3 3 -1 @23 generic_tag_attrib_def  1 1 @1 1 0 13 519 522 -526 -528 546 554 566 -580 594 595 -605 -608 656 0 #
face $21 456 $-1 $-1 $22 $6 $-1 $23 forward single #
loop $-1 -1 $-1 $-1 $24 $10 #
plane-surface $-1 -1 $-1 1.25000001862645238 -0.5849999999999986322 -4.850000055879367444 5.692775011319579463e-46 -1 -2.220446049250318011e-16 1 -1.313717310304521838e-46 3.155443620884047922e-30 reverse_v I I I I #
loop $-1 -1 $-1 $-1 $25 $8 #
coedge $-1 -1 $-1 $19 $19 $26 $27 forward $11 0 $-1 #
ATTRIB_CUSTOM-attrib $-1 -1 $-1 $-1 $14 @22 generic_tag_attrib_def 3 3 -1 @23 generic_tag_attrib_def  1 0 @0  0 6 597 631 634 635 637 658 0 #
ATTRIB_CUSTOM-attrib $28 -1 $-1 $-1 $15 @22 generic_tag_attrib_def 3 3 -1 @23 generic_tag_attrib_def  1 1 @1 2 0 12 519 522 -526 546 554 566 594 595 -605 -632 656 -659 0 #
loop $-1 -1 $-1 $-1 $26 $15 #
plane-surface $-1 -1 $-1 1.25000001862645238 -0.4099999999999986988 -4.850000055879367444 -5.692775011319579463e-46 1 2.220446049250318011e-16 -1 1.313717310304521838e-46 -3.155443620884047922e-30 reverse_v I I I I #
coedge $-1 -1 $-1 $24 $24 $25 $29 reversed $16 0 $-1 #
coedge $-1 -1 $-1 $25 $25 $24 $29 forward $18 0 $-1 #
coedge $-1 -1 $-1 $26 $26 $19 $27 reversed $22 0 $-1 #
edge $-1 457 $-1 $30 -3.141592653589793116 $30 3.141592653589793116 $19 $31 reversed @7 unknown #
ATTRIB_CUSTOM-attrib $-1 -1 $-1 $-1 $21 @22 generic_tag_attrib_def 3 3 -1 @23 generic_tag_attrib_def  1 0 @0  0 6 597 631 634 635 637 658 0 #
edge $-1 458 $-1 $32 -3.141592653589793116 $32 3.141592653589793116 $24 $33 reversed @7 unknown #
vertex $-1 1181 $-1 $27 0 $34 #
ellipse-curve $-1 -1 $-1 1.25000001862645238 -0.4099999999999986988 -4.850000055879367444 -5.692775011319579463e-46 1 2.220446049250318011e-16 0.1800000000000000211 -2.364691158548139659e-47 5.679798517591287416e-31 1 I I #
vertex $-1 1182 $-1 $29 0 $35 #
ellipse-curve $-1 -1 $-1 1.25000001862645238 -0.5849999999999986322 -4.850000055879367444 5.692775011319579463e-46 -1 -2.220446049250318011e-16 0.1800000000000000211 -2.364691158548139659e-47 5.679798517591287416e-31 1 I I #
point $-1 -1 $-1 1.070000018626452443 -0.4099999999999986988 -4.850000055879367444 #
point $-1 -1 $-1 1.070000018626452443 -0.5849999999999986322 -4.850000055879367444 #
End-of-ASM-data 