# WaveFront *.obj file
# Vertices: 78
# Triangles : 152

v 1.7123323014438825e+00 -1.0204687453434063e+00 -5.0943749789288431e+00
v 1.7119794746914487e+00 -1.0159840797789903e+00 -5.0952013546100687e+00
v 1.7108365948389765e+00 -1.0121827575968216e+00 -5.0974742751847071e+00
v 1.7090453996288473e+00 -1.0096423897151945e+00 -5.1008295982239469e+00
v 1.7068458361665899e+00 -1.0087499953434060e+00 -5.1047390136582314e+00
v 1.5989632639345388e+00 -1.0087499953434063e+00 -5.0424529815391876e+00
v 1.6018929514345388e+00 -1.0103200101428074e+00 -5.0373786139388885e+00
v 1.6040376315348381e+00 -1.0146093703434063e+00 -5.0336639190391876e+00
v 1.6048226389345388e+00 -1.0204687453434063e+00 -5.0323042463385876e+00
v 1.5936272272010072e+00 -1.0087499953434063e+00 -5.0438827682727192e+00
v 1.5885528596007079e+00 -1.0103200101428071e+00 -5.0409530807727192e+00
v 1.5848381647010072e+00 -1.0146093703434060e+00 -5.0388084006724201e+00
v 1.5834784920004072e+00 -1.0204687453434063e+00 -5.0380233932727192e+00
v 1.5874982416062775e+00 -1.0204687453434063e+00 -5.0334397473306689e+00
v 1.5929660913548118e+00 -1.0204687453434063e+00 -5.0307433022369521e+00
v 1.5990496106879772e+00 -1.0204687453434063e+00 -5.0303445673137537e+00
v 1.5970101389345388e+00 -1.0087499953434063e+00 -5.0419296432727192e+00
v 1.5950570139345388e+00 -1.0087499953434063e+00 -5.0424529815391859e+00
v 1.5884540060591259e+00 -1.0146093703434058e+00 -5.0346853238160802e+00
v 1.5910652031043762e+00 -1.0103200101428069e+00 -5.0380883020589380e+00
v 1.5933724410859902e+00 -1.0146093703434058e+00 -5.0322598200793500e+00
v 1.5944826091972102e+00 -1.0103200101428069e+00 -5.0364030238753656e+00
v 1.5988446826344829e+00 -1.0146093703434058e+00 -5.0319011504189008e+00
v 1.5982848087804387e+00 -1.0103200101428069e+00 -5.0361538145483662e+00
v 1.5897209772010072e+00 -1.0087499953434063e+00 -5.0506485917397859e+00
v 1.5846466096007079e+00 -1.0103200101428071e+00 -5.0477189042397859e+00
v 1.5809319147010072e+00 -1.0146093703434060e+00 -5.0455742241394868e+00
v 1.5795722420004081e+00 -1.0204687453434063e+00 -5.0447892167397859e+00
v 1.5911507639345388e+00 -1.0087499953434063e+00 -5.0559846284733174e+00
v 1.5882210764345388e+00 -1.0103200101428074e+00 -5.0610589960736183e+00
v 1.5860763963342395e+00 -1.0146093703434063e+00 -5.0647736909733192e+00
v 1.5852913889345388e+00 -1.0204687453434063e+00 -5.0661333636739174e+00
v 1.5807077429924883e+00 -1.0204687453434063e+00 -5.0621136140680472e+00
v 1.5780112978987721e+00 -1.0204687453434063e+00 -5.0566457643195131e+00
v 1.5776125629755731e+00 -1.0204687453434063e+00 -5.0505622449863479e+00
v 1.5891976389345388e+00 -1.0087499953434063e+00 -5.0526017167397859e+00
v 1.5897209772010059e+00 -1.0087499953434063e+00 -5.0545548417397859e+00
v 1.5819533194779001e+00 -1.0146093703434058e+00 -5.0611578496151983e+00
v 1.5853562977207578e+00 -1.0103200101428069e+00 -5.0585466525699481e+00
v 1.5795278157411698e+00 -1.0146093703434058e+00 -5.0562394145883340e+00
v 1.5836710195371850e+00 -1.0103200101428069e+00 -5.0551292464771143e+00
v 1.5791691460807205e+00 -1.0146093703434058e+00 -5.0507671730398425e+00
v 1.5834218102101860e+00 -1.0103200101428069e+00 -5.0513270468938867e+00
v 1.6990333361665899e+00 -1.0087499953434060e+00 -5.1182706605923611e+00
v 1.6967474648176810e+00 -1.0096423897151945e+00 -5.1221302461450549e+00
v 1.6947372674328609e+00 -1.0121827575968216e+00 -5.1253591282197846e+00
v 1.6933403004006771e+00 -1.0159840797789903e+00 -5.1274853514928163e+00
v 1.6928010514438827e+00 -1.0204687453434060e+00 -5.1282040962641728e+00
v 1.7130695838544558e+00 -1.0475073369802832e+00 -5.0948006491270554e+00
v 1.7160285986597221e+00 -1.0743426841928558e+00 -5.0965090371214119e+00
v 1.7211825672382621e+00 -1.1007319312838892e+00 -5.0994846822676276e+00
v 1.7284848469801348e+00 -1.1264362596925113e+00 -5.1037006554422950e+00
v 1.7378693533952059e+00 -1.1512230492648561e+00 -5.1091188027472478e+00
v 1.7492511581674528e+00 -1.1748679834300915e+00 -5.1156900907963685e+00
v 1.7625272577429489e+00 -1.1971570792303192e+00 -5.1233550504600700e+00
v 1.7775775054959237e+00 -1.2178886238328923e+00 -5.1320443150516200e+00
v 1.7942656990369446e+00 -1.2368750000000190e+00 -5.1416792480848166e+00
v 1.7747344490369446e+00 -1.2368750000000190e+00 -5.1755083654201464e+00
v 1.7580462554959237e+00 -1.2178886238328923e+00 -5.1658734323869497e+00
v 1.7429960077429489e+00 -1.1971570792303192e+00 -5.1571841677953998e+00
v 1.7297199081674528e+00 -1.1748679834300915e+00 -5.1495192081316983e+00
v 1.7183381033952059e+00 -1.1512230492648559e+00 -5.1429479200825776e+00
v 1.7089535969801348e+00 -1.1264362596925113e+00 -5.1375297727776248e+00
v 1.7016513172382621e+00 -1.1007319312838892e+00 -5.1333137996029574e+00
v 1.6964973486597221e+00 -1.0743426841928558e+00 -5.1303381544567417e+00
v 1.6935383338544558e+00 -1.0475073369802832e+00 -5.1286297664623852e+00
v 1.5834784920004072e+00 -1.3150000000000190e+00 -5.0380233932727201e+00
v 1.5874982416062784e+00 -1.3150000000000190e+00 -5.0334397473306698e+00
v 1.5929660913548127e+00 -1.3150000000000190e+00 -5.0307433022369530e+00
v 1.5990496106879779e+00 -1.3150000000000190e+00 -5.0303445673137546e+00
v 1.6048226389345397e+00 -1.3150000000000190e+00 -5.0323042463385885e+00
v 1.5852913889345397e+00 -1.3150000000000190e+00 -5.0661333636739183e+00
v 1.5807077429924892e+00 -1.3150000000000190e+00 -5.0621136140680481e+00
v 1.5780112978987730e+00 -1.3150000000000190e+00 -5.0566457643195140e+00
v 1.5776125629755737e+00 -1.3150000000000190e+00 -5.0505622449863488e+00
v 1.5795722420004072e+00 -1.3150000000000190e+00 -5.0447892167397868e+00
v 1.7942656990369446e+00 -1.3150000000000190e+00 -5.1416792480848184e+00
v 1.7747344490369446e+00 -1.3150000000000190e+00 -5.1755083654201481e+00

vn 4.9999999999999933e-01 -1.9910469639384414e-15 8.6602540378443904e-01
vn 4.6193810330735680e-01 3.8269146169101381e-01 8.0010026488034436e-01
vn 4.9999999999999933e-01 1.2588693235391876e-15 8.6602540378443915e-01
vn 4.3301270189221358e-01 5.0000000000001754e-01 7.4999999999999167e-01
vn 3.5357130287616417e-01 7.0707095480567250e-01 6.1240346067984186e-01
vn 2.4999999999997724e-01 8.6602540378446424e-01 4.3301270189218116e-01
vn 1.9137855189343822e-01 9.2384901336781289e-01 3.3147737535839306e-01
vn -1.7077595632494019e-14 1.0000000000000000e+00 -2.9112289341841564e-14
vn -1.2599696099839228e-14 1.0000000000000000e+00 -2.1356339840094514e-14
vn -1.3459349989351961e-14 1.0000000000000000e+00 2.3411857943422029e-14
vn 9.0412456242857168e-14 1.0000000000000000e+00 -5.1977611344983740e-14
vn -3.0438071450431325e-01 8.6602540378447335e-01 3.9667667014557773e-01
vn -4.3301270189213914e-01 8.6602540378449211e-01 2.4999999999995345e-01
vn -7.4999999999996758e-01 5.0000000000006528e-01 4.3301270189220004e-01
vn -5.2720286236565395e-01 5.0000000000002998e-01 6.8706414686943995e-01
vn -8.6602540378443904e-01 7.7828994125753020e-17 4.9999999999999939e-01
vn -6.0876142900872998e-01 9.6434146746562402e-17 7.9335334029122806e-01
vn -2.2414386804198311e-01 5.0000000000003009e-01 8.3651630373779817e-01
vn -2.5881904510251968e-01 1.0035807470292333e-16 9.6592582628906853e-01
vn 1.1303899832185785e-01 5.0000000000002998e-01 8.5861643640123786e-01
vn 1.3052619222006207e-01 8.9003395533986033e-17 9.9144486137380905e-01
vn 4.3301270189223801e-01 5.0000000000004718e-01 7.4999999999995770e-01
vn 5.0000000000000810e-01 6.4098756212783538e-17 8.6602540378443393e-01
vn 2.4999999999999012e-01 8.6602540378449455e-01 4.3301270189211322e-01
vn 6.5263096110064325e-02 8.6602540378447335e-01 4.9572243068683924e-01
vn -1.2940952255121557e-01 8.6602540378447346e-01 4.8296291314448381e-01
vn -5.2366945813755029e-14 1.0000000000000000e+00 -9.0235236821837779e-14
vn -1.0605752387249048e-16 1.0000000000000000e+00 -3.2162452993533684e-16
vn -7.7335149370725710e-14 1.0000000000000000e+00 4.4871513911933337e-14
vn -5.0349573005143016e-14 1.0000000000000000e+00 2.9291384133026994e-14
vn -4.3301270189226526e-01 8.6602540378440807e-01 2.5000000000002615e-01
vn -4.3301270189224511e-01 8.6602540378442161e-01 2.5000000000001454e-01
vn -7.5000000000000977e-01 4.9999999999998135e-01 4.3301270189222407e-01
vn -7.5000000000000300e-01 4.9999999999999467e-01 4.3301270189222019e-01
vn -8.6602540378443915e-01 -4.9694334685325883e-16 4.9999999999999922e-01
vn -8.6602540378443915e-01 -5.7954582014313031e-16 4.9999999999999922e-01
vn 4.8406166987885013e-15 1.0000000000000000e+00 3.1392406389291631e-15
vn 5.1821763858622272e-14 1.0000000000000000e+00 9.0224901905687634e-14
vn -3.9667667014557573e-01 8.6602540378447335e-01 -3.0438071450431603e-01
vn -2.5000000000000017e-01 8.6602540378443760e-01 -4.3301270189222141e-01
vn -4.3301270189220709e-01 4.9999999999999029e-01 -7.5000000000001343e-01
vn -6.8706414686944040e-01 5.0000000000003020e-01 -5.2720286236565317e-01
vn -5.0000000000000822e-01 -6.4098756212783550e-17 -8.6602540378443393e-01
vn -7.9335334029123339e-01 -2.9435662314857182e-17 -6.0876142900872321e-01
vn -8.3651630373779406e-01 5.0000000000003009e-01 -2.2414386804199796e-01
vn -9.6592582628906298e-01 9.7087443355607337e-18 -2.5881904510254056e-01
vn -8.5861643640124030e-01 5.0000000000002998e-01 1.1303899832183920e-01
vn -9.9144486137381305e-01 4.7375082670878153e-17 1.3052619222003217e-01
vn -7.4999999999995470e-01 5.0000000000006539e-01 4.3301270189222241e-01
vn -8.6602540378441994e-01 7.7828994125757951e-17 5.0000000000003264e-01
vn -4.3301270189211982e-01 8.6602540378449211e-01 2.4999999999998726e-01
vn -4.9572243068684058e-01 8.6602540378447324e-01 6.5263096110057817e-02
vn -4.8296291314448214e-01 8.6602540378447324e-01 -1.2940952255122226e-01
vn 9.0220159974209438e-14 1.0000000000000000e+00 -5.1866589042537481e-14
vn 2.7679934602020462e-16 1.0000000000000000e+00 2.8327694488238966e-16
vn 5.3125506957969943e-14 1.0000000000000000e+00 9.2483051193812510e-14
vn -1.9137855189342590e-01 9.2384901336782355e-01 -3.3147737535837080e-01
vn 4.8647607425315160e-14 1.0000000000000000e+00 8.4727101692065495e-14
vn -2.5000000000000305e-01 8.6602540378443504e-01 -4.3301270189222496e-01
vn -3.5357130287617156e-01 7.0707095480565818e-01 -6.1240346067985385e-01
vn -4.3301270189222218e-01 4.9999999999998818e-01 -7.5000000000000611e-01
vn -4.6193810330734536e-01 3.8269146169106949e-01 -8.0010026488032415e-01
vn -4.9999999999999933e-01 1.1280147968855559e-15 -8.6602540378443915e-01
vn -4.9999999999999933e-01 1.7028682624037133e-14 -8.6602540378443915e-01
vn -1.0605752387249024e-16 1.0000000000000000e+00 2.8327694488238942e-16
vn 8.6558527300408683e-01 -3.1877581640628948e-02 -4.9974589037548428e-01
vn 8.6558527300408683e-01 -3.1877581640629142e-02 -4.9974589037548428e-01
vn 8.6591305950337250e-01 -1.6106867334965507e-02 -4.9993513799908357e-01
vn 8.6591305950337250e-01 -1.6106867334964942e-02 -4.9993513799908357e-01
vn 8.6332034213435915e-01 7.8976678895430183e-02 -4.9843823192815112e-01
vn 8.6513851482800497e-01 -4.5245259953495473e-02 -4.9948795442226074e-01
vn 8.6513851482800497e-01 -4.5245259953495355e-02 -4.9948795442226074e-01
vn 8.6475343465930210e-01 -5.4178682707509002e-02 -4.9926562828320065e-01
vn 8.6475343465930210e-01 -5.4178682707508717e-02 -4.9926562828320065e-01
vn 8.6460169020814692e-01 -5.7316865338994404e-02 -4.9917801858347810e-01
vn 8.6460169020814692e-01 -5.7316865338994230e-02 -4.9917801858347810e-01
vn 8.6332034213435915e-01 7.8976678895429892e-02 -4.9843823192815112e-01
vn 8.5291471062767865e-01 1.7334549852785927e-01 -4.9243053777668100e-01
vn 8.3479033432180472e-01 2.6614556849686677e-01 -4.8196642423759056e-01
vn 8.0911123598901102e-01 3.5653706267621194e-01 -4.6714058990260526e-01
vn 7.7610980745492064e-01 4.4370195217403396e-01 -4.4808720625480614e-01
vn 7.7610980745492086e-01 4.4370195217403358e-01 -4.4808720625480619e-01
vn 7.3608470648881585e-01 5.2685140836643807e-01 -4.2497870343768362e-01
vn 7.3608470648881574e-01 5.2685140836643829e-01 -4.2497870343768346e-01
vn 6.8939815399751059e-01 6.0523294167323183e-01 -3.9802420978929298e-01
vn 6.8939815399751059e-01 6.0523294167323205e-01 -3.9802420978929287e-01
vn 6.3647265598277203e-01 6.7813721147098871e-01 -3.6746765926348868e-01
vn 6.3647265598277203e-01 6.7813721147098882e-01 -3.6746765926348862e-01
vn 5.7778717992804751e-01 7.4490444551480983e-01 -3.3358558386577208e-01
vn 5.7778717992804740e-01 7.4490444551480961e-01 -3.3358558386577208e-01
vn 5.0000000000004985e-01 -1.9229626863833491e-16 8.6602540378440995e-01
vn 4.9999999999998646e-01 -1.9229626863835199e-16 8.6602540378444648e-01
vn 1.3052619222010334e-01 -2.6701018660194634e-16 9.9144486137380372e-01
vn 1.3052619222005665e-01 -2.6701018660195299e-16 9.9144486137380983e-01
vn -2.5881904510246712e-01 -3.0107422410877893e-16 9.6592582628908263e-01
vn -2.5881904510250547e-01 -3.0107422410878006e-16 9.6592582628907242e-01
vn -6.0876142900869390e-01 -2.8930244023968636e-16 7.9335334029125570e-01
vn -6.0876142900870345e-01 -2.8930244023968532e-16 7.9335334029124838e-01
vn -8.6602540378443360e-01 -2.3348698237724784e-16 5.0000000000000899e-01
vn -8.6602540378441073e-01 -2.3348698237725657e-16 5.0000000000004852e-01
vn -8.6602540378448267e-01 -2.3348698237722886e-16 4.9999999999992373e-01
vn -8.6602540378444559e-01 -2.3348698237724311e-16 4.9999999999998790e-01
vn -9.9144486137382692e-01 -1.4212524801260497e-16 1.3052619221992742e-01
vn -9.9144486137382082e-01 -1.4212524801261717e-16 1.3052619221997283e-01
vn -9.6592582628903134e-01 -2.9126233006645139e-17 -2.5881904510265924e-01
vn -9.6592582628904788e-01 -2.9126233006664404e-17 -2.5881904510259746e-01
vn -7.9335334029115812e-01 8.8306986944607040e-17 -6.0876142900882102e-01
vn -7.9335334029120341e-01 8.8306986944585543e-17 -6.0876142900876218e-01
vn -4.9999999999991740e-01 1.9229626863837061e-16 -8.6602540378448634e-01
vn -4.9999999999998085e-01 1.9229626863835347e-16 -8.6602540378444970e-01
vn 4.9999999999999928e-01 -1.9229626863834904e-16 8.6602540378443915e-01
vn -8.6602540378443904e-01 -2.3348698237724607e-16 4.9999999999999928e-01
vn -4.9999999999999928e-01 1.9229626863834904e-16 -8.6602540378443915e-01
vn 1.0605752387249024e-16 -1.0000000000000000e+00 -2.8327694488238942e-16
vn 8.6602540378443904e-01 2.3348698237724607e-16 -4.9999999999999928e-01

g face 0
f 1//1 2//2 9//3
f 9//3 2//2 8//4
f 8//4 2//2 3//5
f 8//4 3//5 7//6
f 7//6 3//5 4//7
f 7//6 4//7 6//8
f 6//8 4//7 5//9

g face 1
f 18//10 10//11 20//12
f 20//12 10//11 11//13
f 20//12 11//13 12//14
f 20//12 12//14 19//15
f 19//15 12//14 13//16
f 19//15 13//16 14//17
f 19//15 14//17 21//18
f 21//18 14//17 15//19
f 21//18 15//19 23//20
f 23//20 15//19 16//21
f 23//20 16//21 8//22
f 8//22 16//21 9//23
f 8//22 7//24 23//20
f 23//20 7//24 24//25
f 23//20 24//25 21//18
f 21//18 24//25 22//26
f 21//18 22//26 19//15
f 19//15 22//26 20//12
f 7//24 6//27 24//25
f 24//25 6//27 17//28
f 24//25 17//28 22//26
f 22//26 17//28 18//10
f 22//26 18//10 20//12

g face 2
f 10//29 25//30 11//31
f 11//31 25//30 26//32
f 11//31 26//32 12//33
f 12//33 26//32 27//34
f 12//33 27//34 13//35
f 13//35 27//34 28//36

g face 3
f 37//37 29//38 39//39
f 39//39 29//38 30//40
f 39//39 30//40 31//41
f 39//39 31//41 38//42
f 38//42 31//41 32//43
f 38//42 32//43 33//44
f 38//42 33//44 40//45
f 40//45 33//44 34//46
f 40//45 34//46 42//47
f 42//47 34//46 35//48
f 42//47 35//48 27//49
f 27//49 35//48 28//50
f 27//49 26//51 42//47
f 42//47 26//51 43//52
f 42//47 43//52 40//45
f 40//45 43//52 41//53
f 40//45 41//53 38//42
f 38//42 41//53 39//39
f 26//51 25//54 43//52
f 43//52 25//54 36//55
f 43//52 36//55 41//53
f 41//53 36//55 37//37
f 41//53 37//37 39//39

g face 4
f 44//56 45//57 29//58
f 29//58 45//57 30//59
f 30//59 45//57 46//60
f 30//59 46//60 31//61
f 31//61 46//60 47//62
f 31//61 47//62 32//63
f 32//63 47//62 48//64

g face 5
f 29//65 36//65 44//65
f 44//65 36//65 25//65
f 44//65 25//65 5//65
f 5//65 25//65 10//65
f 5//65 10//65 18//65
f 29//65 37//65 36//65
f 17//65 6//65 18//65
f 18//65 6//65 5//65

g face 6
f 47//66 2//67 48//68
f 48//68 2//67 1//69
f 48//68 1//69 49//70
f 2//67 47//66 3//71
f 3//71 47//66 46//72
f 3//71 46//72 4//73
f 4//73 46//72 45//74
f 4//73 45//74 5//75
f 5//75 45//74 44//76
f 48//68 49//70 66//77
f 66//77 49//70 50//78
f 66//77 50//78 65//78
f 65//78 50//78 51//79
f 65//78 51//79 64//79
f 64//79 51//79 52//80
f 64//79 52//80 63//80
f 63//80 52//80 53//81
f 63//80 53//81 62//82
f 62//82 53//81 54//83
f 62//82 54//83 61//84
f 61//84 54//83 55//85
f 61//84 55//85 60//86
f 60//86 55//85 56//87
f 60//86 56//87 59//88
f 59//88 56//87 58//89
f 58//89 56//87 57//90

g face 7
f 71//91 9//92 70//93
f 70//93 9//92 16//94
f 70//93 16//94 69//95
f 69//95 16//94 15//96
f 69//95 15//96 68//97
f 68//97 15//96 14//98
f 68//97 14//98 67//99
f 67//99 14//98 13//100

g face 8
f 76//101 28//102 75//103
f 75//103 28//102 35//104
f 75//103 35//104 74//105
f 74//105 35//104 34//106
f 74//105 34//106 73//107
f 73//107 34//106 33//108
f 73//107 33//108 72//109
f 72//109 33//108 32//110

g face 9
f 1//111 9//111 49//111
f 49//111 9//111 50//111
f 50//111 9//111 51//111
f 51//111 9//111 71//111
f 51//111 71//111 52//111
f 52//111 71//111 53//111
f 53//111 71//111 54//111
f 54//111 71//111 55//111
f 55//111 71//111 77//111
f 55//111 77//111 56//111
f 56//111 77//111 57//111

g face 10
f 28//112 76//112 13//112
f 13//112 76//112 67//112

g face 11
f 48//113 66//113 32//113
f 32//113 66//113 65//113
f 32//113 65//113 64//113
f 32//113 64//113 72//113
f 72//113 64//113 63//113
f 72//113 63//113 62//113
f 62//113 61//113 72//113
f 72//113 61//113 60//113
f 72//113 60//113 78//113
f 78//113 60//113 59//113
f 78//113 59//113 58//113

g face 12
f 70//114 69//114 71//114
f 71//114 69//114 77//114
f 77//114 69//114 68//114
f 77//114 68//114 67//114
f 67//114 76//114 77//114
f 77//114 76//114 78//114
f 78//114 76//114 75//114
f 78//114 75//114 74//114
f 73//114 72//114 74//114
f 74//114 72//114 78//114

g face 13
f 57//115 77//115 58//115
f 58//115 77//115 78//115

g halfedge 0 edge 0
l 5 4 3 2 1

g halfedge 1 edge 0
l 1 2 3 4 5

g halfedge 2 edge 1
l 6 5

g halfedge 3 edge 1
l 5 6

g halfedge 4 edge 2
l 6 7 8 9

g halfedge 5 edge 2
l 9 8 7 6

g halfedge 6 edge 3
l 1 9

g halfedge 7 edge 3
l 9 1

g halfedge 8 edge 4
l 10 11 12 13

g halfedge 9 edge 4
l 13 12 11 10

g halfedge 10 edge 5
l 9 16 15 14 13

g halfedge 11 edge 5
l 13 14 15 16 9

g halfedge 12 edge 6
l 10 18 17 6

g halfedge 13 edge 6
l 6 17 18 10

g halfedge 14 edge 7
l 25 26 27 28

g halfedge 15 edge 7
l 28 27 26 25

g halfedge 16 edge 8
l 13 28

g halfedge 17 edge 8
l 28 13

g halfedge 18 edge 9
l 25 10

g halfedge 19 edge 9
l 10 25

g halfedge 20 edge 10
l 29 30 31 32

g halfedge 21 edge 10
l 32 31 30 29

g halfedge 22 edge 11
l 28 35 34 33 32

g halfedge 23 edge 11
l 32 33 34 35 28

g halfedge 24 edge 12
l 29 37 36 25

g halfedge 25 edge 12
l 25 36 37 29

g halfedge 26 edge 13
l 48 47 46 45 44

g halfedge 27 edge 13
l 44 45 46 47 48

g halfedge 28 edge 14
l 32 48

g halfedge 29 edge 14
l 48 32

g halfedge 30 edge 15
l 44 29

g halfedge 31 edge 15
l 29 44

g halfedge 32 edge 16
l 44 5

g halfedge 33 edge 16
l 5 44

g halfedge 34 edge 17
l 1 49 50 51 52 53 54 55 56 57

g halfedge 35 edge 17
l 57 56 55 54 53 52 51 50 49 1

g halfedge 36 edge 18
l 58 57

g halfedge 37 edge 18
l 57 58

g halfedge 38 edge 19
l 58 59 60 61 62 63 64 65 66 48

g halfedge 39 edge 19
l 48 66 65 64 63 62 61 60 59 58

g halfedge 40 edge 20
l 13 67

g halfedge 41 edge 20
l 67 13

g halfedge 42 edge 21
l 71 70 69 68 67

g halfedge 43 edge 21
l 67 68 69 70 71

g halfedge 44 edge 22
l 71 9

g halfedge 45 edge 22
l 9 71

g halfedge 46 edge 23
l 72 32

g halfedge 47 edge 23
l 32 72

g halfedge 48 edge 24
l 76 75 74 73 72

g halfedge 49 edge 24
l 72 73 74 75 76

g halfedge 50 edge 25
l 76 28

g halfedge 51 edge 25
l 28 76

g halfedge 52 edge 26
l 77 71

g halfedge 53 edge 26
l 71 77

g halfedge 54 edge 27
l 57 77

g halfedge 55 edge 27
l 77 57

g halfedge 56 edge 28
l 67 76

g halfedge 57 edge 28
l 76 67

g halfedge 58 edge 29
l 78 58

g halfedge 59 edge 29
l 58 78

g halfedge 60 edge 30
l 72 78

g halfedge 61 edge 30
l 78 72

g halfedge 62 edge 31
l 77 78

g halfedge 63 edge 31
l 78 77

g vertex 0
p 1

g vertex 1
p 5

g vertex 2
p 6

g vertex 3
p 9

g vertex 4
p 10

g vertex 5
p 13

g vertex 6
p 25

g vertex 7
p 28

g vertex 8
p 29

g vertex 9
p 32

g vertex 10
p 44

g vertex 11
p 48

g vertex 12
p 57

g vertex 13
p 58

g vertex 14
p 67

g vertex 15
p 71

g vertex 16
p 72

g vertex 17
p 76

g vertex 18
p 77

g vertex 19
p 78

# End of file
