# WaveFront *.obj file
# Vertices: 78
# Triangles : 152

v 8.0719898580902461e-01 -1.0204687453434063e+00 -5.1282040962641737e+00
v 8.0665973685222980e-01 -1.0159840797789903e+00 -5.1274853514928163e+00
v 8.0526276982004641e-01 -1.0121827575968216e+00 -5.1253591282197846e+00
v 8.0325257243522585e-01 -1.0096423897151947e+00 -5.1221302461450549e+00
v 8.0096670108631707e-01 -1.0087499953434063e+00 -5.1182706605923620e+00
v 9.0884927331836818e-01 -1.0087499953434063e+00 -5.0559846284733183e+00
v 9.1177896081836818e-01 -1.0103200101428074e+00 -5.0610589960736174e+00
v 9.1392364091866762e-01 -1.0146093703434063e+00 -5.0647736909733183e+00
v 9.1470864831836818e-01 -1.0204687453434063e+00 -5.0661333636739183e+00
v 9.1027906005189974e-01 -1.0087499953434063e+00 -5.0506485917397868e+00
v 9.1535342765219918e-01 -1.0103200101428074e+00 -5.0477189042397868e+00
v 9.1906812255189974e-01 -1.0146093703434063e+00 -5.0455742241394876e+00
v 9.2042779525249974e-01 -1.0204687453434063e+00 -5.0447892167397850e+00
v 9.2238747427733392e-01 -1.0204687453434063e+00 -5.0505622449863470e+00
v 9.2198873935413483e-01 -1.0204687453434063e+00 -5.0566457643195122e+00
v 9.1929229426041870e-01 -1.0204687453434063e+00 -5.0621136140680463e+00
v 9.1027906005190107e-01 -1.0087499953434063e+00 -5.0545548417397850e+00
v 9.1080239831836818e-01 -1.0087499953434063e+00 -5.0526017167397850e+00
v 9.2083089117218664e-01 -1.0146093703434056e+00 -5.0507671730398416e+00
v 9.1657822704272063e-01 -1.0103200101428067e+00 -5.0513270468938867e+00
v 9.2047222151173691e-01 -1.0146093703434056e+00 -5.0562394145883349e+00
v 9.1632901771572117e-01 -1.0103200101428067e+00 -5.0551292464771143e+00
v 9.1804671777500679e-01 -1.0146093703434056e+00 -5.0611578496151983e+00
v 9.1464373953214861e-01 -1.0103200101428067e+00 -5.0585466525699481e+00
v 9.0637281005189974e-01 -1.0087499953434063e+00 -5.0438827682727201e+00
v 9.1144717765219918e-01 -1.0103200101428074e+00 -5.0409530807727201e+00
v 9.1516187255189974e-01 -1.0146093703434063e+00 -5.0388084006724210e+00
v 9.1652154525249885e-01 -1.0204687453434063e+00 -5.0380233932727201e+00
v 9.0103677331836818e-01 -1.0087499953434063e+00 -5.0424529815391868e+00
v 8.9810708581836818e-01 -1.0103200101428074e+00 -5.0373786139388876e+00
v 8.9596240571806873e-01 -1.0146093703434063e+00 -5.0336639190391868e+00
v 8.9517739831836818e-01 -1.0204687453434063e+00 -5.0323042463385885e+00
v 9.0095042656492985e-01 -1.0204687453434063e+00 -5.0303445673137546e+00
v 9.0703394589809505e-01 -1.0204687453434063e+00 -5.0307433022369530e+00
v 9.1250179564662937e-01 -1.0204687453434063e+00 -5.0334397473306698e+00
v 9.0494302331836818e-01 -1.0087499953434063e+00 -5.0424529815391868e+00
v 9.0298989831836818e-01 -1.0087499953434063e+00 -5.0419296432727201e+00
v 9.0115535461842478e-01 -1.0146093703434058e+00 -5.0319011504189017e+00
v 9.0171522847246921e-01 -1.0103200101428069e+00 -5.0361538145483671e+00
v 9.0662759616691713e-01 -1.0146093703434058e+00 -5.0322598200793509e+00
v 9.0551742805569724e-01 -1.0103200101428069e+00 -5.0364030238753665e+00
v 9.1154603119378108e-01 -1.0146093703434058e+00 -5.0346853238160811e+00
v 9.0893483414853105e-01 -1.0103200101428069e+00 -5.0380883020589389e+00
v 7.9315420108631707e-01 -1.0087499953434063e+00 -5.1047390136582305e+00
v 7.9095463762405960e-01 -1.0096423897151947e+00 -5.1008295982239460e+00
v 7.8916344241393044e-01 -1.0121827575968216e+00 -5.0974742751847071e+00
v 7.8802056256145792e-01 -1.0159840797789903e+00 -5.0952013546100687e+00
v 7.8766773580902449e-01 -1.0204687453434063e+00 -5.0943749789288439e+00
v 8.0646170339845114e-01 -1.0475073369802832e+00 -5.1286297664623870e+00
v 8.0350268859318508e-01 -1.0743426841928558e+00 -5.1303381544567435e+00
v 7.9834872001464496e-01 -1.1007319312838892e+00 -5.1333137996029583e+00
v 7.9104644027277238e-01 -1.1264362596925113e+00 -5.1375297727776266e+00
v 7.8166193385770133e-01 -1.1512230492648561e+00 -5.1429479200825794e+00
v 7.7028012908545429e-01 -1.1748679834300915e+00 -5.1495192081317001e+00
v 7.5700402950995815e-01 -1.1971570792303192e+00 -5.1571841677954007e+00
v 7.4195378175698345e-01 -1.2178886238328923e+00 -5.1658734323869515e+00
v 7.2526558821596188e-01 -1.2368750000000190e+00 -5.1755083654201472e+00
v 7.0573433821596188e-01 -1.2368750000000190e+00 -5.1416792480848175e+00
v 7.2242253175698345e-01 -1.2178886238328923e+00 -5.1320443150516217e+00
v 7.3747277950995827e-01 -1.1971570792303192e+00 -5.1233550504600709e+00
v 7.5074887908545429e-01 -1.1748679834300915e+00 -5.1156900907963703e+00
v 7.6213068385770133e-01 -1.1512230492648559e+00 -5.1091188027472496e+00
v 7.7151519027277238e-01 -1.1264362596925113e+00 -5.1037006554422968e+00
v 7.7881747001464496e-01 -1.1007319312838892e+00 -5.0994846822676285e+00
v 7.8397143859318508e-01 -1.0743426841928558e+00 -5.0965090371214137e+00
v 7.8693045339845114e-01 -1.0475073369802832e+00 -5.0948006491270572e+00
v 9.2042779525249974e-01 -1.3150000000000190e+00 -5.0447892167397850e+00
v 9.2238747427733303e-01 -1.3150000000000190e+00 -5.0505622449863470e+00
v 9.2198873935413395e-01 -1.3150000000000190e+00 -5.0566457643195122e+00
v 9.1929229426041792e-01 -1.3150000000000190e+00 -5.0621136140680463e+00
v 9.1470864831836729e-01 -1.3150000000000193e+00 -5.0661333636739165e+00
v 8.9517739831836729e-01 -1.3150000000000193e+00 -5.0323042463385868e+00
v 9.0095042656492896e-01 -1.3150000000000193e+00 -5.0303445673137546e+00
v 9.0703394589809416e-01 -1.3150000000000193e+00 -5.0307433022369530e+00
v 9.1250179564662859e-01 -1.3150000000000193e+00 -5.0334397473306698e+00
v 9.1652154525249974e-01 -1.3150000000000193e+00 -5.0380233932727201e+00
v 7.2526558821596276e-01 -1.3150000000000190e+00 -5.1755083654201464e+00
v 7.0573433821596276e-01 -1.3150000000000190e+00 -5.1416792480848166e+00

vn 5.0000000000000022e-01 -2.3241138713259887e-15 -8.6602540378443871e-01
vn 4.6193810330735008e-01 3.8269146169105023e-01 -8.0010026488033070e-01
vn 5.0000000000000022e-01 1.2562123093111264e-15 -8.6602540378443871e-01
vn 4.3301270189222407e-01 4.9999999999998462e-01 -7.5000000000000755e-01
vn 3.5357130287619015e-01 7.0707095480562221e-01 -6.1240346067988460e-01
vn 2.5000000000000488e-01 8.6602540378443316e-01 -4.3301270189222718e-01
vn 1.9137855189345240e-01 9.2384901336780190e-01 -3.3147737535841598e-01
vn 1.9224026813436018e-14 1.0000000000000000e+00 -3.2830017202183107e-14
vn 8.8249378161137160e-15 1.0000000000000000e+00 -1.4818266706390389e-14
vn -2.7679934602020467e-16 1.0000000000000000e+00 2.8327694488238991e-16
vn -1.5598548384855593e-13 1.0000000000000000e+00 -8.9836216484668149e-14
vn 4.9572243068680316e-01 8.6602540378449866e-01 6.5263096110005497e-02
vn 4.3301270189212349e-01 8.6602540378451676e-01 2.4999999999989544e-01
vn 7.4999999999999267e-01 5.0000000000008415e-01 4.3301270189213487e-01
vn 8.5861643640123309e-01 5.0000000000005196e-01 1.1303899832179730e-01
vn 8.6602540378443860e-01 7.7828994125752934e-17 5.0000000000000000e-01
vn 9.9144486137381305e-01 4.7375082670878171e-17 1.3052619222003231e-01
vn 8.3651630373777408e-01 5.0000000000005207e-01 -2.2414386804202349e-01
vn 9.6592582628906298e-01 9.7087443355606921e-18 -2.5881904510254033e-01
vn 6.8706414686941886e-01 5.0000000000005207e-01 -5.2720286236566039e-01
vn 7.9335334029123328e-01 -2.9435662314857195e-17 -6.0876142900872310e-01
vn 4.3301270189221280e-01 4.9999999999998818e-01 -7.5000000000001177e-01
vn 4.9999999999995892e-01 -6.4098756212779606e-17 -8.6602540378446224e-01
vn 2.5000000000000011e-01 8.6602540378443749e-01 -4.3301270189222135e-01
vn 3.9667667014552754e-01 8.6602540378449866e-01 -3.0438071450430682e-01
vn 4.8296291314443079e-01 8.6602540378449866e-01 -1.2940952255124430e-01
vn 1.3681394594276954e-14 1.0000000000000000e+00 -2.3229896590933987e-14
vn -4.8406166987885013e-15 1.0000000000000000e+00 3.1392406389291635e-15
vn -1.0672442909428777e-14 1.0000000000000000e+00 -5.9396931817445970e-15
vn 1.6761824749643404e-14 1.0000000000000000e+00 9.8994886362409781e-15
vn 4.3301270189221119e-01 8.6602540378444404e-01 2.4999999999999561e-01
vn 4.3301270189223173e-01 8.6602540378443016e-01 2.5000000000000749e-01
vn 7.4999999999999400e-01 5.0000000000001155e-01 4.3301270189221619e-01
vn 7.5000000000000089e-01 4.9999999999999811e-01 4.3301270189222013e-01
vn 8.6602540378443860e-01 4.3018757641241225e-16 5.0000000000000022e-01
vn 8.6602540378443860e-01 5.1279004970228368e-16 5.0000000000000022e-01
vn 1.0605752387249048e-16 1.0000000000000000e+00 -3.2162452993533679e-16
vn -1.3358257244069499e-14 1.0000000000000000e+00 2.3604154212060385e-14
vn -6.5263096110020860e-02 8.6602540378447335e-01 4.9572243068684529e-01
vn -2.4999999999999997e-01 8.6602540378443771e-01 4.3301270189222141e-01
vn -4.3301270189221280e-01 4.9999999999998840e-01 7.5000000000001144e-01
vn -1.1303899832181717e-01 5.0000000000003009e-01 8.5861643640124319e-01
vn -5.0000000000000810e-01 6.4098756212783488e-17 8.6602540378443393e-01
vn -1.3052619222005524e-01 8.9003395533986575e-17 9.9144486137380994e-01
vn 2.2414386804200304e-01 5.0000000000002998e-01 8.3651630373779273e-01
vn 2.5881904510251313e-01 1.0035807470292365e-16 9.6592582628907031e-01
vn 5.2720286236566094e-01 5.0000000000003009e-01 6.8706414686943462e-01
vn 6.0876142900872532e-01 9.6434146746563105e-17 7.9335334029123161e-01
vn 7.4999999999997424e-01 5.0000000000005118e-01 4.3301270189220492e-01
vn 8.6602540378443860e-01 7.7828994125765075e-17 5.0000000000000033e-01
vn 4.3301270189215130e-01 8.6602540378448389e-01 2.4999999999996117e-01
vn 3.0438071450432375e-01 8.6602540378447335e-01 3.9667667014556995e-01
vn 1.2940952255124216e-01 8.6602540378447324e-01 4.8296291314447704e-01
vn -9.0220159974218740e-14 1.0000000000000000e+00 -5.1866589042521319e-14
vn 1.3459349989351959e-14 1.0000000000000000e+00 2.3411857943422026e-14
vn 8.5658857770345133e-15 1.0000000000000000e+00 -1.4369575412900890e-14
vn -1.9137855189344732e-01 9.2384901336780567e-01 3.3147737535840804e-01
vn 1.9113004510973502e-14 1.0000000000000000e+00 -3.2637720933544742e-14
vn -2.4999999999997632e-01 8.6602540378446591e-01 4.3301270189217861e-01
vn -3.5357130287615018e-01 7.0707095480570181e-01 6.1240346067981610e-01
vn -4.3301270189221436e-01 5.0000000000001732e-01 7.4999999999999134e-01
vn -4.6193810330735424e-01 3.8269146169102969e-01 8.0010026488033814e-01
vn -5.0000000000000022e-01 8.9145199622553048e-16 8.6602540378443871e-01
vn -5.0000000000000022e-01 -1.5324395583533850e-15 8.6602540378443871e-01
vn 1.0605752387249021e-16 1.0000000000000000e+00 2.8327694488238942e-16
vn -8.6558527300408628e-01 -3.1877581640629017e-02 -4.9974589037548522e-01
vn -8.6558527300408628e-01 -3.1877581640628802e-02 -4.9974589037548522e-01
vn -8.6591305950337205e-01 -1.6106867334964831e-02 -4.9993513799908446e-01
vn -8.6332034213435860e-01 7.8976678895430072e-02 -4.9843823192815201e-01
vn -8.6513851482800441e-01 -4.5245259953495251e-02 -4.9948795442226168e-01
vn -8.6513851482800441e-01 -4.5245259953495320e-02 -4.9948795442226168e-01
vn -8.6475343465930166e-01 -5.4178682707508016e-02 -4.9926562828320153e-01
vn -8.6460169020814637e-01 -5.7316865338993536e-02 -4.9917801858347899e-01
vn -8.6460169020814637e-01 -5.7316865338993363e-02 -4.9917801858347899e-01
vn -8.6332034213435860e-01 7.8976678895429850e-02 -4.9843823192815201e-01
vn -8.5291471062767810e-01 1.7334549852785924e-01 -4.9243053777668194e-01
vn -8.3479033432180427e-01 2.6614556849686644e-01 -4.8196642423759156e-01
vn -8.3479033432180427e-01 2.6614556849686632e-01 -4.8196642423759156e-01
vn -8.0911123598901036e-01 3.5653706267621199e-01 -4.6714058990260615e-01
vn -8.0911123598901036e-01 3.5653706267621188e-01 -4.6714058990260615e-01
vn -7.7610980745492020e-01 4.4370195217403413e-01 -4.4808720625480691e-01
vn -7.7610980745492053e-01 4.4370195217403358e-01 -4.4808720625480714e-01
vn -7.3608470648881519e-01 5.2685140836643840e-01 -4.2497870343768424e-01
vn -7.3608470648881530e-01 5.2685140836643818e-01 -4.2497870343768424e-01
vn -6.8939815399751037e-01 6.0523294167323149e-01 -3.9802420978929376e-01
vn -6.8939815399751059e-01 6.0523294167323116e-01 -3.9802420978929381e-01
vn -6.3647265598277158e-01 6.7813721147098893e-01 -3.6746765926348929e-01
vn -6.3647265598277170e-01 6.7813721147098882e-01 -3.6746765926348934e-01
vn -5.7778717992804662e-01 7.4490444551481017e-01 -3.3358558386577247e-01
vn -5.7778717992804640e-01 7.4490444551481039e-01 -3.3358558386577236e-01
vn 5.0000000000003375e-01 1.9229626863833927e-16 -8.6602540378441928e-01
vn 5.0000000000002354e-01 1.9229626863834203e-16 -8.6602540378442516e-01
vn 7.9335334029126425e-01 8.8306986944556602e-17 -6.0876142900868269e-01
vn 7.9335334029127935e-01 8.8306986944549453e-17 -6.0876142900866315e-01
vn 9.6592582628907775e-01 -2.9126233006699151e-17 -2.5881904510248588e-01
vn 9.6592582628908008e-01 -2.9126233006701863e-17 -2.5881904510247716e-01
vn 9.9144486137380550e-01 -1.4212524801264858e-16 1.3052619222008946e-01
vn 9.9144486137380716e-01 -1.4212524801264527e-16 1.3052619222007719e-01
vn 8.6602540378442305e-01 -2.3348698237725174e-16 5.0000000000002698e-01
vn 8.6602540378442483e-01 -2.3348698237725110e-16 5.0000000000002398e-01
vn 8.6602540378447235e-01 -2.3348698237723290e-16 4.9999999999994188e-01
vn 8.6602540378445991e-01 -2.3348698237723769e-16 4.9999999999996342e-01
vn 6.0876142900875707e-01 -2.8930244023967930e-16 7.9335334029120719e-01
vn 6.0876142900878971e-01 -2.8930244023967576e-16 7.9335334029118232e-01
vn 2.5881904510252773e-01 -3.0107422410878080e-16 9.6592582628906654e-01
vn 2.5881904510258019e-01 -3.0107422410878233e-16 9.6592582628905233e-01
vn -1.3052619222006173e-01 -2.6701018660195230e-16 9.9144486137380905e-01
vn -1.3052619222000852e-01 -2.6701018660195990e-16 9.9144486137381604e-01
vn -4.9999999999998257e-01 -1.9229626863835300e-16 8.6602540378444870e-01
vn -4.9999999999999301e-01 -1.9229626863835022e-16 8.6602540378444270e-01
vn 5.0000000000000022e-01 1.9229626863834904e-16 -8.6602540378443860e-01
vn 8.6602540378443860e-01 -2.3348698237724607e-16 5.0000000000000022e-01
vn -5.0000000000000022e-01 -1.9229626863834904e-16 8.6602540378443860e-01
vn -1.0605752387249021e-16 -1.0000000000000000e+00 -2.8327694488238942e-16
vn -8.6602540378443860e-01 2.3348698237724607e-16 -5.0000000000000022e-01

g face 0
f 1//1 2//2 9//3
f 9//3 2//2 8//4
f 8//4 2//2 3//5
f 8//4 3//5 7//6
f 7//6 3//5 4//7
f 7//6 4//7 6//8
f 6//8 4//7 5//9

g face 1
f 18//10 10//11 20//12
f 20//12 10//11 11//13
f 20//12 11//13 12//14
f 20//12 12//14 19//15
f 19//15 12//14 13//16
f 19//15 13//16 14//17
f 19//15 14//17 21//18
f 21//18 14//17 15//19
f 21//18 15//19 23//20
f 23//20 15//19 16//21
f 23//20 16//21 8//22
f 8//22 16//21 9//23
f 8//22 7//24 23//20
f 23//20 7//24 24//25
f 23//20 24//25 21//18
f 21//18 24//25 22//26
f 21//18 22//26 19//15
f 19//15 22//26 20//12
f 7//24 6//27 24//25
f 24//25 6//27 17//28
f 24//25 17//28 22//26
f 22//26 17//28 18//10
f 22//26 18//10 20//12

g face 2
f 10//29 25//30 11//31
f 11//31 25//30 26//32
f 11//31 26//32 12//33
f 12//33 26//32 27//34
f 12//33 27//34 13//35
f 13//35 27//34 28//36

g face 3
f 37//37 29//38 39//39
f 39//39 29//38 30//40
f 39//39 30//40 31//41
f 39//39 31//41 38//42
f 38//42 31//41 32//43
f 38//42 32//43 33//44
f 38//42 33//44 40//45
f 40//45 33//44 34//46
f 40//45 34//46 42//47
f 42//47 34//46 35//48
f 42//47 35//48 27//49
f 27//49 35//48 28//50
f 27//49 26//51 42//47
f 42//47 26//51 43//52
f 42//47 43//52 40//45
f 40//45 43//52 41//53
f 40//45 41//53 38//42
f 38//42 41//53 39//39
f 26//51 25//54 43//52
f 43//52 25//54 36//55
f 43//52 36//55 41//53
f 41//53 36//55 37//37
f 41//53 37//37 39//39

g face 4
f 44//56 45//57 29//58
f 29//58 45//57 30//59
f 30//59 45//57 46//60
f 30//59 46//60 31//61
f 31//61 46//60 47//62
f 31//61 47//62 32//63
f 32//63 47//62 48//64

g face 5
f 29//65 36//65 44//65
f 44//65 36//65 25//65
f 44//65 25//65 5//65
f 5//65 25//65 10//65
f 5//65 10//65 18//65
f 29//65 37//65 36//65
f 17//65 6//65 18//65
f 18//65 6//65 5//65

g face 6
f 47//66 2//67 48//68
f 48//68 2//67 1//68
f 48//68 1//68 49//69
f 2//67 47//66 3//70
f 3//70 47//66 46//71
f 3//70 46//71 4//72
f 4//72 46//71 45//72
f 4//72 45//72 5//73
f 5//73 45//72 44//74
f 48//68 49//69 66//75
f 66//75 49//69 50//76
f 66//75 50//76 65//76
f 65//76 50//76 51//77
f 65//76 51//77 64//78
f 64//78 51//77 52//79
f 64//78 52//79 63//80
f 63//80 52//79 53//81
f 63//80 53//81 62//82
f 62//82 53//81 54//83
f 62//82 54//83 61//84
f 61//84 54//83 55//85
f 61//84 55//85 60//86
f 60//86 55//85 56//87
f 60//86 56//87 59//88
f 59//88 56//87 58//89
f 58//89 56//87 57//90

g face 7
f 71//91 9//92 70//93
f 70//93 9//92 16//94
f 70//93 16//94 69//95
f 69//95 16//94 15//96
f 69//95 15//96 68//97
f 68//97 15//96 14//98
f 68//97 14//98 67//99
f 67//99 14//98 13//100

g face 8
f 76//101 28//102 75//103
f 75//103 28//102 35//104
f 75//103 35//104 74//105
f 74//105 35//104 34//106
f 74//105 34//106 73//107
f 73//107 34//106 33//108
f 73//107 33//108 72//109
f 72//109 33//108 32//110

g face 9
f 1//111 9//111 49//111
f 49//111 9//111 50//111
f 50//111 9//111 51//111
f 51//111 9//111 71//111
f 51//111 71//111 52//111
f 52//111 71//111 53//111
f 53//111 71//111 54//111
f 54//111 71//111 55//111
f 55//111 71//111 77//111
f 55//111 77//111 56//111
f 56//111 77//111 57//111

g face 10
f 28//112 76//112 13//112
f 13//112 76//112 67//112

g face 11
f 48//113 66//113 32//113
f 32//113 66//113 65//113
f 32//113 65//113 64//113
f 32//113 64//113 72//113
f 72//113 64//113 63//113
f 72//113 63//113 62//113
f 62//113 61//113 72//113
f 72//113 61//113 60//113
f 72//113 60//113 78//113
f 78//113 60//113 59//113
f 78//113 59//113 58//113

g face 12
f 70//114 69//114 71//114
f 71//114 69//114 77//114
f 77//114 69//114 68//114
f 77//114 68//114 67//114
f 67//114 76//114 77//114
f 77//114 76//114 78//114
f 78//114 76//114 75//114
f 78//114 75//114 74//114
f 73//114 72//114 74//114
f 74//114 72//114 78//114

g face 13
f 57//115 77//115 58//115
f 58//115 77//115 78//115

g halfedge 0 edge 0
l 5 4 3 2 1

g halfedge 1 edge 0
l 1 2 3 4 5

g halfedge 2 edge 1
l 6 5

g halfedge 3 edge 1
l 5 6

g halfedge 4 edge 2
l 6 7 8 9

g halfedge 5 edge 2
l 9 8 7 6

g halfedge 6 edge 3
l 1 9

g halfedge 7 edge 3
l 9 1

g halfedge 8 edge 4
l 10 11 12 13

g halfedge 9 edge 4
l 13 12 11 10

g halfedge 10 edge 5
l 9 16 15 14 13

g halfedge 11 edge 5
l 13 14 15 16 9

g halfedge 12 edge 6
l 10 18 17 6

g halfedge 13 edge 6
l 6 17 18 10

g halfedge 14 edge 7
l 25 26 27 28

g halfedge 15 edge 7
l 28 27 26 25

g halfedge 16 edge 8
l 13 28

g halfedge 17 edge 8
l 28 13

g halfedge 18 edge 9
l 25 10

g halfedge 19 edge 9
l 10 25

g halfedge 20 edge 10
l 29 30 31 32

g halfedge 21 edge 10
l 32 31 30 29

g halfedge 22 edge 11
l 28 35 34 33 32

g halfedge 23 edge 11
l 32 33 34 35 28

g halfedge 24 edge 12
l 29 37 36 25

g halfedge 25 edge 12
l 25 36 37 29

g halfedge 26 edge 13
l 48 47 46 45 44

g halfedge 27 edge 13
l 44 45 46 47 48

g halfedge 28 edge 14
l 32 48

g halfedge 29 edge 14
l 48 32

g halfedge 30 edge 15
l 44 29

g halfedge 31 edge 15
l 29 44

g halfedge 32 edge 16
l 44 5

g halfedge 33 edge 16
l 5 44

g halfedge 34 edge 17
l 1 49 50 51 52 53 54 55 56 57

g halfedge 35 edge 17
l 57 56 55 54 53 52 51 50 49 1

g halfedge 36 edge 18
l 58 57

g halfedge 37 edge 18
l 57 58

g halfedge 38 edge 19
l 58 59 60 61 62 63 64 65 66 48

g halfedge 39 edge 19
l 48 66 65 64 63 62 61 60 59 58

g halfedge 40 edge 20
l 13 67

g halfedge 41 edge 20
l 67 13

g halfedge 42 edge 21
l 71 70 69 68 67

g halfedge 43 edge 21
l 67 68 69 70 71

g halfedge 44 edge 22
l 71 9

g halfedge 45 edge 22
l 9 71

g halfedge 46 edge 23
l 72 32

g halfedge 47 edge 23
l 32 72

g halfedge 48 edge 24
l 76 75 74 73 72

g halfedge 49 edge 24
l 72 73 74 75 76

g halfedge 50 edge 25
l 76 28

g halfedge 51 edge 25
l 28 76

g halfedge 52 edge 26
l 77 71

g halfedge 53 edge 26
l 71 77

g halfedge 54 edge 27
l 57 77

g halfedge 55 edge 27
l 77 57

g halfedge 56 edge 28
l 67 76

g halfedge 57 edge 28
l 76 67

g halfedge 58 edge 29
l 78 58

g halfedge 59 edge 29
l 58 78

g halfedge 60 edge 30
l 72 78

g halfedge 61 edge 30
l 78 72

g halfedge 62 edge 31
l 77 78

g halfedge 63 edge 31
l 78 77

g vertex 0
p 1

g vertex 1
p 5

g vertex 2
p 6

g vertex 3
p 9

g vertex 4
p 10

g vertex 5
p 13

g vertex 6
p 25

g vertex 7
p 28

g vertex 8
p 29

g vertex 9
p 32

g vertex 10
p 44

g vertex 11
p 48

g vertex 12
p 57

g vertex 13
p 58

g vertex 14
p 67

g vertex 15
p 71

g vertex 16
p 72

g vertex 17
p 76

g vertex 18
p 77

g vertex 19
p 78

# End of file
