22700 0 2 4           
16 Autodesk Neutron 20 ASM 227.1.1.65535 NT 24 Wed Aug 25 06:16:47 2021 
10 9.999999999999999547e-07 1.000000000000000036e-10 
asmheader $-1 -1 @13 227.1.1.65535 #
body $2 1166 $-1 $3 $-1 $-1 #
ATTRIB_CUSTOM-attrib $-1 -1 $4 $-1 $1 @20 Timestamp_attrib_def 1 1448291910001 #
lump $-1 -1 $-1 $-1 $5 $1 #
ATTRIB_CUSTOM-attrib $6 -1 $-1 $2 $1 @22 generic_tag_attrib_def 3 3 -1 @23 generic_tag_attrib_def  1 3 @3 781 6 0 0 #
shell $-1 -1 $-1 $-1 $-1 $7 $-1 $3 #
ATTRIB_CUSTOM-attrib $-1 -1 $-1 $-1 $4 @22 generic_tag_attrib_def 3 3 -1 @23 generic_tag_attrib_def  1 0 @0  0 1 790 0 #
face $8 1040 $-1 $9 $10 $5 $-1 $11 forward single #
ATTRIB_CUSTOM-attrib $12 -1 $-1 $-1 $7 @22 generic_tag_attrib_def 3 3 -1 @23 generic_tag_attrib_def  1 1 @1 1 0 8 679 683 -687 -688 -691 -692 695 781 0 #
face $13 1041 $-1 $14 $15 $5 $-1 $16 forward single #
loop $-1 -1 $-1 $-1 $17 $7 #
cone-surface $-1 -1 $-1 1.242187518626453269 -1.020468745343406258 -4.408593806752476141 -5.551115123125781716e-16 -9.95799250102866936e-17 1 -0.008286407592029856536 0.008286407592029851332 -3.7747204034311197e-18 1 I I 0 1 0.01171875 forward I I I I #
ATTRIB_CUSTOM-attrib $-1 -1 $-1 $-1 $8 @22 generic_tag_attrib_def 3 3 -1 @23 generic_tag_attrib_def  1 0 @0  0 8 689 693 697 699 712 713 742 790 0 #
ATTRIB_CUSTOM-attrib $18 -1 $-1 $-1 $9 @22 generic_tag_attrib_def 3 3 -1 @23 generic_tag_attrib_def  1 1 @1 2 0 8 679 683 -687 -688 -691 -692 695 781 0 #
face $19 1042 $-1 $20 $21 $5 $-1 $22 forward single #
loop $-1 -1 $-1 $-1 $23 $9 #
torus-surface $-1 -1 $-1 1.246093768626453269 -1.020468745343406258 -4.451562557625592831 8.665930076838058067e-32 1 9.95799250102866936e-17 0.003906250000000004337 0.01171875 -5.551115123125781716e-16 -9.95799250102866936e-17 1 forward_v I I I I #
coedge $-1 -1 $-1 $24 $25 $26 $27 forward $10 0 $-1 #
ATTRIB_CUSTOM-attrib $-1 -1 $-1 $-1 $13 @22 generic_tag_attrib_def 3 3 -1 @23 generic_tag_attrib_def  1 0 @0  0 8 689 693 697 699 712 713 742 790 0 #
ATTRIB_CUSTOM-attrib $28 -1 $-1 $-1 $14 @22 generic_tag_attrib_def 3 3 -1 @23 generic_tag_attrib_def  1 1 @1 3 0 8 679 683 -687 -688 -691 -692 695 781 0 #
face $29 1043 $-1 $30 $31 $5 $-1 $32 forward single #
loop $-1 -1 $-1 $-1 $33 $14 #
cone-surface $-1 -1 $-1 1.230468768626453269 -1.020468745343406258 -4.455468807625591054 -1 1.419372635368143794e-31 -5.551115123125781716e-16 4.599880250049992221e-18 0.00828640759203008552 -0.008286407592029618879 1 I I 0 1 0.01171874999999999653 forward I I I I #
coedge $-1 -1 $-1 $34 $35 $36 $37 forward $15 0 $-1 #
coedge $-1 -1 $-1 $38 $17 $39 $40 forward $10 0 $-1 #
coedge $-1 -1 $-1 $17 $38 $41 $42 forward $10 0 $-1 #
coedge $-1 -1 $-1 $43 $44 $17 $27 reversed $45 0 $-1 #
edge $-1 1054 $-1 $46 0.01412638098522204719 $47 0.02825677078290862732 $26 $48 forward @7 unknown #
ATTRIB_CUSTOM-attrib $-1 -1 $-1 $-1 $19 @22 generic_tag_attrib_def 3 3 -1 @23 generic_tag_attrib_def  1 0 @0  0 8 689 693 697 699 712 713 742 790 0 #
ATTRIB_CUSTOM-attrib $49 -1 $-1 $-1 $20 @22 generic_tag_attrib_def 3 3 -1 @23 generic_tag_attrib_def  1 1 @1 4 0 8 679 683 -687 -688 -691 -692 695 781 0 #
face $50 1044 $-1 $51 $52 $5 $-1 $53 forward single #
loop $-1 -1 $-1 $-1 $54 $20 #
torus-surface $-1 -1 $-1 1.253906268626453269 -1.020468745343406258 -4.451562557625592831 8.665930076838058067e-32 1 9.95799250102866936e-17 0.003906250000000002602 0.01171875 -5.551115123125781716e-16 -9.95799250102866936e-17 1 forward_v I I I I #
coedge $-1 -1 $-1 $55 $56 $57 $58 forward $21 0 $-1 #
coedge $-1 -1 $-1 $59 $23 $60 $61 forward $15 0 $-1 #
coedge $-1 -1 $-1 $23 $59 $62 $63 forward $15 0 $-1 #
coedge $-1 -1 $-1 $56 $55 $23 $37 reversed $21 0 $-1 #
edge $-1 1058 $-1 $64 0 $65 1.570796326794896558 $23 $66 forward @7 tangent #
coedge $-1 -1 $-1 $25 $24 $59 $67 forward $10 0 $-1 #
coedge $-1 -1 $-1 $68 $62 $24 $40 reversed $69 0 $-1 #
edge $-1 1055 $-1 $47 -0.06528265069197747295 $70 0.03437500069849219742 $39 $71 forward @7 tangent #
coedge $-1 -1 $-1 $72 $73 $25 $42 reversed $74 0 $-1 #
edge $-1 1057 $-1 $75 -0.03437500069849219742 $46 0.06493817144591629287 $41 $76 forward @7 tangent #
coedge $77 -1 $-1 $78 $26 $73 $79 reversed $45 0 $-1 #
coedge $-1 -1 $-1 $26 $80 $68 $81 reversed $45 0 $-1 #
loop $-1 -1 $-1 $-1 $80 $82 #
vertex $-1 1244 $-1 $27 0 $83 #
vertex $-1 1245 $-1 $27 1 $84 #
intcurve-curve $-1 -1 $-1 forward { int_int_cur 22140 full nubs 3 open 5 
	0.01412638098522204719 3 0.01765964143034294553 2 0.02119290187546384041 2 0.02472483632918623386 2 0.02825677078290862732 3 
	1.230468768626453269 -1.020468745343406258 -4.32742109244508022 
	1.230468768626453269 -1.01899674446989108 -4.327397380046226871 
	1.230763049248782437 -1.017426963086568659 -4.327359392737589516 
	1.23195931277399251 -1.014539571037984755 -4.32726747859305938 
	1.232861304924244505 -1.01322195517871072 -4.327213835495854255 
	1.234942029945228059 -1.011141607588932345 -4.327119604539817921 
	1.236259434877099439 -1.010239953452253703 -4.327072654400206275 
	1.239146358480038623 -1.009044152505992331 -4.327007955700227448 
	1.240715879270735567 -1.008749995343406258 -4.32699049338750541 
	1.242187518626453269 -1.008749995343406258 -4.32699049338750541 
	0.0001148411381161891065 
	
	cone 1.242187518626453269 -1.020468745343406258 -4.408593806752476141 -5.551115123125781716e-16 -9.95799250102866936e-17 1 -0.008286407592029856536 0.008286407592029851332 -3.7747204034311197e-18 1 I I 0 1 0.01171875 forward I I I I 
	cone 1.230468768626453047 -1.025049001609450672 -4.043091309276732659 1 -1.419372635368143794e-31 5.551115123125781716e-16 1.05316447150061169e-16 -0.2118259983905685095 -0.1897212448564001008 1 I I 0 -1 0.2843666723510742678 forward I I I I 
	nullbs 
	nullbs 
	I I 
	0 
	0 
	0 
	
	0 } I I #
ATTRIB_CUSTOM-attrib $-1 -1 $-1 $-1 $29 @22 generic_tag_attrib_def 3 3 -1 @23 generic_tag_attrib_def  1 0 @0  0 8 689 693 697 699 712 713 742 790 0 #
ATTRIB_CUSTOM-attrib $85 -1 $-1 $-1 $30 @22 generic_tag_attrib_def 3 3 -1 @23 generic_tag_attrib_def  1 1 @1 5 0 8 679 683 -687 -688 -691 -692 695 781 0 #
face $86 1045 $-1 $82 $69 $5 $-1 $87 forward single #
loop $-1 -1 $-1 $-1 $88 $30 #
cone-surface $-1 -1 $-1 1.257812518626453269 -1.020468745343406258 -4.408593806752476141 -5.551115123125781716e-16 -9.95799250102866936e-17 1 0.008286407592029856536 0.008286407592029851332 5.425040096669125129e-18 1 I I 0 1 0.01171875 forward I I I I #
coedge $-1 -1 $-1 $89 $90 $91 $92 forward $31 0 $-1 #
coedge $-1 -1 $-1 $36 $33 $93 $94 forward $21 0 $-1 #
coedge $-1 -1 $-1 $33 $36 $95 $96 forward $21 0 $-1 #
coedge $-1 -1 $-1 $90 $89 $33 $58 reversed $31 0 $-1 #
edge $-1 1061 $-1 $97 0 $98 1.570796326794896558 $33 $99 forward @7 tangent #
coedge $-1 -1 $-1 $35 $34 $38 $67 reversed $15 0 $-1 #
coedge $-1 -1 $-1 $100 $101 $34 $61 reversed $102 0 $-1 #
edge $-1 1059 $-1 $65 -0.7853981633974495002 $75 0.7853981633974470578 $60 $103 forward @7 tangent #
coedge $-1 -1 $-1 $39 $95 $35 $63 reversed $69 0 $-1 #
edge $-1 1060 $-1 $70 -0.7853981633974470578 $64 0.7853981633974495002 $62 $104 forward @7 tangent #
vertex $-1 1248 $-1 $37 0 $105 #
vertex $-1 1249 $-1 $37 1 $106 #
ellipse-curve $-1 -1 $-1 1.246093768626453269 -1.020468745343406258 -4.455468807625591054 -1 1.419372635368143794e-31 -5.551115123125781716e-16 1.01553868087946814e-33 0.01171874999999999306 1.166952246214284865e-18 1 F 0 F 1.570796326794896558 #
edge $-1 1056 $-1 $70 0 $75 1.570796326794896558 $38 $107 forward @7 tangent #
coedge $-1 -1 $-1 $108 $39 $44 $81 forward $69 0 $-1 #
loop $-1 -1 $-1 $-1 $108 $51 #
vertex $-1 1246 $-1 $40 1 $109 #
straight-curve $-1 -1 $-1 1.242187518626453269 -1.008749995343406258 -4.408593806752477029 6.938893903907227392e-16 1.244749062628575781e-16 -1.25 F -0.1509385020954758794 F 0.05718850069849246154 #
coedge $-1 -1 $-1 $110 $41 $101 $111 reversed $74 0 $-1 #
coedge $112 -1 $-1 $41 $113 $43 $79 forward $74 0 $-1 #
loop $-1 -1 $-1 $-1 $41 $114 #
vertex $-1 1247 $-1 $67 1 $115 #
straight-curve $-1 -1 $-1 1.230468768626453269 -1.020468745343406258 -4.408593806752476141 -6.938893903907227392e-16 -1.244749062628575781e-16 1.25 F -0.05718850069849246154 F 0.1509385020954758794 #
ATTRIB_CUSTOM-attrib $-1 -1 $-1 $-1 $43 @17 sketch_attrib_def 1 1 3 @13 192 0 1 0 1 1 #
coedge $-1 -1 $-1 $116 $43 $117 $118 forward $45 0 $-1 #
edge $-1 1071 $-1 $119 6.703828348706799033e-17 $46 0.8564991701543941405 $43 $120 forward @7 unknown #
coedge $-1 -1 $-1 $44 $116 $88 $121 reversed $45 0 $-1 #
edge $-1 1070 $-1 $47 0.009374999999999999653 $122 0.02187499999999999861 $44 $123 forward @7 unknown #
face $124 1046 $-1 $125 $45 $5 $-1 $126 forward single #
point $-1 -1 $-1 1.230468768626453269 -1.020468745343406258 -4.327421092445081996 #
point $-1 -1 $-1 1.242187518626453269 -1.008749995343406258 -4.32699049338750541 #
ATTRIB_CUSTOM-attrib $-1 -1 $-1 $-1 $50 @22 generic_tag_attrib_def 3 3 -1 @23 generic_tag_attrib_def  1 0 @0  0 8 689 693 697 699 712 713 742 790 0 #
ATTRIB_CUSTOM-attrib $127 -1 $-1 $-1 $51 @22 generic_tag_attrib_def 3 3 -1 @23 generic_tag_attrib_def  1 1 @1 6 0 8 675 683 -686 -688 -690 -692 695 781 0 #
plane-surface $-1 -1 $-1 1.230468768626453269 -1.008749995343406258 -4.467187557625591943 8.665930076838058067e-32 1 9.95799250102866936e-17 -8.6736173798840335e-16 -1.555936328285735504e-16 1.5625 forward_v I I I I #
coedge $-1 -1 $-1 $128 $129 $80 $121 forward $52 0 $-1 #
coedge $-1 -1 $-1 $57 $54 $130 $131 forward $31 0 $-1 #
coedge $-1 -1 $-1 $54 $57 $132 $133 forward $31 0 $-1 #
coedge $-1 -1 $-1 $129 $128 $54 $92 reversed $52 0 $-1 #
edge $-1 1064 $-1 $134 0 $135 1.570796326794896558 $54 $136 forward @7 tangent #
coedge $-1 -1 $-1 $137 $138 $55 $94 reversed $139 0 $-1 #
edge $-1 1062 $-1 $98 -0.01874999999999999931 $65 -0.01250000000000000243 $93 $140 forward @7 tangent #
coedge $-1 -1 $-1 $62 $132 $56 $96 reversed $69 0 $-1 #
edge $-1 1063 $-1 $64 0.01250000000000000243 $97 0.01874999999999999931 $95 $141 forward @7 tangent #
vertex $-1 1250 $-1 $58 0 $142 #
vertex $-1 1251 $-1 $58 1 $143 #
ellipse-curve $-1 -1 $-1 1.253906268626453269 -1.020468745343406258 -4.455468807625591054 -1 1.419372635368143794e-31 -5.551115123125781716e-16 1.01553868087946814e-33 0.01171874999999999306 1.166952246214284865e-18 1 F 0 F 1.570796326794896558 #
coedge $-1 -1 $-1 $144 $60 $138 $145 forward $102 0 $-1 #
coedge $-1 -1 $-1 $60 $144 $72 $111 forward $102 0 $-1 #
loop $-1 -1 $-1 $-1 $60 $125 #
ellipse-curve $-1 -1 $-1 1.246093768626453269 -1.020468745343406258 -4.451562557625592831 8.665930076838058067e-32 1 9.95799250102866936e-17 -0.01104854345603981276 1.100213128825341061e-18 -0.01104854345603980062 1 I I #
ellipse-curve $-1 -1 $-1 1.246093768626453269 -1.008749995343406258 -4.451562557625592831 -8.665930076838058067e-32 -1 -9.95799250102866936e-17 -0.002762135864009955359 2.750532822063352652e-19 -0.002762135864009952323 1 I I #
point $-1 -1 $-1 1.246093768626453269 -1.008749995343406258 -4.455468807625591943 #
point $-1 -1 $-1 1.246093768626453269 -1.020468745343406258 -4.467187557625592831 #
ellipse-curve $-1 -1 $-1 1.242187518626453269 -1.020468745343406258 -4.451562557625592831 -5.551115123125781716e-16 -9.95799250102866936e-17 1 1.01553868087946814e-33 0.01171874999999999306 1.166952246214284865e-18 1 F 0 F 1.570796326794896558 #
coedge $-1 -1 $-1 $132 $68 $129 $146 reversed $69 0 $-1 #
point $-1 -1 $-1 1.242187518626453269 -1.008749995343406258 -4.451562557625592831 #
coedge $147 -1 $-1 $113 $72 $148 $149 forward $74 0 $-1 #
edge $-1 1076 $-1 $150 -0.05000000074505810133 $75 0.1385000022351741966 $101 $151 forward @7 tangent #
ATTRIB_CUSTOM-attrib $-1 -1 $-1 $-1 $73 @17 sketch_attrib_def 1 1 3 @13 192 0 1 0 1 1 #
coedge $152 -1 $-1 $73 $110 $153 $154 forward $74 0 $-1 #
face $155 1049 $-1 $156 $74 $5 $-1 $157 reversed single #
point $-1 -1 $-1 1.230468768626453269 -1.020468745343406258 -4.451562557625592831 #
coedge $-1 -1 $-1 $80 $78 $158 $159 reversed $45 0 $-1 #
coedge $-1 -1 $-1 $153 $160 $78 $118 reversed $161 0 $-1 #
edge $-1 1072 $-1 $119 0 $162 0.02500000000000000139 $117 $163 forward @7 unknown #
vertex $-1 1256 $-1 $79 0 $164 #
ellipse-curve $-1 -1 $-1 1.230468768626453047 -1.025049001609450672 -4.043091309276732659 1 -1.419372635368143794e-31 5.551115123125781716e-16 1.05316447150061169e-16 -0.2118259983905685095 -0.1897212448564001008 1 I I #
edge $-1 1067 $-1 $122 0.02825677079048267634 $165 0.04238716058816924953 $80 $166 forward @7 unknown #
vertex $-1 1254 $-1 $121 0 $167 #
straight-curve $-1 -1 $-1 1.230468768626453269 -1.008749995343406258 -4.32699049338750541 1.25 -1.774215794210179798e-31 6.938893903907227392e-16 F -0.031251000000000001 F 0.062501000000000001 #
ATTRIB_CUSTOM-attrib $168 -1 $-1 $-1 $82 @22 generic_tag_attrib_def 3 3 -1 @23 generic_tag_attrib_def  1 1 @1 7 0 8 675 683 -687 -688 -691 -692 695 781 0 #
face $169 1047 $-1 $170 $102 $5 $-1 $171 forward single #
cone-surface $-1 -1 $-1 1.230468768626453047 -1.025049001609450672 -4.043091309276732659 1 -1.419372635368143794e-31 5.551115123125781716e-16 1.05316447150061169e-16 -0.2118259983905685095 -0.1897212448564001008 1 I I 0 -1 0.2843666723510742678 forward I I I I #
ATTRIB_CUSTOM-attrib $-1 -1 $-1 $-1 $86 @22 generic_tag_attrib_def 3 3 -1 @23 generic_tag_attrib_def  1 0 @0  0 8 689 693 697 699 712 713 742 790 0 #
coedge $-1 -1 $-1 $91 $88 $172 $173 forward $52 0 $-1 #
coedge $-1 -1 $-1 $88 $91 $108 $146 forward $52 0 $-1 #
coedge $-1 -1 $-1 $174 $175 $89 $131 reversed $176 0 $-1 #
edge $-1 1065 $-1 $135 -0.7853981633974472798 $98 0.7853981633974492782 $130 $177 forward @7 tangent #
coedge $-1 -1 $-1 $95 $108 $90 $133 reversed $69 0 $-1 #
edge $-1 1066 $-1 $97 -0.7853981633974492782 $134 0.7853981633974472798 $132 $178 forward @7 tangent #
vertex $-1 1252 $-1 $92 0 $179 #
vertex $-1 1253 $-1 $92 1 $180 #
ellipse-curve $-1 -1 $-1 1.257812518626453269 -1.020468745343406258 -4.451562557625592831 5.551115123125781716e-16 9.95799250102866936e-17 -1 1.01553868087946814e-33 0.01171874999999999306 1.166952246214284865e-18 1 F 0 F 1.570796326794896558 #
coedge $-1 -1 $-1 $181 $93 $175 $182 reversed $139 0 $-1 #
coedge $-1 -1 $-1 $93 $181 $100 $145 reversed $139 0 $-1 #
loop $-1 -1 $-1 $-1 $93 $156 #
straight-curve $-1 -1 $-1 1.230468768626453269 -1.020468745343406258 -4.467187557625591054 -1.25 1.774215794210179798e-31 -6.938893903907227392e-16 F -0.02906349999999999906 F -0.00218650000000000181 #
straight-curve $-1 -1 $-1 1.230468768626453269 -1.008749995343406258 -4.455468807625591943 1.25 -1.774215794210179798e-31 6.938893903907227392e-16 F 0.00218650000000000181 F 0.02906349999999999906 #
point $-1 -1 $-1 1.253906268626453269 -1.008749995343406258 -4.455468807625591943 #
point $-1 -1 $-1 1.253906268626453269 -1.020468745343406258 -4.467187557625591054 #
coedge $-1 -1 $-1 $101 $100 $183 $184 forward $102 0 $-1 #
edge $-1 1074 $-1 $65 -13.85000022351741755 $185 5.000000074505809522 $100 $186 forward @7 tangent #
edge $-1 1069 $-1 $134 -0.03437500069849219742 $122 0.06528265069197747295 $108 $187 forward @7 tangent #
ATTRIB_CUSTOM-attrib $-1 -1 $-1 $-1 $110 @17 sketch_attrib_def 1 1 3 @13 185 0 1 0 1 1 #
coedge $188 -1 $-1 $183 $189 $110 $149 reversed $190 0 $-1 #
edge $-1 1080 $-1 $150 0.009999999999999786837 $191 0.1500000022351741791 $148 $192 forward @7 unknown #
vertex $-1 1259 $-1 $184 1 $193 #
straight-curve $-1 -1 $-1 1.230468768626453269 -1.236874998835866046 -4.451562557625592831 1.354051574505957521e-31 1.5625 1.555936328285735504e-16 I I #
ATTRIB_CUSTOM-attrib $-1 -1 $194 $-1 $113 @17 sketch_attrib_def 1 1 3 @13 186 0 1 0 1 2 #
coedge $195 -1 $-1 $196 $117 $113 $154 reversed $161 0 $-1 #
edge $-1 1081 $-1 $191 0 $119 0.0499999999999999889 $153 $197 forward @7 unknown #
ATTRIB_CUSTOM-attrib $198 -1 $-1 $-1 $114 @22 generic_tag_attrib_def 3 3 -1 @23 generic_tag_attrib_def  1 1 @1 1 0 8 675 683 -687 -688 -691 -692 695 781 0 #
face $199 1050 $-1 $200 $139 $5 $-1 $201 forward single #
plane-surface $-1 -1 $-1 1.230468768626453269 -1.158749997671712828 -4.350000055879362115 1 -1.419372635368143794e-31 5.551115123125781716e-16 8.6736173798840335e-16 1.555936328285735504e-16 -1.5625 forward_v I I I I #
coedge $-1 -1 $-1 $202 $172 $116 $159 forward $203 0 $-1 #
edge $-1 1073 $-1 $165 -0.8564991701543941405 $162 -6.703828348706799033e-17 $116 $204 forward @7 unknown #
coedge $-1 -1 $-1 $117 $196 $202 $205 reversed $161 0 $-1 #
loop $-1 -1 $-1 $-1 $153 $206 #
vertex $-1 1257 $-1 $118 1 $207 #
straight-curve $-1 -1 $-1 1.230468768626453269 -1.236875000000019265 -4.232812554133132288 1.5625 -2.217769742762724528e-31 8.6736173798840335e-16 I I #
point $-1 -1 $-1 1.230468768626453269 -1.236875000000019265 -4.232812554133132288 #
vertex $-1 1255 $-1 $121 1 $208 #
intcurve-curve $-1 -1 $-1 forward { int_int_cur 22140 full nubs 3 open 5 
	0.02825677079048267634 3 0.03178870524420506632 2 0.03532063969792745978 2 0.03885390014304835465 2 0.04238716058816924953 3 
	1.257812518626453269 -1.008749995343406258 -4.32699049338750541 
	1.259284157982170971 -1.008749995343406258 -4.32699049338750541 
	1.260853678772867914 -1.009044152505992331 -4.327007955700227448 
	1.263740602375807098 -1.010239953452253703 -4.327072654400206275 
	1.265058007307678478 -1.011141607588932345 -4.327119604539817921 
	1.267138732328662032 -1.01322195517871072 -4.327213835495854255 
	1.268040724478913805 -1.014539571037984755 -4.32726747859305938 
	1.2692369880041241 -1.017426963086568659 -4.327359392737589516 
	1.269531268626453269 -1.01899674446989108 -4.327397380046226871 
	1.269531268626453269 -1.020468745343406258 -4.32742109244508022 
	0.0001148411381160020816 
	
	cone 1.257812518626453269 -1.020468745343406258 -4.408593806752476141 -5.551115123125781716e-16 -9.95799250102866936e-17 1 0.008286407592029856536 0.008286407592029851332 5.425040096669125129e-18 1 I I 0 1 0.01171875 forward I I I I 
	cone 1.230468768626453047 -1.025049001609450672 -4.043091309276732659 1 -1.419372635368143794e-31 5.551115123125781716e-16 1.05316447150061169e-16 -0.2118259983905685095 -0.1897212448564001008 1 I I 0 -1 0.2843666723510742678 forward I I I I 
	nullbs 
	nullbs 
	I I 
	0 
	0 
	0 
	
	0 } I I #
point $-1 -1 $-1 1.257812518626453269 -1.008749995343406258 -4.32699049338750541 #
ATTRIB_CUSTOM-attrib $-1 -1 $-1 $-1 $124 @22 generic_tag_attrib_def 3 3 -1 @23 generic_tag_attrib_def  1 0 @0  0 8 689 693 697 699 712 713 742 790 0 #
ATTRIB_CUSTOM-attrib $209 -1 $-1 $-1 $125 @22 generic_tag_attrib_def 3 3 -1 @23 generic_tag_attrib_def  1 1 @1 1 0 8 678 683 -687 -688 -691 -692 695 781 0 #
face $210 1048 $-1 $114 $176 $5 $-1 $211 forward single #
cone-surface $-1 -1 $-1 1.246093768626453269 -1.236874998835866046 -4.451562557625592831 -8.665930076838058067e-32 -1 -9.95799250102866936e-17 -0.01104854345603991858 1.100213128825316409e-18 -0.0110485434560396948 1 I I 0 1 0.01562500000000000347 forward I I I I #
coedge $-1 -1 $-1 $158 $212 $128 $173 reversed $203 0 $-1 #
edge $-1 1068 $-1 $165 -0.06493817144591629287 $135 0.03437500069849219742 $172 $213 forward @7 tangent #
coedge $-1 -1 $-1 $214 $130 $212 $215 reversed $176 0 $-1 #
coedge $-1 -1 $-1 $130 $214 $137 $182 forward $176 0 $-1 #
loop $-1 -1 $-1 $-1 $130 $170 #
ellipse-curve $-1 -1 $-1 1.253906268626453269 -1.020468745343406258 -4.451562557625592831 8.665930076838058067e-32 1 9.95799250102866936e-17 0.01104854345603982491 1.100213128825328735e-18 -0.01104854345603979021 1 I I #
ellipse-curve $-1 -1 $-1 1.253906268626453269 -1.008749995343406258 -4.451562557625592831 -8.665930076838058067e-32 -1 -9.95799250102866936e-17 0.002762135864009957961 2.750532822063352652e-19 -0.002762135864009948854 1 I I #
point $-1 -1 $-1 1.257812518626453269 -1.008749995343406258 -4.451562557625592831 #
point $-1 -1 $-1 1.269531268626453269 -1.020468745343406258 -4.451562557625592831 #
coedge $-1 -1 $-1 $138 $137 $216 $217 reversed $139 0 $-1 #
edge $-1 1079 $-1 $218 -0.05000000074505810133 $98 0.1385000022351741966 $175 $219 forward @7 tangent #
coedge $-1 -1 $-1 $216 $148 $144 $184 reversed $190 0 $-1 #
edge $-1 1075 $-1 $185 -0.7853981633974590482 $150 0.7853981633974376209 $183 $220 forward @7 unknown #
vertex $-1 1258 $-1 $145 1 $221 #
straight-curve $-1 -1 $-1 1.246093768626453269 -1.236874998835866046 -4.467187557625592831 -1.354051574505957521e-33 -0.01562500000000000347 -1.555936328285729587e-18 I I #
straight-curve $-1 -1 $-1 1.257812518626453269 -1.008749995343406258 -4.408593806752477029 -6.938893903907227392e-16 -1.244749062628575781e-16 1.25 F -0.05718850069849246154 F 0.1509385020954758794 #
ATTRIB_CUSTOM-attrib $-1 -1 $-1 $-1 $148 @17 sketch_attrib_def 1 1 3 @13 185 0 1 0 1 1 #
coedge $-1 -1 $-1 $148 $222 $196 $223 reversed $190 0 $-1 #
loop $-1 -1 $-1 $-1 $183 $224 #
vertex $-1 1262 $-1 $149 1 $225 #
straight-curve $-1 -1 $-1 1.230468768626453269 -1.315000000000019265 -4.467187557625592831 -8.6736173798840335e-16 -1.555936328285735504e-16 1.5625 F 0 F 0.1500000022351741791 #
point $-1 -1 $-1 1.230468768626453269 -1.315000000000019265 -4.451562557625592831 #
ATTRIB_CUSTOM-attrib $-1 -1 $-1 $152 $113 @17 sketch_attrib_def 1 1 3 @13 189 0 1 0 1 1 #
ATTRIB_CUSTOM-attrib $-1 -1 $226 $-1 $153 @17 sketch_attrib_def 1 1 3 @13 189 0 1 0 1 1 #
coedge $-1 -1 $-1 $160 $153 $189 $223 forward $161 0 $-1 #
straight-curve $-1 -1 $-1 1.230468768626453269 -1.315000000000019265 -4.232812554133133176 1.354051574505957521e-31 1.5625 1.555936328285735504e-16 F 0 F 0.0499999999999999889 #
ATTRIB_CUSTOM-attrib $-1 -1 $-1 $-1 $155 @22 generic_tag_attrib_def 3 3 -1 @23 generic_tag_attrib_def  1 0 @0  0 8 689 693 697 699 712 713 742 790 0 #
ATTRIB_CUSTOM-attrib $227 -1 $-1 $-1 $156 @22 generic_tag_attrib_def 3 3 -1 @23 generic_tag_attrib_def  1 1 @1 5 0 8 675 683 -687 -688 -691 -692 695 781 0 #
face $228 1051 $-1 $224 $203 $5 $-1 $229 forward single #
plane-surface $-1 -1 $-1 1.230468768626453269 -1.315000000000019265 -4.467187557625592831 5.551115123125781716e-16 9.95799250102866936e-17 -1 1.354051574505957521e-31 1.5625 1.555936328285735504e-16 forward_v I I I I #
coedge $-1 -1 $-1 $230 $158 $160 $205 forward $203 0 $-1 #
loop $-1 -1 $-1 $-1 $172 $200 #
ellipse-curve $-1 -1 $-1 1.269531268626453047 -1.025049001609450672 -4.043091309276732659 -1 1.419372635368143794e-31 -5.551115123125781716e-16 1.05316447150061169e-16 -0.2118259983905685095 -0.1897212448564001008 1 I I #
edge $-1 1083 $-1 $162 -0.0499999999999999889 $231 -0 $160 $232 forward @7 unknown #
face $233 1053 $-1 $-1 $161 $5 $-1 $234 forward single #
point $-1 -1 $-1 1.269531268626453269 -1.236875000000019265 -4.232812554133132288 #
point $-1 -1 $-1 1.269531268626453269 -1.020468745343406258 -4.327421092445081996 #
ATTRIB_CUSTOM-attrib $-1 -1 $-1 $-1 $169 @22 generic_tag_attrib_def 3 3 -1 @23 generic_tag_attrib_def  1 0 @0  0 8 689 693 697 699 712 713 742 790 0 #
ATTRIB_CUSTOM-attrib $235 -1 $-1 $-1 $170 @22 generic_tag_attrib_def 3 3 -1 @23 generic_tag_attrib_def  1 1 @1 1 0 8 677 683 -687 -688 -691 -692 695 781 0 #
cone-surface $-1 -1 $-1 1.253906268626453269 -1.236874998835866046 -4.451562557625592831 8.665930076838058067e-32 1 9.95799250102866936e-17 0.01104854345603993246 1.100213128825316409e-18 -0.01104854345603968092 1 I I 0 1 0.01562500000000000347 forward I I I I #
coedge $-1 -1 $-1 $172 $230 $174 $215 forward $203 0 $-1 #
straight-curve $-1 -1 $-1 1.269531268626453269 -1.020468745343406258 -4.408593806752476141 6.938893903907227392e-16 1.244749062628575781e-16 -1.25 F -0.1509385020954758794 F 0.05718850069849246154 #
coedge $-1 -1 $-1 $175 $174 $236 $237 forward $176 0 $-1 #
edge $-1 1077 $-1 $238 -5.000000074505809522 $135 13.85000022351741755 $212 $239 forward @7 tangent #
coedge $-1 -1 $-1 $236 $183 $181 $217 forward $190 0 $-1 #
edge $-1 1082 $-1 $185 0.01000000000000000194 $218 0.01499999999999999944 $216 $240 forward @7 unknown #
vertex $-1 1261 $-1 $237 1 $241 #
straight-curve $-1 -1 $-1 1.253906268626453269 -1.236874998835866046 -4.467187557625591943 1.354051574505957521e-31 1.5625 1.555936328285735504e-16 I I #
ellipse-curve $-1 -1 $-1 1.246093768626453269 -1.315000000000019265 -4.451562557625592831 8.665930076838058067e-32 1 9.95799250102866936e-17 -0.01104854345603991858 1.100213128825316409e-18 -0.0110485434560396948 1 I I #
point $-1 -1 $-1 1.246093768626453269 -1.315000000000019265 -4.467187557625592831 #
coedge $-1 -1 $-1 $189 $236 $230 $242 reversed $190 0 $-1 #
edge $-1 1085 $-1 $191 0 $231 0.02500000000000000139 $196 $243 forward @7 unknown #
face $244 1052 $-1 $206 $190 $5 $-1 $245 forward single #
point $-1 -1 $-1 1.230468768626453269 -1.315000000000019265 -4.232812554133133176 #
ATTRIB_CUSTOM-attrib $-1 -1 $-1 $195 $153 @17 sketch_attrib_def 1 1 3 @13 186 0 1 0 1 2 #
ATTRIB_CUSTOM-attrib $-1 -1 $-1 $-1 $199 @22 generic_tag_attrib_def 3 3 -1 @23 generic_tag_attrib_def  1 0 @0  0 8 689 693 697 699 712 713 742 790 0 #
ATTRIB_CUSTOM-attrib $246 -1 $-1 $-1 $200 @22 generic_tag_attrib_def 3 3 -1 @23 generic_tag_attrib_def  1 1 @1 2 0 8 675 683 -687 -688 -691 -692 695 781 0 #
plane-surface $-1 -1 $-1 1.269531268626453269 -1.158749997671712828 -4.350000055879362115 1 -1.419372635368143794e-31 5.551115123125781716e-16 8.6736173798840335e-16 1.555936328285735504e-16 -1.5625 forward_v I I I I #
coedge $-1 -1 $-1 $212 $202 $222 $242 forward $203 0 $-1 #
vertex $-1 1263 $-1 $205 1 $247 #
straight-curve $-1 -1 $-1 1.269531268626453269 -1.315000000000019265 -4.232812554133132288 -1.354051574505957521e-31 -1.5625 -1.555936328285735504e-16 I I #
ATTRIB_CUSTOM-attrib $248 -1 $-1 $-1 $206 @22 generic_tag_attrib_def 3 3 -1 @23 generic_tag_attrib_def  1 1 @1 3 0 6 675 683 -688 -692 695 781 0 #
plane-surface $-1 -1 $-1 1.230468768626453269 -1.236875000000019265 -4.232812554133132288 -5.551115123125781716e-16 -9.95799250102866936e-17 1 -1.354051574505957521e-31 -1.5625 -1.555936328285735504e-16 forward_v I I I I #
ATTRIB_CUSTOM-attrib $-1 -1 $-1 $-1 $210 @22 generic_tag_attrib_def 3 3 -1 @23 generic_tag_attrib_def  1 0 @0  0 8 689 693 697 699 712 713 742 790 0 #
coedge $-1 -1 $-1 $222 $216 $214 $237 reversed $190 0 $-1 #
edge $-1 1078 $-1 $238 -0.7853981633974376209 $218 0.7853981633974590482 $236 $249 forward @7 unknown #
vertex $-1 1260 $-1 $215 0 $250 #
straight-curve $-1 -1 $-1 1.269531268626453269 -1.236874998835866046 -4.451562557625592831 1.354051574505957521e-33 0.01562500000000000347 1.555936328285729587e-18 I I #
straight-curve $-1 -1 $-1 1.230468768626453269 -1.315000000000019265 -4.467187557625592831 1.5625 -2.217769742762724528e-31 8.6736173798840335e-16 I I #
point $-1 -1 $-1 1.253906268626453269 -1.315000000000019265 -4.467187557625592831 #
edge $-1 1084 $-1 $231 -0.1500000022351741791 $238 -0.009999999999999786837 $222 $251 forward @7 unknown #
straight-curve $-1 -1 $-1 1.230468768626453269 -1.315000000000019265 -4.232812554133133176 1.5625 -2.217769742762724528e-31 8.6736173798840335e-16 I I #
ATTRIB_CUSTOM-attrib $252 -1 $-1 $-1 $224 @22 generic_tag_attrib_def 3 3 -1 @23 generic_tag_attrib_def  1 1 @1 4 0 6 675 683 -688 -692 695 781 0 #
plane-surface $-1 -1 $-1 1.230468768626453269 -1.315000000000019265 -4.232812554133133176 -8.665930076838058067e-32 -1 -9.95799250102866936e-17 8.6736173798840335e-16 1.555936328285735504e-16 -1.5625 forward_v I I I I #
ATTRIB_CUSTOM-attrib $-1 -1 $-1 $-1 $228 @22 generic_tag_attrib_def 3 3 -1 @23 generic_tag_attrib_def  1 0 @0  0 8 689 693 697 699 712 713 742 790 0 #
point $-1 -1 $-1 1.269531268626453269 -1.315000000000019265 -4.232812554133132288 #
ATTRIB_CUSTOM-attrib $-1 -1 $-1 $-1 $233 @22 generic_tag_attrib_def 3 3 -1 @23 generic_tag_attrib_def  1 0 @0  0 8 689 693 697 699 712 713 742 790 0 #
ellipse-curve $-1 -1 $-1 1.253906268626453269 -1.315000000000019265 -4.451562557625592831 8.665930076838058067e-32 1 9.95799250102866936e-17 0.01104854345603993246 1.100213128825316409e-18 -0.01104854345603968092 1 I I #
point $-1 -1 $-1 1.269531268626453269 -1.315000000000019265 -4.451562557625591943 #
straight-curve $-1 -1 $-1 1.269531268626453269 -1.315000000000019265 -4.467187557625591943 8.6736173798840335e-16 1.555936328285735504e-16 -1.5625 I I #
ATTRIB_CUSTOM-attrib $-1 -1 $-1 $-1 $244 @22 generic_tag_attrib_def 3 3 -1 @23 generic_tag_attrib_def  1 0 @0  0 8 689 693 697 699 712 713 742 790 0 #
End-of-ASM-data 