22700 0 2 4           
16 Autodesk Neutron 20 ASM 227.1.1.65535 NT 24 Wed Aug 25 06:16:49 2021 
10 9.999999999999999547e-07 1.000000000000000036e-10 
asmheader $-1 -1 @13 227.1.1.65535 #
body $2 1168 $-1 $3 $-1 $4 #
ATTRIB_CUSTOM-attrib $-1 -1 $5 $-1 $1 @20 Timestamp_attrib_def 1 1448292125001 #
lump $-1 -1 $-1 $-1 $6 $1 #
transform $-1 -1 1 0 0 0 1 0 0 0 1 0 0 0 1 no_rotate no_reflect no_shear #
ATTRIB_CUSTOM-attrib $7 -1 $-1 $2 $1 @22 generic_tag_attrib_def 3 3 -1 @23 generic_tag_attrib_def  1 3 @3 806 1 0 0 #
shell $-1 -1 $-1 $-1 $-1 $8 $-1 $3 #
ATTRIB_CUSTOM-attrib $-1 -1 $-1 $-1 $5 @22 generic_tag_attrib_def 3 3 -1 @23 generic_tag_attrib_def  1 0 @0  0 3 809 811 812 0 #
face $9 1094 $-1 $10 $11 $6 $-1 $12 reversed single #
ATTRIB_CUSTOM-attrib $13 -1 $-1 $-1 $8 @22 generic_tag_attrib_def 3 3 -1 @23 generic_tag_attrib_def  2 1 @1 1 0 9 375 -417 514 536 543 -649 665 670 806 0 1 @1 1 0 9 378 -417 514 536 543 -649 665 670 806 0 #
face $14 1095 $-1 $15 $16 $6 $-1 $17 forward single #
loop $-1 -1 $-1 $-1 $18 $8 #
plane-surface $-1 -1 $-1 1.250000018626451048 -0.4150000005551732762 -4.850000055879366556 9.916112095558253862e-18 1 2.22044604925031949e-16 0.5249999999999999112 -5.205958850168082083e-18 5.205958850168502707e-18 forward_v I I I I #
ATTRIB_CUSTOM-attrib $-1 -1 $-1 $-1 $9 @22 generic_tag_attrib_def 3 3 -1 @23 generic_tag_attrib_def  1 0 @0  0 24 387 388 418 422 424 427 428 438 449 487 491 492 498 516 530 539 545 650 667 668 672 809 811 812 0 #
ATTRIB_CUSTOM-attrib $19 -1 $-1 $-1 $10 @22 generic_tag_attrib_def 3 3 -1 @23 generic_tag_attrib_def  1 1 @1 3 0 9 375 -417 514 536 543 -649 665 670 806 0 #
face $20 1096 $-1 $21 $22 $6 $-1 $23 forward single #
loop $-1 -1 $-1 $-1 $24 $10 #
plane-surface $-1 -1 $-1 1.446875018626450959 -0.4150000005551732762 -4.850000055879366556 0.8660254037844388186 1.024346974809883656e-16 -0.4999999999999999445 -0.2624999999999999001 1.035585204602214356e-16 -0.4546633369868303132 forward_v I I I I #
coedge $-1 -1 $-1 $25 $26 $27 $28 forward $11 0 $-1 #
ATTRIB_CUSTOM-attrib $-1 -1 $-1 $-1 $14 @22 generic_tag_attrib_def 3 3 -1 @23 generic_tag_attrib_def  1 0 @0  0 24 387 388 418 422 424 427 428 438 449 487 491 492 498 516 530 539 545 650 667 668 672 809 811 812 0 #
ATTRIB_CUSTOM-attrib $29 -1 $-1 $-1 $15 @22 generic_tag_attrib_def 3 3 -1 @23 generic_tag_attrib_def  1 1 @1 8 0 9 375 -417 514 536 543 -649 665 670 806 0 #
face $30 1097 $-1 $31 $32 $6 $-1 $33 forward single #
loop $-1 -1 $-1 $-1 $34 $15 #
plane-surface $-1 -1 $-1 1.348437518626451004 -0.4150000005551733873 -4.679501304509305015 0.8660254037844387076 -1.196099074440435094e-16 0.4999999999999998335 0.2624999999999999001 9.835256161005335429e-17 -0.4546633369868303132 forward_v I I I I #
coedge $-1 -1 $-1 $35 $36 $37 $38 forward $16 0 $-1 #
coedge $-1 -1 $-1 $39 $18 $40 $41 forward $11 0 $-1 #
coedge $-1 -1 $-1 $18 $42 $43 $44 forward $11 0 $-1 #
coedge $-1 -1 $-1 $45 $46 $18 $28 reversed $47 0 $-1 #
edge $-1 1116 $-1 $48 0.5235987755982987046 $49 1.570796326794897002 $18 $50 forward @7 unknown #
ATTRIB_CUSTOM-attrib $-1 -1 $-1 $-1 $20 @22 generic_tag_attrib_def 3 3 -1 @23 generic_tag_attrib_def  1 0 @0  0 24 387 388 418 422 424 427 428 438 449 487 491 492 498 516 530 539 545 650 667 668 672 809 811 812 0 #
ATTRIB_CUSTOM-attrib $51 -1 $-1 $-1 $21 @22 generic_tag_attrib_def 3 3 -1 @23 generic_tag_attrib_def  1 1 @1 4 0 9 375 -417 514 536 543 -649 665 670 806 0 #
face $52 1098 $-1 $53 $54 $6 $-1 $55 reversed single #
loop $-1 -1 $-1 $-1 $56 $21 #
plane-surface $-1 -1 $-1 1.348437518626451004 -0.4150000005551730542 -5.020498807249427209 9.916112095558982634e-18 2.22044604925031949e-16 -1 -0.5249999999999999112 5.205958850168082083e-18 -5.205958850168502707e-18 forward_v I I I I #
coedge $-1 -1 $-1 $57 $58 $59 $60 forward $22 0 $-1 #
coedge $-1 -1 $-1 $61 $24 $62 $63 forward $16 0 $-1 #
coedge $-1 -1 $-1 $24 $64 $65 $66 forward $16 0 $-1 #
coedge $-1 -1 $-1 $67 $68 $24 $38 reversed $69 0 $-1 #
edge $-1 1122 $-1 $70 0.1902148108885498567 $71 0.3804296217770998245 $24 $72 forward @7 unknown #
coedge $-1 -1 $-1 $73 $25 $74 $75 forward $11 0 $-1 #
coedge $-1 -1 $-1 $76 $77 $25 $41 reversed $78 0 $-1 #
edge $-1 1117 $-1 $49 1.570796326794897002 $79 2.617993877991494855 $25 $50 forward @7 unknown #
coedge $-1 -1 $-1 $26 $73 $67 $80 forward $11 0 $-1 #
coedge $-1 -1 $-1 $65 $59 $26 $44 reversed $81 0 $-1 #
edge $-1 1121 $-1 $70 -0.5235987755982988157 $48 0.5235987755982987046 $26 $50 forward @7 unknown #
coedge $-1 -1 $-1 $46 $27 $58 $82 reversed $47 0 $-1 #
coedge $-1 -1 $-1 $27 $45 $83 $84 reversed $47 0 $-1 #
loop $-1 -1 $-1 $-1 $46 $85 #
vertex $-1 1268 $-1 $82 1 $86 #
vertex $-1 1269 $-1 $84 0 $87 #
ellipse-curve $-1 -1 $-1 1.250000018626451048 -0.4150000005551732762 -4.850000055879366556 -9.916112095558253862e-18 -1 -2.22044604925031949e-16 0.1704987513700613189 -1.690684730738244723e-18 1.690684730738370679e-18 1 I I #
ATTRIB_CUSTOM-attrib $-1 -1 $-1 $-1 $30 @22 generic_tag_attrib_def 3 3 -1 @23 generic_tag_attrib_def  1 0 @0  0 24 387 388 418 422 424 427 428 438 449 487 491 492 498 516 530 539 545 650 667 668 672 809 811 812 0 #
ATTRIB_CUSTOM-attrib $88 -1 $-1 $-1 $31 @22 generic_tag_attrib_def 3 3 -1 @23 generic_tag_attrib_def  1 1 @1 3 0 9 383 -417 514 536 543 -649 665 670 806 0 #
face $89 1099 $-1 $90 $91 $6 $-1 $55 reversed single #
loop $-1 -1 $-1 $-1 $92 $31 #
cone-surface $-1 -1 $-1 1.250000018626451048 -0.2582891676785271651 -4.850000055879366556 9.916112095558253862e-18 1 2.22044604925031949e-16 0.1836868756850306428 -1.821459649775637897e-18 1.821459649775781571e-18 1 I I 0.8660254037844388186 -0.4999999999999999445 0.1836868756850306428 forward I I I I #
coedge $-1 -1 $-1 $93 $94 $95 $96 forward $32 0 $-1 #
coedge $-1 -1 $-1 $97 $34 $64 $98 forward $22 0 $-1 #
coedge $-1 -1 $-1 $34 $99 $45 $82 forward $22 0 $-1 #
coedge $-1 -1 $-1 $43 $65 $34 $60 reversed $81 0 $-1 #
edge $-1 1128 $-1 $48 0.1902148108885497457 $100 0.380429621777099547 $34 $101 forward @7 unknown #
coedge $-1 -1 $-1 $102 $35 $103 $104 forward $16 0 $-1 #
coedge $-1 -1 $-1 $94 $105 $35 $63 reversed $32 0 $-1 #
edge $-1 1123 $-1 $71 0.02900635094610965956 $106 0.2839936490538903513 $35 $107 forward @7 unknown #
coedge $-1 -1 $-1 $36 $102 $57 $98 reversed $16 0 $-1 #
coedge $-1 -1 $-1 $59 $43 $36 $66 reversed $81 0 $-1 #
edge $-1 1127 $-1 $100 0 $70 0.1902148108885498567 $36 $108 forward @7 unknown #
coedge $-1 -1 $-1 $68 $37 $42 $80 reversed $69 0 $-1 #
coedge $-1 -1 $-1 $37 $67 $94 $109 reversed $69 0 $-1 #
loop $-1 -1 $-1 $-1 $68 $110 #
vertex $-1 1273 $-1 $66 1 $111 #
vertex $-1 1274 $-1 $63 0 $112 #
intcurve-curve $-1 -1 $-1 forward { exact_int_cur 22140 full nurbs 2 open 2 
	0.1902148108885498567 2 0.3804296217770998245 2 
	1.397656268626450649 -0.4150000005551732762 -4.935249431564396438 1 
	1.374813767256389596 -0.4150000005551732762 -4.974813804509305548 1.037954849302054283 
	1.348437518626451004 -0.3997716663084656119 -5.020498807249427209 1 
	0 
	
	null_surface 
	null_surface 
	nullbs 
	nullbs 
	I I 
	0 
	0 
	0 
	
	0 F 1 F 0 UNEXTENDED UNEXTENDED } I I #
coedge $-1 -1 $-1 $42 $39 $113 $114 forward $11 0 $-1 #
coedge $-1 -1 $-1 $115 $116 $39 $75 reversed $117 0 $-1 #
edge $-1 1118 $-1 $79 2.617993877991494855 $118 3.665191429188091821 $39 $50 forward @7 unknown #
coedge $-1 -1 $-1 $77 $40 $119 $120 reversed $78 0 $-1 #
coedge $-1 -1 $-1 $40 $76 $121 $122 reversed $78 0 $-1 #
loop $-1 -1 $-1 $-1 $77 $123 #
vertex $-1 1270 $-1 $41 1 $124 #
edge $-1 1120 $-1 $125 -1.570796326794896558 $70 -0.5235987755982988157 $42 $50 forward @7 unknown #
loop $-1 -1 $-1 $-1 $65 $126 #
edge $-1 1132 $-1 $127 0 $48 0.1902148108885497457 $58 $128 forward @7 unknown #
coedge $-1 -1 $-1 $129 $119 $46 $84 forward $130 0 $-1 #
edge $-1 1151 $-1 $49 0.1902148108885500788 $127 0.3804296217771001576 $83 $131 forward @7 unknown #
face $132 1111 $-1 $126 $47 $6 $-1 $133 reversed single #
point $-1 -1 $-1 1.397656268626450871 -0.4150000005551732762 -4.764750680194335786 #
point $-1 -1 $-1 1.250000018626450826 -0.4150000005551733873 -4.679501304509305015 #
ATTRIB_CUSTOM-attrib $-1 -1 $-1 $-1 $52 @22 generic_tag_attrib_def 3 3 -1 @23 generic_tag_attrib_def  1 0 @0  0 24 387 388 418 422 424 427 428 438 449 487 491 492 498 516 530 539 545 650 667 668 672 809 811 812 0 #
ATTRIB_CUSTOM-attrib $134 -1 $-1 $-1 $53 @22 generic_tag_attrib_def 3 3 -1 @23 generic_tag_attrib_def  1 1 @1 3 0 9 383 -417 514 536 543 -649 665 670 806 0 #
face $135 1100 $-1 $136 $137 $6 $-1 $55 reversed single #
loop $-1 -1 $-1 $-1 $138 $53 #
coedge $-1 -1 $-1 $139 $140 $141 $142 reversed $54 0 $-1 #
coedge $-1 -1 $-1 $143 $56 $144 $145 forward $32 0 $-1 #
coedge $-1 -1 $-1 $56 $62 $68 $109 forward $32 0 $-1 #
coedge $-1 -1 $-1 $113 $146 $56 $96 reversed $147 0 $-1 #
edge $-1 1133 $-1 $125 0.1902148108885499678 $148 0.3804296217770999355 $56 $149 forward @7 unknown #
coedge $-1 -1 $-1 $150 $57 $151 $152 forward $22 0 $-1 #
edge $-1 1126 $-1 $100 0.02900635094610965609 $153 0.2839936490538903513 $64 $154 forward @7 unknown #
coedge $-1 -1 $-1 $58 $150 $129 $155 reversed $22 0 $-1 #
vertex $-1 1278 $-1 $98 0 $156 #
intcurve-curve $-1 -1 $-1 forward { exact_int_cur 22140 full nurbs 2 open 2 
	0.1902148108885497457 2 0.380429621777099547 2 
	1.397656268626450871 -0.4150000005551732762 -4.764750680194335786 1 
	1.420498769996512367 -0.4150000005551732762 -4.804315053139243119 1.037954849302040961 
	1.446875018626450959 -0.3997716663084658339 -4.850000055879366556 1 
	0 
	
	null_surface 
	null_surface 
	nullbs 
	nullbs 
	I I 
	0 
	0 
	0 
	
	0 F 1 F 0 UNEXTENDED UNEXTENDED } I I #
coedge $-1 -1 $-1 $64 $61 $157 $158 forward $16 0 $-1 #
coedge $-1 -1 $-1 $159 $160 $61 $104 reversed $161 0 $-1 #
edge $-1 1124 $-1 $106 0 $162 0.1902148108885498012 $61 $163 forward @7 unknown #
coedge $-1 -1 $-1 $62 $143 $159 $164 forward $32 0 $-1 #
vertex $-1 1275 $-1 $164 1 $165 #
straight-curve $-1 -1 $-1 1.348437518626451004 -0.4150000005551730542 -5.020498807249427209 5.205958850168082854e-18 0.5249999999999999112 1.165734175856416635e-16 I I #
intcurve-curve $-1 -1 $-1 forward { exact_int_cur 22140 full nurbs 2 open 2 
	0 2 0.1902148108885498567 2 
	1.446875018626450959 -0.3997716663084658339 -4.850000055879366556 1 
	1.420498769996512367 -0.4150000005551732762 -4.895685058619489105 1.037954849302037186 
	1.397656268626450649 -0.4150000005551732762 -4.935249431564396438 1 
	0 
	
	null_surface 
	null_surface 
	nullbs 
	nullbs 
	I I 
	0 
	0 
	0 
	
	0 F 1 F 0 UNEXTENDED UNEXTENDED } I I #
edge $-1 1137 $-1 $71 0 $125 0.1902148108885499678 $94 $166 forward @7 unknown #
face $167 1109 $-1 $123 $69 $6 $-1 $133 reversed single #
point $-1 -1 $-1 1.397656268626450649 -0.4150000005551732762 -4.935249431564396438 #
point $-1 -1 $-1 1.348437518626451004 -0.3997716663084656119 -5.020498807249427209 #
coedge $-1 -1 $-1 $146 $95 $73 $114 reversed $147 0 $-1 #
edge $-1 1119 $-1 $118 -2.617993877991494411 $125 -1.570796326794896558 $73 $50 forward @7 unknown #
coedge $-1 -1 $-1 $116 $74 $168 $169 reversed $117 0 $-1 #
coedge $-1 -1 $-1 $74 $115 $170 $171 reversed $117 0 $-1 #
loop $-1 -1 $-1 $-1 $116 $172 #
vertex $-1 1271 $-1 $75 1 $173 #
coedge $-1 -1 $-1 $83 $174 $76 $120 forward $130 0 $-1 #
edge $-1 1150 $-1 $175 0 $49 0.1902148108885500788 $119 $176 forward @7 unknown #
coedge $-1 -1 $-1 $177 $168 $77 $122 forward $178 0 $-1 #
edge $-1 1154 $-1 $79 0.1902148108885499123 $175 0.380429621777099769 $121 $179 forward @7 unknown #
face $180 1110 $-1 $85 $78 $6 $-1 $133 reversed single #
point $-1 -1 $-1 1.102343768626451004 -0.4150000005551732762 -4.764750680194335786 #
vertex $-1 1272 $-1 $80 0 $181 #
face $182 1112 $-1 $183 $81 $6 $-1 $133 reversed single #
vertex $-1 1281 $-1 $155 0 $184 #
intcurve-curve $-1 -1 $-1 forward { exact_int_cur 22140 full nurbs 2 open 2 
	0 2 0.1902148108885497457 2 
	1.348437518626451004 -0.399771666308465945 -4.679501304509305015 1 
	1.374813767256389596 -0.4150000005551732762 -4.725186307249427564 1.037954849302040961 
	1.397656268626450871 -0.4150000005551732762 -4.764750680194335786 1 
	0 
	
	null_surface 
	null_surface 
	nullbs 
	nullbs 
	I I 
	0 
	0 
	0 
	
	0 F 1 F 0 UNEXTENDED UNEXTENDED } I I #
coedge $-1 -1 $-1 $185 $83 $99 $155 forward $130 0 $-1 #
loop $-1 -1 $-1 $-1 $119 $186 #
intcurve-curve $-1 -1 $-1 forward { exact_int_cur 22140 full nurbs 2 open 2 
	0.1902148108885500788 2 0.3804296217771001576 2 
	1.250000018626450826 -0.4150000005551733873 -4.679501304509305015 1 
	1.295685021366573375 -0.4150000005551733873 -4.679501304509305015 1.037954849302036742 
	1.348437518626451004 -0.399771666308465945 -4.679501304509305015 1 
	0 
	
	null_surface 
	null_surface 
	nullbs 
	nullbs 
	I I 
	0 
	0 
	0 
	
	0 F 1 F 0 UNEXTENDED UNEXTENDED } I I #
ATTRIB_CUSTOM-attrib $187 -1 $-1 $-1 $85 @22 generic_tag_attrib_def 3 3 -1 @23 generic_tag_attrib_def  1 1 @1 5 0 9 384 -417 514 536 543 -649 665 670 806 0 #
cone-surface $-1 -1 $-1 1.250000018626451048 -0.4073858334318194441 -4.850000055879366556 -5.084455053182262146e-32 1 2.22044604925031949e-16 0.1836868756850306428 -1.821459649775637897e-18 1.821459649775781571e-18 1 I I -0.8660254037844387076 -0.5 0.1836868756850306428 forward I I I I #
ATTRIB_CUSTOM-attrib $-1 -1 $-1 $-1 $89 @22 generic_tag_attrib_def 3 3 -1 @23 generic_tag_attrib_def  1 0 @0  0 24 387 388 418 422 424 427 428 438 449 487 491 492 498 516 530 539 545 650 667 668 672 809 811 812 0 #
ATTRIB_CUSTOM-attrib $188 -1 $-1 $-1 $90 @22 generic_tag_attrib_def 3 3 -1 @23 generic_tag_attrib_def  1 1 @1 3 0 9 383 -417 514 536 543 -649 665 670 806 0 #
face $189 1101 $-1 $190 $191 $6 $-1 $55 reversed single #
loop $-1 -1 $-1 $-1 $192 $90 #
coedge $-1 -1 $-1 $193 $194 $195 $196 reversed $91 0 $-1 #
coedge $-1 -1 $-1 $140 $92 $197 $198 reversed $54 0 $-1 #
coedge $-1 -1 $-1 $92 $139 $199 $200 reversed $54 0 $-1 #
coedge $-1 -1 $-1 $174 $185 $92 $142 forward $130 0 $-1 #
edge $-1 1138 $-1 $201 0.19021481088854994 $202 0.38042962177709988 $141 $203 forward @7 unknown #
coedge $-1 -1 $-1 $105 $93 $204 $205 forward $32 0 $-1 #
coedge $-1 -1 $-1 $206 $207 $93 $145 reversed $208 0 $-1 #
edge $-1 1134 $-1 $148 0.02900635094610964915 $209 0.2839936490538903513 $93 $210 forward @7 unknown #
coedge $-1 -1 $-1 $95 $113 $206 $211 reversed $147 0 $-1 #
loop $-1 -1 $-1 $-1 $95 $212 #
vertex $-1 1282 $-1 $145 0 $213 #
intcurve-curve $-1 -1 $-1 forward { exact_int_cur 22140 full nurbs 2 open 2 
	0.1902148108885499678 2 0.3804296217770999355 2 
	1.250000018626450826 -0.4150000005551732762 -5.020498807249427209 1 
	1.204315015886328277 -0.4150000005551732762 -5.020498807249427209 1.037954849302035853 
	1.151562518626450871 -0.3997716663084656119 -5.020498807249427209 1 
	0 
	
	null_surface 
	null_surface 
	nullbs 
	nullbs 
	I I 
	0 
	0 
	0 
	
	0 F 1 F 0 UNEXTENDED UNEXTENDED } I I #
coedge $-1 -1 $-1 $99 $97 $214 $215 forward $22 0 $-1 #
coedge $-1 -1 $-1 $157 $216 $97 $152 reversed $191 0 $-1 #
edge $-1 1129 $-1 $153 0 $217 0.1902148108885498567 $97 $218 forward @7 unknown #
vertex $-1 1277 $-1 $158 1 $219 #
straight-curve $-1 -1 $-1 1.446875018626450959 -0.4150000005551732762 -4.850000055879366556 5.205958850168082854e-18 0.5249999999999999112 1.165734175856416635e-16 I I #
edge $-1 1131 $-1 $127 0.02900635094610965609 $220 0.2839936490538903513 $129 $221 forward @7 unknown #
point $-1 -1 $-1 1.446875018626450959 -0.3997716663084658339 -4.850000055879366556 #
coedge $-1 -1 $-1 $216 $151 $102 $158 reversed $191 0 $-1 #
edge $-1 1125 $-1 $162 0.1902148108885498012 $153 0.380429621777099547 $102 $222 forward @7 unknown #
coedge $-1 -1 $-1 $160 $103 $105 $164 reversed $161 0 $-1 #
coedge $-1 -1 $-1 $103 $159 $223 $224 reversed $161 0 $-1 #
loop $-1 -1 $-1 $-1 $103 $225 #
vertex $-1 1276 $-1 $104 2 $226 #
intcurve-curve $-1 -1 $-1 forward { exact_int_cur 22140 full nurbs 2 open 2 
	0 2 0.1902148108885498012 2 
	1.348437518626451004 -0.2659033348018808862 -5.020498807249427209 1 
	1.374813767256389374 -0.2506750005551734439 -4.97481380450930466 1.03795484930203874 
	1.397656268626450649 -0.2506750005551732219 -4.935249431564396438 1 
	0 
	
	null_surface 
	null_surface 
	nullbs 
	nullbs 
	I I 
	0 
	0 
	0 
	
	0 F 1 F 0 UNEXTENDED UNEXTENDED } I I #
edge $-1 1136 $-1 $227 0.1902148108885499955 $106 0.3804296217770999911 $105 $228 forward @7 unknown #
point $-1 -1 $-1 1.348437518626451004 -0.2659033348018808862 -5.020498807249427209 #
intcurve-curve $-1 -1 $-1 forward { exact_int_cur 22140 full nurbs 2 open 2 
	0 2 0.1902148108885499678 2 
	1.348437518626451004 -0.3997716663084656119 -5.020498807249427209 1 
	1.295685021366573375 -0.4150000005551732762 -5.020498807249427209 1.037954849302052951 
	1.250000018626450826 -0.4150000005551732762 -5.020498807249427209 1 
	0 
	
	null_surface 
	null_surface 
	nullbs 
	nullbs 
	I I 
	0 
	0 
	0 
	
	0 F 1 F 0 UNEXTENDED UNEXTENDED } I I #
ATTRIB_CUSTOM-attrib $229 -1 $-1 $-1 $110 @22 generic_tag_attrib_def 3 3 -1 @23 generic_tag_attrib_def  1 1 @1 5 0 9 384 -417 514 536 543 -649 665 670 806 0 #
coedge $-1 -1 $-1 $121 $230 $115 $169 forward $178 0 $-1 #
edge $-1 1153 $-1 $231 0 $79 0.1902148108885499123 $168 $232 forward @7 unknown #
coedge $-1 -1 $-1 $233 $206 $116 $171 forward $208 0 $-1 #
edge $-1 1157 $-1 $118 0.1902148108885500788 $231 0.3804296217771000466 $170 $234 forward @7 unknown #
face $235 1108 $-1 $110 $117 $6 $-1 $133 reversed single #
point $-1 -1 $-1 1.102343768626451004 -0.4150000005551732762 -4.935249431564396438 #
coedge $-1 -1 $-1 $119 $141 $177 $236 reversed $130 0 $-1 #
vertex $-1 1290 $-1 $236 0 $237 #
intcurve-curve $-1 -1 $-1 forward { exact_int_cur 22140 full nurbs 2 open 2 
	0 2 0.1902148108885500788 2 
	1.151562518626450649 -0.399771666308465945 -4.679501304509304127 1 
	1.204315015886328277 -0.4150000005551733873 -4.679501304509305015 1.037954849302036742 
	1.250000018626450826 -0.4150000005551733873 -4.679501304509305015 1 
	0 
	
	null_surface 
	null_surface 
	nullbs 
	nullbs 
	I I 
	0 
	0 
	0 
	
	0 F 1 F 0 UNEXTENDED UNEXTENDED } I I #
coedge $-1 -1 $-1 $199 $121 $174 $236 forward $178 0 $-1 #
loop $-1 -1 $-1 $-1 $168 $238 #
intcurve-curve $-1 -1 $-1 forward { exact_int_cur 22140 full nurbs 2 open 2 
	0.1902148108885499123 2 0.380429621777099769 2 
	1.102343768626451004 -0.4150000005551732762 -4.764750680194335786 1 
	1.125186269996512278 -0.4150000005551732762 -4.725186307249427564 1.037954849302044291 
	1.151562518626450649 -0.399771666308465945 -4.679501304509304127 1 
	0 
	
	null_surface 
	null_surface 
	nullbs 
	nullbs 
	I I 
	0 
	0 
	0 
	
	0 F 1 F 0 UNEXTENDED UNEXTENDED } I I #
ATTRIB_CUSTOM-attrib $239 -1 $-1 $-1 $123 @22 generic_tag_attrib_def 3 3 -1 @23 generic_tag_attrib_def  1 1 @1 5 0 9 384 -417 514 536 543 -649 665 670 806 0 #
point $-1 -1 $-1 1.250000018626450826 -0.4150000005551732762 -5.020498807249427209 #
ATTRIB_CUSTOM-attrib $240 -1 $-1 $-1 $126 @22 generic_tag_attrib_def 3 3 -1 @23 generic_tag_attrib_def  1 1 @1 5 0 9 384 -417 514 536 543 -649 665 670 806 0 #
face $241 1113 $-1 $242 $243 $6 $-1 $244 forward single #
point $-1 -1 $-1 1.348437518626451004 -0.399771666308465945 -4.679501304509305015 #
coedge $-1 -1 $-1 $141 $129 $192 $245 forward $130 0 $-1 #
face $246 1104 $-1 $238 $130 $6 $-1 $247 forward single #
ATTRIB_CUSTOM-attrib $-1 -1 $-1 $-1 $132 @22 generic_tag_attrib_def 3 3 -1 @23 generic_tag_attrib_def  1 0 @0  0 24 387 388 418 422 424 427 428 438 449 487 491 492 498 516 530 539 545 650 667 668 672 809 811 812 0 #
ATTRIB_CUSTOM-attrib $-1 -1 $-1 $-1 $135 @22 generic_tag_attrib_def 3 3 -1 @23 generic_tag_attrib_def  1 0 @0  0 24 387 388 418 422 424 427 428 438 449 487 491 492 498 516 530 539 545 650 667 668 672 809 811 812 0 #
ATTRIB_CUSTOM-attrib $248 -1 $-1 $-1 $136 @22 generic_tag_attrib_def 3 3 -1 @23 generic_tag_attrib_def  1 1 @1 3 0 9 383 -417 514 536 543 -649 665 670 806 0 #
face $249 1102 $-1 $225 $250 $6 $-1 $55 reversed single #
loop $-1 -1 $-1 $-1 $151 $136 #
coedge $-1 -1 $-1 $214 $251 $185 $245 reversed $137 0 $-1 #
coedge $-1 -1 $-1 $194 $138 $252 $253 reversed $91 0 $-1 #
coedge $-1 -1 $-1 $138 $193 $254 $255 reversed $91 0 $-1 #
coedge $-1 -1 $-1 $230 $199 $138 $196 forward $178 0 $-1 #
edge $-1 1141 $-1 $256 0.1902148108885498567 $257 0.3804296217770997135 $195 $258 forward @7 unknown #
coedge $-1 -1 $-1 $259 $252 $139 $198 forward $243 0 $-1 #
edge $-1 1139 $-1 $256 -2.617993877991494411 $201 -1.570796326794897002 $197 $260 forward @7 unknown #
coedge $-1 -1 $-1 $195 $177 $140 $200 forward $178 0 $-1 #
edge $-1 1140 $-1 $202 0 $256 0.1902148108885498567 $199 $261 forward @7 unknown #
vertex $-1 1286 $-1 $262 2 $263 #
vertex $-1 1285 $-1 $200 0 $264 #
intcurve-curve $-1 -1 $-1 forward { exact_int_cur 22140 full nurbs 2 open 2 
	0.19021481088854994 2 0.38042962177709988 2 
	1.250000018626450826 -0.2506750005551733329 -4.679501304509305015 1 
	1.204315015886328277 -0.250675000555173555 -4.679501304509305015 1.03795484930205939 
	1.151562518626450871 -0.2659033348018809972 -4.679501304509304127 1 
	0 
	
	null_surface 
	null_surface 
	nullbs 
	nullbs 
	I I 
	0 
	0 
	0 
	
	0 F 1 F 0 UNEXTENDED UNEXTENDED } I I #
coedge $-1 -1 $-1 $265 $266 $143 $205 reversed $250 0 $-1 #
edge $-1 1135 $-1 $209 0 $227 0.1902148108885499955 $143 $267 forward @7 unknown #
coedge $-1 -1 $-1 $170 $144 $146 $211 forward $208 0 $-1 #
coedge $-1 -1 $-1 $144 $254 $265 $268 forward $208 0 $-1 #
loop $-1 -1 $-1 $-1 $206 $269 #
vertex $-1 1283 $-1 $205 0 $270 #
straight-curve $-1 -1 $-1 1.151562518626450871 -0.4150000005551730542 -5.020498807249427209 5.205958850168082854e-18 0.5249999999999999112 1.165734175856416635e-16 I I #
edge $-1 1156 $-1 $148 0 $118 0.1902148108885500788 $206 $271 forward @7 unknown #
face $272 1107 $-1 $172 $147 $6 $-1 $133 reversed single #
point $-1 -1 $-1 1.151562518626450871 -0.3997716663084656119 -5.020498807249427209 #
coedge $-1 -1 $-1 $251 $192 $150 $215 reversed $137 0 $-1 #
edge $-1 1130 $-1 $217 0.1902148108885498567 $220 0.3804296217770997135 $150 $273 forward @7 unknown #
coedge $-1 -1 $-1 $151 $157 $274 $275 reversed $191 0 $-1 #
vertex $-1 1279 $-1 $275 2 $276 #
intcurve-curve $-1 -1 $-1 forward { exact_int_cur 22140 full nurbs 2 open 2 
	0 2 0.1902148108885498567 2 
	1.446875018626450959 -0.2659033348018809972 -4.850000055879366556 1 
	1.420498769996512367 -0.250675000555173555 -4.804315053139243119 1.037954849302036742 
	1.397656268626450871 -0.250675000555173555 -4.764750680194334898 1 
	0 
	
	null_surface 
	null_surface 
	nullbs 
	nullbs 
	I I 
	0 
	0 
	0 
	
	0 F 1 F 0 UNEXTENDED UNEXTENDED } I I #
point $-1 -1 $-1 1.446875018626450959 -0.2659033348018809972 -4.850000055879366556 #
vertex $-1 1280 $-1 $215 1 $277 #
straight-curve $-1 -1 $-1 1.348437518626451004 -0.4150000005551733873 -4.679501304509305015 5.205958850168082854e-18 0.5249999999999999112 1.165734175856416635e-16 I I #
intcurve-curve $-1 -1 $-1 forward { exact_int_cur 22140 full nurbs 2 open 2 
	0.1902148108885498012 2 0.380429621777099547 2 
	1.397656268626450649 -0.2506750005551732219 -4.935249431564396438 1 
	1.420498769996512145 -0.2506750005551733329 -4.895685058619489105 1.03795484930202897 
	1.446875018626450737 -0.2659033348018809972 -4.850000055879366556 1 
	0 
	
	null_surface 
	null_surface 
	nullbs 
	nullbs 
	I I 
	0 
	0 
	0 
	
	0 F 1 F 0 UNEXTENDED UNEXTENDED } I I #
coedge $-1 -1 $-1 $278 $274 $160 $224 forward $243 0 $-1 #
edge $-1 1149 $-1 $162 0.5235987755982988157 $227 1.570796326794896558 $223 $260 forward @7 unknown #
face $279 1103 $-1 $186 $161 $6 $-1 $55 reversed single #
point $-1 -1 $-1 1.397656268626450649 -0.2506750005551732219 -4.935249431564396438 #
vertex $-1 1284 $-1 $164 2 $280 #
intcurve-curve $-1 -1 $-1 forward { exact_int_cur 22140 full nurbs 2 open 2 
	0.1902148108885499955 2 0.3804296217770999911 2 
	1.250000018626450826 -0.2506750005551732219 -5.020498807249427209 1 
	1.295685021366573597 -0.2506750005551732219 -5.020498807249427209 1.037954849302044291 
	1.348437518626451004 -0.2659033348018808862 -5.020498807249427209 1 
	0 
	
	null_surface 
	null_surface 
	nullbs 
	nullbs 
	I I 
	0 
	0 
	0 
	
	0 F 1 F 0 UNEXTENDED UNEXTENDED } I I #
ATTRIB_CUSTOM-attrib $-1 -1 $-1 $-1 $167 @22 generic_tag_attrib_def 3 3 -1 @23 generic_tag_attrib_def  1 0 @0  0 24 387 388 418 422 424 427 428 438 449 487 491 492 498 516 530 539 545 650 667 668 672 809 811 812 0 #
coedge $-1 -1 $-1 $168 $195 $233 $281 reversed $178 0 $-1 #
vertex $-1 1291 $-1 $281 0 $282 #
intcurve-curve $-1 -1 $-1 forward { exact_int_cur 22140 full nurbs 2 open 2 
	0 2 0.1902148108885499123 2 
	1.053125018626450915 -0.3997716663084658339 -4.850000055879365668 1 
	1.079501267256389507 -0.4150000005551732762 -4.804315053139242231 1.037954849302042737 
	1.102343768626451004 -0.4150000005551732762 -4.764750680194335786 1 
	0 
	
	null_surface 
	null_surface 
	nullbs 
	nullbs 
	I I 
	0 
	0 
	0 
	
	0 F 1 F 0 UNEXTENDED UNEXTENDED } I I #
coedge $-1 -1 $-1 $254 $170 $230 $281 forward $208 0 $-1 #
intcurve-curve $-1 -1 $-1 forward { exact_int_cur 22140 full nurbs 2 open 2 
	0.1902148108885500788 2 0.3804296217771000466 2 
	1.102343768626451004 -0.4150000005551732762 -4.935249431564396438 1 
	1.079501267256389507 -0.4150000005551732762 -4.895685058619489105 1.037954849302031635 
	1.053125018626450915 -0.3997716663084658339 -4.850000055879365668 1 
	0 
	
	null_surface 
	null_surface 
	nullbs 
	nullbs 
	I I 
	0 
	0 
	0 
	
	0 F 1 F 0 UNEXTENDED UNEXTENDED } I I #
ATTRIB_CUSTOM-attrib $283 -1 $-1 $-1 $172 @22 generic_tag_attrib_def 3 3 -1 @23 generic_tag_attrib_def  1 1 @1 5 0 9 384 -417 514 536 543 -649 665 670 806 0 #
edge $-1 1152 $-1 $175 0.02900635094610964915 $202 0.2839936490538903513 $177 $284 forward @7 unknown #
point $-1 -1 $-1 1.151562518626450649 -0.399771666308465945 -4.679501304509304127 #
face $285 1105 $-1 $269 $178 $6 $-1 $286 forward single #
ATTRIB_CUSTOM-attrib $-1 -1 $-1 $-1 $180 @22 generic_tag_attrib_def 3 3 -1 @23 generic_tag_attrib_def  1 0 @0  0 24 387 388 418 422 424 427 428 438 449 487 491 492 498 516 530 539 545 650 667 668 672 809 811 812 0 #
ATTRIB_CUSTOM-attrib $-1 -1 $-1 $-1 $182 @22 generic_tag_attrib_def 3 3 -1 @23 generic_tag_attrib_def  1 0 @0  0 24 387 388 418 422 424 427 428 438 449 487 491 492 498 516 530 539 545 650 667 668 672 809 811 812 0 #
ATTRIB_CUSTOM-attrib $287 -1 $-1 $-1 $183 @22 generic_tag_attrib_def 3 3 -1 @23 generic_tag_attrib_def  1 1 @1 2 0 9 375 -417 514 536 543 -649 665 670 806 0 #
face $288 1114 $-1 $289 $290 $6 $-1 $291 forward single #
loop $-1 -1 $-1 $292 $278 $183 #
plane-surface $-1 -1 $-1 1.250000018626451048 -0.2506750005551733329 -4.850000055879366556 9.916112095558253862e-18 1 2.22044604925031949e-16 0.5249999999999999112 -5.205958850168082083e-18 5.205958850168502707e-18 forward_v I I I I #
edge $-1 1144 $-1 $220 0 $201 0.19021481088854994 $185 $293 forward @7 unknown #
ATTRIB_CUSTOM-attrib $294 -1 $-1 $-1 $186 @22 generic_tag_attrib_def 3 3 -1 @23 generic_tag_attrib_def  1 1 @1 7 0 9 375 -417 514 536 543 -649 665 670 806 0 #
plane-surface $-1 -1 $-1 1.151562518626450649 -0.4150000005551733873 -4.679501304509304127 -3.059755853289338957e-16 -2.22044604925031949e-16 1 0.5249999999999999112 -5.20595885016811675e-18 1.606371822976903076e-16 forward_v I I I I #
ATTRIB_CUSTOM-attrib $-1 -1 $-1 $-1 $189 @22 generic_tag_attrib_def 3 3 -1 @23 generic_tag_attrib_def  1 0 @0  0 24 387 388 418 422 424 427 428 438 449 487 491 492 498 516 530 539 545 650 667 668 672 809 811 812 0 #
ATTRIB_CUSTOM-attrib $295 -1 $-1 $-1 $190 @22 generic_tag_attrib_def 3 3 -1 @23 generic_tag_attrib_def  1 1 @1 3 0 9 383 -417 514 536 543 -649 665 670 806 0 #
loop $-1 -1 $-1 $-1 $265 $190 #
coedge $-1 -1 $-1 $192 $214 $259 $262 reversed $137 0 $-1 #
coedge $-1 -1 $-1 $197 $278 $193 $253 forward $243 0 $-1 #
edge $-1 1142 $-1 $296 2.617993877991494411 $256 3.665191429188091821 $252 $260 forward @7 unknown #
coedge $-1 -1 $-1 $207 $233 $194 $255 forward $208 0 $-1 #
edge $-1 1143 $-1 $257 0 $296 0.1902148108885500788 $254 $297 forward @7 unknown #
vertex $-1 1287 $-1 $253 2 $298 #
vertex $-1 1288 $-1 $255 0 $299 #
intcurve-curve $-1 -1 $-1 forward { exact_int_cur 22140 full nurbs 2 open 2 
	0.1902148108885498567 2 0.3804296217770997135 2 
	1.102343768626451004 -0.250675000555173555 -4.764750680194335786 1 
	1.079501267256389507 -0.2506750005551733329 -4.804315053139242231 1.037954849302042293 
	1.053125018626450915 -0.2659033348018809972 -4.850000055879365668 1 
	0 
	
	null_surface 
	null_surface 
	nullbs 
	nullbs 
	I I 
	0 
	0 
	0 
	
	0 F 1 F 0 UNEXTENDED UNEXTENDED } I I #
coedge $-1 -1 $-1 $274 $197 $251 $262 forward $243 0 $-1 #
ellipse-curve $-1 -1 $-1 1.250000018626451048 -0.2506750005551733329 -4.850000055879366556 9.916112095558253862e-18 1 2.22044604925031949e-16 0.1704987513700613189 -1.690684730738244338e-18 1.690684730738370679e-18 1 I I #
intcurve-curve $-1 -1 $-1 forward { exact_int_cur 22140 full nurbs 2 open 2 
	0 2 0.1902148108885498567 2 
	1.151562518626450649 -0.2659033348018809972 -4.679501304509304127 1 
	1.125186269996512278 -0.250675000555173555 -4.725186307249427564 1.037954849302040961 
	1.102343768626451004 -0.250675000555173555 -4.764750680194335786 1 
	0 
	
	null_surface 
	null_surface 
	nullbs 
	nullbs 
	I I 
	0 
	0 
	0 
	
	0 F 1 F 0 UNEXTENDED UNEXTENDED } I I #
edge $-1 1145 $-1 $201 -1.570796326794897002 $217 -0.5235987755982987046 $259 $260 forward @7 unknown #
point $-1 -1 $-1 1.250000018626450826 -0.2506750005551733329 -4.679501304509305015 #
point $-1 -1 $-1 1.151562518626450649 -0.2659033348018809972 -4.679501304509304127 #
coedge $-1 -1 $-1 $266 $204 $207 $268 reversed $250 0 $-1 #
coedge $-1 -1 $-1 $204 $265 $278 $300 reversed $250 0 $-1 #
intcurve-curve $-1 -1 $-1 forward { exact_int_cur 22140 full nurbs 2 open 2 
	0 2 0.1902148108885499955 2 
	1.151562518626450871 -0.2659033348018808862 -5.020498807249427209 1 
	1.204315015886328277 -0.2506750005551732219 -5.020498807249427209 1.037954849302044291 
	1.250000018626450826 -0.2506750005551732219 -5.020498807249427209 1 
	0 
	
	null_surface 
	null_surface 
	nullbs 
	nullbs 
	I I 
	0 
	0 
	0 
	
	0 F 1 F 0 UNEXTENDED UNEXTENDED } I I #
edge $-1 1147 $-1 $296 0.1902148108885500788 $209 0.3804296217770999911 $207 $301 forward @7 unknown #
face $302 1106 $-1 $212 $208 $6 $-1 $303 forward single #
point $-1 -1 $-1 1.151562518626450871 -0.2659033348018808862 -5.020498807249427209 #
intcurve-curve $-1 -1 $-1 forward { exact_int_cur 22140 full nurbs 2 open 2 
	0 2 0.1902148108885500788 2 
	1.151562518626450871 -0.3997716663084656119 -5.020498807249427209 1 
	1.125186269996512278 -0.4150000005551732762 -4.974813804509303772 1.037954849302030746 
	1.102343768626451004 -0.4150000005551732762 -4.935249431564396438 1 
	0 
	
	null_surface 
	null_surface 
	nullbs 
	nullbs 
	I I 
	0 
	0 
	0 
	
	0 F 1 F 0 UNEXTENDED UNEXTENDED } I I #
ATTRIB_CUSTOM-attrib $304 -1 $-1 $-1 $212 @22 generic_tag_attrib_def 3 3 -1 @23 generic_tag_attrib_def  1 1 @1 5 0 9 384 -417 514 536 543 -649 665 670 806 0 #
intcurve-curve $-1 -1 $-1 forward { exact_int_cur 22140 full nurbs 2 open 2 
	0.1902148108885498567 2 0.3804296217770997135 2 
	1.397656268626450871 -0.250675000555173555 -4.764750680194334898 1 
	1.374813767256389596 -0.250675000555173555 -4.725186307249427564 1.037954849302045179 
	1.348437518626451004 -0.2659033348018809972 -4.679501304509305015 1 
	0 
	
	null_surface 
	null_surface 
	nullbs 
	nullbs 
	I I 
	0 
	0 
	0 
	
	0 F 1 F 0 UNEXTENDED UNEXTENDED } I I #
coedge $-1 -1 $-1 $223 $259 $216 $275 forward $243 0 $-1 #
edge $-1 1146 $-1 $217 -0.5235987755982987046 $162 0.5235987755982988157 $274 $260 forward @7 unknown #
point $-1 -1 $-1 1.397656268626450871 -0.2506750005551733329 -4.764750680194335786 #
point $-1 -1 $-1 1.348437518626451004 -0.2659033348018809972 -4.679501304509305015 #
coedge $-1 -1 $-1 $252 $223 $266 $300 forward $243 0 $-1 #
ATTRIB_CUSTOM-attrib $305 -1 $-1 $-1 $225 @22 generic_tag_attrib_def 3 3 -1 @23 generic_tag_attrib_def  1 1 @1 3 0 9 383 -417 514 536 543 -649 665 670 806 0 #
point $-1 -1 $-1 1.250000018626450826 -0.2506750005551732219 -5.020498807249427209 #
edge $-1 1155 $-1 $231 0.02900635094610964915 $257 0.2839936490538903513 $233 $306 forward @7 unknown #
point $-1 -1 $-1 1.053125018626450915 -0.3997716663084658339 -4.850000055879365668 #
ATTRIB_CUSTOM-attrib $-1 -1 $-1 $-1 $235 @22 generic_tag_attrib_def 3 3 -1 @23 generic_tag_attrib_def  1 0 @0  0 24 387 388 418 422 424 427 428 438 449 487 491 492 498 516 530 539 545 650 667 668 672 809 811 812 0 #
straight-curve $-1 -1 $-1 1.151562518626450649 -0.4150000005551733873 -4.679501304509304127 5.205958850168082854e-18 0.5249999999999999112 1.165734175856416635e-16 I I #
ATTRIB_CUSTOM-attrib $307 -1 $-1 $-1 $238 @22 generic_tag_attrib_def 3 3 -1 @23 generic_tag_attrib_def  1 1 @1 6 0 9 375 -417 514 536 543 -649 665 670 806 0 #
plane-surface $-1 -1 $-1 1.053125018626450915 -0.4150000005551732762 -4.850000055879365668 -0.8660254037844388186 -1.024346974809883163e-16 0.4999999999999997224 0.2624999999999998446 -1.035585204602214356e-16 0.4546633369868303132 forward_v I I I I #
ATTRIB_CUSTOM-attrib $-1 -1 $-1 $-1 $241 @22 generic_tag_attrib_def 3 3 -1 @23 generic_tag_attrib_def  1 0 @0  0 24 387 388 418 422 424 427 428 438 449 487 491 492 498 516 530 539 545 650 667 668 672 809 811 812 0 #
ATTRIB_CUSTOM-attrib $308 -1 $-1 $-1 $242 @22 generic_tag_attrib_def 3 3 -1 @23 generic_tag_attrib_def  1 1 @1 1 0 9 381 -417 514 536 543 -649 665 670 806 0 #
face $309 1115 $-1 $-1 $310 $6 $-1 $311 reversed single #
loop $-1 -1 $-1 $312 $313 $242 #
torus-surface $-1 -1 $-1 1.250000018626451048 -0.2349250005551734022 -4.850000055879366556 -9.916112095558253862e-18 -1 -2.22044604925031949e-16 0.1183349999999999957 -0.01574999999999999664 -1 9.916112095558255403e-18 -9.916112095558981093e-18 forward_v I I I I #
loop $-1 -1 $-1 $-1 $314 $183 #
intcurve-curve $-1 -1 $-1 forward { exact_int_cur 22140 full nurbs 2 open 2 
	0 2 0.19021481088854994 2 
	1.348437518626450782 -0.2659033348018809972 -4.679501304509305015 1 
	1.295685021366573375 -0.250675000555173555 -4.679501304509305015 1.037954849302060278 
	1.250000018626450826 -0.2506750005551733329 -4.679501304509305015 1 
	0 
	
	null_surface 
	null_surface 
	nullbs 
	nullbs 
	I I 
	0 
	0 
	0 
	
	0 F 1 F 0 UNEXTENDED UNEXTENDED } I I #
ATTRIB_CUSTOM-attrib $-1 -1 $-1 $-1 $246 @22 generic_tag_attrib_def 3 3 -1 @23 generic_tag_attrib_def  1 0 @0  0 24 387 388 418 422 424 427 428 438 449 487 491 492 498 516 530 539 545 650 667 668 672 809 811 812 0 #
ATTRIB_CUSTOM-attrib $-1 -1 $-1 $-1 $249 @22 generic_tag_attrib_def 3 3 -1 @23 generic_tag_attrib_def  1 0 @0  0 24 387 388 418 422 424 427 428 438 449 487 491 492 498 516 530 539 545 650 667 668 672 809 811 812 0 #
vertex $-1 1289 $-1 $300 2 $315 #
intcurve-curve $-1 -1 $-1 forward { exact_int_cur 22140 full nurbs 2 open 2 
	0 2 0.1902148108885500788 2 
	1.053125018626450915 -0.2659033348018809972 -4.850000055879365668 1 
	1.079501267256389285 -0.2506750005551733329 -4.895685058619489105 1.037954849302034077 
	1.102343768626451004 -0.2506750005551732219 -4.935249431564396438 1 
	0 
	
	null_surface 
	null_surface 
	nullbs 
	nullbs 
	I I 
	0 
	0 
	0 
	
	0 F 1 F 0 UNEXTENDED UNEXTENDED } I I #
point $-1 -1 $-1 1.102343768626451004 -0.2506750005551733329 -4.764750680194335786 #
point $-1 -1 $-1 1.053125018626450915 -0.2659033348018809972 -4.850000055879365668 #
edge $-1 1148 $-1 $227 1.570796326794896558 $296 2.617993877991494411 $278 $260 forward @7 unknown #
intcurve-curve $-1 -1 $-1 forward { exact_int_cur 22140 full nurbs 2 open 2 
	0.1902148108885500788 2 0.3804296217770999911 2 
	1.102343768626451004 -0.2506750005551732219 -4.935249431564396438 1 
	1.125186269996512278 -0.2506750005551734439 -4.974813804509303772 1.037954849302041405 
	1.151562518626450871 -0.2659033348018808862 -5.020498807249427209 1 
	0 
	
	null_surface 
	null_surface 
	nullbs 
	nullbs 
	I I 
	0 
	0 
	0 
	
	0 F 1 F 0 UNEXTENDED UNEXTENDED } I I #
ATTRIB_CUSTOM-attrib $316 -1 $-1 $-1 $269 @22 generic_tag_attrib_def 3 3 -1 @23 generic_tag_attrib_def  1 1 @1 5 0 9 375 -417 514 536 543 -649 665 670 806 0 #
plane-surface $-1 -1 $-1 1.151562518626450871 -0.4150000005551730542 -5.020498807249427209 -0.8660254037844385966 1.196099074440436327e-16 -0.5000000000000003331 -0.2625000000000001221 -9.835256161005334197e-17 0.4546633369868301466 forward_v I I I I #
ATTRIB_CUSTOM-attrib $-1 -1 $-1 $-1 $272 @22 generic_tag_attrib_def 3 3 -1 @23 generic_tag_attrib_def  1 0 @0  0 24 387 388 418 422 424 427 428 438 449 487 491 492 498 516 530 539 545 650 667 668 672 809 811 812 0 #
ATTRIB_CUSTOM-attrib $-1 -1 $-1 $-1 $279 @22 generic_tag_attrib_def 3 3 -1 @23 generic_tag_attrib_def  1 0 @0  0 24 387 388 418 422 424 427 428 438 449 487 491 492 498 516 530 539 545 650 667 668 672 809 811 812 0 #
straight-curve $-1 -1 $-1 1.053125018626450915 -0.4150000005551732762 -4.850000055879365668 5.205958850168082854e-18 0.5249999999999999112 1.165734175856416635e-16 I I #
ATTRIB_CUSTOM-attrib $-1 -1 $-1 $-1 $285 @22 generic_tag_attrib_def 3 3 -1 @23 generic_tag_attrib_def  1 0 @0  0 24 387 388 418 422 424 427 428 438 449 487 491 492 498 516 530 539 545 650 667 668 672 809 811 812 0 #
ATTRIB_CUSTOM-attrib $-1 -1 $-1 $-1 $288 @22 generic_tag_attrib_def 3 3 -1 @23 generic_tag_attrib_def  1 0 @0  0 24 387 388 418 422 424 427 428 438 449 487 491 492 498 516 530 539 545 650 667 668 672 809 811 812 0 #
ATTRIB_CUSTOM-attrib $317 -1 $-1 $-1 $289 @22 generic_tag_attrib_def 3 3 -1 @23 generic_tag_attrib_def  1 2 @2 11 0 8 456 514 536 543 -649 665 670 806 0 #
loop $-1 -1 $-1 $-1 $318 $289 #
plane-surface $-1 -1 $-1 0.4718750074501446568 -0.2499999999999985567 -4.643750099465262515 4.930380657631283278e-32 -1 -2.22044604925031949e-16 5.176899690512889097e-31 1.665334536937739248e-16 -0.75 forward_v I I I I #
loop $-1 -1 $-1 $-1 $319 $242 #
coedge $-1 -1 $-1 $313 $313 $314 $320 forward $290 0 $-1 #
coedge $-1 -1 $-1 $314 $314 $313 $320 reversed $292 0 $-1 #
point $-1 -1 $-1 1.102343768626451004 -0.2506750005551732219 -4.935249431564396438 #
ATTRIB_CUSTOM-attrib $-1 -1 $-1 $-1 $302 @22 generic_tag_attrib_def 3 3 -1 @23 generic_tag_attrib_def  1 0 @0  0 24 387 388 418 422 424 427 428 438 449 487 491 492 498 516 530 539 545 650 667 668 672 809 811 812 0 #
ATTRIB_CUSTOM-attrib $-1 -1 $-1 $-1 $309 @22 generic_tag_attrib_def 3 3 -1 @23 generic_tag_attrib_def  1 0 @0  0 15 487 491 492 498 516 530 539 545 650 667 668 672 809 811 812 0 #
coedge $-1 -1 $-1 $318 $318 $319 $321 reversed $310 0 $-1 #
coedge $-1 -1 $-1 $319 $319 $318 $321 forward $312 0 $-1 #
edge $-1 1158 $-1 $322 -3.141592653589793116 $322 3.141592653589793116 $314 $323 forward @7 tangent #
edge $-1 1159 $-1 $324 -3.141592653589793116 $324 3.141592653589793116 $319 $325 forward @7 unknown #
vertex $-1 1292 $-1 $320 0 $326 #
ellipse-curve $-1 -1 $-1 1.250000018626451048 -0.2506750005551733329 -4.850000055879366556 9.916112095558253862e-18 1 2.22044604925031949e-16 0.1183349999999999957 -1.17342312482788612e-18 1.173423124827974135e-18 1 I I #
vertex $-1 1293 $-1 $321 0 $327 #
ellipse-curve $-1 -1 $-1 1.250000018626451048 -0.2499999999999985567 -4.850000055879366556 -4.958056047779102279e-18 -1 -2.22044604925031949e-16 8.580255244184674492e-32 2.526280136313771678e-17 -0.1137735428053615605 1 I I #
point $-1 -1 $-1 1.131665018626450969 -0.2506750005551733329 -4.850000055879365668 #
point $-1 -1 $-1 1.250000018626450826 -0.2499999999999985567 -4.736226513074004885 #
End-of-ASM-data 