22700 0 2 4           
16 Autodesk Neutron 20 ASM 227.1.1.65535 NT 24 Wed Aug 25 17:45:32 2021 
10 9.999999999999999547e-07 1.000000000000000036e-10 
asmheader $-1 -1 @13 227.1.1.65535 #
body $2 108 $-1 $3 $-1 $4 #
ATTRIB_CUSTOM-attrib $-1 -1 $5 $-1 $1 @20 Timestamp_attrib_def 1 1479662859001 #
lump $-1 -1 $-1 $-1 $6 $1 #
transform $-1 -1 1 0 0 0 1 0 0 0 1 0 0 0 1 no_rotate no_reflect no_shear #
ATTRIB_CUSTOM-attrib $-1 -1 $-1 $2 $1 @22 generic_tag_attrib_def 3 3 -1 @23 generic_tag_attrib_def  2 3 @3 341 2 0 0 3 @3 357 7 0 0 #
shell $-1 -1 $-1 $-1 $-1 $7 $-1 $3 #
face $8 90 $-1 $9 $10 $6 $-1 $11 forward single #
ATTRIB_CUSTOM-attrib $-1 -1 $-1 $-1 $7 @22 generic_tag_attrib_def 3 3 -1 @23 generic_tag_attrib_def  1 1 @1 4 0 1 357 0 #
face $12 91 $-1 $13 $14 $6 $-1 $15 forward single #
loop $-1 -1 $-1 $-1 $16 $7 #
plane-surface $-1 -1 $-1 5.080000000000000071 74.92000000000000171 70 0 0 -1 -0 1 -0 forward_v I I I I #
ATTRIB_CUSTOM-attrib $-1 -1 $-1 $-1 $9 @22 generic_tag_attrib_def 3 3 -1 @23 generic_tag_attrib_def  1 1 @1 3 0 1 357 0 #
face $17 92 $-1 $18 $19 $6 $-1 $20 forward single #
loop $-1 -1 $-1 $-1 $21 $9 #
plane-surface $-1 -1 $-1 5.080000000000000071 74.92000000000000171 75.07999999999999829 0 -1 0 -0 -0 -1 forward_v I I I I #
coedge $-1 -1 $-1 $22 $23 $24 $25 reversed $10 0 $-1 #
ATTRIB_CUSTOM-attrib $-1 -1 $-1 $-1 $13 @22 generic_tag_attrib_def 3 3 -1 @23 generic_tag_attrib_def  1 1 @1 6 0 1 357 0 #
face $26 93 $-1 $27 $28 $6 $-1 $29 forward single #
loop $-1 -1 $-1 $-1 $30 $13 #
plane-surface $-1 -1 $-1 5.080000000000000071 80 75.07999999999999829 0 0 1 -0 -1 -0 forward_v I I I I #
coedge $-1 -1 $-1 $31 $32 $33 $34 reversed $14 0 $-1 #
coedge $-1 -1 $-1 $35 $16 $32 $36 reversed $10 0 $-1 #
coedge $-1 -1 $-1 $16 $35 $37 $38 forward $10 0 $-1 #
coedge $-1 -1 $-1 $39 $33 $16 $25 forward $40 0 $-1 #
edge $-1 96 $-1 $41 74.92000000000000171 $42 80 $24 $43 forward @7 unknown #
ATTRIB_CUSTOM-attrib $-1 -1 $-1 $-1 $18 @22 generic_tag_attrib_def 3 3 -1 @23 generic_tag_attrib_def  1 1 @1 5 0 1 357 0 #
face $44 94 $-1 $45 $46 $6 $-1 $47 reversed single #
loop $-1 -1 $-1 $-1 $48 $18 #
plane-surface $-1 -1 $-1 5.080000000000000071 80 70 -0 1 0 -0 -0 1 forward_v I I I I #
coedge $-1 -1 $-1 $49 $50 $51 $52 forward $19 0 $-1 #
coedge $-1 -1 $-1 $53 $21 $50 $54 reversed $14 0 $-1 #
coedge $-1 -1 $-1 $21 $53 $22 $36 forward $14 0 $-1 #
coedge $-1 -1 $-1 $24 $51 $21 $34 forward $40 0 $-1 #
edge $-1 97 $-1 $55 -2.540000000000006253 $41 2.539999999999992042 $33 $56 forward @7 unknown #
coedge $57 -1 $-1 $23 $22 $58 $59 reversed $10 0 $-1 #
edge $-1 98 $-1 $60 0 $41 94.92000000000000171 $32 $61 forward @7 unknown #
coedge $-1 -1 $-1 $62 $48 $23 $38 reversed $28 0 $-1 #
edge $-1 99 $-1 $63 0 $42 94.92000000000000171 $23 $64 forward @7 unknown #
coedge $-1 -1 $-1 $51 $24 $48 $65 forward $40 0 $-1 #
loop $-1 -1 $-1 $-1 $33 $45 #
vertex $-1 203 $-1 $25 0 $66 #
vertex $-1 202 $-1 $65 0 $67 #
straight-curve $-1 -1 $-1 100 0 70 0 1 0 I I #
ATTRIB_CUSTOM-attrib $-1 -1 $-1 $-1 $27 @22 generic_tag_attrib_def 3 3 -1 @23 generic_tag_attrib_def  1 1 @1 1 0 1 357 0 #
face $68 95 $-1 $-1 $40 $6 $-1 $69 reversed single #
loop $-1 -1 $-1 $-1 $70 $27 #
plane-surface $-1 -1 $-1 5.080000000000000071 77.46000000000000796 72.53999999999999204 1 0 0 0 0 -1 forward_v I I I I #
coedge $-1 -1 $-1 $37 $71 $39 $65 reversed $28 0 $-1 #
coedge $-1 -1 $-1 $72 $30 $71 $73 reversed $19 0 $-1 #
coedge $-1 -1 $-1 $30 $72 $31 $54 forward $19 0 $-1 #
coedge $-1 -1 $-1 $33 $39 $30 $52 reversed $40 0 $-1 #
edge $-1 100 $-1 $55 74.92000000000000171 $74 80 $30 $75 forward @7 unknown #
coedge $76 -1 $-1 $32 $31 $70 $77 reversed $14 0 $-1 #
edge $-1 101 $-1 $78 0 $55 94.92000000000000171 $31 $79 forward @7 unknown #
vertex $-1 206 $-1 $52 0 $80 #
straight-curve $-1 -1 $-1 100 74.92000000000000171 72.53999999999999204 -0 -0 -1 I I #
ATTRIB_CUSTOM-attrib $-1 -1 $81 $-1 $35 @17 sketch_attrib_def 1 1 3 @13 114 0 1 0 1 1 #
coedge $82 -1 $-1 $70 $83 $35 $59 forward $46 0 $-1 #
edge $-1 102 $-1 $63 0 $60 5.079999999999998295 $35 $84 forward @7 unknown #
vertex $-1 204 $-1 $77 0 $85 #
straight-curve $-1 -1 $-1 5.080000000000000071 74.92000000000000171 70 1 0 0 I I #
coedge $86 -1 $-1 $71 $37 $83 $87 reversed $28 0 $-1 #
vertex $-1 205 $-1 $59 0 $88 #
straight-curve $-1 -1 $-1 5.080000000000000071 80 70 1 0 0 I I #
edge $-1 103 $-1 $42 -5.080000000000000071 $74 -0 $39 $89 forward @7 unknown #
point $-1 -1 $-1 100 74.92000000000000171 70 #
point $-1 -1 $-1 100 80 70 #
ATTRIB_CUSTOM-attrib $-1 -1 $-1 $-1 $45 @22 generic_tag_attrib_def 3 3 -1 @23 generic_tag_attrib_def  1 1 @1 2 0 1 357 0 #
plane-surface $-1 -1 $-1 100 0 70 -1 0 0 0 0 1 forward_v I I I I #
coedge $90 -1 $-1 $91 $58 $53 $77 forward $46 0 $-1 #
coedge $-1 -1 $-1 $48 $62 $49 $73 forward $28 0 $-1 #
coedge $92 -1 $-1 $50 $49 $91 $93 reversed $19 0 $-1 #
edge $-1 104 $-1 $94 0 $74 94.92000000000000171 $71 $95 forward @7 unknown #
vertex $-1 208 $-1 $65 1 $96 #
straight-curve $-1 -1 $-1 100 0 75.07999999999999829 0 1 0 I I #
ATTRIB_CUSTOM-attrib $-1 -1 $-1 $-1 $53 @17 sketch_attrib_def 1 1 3 @13 115 0 1 0 1 1 #
edge $-1 105 $-1 $60 0 $78 5.079999999999998295 $53 $97 forward @7 unknown #
vertex $-1 207 $-1 $77 1 $98 #
straight-curve $-1 -1 $-1 5.080000000000000071 74.92000000000000171 75.07999999999999829 1 0 0 I I #
point $-1 -1 $-1 100 74.92000000000000171 75.07999999999999829 #
ATTRIB_CUSTOM-attrib $-1 -1 $-1 $57 $35 @17 sketch_attrib_def 1 1 3 @13 105 0 1 0 2 2 #
ATTRIB_CUSTOM-attrib $-1 -1 $99 $-1 $58 @17 sketch_attrib_def 1 1 3 @13 105 0 1 0 2 2 #
coedge $100 -1 $-1 $58 $91 $62 $87 forward $46 0 $-1 #
straight-curve $-1 -1 $-1 5.080000000000000071 80 70 0 -1 0 F 0 F 5.079999999999998295 #
point $-1 -1 $-1 5.080000000000000071 74.92000000000000171 70 #
ATTRIB_CUSTOM-attrib $-1 -1 $101 $-1 $62 @17 sketch_attrib_def 1 1 3 @13 113 0 1 0 1 1 #
edge $-1 106 $-1 $94 0 $63 5.079999999999998295 $62 $102 forward @7 unknown #
point $-1 -1 $-1 5.080000000000000071 80 70 #
straight-curve $-1 -1 $-1 100 80 75.07999999999999829 0 0 1 I I #
ATTRIB_CUSTOM-attrib $-1 -1 $-1 $-1 $70 @17 sketch_attrib_def 1 1 3 @13 115 0 1 0 1 1 #
coedge $103 -1 $-1 $83 $70 $72 $93 forward $46 0 $-1 #
ATTRIB_CUSTOM-attrib $-1 -1 $104 $-1 $72 @17 sketch_attrib_def 1 1 3 @13 116 0 1 0 1 1 #
edge $-1 107 $-1 $78 0 $94 5.079999999999998295 $72 $105 forward @7 unknown #
vertex $-1 209 $-1 $87 0 $106 #
straight-curve $-1 -1 $-1 5.080000000000000071 80 75.07999999999999829 1 0 0 I I #
point $-1 -1 $-1 100 80 75.07999999999999829 #
straight-curve $-1 -1 $-1 5.080000000000000071 74.92000000000000171 70 0 0 1 F 0 F 5.079999999999998295 #
point $-1 -1 $-1 5.080000000000000071 74.92000000000000171 75.07999999999999829 #
ATTRIB_CUSTOM-attrib $-1 -1 $-1 $82 $58 @17 sketch_attrib_def 1 1 3 @13 114 0 1 0 1 1 #
ATTRIB_CUSTOM-attrib $-1 -1 $107 $-1 $83 @17 sketch_attrib_def 1 1 3 @13 107 0 1 0 1 1 #
ATTRIB_CUSTOM-attrib $-1 -1 $-1 $86 $62 @17 sketch_attrib_def 1 1 3 @13 107 0 1 0 1 1 #
straight-curve $-1 -1 $-1 5.080000000000000071 80 75.07999999999999829 0 0 -1 F 0 F 5.079999999999998295 #
ATTRIB_CUSTOM-attrib $-1 -1 $108 $-1 $91 @17 sketch_attrib_def 1 1 3 @13 108 0 1 0 1 2 #
ATTRIB_CUSTOM-attrib $-1 -1 $-1 $92 $72 @17 sketch_attrib_def 1 1 3 @13 108 0 1 0 1 2 #
straight-curve $-1 -1 $-1 5.080000000000000071 74.92000000000000171 75.07999999999999829 0 1 0 F 0 F 5.079999999999998295 #
point $-1 -1 $-1 5.080000000000000071 80 75.07999999999999829 #
ATTRIB_CUSTOM-attrib $-1 -1 $-1 $100 $83 @17 sketch_attrib_def 1 1 3 @13 113 0 1 0 1 1 #
ATTRIB_CUSTOM-attrib $-1 -1 $-1 $103 $91 @17 sketch_attrib_def 1 1 3 @13 116 0 1 0 1 1 #
End-of-ASM-data 