22700 0 2 4           
16 Autodesk Neutron 20 ASM 227.1.1.65535 NT 24 Wed Aug 25 17:45:36 2021 
10 9.999999999999999547e-07 1.000000000000000036e-10 
asmheader $-1 -1 @13 227.1.1.65535 #
body $2 18 $-1 $3 $-1 $4 #
ATTRIB_CUSTOM-attrib $-1 -1 $5 $-1 $1 @20 Timestamp_attrib_def 1 1479664572000 #
lump $-1 -1 $-1 $-1 $6 $1 #
transform $-1 -1 1 0 0 0 1 0 0 0 1 0 0 0 1 no_rotate no_reflect no_shear #
ATTRIB_CUSTOM-attrib $-1 -1 $-1 $2 $1 @22 generic_tag_attrib_def 3 3 -1 @23 generic_tag_attrib_def  1 3 @3 366 7 0 0 #
shell $-1 -1 $-1 $-1 $-1 $7 $-1 $3 #
face $8 197 $-1 $9 $10 $6 $-1 $11 forward single #
ATTRIB_CUSTOM-attrib $-1 -1 $-1 $-1 $7 @22 generic_tag_attrib_def 3 3 -1 @23 generic_tag_attrib_def  1 1 @1 1 0 1 379 0 #
face $12 198 $-1 $13 $14 $6 $-1 $15 forward single #
loop $-1 -1 $-1 $-1 $16 $7 #
torus-surface $-1 -1 $-1 117.539999999999992 81.5 72.53999999999999204 -0 -1 -0 9 1 0 0 -1 forward_v I I I I #
ATTRIB_CUSTOM-attrib $-1 -1 $-1 $-1 $9 @22 generic_tag_attrib_def 3 3 -1 @23 generic_tag_attrib_def  1 1 @1 2 0 1 379 0 #
face $17 199 $-1 $18 $19 $6 $-1 $20 forward single #
loop $-1 -1 $-1 $-1 $21 $9 #
cone-surface $-1 -1 $-1 15.03999999999999915 81.5 81.53999999999999204 1 0 -0 0 0.7071067811865474617 0.7071067811865474617 1 I I 0 1 0.999999999999999889 forward I I I I #
coedge $-1 -1 $-1 $22 $23 $24 $25 forward $10 0 $-1 #
ATTRIB_CUSTOM-attrib $-1 -1 $-1 $-1 $13 @22 generic_tag_attrib_def 3 3 -1 @23 generic_tag_attrib_def  1 1 @1 3 0 1 379 0 #
face $26 200 $-1 $27 $28 $6 $-1 $29 forward single #
loop $-1 -1 $-1 $-1 $30 $13 #
torus-surface $-1 -1 $-1 -12.45999999999999375 81.5 72.53999999999999204 -0 -1 -0 9 1 0 0 -1 forward_v I I I I #
coedge $-1 -1 $-1 $31 $32 $33 $34 forward $14 0 $-1 #
coedge $-1 -1 $-1 $35 $16 $36 $37 forward $10 0 $-1 #
coedge $-1 -1 $-1 $16 $35 $38 $39 forward $10 0 $-1 #
coedge $-1 -1 $-1 $40 $41 $16 $25 reversed $42 0 $-1 #
edge $-1 211 $-1 $43 0 $44 1.570796326794896558 $16 $45 forward @7 tangent #
ATTRIB_CUSTOM-attrib $-1 -1 $-1 $-1 $18 @22 generic_tag_attrib_def 3 3 -1 @23 generic_tag_attrib_def  1 1 @1 4 0 1 379 0 #
face $46 201 $-1 $47 $48 $6 $-1 $49 forward single #
loop $-1 -1 $-1 $-1 $50 $18 #
cone-surface $-1 -1 $-1 -21.45999999999999375 81.5 15.03999999999999204 0 -0 1 -0.7071067811865474617 0.7071067811865474617 0 1 I I 0 1 0.999999999999999889 forward I I I I #
coedge $-1 -1 $-1 $51 $52 $53 $54 forward $19 0 $-1 #
coedge $-1 -1 $-1 $55 $21 $56 $57 forward $14 0 $-1 #
coedge $-1 -1 $-1 $21 $55 $58 $59 forward $14 0 $-1 #
coedge $-1 -1 $-1 $52 $51 $21 $34 reversed $19 0 $-1 #
edge $-1 212 $-1 $60 0 $61 1.570796326794896558 $21 $62 forward @7 tangent #
coedge $-1 -1 $-1 $23 $22 $55 $63 forward $10 0 $-1 #
coedge $-1 -1 $-1 $64 $58 $22 $37 reversed $65 0 $-1 #
edge $-1 219 $-1 $44 -0.785398163397448279 $66 0.785398163397448279 $36 $67 forward @7 tangent #
coedge $-1 -1 $-1 $68 $69 $23 $39 reversed $70 0 $-1 #
edge $-1 218 $-1 $71 -0.785398163397448279 $43 0.785398163397448279 $38 $72 forward @7 tangent #
coedge $-1 -1 $-1 $73 $24 $74 $75 forward $42 0 $-1 #
coedge $-1 -1 $-1 $24 $73 $64 $76 forward $42 0 $-1 #
loop $-1 -1 $-1 $-1 $73 $77 #
vertex $-1 238 $-1 $39 1 $78 #
vertex $-1 239 $-1 $37 0 $79 #
ellipse-curve $-1 -1 $-1 126.539999999999992 81.5 72.53999999999999204 -0 -0 1 1 0 0 1 F 0 F 1.570796326794896558 #
ATTRIB_CUSTOM-attrib $-1 -1 $-1 $-1 $27 @22 generic_tag_attrib_def 3 3 -1 @23 generic_tag_attrib_def  1 1 @1 5 0 1 379 0 #
face $80 202 $-1 $81 $82 $6 $-1 $83 forward single #
loop $-1 -1 $-1 $-1 $84 $27 #
torus-surface $-1 -1 $-1 -12.45999999999999375 81.5 2.539999999999999147 -0 -1 -0 9.000000000000001776 1 0 0 -1 forward_v I I I I #
coedge $-1 -1 $-1 $85 $86 $87 $88 forward $28 0 $-1 #
coedge $-1 -1 $-1 $33 $30 $89 $90 forward $19 0 $-1 #
coedge $-1 -1 $-1 $30 $33 $91 $92 forward $19 0 $-1 #
coedge $-1 -1 $-1 $86 $85 $30 $54 reversed $28 0 $-1 #
edge $-1 213 $-1 $93 0 $94 1.570796326794896558 $30 $95 forward @7 tangent #
coedge $-1 -1 $-1 $32 $31 $35 $63 reversed $14 0 $-1 #
coedge $-1 -1 $-1 $96 $97 $31 $57 reversed $98 0 $-1 #
edge $-1 220 $-1 $61 -27.49999999999999289 $71 102.5 $56 $99 forward @7 tangent #
coedge $-1 -1 $-1 $36 $91 $32 $59 reversed $65 0 $-1 #
edge $-1 221 $-1 $66 -102.5 $60 27.49999999999999289 $58 $100 forward @7 tangent #
vertex $-1 242 $-1 $59 1 $101 #
vertex $-1 243 $-1 $57 0 $102 #
ellipse-curve $-1 -1 $-1 -12.45999999999999375 81.5 81.53999999999999204 1 -0 -0 0 1 0 1 F 0 F 1.570796326794896558 #
edge $-1 210 $-1 $66 0 $71 1.570796326794896558 $35 $103 forward @7 tangent #
coedge $-1 -1 $-1 $104 $36 $41 $76 reversed $65 0 $-1 #
loop $-1 -1 $-1 $-1 $36 $105 #
vertex $-1 240 $-1 $37 1 $106 #
ellipse-curve $-1 -1 $-1 117.539999999999992 82.5 72.53999999999999204 -0 -1 -0 6.363961030678928488 0 6.363961030678928488 1 F -0.9079267476803113412 F 0.9079267476803113412 #
coedge $-1 -1 $-1 $107 $38 $97 $108 forward $70 0 $-1 #
coedge $-1 -1 $-1 $38 $107 $109 $110 forward $70 0 $-1 #
loop $-1 -1 $-1 $-1 $38 $111 #
vertex $-1 241 $-1 $108 0 $112 #
ellipse-curve $-1 -1 $-1 117.539999999999992 81.5 72.53999999999999204 0 1 0 7.071067811865475505 0 7.071067811865475505 1 F -0.9079267476803113412 F 0.9079267476803113412 #
coedge $-1 -1 $-1 $41 $40 $113 $114 reversed $42 0 $-1 #
coedge $-1 -1 $-1 $109 $115 $40 $75 reversed $116 0 $-1 #
edge $-1 232 $-1 $43 -12.5 $117 57.49999999999999289 $74 $118 forward @7 tangent #
edge $-1 233 $-1 $119 -57.49999999999999289 $44 12.5 $64 $120 forward @7 tangent #
face $121 204 $-1 $122 $42 $6 $-1 $123 forward single #
point $-1 -1 $-1 127.539999999999992 81.5 72.53999999999999204 #
point $-1 -1 $-1 126.539999999999992 82.5 72.53999999999999204 #
ATTRIB_CUSTOM-attrib $-1 -1 $-1 $-1 $47 @22 generic_tag_attrib_def 3 3 -1 @23 generic_tag_attrib_def  1 1 @1 6 0 1 379 0 #
face $124 203 $-1 $77 $125 $6 $-1 $126 forward single #
loop $-1 -1 $-1 $-1 $127 $47 #
cone-surface $-1 -1 $-1 90.04000000000000625 81.5 -6.460000000000000853 -1 0 0 0 0.7071067811865474617 -0.7071067811865474617 1 I I 0 1 0.999999999999999889 forward I I I I #
coedge $-1 -1 $-1 $128 $129 $130 $131 forward $48 0 $-1 #
coedge $-1 -1 $-1 $53 $50 $132 $133 forward $28 0 $-1 #
coedge $-1 -1 $-1 $50 $53 $134 $135 forward $28 0 $-1 #
coedge $-1 -1 $-1 $129 $128 $50 $88 reversed $48 0 $-1 #
edge $-1 214 $-1 $136 0 $137 1.570796326794896558 $50 $138 forward @7 tangent #
coedge $-1 -1 $-1 $139 $140 $51 $90 reversed $141 0 $-1 #
edge $-1 222 $-1 $94 -0.785398163397448057 $61 0.785398163397448501 $89 $142 forward @7 tangent #
coedge $-1 -1 $-1 $58 $134 $52 $92 reversed $65 0 $-1 #
edge $-1 223 $-1 $60 -0.7853981633974486121 $93 0.7853981633974479459 $91 $143 forward @7 tangent #
vertex $-1 244 $-1 $92 1 $144 #
vertex $-1 245 $-1 $145 0 $146 #
ellipse-curve $-1 -1 $-1 -21.45999999999999019 81.5 72.53999999999999204 -0 -0 1 0 1 0 1 F 0 F 1.570796326794896558 #
coedge $-1 -1 $-1 $147 $56 $140 $148 reversed $98 0 $-1 #
coedge $-1 -1 $-1 $56 $147 $68 $108 reversed $98 0 $-1 #
loop $-1 -1 $-1 $-1 $56 $149 #
straight-curve $-1 -1 $-1 15.03999999999999915 81.5 82.53999999999999204 1 0 -0 F -28.600001000000006 F 103.6000009999999918 #
straight-curve $-1 -1 $-1 15.03999999999999915 82.5 81.53999999999999204 -1 -0 0 F -103.6000009999999918 F 28.600001000000006 #
point $-1 -1 $-1 -12.45999999999999375 82.5 81.53999999999999204 #
point $-1 -1 $-1 -12.45999999999999375 81.5 82.53999999999999204 #
ellipse-curve $-1 -1 $-1 117.539999999999992 81.5 81.53999999999999204 1 -0 -0 0 1 0 1 F 0 F 1.570796326794896558 #
coedge $-1 -1 $-1 $150 $64 $151 $152 reversed $65 0 $-1 #
face $153 205 $-1 $154 $65 $6 $-1 $155 forward single #
point $-1 -1 $-1 117.539999999999992 82.5 81.53999999999999204 #
coedge $-1 -1 $-1 $69 $68 $156 $157 forward $70 0 $-1 #
edge $-1 234 $-1 $71 -1.5 $158 0 $97 $159 forward @7 tangent #
coedge $-1 -1 $-1 $160 $74 $69 $110 reversed $116 0 $-1 #
edge $-1 91 $-1 $161 0 $43 1.5 $109 $162 forward @7 tangent #
face $163 206 $-1 $105 $70 $6 $-1 $164 forward single #
point $-1 -1 $-1 117.539999999999992 81.5 82.53999999999999204 #
coedge $-1 -1 $-1 $165 $151 $73 $114 forward $125 0 $-1 #
edge $-1 217 $-1 $119 0 $117 1.570796326794896558 $113 $166 forward @7 tangent #
coedge $-1 -1 $-1 $74 $160 $167 $168 reversed $116 0 $-1 #
loop $-1 -1 $-1 $-1 $74 $169 #
vertex $-1 253 $-1 $168 0 $170 #
straight-curve $-1 -1 $-1 127.539999999999992 81.5 60.03999999999999204 0 0 -1 F -12.5 F 57.49999999999999289 #
vertex $-1 252 $-1 $152 1 $171 #
straight-curve $-1 -1 $-1 126.539999999999992 82.5 60.03999999999999204 -0 -0 1 F -57.49999999999999289 F 12.5 #
ATTRIB_CUSTOM-attrib $-1 -1 $-1 $-1 $77 @22 generic_tag_attrib_def 3 3 -1 @23 generic_tag_attrib_def  1 1 @1 8 0 1 379 0 #
face $172 209 $-1 $173 $174 $6 $-1 $175 forward single #
cone-surface $-1 -1 $-1 126.539999999999992 81.5 60.03999999999999204 0 0 -1 0.7071067811865474617 0.7071067811865474617 0 1 I I 0 1 0.999999999999999889 forward I I I I #
ATTRIB_CUSTOM-attrib $-1 -1 $-1 $-1 $81 @22 generic_tag_attrib_def 3 3 -1 @23 generic_tag_attrib_def  1 1 @1 7 0 1 379 0 #
loop $-1 -1 $-1 $-1 $113 $81 #
torus-surface $-1 -1 $-1 117.539999999999992 81.5 2.539999999999999147 -0 -1 -0 9 1 0 0 -1 forward_v I I I I #
coedge $-1 -1 $-1 $176 $177 $178 $179 forward $82 0 $-1 #
coedge $-1 -1 $-1 $87 $84 $180 $181 forward $48 0 $-1 #
coedge $-1 -1 $-1 $84 $87 $182 $183 forward $48 0 $-1 #
coedge $-1 -1 $-1 $177 $176 $84 $131 reversed $82 0 $-1 #
edge $-1 215 $-1 $184 0 $185 1.570796326794896558 $84 $186 forward @7 tangent #
coedge $-1 -1 $-1 $187 $188 $85 $133 reversed $189 0 $-1 #
edge $-1 224 $-1 $137 -12.49999999999999289 $94 57.5 $132 $190 forward @7 tangent #
coedge $-1 -1 $-1 $91 $182 $86 $135 reversed $65 0 $-1 #
edge $-1 225 $-1 $93 -57.5 $136 12.49999999999999289 $134 $191 forward @7 tangent #
vertex $-1 246 $-1 $135 1 $192 #
vertex $-1 247 $-1 $133 0 $193 #
ellipse-curve $-1 -1 $-1 -21.45999999999999375 81.5 2.539999999999999147 -0 -0 1 0 1 0 1 F 0 F 1.570796326794896558 #
coedge $-1 -1 $-1 $194 $89 $188 $145 forward $141 0 $-1 #
coedge $-1 -1 $-1 $89 $194 $96 $148 forward $141 0 $-1 #
loop $-1 -1 $-1 $-1 $89 $195 #
ellipse-curve $-1 -1 $-1 -12.45999999999999375 81.5 72.53999999999999204 0 1 0 -7.071067811865477282 0 7.071067811865473729 1 F -0.9079267476803111192 F 0.9079267476803122294 #
ellipse-curve $-1 -1 $-1 -12.45999999999999375 82.5 72.53999999999999204 -0 -1 -0 -6.363961030678929376 0 6.363961030678925823 1 F -0.9079267476803122294 F 0.9079267476803111192 #
point $-1 -1 $-1 -21.45999999999999019 82.5 72.53999999999999204 #
edge $-1 236 $-1 $94 -1.5 $196 -0 $188 $197 forward @7 tangent #
point $-1 -1 $-1 -22.45999999999999375 81.5 72.53999999999999204 #
coedge $198 -1 $-1 $97 $96 $199 $200 reversed $98 0 $-1 #
edge $-1 104 $-1 $201 0 $61 1.5 $96 $202 forward @7 tangent #
face $203 87 $-1 $-1 $98 $6 $-1 $204 forward single #
coedge $-1 -1 $-1 $182 $104 $177 $205 reversed $65 0 $-1 #
coedge $-1 -1 $-1 $113 $178 $104 $152 forward $125 0 $-1 #
edge $-1 231 $-1 $206 -0.7853981633974487231 $119 0.7853981633974478349 $104 $207 forward @7 tangent #
ATTRIB_CUSTOM-attrib $-1 -1 $-1 $-1 $105 @22 generic_tag_attrib_def 3 3 -1 @23 generic_tag_attrib_def  1 1 @1 2 0 1 366 0 #
face $208 88 $-1 $209 $210 $6 $-1 $211 forward single #
plane-surface $-1 -1 $-1 52.54000000000000625 82.5 37.53999999999999204 0 1 0 0 0 1 forward_v I I I I #
coedge $-1 -1 $-1 $199 $212 $107 $157 reversed $213 0 $-1 #
edge $-1 94 $-1 $158 -0.785398163397448279 $161 0.785398163397448279 $156 $214 forward @7 unknown #
vertex $-1 258 $-1 $200 0 $215 #
straight-curve $-1 -1 $-1 117.539999999999992 80 82.53999999999999204 0 -1 -0 F -33.50000099999999748 F 31.00000099999999748 #
coedge $216 -1 $-1 $115 $109 $212 $217 reversed $116 0 $-1 #
vertex $-1 257 $-1 $157 1 $218 #
straight-curve $-1 -1 $-1 127.539999999999992 80 72.53999999999999204 -0 1 0 F -31.00000099999999748 F 33.50000099999999748 #
ATTRIB_CUSTOM-attrib $-1 -1 $-1 $-1 $111 @22 generic_tag_attrib_def 3 3 -1 @23 generic_tag_attrib_def  1 1 @1 1 0 1 378 0 #
cone-surface $-1 -1 $-1 117.539999999999992 80 72.53999999999999204 -0 1 0 7.071067811865474617 0 7.071067811865474617 1 I I 0 1 10 forward I I I I #
coedge $-1 -1 $-1 $178 $113 $219 $220 forward $125 0 $-1 #
ellipse-curve $-1 -1 $-1 126.539999999999992 81.5 2.539999999999999147 -0 -0 -1 0 1 0 1 F 0 F 1.570796326794896558 #
coedge $-1 -1 $-1 $221 $219 $115 $168 forward $222 0 $-1 #
edge $-1 235 $-1 $117 -1.5 $223 0 $115 $224 forward @7 tangent #
face $225 207 $-1 $111 $116 $6 $-1 $226 forward single #
point $-1 -1 $-1 127.539999999999992 81.5 2.539999999999999147 #
point $-1 -1 $-1 126.539999999999992 82.5 2.539999999999999147 #
ATTRIB_CUSTOM-attrib $-1 -1 $-1 $-1 $122 @22 generic_tag_attrib_def 3 3 -1 @23 generic_tag_attrib_def  1 1 @1 5 0 1 366 0 #
face $227 208 $-1 $169 $222 $6 $-1 $228 forward single #
loop $-1 -1 $-1 $-1 $229 $122 #
plane-surface $-1 -1 $-1 127.5400000000000063 80 -7.460000000000000853 0 0 -1 -1 -0 -0 forward_v I I I I #
coedge $-1 -1 $-1 $130 $127 $229 $230 forward $82 0 $-1 #
coedge $-1 -1 $-1 $127 $130 $150 $205 forward $82 0 $-1 #
coedge $-1 -1 $-1 $151 $165 $127 $179 reversed $125 0 $-1 #
edge $-1 216 $-1 $206 0 $231 1.570796326794896558 $127 $232 forward @7 tangent #
coedge $-1 -1 $-1 $233 $234 $128 $181 reversed $210 0 $-1 #
edge $-1 226 $-1 $185 -0.7853981633974478349 $137 0.7853981633974488341 $180 $235 forward @7 tangent #
coedge $-1 -1 $-1 $134 $150 $129 $183 reversed $65 0 $-1 #
edge $-1 227 $-1 $136 -0.7853981633974487231 $184 0.7853981633974478349 $182 $236 forward @7 tangent #
vertex $-1 248 $-1 $183 1 $237 #
vertex $-1 249 $-1 $238 0 $239 #
ellipse-curve $-1 -1 $-1 -12.45999999999999375 81.5 -6.460000000000001741 -1 0 -0 0 1 0 1 F 0 F 1.570796326794896558 #
coedge $-1 -1 $-1 $240 $132 $234 $241 reversed $189 0 $-1 #
coedge $-1 -1 $-1 $132 $240 $139 $145 reversed $189 0 $-1 #
loop $-1 -1 $-1 $-1 $132 $209 #
straight-curve $-1 -1 $-1 -22.45999999999999375 81.5 15.03999999999999204 0 -0 1 F -13.60000100000000067 F 58.60000099999999179 #
straight-curve $-1 -1 $-1 -21.45999999999999375 82.5 15.03999999999999204 -0 0 -1 F -58.60000099999999179 F 13.60000100000000067 #
point $-1 -1 $-1 -21.45999999999999375 82.5 2.539999999999999147 #
point $-1 -1 $-1 -22.45999999999999375 81.5 2.539999999999999147 #
coedge $-1 -1 $-1 $140 $139 $242 $243 forward $141 0 $-1 #
face $244 86 $-1 $149 $141 $6 $-1 $245 forward single #
vertex $-1 260 $-1 $246 0 $247 #
straight-curve $-1 -1 $-1 -22.45999999999999375 80 72.53999999999999204 -0 -1 -0 F -33.50000099999999748 F 31.00000099999999748 #
ATTRIB_CUSTOM-attrib $-1 -1 $-1 $-1 $147 @17 sketch_attrib_def 1 1 3 @13 162 0 1 0 1 1 #
coedge $248 -1 $-1 $242 $156 $147 $200 forward $213 0 $-1 #
edge $-1 95 $-1 $158 10 $201 140 $147 $249 forward @7 unknown #
vertex $-1 261 $-1 $243 1 $250 #
straight-curve $-1 -1 $-1 -12.45999999999999375 80 82.53999999999999204 0 1 0 F -31.00000099999999748 F 33.50000099999999748 #
ATTRIB_CUSTOM-attrib $-1 -1 $-1 $-1 $149 @22 generic_tag_attrib_def 3 3 -1 @23 generic_tag_attrib_def  1 1 @1 3 0 1 366 0 #
plane-surface $-1 -1 $-1 -22.46000000000000796 80 82.53999999999999204 0 -0 1 1 -0 -0 forward_v I I I I #
edge $-1 229 $-1 $184 -102.5 $206 27.49999999999998579 $150 $251 forward @7 tangent #
vertex $-1 250 $-1 $205 1 $252 #
ellipse-curve $-1 -1 $-1 117.539999999999992 82.5 2.539999999999999147 -0 -1 -0 6.363961030678930264 0 -6.363961030678924935 1 F -0.9079267476803117853 F 0.9079267476803115633 #
ATTRIB_CUSTOM-attrib $-1 -1 $-1 $-1 $154 @22 generic_tag_attrib_def 3 3 -1 @23 generic_tag_attrib_def  1 1 @1 4 0 1 378 0 #
face $253 90 $-1 $254 $189 $6 $-1 $255 forward single #
loop $-1 -1 $-1 $-1 $180 $154 #
cone-surface $-1 -1 $-1 -12.45999999999999375 80 2.539999999999999147 0 1 0 -7.071067811865474617 0 -7.071067811865474617 1 I I 0 1 10 forward I I I I #
coedge $256 -1 $-1 $156 $257 $160 $217 forward $213 0 $-1 #
loop $-1 -1 $-1 $-1 $258 $254 #
ellipse-curve $-1 -1 $-1 117.539999999999992 80 72.53999999999999204 0 1 0 7.071067811865474617 0 7.071067811865474617 1 I I #
point $-1 -1 $-1 117.539999999999992 80 82.53999999999999204 #
ATTRIB_CUSTOM-attrib $-1 -1 $-1 $-1 $160 @17 sketch_attrib_def 1 1 3 @13 161 0 1 0 1 1 #
edge $-1 101 $-1 $223 10 $161 80 $160 $259 forward @7 unknown #
point $-1 -1 $-1 127.539999999999992 80 72.53999999999999204 #
coedge $-1 -1 $-1 $167 $260 $165 $220 reversed $222 0 $-1 #
edge $-1 230 $-1 $117 -0.7853981633974479459 $231 0.7853981633974487231 $219 $261 forward @7 tangent #
coedge $-1 -1 $-1 $260 $167 $257 $262 forward $222 0 $-1 #
loop $-1 -1 $-1 $-1 $219 $173 #
vertex $-1 256 $-1 $217 0 $263 #
straight-curve $-1 -1 $-1 127.539999999999992 80 2.539999999999999147 0 -1 -0 F -33.50000099999999748 F 31.00000099999999748 #
ATTRIB_CUSTOM-attrib $-1 -1 $-1 $-1 $169 @22 generic_tag_attrib_def 3 3 -1 @23 generic_tag_attrib_def  1 1 @1 4 0 1 366 0 #
plane-surface $-1 -1 $-1 127.539999999999992 80 82.53999999999999204 1 0 0 -0 -0 -1 forward_v I I I I #
ATTRIB_CUSTOM-attrib $-1 -1 $-1 $-1 $173 @22 generic_tag_attrib_def 3 3 -1 @23 generic_tag_attrib_def  1 1 @1 2 0 1 378 0 #
cone-surface $-1 -1 $-1 117.539999999999992 80 2.539999999999999147 -0 1 0 7.071067811865474617 0 -7.071067811865474617 1 I I 0 1 10 forward I I I I #
coedge $-1 -1 $-1 $264 $265 $176 $230 reversed $174 0 $-1 #
edge $-1 228 $-1 $231 -27.49999999999998579 $185 102.5 $229 $266 forward @7 tangent #
vertex $-1 251 $-1 $220 1 $267 #
ellipse-curve $-1 -1 $-1 117.539999999999992 81.5 -6.460000000000000853 -1 0 -0 0 1 0 1 F 0 F 1.570796326794896558 #
coedge $-1 -1 $-1 $268 $180 $265 $238 forward $210 0 $-1 #
coedge $-1 -1 $-1 $180 $268 $187 $241 forward $210 0 $-1 #
ellipse-curve $-1 -1 $-1 -12.45999999999999375 81.5 2.539999999999999147 0 1 0 -7.071067811865471064 0 -7.07106781186547817 1 F -0.9079267476803115633 F 0.9079267476803124515 #
ellipse-curve $-1 -1 $-1 -12.45999999999999375 82.5 2.539999999999999147 -0 -1 -0 -6.363961030678925823 0 -6.363961030678931152 1 F -0.9079267476803124515 F 0.9079267476803115633 #
point $-1 -1 $-1 -12.45999999999999375 82.5 -6.460000000000001741 #
edge $-1 237 $-1 $185 -1.5 $269 -0 $265 $270 forward @7 tangent #
point $-1 -1 $-1 -12.45999999999999375 81.5 -7.460000000000000853 #
coedge $271 -1 $-1 $188 $187 $272 $246 reversed $189 0 $-1 #
edge $-1 111 $-1 $273 0 $137 1.5 $187 $274 forward @7 tangent #
coedge $-1 -1 $-1 $272 $199 $194 $243 reversed $213 0 $-1 #
edge $-1 103 $-1 $196 -0.785398163397448279 $201 0.7853981633974469467 $242 $275 forward @7 unknown #
ATTRIB_CUSTOM-attrib $-1 -1 $-1 $-1 $195 @22 generic_tag_attrib_def 3 3 -1 @23 generic_tag_attrib_def  1 1 @1 3 0 1 378 0 #
cone-surface $-1 -1 $-1 -12.45999999999999375 80 72.53999999999999204 0 1 0 -7.071067811865474617 0 7.071067811865474617 1 I I 0 1 10 forward I I I I #
edge $-1 107 $-1 $196 10 $273 80 $240 $276 forward @7 unknown #
point $-1 -1 $-1 -22.45999999999999375 80 72.53999999999999204 #
ATTRIB_CUSTOM-attrib $-1 -1 $-1 $-1 $199 @17 sketch_attrib_def 1 1 3 @13 162 0 1 0 1 1 #
straight-curve $-1 -1 $-1 127.539999999999992 80 82.53999999999999204 -1 0 0 F 0 F 150 #
point $-1 -1 $-1 -12.46000000000000796 80 82.53999999999999204 #
straight-curve $-1 -1 $-1 90.04000000000000625 82.5 -6.460000000000000853 1 -0 -0 F -103.6000009999999918 F 28.60000099999999179 #
point $-1 -1 $-1 117.539999999999992 82.5 -6.460000000000000853 #
ATTRIB_CUSTOM-attrib $-1 -1 $-1 $-1 $209 @22 generic_tag_attrib_def 3 3 -1 @23 generic_tag_attrib_def  1 1 @1 6 0 1 366 0 #
face $277 89 $-1 $195 $213 $6 $-1 $278 reversed single #
plane-surface $-1 -1 $-1 -22.45999999999999375 80 -7.460000000000007958 -1 0 0 -0 -0 1 forward_v I I I I #
ATTRIB_CUSTOM-attrib $-1 -1 $-1 $-1 $212 @17 sketch_attrib_def 1 1 3 @13 161 0 1 0 1 1 #
coedge $-1 -1 $-1 $212 $279 $221 $262 reversed $213 0 $-1 #
coedge $-1 -1 $-1 $279 $272 $268 $280 reversed $213 0 $-1 #
straight-curve $-1 -1 $-1 127.539999999999992 80 -7.460000000000000853 0 0 1 F 0 F 90 #
coedge $-1 -1 $-1 $219 $221 $264 $281 forward $222 0 $-1 #
ellipse-curve $-1 -1 $-1 117.539999999999992 81.5 2.539999999999999147 0 1 0 7.07106781186547817 0 -7.071067811865471953 1 F -0.9079267476803115633 F 0.9079267476803117853 #
edge $-1 97 $-1 $223 -0.785398163397448279 $282 0.7853981633974469467 $257 $283 forward @7 unknown #
point $-1 -1 $-1 127.539999999999992 80 2.539999999999999147 #
coedge $-1 -1 $-1 $284 $229 $260 $281 reversed $174 0 $-1 #
coedge $-1 -1 $-1 $229 $284 $233 $238 reversed $174 0 $-1 #
straight-curve $-1 -1 $-1 90.04000000000000625 81.5 -7.460000000000000853 -1 0 0 F -28.60000099999999179 F 103.6000009999999918 #
point $-1 -1 $-1 117.539999999999992 81.5 -7.460000000000000853 #
coedge $-1 -1 $-1 $234 $233 $258 $280 forward $210 0 $-1 #
vertex $-1 255 $-1 $285 0 $286 #
straight-curve $-1 -1 $-1 -12.45999999999999375 80 -7.460000000000000853 -0 -1 -0 F -33.50000099999999748 F 31.00000099999999748 #
ATTRIB_CUSTOM-attrib $-1 -1 $-1 $-1 $240 @17 sketch_attrib_def 1 1 3 @13 163 0 1 0 1 1 #
coedge $287 -1 $-1 $258 $242 $240 $246 forward $213 0 $-1 #
vertex $-1 259 $-1 $280 1 $288 #
straight-curve $-1 -1 $-1 -22.45999999999999375 80 2.539999999999999147 0 1 0 F -31.00000099999999748 F 33.50000099999999748 #
ellipse-curve $-1 -1 $-1 -12.45999999999999375 80 72.53999999999999204 0 1 0 -7.071067811865474617 0 7.071067811865474617 1 I I #
straight-curve $-1 -1 $-1 -22.45999999999999375 80 82.53999999999999204 0 0 -1 F 0 F 90 #
ATTRIB_CUSTOM-attrib $-1 -1 $-1 $-1 $254 @22 generic_tag_attrib_def 3 3 -1 @23 generic_tag_attrib_def  1 1 @1 1 0 1 366 0 #
plane-surface $-1 -1 $-1 52.54000000000000625 80 37.53999999999999204 0 1 0 -1 0 0 forward_v I I I I #
coedge $289 -1 $-1 $257 $258 $284 $285 forward $213 0 $-1 #
edge $-1 109 $-1 $269 -0.785398163397448279 $273 0.7853981633974475018 $258 $290 forward @7 unknown #
edge $-1 98 $-1 $282 0 $231 1.5 $264 $291 forward @7 tangent #
vertex $-1 254 $-1 $262 1 $292 #
ellipse-curve $-1 -1 $-1 117.539999999999992 80 2.539999999999999147 0 1 0 7.071067811865474617 0 -7.071067811865474617 1 I I #
coedge $293 -1 $-1 $265 $264 $279 $285 reversed $174 0 $-1 #
edge $-1 113 $-1 $269 10 $282 140 $284 $294 forward @7 unknown #
point $-1 -1 $-1 -12.45999999999999375 80 -7.460000000000000853 #
ATTRIB_CUSTOM-attrib $-1 -1 $-1 $-1 $272 @17 sketch_attrib_def 1 1 3 @13 163 0 1 0 1 1 #
point $-1 -1 $-1 -22.45999999999999375 80 2.539999999999992042 #
ATTRIB_CUSTOM-attrib $-1 -1 $-1 $-1 $279 @17 sketch_attrib_def 1 1 3 @13 160 0 1 0 1 1 #
ellipse-curve $-1 -1 $-1 -12.45999999999999375 80 2.539999999999999147 0 1 0 -7.071067811865474617 0 -7.071067811865474617 1 I I #
straight-curve $-1 -1 $-1 117.539999999999992 80 -7.460000000000000853 -0 1 0 F -31.00000099999999748 F 33.50000099999999748 #
point $-1 -1 $-1 117.5400000000000063 80 -7.460000000000000853 #
ATTRIB_CUSTOM-attrib $-1 -1 $-1 $-1 $284 @17 sketch_attrib_def 1 1 3 @13 160 0 1 0 1 1 #
straight-curve $-1 -1 $-1 -22.45999999999999375 80 -7.460000000000000853 1 0 0 F 0 F 150 #
End-of-ASM-data 