22700 0 2 4           
16 Autodesk Neutron 20 ASM 227.1.1.65535 NT 24 Wed Aug 25 23:43:36 2021 
10 9.999999999999999547e-07 1.000000000000000036e-10 
asmheader $-1 -1 @13 227.1.1.65535 #
body $2 0 $-1 $3 $-1 $4 #
ATTRIB_CUSTOM-attrib $-1 -1 $5 $-1 $1 @20 Timestamp_attrib_def 1 1428443017001 #
lump $-1 -1 $-1 $-1 $6 $1 #
transform $-1 -1 1 0 0 0 1 0 0 0 1 0 0 0 1 no_rotate no_reflect no_shear #
ATTRIB_CUSTOM-attrib $-1 -1 $-1 $2 $1 @22 generic_tag_attrib_def 3 3 -1 @23 generic_tag_attrib_def  1 3 @3 438 1 0 0 #
shell $-1 -1 $-1 $-1 $-1 $7 $-1 $3 #
face $8 2 $-1 $9 $10 $6 $-1 $11 forward single #
ATTRIB_CUSTOM-attrib $-1 -1 $-1 $-1 $7 @22 generic_tag_attrib_def 3 3 -1 @23 generic_tag_attrib_def  1 1 @1 2 0 2 422 438 0 #
face $12 1 $-1 $13 $14 $6 $-1 $15 forward single #
loop $-1 -1 $-1 $16 $17 $7 #
torus-surface $-1 -1 $-1 -1.675000000000000266 0 0 -1 -0 -0 0.2250000000000000056 0.02500000000000000139 0 0 1 forward_v I I I I #
ATTRIB_CUSTOM-attrib $-1 -1 $-1 $-1 $9 @22 generic_tag_attrib_def 3 3 -1 @23 generic_tag_attrib_def  2 1 @1 3 0 2 338 438 0 1 @1 3 0 2 339 438 0 #
face $18 3 $-1 $19 $20 $6 $-1 $21 reversed single #
loop $-1 -1 $-1 $22 $23 $9 #
cone-surface $-1 -1 $-1 0 0 0 -1 0 0 0 0.25 0 1 I I 0 1 0.25 forward I I I I #
loop $-1 -1 $-1 $-1 $24 $7 #
coedge $-1 -1 $-1 $17 $17 $25 $26 forward $10 0 $-1 #
ATTRIB_CUSTOM-attrib $-1 -1 $-1 $-1 $13 @22 generic_tag_attrib_def 3 3 -1 @23 generic_tag_attrib_def  1 1 @1 2 0 2 338 438 0 #
face $27 12 $-1 $28 $29 $6 $-1 $30 forward single #
loop $-1 -1 $-1 $-1 $31 $13 #
plane-surface $-1 -1 $-1 -1.700000000000000178 0 0 1 0 0 0 1 0 forward_v I I I I #
loop $-1 -1 $-1 $-1 $25 $9 #
coedge $-1 -1 $-1 $23 $23 $32 $33 reversed $14 0 $-1 #
coedge $-1 -1 $-1 $24 $24 $31 $34 forward $16 0 $-1 #
coedge $-1 -1 $-1 $25 $25 $17 $26 reversed $22 0 $-1 #
edge $-1 8 $-1 $35 -3.141592653589793116 $35 3.141592653589793116 $25 $36 forward @7 tangent #
ATTRIB_CUSTOM-attrib $-1 -1 $-1 $-1 $19 @22 generic_tag_attrib_def 3 3 -1 @23 generic_tag_attrib_def  1 1 @1 1 0 2 422 438 0 #
face $37 13 $-1 $-1 $38 $6 $-1 $39 forward single #
loop $-1 -1 $-1 $40 $32 $19 #
torus-surface $-1 -1 $-1 1.675000000000000266 0 0 1 0 0 0.2250000000000000056 0.02500000000000000139 0 0 -1 forward_v I I I I #
coedge $-1 -1 $-1 $31 $31 $24 $34 reversed $20 0 $-1 #
coedge $-1 -1 $-1 $32 $32 $23 $33 forward $29 0 $-1 #
edge $-1 10 $-1 $41 -3.141592653589793116 $41 3.141592653589793116 $23 $42 forward @7 tangent #
edge $-1 9 $-1 $43 -3.141592653589793116 $43 3.141592653589793116 $31 $44 forward @7 tangent #
vertex $-1 4 $-1 $26 0 $45 #
ellipse-curve $-1 -1 $-1 -1.675000000000000266 0 0 -1 -0 -0 0 0.25 0 1 I I #
ATTRIB_CUSTOM-attrib $-1 -1 $-1 $-1 $28 @22 generic_tag_attrib_def 3 3 -1 @23 generic_tag_attrib_def  1 1 @1 1 0 2 338 438 0 #
loop $-1 -1 $-1 $-1 $46 $28 #
plane-surface $-1 -1 $-1 1.700000000000000178 0 0 1 0 0 0 1 0 forward_v I I I I #
loop $-1 -1 $-1 $-1 $47 $19 #
vertex $-1 6 $-1 $33 0 $48 #
ellipse-curve $-1 -1 $-1 1.675000000000000266 0 0 1 0 0 0 0.25 0 1 I I #
vertex $-1 5 $-1 $34 0 $49 #
ellipse-curve $-1 -1 $-1 -1.700000000000000178 0 0 1 0 0 0 0.2250000000000000056 0 1 I I #
point $-1 -1 $-1 -1.675000000000000266 -0.25 3.061616997868383018e-17 #
coedge $-1 -1 $-1 $46 $46 $47 $50 reversed $38 0 $-1 #
coedge $-1 -1 $-1 $47 $47 $46 $50 forward $40 0 $-1 #
point $-1 -1 $-1 1.675000000000000266 -0.25 -3.061616997868383018e-17 #
point $-1 -1 $-1 -1.700000000000000178 -0.2250000000000000056 -2.755455298081544778e-17 #
edge $-1 11 $-1 $51 -3.141592653589793116 $51 3.141592653589793116 $46 $52 forward @7 tangent #
vertex $-1 7 $-1 $50 0 $53 #
ellipse-curve $-1 -1 $-1 1.700000000000000178 0 0 -1 -0 -0 0 0.2250000000000000056 0 1 I I #
point $-1 -1 $-1 1.700000000000000178 -0.2250000000000000056 2.755455298081544778e-17 #
End-of-ASM-data 