22700 0 2 4           
16 Autodesk Neutron 20 ASM 227.1.1.65535 NT 24 Thu Aug 26 01:27:22 2021 
10 9.999999999999999547e-07 1.000000000000000036e-10 
asmheader $-1 -1 @13 227.1.1.65535 #
body $2 106 $-1 $3 $-1 $4 #
ATTRIB_CUSTOM-attrib $-1 -1 $5 $-1 $1 @20 Timestamp_attrib_def 1 1534150147626338 #
lump $-1 -1 $-1 $-1 $6 $1 #
transform $-1 -1 1 0 0 0 1 0 0 0 1 0 0 0 1 no_rotate no_reflect no_shear #
ATTRIB_CUSTOM-attrib $-1 -1 $-1 $2 $1 @22 generic_tag_attrib_def 3 3 -1 @23 generic_tag_attrib_def  2 3 @3 509 9 0 0 3 @3 512 4 0 0 #
shell $-1 -1 $-1 $-1 $-1 $7 $-1 $3 #
face $8 102 $-1 $9 $10 $6 $-1 $11 forward single #
ATTRIB_CUSTOM-attrib $-1 -1 $-1 $-1 $7 @22 generic_tag_attrib_def 3 3 -1 @23 generic_tag_attrib_def  1 1 @1 1 0 1 515 0 #
face $12 101 $-1 $13 $14 $6 $-1 $15 forward single #
loop $-1 -1 $-1 $16 $17 $7 #
torus-surface $-1 -1 $-1 0 0 0.5300000000000000266 -0 -0 -1 0.3242000000000000437 -0.02999999999999999889 -1 0 0 forward_v I I I I #
ATTRIB_CUSTOM-attrib $-1 -1 $18 $-1 $9 @22 FDM_feature_attrib_def 2 2 @16 thread_face_data 3 519 2097152 6 1901 0 0 0.5300000000000000266 0 0 2.467799999999999994 0 0 0 0 #
face $19 103 $-1 $20 $21 $6 $-1 $22 forward single #
loop $-1 -1 $-1 $23 $24 $9 #
cone-surface $-1 -1 $-1 0 0 0 0 0 1 0.2942000000000000171 0 0 1 I I 0 1 0.2999999999999999889 forward I I I I #
loop $-1 -1 $-1 $-1 $25 $7 #
coedge $-1 -1 $-1 $17 $17 $26 $27 forward $10 0 $-1 #
ATTRIB_CUSTOM-attrib $-1 -1 $-1 $12 $9 @22 generic_tag_attrib_def 3 3 -1 @23 generic_tag_attrib_def  1 1 @1 3 0 2 512 -519 0 #
ATTRIB_CUSTOM-attrib $-1 -1 $-1 $-1 $13 @22 generic_tag_attrib_def 3 3 -1 @23 generic_tag_attrib_def  1 1 @1 2 0 1 509 0 #
face $28 73 $-1 $29 $30 $6 $-1 $31 reversed single #
loop $-1 -1 $-1 $32 $33 $13 #
plane-surface $-1 -1 $-1 0 1.11022302462515654e-16 0.5 0 0 1 1 0 0 forward_v I I I I #
loop $-1 -1 $-1 $-1 $26 $9 #
coedge $-1 -1 $-1 $24 $24 $34 $35 reversed $14 0 $-1 #
coedge $-1 -1 $-1 $25 $25 $36 $37 forward $16 0 $-1 #
coedge $-1 -1 $-1 $26 $26 $17 $27 reversed $23 0 $-1 #
edge $-1 104 $-1 $38 -3.141592653589793116 $38 3.141592653589793116 $26 $39 forward @7 tangent #
ATTRIB_CUSTOM-attrib $-1 -1 $-1 $-1 $20 @22 generic_tag_attrib_def 3 3 -1 @23 generic_tag_attrib_def  1 1 @1 5 0 1 518 0 #
face $40 72 $-1 $41 $42 $6 $-1 $31 reversed single #
loop $-1 -1 $-1 $-1 $43 $20 #
cone-surface $-1 -1 $-1 3.611118645726067224e-35 0 0.0251388374866283737 1.716250170385091413e-17 -0 1 0.6064582562299425383 0 0 1 I I -0.8660254037844385966 -0.500000000000000111 0.6064582562299425383 forward I I I I #
loop $-1 -1 $-1 $-1 $36 $13 #
coedge $-1 -1 $-1 $44 $45 $46 $47 forward $21 0 $-1 #
coedge $-1 -1 $-1 $34 $34 $24 $35 forward $48 0 $-1 #
edge $-1 33 $-1 $49 -3.141592653589793116 $49 3.141592653589793116 $24 $50 reversed @7 unknown #
coedge $-1 -1 $-1 $36 $36 $25 $37 reversed $32 0 $-1 #
edge $-1 105 $-1 $51 -3.141592653589793116 $51 3.141592653589793116 $36 $52 forward @7 tangent #
vertex $-1 -1 $-1 $27 0 $53 #
ellipse-curve $-1 -1 $-1 0 0 0.5300000000000000266 -0 -0 -1 0.2942000000000000171 0 0 1 I I #
ATTRIB_CUSTOM-attrib $-1 -1 $-1 $-1 $29 @22 generic_tag_attrib_def 3 3 -1 @23 generic_tag_attrib_def  1 1 @1 5 0 1 518 0 #
face $54 71 $-1 $55 $56 $6 $-1 $31 reversed single #
loop $-1 -1 $-1 $-1 $57 $29 #
coedge $-1 -1 $-1 $58 $59 $60 $61 reversed $30 0 $-1 #
coedge $-1 -1 $-1 $62 $33 $63 $64 forward $21 0 $-1 #
coedge $-1 -1 $-1 $33 $65 $66 $67 forward $21 0 $-1 #
coedge $-1 -1 $-1 $68 $69 $33 $47 reversed $70 0 $-1 #
edge $-1 54 $-1 $71 1.570796326794896558 $72 2.617993877991493967 $33 $73 forward @7 unknown #
loop $-1 -1 $-1 $74 $34 $75 #
vertex $-1 -1 $-1 $35 0 $76 #
ellipse-curve $-1 -1 $-1 0 0 2.467799999999999994 -0 -0 -1 0.2942000000000000171 0 0 1 I I #
vertex $-1 -1 $-1 $37 0 $77 #
ellipse-curve $-1 -1 $-1 0 0 0.5 0 0 1 0.3242000000000000437 0 0 1 I I #
point $-1 -1 $-1 -0.2942000000000000171 3.602910883091513046e-17 0.5300000000000000266 #
ATTRIB_CUSTOM-attrib $-1 -1 $-1 $-1 $41 @22 generic_tag_attrib_def 3 3 -1 @23 generic_tag_attrib_def  1 1 @1 5 0 1 518 0 #
face $78 70 $-1 $79 $80 $6 $-1 $31 reversed single #
loop $-1 -1 $-1 $-1 $81 $41 #
coedge $-1 -1 $-1 $82 $83 $84 $85 reversed $42 0 $-1 #
coedge $-1 -1 $-1 $59 $43 $86 $87 reversed $30 0 $-1 #
coedge $-1 -1 $-1 $43 $58 $88 $89 reversed $30 0 $-1 #
coedge $-1 -1 $-1 $90 $91 $43 $61 forward $92 0 $-1 #
edge $-1 88 $-1 $93 0 $94 0.3297056722068198997 $60 $95 forward @7 unknown #
coedge $-1 -1 $-1 $96 $44 $97 $98 forward $21 0 $-1 #
coedge $-1 -1 $-1 $99 $100 $44 $64 reversed $101 0 $-1 #
edge $-1 55 $-1 $72 2.617993877991493967 $102 3.665191429188091377 $44 $73 forward @7 unknown #
coedge $-1 -1 $-1 $45 $96 $103 $104 forward $21 0 $-1 #
coedge $-1 -1 $-1 $105 $106 $45 $67 reversed $107 0 $-1 #
edge $-1 53 $-1 $108 0.5235987755982988157 $71 1.570796326794896558 $45 $73 forward @7 unknown #
coedge $-1 -1 $-1 $69 $46 $109 $110 reversed $70 0 $-1 #
coedge $-1 -1 $-1 $46 $68 $111 $112 reversed $70 0 $-1 #
loop $-1 -1 $-1 $-1 $69 $113 #
vertex $-1 -1 $-1 $114 2 $115 #
vertex $-1 -1 $-1 $47 2 $116 #
ellipse-curve $-1 -1 $-1 0 0 0.5 0 0 1 0.5629165124598851655 0 0 1 I I #
loop $-1 -1 $-1 $-1 $117 $75 #
face $118 30 $-1 $119 $48 $6 $-1 $120 forward single #
point $-1 -1 $-1 -0.2942000000000000171 3.602910883091513046e-17 2.467799999999999994 #
point $-1 -1 $-1 -0.3242000000000000437 -3.970304922835719427e-17 0.5 #
ATTRIB_CUSTOM-attrib $-1 -1 $-1 $-1 $55 @22 generic_tag_attrib_def 3 3 -1 @23 generic_tag_attrib_def  1 1 @1 5 0 1 518 0 #
face $121 69 $-1 $122 $123 $6 $-1 $31 reversed single #
loop $-1 -1 $-1 $-1 $124 $55 #
coedge $-1 -1 $-1 $125 $126 $127 $128 reversed $56 0 $-1 #
coedge $-1 -1 $-1 $83 $57 $129 $130 reversed $42 0 $-1 #
coedge $-1 -1 $-1 $57 $82 $131 $132 reversed $42 0 $-1 #
coedge $-1 -1 $-1 $133 $134 $57 $85 forward $135 0 $-1 #
edge $-1 87 $-1 $136 0.3297056722068202883 $137 0.6594113444136404656 $84 $138 forward @7 unknown #
coedge $-1 -1 $-1 $139 $131 $58 $87 forward $140 0 $-1 #
edge $-1 85 $-1 $141 0.3297056722068197887 $93 0.6594113444136396884 $86 $142 forward @7 unknown #
coedge $-1 -1 $-1 $129 $143 $59 $89 forward $144 0 $-1 #
edge $-1 92 $-1 $94 -0.5235987755982988157 $141 0.5235987755982988157 $88 $145 forward @7 unknown #
coedge $-1 -1 $-1 $146 $60 $147 $148 forward $92 0 $-1 #
coedge $-1 -1 $-1 $60 $149 $139 $150 reversed $92 0 $-1 #
loop $-1 -1 $-1 $-1 $90 $151 #
vertex $-1 -1 $-1 $150 0 $152 #
vertex $-1 -1 $-1 $61 1 $153 #
intcurve-curve $-1 -1 $-1 forward { exact_int_cur 22403 full nurbs 2 open 2 
	0 2 0.3297056722068198997 2 
	0.6500000000000000222 1.189933451466996565e-16 0.05027767497325676127 1 
	0.5629165124598851655 0.1508330249197702977 4.640385298237958978e-17 1.037954849302046068 
	0.4875000000000000444 0.2814582562299426383 4.857225732735059864e-17 1 
	0 
	
	null_surface 
	null_surface 
	nullbs 
	nullbs 
	I I 
	0 
	0 
	0 
	
	0 F 1 F 0 UNEXTENDED UNEXTENDED } I I #
coedge $-1 -1 $-1 $65 $62 $154 $155 forward $21 0 $-1 #
coedge $-1 -1 $-1 $156 $157 $62 $98 reversed $158 0 $-1 #
edge $-1 50 $-1 $102 -2.617993877991494855 $159 -1.57079632679489678 $62 $73 forward @7 unknown #
coedge $-1 -1 $-1 $100 $63 $160 $161 reversed $101 0 $-1 #
coedge $-1 -1 $-1 $63 $99 $162 $163 reversed $101 0 $-1 #
loop $-1 -1 $-1 $-1 $100 $164 #
vertex $-1 -1 $-1 $64 2 $165 #
coedge $-1 -1 $-1 $166 $167 $65 $104 reversed $168 0 $-1 #
edge $-1 52 $-1 $169 -0.5235987755982988157 $108 0.5235987755982988157 $65 $73 forward @7 unknown #
coedge $-1 -1 $-1 $106 $66 $170 $171 reversed $107 0 $-1 #
coedge $-1 -1 $-1 $66 $105 $172 $114 reversed $107 0 $-1 #
loop $-1 -1 $-1 $-1 $105 $173 #
vertex $-1 -1 $-1 $171 2 $174 #
coedge $-1 -1 $-1 $172 $175 $68 $110 forward $176 0 $-1 #
edge $-1 64 $-1 $177 0 $71 0.3297056722068196777 $109 $178 forward @7 unknown #
coedge $-1 -1 $-1 $179 $160 $69 $112 forward $180 0 $-1 #
edge $-1 63 $-1 $72 0.3297056722068198442 $177 0.6594113444136396884 $111 $181 forward @7 unknown #
face $182 45 $-1 $183 $70 $6 $-1 $184 reversed single #
edge $-1 65 $-1 $71 0.3297056722068196777 $185 0.6594113444136392443 $172 $186 forward @7 unknown #
point $-1 -1 $-1 8.326672684688674053e-17 0.5629165124598851655 0.5 #
point $-1 -1 $-1 -0.4874999999999999334 0.2814582562299426938 0.5 #
coedge $-1 -1 $-1 $117 $117 $187 $188 forward $74 0 $-1 #
ATTRIB_CUSTOM-attrib $-1 -1 $-1 $-1 $75 @22 generic_tag_attrib_def 3 3 -1 @23 generic_tag_attrib_def  1 1 @1 1 0 1 514 0 #
face $189 31 $-1 $190 $191 $6 $-1 $192 forward single #
cone-surface $-1 -1 $-1 0 0 2.480999999999999872 0 0 1 0.2810000000000000275 0 0 1 I I -0.707106781186549127 0.7071067811865460184 0.2810000000000000275 forward I I I I #
ATTRIB_CUSTOM-attrib $-1 -1 $-1 $-1 $79 @22 generic_tag_attrib_def 3 3 -1 @23 generic_tag_attrib_def  1 1 @1 5 0 1 518 0 #
face $193 68 $-1 $194 $195 $6 $-1 $31 reversed single #
loop $-1 -1 $-1 $-1 $196 $79 #
coedge $-1 -1 $-1 $147 $197 $198 $199 reversed $80 0 $-1 #
coedge $-1 -1 $-1 $126 $81 $200 $201 reversed $56 0 $-1 #
coedge $-1 -1 $-1 $81 $125 $134 $202 reversed $56 0 $-1 #
coedge $-1 -1 $-1 $203 $204 $81 $128 forward $205 0 $-1 #
edge $-1 79 $-1 $206 0.3297056722068196777 $207 0.6594113444136392443 $127 $208 forward @7 unknown #
coedge $-1 -1 $-1 $200 $88 $82 $130 forward $144 0 $-1 #
edge $-1 93 $-1 $141 0.5235987755982988157 $136 1.57079632679489678 $129 $145 forward @7 unknown #
coedge $-1 -1 $-1 $86 $209 $83 $132 forward $140 0 $-1 #
edge $-1 84 $-1 $137 0 $141 0.3297056722068197887 $131 $210 forward @7 unknown #
coedge $-1 -1 $-1 $211 $84 $209 $212 forward $135 0 $-1 #
coedge $-1 -1 $-1 $84 $213 $126 $202 forward $135 0 $-1 #
loop $-1 -1 $-1 $-1 $134 $214 #
vertex $-1 -1 $-1 $85 0 $215 #
vertex $-1 -1 $-1 $212 0 $216 #
intcurve-curve $-1 -1 $-1 forward { exact_int_cur 22403 full nurbs 2 open 2 
	0.3297056722068202883 2 0.6594113444136404656 2 
	-9.060129764723728491e-17 -0.5629165124598849435 -9.714451465470119729e-17 1 
	0.150833024919769576 -0.5629165124598849435 -1.64798730217796674e-16 1.037954849302044291 
	0.3250000000000001776 -0.5629165124598850545 0.05027767497325679596 1 
	0 
	
	null_surface 
	null_surface 
	nullbs 
	nullbs 
	I I 
	0 
	0 
	0 
	
	0 F 1 F 0 UNEXTENDED UNEXTENDED } I I #
coedge $-1 -1 $-1 $217 $86 $91 $150 forward $140 0 $-1 #
loop $-1 -1 $-1 $-1 $86 $190 #
vertex $-1 -1 $-1 $132 1 $218 #
intcurve-curve $-1 -1 $-1 forward { exact_int_cur 22403 full nurbs 2 open 2 
	0.3297056722068197887 2 0.6594113444136396884 2 
	0.4875000000000000444 -0.2814582562299425827 -6.938893903907228378e-18 1 
	0.5629165124598851655 -0.1508330249197704087 -2.168404344971008868e-18 1.037954849302036298 
	0.6500000000000000222 -1.189933451466996565e-16 0.05027767497325676127 1 
	0 
	
	null_surface 
	null_surface 
	nullbs 
	nullbs 
	I I 
	0 
	0 
	0 
	
	0 F 1 F 0 UNEXTENDED UNEXTENDED } I I #
coedge $-1 -1 $-1 $88 $219 $197 $220 forward $144 0 $-1 #
loop $-1 -1 $-1 $-1 $129 $221 #
ellipse-curve $-1 -1 $-1 -4.314453411970906251e-19 0 0 -0 -0 -1 0.5629165124598851655 0 0 1 I I #
coedge $-1 -1 $-1 $170 $90 $222 $223 forward $92 0 $-1 #
coedge $-1 -1 $-1 $197 $124 $90 $148 reversed $80 0 $-1 #
edge $-1 89 $-1 $94 0.3297056722068198997 $224 0.6594113444136396884 $90 $225 forward @7 unknown #
coedge $-1 -1 $-1 $91 $170 $167 $226 forward $92 0 $-1 #
edge $-1 77 $-1 $93 0.05027767497325673351 $227 0.4497223250267432526 $91 $228 forward @7 unknown #
face $229 5 $-1 $221 $92 $6 $-1 $230 forward single #
point $-1 -1 $-1 0.6500000000000000222 0 0.05027767497325673351 #
point $-1 -1 $-1 0.4875000000000000444 0.2814582562299425827 2.041621275233521044e-18 #
coedge $-1 -1 $-1 $231 $232 $96 $155 reversed $233 0 $-1 #
edge $-1 51 $-1 $159 -1.57079632679489678 $169 -0.5235987755982988157 $96 $73 forward @7 unknown #
coedge $-1 -1 $-1 $157 $97 $234 $235 reversed $158 0 $-1 #
coedge $-1 -1 $-1 $97 $156 $236 $237 reversed $158 0 $-1 #
loop $-1 -1 $-1 $-1 $157 $238 #
vertex $-1 -1 $-1 $155 2 $239 #
coedge $-1 -1 $-1 $111 $240 $99 $161 forward $180 0 $-1 #
edge $-1 62 $-1 $241 0 $72 0.3297056722068198442 $160 $242 forward @7 unknown #
coedge $-1 -1 $-1 $243 $234 $100 $163 forward $205 0 $-1 #
edge $-1 61 $-1 $102 0.3297056722068195667 $241 0.6594113444136392443 $162 $244 forward @7 unknown #
face $245 42 $-1 $238 $101 $6 $-1 $184 reversed single #
point $-1 -1 $-1 -0.4875000000000001554 -0.2814582562299424162 0.5 #
coedge $-1 -1 $-1 $167 $103 $217 $246 reversed $168 0 $-1 #
coedge $-1 -1 $-1 $103 $166 $149 $226 reversed $168 0 $-1 #
loop $-1 -1 $-1 $-1 $166 $183 #
vertex $-1 -1 $-1 $104 2 $247 #
coedge $-1 -1 $-1 $149 $146 $105 $171 forward $92 0 $-1 #
edge $-1 66 $-1 $185 0 $108 0.3297056722068196777 $170 $248 forward @7 unknown #
coedge $-1 -1 $-1 $222 $109 $106 $114 forward $176 0 $-1 #
face $249 46 $-1 $113 $107 $6 $-1 $184 reversed single #
point $-1 -1 $-1 0.4875000000000000444 0.2814582562299425827 0.5 #
coedge $-1 -1 $-1 $109 $250 $179 $251 forward $176 0 $-1 #
loop $-1 -1 $-1 $-1 $250 $252 #
vertex $-1 -1 $-1 $110 0 $253 #
intcurve-curve $-1 -1 $-1 forward { exact_int_cur 22403 full nurbs 2 open 2 
	0 2 0.3297056722068196777 2 
	-0.3249999999999996225 0.5629165124598852765 0.4497223250267432526 1 
	-0.1508330249197694095 0.5629165124598851655 0.500000000000000111 1.037954849302037186 
	9.016985230604020132e-17 0.5629165124598851655 0.4999999999999999445 1 
	0 
	
	null_surface 
	null_surface 
	nullbs 
	nullbs 
	I I 
	0 
	0 
	0 
	
	0 F 1 F 0 UNEXTENDED UNEXTENDED } I I #
coedge $-1 -1 $-1 $254 $111 $175 $251 reversed $180 0 $-1 #
loop $-1 -1 $-1 $-1 $254 $194 #
intcurve-curve $-1 -1 $-1 forward { exact_int_cur 22403 full nurbs 2 open 2 
	0.3297056722068198442 2 0.6594113444136396884 2 
	-0.4874999999999998779 0.2814582562299427493 0.5 1 
	-0.4120834875401147568 0.4120834875401150343 0.5 1.037954849302036298 
	-0.3249999999999999001 0.5629165124598851655 0.4497223250267432526 1 
	0 
	
	null_surface 
	null_surface 
	nullbs 
	nullbs 
	I I 
	0 
	0 
	0 
	
	0 F 1 F 0 UNEXTENDED UNEXTENDED } I I #
ATTRIB_CUSTOM-attrib $-1 -1 $-1 $-1 $113 @22 generic_tag_attrib_def 3 3 -1 @23 generic_tag_attrib_def  1 1 @1 3 0 1 517 0 #
face $255 44 $-1 $256 $168 $6 $-1 $184 reversed single #
cone-surface $-1 -1 $-1 0 0 0.4748611625133716263 0 0 1 0.6064582562299425383 0 0 1 I I 0.8660254037844385966 -0.500000000000000111 0.6064582562299425383 forward I I I I #
vertex $-1 -1 $-1 $114 1 $257 #
intcurve-curve $-1 -1 $-1 forward { exact_int_cur 22403 full nurbs 2 open 2 
	0.3297056722068196777 2 0.6594113444136392443 2 
	9.016985230604020132e-17 0.5629165124598851655 0.4999999999999999445 1 
	0.1508330249197697426 0.5629165124598851655 0.5 1.037954849302045623 
	0.324999999999999678 0.5629165124598851655 0.4497223250267433081 1 
	0 
	
	null_surface 
	null_surface 
	nullbs 
	nullbs 
	I I 
	0 
	0 
	0 
	
	0 F 1 F 0 UNEXTENDED UNEXTENDED } I I #
coedge $-1 -1 $-1 $187 $187 $117 $188 reversed $191 0 $-1 #
edge $-1 34 $-1 $258 -3.141592653589793116 $258 3.141592653589793116 $187 $259 forward @7 unknown #
ATTRIB_CUSTOM-attrib $-1 -1 $-1 $-1 $119 @22 generic_tag_attrib_def 3 3 -1 @23 generic_tag_attrib_def  1 1 @1 2 0 1 512 0 #
face $260 0 $-1 $151 $140 $6 $-1 $261 forward single #
loop $-1 -1 $-1 $-1 $187 $119 #
plane-surface $-1 -1 $-1 0 0 2.5 0 0 1 1 0 0 forward_v I I I I #
ATTRIB_CUSTOM-attrib $-1 -1 $-1 $-1 $122 @22 generic_tag_attrib_def 3 3 -1 @23 generic_tag_attrib_def  1 1 @1 5 0 1 518 0 #
face $262 76 $-1 $263 $180 $6 $-1 $264 forward single #
loop $-1 -1 $-1 $-1 $265 $122 #
coedge $-1 -1 $-1 $266 $267 $268 $269 reversed $123 0 $-1 #
coedge $-1 -1 $-1 $124 $147 $143 $220 reversed $80 0 $-1 #
coedge $-1 -1 $-1 $250 $222 $124 $199 forward $176 0 $-1 #
edge $-1 82 $-1 $224 0 $270 0.3297056722068198997 $198 $271 forward @7 unknown #
coedge $-1 -1 $-1 $272 $129 $125 $201 forward $144 0 $-1 #
edge $-1 94 $-1 $136 1.57079632679489678 $206 2.617993877991494855 $200 $145 forward @7 unknown #
edge $-1 86 $-1 $207 0 $136 0.3297056722068202883 $134 $273 forward @7 unknown #
coedge $-1 -1 $-1 $234 $127 $213 $274 forward $205 0 $-1 #
coedge $-1 -1 $-1 $127 $243 $267 $275 forward $205 0 $-1 #
loop $-1 -1 $-1 $-1 $204 $263 #
vertex $-1 -1 $-1 $201 1 $276 #
vertex $-1 -1 $-1 $274 0 $277 #
intcurve-curve $-1 -1 $-1 forward { exact_int_cur 22403 full nurbs 2 open 2 
	0.3297056722068196777 2 0.6594113444136392443 2 
	-0.4875000000000001554 -0.2814582562299424717 6.938893903907228378e-17 1 
	-0.4120834875401150899 -0.4120834875401148678 1.1492543028346347e-16 1.03795484930202675 
	-0.3250000000000004552 -0.5629165124598847214 0.05027767497325673351 1 
	0 
	
	null_surface 
	null_surface 
	nullbs 
	nullbs 
	I I 
	0 
	0 
	0 
	
	0 F 1 F 0 UNEXTENDED UNEXTENDED } I I #
coedge $-1 -1 $-1 $131 $278 $133 $212 reversed $140 0 $-1 #
intcurve-curve $-1 -1 $-1 forward { exact_int_cur 22403 full nurbs 2 open 2 
	0 2 0.3297056722068197887 2 
	0.3250000000000001776 -0.5629165124598850545 0.0502776749732568029 1 
	0.4120834875401151454 -0.4120834875401145903 -2.602085213965210642e-18 1.037954849302031635 
	0.4875000000000000444 -0.2814582562299425827 -6.938893903907228378e-18 1 
	0 
	
	null_surface 
	null_surface 
	nullbs 
	nullbs 
	I I 
	0 
	0 
	0 
	
	0 F 1 F 0 UNEXTENDED UNEXTENDED } I I #
coedge $-1 -1 $-1 $236 $133 $231 $279 forward $135 0 $-1 #
edge $-1 96 $-1 $137 0.05027767497325674045 $280 0.4497223250267432526 $133 $281 forward @7 unknown #
coedge $-1 -1 $-1 $134 $236 $203 $274 reversed $135 0 $-1 #
face $282 74 $-1 $173 $135 $6 $-1 $283 forward single #
point $-1 -1 $-1 -8.369817218808383645e-17 -0.5629165124598849435 1.040834085586084411e-17 #
point $-1 -1 $-1 0.3250000000000001776 -0.5629165124598849435 0.05027767497325674045 #
coedge $-1 -1 $-1 $278 $139 $166 $246 forward $140 0 $-1 #
point $-1 -1 $-1 0.4875000000000000999 -0.2814582562299425827 2.041621275233521044e-18 #
coedge $-1 -1 $-1 $143 $272 $284 $285 forward $144 0 $-1 #
edge $-1 91 $-1 $270 -1.570796326794896558 $94 -0.5235987755982988157 $143 $145 forward @7 unknown #
face $286 6 $-1 $-1 $144 $6 $-1 $287 reversed single #
coedge $-1 -1 $-1 $198 $172 $146 $223 reversed $176 0 $-1 #
edge $-1 98 $-1 $224 0.05027767497325674045 $185 0.4497223250267432526 $146 $288 forward @7 unknown #
vertex $-1 -1 $-1 $223 0 $289 #
intcurve-curve $-1 -1 $-1 forward { exact_int_cur 22403 full nurbs 2 open 2 
	0.3297056722068198997 2 0.6594113444136396884 2 
	0.4875000000000000444 0.2814582562299426383 4.857225732735059864e-17 1 
	0.4120834875401149788 0.4120834875401149788 6.07153216591882483e-17 1.037954849302047844 
	0.3250000000000001221 0.5629165124598850545 0.05027767497325677515 1 
	0 
	
	null_surface 
	null_surface 
	nullbs 
	nullbs 
	I I 
	0 
	0 
	0 
	
	0 F 1 F 0 UNEXTENDED UNEXTENDED } I I #
edge $-1 67 $-1 $108 0.3297056722068196777 $227 0.6594113444136393554 $149 $290 forward @7 unknown #
vertex $-1 -1 $-1 $226 1 $291 #
straight-curve $-1 -1 $-1 0.6500000000000000222 0 0 0 0 1 I I #
ATTRIB_CUSTOM-attrib $-1 -1 $-1 $-1 $151 @22 generic_tag_attrib_def 3 3 -1 @23 generic_tag_attrib_def  1 1 @1 3 0 1 509 0 #
plane-surface $-1 -1 $-1 0.6500000000000000222 0 0 0.8660254037844387076 0.5 -0 -0.5 0.8660254037844387076 -0 forward_v I I I I #
coedge $-1 -1 $-1 $232 $154 $211 $279 reversed $233 0 $-1 #
coedge $-1 -1 $-1 $154 $231 $278 $292 reversed $233 0 $-1 #
loop $-1 -1 $-1 $-1 $231 $256 #
coedge $-1 -1 $-1 $162 $203 $156 $235 forward $205 0 $-1 #
edge $-1 60 $-1 $293 0 $102 0.3297056722068195667 $234 $294 forward @7 unknown #
coedge $-1 -1 $-1 $213 $211 $157 $237 forward $135 0 $-1 #
edge $-1 59 $-1 $159 0.3297056722068200108 $293 0.6594113444136400215 $236 $295 forward @7 unknown #
face $296 41 $-1 $252 $158 $6 $-1 $184 reversed single #
point $-1 -1 $-1 -8.326672684688674053e-17 -0.5629165124598849435 0.5 #
coedge $-1 -1 $-1 $160 $268 $243 $297 forward $180 0 $-1 #
vertex $-1 -1 $-1 $161 0 $298 #
intcurve-curve $-1 -1 $-1 forward { exact_int_cur 22403 full nurbs 2 open 2 
	0 2 0.3297056722068198442 2 
	-0.6499999999999999112 3.569800354400989694e-16 0.4497223250267432526 1 
	-0.5629165124598849435 0.1508330249197705197 0.5 1.037954849302040961 
	-0.4874999999999998779 0.2814582562299427493 0.5 1 
	0 
	
	null_surface 
	null_surface 
	nullbs 
	nullbs 
	I I 
	0 
	0 
	0 
	
	0 F 1 F 0 UNEXTENDED UNEXTENDED } I I #
coedge $-1 -1 $-1 $204 $162 $240 $297 reversed $205 0 $-1 #
intcurve-curve $-1 -1 $-1 forward { exact_int_cur 22403 full nurbs 2 open 2 
	0.3297056722068195667 2 0.6594113444136392443 2 
	-0.4875000000000001554 -0.2814582562299424717 0.4999999999999999445 1 
	-0.5629165124598852765 -0.1508330249197700479 0.499999999999999889 1.037954849302036742 
	-0.6499999999999999112 -1.189933451466996565e-16 0.4497223250267432526 1 
	0 
	
	null_surface 
	null_surface 
	nullbs 
	nullbs 
	I I 
	0 
	0 
	0 
	
	0 F 1 F 0 UNEXTENDED UNEXTENDED } I I #
ATTRIB_CUSTOM-attrib $-1 -1 $-1 $-1 $164 @22 generic_tag_attrib_def 3 3 -1 @23 generic_tag_attrib_def  1 1 @1 3 0 1 517 0 #
edge $-1 56 $-1 $227 0 $169 0.3297056722068198997 $217 $299 forward @7 unknown #
point $-1 -1 $-1 0.4875000000000000999 -0.2814582562299425827 0.5 #
intcurve-curve $-1 -1 $-1 forward { exact_int_cur 22403 full nurbs 2 open 2 
	0 2 0.3297056722068196777 2 
	0.3250000000000002331 0.5629165124598849435 0.4497223250267432526 1 
	0.4120834875401149233 0.4120834875401149233 0.5 1.037954849302028082 
	0.4875000000000000444 0.2814582562299426383 0.4999999999999999445 1 
	0 
	
	null_surface 
	null_surface 
	nullbs 
	nullbs 
	I I 
	0 
	0 
	0 
	
	0 F 1 F 0 UNEXTENDED UNEXTENDED } I I #
ATTRIB_CUSTOM-attrib $-1 -1 $-1 $-1 $173 @22 generic_tag_attrib_def 3 3 -1 @23 generic_tag_attrib_def  1 1 @1 3 0 1 517 0 #
coedge $-1 -1 $-1 $175 $198 $265 $300 forward $176 0 $-1 #
edge $-1 100 $-1 $301 0.05027767497325675433 $177 0.4497223250267432526 $175 $302 forward @7 unknown #
face $303 47 $-1 $75 $176 $6 $-1 $304 forward single #
point $-1 -1 $-1 -0.3249999999999998446 0.5629165124598851655 0.4497223250267432526 #
coedge $-1 -1 $-1 $268 $179 $305 $306 forward $180 0 $-1 #
ATTRIB_CUSTOM-attrib $-1 -1 $-1 $-1 $183 @22 generic_tag_attrib_def 3 3 -1 @23 generic_tag_attrib_def  1 1 @1 3 0 1 517 0 #
face $307 43 $-1 $164 $233 $6 $-1 $184 reversed single #
point $-1 -1 $-1 0.3250000000000000666 0.5629165124598851655 0.4497223250267432526 #
vertex $-1 -1 $-1 $188 0 $308 #
ellipse-curve $-1 -1 $-1 0 0 2.5 -0 -0 -1 0.2620000000000000107 0 0 1 I I #
ATTRIB_CUSTOM-attrib $-1 -1 $-1 $-1 $190 @22 generic_tag_attrib_def 3 3 -1 @23 generic_tag_attrib_def  1 1 @1 8 0 1 509 0 #
plane-surface $-1 -1 $-1 0.3250000000000000666 -0.5629165124598850545 0 0.8660254037844387076 -0.5 0 0.5 0.8660254037844387076 -0 forward_v I I I I #
ATTRIB_CUSTOM-attrib $-1 -1 $-1 $-1 $194 @22 generic_tag_attrib_def 3 3 -1 @23 generic_tag_attrib_def  1 1 @1 5 0 1 509 0 #
face $309 75 $-1 $214 $205 $6 $-1 $310 forward single #
plane-surface $-1 -1 $-1 -0.3249999999999998446 0.5629165124598851655 0 -0.8660254037844385966 0.5000000000000003331 0 -0.5000000000000003331 -0.8660254037844385966 -0 forward_v I I I I #
coedge $-1 -1 $-1 $284 $305 $250 $300 reversed $195 0 $-1 #
coedge $-1 -1 $-1 $267 $196 $272 $311 reversed $123 0 $-1 #
coedge $-1 -1 $-1 $196 $266 $204 $275 reversed $123 0 $-1 #
coedge $-1 -1 $-1 $240 $254 $196 $269 forward $180 0 $-1 #
edge $-1 81 $-1 $312 0.3297056722068197887 $313 0.6594113444136395774 $268 $314 forward @7 unknown #
vertex $-1 -1 $-1 $220 0 $315 #
intcurve-curve $-1 -1 $-1 forward { exact_int_cur 22403 full nurbs 2 open 2 
	0 2 0.3297056722068198997 2 
	0.3249999999999999556 0.5629165124598851655 0.05027767497325673351 1 
	0.1508330249197697148 0.5629165124598851655 -4.813857645835639687e-17 1.037954849302043181 
	8.97384069648431054e-17 0.5629165124598851655 3.469446951953614189e-17 1 
	0 
	
	null_surface 
	null_surface 
	nullbs 
	nullbs 
	I I 
	0 
	0 
	0 
	
	0 F 1 F 0 UNEXTENDED UNEXTENDED } I I #
coedge $-1 -1 $-1 $219 $200 $266 $311 forward $144 0 $-1 #
intcurve-curve $-1 -1 $-1 forward { exact_int_cur 22403 full nurbs 2 open 2 
	0 2 0.3297056722068202883 2 
	-0.3250000000000003442 -0.5629165124598849435 0.05027767497325676127 1 
	-0.1508330249197697981 -0.5629165124598849435 -1.808449223705821396e-16 1.037954849302052507 
	-9.060129764723728491e-17 -0.5629165124598849435 -9.714451465470119729e-17 1 
	0 
	
	null_surface 
	null_surface 
	nullbs 
	nullbs 
	I I 
	0 
	0 
	0 
	
	0 F 1 F 0 UNEXTENDED UNEXTENDED } I I #
edge $-1 97 $-1 $207 0.05027767497325676127 $293 0.4497223250267432526 $203 $316 forward @7 unknown #
edge $-1 78 $-1 $313 0 $206 0.3297056722068196777 $204 $317 forward @7 unknown #
point $-1 -1 $-1 -0.4875000000000001554 -0.2814582562299424162 1.877506043648816717e-17 #
point $-1 -1 $-1 -0.3250000000000002887 -0.5629165124598849435 0.05027767497325676127 #
coedge $-1 -1 $-1 $209 $217 $232 $292 forward $140 0 $-1 #
edge $-1 58 $-1 $280 0 $159 0.3297056722068200108 $211 $318 forward @7 unknown #
vertex $-1 -1 $-1 $292 1 $319 #
straight-curve $-1 -1 $-1 0.3250000000000000666 -0.5629165124598850545 0 0 0 1 I I #
ATTRIB_CUSTOM-attrib $-1 -1 $-1 $-1 $214 @22 generic_tag_attrib_def 3 3 -1 @23 generic_tag_attrib_def  1 1 @1 7 0 1 509 0 #
plane-surface $-1 -1 $-1 -0.3250000000000002887 -0.5629165124598849435 0 -1.70803542250023994e-16 -1 0 1 -1.70803542250023994e-16 -0 forward_v I I I I #
coedge $-1 -1 $-1 $305 $265 $219 $285 reversed $195 0 $-1 #
edge $-1 90 $-1 $312 -2.617993877991493967 $270 -1.570796326794896558 $219 $145 forward @7 unknown #
ATTRIB_CUSTOM-attrib $-1 -1 $-1 $-1 $221 @22 generic_tag_attrib_def 3 3 -1 @23 generic_tag_attrib_def  2 1 @1 1 0 1 509 0 1 @1 1 0 1 512 0 #
plane-surface $-1 -1 $-1 0 1.11022302462515654e-16 0 0 0 1 1 0 0 forward_v I I I I #
straight-curve $-1 -1 $-1 0.3250000000000000666 0.5629165124598850545 0 0 0 1 I I #
point $-1 -1 $-1 0.3250000000000000666 0.5629165124598851655 0.05027767497325674045 #
intcurve-curve $-1 -1 $-1 forward { exact_int_cur 22403 full nurbs 2 open 2 
	0.3297056722068196777 2 0.6594113444136393554 2 
	0.4875000000000000444 0.2814582562299426383 0.4999999999999999445 1 
	0.5629165124598852765 0.1508330249197701867 0.4999999999999999445 1.037954849302035853 
	0.6499999999999999112 3.569800354400989694e-16 0.4497223250267433081 1 
	0 
	
	null_surface 
	null_surface 
	nullbs 
	nullbs 
	I I 
	0 
	0 
	0 
	
	0 F 1 F 0 UNEXTENDED UNEXTENDED } I I #
point $-1 -1 $-1 0.6500000000000000222 0 0.4497223250267432526 #
edge $-1 57 $-1 $169 0.3297056722068198997 $280 0.6594113444136396884 $278 $320 forward @7 unknown #
vertex $-1 -1 $-1 $235 0 $321 #
intcurve-curve $-1 -1 $-1 forward { exact_int_cur 22403 full nurbs 2 open 2 
	0 2 0.3297056722068195667 2 
	-0.3250000000000004552 -0.5629165124598847214 0.4497223250267432526 1 
	-0.4120834875401151454 -0.4120834875401147568 0.499999999999999889 1.037954849302036298 
	-0.4875000000000001554 -0.2814582562299424717 0.4999999999999999445 1 
	0 
	
	null_surface 
	null_surface 
	nullbs 
	nullbs 
	I I 
	0 
	0 
	0 
	
	0 F 1 F 0 UNEXTENDED UNEXTENDED } I I #
intcurve-curve $-1 -1 $-1 forward { exact_int_cur 22403 full nurbs 2 open 2 
	0.3297056722068200108 2 0.6594113444136400215 2 
	-9.016985230604020132e-17 -0.5629165124598849435 0.500000000000000111 1 
	-0.1508330249197698536 -0.5629165124598849435 0.500000000000000222 1.037954849302027638 
	-0.3250000000000000666 -0.5629165124598849435 0.4497223250267433081 1 
	0 
	
	null_surface 
	null_surface 
	nullbs 
	nullbs 
	I I 
	0 
	0 
	0 
	
	0 F 1 F 0 UNEXTENDED UNEXTENDED } I I #
ATTRIB_CUSTOM-attrib $-1 -1 $-1 $-1 $238 @22 generic_tag_attrib_def 3 3 -1 @23 generic_tag_attrib_def  1 1 @1 3 0 1 517 0 #
edge $-1 99 $-1 $313 0.05027767497325676127 $241 0.4497223250267432526 $240 $322 forward @7 unknown #
point $-1 -1 $-1 -0.6500000000000000222 1.665334536937734811e-16 0.4497223250267432526 #
intcurve-curve $-1 -1 $-1 forward { exact_int_cur 22403 full nurbs 2 open 2 
	0 2 0.3297056722068198997 2 
	0.6500000000000000222 -1.189933451466996565e-16 0.4497223250267432526 1 
	0.5629165124598851655 -0.1508330249197703254 0.5 1.037954849302033189 
	0.4875000000000000444 -0.2814582562299425827 0.5 1 
	0 
	
	null_surface 
	null_surface 
	nullbs 
	nullbs 
	I I 
	0 
	0 
	0 
	
	0 F 1 F 0 UNEXTENDED UNEXTENDED } I I #
edge $-1 83 $-1 $270 0.3297056722068198997 $301 0.6594113444136397995 $250 $323 forward @7 unknown #
vertex $-1 -1 $-1 $251 0 $324 #
straight-curve $-1 -1 $-1 -0.3249999999999998446 0.5629165124598851655 0 0 0 1 I I #
ATTRIB_CUSTOM-attrib $-1 -1 $-1 $-1 $252 @22 generic_tag_attrib_def 3 3 -1 @23 generic_tag_attrib_def  1 1 @1 4 0 1 509 0 #
plane-surface $-1 -1 $-1 0.3250000000000000666 0.5629165124598850545 0 1.708035422500241173e-16 1 -0 -1 1.708035422500241173e-16 -0 forward_v I I I I #
coedge $-1 -1 $-1 $265 $284 $254 $306 reversed $195 0 $-1 #
edge $-1 80 $-1 $301 0 $312 0.3297056722068197887 $254 $325 forward @7 unknown #
ATTRIB_CUSTOM-attrib $-1 -1 $-1 $-1 $256 @22 generic_tag_attrib_def 3 3 -1 @23 generic_tag_attrib_def  1 1 @1 3 0 1 517 0 #
point $-1 -1 $-1 -0.2620000000000000107 3.208574613766065694e-17 2.5 #
ATTRIB_CUSTOM-attrib $-1 -1 $-1 $-1 $263 @22 generic_tag_attrib_def 3 3 -1 @23 generic_tag_attrib_def  1 1 @1 6 0 1 509 0 #
plane-surface $-1 -1 $-1 -0.6500000000000000222 1.11022302462515654e-16 0 -0.8660254037844388186 -0.4999999999999997224 0 0.4999999999999997224 -0.8660254037844388186 -0 forward_v I I I I #
edge $-1 95 $-1 $206 2.617993877991494855 $312 3.665191429188092265 $272 $145 forward @7 unknown #
vertex $-1 -1 $-1 $311 1 $326 #
vertex $-1 -1 $-1 $297 0 $327 #
intcurve-curve $-1 -1 $-1 forward { exact_int_cur 22403 full nurbs 2 open 2 
	0.3297056722068197887 2 0.6594113444136395774 2 
	-0.4874999999999998779 0.2814582562299427493 -2.081668171172168513e-17 1 
	-0.5629165124598849435 0.1508330249197705752 -1.951563910473907981e-17 1.037954849302037186 
	-0.6499999999999999112 3.569800354400989694e-16 0.05027767497325674739 1 
	0 
	
	null_surface 
	null_surface 
	nullbs 
	nullbs 
	I I 
	0 
	0 
	0 
	
	0 F 1 F 0 UNEXTENDED UNEXTENDED } I I #
point $-1 -1 $-1 8.283528150568964461e-17 0.5629165124598851655 1.040834085586083948e-17 #
straight-curve $-1 -1 $-1 -0.3250000000000002887 -0.5629165124598849435 0 0 0 1 I I #
intcurve-curve $-1 -1 $-1 forward { exact_int_cur 22403 full nurbs 2 open 2 
	0 2 0.3297056722068196777 2 
	-0.6499999999999999112 -1.189933451466996565e-16 0.05027767497325673351 1 
	-0.5629165124598853875 -0.1508330249197699924 1.105886215935214523e-16 1.037954849302039628 
	-0.4875000000000001554 -0.2814582562299424717 6.938893903907228378e-17 1 
	0 
	
	null_surface 
	null_surface 
	nullbs 
	nullbs 
	I I 
	0 
	0 
	0 
	
	0 F 1 F 0 UNEXTENDED UNEXTENDED } I I #
intcurve-curve $-1 -1 $-1 forward { exact_int_cur 22403 full nurbs 2 open 2 
	0 2 0.3297056722068200108 2 
	0.3249999999999999556 -0.5629165124598850545 0.4497223250267432526 1 
	0.1508330249197695483 -0.5629165124598849435 0.500000000000000111 1.037954849302052063 
	-9.016985230604020132e-17 -0.5629165124598849435 0.500000000000000111 1 
	0 
	
	null_surface 
	null_surface 
	nullbs 
	nullbs 
	I I 
	0 
	0 
	0 
	
	0 F 1 F 0 UNEXTENDED UNEXTENDED } I I #
point $-1 -1 $-1 0.3250000000000001776 -0.5629165124598849435 0.4497223250267432526 #
intcurve-curve $-1 -1 $-1 forward { exact_int_cur 22403 full nurbs 2 open 2 
	0.3297056722068198997 2 0.6594113444136396884 2 
	0.4875000000000000444 -0.2814582562299425827 0.5 1 
	0.4120834875401151454 -0.4120834875401145903 0.5 1.037954849302043181 
	0.3250000000000001221 -0.5629165124598849435 0.4497223250267431971 1 
	0 
	
	null_surface 
	null_surface 
	nullbs 
	nullbs 
	I I 
	0 
	0 
	0 
	
	0 F 1 F 0 UNEXTENDED UNEXTENDED } I I #
point $-1 -1 $-1 -0.3250000000000005107 -0.5629165124598848324 0.4497223250267432526 #
straight-curve $-1 -1 $-1 -0.6500000000000000222 1.11022302462515654e-16 0 0 0 1 I I #
intcurve-curve $-1 -1 $-1 forward { exact_int_cur 22403 full nurbs 2 open 2 
	0.3297056722068198997 2 0.6594113444136397995 2 
	8.97384069648431054e-17 0.5629165124598851655 3.469446951953614189e-17 1 
	-0.1508330249197698258 0.5629165124598851655 1.387778780781445676e-17 1.037954849302050286 
	-0.3249999999999997891 0.5629165124598852765 0.05027767497325678903 1 
	0 
	
	null_surface 
	null_surface 
	nullbs 
	nullbs 
	I I 
	0 
	0 
	0 
	
	0 F 1 F 0 UNEXTENDED UNEXTENDED } I I #
point $-1 -1 $-1 -0.3249999999999998446 0.5629165124598851655 0.05027767497325675433 #
intcurve-curve $-1 -1 $-1 forward { exact_int_cur 22403 full nurbs 2 open 2 
	0 2 0.3297056722068197887 2 
	-0.3249999999999999001 0.5629165124598851655 0.05027767497325674739 1 
	-0.4120834875401148123 0.4120834875401150343 7.806255641895631925e-18 1.037954849302034077 
	-0.4874999999999998779 0.2814582562299427493 -2.081668171172168513e-17 1 
	0 
	
	null_surface 
	null_surface 
	nullbs 
	nullbs 
	I I 
	0 
	0 
	0 
	
	0 F 1 F 0 UNEXTENDED UNEXTENDED } I I #
point $-1 -1 $-1 -0.4874999999999999334 0.2814582562299426938 1.877506043648816101e-17 #
point $-1 -1 $-1 -0.6500000000000000222 1.665334536937734811e-16 0.05027767497325676127 #
End-of-ASM-data 